<?xml version="1.0" encoding="utf-8"?>
<!-- Generator: Adobe Illustrator 24.3.0, SVG Export Plug-In . SVG Version: 6.00 Build 0)  -->
<svg version="1.1" id="Layer_1" xmlns="http://www.w3.org/2000/svg" xmlns:xlink="http://www.w3.org/1999/xlink" x="0px" y="0px"
	 viewBox="0 0 48 48" style="enable-background:new 0 0 48 48;" xml:space="preserve">
<style type="text/css">
	.st0{fill:#DD0031;}
	.st1{fill:#C3002F;}
	.st2{fill:#FFFFFF;}
</style>
<polygon class="st0" points="24,0 24,0 24,0 1.7,8 5.1,37.5 24,48 24,48 24,48 42.9,37.5 46.3,8 "/>
<polygon class="st1" points="24,0 24,5.3 24,5.3 24,29.6 24,29.6 24,48 24,48 42.9,37.5 46.3,8 "/>
<path class="st2" d="M24,5.3L10,36.6l0,0h5.2l0,0l2.8-7h11.9l2.8,7l0,0h5.2l0,0L24,5.3L24,5.3L24,5.3L24,5.3L24,5.3z M28.1,25.3
	h-8.2l4.1-9.8L28.1,25.3z"/>
</svg>
