<svg xmlns="http://www.w3.org/2000/svg" xmlns:xlink="http://www.w3.org/1999/xlink" id="Layer_1" x="0" y="0" version="1.1" viewBox="0 0 48 48" xml:space="preserve" style="enable-background:new 0 0 48 48"><style type="text/css">.st0{fill:#dd0031}.st1{fill:#c3002f}.st2{fill:#fff}</style><polygon points="24 0 24 0 24 0 1.7 8 5.1 37.5 24 48 24 48 24 48 42.9 37.5 46.3 8" class="st0"/><polygon points="24 0 24 5.3 24 5.3 24 29.6 24 29.6 24 48 24 48 42.9 37.5 46.3 8" class="st1"/><path d="M24,5.3L10,36.6l0,0h5.2l0,0l2.8-7h11.9l2.8,7l0,0h5.2l0,0L24,5.3L24,5.3L24,5.3L24,5.3L24,5.3z M28.1,25.3	h-8.2l4.1-9.8L28.1,25.3z" class="st2"/></svg>