<?xml version="1.0" encoding="utf-8"?>
<!-- Generator: Adobe Illustrator 24.3.0, SVG Export Plug-In . SVG Version: 6.00 Build 0)  -->
<svg version="1.1" id="Layer_1" xmlns:serif="http://www.serif.com/"
	 xmlns="http://www.w3.org/2000/svg" xmlns:xlink="http://www.w3.org/1999/xlink" x="0px" y="0px" viewBox="0 0 48 48"
	 style="enable-background:new 0 0 48 48;" xml:space="preserve">
<style type="text/css">
	.st0{fill:#050507;}
	.st1{fill:#F9DC3E;}
</style>
<g id="B" transform="matrix(1,0,0,1,2432.3,329.575)">
	<g id="Shadow" transform="matrix(1,0,0,1,4.5,8)">
		<path class="st0" d="M-2398.4-311.8c0.2,0,0.8-2.2,0.8-2.1l-0.2-1.2c-0.1-0.4-1.1-1.6-3.1-3.9c0-0.4,0.7-1.1,2.1-1.9l4.1-3.6
			c0.9-1.2,1.5-3.1,1.6-5.7l-0.1-0.6c-0.2-1.8-1.5-3.3-4-4.5c-1.5-1-4.1-1.5-8-1.6c-3.2,0.3-7.3,1.4-12.5,3.4c-1.4,1-3,2-4.8,3
			l0,0.3c0.1,0,0.3-0.1,0.5-0.2c0.2,0,0.3,0.1,0.3,0.3l0.3-0.2l0.2,0l0,0.1c0,0.1-1.1,1-3.4,2.6l0.2,0.3l-0.2,0l-0.3-0.1
			c0,0.1-0.1,0.2-0.5,0.2l0,0.2l0.4,0.4c-0.1,0-0.3,0-0.5-0.1c-0.7,0.1-1.4,0.6-2.1,1.6l0.2,0.3c0.6-0.6,1-0.8,1.1-0.9l0,0.5
			c-0.1,0-0.3,0.1-0.5,0.2l0.4,0.6c0.7-0.8,1.6-1.5,2.4-2.1c0.4,0.1,0.7,0.3,0.7,0.4l0.3,0c2.4-1.8,4.8-3.1,7.2-3.9l0,0.3
			c-0.4,0.7-0.7,1-0.9,1c0,0.2,0.1,0.4,0.2,0.6c0,0.4-1,3.1-3.2,8.1c-5,11.7-9.1,20.3-12.5,25.9c0,0.1,0.1,0.3,0.2,0.4
			c0.8-0.2,1.4-0.4,1.6-0.6l0.2,0l0,0.3l0.3,0l0.3-0.2c0,0.1,0.1,0.1,0.3,0.1l0,0.3c0,0.3-0.1,0.8-0.5,1.4c-0.3,0.4-0.7,1.2-1.1,2.4
			l0,0.1l0.3,0c1.3-1.5,2.4-3,3.1-4.4c3.9-1.2,6.9-2.3,9-3.4c2.1-0.2,3.7-0.7,4.8-1.6l0-0.2l-0.8,0.2l-0.2,0l0-0.2
			c1.5-0.2,2.6-0.6,3.2-1c3-2.3,5.2-3.9,6.8-4.9C-2401.4-307.4-2399.4-309.7-2398.4-311.8z M-2425.6-326l-0.2,0l0-0.3l0.6-0.1l0,0.1
			C-2425.3-326.2-2425.4-326.1-2425.6-326z M-2428.8-294.4c-0.4-0.2-0.7-0.2-1-0.2l0-0.5c0-0.2,0.1-0.3,0.3-0.3
			c0.2,0,0.3,0.1,0.3,0.4c0.5-0.7,0.8-1,0.9-1l0.3,0.1C-2428-294.9-2428.3-294.4-2428.8-294.4z M-2395-329.7c-0.2,0-0.5-0.5-0.9-1.5
			l0-0.3c0.3,0,0.6,0.5,0.9,1.5L-2395-329.7z M-2395.5-333.2l-0.1,0.3l-4.6-1.9C-2397.1-334.7-2395.6-334.2-2395.5-333.2z
			 M-2414.8-316.6l-0.6,0.1l0-0.3l0.6-0.1L-2414.8-316.6z M-2415.4-326.6l0.2,0l0,0.5c-0.1,0-0.3,0.2-0.6,0.7l0-0.3
			C-2415.5-326.1-2415.3-326.4-2415.4-326.6z M-2416.7-323.3l0.1,0.6l-0.2,0l-0.1-0.6L-2416.7-323.3z M-2417.4-322.2l0.3,0
			c0,0.5-0.2,0.8-0.4,0.8l-0.2,0C-2417.5-321.8-2417.4-322-2417.4-322.2z M-2418-320.6l0.2,0l0,0.1l-0.3,0.5l-0.3,0l0-0.1
			C-2418.1-320.1-2417.9-320.3-2418-320.6z M-2418.5-319.2l-0.1,0.8l-0.2,0l-0.1-0.8L-2418.5-319.2z M-2423.8-304.2
			c-0.2,1-0.4,1.6-0.7,1.6l0-0.1C-2424.5-303.3-2424.3-303.8-2423.8-304.2z M-2424.7-302.1l0,0.1c0,0.2-0.1,0.3-0.3,0.3l0-0.1
			C-2425-302-2424.9-302.1-2424.7-302.1z M-2425-297.8l0.5,0l0,0.2c-0.1,0-0.3,0.1-0.5,0.2l-0.3,0
			C-2425.3-297.6-2425.2-297.7-2425-297.8z M-2411.1-302.1c-2.7,1.3-4.3,2.3-4.8,2.7c-3,1-4.4,1.7-4.4,1.9c-2.6,1-4.4,1.8-5.2,2.3
			c-0.2,0-0.5-0.1-0.9-0.2c0-0.5,0.2-1,0.7-1.3c0.5,0,0.9,0,1.3,0.2c0.5-0.3,1.3-0.5,2.5-0.8l0-0.3l-1,0.1c0.1-0.2,1.1-0.6,2.8-1.3
			l0.5,0l0,0.1c-0.8,0.1-1.3,0.3-1.4,0.8c0,0.2,0.1,0.3,0.3,0.3c0.6-0.4,0.9-0.6,0.9-0.7c1.2-0.2,4.5-1.9,9.9-5.2l0,0.3
			C-2409.7-303.2-2410.2-302.8-2411.1-302.1z M-2419.4-299.4c0.8-0.1,1.5-0.4,2-0.9c0.2,0,0.3,0.1,0.4,0.3c-0.4,0-1.1,0.4-2.2,1
			l-0.2,0L-2419.4-299.4z M-2406.1-309.6l-4.1,3.3c-3.1,2-4.7,3-5,3c-4.9,2.7-7.9,4.1-9.1,4.2l-0.2,0c0.1-0.6,2.3-5,6.5-13.4
			c1.9-0.2,4.8-1,8.8-2.6l1-0.1c2-0.2,3.5,0.2,4.5,1.2l0.1,0.6C-2404.3-311.2-2405.2-310-2406.1-309.6z M-2414.1-314.2l0.7-0.1
			l0,0.1l-0.7,0.1L-2414.1-314.2z M-2404.8-315.7l0.5,0c0.4,0.2,0.7,0.4,0.7,0.6l0,0.1C-2404-315-2404.4-315.3-2404.8-315.7z
			 M-2403.5-323.3c-0.4,0.5-1.6,1.4-3.5,2.6c-0.6,0.1-3,1-7.1,2.8c-0.2-0.1-0.4-0.1-0.7-0.1l0-0.3c0-0.6,0.2-1.3,0.8-2.2
			c0.3-1.7,0.7-2.7,1-2.9l3.4-7.7c0-0.5,0.7-0.8,2.2-1.1l0.5,0l0,0.4c1.5-0.2,2.4-0.4,2.7-0.4c2.7-0.2,4.1,0.3,4.2,1.6l0.3,0
			l-0.1-0.8l0.3,0c0.8,0.4,1.2,1,1.3,1.6c0,0.4-0.2,1-0.7,1.6c-0.2,0-0.3-0.1-0.3-0.4l-0.3,0l-0.1,0.9c-1.4,2.1-2.4,3.1-3,3.2
			C-2403-323.7-2403.3-323.3-2403.5-323.3z M-2401.4-317.9c-0.3-0.2-0.5-0.3-0.7-0.3l0-0.5l0.3,0l0.7,0.4
			C-2401.1-318-2401.2-317.9-2401.4-317.9z M-2399.2-315.3c0.3,0.1,0.5,0.3,0.5,0.4l-0.1,0l0,0c0,0-0.1,0-0.1,0l-0.2,0.2
			L-2399.2-315.3z M-2399-314l0-0.1l0.4-0.1l0,0.1L-2399-314z M-2398-312.9c0,0,0,0.2,0,0.2C-2398.1-312.8-2398.1-312.9-2398-312.9z
			"/>
	</g>
	<path id="Babel-B" serif:id="Babel B" class="st1" d="M-2394.4-304.6c0.2,0,0.8-2.2,0.8-2.1l-0.2-1.2c-0.1-0.4-1.1-1.6-3.1-3.9
		c0-0.4,0.7-1.1,2.1-1.9l4.1-3.6c0.9-1.2,1.5-3.1,1.6-5.7l-0.1-0.6c-0.2-1.8-1.5-3.3-4-4.5c-1.5-1-4.1-1.5-8-1.6
		c-3.2,0.3-7.3,1.4-12.5,3.4c-1.4,1-3,2-4.8,3l0,0.3c0.1,0,0.3-0.1,0.5-0.2c0.2,0,0.3,0.1,0.3,0.3l0.3-0.2l0.2,0l0,0.1
		c0,0.1-1.1,1-3.4,2.6l0.2,0.3l-0.2,0l-0.3-0.1c0,0.1-0.1,0.2-0.5,0.2l0,0.2l0.4,0.4c-0.1,0-0.3,0-0.5-0.1c-0.7,0.1-1.4,0.6-2.1,1.6
		l0.2,0.3c0.6-0.6,1-0.8,1.1-0.9l0,0.5c-0.1,0-0.3,0.1-0.5,0.2l0.4,0.6c0.7-0.8,1.6-1.5,2.4-2.1c0.4,0.1,0.7,0.3,0.7,0.4l0.3,0
		c2.4-1.8,4.8-3.1,7.2-3.9l0,0.3c-0.4,0.7-0.7,1-0.9,1c0,0.2,0.1,0.4,0.2,0.6c0,0.4-1,3.1-3.2,8.1c-5,11.7-9.1,20.3-12.5,25.9
		c0,0.1,0.1,0.3,0.2,0.4c0.8-0.2,1.4-0.4,1.6-0.6l0.2,0l0,0.3l0.3,0l0.3-0.2c0,0.1,0.1,0.1,0.3,0.1l0,0.3c0,0.3-0.1,0.8-0.5,1.4
		c-0.3,0.4-0.7,1.2-1.1,2.4l0,0.1l0.3,0c1.3-1.5,2.4-3,3.1-4.4c3.9-1.2,6.9-2.3,9-3.4c2.1-0.2,3.7-0.7,4.8-1.6l0-0.2l-0.8,0.2
		l-0.2,0l0-0.2c1.5-0.2,2.6-0.6,3.2-1c3-2.3,5.2-3.9,6.8-4.9C-2397.3-300.2-2395.3-302.4-2394.4-304.6z M-2421.5-318.7l-0.2,0l0-0.3
		l0.6-0.1l0,0.1C-2421.2-318.9-2421.3-318.9-2421.5-318.7z M-2424.7-287.1c-0.4-0.2-0.7-0.2-1-0.2l0-0.5c0-0.2,0.1-0.3,0.3-0.3
		c0.2,0,0.3,0.1,0.3,0.4c0.5-0.7,0.8-1,0.9-1l0.3,0.1C-2424-287.7-2424.2-287.2-2424.7-287.1z M-2391-322.4c-0.2,0-0.5-0.5-0.9-1.5
		l0-0.3c0.3,0,0.6,0.5,0.9,1.5L-2391-322.4z M-2391.4-325.9l-0.1,0.3l-4.6-1.9C-2393.1-327.4-2391.5-326.9-2391.4-325.9z
		 M-2410.8-309.3l-0.6,0.1l0-0.3l0.6-0.1L-2410.8-309.3z M-2411.3-319.3l0.2,0l0,0.5c-0.1,0-0.3,0.2-0.6,0.7l0-0.3
		C-2411.4-318.9-2411.3-319.1-2411.3-319.3z M-2412.6-316.1l0.1,0.6l-0.2,0l-0.1-0.6L-2412.6-316.1z M-2413.4-315l0.3,0
		c0,0.5-0.2,0.8-0.4,0.8l-0.2,0C-2413.4-314.5-2413.3-314.8-2413.4-315z M-2413.9-313.4l0.2,0l0,0.1l-0.3,0.5l-0.3,0l0-0.1
		C-2414-312.9-2413.9-313.1-2413.9-313.4z M-2414.4-311.9l-0.1,0.8l-0.2,0l-0.1-0.8L-2414.4-311.9z M-2419.7-297
		c-0.2,1-0.4,1.6-0.7,1.6l0-0.1C-2420.4-296-2420.2-296.5-2419.7-297z M-2420.6-294.9l0,0.1c0,0.2-0.1,0.3-0.3,0.3l0-0.1
		C-2420.9-294.7-2420.8-294.8-2420.6-294.9z M-2420.9-290.6l0.5,0l0,0.2c-0.1,0-0.3,0.1-0.5,0.2l-0.3,0
		C-2421.2-290.4-2421.1-290.5-2420.9-290.6z M-2407-294.8c-2.7,1.3-4.3,2.3-4.8,2.7c-3,1-4.4,1.7-4.4,1.9c-2.6,1-4.4,1.8-5.2,2.3
		c-0.2,0-0.5-0.1-0.9-0.2c0-0.5,0.2-1,0.7-1.3c0.5,0,0.9,0,1.3,0.2c0.5-0.3,1.3-0.5,2.5-0.8l0-0.3l-1,0.1c0.1-0.2,1.1-0.6,2.8-1.3
		l0.5,0l0,0.1c-0.8,0.1-1.3,0.3-1.4,0.8c0,0.2,0.1,0.3,0.3,0.3c0.6-0.4,0.9-0.6,0.9-0.7c1.2-0.2,4.5-1.9,9.9-5.2l0,0.3
		C-2405.7-295.9-2406.1-295.5-2407-294.8z M-2415.3-292.1c0.8-0.1,1.5-0.4,2-0.9c0.2,0,0.3,0.1,0.4,0.3c-0.4,0-1.1,0.4-2.2,1l-0.2,0
		L-2415.3-292.1z M-2402-302.4l-4.1,3.3c-3.1,2-4.7,3-5,3c-4.9,2.7-7.9,4.1-9.1,4.2l-0.2,0c0.1-0.6,2.3-5,6.5-13.4
		c1.9-0.2,4.8-1,8.8-2.6l1-0.1c2-0.2,3.5,0.2,4.5,1.2l0.1,0.6C-2400.3-304-2401.1-302.7-2402-302.4z M-2410.1-306.9l0.7-0.1l0,0.1
		l-0.7,0.1L-2410.1-306.9z M-2400.7-308.5l0.5,0c0.4,0.2,0.7,0.4,0.7,0.6l0,0.1C-2399.9-307.8-2400.3-308-2400.7-308.5z
		 M-2399.4-316c-0.4,0.5-1.6,1.4-3.5,2.6c-0.6,0.1-3,1-7.1,2.8c-0.2-0.1-0.4-0.1-0.7-0.1l0-0.3c0-0.6,0.2-1.3,0.8-2.2
		c0.3-1.7,0.7-2.7,1-2.9l3.4-7.7c0-0.5,0.7-0.8,2.2-1.1l0.5,0l0,0.4c1.5-0.2,2.4-0.4,2.7-0.4c2.7-0.2,4.1,0.3,4.2,1.6l0.3,0
		l-0.1-0.8l0.3,0c0.8,0.4,1.2,1,1.3,1.6c0,0.4-0.2,1-0.7,1.6c-0.2,0-0.3-0.1-0.3-0.4l-0.3,0l-0.1,0.9c-1.4,2.1-2.4,3.1-3,3.2
		C-2398.9-316.4-2399.3-316-2399.4-316z M-2397.3-310.6c-0.3-0.2-0.5-0.3-0.7-0.3l0-0.5l0.3,0l0.7,0.4
		C-2397-310.8-2397.1-310.6-2397.3-310.6z M-2395.1-308c0.3,0.1,0.5,0.3,0.5,0.4l-0.1,0l0,0c0,0-0.1,0-0.1,0l-0.2,0.2L-2395.1-308z
		 M-2394.9-306.8l0-0.1l0.4-0.1l0,0.1L-2394.9-306.8z M-2394-305.7c0,0,0,0.2,0,0.2C-2394-305.6-2394-305.6-2394-305.7z"/>
</g>
</svg>
