<svg xmlns="http://www.w3.org/2000/svg" xmlns:xlink="http://www.w3.org/1999/xlink" id="Layer_1" x="0" y="0" version="1.1" viewBox="0 0 48 48" xml:space="preserve" style="enable-background:new 0 0 48 48"><style type="text/css">.st0{fill:#002a41}.st1{fill:#0071b5}</style><g><path d="M4.7,0v26L24,37v-7.5l-12.9-7.4V10.5L24,17.9V11L4.7,0L4.7,0z" class="st0"/><path d="M43.3,0v26L24,37v-7.5l12.9-7.4V10.5L24,17.9V11L43.3,0L43.3,0z" class="st1"/><path d="M4.7,48V22L24,11v7.5l-12.9,7.4v11L24,29.5V37L4.7,48L4.7,48z" class="st1"/><path d="M43.3,48V22L24,11v7.5l12.9,7.4v11L24,29.5V37L43.3,48L43.3,48z" class="st0"/></g></svg>