<?xml version="1.0" encoding="utf-8"?>
<!-- Generator: Adobe Illustrator 24.3.0, SVG Export Plug-In . SVG Version: 6.00 Build 0)  -->
<svg version="1.1" id="Layer_1" xmlns="http://www.w3.org/2000/svg" xmlns:xlink="http://www.w3.org/1999/xlink" x="0px" y="0px"
	 viewBox="0 0 48 48" style="enable-background:new 0 0 48 48;" xml:space="preserve">
<style type="text/css">
	.st0{fill:#002A41;}
	.st1{fill:#0071B5;}
</style>
<g>
	<path class="st0" d="M4.7,0v26L24,37v-7.5l-12.9-7.4V10.5L24,17.9V11L4.7,0L4.7,0z"/>
	<path class="st1" d="M43.3,0v26L24,37v-7.5l12.9-7.4V10.5L24,17.9V11L43.3,0L43.3,0z"/>
	<path class="st1" d="M4.7,48V22L24,11v7.5l-12.9,7.4v11L24,29.5V37L4.7,48L4.7,48z"/>
	<path class="st0" d="M43.3,48V22L24,11v7.5l12.9,7.4v11L24,29.5V37L43.3,48L43.3,48z"/>
</g>
</svg>
