<?xml version="1.0" encoding="utf-8"?>
<!-- Generator: Adobe Illustrator 24.3.0, SVG Export Plug-In . SVG Version: 6.00 Build 0)  -->
<svg version="1.1" id="Layer_1" focusable="false" xmlns="http://www.w3.org/2000/svg" xmlns:xlink="http://www.w3.org/1999/xlink"
	 x="0px" y="0px" viewBox="0 0 48 48" style="enable-background:new 0 0 48 48;" xml:space="preserve">
<style type="text/css">
	.st0{fill:#563D7C;}
	.st1{fill:#FFFFFF;}
</style>
<path class="st0" d="M48,40c0,4.4-3.6,8-8,8H8c-4.4,0-8-3.6-8-8V8c0-4.4,3.6-8,8-8h32c4.4,0,8,3.6,8,8V40z"/>
<path class="st1" d="M13,10.4h13.6c2.5,0,4.5,0.6,6,1.7S35,15,35,17.4c0,1.4-0.3,2.6-1,3.6s-1.7,1.8-3,2.3v0.1
	c1.7,0.4,3,1.2,3.9,2.4c0.9,1.3,1.3,2.9,1.3,4.8c0,1.1-0.2,2.1-0.6,3.1c-0.4,1-1,1.8-1.8,2.5c-0.8,0.7-1.9,1.2-3.2,1.6
	s-2.9,0.6-4.7,0.6H13C13,38.4,13,10.4,13,10.4z M17.9,22.2h8c1.2,0,2.2-0.3,2.9-1c0.8-0.7,1.2-1.6,1.2-2.9c0-1.4-0.4-2.4-1.1-3
	c-0.7-0.6-1.7-0.9-3.1-0.9h-8C17.9,14.4,17.9,22.2,17.9,22.2z M17.9,34.4h8.7c1.5,0,2.7-0.4,3.5-1.2c0.8-0.8,1.2-1.9,1.2-3.3
	c0-1.4-0.4-2.4-1.2-3.2c-0.8-0.8-2-1.1-3.5-1.1h-8.7V34.4z"/>
</svg>
