<svg xmlns="http://www.w3.org/2000/svg" xmlns:xlink="http://www.w3.org/1999/xlink" id="Layer_1" x="0" y="0" version="1.1" viewBox="0 0 48 48" xml:space="preserve" style="enable-background:new 0 0 48 48"><style type="text/css">.st0{fill:#0277bd}.st1{fill:#039be5}.st2{fill:#fff}.st3{fill:#eee}</style><path d="M45.5,0H2.5l3.8,42.9L24,48l17.7-5.1L45.5,0L45.5,0z" class="st0"/><path d="M24,3.8v40.3l14.1-4l3.2-36.3H24z" class="st1"/><path d="M35.5,10.1H24v5.1h6.2l-0.4,5.1H24v5.1h5.6l-0.4,5.7L24,32.7V38l10-3.3l0.9-14.5l0,0L35.5,10.1z" class="st2"/><path d="M24,10.1v5.1H12.8l-0.4-5.1H24z M18.2,20.2l0.3,5.1H24v-5.1H18.2z M18.7,27.8h-5.1l0.4,6.9L24,38v-5.3l-5.2-1.8	L18.7,27.8z" class="st3"/></svg>