<?xml version="1.0" encoding="utf-8"?>
<!-- Generator: Adobe Illustrator 24.3.0, SVG Export Plug-In . SVG Version: 6.00 Build 0)  -->
<svg version="1.1" id="Layer_1" xmlns:svg="http://www.w3.org/2000/svg"
	 xmlns="http://www.w3.org/2000/svg" xmlns:xlink="http://www.w3.org/1999/xlink" x="0px" y="0px" viewBox="0 0 48 48"
	 style="enable-background:new 0 0 48 48;" xml:space="preserve">
<style type="text/css">
	.st0{fill:#FFFFFF;}
	.st1{fill:#BA8449;}
	.st2{fill:#FFF8EE;}
	.st3{opacity:0.3;clip-path:url(#SVGID_2_);}
	.st4{opacity:0.3;clip-path:url(#SVGID_4_);}
	.st5{opacity:0.3;clip-path:url(#SVGID_6_);}
	.st6{fill:#895B2E;}
	.st7{fill:#E5D0AE;}
	.st8{opacity:0.15;clip-path:url(#SVGID_8_);}
	.st9{fill:#E3AB5E;}
	.st10{fill:#FCD4C3;}
	.st11{fill:none;stroke:#F8A38F;stroke-width:0.375;stroke-miterlimit:1.875;}
	.st12{opacity:0.5;clip-path:url(#SVGID_10_);}
	.st13{opacity:0.5;clip-path:url(#SVGID_12_);}
	.st14{opacity:0.25;clip-path:url(#SVGID_14_);}
	.st15{opacity:0.5;clip-path:url(#SVGID_16_);}
	.st16{opacity:0.15;clip-path:url(#SVGID_18_);}
	.st17{fill:none;stroke:#E5D0AE;stroke-width:0.5625;stroke-linecap:round;stroke-linejoin:round;stroke-miterlimit:1.875;}
	.st18{fill:none;stroke:#895B2E;stroke-width:0.375;stroke-linecap:round;stroke-linejoin:round;stroke-miterlimit:1.875;}
	.st19{clip-path:url(#SVGID_20_);}
	.st20{clip-path:url(#SVGID_22_);}
	.st21{opacity:0.25;clip-path:url(#SVGID_24_);}
	.st22{fill:#E5BFA1;}
	.st23{opacity:0.15;clip-path:url(#SVGID_26_);}
	.st24{opacity:0.25;clip-path:url(#SVGID_28_);}
	.st25{fill:#F8A38F;}
	.st26{clip-path:url(#SVGID_30_);}
	.st27{opacity:0.25;clip-path:url(#SVGID_32_);}
	.st28{fill:#F7E8D0;}
	.st29{opacity:0.5;clip-path:url(#SVGID_34_);}
	.st30{fill:#D8CAB2;}
	.st31{opacity:0.5;clip-path:url(#SVGID_36_);}
	.st32{fill:#333333;}
	.st33{clip-path:url(#SVGID_38_);}
	.st34{clip-path:url(#SVGID_40_);}
	.st35{fill:#FFF7E3;}
	.st36{clip-path:url(#SVGID_42_);}
	.st37{fill:#FFDC99;}
	.st38{clip-path:url(#SVGID_44_);}
	.st39{fill:#EADCBE;}
	.st40{clip-path:url(#SVGID_46_);}
	.st41{opacity:0.4;clip-path:url(#SVGID_48_);}
	.st42{opacity:0.5;clip-path:url(#SVGID_50_);}
	.st43{clip-path:url(#SVGID_52_);}
	.st44{fill:#1A1A1A;}
	.st45{opacity:0.5;clip-path:url(#SVGID_54_);}
	.st46{fill:none;stroke:#333333;stroke-width:0.75;stroke-miterlimit:1.875;}
	.st47{opacity:0.5;clip-path:url(#SVGID_56_);}
	.st48{opacity:0.3;clip-path:url(#SVGID_58_);}
	.st49{opacity:0.3;clip-path:url(#SVGID_60_);}
	.st50{opacity:0.3;clip-path:url(#SVGID_62_);}
	.st51{opacity:0.3;clip-path:url(#SVGID_64_);}
	.st52{opacity:0.3;clip-path:url(#SVGID_66_);}
	.st53{opacity:0.3;clip-path:url(#SVGID_68_);}
	.st54{clip-path:url(#SVGID_70_);}
	.st55{fill:#D0DDDC;}
	.st56{clip-path:url(#SVGID_72_);}
	.st57{clip-path:url(#SVGID_74_);}
	.st58{clip-path:url(#SVGID_76_);}
	.st59{opacity:0.25;clip-path:url(#SVGID_78_);}
	.st60{opacity:0.25;clip-path:url(#SVGID_80_);}
	.st61{opacity:0.1;clip-path:url(#SVGID_82_);}
	.st62{opacity:0.1;clip-path:url(#SVGID_84_);}
	.st63{fill:#E24B31;}
</style>
<path class="st0" d="M10.8,36.3c0-0.1,0.1-0.2,0.1-0.3l0,0c0.1-0.2,0.2-0.5,0.3-0.7c0.1-0.3,0.2-0.6,0.3-0.9
	c0.1-0.2,0.1-0.3,0.2-0.5c0.1-0.4,0.4-1,0.6-1.5c0.2-0.3,0.3-0.5,0.4-0.8c0.2-0.2,0.3-0.5,0.5-0.7l0.1-0.2l0.2-0.1
	c0,0,0.1,0,0.1-0.1c0.1-0.1,0.2-0.1,0.3-0.1c0.1-0.1,0.3-0.1,0.5-0.2c0.3-0.1,0.6-0.2,0.9-0.2c0.5-0.1,1.1-0.2,1.8-0.3
	c1.1-0.2,2.2-0.3,3.6-0.5c2.4-0.3,4.8-0.4,7.2-0.6c1.2-0.1,2.2-0.1,3.1-0.1c0.2,0,0.4,0,0.6,0c0.6,0,1.3,0,1.9,0.1
	c0.2,0,0.4,0.1,0.6,0.1c0.1,0,0.1,0,0.1,0.1l0.2,0.1l0.2,0.1c0.1,0.1,0.1,0.1,0.2,0.2c0.2,0.2,0.4,0.4,0.7,0.7
	c0.7,0.9,1.3,2,1.9,3.2c0.5,1.2,0.9,2.3,1.1,3.3l0.3,1.5h-3.5l-0.2-1c-0.2-1.1-3.1-3.8-4.5-4.4c-0.2-0.1-0.8-0.2-2.6-0.2
	c-3.8,0-9.2,0.7-10,0.8c-0.9,0.4-2.3,2.2-3.1,4L14.4,38"/>
<path class="st1" d="M34.3,30.8c-0.2-0.2-0.4-0.4-0.6-0.6c0,0-0.1-0.1-0.1-0.1c0,0,0,0,0,0c-0.1,0-0.2-0.1-0.4-0.1
	c-0.5-0.1-1.1-0.1-1.7-0.1c-1.2,0-2.4,0-3.5,0.1c-2.4,0.1-4.7,0.3-7.1,0.6c-1.2,0.1-2.4,0.3-3.5,0.5c-0.6,0.1-1.2,0.2-1.7,0.3
	c-0.3,0.1-0.6,0.1-0.8,0.2c-0.1,0-0.3,0.1-0.4,0.1c-0.1,0-0.1,0-0.1,0.1c0,0,0,0,0,0c-0.1,0.2-0.3,0.4-0.4,0.6
	c-0.1,0.2-0.2,0.4-0.3,0.7c-0.2,0.5-0.4,0.9-0.6,1.4c-0.2,0.5-0.4,1-0.5,1.4c-0.1,0.2-0.2,0.5-0.3,0.7c0,0.1-0.1,0.2-0.2,0.3h1.6
	c0.9-1.9,2.5-4.1,3.8-4.7c0.4-0.1,6.4-0.9,10.4-0.9c1.5,0,2.5,0.1,3.1,0.3c1.6,0.6,4.9,3.7,5.2,5.3H37c-0.2-1-0.6-2-1-3
	C35.5,32.7,35,31.7,34.3,30.8"/>
<path class="st0" d="M33.6,30L33.6,30L33.6,30L33.6,30L33.6,30L33.6,30z"/>
<path class="st1" d="M33.6,30L33.6,30L33.6,30L33.6,30L33.6,30L33.6,30z"/>
<path class="st0" d="M36,38l-0.2-1c-0.2-0.8-0.5-1.7-0.9-2.7c-0.5-1.1-1-2-1.6-2.7c-0.1-0.2-0.2-0.3-0.3-0.4c-0.5-0.1-1-0.1-1.5-0.1
	c-0.2,0-0.3,0-0.5,0c-0.8,0-1.7,0-2.9,0.1c-2.3,0.1-4.6,0.3-7,0.6c-1.3,0.1-2.4,0.3-3.5,0.4c-0.7,0.1-1.2,0.2-1.7,0.3
	c-0.3,0.1-0.5,0.1-0.7,0.2c0,0-0.1,0-0.1,0c0,0.1-0.1,0.1-0.1,0.2c-0.1,0.2-0.2,0.3-0.3,0.5c-0.2,0.4-0.4,0.9-0.5,1.3
	C14,34.9,14,35,13.9,35.2c-0.1,0.3-0.2,0.6-0.4,1c-0.1,0.2-0.2,0.5-0.3,0.8l0,0c0,0.1-0.1,0.2-0.1,0.3L12.8,38h-2.2l-0.3-0.2l0,0
	c-0.8-0.4-0.8-1.1-0.7-1.3v-0.1l0-0.2l0.1-0.2c0-0.1,0.1-0.3,0.1-0.4c0.1-0.3,0.2-0.5,0.3-0.8c0.2-0.5,0.4-1,0.6-1.6
	c0.3-0.6,0.5-1.1,0.8-1.6c0.1-0.2,0.3-0.5,0.5-0.8c0.2-0.3,0.4-0.5,0.5-0.8c0.2-0.2,0.3-0.3,0.4-0.4h0c0.1-0.1,0.2-0.2,0.3-0.2
	c0.2-0.1,0.3-0.2,0.4-0.2c0.2-0.1,0.4-0.2,0.6-0.2c0.4-0.1,0.7-0.2,1-0.2c0.5-0.1,1.1-0.2,1.9-0.3c1.1-0.2,2.2-0.3,3.6-0.4
	c2.4-0.2,4.9-0.4,7.2-0.5c1.1,0,2-0.1,2.8-0.1c0.3,0,0.6,0,0.9,0c0.6,0,1.3,0,2,0.2h0c0.2,0,0.4,0.1,0.7,0.2h0
	c0.1,0,0.2,0.1,0.3,0.1c0.1,0.1,0.2,0.1,0.2,0.1l0.1,0.1l0.1,0.1l0.1,0.1c0.1,0.1,0.1,0.1,0.2,0.2c0.2,0.2,0.5,0.5,0.7,0.8
	c0.8,1,1.4,2.1,2,3.4c0.3,0.6,0.5,1.2,0.7,1.8c0.2,0.7,0.4,1.3,0.5,1.9l0.2,1.4L36,38L36,38z"/>
<path class="st0" d="M12,38l0.8-1.8c0.7-1.5,2.4-4.2,4.2-5l0,0c0.6-0.2,6.9-1,10.7-1c2.1,0,2.9,0.2,3.4,0.4c1.9,0.8,5.3,3.9,5.7,5.8
	l0.4,1.5L12,38L12,38z"/>
<path class="st0" d="M34.7,38l-0.2-1c-0.2-0.9-2.9-3.5-4.2-4.1c-0.1-0.1-0.7-0.2-2.5-0.2c-3.7,0-9,0.7-9.9,0.8
	c-0.7,0.4-2,1.9-2.8,3.7L14.8,38h-3.1l0.8-1.7c0.9-2.1,2.7-4.6,4.5-5.3c0.7-0.3,7-1,10.9-1c1.7,0,2.8,0.1,3.5,0.4
	c1.9,0.8,5.6,4,6,6.2l0.3,1.5H34.7z"/>
<path class="st0" d="M36.2,38l-0.4-0.3c-1.3-1.3-1.7-3.9-1.3-4.9c0.3-0.7,0.9-1,1.3-1c0.1,0,0.2,0,0.4,0.1c0.2,0,0.8-0.5,1-0.8
	c0.3-0.5,0.8-0.8,1.4-0.8c0.9,0,2.4,0.7,2.9,1.4c0.3,0.4,0.4,0.9,0.2,1.3c0,0,0,0.1-0.1,0.2c-0.5,1.5-1.2,3.4-1.7,4.2L39.6,38
	L36.2,38L36.2,38z"/>
<path class="st0" d="M36.1,38l1.2-1.9c0.6-0.9,1-1.7,1.2-2.2c-0.7,0.5-1.6,0.8-2.9,0.8l0,0l0,0.1c-0.8,0-1.5-0.7-1.5-1.5
	c0-0.4,0.1-0.8,0.4-1.1c0.3-0.3,0.6-0.5,1-0.5c1.3-0.1,1.5-0.4,1.8-0.8c0.3-0.6,1.1-1,2-1c0.2,0,0.5,0,0.7,0.1c1.2,0.3,2,1.2,2,2.3
	c0.1,1.2-0.6,2.9-1.9,5.1L39.6,38L36.1,38L36.1,38z"/>
<path class="st0" d="M41,34.3c-1.5,0-3.2-1-4-2c-0.8-0.9-0.8-1.7-0.8-2.2c0.1-0.6,0.6-1.2,1.5-1.2c0.2,0,0.3,0,0.5,0
	c0.2-0.7,0.5-2.1,2-2.1c0.1,0,0.1,0,0.2,0c0.7,0.1,1.2,0.5,1.4,1.2c0.2-0.1,0.5-0.2,0.8-0.2c0.4,0,0.9,0.2,1.2,0.5
	c0.5,0.5,0.6,1.3,0.3,2c0.3,0.2,0.6,0.5,0.7,0.9c0.1,0.5,0.1,1.1-0.3,1.5c-0.7,0.9-2.2,1.3-3.4,1.4C41.1,34.3,41,34.3,41,34.3"/>
<path class="st0" d="M39.5,3.4c-1.4,0.9-2.9,2.8-4.7,5.5c-0.3,0.4-0.8,0.7-1.3,0.7c-0.7,0-1.5-0.4-2.5-1.2c-1.6-1.3-1.6-2-1.6-2.3
	c0-0.8,0.5-1.4,1.3-1.5c1.5-0.1,2.8-1,4-1.9s2.3-1.7,3.7-1.7c0.3,0,0.5,0,0.8,0.1"/>
<path class="st2" d="M30.8,5.9c3.7-0.3,5.8-4.1,8.1-3.6c-1.5,0.9-3,2.8-5.1,5.9C33.3,9,29.8,6,30.8,5.9"/>
<path class="st0" d="M7,4.2c0.9-0.8,2.2-1.3,3.7-1.3c1.3,0,2.9,0.3,4.6,1c0.5,0.2,1.1,0.2,1.6,0.2c0.1,0,0.3,0,0.4,0s0.2,0,0.3,0
	c0.4,0,1.3,0,1.7,0.8c0.1,0.3,0.3,1-0.2,1.7c-0.6,1-2.2,2-3.8,2c0,0-0.1,0-0.1,0c-0.8,0-1.6-0.5-2.6-1c-1.1-0.6-2.4-1.4-4-1.4
	c-0.2,0-0.4,0-0.6,0"/>
<path class="st0" d="M35.2,13.3c-0.7,0-2-0.3-2.8-2.2c-0.5-1-0.6-2.2-0.6-2.8c0-1.3,0.7-1.7,1.1-1.8c0.3-0.3,0.9-1.1,1.3-1.6
	C36,2.6,37.2,1,38.7,1c0.2,0,0.5,0,0.7,0.1c1.9,0.8,2.9,2.4,2.5,4.5c-0.2,1.5-1.2,3.3-2.6,5c-0.7,0.8-2.4,2.6-3.9,2.7
	C35.4,13.3,35.3,13.3,35.2,13.3"/>
<path class="st0" d="M13.1,14c-0.2,0-0.3,0-0.5,0c-2.4-0.4-5.4-2.8-6.5-5.3c-0.8-1.7-0.4-2.9,0-3.5c0.7-1.1,1.7-1.7,3-1.7
	c1.5,0,3.1,0.8,4.4,1.6c0.5,0.3,1.3,0.7,1.6,0.8c0.1,0,0.2-0.1,0.4-0.1c0.5,0,0.9,0.3,1.2,0.7c0.6,1.1,0.2,4-0.7,5.7
	C15.2,13.4,14.2,14,13.1,14L13.1,14z"/>
<path class="st0" d="M21.4,34.9c-5.6,0-11.2-2.8-13.1-4.8c-1.9-2.1-2.6-4.4-2.1-7c0.5-2.1,1.6-4,2.7-5.7c0.7-1.2,1.4-2.2,1.6-3
	C12.8,4.3,18.6,3,23.3,3c0.3,0,0.6,0,1,0C34.4,3.3,35.4,8.2,36,11.1c0.1,0.5,0.2,1,0.4,1.4c3.4,8.3,4,13.3,1.9,16.7
	c-2,3.3-6.5,4.9-15.4,5.7C22.3,34.9,21.9,34.9,21.4,34.9L21.4,34.9z"/>
<path class="st0" d="M21.2,34.9c-5.7,0-11-2.9-12.8-4.8c-1.9-2.1-2.6-4.4-2.1-7c0.5-2.1,1.6-4,2.7-5.7c0.7-1.2,1.4-2.3,1.6-3
	C12.8,4.3,18.6,3,23.3,3c0.3,0,0.6,0,1,0C34.4,3.3,35.4,8.2,36,11.1c0.1,0.5,0.2,1,0.4,1.4c3.3,8.2,3.9,13.1,1.8,16.5
	c-2.3,3.9-7.9,5.1-15.4,5.8C22.3,34.9,21.8,34.9,21.2,34.9"/>
<path class="st0" d="M35.8,27.9c0.1-0.2,0.2-0.4,0.2-0.5c0.8-1.8,1.4-3.4,0.4-4.5c-1.1-1.2-5.7-3.4-9.8-5.3
	c-7.8-3.7-12.7-6.1-13.4-8.4c-0.2-0.6-0.1-1.2,0.2-1.7C15,5.3,18.7,3,23.9,3C23.9,3,24,3,24,3c4.9,0,8.4,1.4,10.5,4.1
	c1.8,2.3,2.2,5,2.5,6.9c0.1,0.7,0.2,1.5,0.4,1.7c3.7,6.3,2,11,0.7,13.2L35.8,27.9z"/>
<path class="st0" d="M32,20.6c-1.9,0-5.1-0.5-6.1-1.5c-0.9-0.8-1.2-2.2-1.5-3.5c-0.1-0.6-0.4-1.5-0.6-1.9h0
	c-0.1,0.2-0.2,0.5-0.2,0.7c-0.5,1.4-1.2,3.4-2.7,4.5c-0.6,0.5-2.9,0.9-4.7,0.9l0,0c-1.8,0-3.1-0.4-4-1.1c-1.3-1.1-2.3-3.1-2.9-6
	c0,0-0.1,0-0.1-0.1c-0.3-0.2-0.7-0.5-0.9-0.9C7.8,11,7.9,9.8,8.3,9.2C8.5,8.7,9,8.4,9.5,8.3c0.1,0,0.1,0,0.2,0c0.3,0,0.5,0,0.8,0.1
	s0.7,0.1,1,0.1c0.1,0,0.1,0,0.2,0c1.8-0.3,3.5-0.4,5-0.4c3.7,0,5.6,0.8,6.4,1c0.1,0,0.1,0,0.1,0.1c0.2,0.1,0.6,0.1,1,0.1
	c0.2,0,0.3,0,0.4,0C26.2,9.1,27.8,9,29.3,9c3.9,0,6,0.9,6.9,1.3c0.1,0,0.2,0.1,0.2,0.1c0,0,0,0,0.1,0c0.2,0,0.6-0.1,0.9-0.1
	c0.2-0.1,0.5-0.1,0.7-0.1c0.1,0,0.1,0,0.2,0c0.6,0,1.1,0.3,1.4,0.9c0.4,0.7,0.6,2,0.1,2.8c-0.3,0.5-0.9,0.8-1.3,1
	c-0.1,0-0.1,0.1-0.2,0.1c-0.2,0.3-0.4,0.8-0.6,1.2c-0.7,1.3-1.4,2.7-2.1,3.5C34.8,20.3,33.7,20.6,32,20.6"/>
<g>
	<g>
		<defs>
			<rect id="SVGID_1_" x="7.9" y="9.2" width="31.8" height="11.1"/>
		</defs>
		<clipPath id="SVGID_2_">
			<use xlink:href="#SVGID_1_"  style="overflow:visible;"/>
		</clipPath>
		<g class="st3">
			<g transform="translate(443.9775,368.7813)">
				<path class="st0" d="M-412.7-348.5c-1.5,0-3.6-0.2-5.1-1.3c-0.9-0.6-1.3-1.9-1.8-3.8c-0.2-0.6-0.4-1.4-0.5-1.7l0,0
					c-0.1,0.2-0.2,0.5-0.3,0.8c-0.6,1.5-1.3,3.6-2.7,4.4c-0.7,0.4-3,0.9-4.8,0.9c-1.9,0-3.3-0.4-4.1-1.3c-2-2.1-2.4-4.1-2.6-5.3
					c0-0.2-0.1-0.4-0.1-0.5c-1.2-0.6-1.3-1.5-1.2-1.9c0.1-0.7,0.6-1.3,1.3-1.3c0.5,0,0.8,0.2,1,0.4c0,0,0,0,0.1,0c0,0,0.1,0,0.1,0
					c0.3,0.1,1.2,0.3,1.4,1.5c0,0.2,0.3,1.4,0.8,2.7c0.8,2,1.3,2.3,1.4,2.4c0.6,0.2,1.4,0.3,2.2,0.3c1.4,0,2.5-0.3,3-0.5
					c0.3-0.4,0.8-1.6,1.2-2.3c1.2-2.3,1.4-2.7,1.9-3c0.3-0.1,0.6-0.2,1.1-0.2c0.6,0,1.4,0.1,1.7,0.3c0.9,0.4,1.3,1.5,2.3,4.4
					c0.2,0.5,0.4,1.2,0.6,1.5c0.8,0.4,2.5,0.6,4.2,0.6c0.5,0,0.9,0,1.1,0c0.2-0.4,0.4-0.9,0.6-1.3c1.4-3,1.6-3.4,2-3.7
					c0.6-0.5,1.7-0.8,2.3-0.8c0.8,0,1.3,0.5,1.4,1.1c0.2,1.1-0.9,1.5-1.2,1.6c-0.1,0-0.2,0.1-0.3,0.1c-0.1,0.2-0.4,0.7-0.6,1.1
					c-1.5,3-2,3.8-2.6,4.2C-409.7-348.7-411.4-348.5-412.7-348.5"/>
			</g>
		</g>
	</g>
</g>
<g>
	<g>
		<defs>
			<rect id="SVGID_3_" x="8.4" y="8.4" width="6.3" height="3"/>
		</defs>
		<clipPath id="SVGID_4_">
			<use xlink:href="#SVGID_3_"  style="overflow:visible;"/>
		</clipPath>
		<g class="st4">
			<g transform="translate(285.2881,440.1162)">
				<path class="st0" d="M-273.8-428.7c-0.2,0-0.7,0-1.5-0.3c-0.2-0.1-0.4-0.1-0.6-0.2c-0.3-0.1-1-0.4-1-1.3v-1.3h1.2
					c0.2,0,0.3,0,0.4,0.1c0.3,0,1.1,0.1,1.4,0.1l0.2,0c0.2,0,0.9-0.1,1.2-0.1c0.4-0.1,0.5-0.1,0.6-0.1h1.1l0.2,1
					c0.1,0.5-0.2,1.2-0.9,1.4c0,0-0.2,0.1-0.3,0.1c-0.7,0.2-1.3,0.5-1.9,0.5C-273.7-428.7-273.8-428.7-273.8-428.7"/>
			</g>
		</g>
	</g>
</g>
<g>
	<g>
		<defs>
			<rect id="SVGID_5_" x="33.9" y="10" width="4.8" height="3.2"/>
		</defs>
		<clipPath id="SVGID_6_">
			<use xlink:href="#SVGID_5_"  style="overflow:visible;"/>
		</clipPath>
		<g class="st5">
			<g transform="translate(484.2881,425.6104)">
				<path class="st0" d="M-448-412.4c-0.4,0-0.8-0.2-1.4-0.6c-0.5-0.4-1-0.8-1-1.4v-1.3h1.2c0.2,0,0.3,0,0.5,0.1
					c0.1,0.1,0.6,0.2,0.9,0.3c0.1,0,0.2,0,0.5-0.1c0.1,0,0.2,0,0.4,0h1.1l0.2,1.1c0.1,0.5-0.1,1.1-0.8,1.4c0,0-0.1,0.1-0.2,0.1
					c-0.3,0.2-0.7,0.4-1.1,0.4C-447.9-412.4-448-412.4-448-412.4"/>
			</g>
		</g>
	</g>
	<path class="st0" d="M32.2,40.8h-4.6v-4h4.6V40.8z"/>
</g>
<path class="st1" d="M34.3,30.8c-0.2-0.2-0.4-0.4-0.6-0.6c0,0-0.1-0.1-0.1-0.1c0,0,0,0,0,0c-0.1,0-0.2-0.1-0.4-0.1
	c-0.5-0.1-1.1-0.1-1.7-0.1c-1.2,0-2.4,0-3.5,0.1c-2.4,0.1-4.7,0.3-7.1,0.6c-1.2,0.1-2.4,0.3-3.5,0.5c-0.6,0.1-1.2,0.2-1.7,0.3
	c-0.3,0.1-0.6,0.1-0.8,0.2c-0.1,0-0.3,0.1-0.4,0.1c-0.1,0-0.1,0-0.1,0.1c0,0,0,0,0,0c-0.1,0.2-0.3,0.4-0.4,0.6
	c-0.1,0.2-0.2,0.4-0.3,0.7c-0.2,0.5-0.4,0.9-0.6,1.4c-0.2,0.5-0.4,1-0.5,1.4c-0.1,0.2-0.2,0.5-0.3,0.7c0,0.1-0.1,0.2-0.2,0.3h1.6
	c0.9-1.9,2.5-4.1,3.8-4.7c0.4-0.1,6.4-0.9,10.4-0.9c1.5,0,2.5,0.1,3.1,0.3c1.6,0.6,4.9,3.7,5.2,5.3H37c-0.2-1-0.6-2-1-3
	C35.5,32.7,35,31.7,34.3,30.8"/>
<path class="st1" d="M33.6,30L33.6,30L33.6,30L33.6,30L33.6,30L33.6,30z"/>
<path class="st6" d="M33.6,30L33.6,30L33.6,30L33.6,30L33.6,30L33.6,30z M36.9,33.4c-0.5-1.1-1.1-2.2-1.9-3.2
	c-0.2-0.2-0.4-0.5-0.6-0.7c-0.1-0.1-0.1-0.1-0.2-0.2l0,0l0,0l0,0c0,0-0.1,0-0.1-0.1c-0.1,0-0.1-0.1-0.2-0.1C33.7,29,33.5,29,33.4,29
	c-0.6-0.1-1.2-0.1-1.8-0.1c-1.2,0-2.4,0-3.6,0.1c-2.4,0.1-4.8,0.3-7.2,0.5c-1.2,0.1-2.4,0.3-3.6,0.4c-0.6,0.1-1.2,0.2-1.8,0.3
	c-0.3,0.1-0.6,0.1-0.9,0.2c-0.2,0-0.3,0.1-0.5,0.2c-0.1,0-0.2,0.1-0.3,0.1c0,0-0.1,0.1-0.2,0.1c-0.1,0-0.1,0.1-0.2,0.2l0,0
	c-0.2,0.2-0.3,0.4-0.5,0.7c-0.2,0.2-0.3,0.5-0.4,0.7c-0.3,0.5-0.5,1-0.7,1.4c-0.2,0.5-0.4,1-0.6,1.5C11.1,35.5,11,35.8,11,36
	c0,0.1-0.1,0.2-0.1,0.4l-0.1,0.2l0,0.1c0,0,0,0,0.1,0.1h0H12c0.1-0.1,0.1-0.2,0.2-0.3c0.1-0.2,0.2-0.5,0.3-0.7
	c0.2-0.5,0.4-1,0.5-1.4c0.2-0.5,0.4-1,0.6-1.4c0.1-0.2,0.2-0.4,0.3-0.7c0.1-0.2,0.2-0.4,0.4-0.6c0,0,0,0,0,0c0,0,0.1,0,0.1-0.1
	c0.1,0,0.2-0.1,0.4-0.1c0.3-0.1,0.5-0.2,0.8-0.2c0.6-0.1,1.1-0.2,1.7-0.3c1.2-0.2,2.3-0.3,3.5-0.5c2.4-0.3,4.7-0.4,7.1-0.6
	c1.2-0.1,2.4-0.1,3.5-0.1c0.6,0,1.2,0,1.7,0.1c0.1,0,0.3,0.1,0.4,0.1c0,0,0,0,0,0c0,0,0.1,0.1,0.1,0.1c0.2,0.2,0.4,0.4,0.6,0.6
	c0.7,0.9,1.3,1.9,1.8,3c0.4,1,0.8,2,1,3H38c-0.1-0.6-0.2-1.1-0.4-1.7C37.4,34.5,37.1,33.9,36.9,33.4"/>
<path class="st2" d="M30.7,31.8c-0.5-0.2-1.5-0.3-2.9-0.3c-4,0-9.9,0.8-10.3,0.9c-1.2,0.5-2.7,2.6-3.6,4.4h21.7
	C35.4,35.4,32.4,32.5,30.7,31.8"/>
<path class="st7" d="M30.9,31.5c-0.5-0.2-1.6-0.3-3.1-0.3c-4,0-10,0.8-10.4,0.9c-1.4,0.6-3,2.8-3.8,4.7H14c0.8-1.8,2.4-3.8,3.6-4.4
	c0.3-0.1,6.2-0.9,10.3-0.9c1.4,0,2.4,0.1,2.9,0.3c1.6,0.6,4.6,3.5,5,4.9h0.4C35.8,35.1,32.5,32.1,30.9,31.5"/>
<path class="st1" d="M38.3,31.7c-0.2,0.5-1.4,1.7-2.4,1.4c-0.5-0.2-0.4,2.6,0.8,3.7h2.2c0.6-1,1.5-3.9,1.7-4.2
	C40.6,32.2,38.5,31.2,38.3,31.7"/>
<path class="st6" d="M40.6,32.3c0-0.6-0.4-1-1-1.2c-0.5-0.1-1.2,0-1.4,0.3c-0.3,0.6-0.8,1.4-2.8,1.5c-0.1,0-0.2,0.1-0.2,0.3
	c0,0.1,0.1,0.2,0.3,0.2c2.1-0.1,2.8-0.9,3.2-1.8c0.1-0.1,0.6-0.2,1,0c0.3,0.1,0.4,0.3,0.4,0.7c0.1,1.2-1.2,3.3-1.8,4.4h0.6
	C39.6,35.5,40.7,33.5,40.6,32.3"/>
<g>
	<g>
		<defs>
			<rect id="SVGID_7_" x="36.3" y="32" width="4.4" height="5.1"/>
		</defs>
		<clipPath id="SVGID_8_">
			<use xlink:href="#SVGID_7_"  style="overflow:visible;"/>
		</clipPath>
		<g class="st8">
			<g transform="translate(485.335,236)">
				<path class="st9" d="M-448.9-199.2c1.3-0.3,2.5-1.6,2.6-3.5c0-0.4-0.7-1-0.7-1.2s2.2,0,2.3,0.6c0.1,0.5-1.4,3.7-1.9,4.2
					C-447.1-198.6-449.7-199-448.9-199.2"/>
			</g>
		</g>
	</g>
</g>
<path class="st10" d="M37.4,30.4c-0.2,1.2,2.1,2.8,3.6,2.7c1.3,0,2.7-0.6,2.5-1.3c-0.2-0.7-1.4,0.1-1.6-0.4
	c-0.1-0.5,1.4-1.4,0.8-2.1c-0.6-0.6-1.3,1-1.9,0.8c-0.7-0.2,0.1-1.8-0.7-1.9c-1-0.1-0.6,2.1-1.4,2.2C38.3,30.4,37.5,30,37.4,30.4"/>
<path class="st11" d="M37.4,30.4c-0.2,1.2,2.1,2.8,3.6,2.7c1.3,0,2.7-0.6,2.5-1.3c-0.2-0.7-1.4,0.1-1.6-0.4
	c-0.1-0.5,1.4-1.4,0.8-2.1c-0.6-0.6-1.3,1-1.9,0.8c-0.7-0.2,0.1-1.8-0.7-1.9c-1-0.1-0.6,2.1-1.4,2.2C38.3,30.4,37.5,30,37.4,30.4z"
	/>
<g>
	<g>
		<defs>
			<rect id="SVGID_9_" x="38.1" y="29.4" width="1.5" height="1.2"/>
		</defs>
		<clipPath id="SVGID_10_">
			<use xlink:href="#SVGID_9_"  style="overflow:visible;"/>
		</clipPath>
		<g class="st12">
			<g transform="translate(498.9385,288.042)">
				<path class="st10" d="M-460.9-257.7c0.2,0.2,1.1,0.4,1.3,0.1c0.1-0.3,0.3-1,0.2-1c-0.1,0.3-0.2,0.9-0.5,1
					C-460.2-257.5-460.7-257.7-460.9-257.7"/>
			</g>
		</g>
	</g>
</g>
<g>
	<g>
		<defs>
			<rect id="SVGID_11_" x="40.5" y="29.1" width="1.4" height="1.3"/>
		</defs>
		<clipPath id="SVGID_12_">
			<use xlink:href="#SVGID_11_"  style="overflow:visible;"/>
		</clipPath>
		<g class="st13">
			<g transform="translate(518.459,298.042)">
				<path class="st10" d="M-478-268.9c0,0.2-0.2,1.2,0.3,1.3c0.4,0.1,0.8-0.2,1.1-0.7c-0.2,0.2-0.7,0.6-1,0.4
					C-477.9-268-478-268.4-478-268.9"/>
			</g>
		</g>
	</g>
</g>
<g>
	<g>
		<defs>
			<rect id="SVGID_13_" x="38.3" y="31.3" width="3" height="1.6"/>
		</defs>
		<clipPath id="SVGID_14_">
			<use xlink:href="#SVGID_13_"  style="overflow:visible;"/>
		</clipPath>
		<g class="st14">
			<g transform="translate(500.876,276.958)">
				<path class="st10" d="M-462.5-245.2c2.5-1.3,3.1,0.8,2.9,1.2C-460.6-243.8-462.4-244.9-462.5-245.2"/>
			</g>
		</g>
	</g>
</g>
<g>
	<g>
		<defs>
			<rect id="SVGID_15_" x="41.8" y="30.9" width="1.1" height="0.9"/>
		</defs>
		<clipPath id="SVGID_16_">
			<use xlink:href="#SVGID_15_"  style="overflow:visible;"/>
		</clipPath>
		<g class="st15">
			<g transform="translate(530.751,283.3955)">
				<path class="st10" d="M-488.7-252.5c-0.4,0.5-0.2,0.9,0.1,0.9c0.4,0.1,0.8-0.3,0.8-0.3c-0.1,0-0.8,0.2-0.9-0.1
					C-488.9-252.2-488.8-252.3-488.7-252.5"/>
			</g>
		</g>
	</g>
</g>
<g>
	<g>
		<defs>
			<rect id="SVGID_17_" x="12.4" y="29.4" width="24.2" height="6.8"/>
		</defs>
		<clipPath id="SVGID_18_">
			<use xlink:href="#SVGID_17_"  style="overflow:visible;"/>
		</clipPath>
		<g class="st16">
			<g transform="translate(296.834,257.166)">
				<path class="st9" d="M-283.9-223c8.2,4.7,24.4-0.1,23.6-1.6c-1.1-2-1.6-3.3-4.1-3.2c-2.5,0.1-18.5,1.4-19.2,1.9
					C-284.3-225.4-285-223.6-283.9-223"/>
			</g>
		</g>
	</g>
</g>
<path class="st2" d="M30.8,5.9c3.7-0.3,5.8-4.1,8.1-3.6c-1.5,0.9-3,2.8-5.1,5.9C33.3,9,29.8,6,30.8,5.9"/>
<path class="st17" d="M30.8,5.9c3.7-0.3,5.8-4.1,8.1-3.6c-1.5,0.9-3,2.8-5.1,5.9C33.3,9,29.8,6,30.8,5.9z"/>
<path class="st1" d="M7.8,5.1c1.7-1.5,4.6-0.9,7-0.1c1.4,0.5,3.2,0.1,3.3,0.4c0.3,0.7-1.5,2-2.9,2C13.7,7.4,11.3,4.6,7.8,5.1"/>
<path class="st18" d="M7.8,5.1c1.7-1.5,4.6-0.9,7-0.1c1.4,0.5,3.2,0.1,3.3,0.4c0.3,0.7-1.5,2-2.9,2C13.7,7.4,11.3,4.6,7.8,5.1z"/>
<path class="st10" d="M33.3,7.7c0.8,0.2,4-6,5.6-5.4c5,2-1.5,9.5-3.5,9.7C33.3,12.2,32.8,7.6,33.3,7.7"/>
<path class="st11" d="M33.3,7.7c0.8,0.2,4-6,5.6-5.4c5,2-1.5,9.5-3.5,9.7C33.3,12.2,32.8,7.6,33.3,7.7z"/>
<path class="st10" d="M15.4,7C14,7.6,9.2,2.5,7.1,5.8c-1.4,2.2,2.7,6.5,5.7,7S16.1,6.7,15.4,7"/>
<path class="st11" d="M15.4,7C14,7.6,9.2,2.5,7.1,5.8c-1.4,2.2,2.7,6.5,5.7,7S16.1,6.7,15.4,7z"/>
<g>
	<g>
		<defs>
			<rect id="SVGID_19_" x="33.8" y="3.5" width="3.4" height="8.4"/>
		</defs>
		<clipPath id="SVGID_20_">
			<use xlink:href="#SVGID_19_"  style="overflow:visible;"/>
		</clipPath>
		<g class="st19">
			<g transform="translate(491.167,503.5005)">
				<path class="st10" d="M-454.1-500c-0.3,0.9-2.5,3.1-2.2,5c0.1,0.7,0.9,2.8,1.2,2.7c0.3-0.1,1.1-0.6,1-0.5
					c-0.1,0.1-1.1,0.9-1.5,1.1c-0.4-0.2-2.1-4.1-1.8-4.3C-456.6-496.5-454.4-499.9-454.1-500"/>
			</g>
		</g>
	</g>
</g>
<g>
	<g>
		<defs>
			<rect id="SVGID_21_" x="7.2" y="4.8" width="8.3" height="5.9"/>
		</defs>
		<clipPath id="SVGID_22_">
			<use xlink:href="#SVGID_21_"  style="overflow:visible;"/>
		</clipPath>
		<g class="st20">
			<g transform="translate(250.833,484.5005)">
				<path class="st10" d="M-243.6-478.6c1.5-0.9,4.2-0.5,5.8,1c0.6,0.6,0.7,2.4-0.5,3.7c-0.5,0.5,3-1.8,3-2.5c0-0.7-0.2-0.9-0.8-1
					c-1.9-0.7-4-2.4-5.7-2.3C-242.9-479.7-243.5-478.9-243.6-478.6"/>
			</g>
		</g>
	</g>
</g>
<g>
	<g>
		<defs>
			<rect id="SVGID_23_" x="33.9" y="3.1" width="4.9" height="8.3"/>
		</defs>
		<clipPath id="SVGID_24_">
			<use xlink:href="#SVGID_23_"  style="overflow:visible;"/>
		</clipPath>
		<g class="st21">
			<g transform="translate(496,507.375)">
				<path class="st10" d="M-458.3-504.3c3.4,1.9-2.1,4.7-1.7,8.3c-0.7-0.1-2.5-3.5-2-3.8C-461.4-500.3-458.9-504.5-458.3-504.3"/>
			</g>
		</g>
	</g>
</g>
<path class="st7" d="M11.4,14.6c0.1-0.2,0.1-0.5,0.1-0.8c0-0.3,0-0.5,0.1-0.8c0-0.1,0.1-0.3,0.1-0.4c0.1-0.1,0.1-0.2,0.1-0.4
	c0.1-0.2,0.2-0.5,0.3-0.7c0.4-1,0.9-1.9,1.5-2.7s1.3-1.6,2-2.3c0.8-0.7,1.6-1.3,2.6-1.6c0.9-0.4,2-0.6,3-0.8c1-0.1,2-0.1,3-0.1
	c1,0,2,0.1,3,0.2c1,0.1,2,0.4,3,0.7c0.5,0.2,1,0.4,1.4,0.7s0.9,0.6,1.3,1c0.4,0.4,0.7,0.8,1,1.2s0.5,0.9,0.7,1.4
	c0.2,0.5,0.3,1,0.4,1.5c0.1,0.5,0.2,1,0.3,1.5c0.1,0.2,0.1,0.4,0.2,0.7c0.1,0.2,0.2,0.5,0.3,0.7c0.2,0.5,0.4,1,0.5,1.4
	c0.7,1.9,1.2,3.9,1.6,5.8c0.2,1,0.3,2,0.3,3c0,1-0.1,2-0.4,3c-0.1,0.2-0.1,0.5-0.2,0.7c-0.1,0.2-0.2,0.4-0.3,0.7
	c0,0.1-0.1,0.2-0.1,0.4c-0.1,0.1-0.1,0.2-0.2,0.3c-0.1,0.2-0.3,0.4-0.5,0.6c-0.7,0.8-1.5,1.4-2.4,1.9c-0.9,0.5-1.9,0.9-2.9,1.1
	c-1,0.3-2,0.5-3,0.7s-2,0.3-3,0.5c-0.5,0.1-1,0.1-1.5,0.2L23,34.1c-0.2,0-0.5,0-0.8,0.1c-2.1,0.1-4.1-0.2-6.1-0.7
	c-1-0.3-1.9-0.6-2.9-1c-0.9-0.4-1.9-0.9-2.7-1.4c-0.4-0.3-0.9-0.6-1.3-1c-0.1-0.1-0.2-0.2-0.3-0.3s-0.2-0.2-0.3-0.3
	c-0.2-0.2-0.3-0.4-0.5-0.6c-0.6-0.9-1-1.9-1.2-2.9c-0.2-1.1,0-2.2,0.3-3.2c0.3-1,0.8-1.9,1.3-2.8c0.5-0.9,1-1.7,1.6-2.6
	c0.3-0.4,0.5-0.9,0.7-1.3C11.1,15.5,11.3,15,11.4,14.6L11.4,14.6z M12.1,14.7c-0.1,0.5-0.4,1-0.6,1.5c-0.2,0.5-0.5,0.9-0.8,1.3
	c-0.5,0.9-1.1,1.7-1.5,2.6c-0.5,0.9-0.9,1.8-1.2,2.7c-0.3,0.9-0.4,1.9-0.2,2.8C8,26.5,8.4,27.4,9,28.2c0.1,0.2,0.3,0.4,0.4,0.6
	c0.1,0.1,0.2,0.2,0.2,0.3c0.1,0.1,0.2,0.2,0.2,0.2c0.3,0.3,0.7,0.6,1.1,0.9c0.8,0.5,1.7,1,2.6,1.4c0.9,0.4,1.8,0.7,2.8,1
	s1.9,0.5,2.9,0.6c1,0.1,2,0.2,2.9,0.1c0.2,0,0.5,0,0.7-0.1l0.8-0.1c0.5,0,1-0.1,1.5-0.2c1-0.1,2-0.2,3-0.4c1-0.2,1.9-0.4,2.9-0.6
	c1-0.3,1.9-0.6,2.8-1c0.9-0.4,1.7-0.9,2.4-1.6c0.2-0.2,0.3-0.4,0.5-0.5c0.1-0.1,0.2-0.2,0.2-0.3c0.1-0.1,0.2-0.2,0.2-0.3
	c0.2-0.2,0.2-0.4,0.4-0.7c0.1-0.2,0.2-0.5,0.2-0.7c0.2-1,0.3-2,0.2-3c-0.1-1-0.2-2-0.5-3c-0.5-1.9-1.2-3.8-1.9-5.7
	c-0.2-0.5-0.4-0.9-0.6-1.4l-0.3-0.7c-0.1-0.2-0.2-0.5-0.3-0.8c-0.1-0.5-0.2-1-0.3-1.5c-0.1-0.5-0.2-1-0.4-1.4
	c-0.3-0.9-0.8-1.7-1.5-2.4C31.7,6.5,30.9,6,30,5.6c-0.9-0.4-1.9-0.6-2.9-0.8c-1-0.2-2-0.3-3-0.3c-1,0-2-0.1-3,0.1
	c-1,0.1-2,0.3-2.9,0.7c-0.9,0.4-1.8,0.9-2.5,1.6c-0.7,0.7-1.3,1.5-1.7,2.4C13.6,10.1,13.3,11,13,12c-0.1,0.2-0.1,0.5-0.2,0.7
	c0,0.1-0.1,0.2-0.1,0.4c0,0.1,0,0.1,0,0.2c0,0.1,0,0.1-0.1,0.2c-0.1,0.2-0.2,0.5-0.3,0.7C12.3,14.3,12.2,14.5,12.1,14.7L12.1,14.7z"
	/>
<path class="st2" d="M11.8,14.7c-0.8,3.5-7.7,9-2.4,14.6c1.8,1.9,7.6,4.9,13.3,4.3c15.1-1.4,18.9-5.1,12.5-20.7
	c-1-2.5,0.1-8.4-10.9-8.7C19.6,4.1,14,4.7,11.8,14.7"/>
<path class="st22" d="M14.4,7.8c0.5-0.8,1.1-1.4,1.8-1.9c0.7-0.5,1.5-0.9,2.3-1.2c1.7-0.6,3.4-0.8,5.1-0.9c1.7,0,3.5,0.1,5.2,0.5
	c0.8,0.2,1.7,0.5,2.5,1c0.8,0.4,1.5,1,2.1,1.6c0.6,0.7,1.1,1.4,1.5,2.2c0.4,0.8,0.7,1.7,0.9,2.5c0.2,0.9,0.3,1.7,0.5,2.5
	c0.1,0.4,0.1,0.8,0.2,1.2c0,0.2,0.1,0.4,0.2,0.5c0,0,0,0.1,0.1,0.1l0,0l0,0l0,0.1l0.2,0.3c0.8,1.5,1.4,3.2,1.7,4.9
	c0.1,0.9,0.1,1.7,0,2.6c-0.1,0.9-0.3,1.7-0.7,2.5c-0.2,0.4-0.4,0.8-0.6,1.2c-0.1,0.1-0.1,0.2-0.2,0.3c-0.1,0.1-0.1,0.2-0.2,0.3
	c0,0,0,0,0,0.1c-0.1,0,0.1,0.1-0.3,0c-0.1-0.2,0-0.1-0.1-0.2c0-0.1,0-0.1,0-0.1l0.1-0.2l0.1-0.3c0.3-0.8,0.5-1.6,0.6-2.5
	c0-0.4,0.1-0.8,0-1.3c-0.1-0.4-0.2-0.8-0.4-1.1c-0.1-0.1-0.1-0.2-0.2-0.2c-0.1-0.1-0.1-0.2-0.2-0.2c-0.2-0.1-0.3-0.3-0.5-0.4
	c-0.3-0.3-0.7-0.5-1.1-0.7c-0.8-0.3-1.6-0.5-2.4-0.4c-0.8,0-1.7,0.2-2.5,0.4c-0.4,0.1-0.8,0.2-1.2,0.4c-0.2,0.1-0.4,0.1-0.6,0.2
	c-0.1,0-0.2,0.1-0.3,0.1c-0.1,0-0.2,0-0.3,0c-0.9,0.1-1.7,0.2-2.6,0.1c-0.9,0-1.7-0.1-2.6-0.3c-0.8-0.2-1.7-0.5-2.5-0.8
	c-0.8-0.4-1.5-0.8-2.2-1.4c-0.7-0.6-1.3-1.2-1.8-1.9c-1.1-1.4-1.7-3-2.1-4.7c-0.2-0.9-0.2-1.7-0.2-2.6c0-0.4,0.1-0.9,0.2-1.3
	C14,8.7,14.1,8.2,14.4,7.8L14.4,7.8z M14.7,8.1c-0.2,0.3-0.3,0.7-0.4,1.1c-0.1,0.4-0.1,0.8-0.2,1.2c0,0.8,0.1,1.7,0.2,2.5
	c0.4,1.6,1,3.2,2.1,4.5c0.5,0.7,1.1,1.3,1.7,1.8c0.6,0.5,1.3,1,2.1,1.3c0.8,0.4,1.5,0.6,2.4,0.8c0.8,0.2,1.6,0.3,2.5,0.3
	c0.8,0,1.7,0,2.5-0.1l0.3,0c0.1,0,0.2,0,0.3-0.1c0.2-0.1,0.4-0.1,0.6-0.2c0.4-0.1,0.8-0.2,1.2-0.3c0.8-0.2,1.7-0.4,2.6-0.4
	c0.9,0,1.7,0.1,2.5,0.5c0.4,0.2,0.8,0.4,1.1,0.7c0.2,0.1,0.3,0.3,0.5,0.4c0.1,0.1,0.2,0.1,0.2,0.2c0.1,0.1,0.2,0.2,0.2,0.3
	c0.2,0.4,0.4,0.8,0.4,1.3c0.1,0.4,0.1,0.9,0,1.3c-0.1,0.9-0.3,1.7-0.5,2.5L37,28.1l0,0.1c0,0,0,0.1,0,0.1c0,0,0,0,0-0.1
	c-0.4-0.1-0.2,0-0.3,0l0,0c0-0.1,0.1-0.2,0.1-0.3c0.1-0.1,0.1-0.2,0.2-0.3c0.2-0.4,0.4-0.8,0.5-1.1c0.6-1.6,0.7-3.3,0.4-4.9
	c-0.1-0.8-0.4-1.6-0.7-2.4c-0.3-0.8-0.7-1.5-1.1-2.2L36,16.7l0-0.1l0,0l0,0c0-0.1-0.1-0.1-0.1-0.2c-0.1-0.2-0.2-0.5-0.2-0.7
	c-0.1-0.4-0.2-0.9-0.2-1.3c-0.1-0.8-0.2-1.7-0.5-2.5c-0.2-0.8-0.4-1.6-0.8-2.3c-0.4-0.7-0.8-1.4-1.4-2c-1.1-1.2-2.6-2-4.2-2.4
	s-3.3-0.6-5-0.6c-1.7,0-3.4,0.2-4.9,0.7c-0.8,0.3-1.5,0.6-2.2,1.1C15.8,6.8,15.2,7.4,14.7,8.1L14.7,8.1z"/>
<path class="st6" d="M14.1,7.7c0.3-0.5,0.6-0.8,1-1.1c0.4-0.3,0.7-0.6,1.1-0.9c0.8-0.5,1.6-0.9,2.5-1.3c1.8-0.6,3.6-0.9,5.5-0.8
	c1.8,0.1,3.7,0.3,5.4,0.9c0.9,0.3,1.7,0.7,2.5,1.3c0.8,0.5,1.4,1.2,2,2c0.5,0.8,1,1.6,1.3,2.5c0.3,0.9,0.5,1.8,0.7,2.7
	c0.1,0.4,0.1,0.9,0.2,1.3c0.1,0.4,0.1,0.9,0.2,1.3c0,0.2,0.1,0.4,0.2,0.5l0,0l0,0l0,0.1l0.1,0.1l0.2,0.3c0.2,0.4,0.4,0.8,0.6,1.2
	c0.4,0.8,0.7,1.7,0.9,2.6c0.2,0.9,0.3,1.8,0.3,2.7c0,1.8-0.5,3.7-1.5,5.2l0,0c-0.1,0.1-0.2,0.2-0.3,0.1c-0.1-0.1-0.2-0.2-0.1-0.3
	l0,0c0.3-0.7,0.5-1.3,0.8-2c0.2-0.7,0.4-1.3,0.4-2s-0.2-1.3-0.6-1.8c0,0-0.1-0.1-0.1-0.1l0,0l0-0.1c-0.1-0.1-0.1-0.1-0.2-0.2
	c-0.1-0.1-0.2-0.2-0.4-0.3c-0.3-0.2-0.6-0.4-0.8-0.6c-1.2-0.7-2.4-1.4-3.7-2c-1.3-0.6-2.6-1.2-3.8-1.8c-2.6-1.2-5.2-2.4-7.7-3.6
	c-1.3-0.7-2.5-1.3-3.8-2.1c-0.7-0.5-1.3-0.9-1.8-1.4c-0.3-0.3-0.6-0.6-0.8-1c-0.1-0.2-0.2-0.5-0.2-0.8c0-0.2,0-0.3,0-0.5
	C14,8.1,14,8,14,7.9C14,7.9,14.1,7.8,14.1,7.7L14.1,7.7z M15.2,8.4C15.2,8.4,15.2,8.4,15.2,8.4C15.2,8.5,15.2,8.5,15.2,8.4
	c-0.1,0.1-0.1,0.1-0.1,0.2c0,0.1,0,0.2,0.1,0.3c0.1,0.2,0.3,0.5,0.5,0.7c0.5,0.4,1,0.9,1.6,1.2c1.1,0.8,2.4,1.4,3.6,2.1
	c2.5,1.3,5.1,2.5,7.6,3.8c1.3,0.6,2.6,1.3,3.8,1.9c1.3,0.7,2.5,1.3,3.8,2.1c0.3,0.2,0.6,0.4,0.9,0.7c0.2,0.1,0.3,0.2,0.4,0.4
	c0.1,0.1,0.1,0.1,0.2,0.2l0,0.1l0.1,0.1c0,0,0.1,0.1,0.1,0.1c0.2,0.3,0.4,0.7,0.5,1.1c0.1,0.4,0.1,0.8,0.1,1.1
	c0,0.8-0.2,1.5-0.5,2.2c-0.2,0.7-0.5,1.3-0.8,2l-0.4-0.2l0,0c0.9-1.5,1.3-3.2,1.3-4.9c0-1.7-0.5-3.4-1.2-5c-0.2-0.4-0.4-0.8-0.6-1.2
	l-0.3-0.6c-0.1-0.2-0.2-0.5-0.2-0.7c-0.1-0.5-0.2-0.9-0.3-1.3c-0.1-0.4-0.1-0.9-0.2-1.3c-0.2-0.9-0.4-1.7-0.7-2.5
	c-0.3-0.8-0.7-1.6-1.2-2.2c-0.5-0.7-1.1-1.3-1.8-1.7c-0.7-0.5-1.4-0.8-2.2-1.1c-1.6-0.5-3.3-0.7-5.1-0.8c-0.9,0-1.7,0-2.6,0.2
	c-0.8,0.1-1.7,0.3-2.5,0.6C18.4,6,17.7,6.3,17,6.8c-0.4,0.2-0.7,0.5-1,0.7C15.7,7.8,15.4,8.1,15.2,8.4L15.2,8.4z"/>
<path class="st1" d="M14.6,8c-2.1,3.2,0.4,15.4,13.4,13.8c1.4-0.2,5.9-2.6,9,0.8c1.7,1.9-0.6,6.6,0,5.6c0.7-1.1,3.2-5.3-0.6-11.8
	c-1.2-2.1,0.8-12.1-12.2-12.2C19.2,4.2,15.9,5.8,14.6,8"/>
<g>
	<g>
		<defs>
			<rect id="SVGID_25_" x="11.5" y="7.3" width="22" height="21"/>
		</defs>
		<clipPath id="SVGID_26_">
			<use xlink:href="#SVGID_25_"  style="overflow:visible;"/>
		</clipPath>
		<g class="st23">
			<g transform="translate(307.168,461.833)">
				<path class="st9" d="M-293-453.1c3.7-2.4,15-2.2,18.6,3.5c2.4,3.8-2,13.3-3.6,14.5c-1.6,1.2-3.9,2.2-9.8,0.8
					c-5-1.2,2.5-5.9-3.4-6.5C-296.5-441.4-297-450.5-293-453.1"/>
			</g>
		</g>
	</g>
</g>
<g>
	<g>
		<defs>
			<rect id="SVGID_27_" x="22.2" y="17.5" width="2.5" height="1"/>
		</defs>
		<clipPath id="SVGID_28_">
			<use xlink:href="#SVGID_27_"  style="overflow:visible;"/>
		</clipPath>
		<g class="st24">
			<g transform="translate(391,387.166)">
				<path class="st9" d="M-366.4-369.1c0,0.3-0.5,0.5-1.2,0.5c-0.7,0-1.2-0.2-1.2-0.5c0-0.3,0.5-0.5,1.2-0.5
					C-366.9-369.7-366.4-369.4-366.4-369.1"/>
			</g>
		</g>
	</g>
</g>
<path class="st25" d="M22.5,16.5c0.3-0.2,1.8-0.1,2,0.1c0.2,0.2,0.6,1,0.1,1.3c-0.2,0.1-0.2-0.4-0.5-0.3c-0.5,0.1-0.2,0.7-0.6,0.7
	c-0.5,0,0-0.6-0.5-0.7c-0.4-0.1-0.4,0.3-0.6,0.2C21.9,17.7,22.1,16.7,22.5,16.5"/>
<g>
	<g>
		<defs>
			<rect id="SVGID_29_" x="22.1" y="16.4" width="2.7" height="1.9"/>
		</defs>
		<clipPath id="SVGID_30_">
			<use xlink:href="#SVGID_29_"  style="overflow:visible;"/>
		</clipPath>
		<g class="st26">
			<g transform="translate(380.2207,400.4053)">
				<path class="st25" d="M-356.9-384c-0.4,0-0.7,0-0.8,0.1c-0.4,0.3-0.6,1.2-0.1,1.3h0c0.1,0,0.2-0.3,0.5-0.3c0,0,0.1,0,0.1,0
					c0.5,0.1,0,0.7,0.5,0.7l0,0c0.3,0,0.1-0.6,0.6-0.7c0,0,0.1,0,0.1,0c0.3,0,0.3,0.3,0.4,0.3c0,0,0,0,0.1,0
					c0.5-0.3,0.1-1.1-0.1-1.3C-355.9-384-356.4-384-356.9-384 M-356.9-383.9L-356.9-383.9c0.6,0,1,0.1,1.1,0.1
					c0.1,0.1,0.3,0.5,0.3,0.8c0,0.1-0.1,0.2-0.1,0.3c0,0,0,0,0,0c-0.1-0.1-0.2-0.2-0.4-0.2c0,0-0.1,0-0.1,0
					c-0.3,0.1-0.4,0.3-0.4,0.5c0,0.2-0.1,0.2-0.1,0.2l0,0c-0.1,0-0.1,0-0.1-0.2c0-0.2,0-0.4-0.3-0.5c0,0-0.1,0-0.1,0
					c-0.2,0-0.3,0.1-0.4,0.2c0,0-0.1,0.1-0.1,0.1c-0.1,0-0.2-0.1-0.2-0.2c-0.1-0.3,0.1-0.7,0.3-0.9
					C-357.6-383.9-357.3-383.9-356.9-383.9"/>
			</g>
		</g>
	</g>
</g>
<g>
	<g>
		<defs>
			<rect id="SVGID_31_" x="13.9" y="18.6" width="21.2" height="12"/>
		</defs>
		<clipPath id="SVGID_32_">
			<use xlink:href="#SVGID_31_"  style="overflow:visible;"/>
		</clipPath>
		<g class="st27">
			<g transform="translate(474.0986,359.9502)">
				<path class="st28" d="M-439.1-338.5c0.6,3.6-3.9,8.1-10,9.1c-6.1,0.9-10.5-4.5-11.1-8.1c-0.6-3.6,3.1-2.2,9.2-3.1
					S-439.7-342.1-439.1-338.5"/>
			</g>
		</g>
	</g>
</g>
<g>
	<g>
		<defs>
			<rect id="SVGID_33_" x="15" y="18.8" width="17.6" height="8.9"/>
		</defs>
		<clipPath id="SVGID_34_">
			<use xlink:href="#SVGID_33_"  style="overflow:visible;"/>
		</clipPath>
		<g class="st29">
			<g transform="translate(347.2148,315.9766)">
				<path class="st30" d="M-328-289.1c-0.2-0.3-0.3-0.6-0.4-0.9c-0.1-0.3-0.2-0.6-0.3-0.9c-0.2-0.6-0.4-1.2-0.7-1.8
					s-0.6-1.1-1.1-1.5c-0.4-0.4-1-0.7-1.6-0.8l0,0l0,0c-0.2-0.1-0.3-0.3-0.2-0.5s0.3-0.3,0.4-0.2c1.4,0.3,2.8,0.5,4.1,0.5
					c1.4,0,2.8-0.1,4.2-0.2c1.4-0.2,2.8-0.4,4.2-0.7c1.4-0.3,2.7-0.7,4.1-1.1c0.2-0.1,0.4,0,0.5,0.2c0.1,0.2,0,0.3-0.1,0.4l0,0l0,0
					c0,0-0.1,0.1-0.2,0.1s-0.1,0.1-0.2,0.2c-0.1,0.1-0.2,0.3-0.3,0.4c-0.2,0.3-0.4,0.6-0.6,0.9c-0.4,0.6-0.8,1.3-1.1,1.9
					c-0.4,0.7-0.7,1.3-1,2c-0.2,0.3-0.3,0.7-0.5,1c-0.1,0.2-0.1,0.3-0.2,0.5c0,0.1-0.1,0.2-0.1,0.3c0,0,0,0,0,0c0,0,0,0,0,0
					c0,0,0,0,0,0c0,0,0,0-0.1,0.1c0,0-0.1,0.1-0.1,0.1c-0.4,0.1-0.7,0.2-1.1,0.3c-0.4,0.1-0.7,0.1-1.1,0.2c-0.8,0.1-1.5,0.2-2.2,0.2
					c-0.8,0-1.5,0-2.2,0c-0.4,0-0.8-0.1-1.1-0.2c-0.2-0.1-0.4-0.1-0.5-0.2C-327.8-288.8-327.9-288.9-328-289.1 M-328-289.1
					c0.1,0.1,0.3,0.3,0.4,0.3c0.2,0.1,0.3,0.1,0.5,0.2c0.4,0.1,0.7,0.2,1.1,0.2c0.8,0.1,1.5,0.1,2.2,0c0.8,0,1.5-0.1,2.2-0.2
					c0.4-0.1,0.7-0.1,1.1-0.2s0.7-0.2,1-0.3c0,0,0.1,0,0.1-0.1c0,0,0.1,0,0.1-0.1c0-0.1,0-0.2,0.1-0.3c0.1-0.2,0.1-0.4,0.2-0.5
					c0.1-0.4,0.3-0.7,0.4-1c0.3-0.7,0.6-1.4,0.9-2c0.3-0.7,0.7-1.4,1-2c0.2-0.3,0.4-0.7,0.6-1c0.1-0.2,0.2-0.3,0.3-0.5
					c0.1-0.1,0.1-0.2,0.2-0.2c0.1-0.1,0.1-0.2,0.2-0.2l0,0l0.4,0.6c-1.4,0.5-2.7,0.8-4.1,1.2c-1.4,0.3-2.8,0.6-4.2,0.8
					c-1.4,0.2-2.9,0.3-4.3,0.2c-1.4,0-2.9-0.2-4.3-0.5l0.2-0.8l0,0c0.6,0.4,1.2,0.7,1.6,1.2s0.7,1.1,1,1.7c0.2,0.6,0.4,1.2,0.6,1.8
					c0.1,0.3,0.2,0.6,0.2,0.9C-328.3-289.7-328.2-289.4-328-289.1"/>
			</g>
		</g>
	</g>
</g>
<g>
	<g>
		<defs>
			<rect id="SVGID_35_" x="15.2" y="18.9" width="17.2" height="8.7"/>
		</defs>
		<clipPath id="SVGID_36_">
			<use xlink:href="#SVGID_35_"  style="overflow:visible;"/>
		</clipPath>
		<g class="st31">
			<g transform="translate(347.2324,315.9883)">
				<path class="st30" d="M-328-289.1c-0.2-0.3-0.3-0.6-0.4-0.9c-0.1-0.3-0.2-0.6-0.3-0.9c-0.2-0.6-0.4-1.2-0.7-1.8
					c-0.3-0.6-0.6-1.1-1.1-1.5c-0.4-0.4-1-0.7-1.6-0.9l0,0v0c-0.1,0-0.1-0.1-0.1-0.2c0-0.1,0.1-0.1,0.2-0.1c1.4,0.3,2.8,0.5,4.2,0.5
					c1.4,0,2.8-0.1,4.2-0.2c1.4-0.2,2.8-0.4,4.2-0.7c1.4-0.3,2.8-0.7,4.1-1.1c0.1,0,0.2,0,0.2,0.1c0,0.1,0,0.1-0.1,0.2l0,0l0,0
					c-0.1,0.1-0.2,0.2-0.4,0.4c-0.1,0.1-0.2,0.3-0.3,0.4c-0.2,0.3-0.4,0.6-0.6,0.9c-0.4,0.6-0.8,1.3-1.1,1.9s-0.7,1.3-1,2
					c-0.1,0.3-0.3,0.7-0.5,1c-0.1,0.2-0.1,0.3-0.2,0.5c0,0.1-0.1,0.2-0.1,0.3c0,0.1-0.1,0.1-0.1,0.1c0,0-0.1,0.1-0.1,0.1
					c-0.4,0.1-0.7,0.2-1.1,0.3c-0.4,0.1-0.7,0.1-1.1,0.2c-0.7,0.1-1.5,0.2-2.2,0.2s-1.5,0-2.2,0c-0.4,0-0.8-0.1-1.1-0.2
					c-0.2-0.1-0.4-0.1-0.5-0.2C-327.8-288.8-327.9-288.9-328-289.1 M-328-289.1c0.1,0.1,0.3,0.3,0.4,0.4c0.2,0.1,0.3,0.1,0.5,0.2
					c0.4,0.1,0.7,0.1,1.1,0.2c0.8,0.1,1.5,0.1,2.2,0s1.5-0.1,2.2-0.2c0.4-0.1,0.7-0.1,1.1-0.2c0.4-0.1,0.7-0.2,1.1-0.3
					c0,0,0.1,0,0.1-0.1c0,0,0.1-0.1,0.1-0.1c0-0.1,0-0.2,0.1-0.3c0.1-0.2,0.1-0.4,0.2-0.5c0.1-0.4,0.3-0.7,0.4-1
					c0.3-0.7,0.6-1.3,1-2c0.3-0.7,0.7-1.3,1-2c0.2-0.3,0.4-0.7,0.6-1c0.1-0.2,0.2-0.3,0.3-0.5c0.1-0.1,0.2-0.3,0.4-0.4l0,0l0.2,0.3
					c-1.4,0.5-2.7,0.8-4.1,1.2c-1.4,0.3-2.8,0.6-4.2,0.8c-1.4,0.2-2.9,0.3-4.3,0.2c-1.4,0-2.9-0.2-4.3-0.5l0.1-0.4l0,0
					c0.6,0.2,1.2,0.6,1.6,1.1c0.4,0.5,0.8,1,1,1.6c0.2,0.6,0.4,1.2,0.6,1.8c0.1,0.3,0.2,0.6,0.3,0.9
					C-328.3-289.7-328.2-289.4-328-289.1"/>
			</g>
		</g>
	</g>
</g>
<path class="st32" d="M19.2,26.9c1,1.5,8.8,0.5,8.9-0.1c0.3-1.5,3.1-6.9,4-7.6c-1.6,0.6-10,3.2-16.8,1.6
	C18.4,21.8,18.5,25.7,19.2,26.9"/>
<g>
	<g>
		<defs>
			<rect id="SVGID_37_" x="15.3" y="19.1" width="16.8" height="8.5"/>
		</defs>
		<clipPath id="SVGID_38_">
			<use xlink:href="#SVGID_37_"  style="overflow:visible;"/>
		</clipPath>
		<g class="st33">
			<g transform="translate(451.25,378.25)">
				<path class="st32" d="M-419.1-359.1c-1.3,0.4-6.5,2.1-12,2.1c-1.6,0-3.2-0.2-4.8-0.5c3.1,1,3.1,5,3.9,6.1
					c0.4,0.6,1.7,0.8,3.3,0.8c2.5,0,5.5-0.5,5.6-0.9C-422.8-353-420-358.4-419.1-359.1 M-420.2-358.4c-1.2,1.8-3,5.4-3.3,6.7
					c-0.5,0.3-2.9,0.7-5.3,0.7c-1.9,0-2.8-0.3-3-0.6s-0.3-0.8-0.5-1.4c-0.3-1.1-0.8-2.7-1.8-3.8c0.9,0.1,1.9,0.2,2.9,0.2
					C-426.7-356.6-422.3-357.7-420.2-358.4"/>
			</g>
		</g>
	</g>
</g>
<path class="st10" d="M22.4,27.7c-1.6,0-2.7-0.2-3.1-0.7c0,0,0-0.3,0.2-0.7c0.5-1,1.8-2.8,4.2-2.9c0.2,0,0.3,0,0.5,0
	c2.8,0,4.5,1.4,4.5,1.7c0,0.1-0.1,0.2-0.1,0.3c-0.2,0.4-0.4,0.9-0.6,1.5C27.7,27.1,24.9,27.7,22.4,27.7"/>
<path class="st25" d="M24.2,23.2c-0.2,0-0.3,0-0.5,0c-3.3,0.2-4.8,3.4-4.5,3.8c0.5,0.5,1.7,0.7,3.2,0.7c2.5,0,5.6-0.6,5.7-0.9
	c0.3-0.8,0.6-1.5,0.7-1.9C28.9,24.7,27,23.2,24.2,23.2 M24.2,23.5c2.5,0,4.2,1.2,4.4,1.6c0,0.1-0.1,0.2-0.1,0.3
	c-0.2,0.4-0.4,0.9-0.6,1.5c-0.4,0.2-3,0.7-5.5,0.7c-1.5,0-2.6-0.2-3-0.6c0-0.1,0.1-0.7,0.6-1.3c0.4-0.6,1.6-2,3.7-2.1
	C23.9,23.5,24,23.5,24.2,23.5L24.2,23.5"/>
<g>
	<g>
		<defs>
			<rect id="SVGID_39_" x="19.3" y="23.2" width="9.4" height="3.9"/>
		</defs>
		<clipPath id="SVGID_40_">
			<use xlink:href="#SVGID_39_"  style="overflow:visible;"/>
		</clipPath>
		<g class="st34">
			<g transform="translate(348.084,315.917)">
				<path class="st10" d="M-328.8-289c-0.2,1,6-4,9.3-1.6c0.7-0.9-3-2.5-5.2-2.1C-326.4-292.4-328.3-291.2-328.8-289"/>
			</g>
		</g>
	</g>
</g>
<path class="st35" d="M20.6,21.5c0.3,0.6,0.9,3.3,1.1,3.4c0.2,0.1,1.8,0.5,2,0.4c0.2-0.1,0.2-0.6,0.4-0.5c0.2,0.1,0.3,0.4,0.5,0.3
	c0.3-0.2,1.3-0.8,1.5-1.1c0.2-0.3,0.1-1.8,0-3.1C25.5,21.3,21.7,21.7,20.6,21.5"/>
<g>
	<g>
		<defs>
			<rect id="SVGID_41_" x="20.6" y="21" width="5.6" height="4.3"/>
		</defs>
		<clipPath id="SVGID_42_">
			<use xlink:href="#SVGID_41_"  style="overflow:visible;"/>
		</clipPath>
		<g class="st36">
			<g transform="translate(402.75,363.25)">
				<path class="st37" d="M-376.7-342.3c-0.6,0.2-3.5,0.6-5,0.6c-0.2,0-0.4,0-0.5,0c0.3,0.6,0.9,3.3,1.1,3.4
					c0.2,0.1,1.5,0.4,1.9,0.4c0,0,0.1,0,0.1,0c0.2-0.1,0.2-0.5,0.4-0.5c0,0,0.1,0,0.1,0c0.2,0.1,0.2,0.3,0.4,0.3c0,0,0.1,0,0.1,0
					c0.3-0.2,1.3-0.8,1.5-1C-376.5-339.4-376.5-341-376.7-342.3 M-376.7-342.1c0.1,1.3,0.1,2.6,0,2.9c-0.1,0.2-1,0.8-1.4,1h0
					c0,0-0.1-0.1-0.1-0.1c-0.1-0.1-0.1-0.1-0.2-0.2c-0.1,0-0.1-0.1-0.1-0.1c-0.2,0-0.2,0.2-0.3,0.3c0,0.1-0.1,0.2-0.1,0.2
					c0,0,0,0-0.1,0c-0.3,0-1.3-0.3-1.7-0.4c-0.1,0-0.1,0-0.2,0c-0.1-0.1-0.4-1-0.5-1.6c-0.2-0.6-0.3-1.1-0.4-1.4c0.1,0,0.2,0,0.4,0
					C-380.2-341.5-377.6-341.8-376.7-342.1"/>
			</g>
		</g>
	</g>
</g>
<g>
	<g>
		<defs>
			<rect id="SVGID_43_" x="20.6" y="20.9" width="5.6" height="1.9"/>
		</defs>
		<clipPath id="SVGID_44_">
			<use xlink:href="#SVGID_43_"  style="overflow:visible;"/>
		</clipPath>
		<g class="st38">
			<g transform="translate(361.751,348.25)">
				<path class="st39" d="M-340.8-325.4c-0.1-1,4.6-1.4,5.2-1.3c0-0.2,0-0.4,0-0.7c-0.8,0.4-5,0.8-5.5,0.6
					C-341.1-326.6-340.9-326-340.8-325.4"/>
			</g>
		</g>
	</g>
</g>
<g>
	<g>
		<defs>
			<rect id="SVGID_45_" x="23.2" y="22.1" width="1" height="2.8"/>
		</defs>
		<clipPath id="SVGID_46_">
			<use xlink:href="#SVGID_45_"  style="overflow:visible;"/>
		</clipPath>
		<g class="st40">
			<g transform="translate(380.458,354.3682)">
				<path class="st37" d="M-357.1-332.3c0.1,0.2,0.2,0.4,0.3,0.7c0.1,0.2,0.1,0.5,0.2,0.7l0.2,0.7l0.2,0.7l-0.3,0.1l-0.2-0.7
					l-0.2-0.7c-0.1-0.2-0.1-0.5-0.2-0.7c-0.1-0.2-0.1-0.4-0.2-0.7L-357.1-332.3z"/>
			</g>
		</g>
	</g>
</g>
<g>
	<g>
		<defs>
			<rect id="SVGID_47_" x="7.3" y="4.8" width="7.4" height="6.7"/>
		</defs>
		<clipPath id="SVGID_48_">
			<use xlink:href="#SVGID_47_"  style="overflow:visible;"/>
		</clipPath>
		<g class="st41">
			<g transform="translate(253.584,481.9165)">
				<path class="st10" d="M-246-475.7c2.5,0.6,2.1,4.9,3.5,5.2c1.5,0.3,3.4-3.5,3.6-4.4c-2.9-1.2-4.2-2.6-6.2-2.2
					C-245.8-476.9-246.7-475.9-246-475.7"/>
			</g>
		</g>
	</g>
</g>
<g>
	<g>
		<defs>
			<rect id="SVGID_49_" x="11.2" y="11.8" width="25.1" height="8"/>
		</defs>
		<clipPath id="SVGID_50_">
			<use xlink:href="#SVGID_49_"  style="overflow:visible;"/>
		</clipPath>
		<g class="st42">
			<g transform="translate(308.667,381.333)">
				<path class="st9" d="M-294.3-362.6c3.1,0.2,5.7,0.4,6.6-0.6c0.9-1,1.3-5.2,2.8-5.1c1.3,0.1,1.7,5.6,2.5,5.8
					c0.8,0.2,6.7,1.8,8.1,0.3c1.4-1.5,2.1-2.4,1.8-3.3c-0.3-0.9-8.9-3.8-10.6-4c-1.7-0.2-13.5,1.3-13.8,2c-0.3,0.8-0.6,0.6-0.6,1.4
					C-297.4-364.6-297.4-362.8-294.3-362.6"/>
			</g>
		</g>
	</g>
</g>
<path class="st32" d="M23.1,12.5c0.2,0,1.1-0.1,1.3,0.1c1.1,0.9,1.1,4.5,2.3,5.6c1.1,1,6.8,1.7,7.8,0.6s2.5-4.6,2.8-4.9
	c0.3-0.2,1.1-0.4,1.3-0.8c0.2-0.3,0-1.9-0.5-1.8c-0.5,0.1-1.5,0.4-2.1,0.2c-0.6-0.2-3.6-2.1-11.2-0.9c-0.7,0.1-1.5,0-2-0.1
	c-0.5-0.1-3.4-1.8-11-0.7C11,9.9,10,9.5,9.6,9.6s-0.5,1.2-0.3,1.5c0.1,0.3,0.9,0.6,1,0.9s0.8,4,2.6,5.6c1.9,1.6,6.8,0.5,7.2,0.2
	C22,16.4,22.5,12.5,23.1,12.5"/>
<g>
	<g>
		<defs>
			<rect id="SVGID_51_" x="9.2" y="9.4" width="29.5" height="10"/>
		</defs>
		<clipPath id="SVGID_52_">
			<use xlink:href="#SVGID_51_"  style="overflow:visible;"/>
		</clipPath>
		<g class="st43">
			<g transform="translate(326.0381,456.2231)">
				<path class="st44" d="M-309.5-446.8c-1.3,0-2.9,0.1-4.8,0.4c-0.1,0-0.2,0-0.3,0c-0.7,0-1.4-0.2-1.8-0.2c0,0,0,0-0.1,0
					c-0.4,0-0.5,1.2-0.3,1.5c0.2,0.3,0.9,0.6,1,0.9s0.8,4.1,2.6,5.6c0.8,0.6,2,0.8,3.2,0.8c1.9,0,3.7-0.5,4-0.7
					c1.9-1.4,2.4-5.3,3.1-5.3c0.1,0,0.3,0,0.6,0c0.3,0,0.6,0,0.7,0.1c1.1,0.9,1.1,4.5,2.3,5.6c0.7,0.6,3.3,1.2,5.3,1.2
					c1.1,0,2.1-0.2,2.5-0.6c1-1.1,2.5-4.6,2.8-4.9c0.3-0.3,1.1-0.4,1.3-0.8c0.2-0.3,0-1.8-0.5-1.8c0,0,0,0,0,0
					c-0.4,0.1-1.1,0.3-1.7,0.3c-0.1,0-0.3,0-0.4-0.1c-0.5-0.1-2.4-1.3-6.7-1.3c-1.3,0-2.8,0.1-4.5,0.4c-0.2,0-0.4,0-0.6,0
					c-0.5,0-1-0.1-1.3-0.2C-303.7-445.8-305.4-446.8-309.5-446.8 M-309.5-446.4c3.4,0,5.1,0.7,5.8,0.9c0.1,0.1,0.2,0.1,0.3,0.1
					c0.3,0.1,0.8,0.2,1.4,0.2c0.2,0,0.5,0,0.7-0.1c1.6-0.2,3.1-0.4,4.5-0.4c3.6,0,5.4,0.8,6.2,1.1c0.2,0.1,0.3,0.1,0.4,0.1
					c0.2,0.1,0.3,0.1,0.5,0.1c0.4,0,0.9-0.1,1.2-0.2c0.2,0,0.3-0.1,0.5-0.1c0.2,0.2,0.3,1,0.2,1.2c-0.1,0.1-0.4,0.3-0.6,0.4
					s-0.4,0.2-0.6,0.3c-0.2,0.2-0.4,0.5-1,1.7c-0.6,1.1-1.3,2.6-1.8,3.2c-0.2,0.2-0.9,0.4-2.2,0.4c-2,0-4.5-0.5-5-1.1
					c-0.5-0.5-0.8-1.6-1-2.7c-0.3-1.2-0.6-2.4-1.2-2.9c-0.2-0.1-0.4-0.2-1-0.2c-0.1,0-0.3,0-0.4,0c-0.1,0-0.1,0-0.2,0
					c-0.5,0-0.8,0.6-1.1,1.7c-0.4,1.2-1,2.9-2.1,3.7c-0.2,0.1-2,0.6-3.8,0.6c-1.4,0-2.4-0.3-3-0.8c-0.7-0.6-1.7-2-2.4-5.2
					c0-0.1,0-0.1,0-0.2c-0.1-0.4-0.4-0.6-0.7-0.8c-0.1-0.1-0.3-0.2-0.3-0.3c-0.1-0.2,0-0.8,0.1-1c0.1,0,0.3,0,0.5,0.1
					c0.4,0.1,0.8,0.1,1.2,0.1c0.1,0,0.3,0,0.4,0C-312.5-446.3-310.9-446.4-309.5-446.4"/>
			</g>
		</g>
	</g>
</g>
<g>
	<g>
		<defs>
			<rect id="SVGID_53_" x="12" y="10.8" width="9.5" height="6.4"/>
		</defs>
		<clipPath id="SVGID_54_">
			<use xlink:href="#SVGID_53_"  style="overflow:visible;"/>
		</clipPath>
		<g class="st45">
			<g transform="translate(292.5,434.75)">
				<path class="st46" d="M-280.1-422.6c-0.2,0.2-0.3,3.5,1.1,4.4c0.9,0.6,4.8,0.5,5.6,0c1.2-0.7,2.4-3.8,2.1-4.3
					c-0.6-0.8-4.6-1.7-7.6-1C-279.3-423.3-279.9-422.9-280.1-422.6z"/>
			</g>
		</g>
	</g>
</g>
<path class="st0" d="M12.4,12.1c-0.2,0.2-0.3,3.5,1.1,4.4c0.9,0.6,4.8,0.5,5.6,0c1.2-0.7,2.4-3.8,2.1-4.3c-0.6-0.8-4.6-1.7-7.7-1
	C13.2,11.4,12.6,11.8,12.4,12.1"/>
<g>
	<g>
		<defs>
			<rect id="SVGID_55_" x="26.2" y="11.7" width="9.4" height="6.6"/>
		</defs>
		<clipPath id="SVGID_56_">
			<use xlink:href="#SVGID_55_"  style="overflow:visible;"/>
		</clipPath>
		<g class="st47">
			<g transform="translate(476.5938,423.063)">
				<path class="st46" d="M-441.3-409.5c0.1,0.2-0.2,3.5-1.7,4.3c-1,0.5-4.8-0.2-5.5-0.7c-1.1-0.8-1.9-4.1-1.5-4.5
					c0.7-0.7,4.8-1.1,7.7,0C-442-410.3-441.5-409.8-441.3-409.5z"/>
			</g>
		</g>
	</g>
</g>
<path class="st0" d="M35.3,13.6c0.2,0.2-0.2,3.5-1.7,4.3c-1,0.5-4.8-0.2-5.6-0.7c-1.1-0.8-1.9-4.1-1.5-4.5c0.7-0.7,4.8-1.1,7.7,0
	C34.6,12.8,35.1,13.2,35.3,13.6"/>
<path d="M16.8,14.1c-0.1,0.7-0.5,1.3-0.8,1.2c-0.4-0.1-0.5-0.7-0.5-1.4c0.1-0.7,0.5-1.3,0.8-1.2C16.7,12.8,16.9,13.4,16.8,14.1"/>
<path d="M31.8,14.9c0.1,0.7-0.2,1.4-0.5,1.4c-0.4,0-0.7-0.5-0.8-1.3c-0.1-0.7,0.1-1.3,0.5-1.4C31.3,13.7,31.7,14.2,31.8,14.9"/>
<g>
	<g>
		<defs>
			<rect id="SVGID_57_" x="9.2" y="10.4" width="29.3" height="8.6"/>
		</defs>
		<clipPath id="SVGID_58_">
			<use xlink:href="#SVGID_57_"  style="overflow:visible;"/>
		</clipPath>
		<g class="st48">
			<g transform="translate(270.375,446.25)">
				<path class="st32" d="M-260.8-435.6c0.4,0.3,0.8,0.1,0.9,0.7s1.4,5.4,3,6c2.6,0.9,6,0,6.4-0.3c0.4-0.3,2.6-5,2.9-5.2
					c0.4-0.2,1.5,0,1.7,0.1c0.7,0.3,2.1,5.5,2.4,5.7c1.6,1.1,6.9,1,7.1,0.8c0.3-0.3,2.2-4.8,2.6-5.1c0.5-0.4,1.7-0.7,1.7-0.5
					c0,0.2-1,0.3-1.3,0.7c-0.3,0.4-2.3,4.7-2.9,5c-0.6,0.4-5.2,1-7.5-0.6c-1.1-0.8-1.5-5.5-2.4-5.7c-0.6-0.2-1-0.1-1.4,0
					c-0.5,0.4-1.3,4.3-2.9,5.3c-0.7,0.4-5.7,1.4-7.3-0.2c-2.8-3-2-5.6-2.9-6c-0.6-0.3-0.8-0.6-0.8-0.8
					C-261.2-435.9-261-435.7-260.8-435.6"/>
			</g>
		</g>
	</g>
</g>
<g>
	<g>
		<defs>
			<rect id="SVGID_59_" x="9.6" y="9.6" width="3.8" height="0.6"/>
		</defs>
		<clipPath id="SVGID_60_">
			<use xlink:href="#SVGID_59_"  style="overflow:visible;"/>
		</clipPath>
		<g class="st49">
			<g transform="translate(270.75,454.25)">
				<path class="st32" d="M-261.1-444.6c-0.3-0.1,1.3,0.5,1.9,0.5c0.6,0,1.6-0.5,1.9-0.5c0.3-0.1-1.5,0.2-1.9,0.2
					C-259.7-444.4-260.9-444.5-261.1-444.6"/>
			</g>
		</g>
	</g>
</g>
<g>
	<g>
		<defs>
			<rect id="SVGID_61_" x="21.8" y="10.5" width="4.1" height="1"/>
		</defs>
		<clipPath id="SVGID_62_">
			<use xlink:href="#SVGID_61_"  style="overflow:visible;"/>
		</clipPath>
		<g class="st50">
			<g transform="translate(368.5,447.25)">
				<path class="st32" d="M-346.7-436.7c0.5,0.2,0.8,0.9,1.3,0.9c0.5,0.1,1.2,0.2,1.5,0c0.3-0.2,1.1-0.6,1.3-0.6
					c0.2,0-1.6,0.2-2.3,0.2C-345.7-436.3-346.5-436.7-346.7-436.7"/>
			</g>
		</g>
	</g>
</g>
<g>
	<g>
		<defs>
			<rect id="SVGID_63_" x="35.1" y="11.3" width="2.3" height="0.7"/>
		</defs>
		<clipPath id="SVGID_64_">
			<use xlink:href="#SVGID_63_"  style="overflow:visible;"/>
		</clipPath>
		<g class="st51">
			<g transform="translate(475.375,441.375)">
				<path class="st32" d="M-440.2-430.1c-0.2-0.1,0.8,0.8,1.1,0.7s0.9-0.4,1.1-0.5c0.2-0.1-0.8,0.2-1,0.1
					C-439.3-429.8-440-430-440.2-430.1"/>
			</g>
		</g>
	</g>
</g>
<g>
	<g>
		<defs>
			<rect id="SVGID_65_" x="11.7" y="10.7" width="5.4" height="5.4"/>
		</defs>
		<clipPath id="SVGID_66_">
			<use xlink:href="#SVGID_65_"  style="overflow:visible;"/>
		</clipPath>
		<g class="st52">
			<g transform="translate(287.75,438.625)">
				<path class="st32" d="M-276-427c1.4-1.4,4.7-0.9,5.3-0.8c-4,0.3-4,0.6-4.7,1.3c-0.1,0.5-0.2,2.3,0.4,3.9
					C-275.7-423-276.4-426.5-276-427"/>
			</g>
		</g>
	</g>
</g>
<g>
	<g>
		<defs>
			<rect id="SVGID_67_" x="30.9" y="11.6" width="5.2" height="5.7"/>
		</defs>
		<clipPath id="SVGID_68_">
			<use xlink:href="#SVGID_67_"  style="overflow:visible;"/>
		</clipPath>
		<g class="st53">
			<g transform="translate(482.6602,426.7979)">
				<path class="st32" d="M-446.6-413.7c-1.2-1.5-4.5-1.5-5.1-1.5c3.9,0.8,3.9,1.1,4.5,1.9c0,0.5-0.1,2.3-0.9,3.8
					C-447.4-409.7-446.2-413.2-446.6-413.7"/>
			</g>
		</g>
	</g>
</g>
<g>
	<g>
		<defs>
			<rect id="SVGID_69_" x="12.3" y="11" width="9" height="5.2"/>
		</defs>
		<clipPath id="SVGID_70_">
			<use xlink:href="#SVGID_69_"  style="overflow:visible;"/>
		</clipPath>
		<g class="st54">
			<g transform="translate(292.8125,416.375)">
				<path class="st55" d="M-280.4-402c0.1-1.6,0.3-2.9,3.5-3c2.6-0.1,4.6,0.5,4.9,1.1c0.2,0.4,0,2.1-1.2,3.7c0.8-0.7,2.1-3.6,1.6-4
					c-2.1-1.3-6.2-1.4-7.8-0.8c-0.3,0.1-0.7,0.4-1,0.8C-280.5-403.8-280.5-402.2-280.4-402"/>
			</g>
		</g>
	</g>
</g>
<g>
	<g>
		<defs>
			<rect id="SVGID_71_" x="12.5" y="14.5" width="6.6" height="2.6"/>
		</defs>
		<clipPath id="SVGID_72_">
			<use xlink:href="#SVGID_71_"  style="overflow:visible;"/>
		</clipPath>
		<g class="st56">
			<g transform="translate(293.584,415.5)">
				<path class="st55" d="M-281.1-401c0.5,3.1,6.2,2.2,6.6,2.1c0,0.2-3,1-5.5,0C-281-399.3-281.1-401.4-281.1-401"/>
			</g>
		</g>
	</g>
</g>
<g>
	<g>
		<defs>
			<rect id="SVGID_73_" x="26.4" y="11.9" width="8.9" height="4.8"/>
		</defs>
		<clipPath id="SVGID_74_">
			<use xlink:href="#SVGID_73_"  style="overflow:visible;"/>
		</clipPath>
		<g class="st57">
			<g transform="translate(474.457,405.0869)">
				<path class="st55" d="M-439.4-389.3c0.1-1.6,0.1-2.9-3.1-3.4c-2.5-0.4-4.6-0.1-5,0.5c-0.2,0.4-0.3,2.1,0.8,3.8
					c-0.7-0.8-1.7-3.9-1.1-4.2c2.2-1.1,6.4-0.6,7.8,0.1c0.3,0.1,0.7,0.5,0.9,0.9C-439.1-391.1-439.3-389.5-439.4-389.3"/>
			</g>
		</g>
	</g>
</g>
<g>
	<g>
		<defs>
			<rect id="SVGID_75_" x="28.1" y="15.8" width="6.8" height="2.2"/>
		</defs>
		<clipPath id="SVGID_76_">
			<use xlink:href="#SVGID_75_"  style="overflow:visible;"/>
		</clipPath>
		<g class="st58">
			<g transform="translate(473.583,404.3135)">
				<path class="st55" d="M-438.7-388.4c-0.9,3.1-6.5,1.4-6.8,1.2c0,0.2,2.9,1.4,5.5,0.7C-438.9-386.7-438.6-388.8-438.7-388.4"/>
			</g>
		</g>
	</g>
</g>
<g>
	<g>
		<defs>
			<rect id="SVGID_77_" x="16.3" y="13" width="0.4" height="0.4"/>
		</defs>
		<clipPath id="SVGID_78_">
			<use xlink:href="#SVGID_77_"  style="overflow:visible;"/>
		</clipPath>
		<g class="st59">
			<g transform="translate(327.375,426)">
				<path class="st0" d="M-310.6-412.8c0-0.1-0.1-0.2-0.2-0.2c-0.1,0-0.2,0.1-0.2,0.2c0,0.1,0.1,0.2,0.2,0.2
					C-310.7-412.6-310.6-412.7-310.6-412.8"/>
			</g>
		</g>
	</g>
</g>
<g>
	<g>
		<defs>
			<rect id="SVGID_79_" x="31.2" y="13.9" width="0.4" height="0.4"/>
		</defs>
		<clipPath id="SVGID_80_">
			<use xlink:href="#SVGID_79_"  style="overflow:visible;"/>
		</clipPath>
		<g class="st60">
			<g transform="translate(446.375,419)">
				<path class="st0" d="M-414.8-404.9c0-0.1-0.1-0.2-0.2-0.2c-0.1,0-0.2,0.1-0.2,0.2c0,0.1,0.1,0.2,0.2,0.2
					C-414.9-404.7-414.8-404.8-414.8-404.9"/>
			</g>
		</g>
	</g>
</g>
<g>
	<g>
		<defs>
			<rect id="SVGID_81_" x="9.7" y="10" width="12.2" height="1.8"/>
		</defs>
		<clipPath id="SVGID_82_">
			<use xlink:href="#SVGID_81_"  style="overflow:visible;"/>
		</clipPath>
		<g class="st61">
			<g transform="translate(271.125,447.875)">
				<path class="st55" d="M-261.4-437.4c0.5,0.5,0.7,0.6,1.3,0.5c5.8-0.8,9.1-0.7,10.6,0.8c0.3,0.3,0.1-1-0.5-1.1
					c-4.9-1.3-8.5-0.1-9.2,0C-259.9-437.2-260.4-437.4-261.4-437.4"/>
			</g>
		</g>
	</g>
</g>
<g>
	<g>
		<defs>
			<rect id="SVGID_83_" x="25.8" y="10.6" width="9" height="1.7"/>
		</defs>
		<clipPath id="SVGID_84_">
			<use xlink:href="#SVGID_83_"  style="overflow:visible;"/>
		</clipPath>
		<g class="st62">
			<g transform="translate(400.625,441.875)">
				<path class="st55" d="M-374.8-430.7c-0.1,0.1-0.1,1.5,0.6,1c1.8-1.5,5.7-1.1,8.4-0.2c-0.4-0.8-3.6-1.4-5.3-1.4
					C-372-431.3-374.4-431-374.8-430.7"/>
			</g>
		</g>
	</g>
</g>
<path class="st55" d="M36.9,12.3c0,0.1-0.3,0.1-0.7,0.1c-0.4,0-0.7,0-0.7-0.1s0.3-0.1,0.7-0.1C36.7,12.2,36.9,12.2,36.9,12.3"/>
<path class="st55" d="M11.7,10.7c0,0.1-0.3,0.1-0.7,0c-0.4-0.1-0.6-0.2-0.6-0.2c0-0.1,0.3-0.1,0.7,0C11.4,10.5,11.7,10.6,11.7,10.7"
	/>
<g transform="translate(578.4404,204.8359)">
	<path class="st0" d="M-530.5-164.1c-0.1-1.1-1-1.7-1.7-1.7c-0.4,0-0.6,0.1-0.8,0.2l-0.2,0.1l-0.1,0.1c-0.2,0.1-0.5,0.3-0.8,0.4
		c0-0.2,0-0.5,0-0.8v0c0.2-2-0.2-3.2-1.3-3.5c-0.2-0.1-0.4-0.1-0.5-0.1c-0.6,0-1.2,0.3-1.6,0.6c-0.3-0.4-0.8-0.6-1.5-0.6
		c-1,0-1.7,0.4-2,1.2c0,0.1-0.1,0.2-0.1,0.3c-0.6-1.2-1.7-1.7-2.8-1.7c-1,0-2,0.4-2.3,0.7c0,0,0,0-0.1,0c-1,0.7-1.7,1.5-2.2,2.6
		c-0.3-0.9-0.8-1.7-1.8-2.3l0,0c0,0-0.1,0-0.1,0c1-1.7,1.9-4.1,1.3-6.3c-0.6-2.4-1.9-2.7-2.7-2.7c-0.3,0-0.7,0.1-1,0.2h0h0
		c-1.5,0.6-2.1,1.4-2.2,1.7c-0.1,0.2-1.7,2.7-2.1,6.2c0,0.4-0.1,0.8-0.1,1.2c-0.2-0.3-0.6-0.6-1.2-0.8c-0.2-0.1-0.4-0.1-0.6-0.1
		c-0.8,0-1.5,0.5-1.8,0.8l0,0c-0.3-0.4-0.8-0.7-1.3-0.8c0,0-0.1,0-0.1,0c-0.9,0-1.5,0.4-2,0.8c-0.3-0.6-0.9-0.9-1.6-0.9
		c-0.1,0-0.1,0-0.2,0c0,0-0.1,0-0.1,0c-1,0-1.7,0.4-2,1.2c0,0.1-0.1,0.1-0.1,0.2c-0.8-0.9-1.7-1.4-3-1.4c0,0-0.1,0-0.1,0
		c-0.8,0-2.8,0.4-4,3.1c-0.2,0.4-0.3,0.9-0.5,1.3c-0.3-0.1-0.5-0.2-0.7-0.2c-0.6,0-1.1,0.4-1.4,0.7c-0.2,0.3-0.8,1.3-0.5,2.2
		c0.2,0.5,0.5,0.9,1,1.1c0.5,0.2,1,0.4,1.5,0.5c0.3,0.6,0.8,1.3,1.6,2c0.6,0.5,1.4,0.7,2.3,0.7c1.5,0,3-0.7,3.2-0.7l0.1,0l0,0
		c0.3,0.3,0.7,0.5,1.2,0.6c0.1,0,0.3,0.1,0.6,0.1c0.8,0,1.4-0.4,1.9-1.2c0.4,0.7,1.2,1.1,2.2,1.1l0,0c0.1,0,0.1,0,0.2,0
		c0.5,0,1.1-0.2,1.6-1c0.4,0.8,1.2,1.2,2.2,1.2c0.8,0,1.6-0.3,1.7-0.4l0,0c0.3-0.1,0.5-0.3,0.7-0.4c0.6,0.3,1.6,0.7,2.7,0.7
		c0.2,0,0.4,0,0.6,0h0.1h0.1c2.4-0.5,4-1.1,5-1.5c0.7,0.8,1.7,1.5,3.2,1.6c0.2,0,0.3,0,0.5,0c1.2,0,2.2-0.4,3-0.7
		c0.2,0.2,0.5,0.5,0.9,0.6c0.2,0.1,0.5,0.1,0.7,0.1c1.5,0,2.2-1.8,2.4-2.4l0.4-1c0.3,0.3,0.7,0.6,1.3,0.8c0.3,0.1,0.6,0.1,0.9,0.1
		c1.7,0,3.3-1.2,3.5-1.4C-530.9-162.3-530.4-163-530.5-164.1"/>
</g>
<g transform="translate(455.4502,200.8125)">
	<path class="st63" d="M-422.8-159.6c0,0-0.2-0.8,0.6-2.2s1.4-0.7,1.4-0.7s0.7,0.7-0.1,1.8C-421.7-159.5-422.8-159.6-422.8-159.6
		 M-428.8-158.6c-0.9,2.3-3.1,1.4-3.1,1.4s-0.2-0.8,0.5-3.2s2.4-1.4,2.4-1.4S-427.9-160.9-428.8-158.6 M-430.4-168.4
		c0,0,1.4-3.5,1.7-1.8c0.3,1.7-2.9,6.8-2.9,6.8C-431.6-164.5-430.4-168.4-430.4-168.4 M-449.8-159.6c0.1-2.3,1.5-3.3,2.1-2.8
		c0.5,0.5,0.3,1.6-0.7,2.2C-449.4-159.5-449.8-159.6-449.8-159.6 M-408.7-160c-0.1-0.8-0.8-0.5-0.8-0.5s-1.1,0.9-2.1,0.8
		c-1-0.1-0.7-2.3-0.7-2.3s0.2-2-0.4-2.2c-0.6-0.2-1.3,0.5-1.3,0.5s-0.9,1-1.3,2.2l-0.1,0c0,0,0.1-2.2,0-2.7
		c-0.1-0.2-1.2-0.2-1.3,0.2c-0.2,0.4-1,3.5-1.1,4.8c0,0-1.6,1.4-3.1,1.6c-1.4,0.2-1.8-0.7-1.8-0.7s3.9-1.1,3.8-4.2
		c-0.1-3.1-3.1-2-3.5-1.7c-0.3,0.2-2.1,1.3-2.6,4.2c0,0.1-0.1,0.5-0.1,0.5s-1.5,1-2.3,1.3c0,0,2.3-4-0.5-5.8
		c-1.3-0.8-2.3,0.9-2.3,0.9s3.9-4.3,3-8c-0.4-1.7-1.3-1.9-2.1-1.7c-1.2,0.5-1.7,1.2-1.7,1.2s-1.6,2.3-1.9,5.7
		c-0.4,3.4-0.9,7.5-0.9,7.5s-0.8,0.7-1.4,0.8c-0.7,0-0.4-2-0.4-2s0.5-3.2,0.5-3.7c0-0.5-0.1-0.8-0.7-1c-0.6-0.2-1.3,0.6-1.3,0.6
		s-1.8,2.8-2,3.2l-0.1,0.2l-0.1-0.1c0,0,1.3-3.8,0.1-3.8s-2,1.3-2,1.3s-1.4,2.3-1.4,2.6l-0.1-0.1c0,0,0.6-2.7,0.5-3.4
		c-0.1-0.7-0.8-0.5-0.8-0.5s-0.8-0.1-1,0.4c-0.2,0.5-1,3.9-1.1,5c0,0-2,1.4-3.3,1.4c-1.3,0-1.2-0.8-1.2-0.8s4.8-1.7,3.5-4.9
		c-0.6-0.8-1.3-1.1-2.2-1.1c-1,0-2.1,0.6-2.9,2.4c-0.4,0.8-0.5,1.6-0.5,2.2l0,0c0,0-0.9,0.2-1.4-0.2s-0.7,0-0.7,0s-0.8,1.1,0,1.4
		c0.8,0.3,2,0.6,2,0.6l0,0c0.1,0.5,0.4,1.3,1.4,2c1.4,1.1,4.2-0.2,4.2-0.2l1.1-0.7c0,0,0,1,0.9,1.2c0.8,0.2,1.2,0,2.6-3.5
		c0.8-1.8,0.9-1.7,0.9-1.7l0.1,0c0,0-0.7,3.4-0.4,4.3c0.3,0.9,1.3,0.8,1.3,0.8s0.6,0.2,1.1-1.5c0.5-1.7,1.4-3.5,1.4-3.5h0.1
		c0,0-0.4,3.4,0.2,4.5c0.6,1.1,2.2,0.3,2.2,0.3s1.1-0.6,1.3-0.8c0,0,1.3,1.1,3.2,0.9c4.1-0.8,5.6-1.9,5.6-1.9s0.7,1.8,2.9,2
		c2.5,0.2,3.9-1.4,3.9-1.4s0,1,0.9,1.4c0.9,0.4,1.5-1.6,1.5-1.6l1.5-4h0.1c0,0,0.1,2.5,1.5,2.9c1.5,0.4,3.4-1.1,3.4-1.1
		S-408.6-159.2-408.7-160"/>
</g>
</svg>
