<svg xmlns="http://www.w3.org/2000/svg" viewBox="0 0 128 128">
    <path fill-rule="evenodd" clip-rule="evenodd" fill="#D3EDF6" d="M23.025 122.111c.023.349-.141.419-.402.233-.554-.395-1.175-.736-1.623-1.23-2.246-2.481-3.872-5.313-4.642-8.597-.313-1.338-.335-2.679-.236-4.062.191-2.651 0-5.295-.714-7.877-.047-.172-.154-.328-.342-.714l-1.36 1.659-.164-.099c.041-3.821-.09-7.631-.773-11.445l-1.505 3.558-.25-.044c-.111-.569-.235-1.136-.332-1.707-.567-3.348-.662-6.733-.475-10.102.29-5.21 1.15-10.322 3.577-15.037.683-1.326 1.509-2.563 2.609-3.694-.562.169-1.132.315-1.684.514-.579.208-1.14.467-1.832.755.723-1.9 1.684-3.566 2.933-5.048 1.233-1.463 2.55-2.856 3.88-4.335l-3.087-1.154-.218-.205c.214-.112.448-.198.638-.342 3.014-2.285 6.463-3.586 10.091-4.492 1.153-.287.951-.073 1.032-1.279.131-1.952.344-3.898.523-5.847l.178-.015 2.647 5.041c-.288-7.73.268-15.343 2.403-22.787l.181-.002c.014.249.046.498.037.746-.063 1.632.096 3.225.75 4.745.454 1.056 1.116 1.923 2.197 2.582.453-4.562 1.672-8.88 3.108-13.274l2.152 2.427a36.028 36.028 0 012.07-8.766l3.064 3.904 1.817-8.597 1.29 2.83c-.09 4.495 2.107 7.938 5.188 11.07l-3.409 1.722c3.574-.291 6.144-1.523 7.975-3.805.541-.847 1.167-1.652 1.603-2.55.655-1.346.605-1.383-.625-2.208-3.29-2.204-5.52-5.195-6.699-8.972 1.407-1.806 3.359-2.748 5.394-3.466l.26 4.037c.545-.289.936-.488 1.32-.7 3.378-1.86 6.975-3.112 10.753-3.853.727-.142 1.461-.242 2.194-.349.083-.012.18.061.27.094L71.255 4.19c-1.291 1.029-2.317 2.29-3.208 3.668l-.125.125-.002.124c-.127.132-.293.243-.376.398-.673 1.257-1.367 2.504-1.978 3.792-.356.75-.57 1.567-.86 2.389l5.678.541.1.217c-4.079 3.673-8.165 7.339-11.957 11.466l4.061.556c-1.151.471-2.188.829-3.164 1.308-2.843 1.395-5.502 3.037-7.424 5.661-1.488 2.032-3.035 4.021-4.556 6.028-1.188-1.19-2.375-2.381-3.57-3.581l-.912 4.163 2.535 2.281c-.134.257-.276.51-.401.771-.792 1.663-1.651 3.298-2.35 4.999-.727 1.772-.891 3.682-1.027 5.583-.156 2.183-.399 4.362-.468 6.547-.083 2.647-.098 5.302.349 7.933.393 2.316.694 4.65 1.155 6.952.285 1.421.792 2.797 1.201 4.193l.171-.034 1.691-3.393.169.043c.61 2.926 1.479 5.772 2.724 8.487 1.239 2.702 2.666 5.294 4.913 7.391v-3.58l.25.003c.459.239.92.476 1.37.732a78.895 78.895 0 009.798 4.724c4.083 1.632 8.148 3.305 12.026 5.389 1.201.645 2.409 1.333 3.458 2.191 2.381 1.95 4.666 4.019 6.99 6.04l-.193.455c-.761 1.522-1.535 3.037-2.285 4.565-.662 1.349-1.298 2.71-1.946 4.066l-.168-.026v-4.699c-.267.603-.373 1.213-.535 1.808a661.507 661.507 0 01-2.004 7.238c-.207.726-.727 1.144-1.441 1.428-.836.332-1.616.226-2.418-.027l.007.004-.232-.107c-1.218-.907-2.435-1.816-3.656-2.72-.312-.23-.64-.439-.948-.649l.442 4.497-.235.121c-4.982-4.061-11.074-6.074-16.596-9.138-1.795-1.143-3.595-2.277-5.382-3.434-.477-.309-.911-.682-1.471-1.106l.274 2.213-.15.105-5.103-3.503c.089-.695.222-1.388.259-2.085.066-1.273.224-2.566.079-3.82-.351-3.029-1.925-5.353-4.438-7.075a34.016 34.016 0 01-2.946-2.269c-.517-.444-.917-1.034-1.032-1.672l2.932.263c-.872-1.626-1.74-3.065-2.429-4.585-.69-1.525-1.348-3.095-1.263-5.023.513.697.846 1.345 1.609 1.654-.261-2.57.114-5.003.533-7.417.417-2.411.997-4.794 1.506-7.19-1.777 3.112-3.59 6.199-4.135 9.956l-1.467-1.544c-.064.932-.187 1.774-.168 2.614.042 1.882.113 3.766.246 5.644.151 2.142.736 4.183 1.582 6.158.964 2.255 2.616 4.009 4.146 5.858.973 1.174 1.806 2.447 2.027 3.993.239 1.673.396 3.357.589 5.037l.388 5.684c-1.113.229-4.221-.522-4.873-1.23l.523-.279c-.559-.483-1.177-.904-1.647-1.452-.714-.831-.854-1.904-1.021-2.954-.043-.27-.262-.511-.399-.765-.26.236-.602.429-.754.721-.128.245-.097.62-.027.911.129.541.294 1.083.519 1.59.679 1.536 1.415 3.046 2.087 4.584.826 1.887 1.505 3.818 1.459 5.922-.014.617-.14.733-.708.506a27.14 27.14 0 01-2.252-1.041c-.578-.296-1.124-.653-1.755-1.024v.663l-.051.043c-.18-.091-.385-.152-.538-.277-.65-.531-1.285-1.082-1.925-1.625l.004.005-.13-.26-1.147-2.854-.104.42-.185.39c-.862-1.58-1.316-3.162-1.549-4.826-.419 1.423.029 2.781.217 4.238l.378-.41c.327.659.609 1.298.953 1.903.347.61.73 1.202 1.142 1.77.208.289.513.508.773.758.605 1.524 1.229 3.043 1.534 4.827l-3.279-.972c-1.322-.592-2.674-1.131-3.737-2.171-.052-.05-.153-.049-.231-.072l-.048-.163-.047.032.093.133 1.09 2.272-.078.16-1.703-.594-1.053-.337-.053-.029.053.029zm1.334-2.055l-1.282-3.093-.421.287-.861-4.031c-.825 1.579.795 6.083 2.564 6.837zM38.46 69.748l-.018-.053-.045.012.018.053.045-.012z" />
    <path fill-rule="evenodd" clip-rule="evenodd" fill="#E9F5FA" d="M87.519 108.3c-2.324-2.021-4.609-4.089-6.99-6.04-1.049-.858-2.257-1.546-3.458-2.191-3.877-2.083-7.943-3.756-12.026-5.389a78.895 78.895 0 01-9.798-4.724c-.45-.256-.911-.493-1.37-.732l-.25-.003v3.58c-2.247-2.096-3.673-4.689-4.913-7.391-1.245-2.714-2.114-5.561-2.724-8.487l-.169-.043-1.691 3.393-.171.034c-.408-1.396-.916-2.772-1.201-4.193-.461-2.302-.762-4.636-1.155-6.952-.446-2.631-.431-5.286-.349-7.933.068-2.185.312-4.365.468-6.547.136-1.9.3-3.81 1.027-5.583.698-1.701 1.558-3.336 2.35-4.999.125-.262.267-.514.401-.771l.25.184c1.585 1.305 3.186 2.591 4.74 3.933.296.255.518.708.58 1.102.12.754.11 1.531.136 2.299.043 1.288.377 1.834 1.592 2.223 4.15 1.326 8.375 2.076 12.757 1.565 1.22-.143 2.242-.604 2.952-1.629a76.008 76.008 0 001.825-2.747c.671-1.064.853-1.136 2.083-.95.554.084.734.341.721.858-.02.788-.004 1.577-.013 2.365-.019 1.754.944 2.758 2.552 3.129 1.37.315 2.769.547 4.168.679 1.772.166 3.567.326 5.297-.331-.423 1.095-.842 2.191-1.27 3.285-.188.481-.36.973-.601 1.428-.352.664-.467 1.259.247 1.758l.129.138-.001-.003.34.651c.802 1.633 1.694 3.23 2.382 4.91 1.084 2.65 1.468 5.459 1.543 8.312.123 3.35-.517 6.563-1.781 9.653-.368.897-.694 1.885-1.312 2.595-2.782 3.204-6.32 4.659-10.584 4.22l-1.229-.143a.611.611 0 00.283.287c2.869 1.669 5.737 3.339 8.609 5.003.155.09.336.134.504.2.536.471 1.076.937 1.608 1.413l2.539 2.283.195.136c.86-.741 1.686-1.489 2.549-2.189 2.553-2.073 5.361-3.718 8.36-5.074 2.189-.989 4.3-2.154 6.446-3.24.125-.063.254-.122.562-.104l-.767 2.929-.167.59-.052.028.023.023.028-.052c.995-.472 2.019-.891 2.975-1.431.794-.449 1.507-1.039 2.257-1.565-.142.32-.258.655-.432.957-1.296 2.256-3.028 4.155-4.915 5.921-.537.502-1.116.959-1.748 1.499l.162-2.853c-2.766 2.301-5.083 4.773-7.326 7.321l-.168-.054-.232-3.345c-2.439 2.196-4.849 4.256-6.777 6.804zM54.668 57.42c.036.344.042.59.09.828.34 1.718 1.318 3.035 2.666 4.083 2.78 2.164 6.034 3.194 9.443 3.764 3.072.514 6.177.299 9.271.218.139-.003.276-.048.542-.098l-.71-1.487c-.353-.725-.725-1.441-1.061-2.174-.244-.532-.079-.9.427-1.25 1.064-.736 2.073-1.556 3.146-2.373a4.53 4.53 0 00-2.596-1.037c-2.647-.204-5.3-.41-7.954-.454-4.382-.073-8.766-.02-13.264-.02zm13.943 18.062l.245-.049c.356-.718.759-1.417 1.056-2.159.364-.912.707-1.781 1.732-2.178.556-.215 1.061-.562 1.588-.849l-.051-.196c-4.601.285-9.108-.217-13.641-1.682.121 1.944.614 3.59 1.426 5.246l1.749-1.948c.55 1.486.919 2.933 2.036 4.186l2.139-3.159 1.721 2.788zm4.107 17.272l-.012-.037-.053-.011.015.063.05-.015zm-25.27-52.289c1.521-2.008 3.067-3.997 4.556-6.028 1.922-2.624 4.581-4.266 7.424-5.661.976-.479 2.012-.837 3.164-1.308l-4.061-.556c3.792-4.127 7.878-7.793 11.957-11.466l-.1-.217-5.678-.541c.291-.821.504-1.639.86-2.389.611-1.287 1.305-2.535 1.978-3.792.083-.155.249-.267.376-.398.21.083.414.197.632.244 3.081.667 6.164 1.321 9.244 1.989.84.182.853.187.853-.713V4.994c1.014-.278 2.018-.606 3.045-.824a231.84 231.84 0 017.155-1.414c1.193-.213 2.41-.288 3.716-.438l-2.53 4.368.142.101c1.076-.317 2.139-.694 3.231-.934 1.099-.243 2.227-.349 3.448-.531v1.776c2.999-.373 5.888-.31 8.855.253-.193.392-.352.699-.497 1.013-.506 1.09-1.004 2.185-1.513 3.272-.217.464-.108.719.406.867 1.21.349 2.41.738 3.612 1.117.234.074.46.173.784.296-.52.634-1.019 1.2-1.471 1.801-1.281 1.698-2.544 3.41-3.808 5.121-.07.095-.086.229-.128.346l-2.549 3.972c-.778 1.322-1.559 2.643-2.327 3.971-.056.097-.017.248-.021.375-.381.555-.819 1.08-1.134 1.67-1.481 2.782-2.974 5.561-4.375 8.383-1.373 2.767-2.643 5.584-3.951 8.382-.078.166-.098.357-.145.537l-6.319-1.292c-.691-.944-1.718-1.029-2.502-.207-1.761.056-3.522.143-5.284.156-.904.007-1.833-.008-2.71-.202-2.71-.598-5.4-1.287-8.099-1.94-.445-1.08-1.992-1.246-2.751-.563l-.186-.006c-3.344-.569-6.701-.962-10.104-.825-.158.006-.364-.097-.478-.216-.914-.963-1.813-1.941-2.717-2.914zm11.499 1.946l.333-.144c1.438-.753 2.93-1.206 4.577-.872.319.065.649.082 1.033.128-.967-1.475-3.403-1.606-4.754-.729-.589.382-1.156.811-1.189 1.617l-.029.052.029-.052zm6.195-3.309c-.58-1.39-2.409-2.078-4.047-1.627-1.374.377-2.669 1.849-2.525 2.995 1.834-2.072 4.051-2.258 6.572-1.368zm18.069 2.652c1.787.167 3.337.756 4.444 2.326.08-1.298-.425-2.06-1.476-2.635-.984-.539-2.18-.389-2.968.309zm3.151 4.988c-.151-1.446-.603-2.614-2.042-3.026-.74-.212-1.489-.091-2.117.507 1.884.518 2.55.577 4.159 2.519z" />
    <path fill-rule="evenodd" clip-rule="evenodd" fill="#B3E0EE" d="M87.909 76.486c-.076-2.853-.459-5.662-1.543-8.312-.688-1.68-1.58-3.277-2.382-4.91l-.34-.651c.611.184 1.218.382 1.834.547.897.241 1.792.519 2.707.659.488.075 1.017-.101 1.525-.178.196-.03.386-.099.69-.179l-.247 1.223c2.042-.949 3.52-2.408 4.715-4.116 1.19-1.702 2.208-3.524 3.28-5.262l.479.807c.863-1.35.268-5.337-1.156-7.71.362 0 .661-.021.956.003 1.873.152 3.783.134 5.477 1.138 1.343.795 2.302 1.923 2.945 3.412l-1.434-.08c1.429 2.313 1.979 4.708 1.755 7.449l-1.105-.878c-.053.262-.091.532-.164.792-.221.777-.464 1.547-.678 2.326-.057.208-.04.435-.057.653.232.006.488.08.693.007 1.171-.416 2.329-.868 3.492-1.305.485-.182.979-.342 1.458-.539.506-.208.694-.028.659.482-1.317.459-2.636.916-3.951 1.381-.168.06-.322.163-.482.246 1.666-.185 2.327-.097 3.179.498.62.433.71.972.159 1.499-.428.409-.941.733-1.437 1.063-.297.199-.634.338-1.046.553l.572.217c-.908.596-1.782 1.11-2.587 1.715-1.001.753-2.006 1.521-2.894 2.398-.708.699-.492 1.187.499 1.267 1.215.098 2.438.102 3.657.144l.783.001-.578.747-.029.048.025-.051c.457 0 .92.044 1.368-.018.282-.04.678-.173.784-.384.229-.458.599-.515 1.003-.591.79-.149 1.584-.281 2.368-.458.627-.142 1.243-.34 1.863-.513l.092.13-1.388 1.293-.208-.762c-2.202 1.012-4.377 1.929-6.469 3.008-1.009.521-1.86 1.347-2.783 2.036l-.051.058.058-.05.591.042-2.313 1.951c.369.321.665.743 1.062.887.747.272 1.545.483 2.335.54 1.191.085 2.393.016 3.59.012l.031-.262-.937-.385 4.774-.575c-3.257 2.004-7.016 1.793-10.617 2.397.006.974.822 1.433 1.344 2.102l-.389.322 1.13.948c.215.338.017.362-.262.376-2.078.104-4.089-.248-6.017-.99-1.175-.452-2.298-1.039-3.447-1.559-.108-.049-.237-.052-.357-.077l-.018-.046-.036-.01.051.059.5 1.122c-.662-.125-1.32-.316-1.987-.361-1.547-.104-3.011.324-4.451.839l-.528.159c.042-.533.117-1.067.118-1.601.005-2.167-.01-4.333-.03-6.5.001-.08-.132-.162-.203-.243z" />
    <path fill-rule="evenodd" clip-rule="evenodd" fill="#65C1DD" d="M87.519 108.3c1.928-2.547 4.338-4.608 6.776-6.804l.232 3.345.168.054c2.243-2.547 4.56-5.02 7.326-7.321l-.162 2.853c.632-.54 1.211-.997 1.748-1.499 1.887-1.766 3.619-3.665 4.915-5.921.173-.302.29-.637.432-.957l.123-.006.019.016c-.417 1.361-.79 2.737-1.261 4.079-1.032 2.936-2.985 5.333-4.663 7.897-1.688 2.581-3.234 5.255-4.832 7.895-.124.205-.161.462-.238.695l-.049.072.066-.055c.733-.379 1.464-.762 2.199-1.137.677-.346 1.359-.684 2.148-.92l-.501.945c-1.75 3.371-3.481 6.752-5.258 10.109-.708 1.338-1.496 2.635-2.296 3.92-.138.223-.521.414-.792.415-3.553.021-7.106-.056-10.657.02-2.57.054-4.521-1.152-6.351-2.725l-.085-.159c.803.253 1.583.359 2.418.027.714-.284 1.234-.702 1.441-1.428a645.675 645.675 0 002.004-7.238c.162-.595.268-1.206.535-1.808v4.699l.168.026c.648-1.356 1.284-2.718 1.946-4.066.75-1.528 1.524-3.043 2.285-4.565l.196-.458z" />
    <path fill-rule="evenodd" clip-rule="evenodd" fill="#65C2DD" d="M43.479 109.392l5.103 3.503.15-.105-.274-2.213c.56.424.994.797 1.471 1.106 1.787 1.156 3.587 2.291 5.382 3.434l-3.814 1.039c4.449 1.905 8.463 4.59 10.392 9.673-1.311.087-2.506.19-3.703.243-2.573.112-5.146.218-7.72.29-3.717.104-7.435.174-11.152.262-1.08.025-2.16.047-3.238.09-1.718.068-3.065-.593-4.05-2.001-.116-.167-.254-.318-.417-.521l-1.19.826c-.705-.6-1.309-1.283-1.676-2.161l3.279.972c-.305-1.784-.929-3.303-1.534-4.827l-.352-1.134c.64.543 1.275 1.093 1.925 1.625.153.125.357.187.538.277l.086.137-.035-.18v-.663c.631.371 1.177.728 1.755 1.024a27.14 27.14 0 002.252 1.041c.568.227.694.11.708-.506.046-2.104-.634-4.036-1.459-5.922-.673-1.539-1.409-3.048-2.087-4.584a9.206 9.206 0 01-.519-1.59c-.069-.292-.101-.666.027-.911.152-.292.494-.484.754-.721.138.254.356.496.399.765.167 1.05.307 2.123 1.021 2.954.47.547 1.088.968 1.647 1.452l-.523.279c.652.708 3.76 1.459 4.873 1.23l-.388-5.684.374.193c.665.432 1.329.871 1.995 1.308z" />
    <path fill-rule="evenodd" clip-rule="evenodd" fill="#EBF7FE" d="M104.579 85.318l-1.13-.948.389-.322c-.521-.669-1.337-1.128-1.344-2.102 3.602-.604 7.36-.393 10.617-2.397l-4.774.575.937.385-.031.262c-1.197.004-2.399.073-3.59-.012-.79-.057-1.588-.268-2.335-.54-.397-.145-.692-.566-1.062-.887l2.313-1.951-.591-.042-.007-.008c.922-.688 1.773-1.515 2.783-2.035 2.091-1.079 4.267-1.996 6.469-3.008l.208.762 1.388-1.293-.092-.13c-.621.173-1.236.371-1.863.513-.784.177-1.578.309-2.368.458-.404.076-.774.134-1.003.591-.106.211-.501.344-.784.384-.448.063-.911.018-1.368.018l.004.003.578-.747-.783-.001c-1.219-.042-2.442-.046-3.657-.144-.99-.08-1.206-.567-.499-1.267.888-.878 1.892-1.646 2.894-2.398.805-.605 1.679-1.119 2.587-1.715l-.572-.217c.412-.215.749-.354 1.046-.553.496-.331 1.009-.655 1.437-1.063.551-.527.461-1.065-.159-1.499-.852-.595-1.513-.682-3.179-.498.161-.083.314-.186.482-.246 1.315-.465 2.634-.922 3.951-1.381 1.076.043 2.163.002 3.223.151 1.458.205 2.234 1.34 3.035 2.396l-.087.159-1.466-.472c.87 1.486 1.651 2.882 1.705 4.601-.112-.062-.213-.086-.261-.151-.061-.082-.08-.195-.154-.394-.404.969-.596 1.802-1.054 2.446-.772 1.088-.74 2.034-.164 3.21.412.841.429 1.876.622 2.825l-.242.096-.618-.76c-.077 1.305-.093 2.478-.735 3.546l-.281-.645c-.458.422-.914.805-1.316 1.238-.11.118-.111.397-.074.585.21 1.089.571 2.167.161 3.319l-.476-.222c-.667 1.463-1.871 2.206-3.364 2.371-1.622.179-3.218-.107-4.753-.686-.193-.071-.396-.107-.593-.16z" />
    <path fill-rule="evenodd" clip-rule="evenodd" fill="#515053" d="M82.28 47.181l6.319 1.292.53.174c.433.141.593.445.463.869-.163.533-.316 1.078-.562 1.574-.133.27-.414.534-.69.65-.479.202-.762.517-.972.975-.292.638-.587 1.286-.978 1.866-.35.52-.828.954-1.25 1.427-1.73.657-3.525.497-5.297.331a31.78 31.78 0 01-4.168-.679c-1.607-.371-2.571-1.375-2.552-3.129.009-.788-.007-1.577.013-2.365.013-.517-.167-.774-.721-.858-1.229-.186-1.411-.115-2.083.95a76.008 76.008 0 01-1.825 2.747c-.71 1.025-1.731 1.487-2.952 1.629-4.381.51-8.606-.24-12.757-1.565-1.215-.389-1.548-.935-1.592-2.223-.026-.768-.016-1.544-.136-2.299-.062-.393-.284-.846-.58-1.102-1.554-1.342-3.155-2.628-4.74-3.933l-.25-.184-2.535-2.281.912-4.163 3.57 3.581c.904.973 1.803 1.951 2.719 2.913.114.119.319.223.478.216 3.402-.137 6.76.255 10.104.825l.186.006 2.751.563c2.698.653 5.389 1.342 8.099 1.94.876.194 1.806.209 2.71.202 1.761-.013 3.522-.1 5.284-.156l2.502.207zm-22.698-1.688c-1.841-.106-3.682-.248-5.525-.301-.74-.021-1.158.401-1.246 1.133a69.929 69.929 0 00-.364 3.905c-.083 1.328.047 1.49 1.33 1.924 3.544 1.198 7.201 1.579 10.923 1.517 1.36-.022 2.361-.628 3.042-1.739.563-.917 1.042-1.887 1.51-2.857.407-.844.28-1.228-.624-1.525-1.375-.453-2.787-.795-4.183-1.185l-4.863-.872zm20.501 2.659l-.02.136c-.706 0-1.414-.03-2.118.009-.619.034-1.237.124-1.849.228-.805.137-1.318.611-1.396 1.442-.083.865-.153 1.736-.151 2.604.003 1.512.279 1.846 1.731 2.196 2.071.498 4.175.696 6.302.595.514-.024 1.026-.14 1.535-.237.674-.129 1.158-.487 1.435-1.147.496-1.185 1.056-2.343 1.541-3.531.404-.99.305-1.249-.734-1.421-2.084-.346-4.183-.589-6.276-.874z" />
    <path fill-rule="evenodd" clip-rule="evenodd" fill="#4F4E51" d="M60.322 19.341c-1.831 2.282-4.401 3.514-7.975 3.805l3.409-1.722c-3.081-3.131-5.278-6.575-5.188-11.07.156-2.759 1-5.28 2.602-7.539.154-.217.348-.406.522-.608l.098.046.007.243c-.11.182-.276.351-.321.547-.626 2.735-.617 5.459.278 8.138.97 2.903 2.8 5.184 5.2 7.04.467.362.913.747 1.368 1.12z" />
    <path fill-rule="evenodd" clip-rule="evenodd" fill="#66C2DD" d="M87.909 76.486c.072.082.205.163.205.245.021 2.166.035 4.333.03 6.5-.001.534-.077 1.067-.118 1.601-.458 1.886-.819 3.801-1.397 5.649-.896 2.869-2.38 5.452-4.229 7.822-.168-.065-.35-.109-.504-.2-2.872-1.665-5.74-3.334-8.609-5.003a.616.616 0 01-.283-.287c.41.048.818.101 1.229.143 4.264.439 7.802-1.017 10.584-4.22.617-.71.944-1.698 1.312-2.595 1.263-3.092 1.903-6.305 1.78-9.655z" />
    <path fill-rule="evenodd" clip-rule="evenodd" fill="#EBF7FD" d="M78.653 4.994v4.635c0 .9-.013.896-.853.713-3.08-.668-6.163-1.322-9.244-1.989-.218-.047-.421-.161-.632-.244l.002-.124.125-.125c.891-1.378 1.917-2.639 3.208-3.668l3.532-2.816c-.006.208.031.431-.028.624-.274.881-.576 1.755-.925 2.805 1.712-.638 3.202-1.422 4.816-1.692l-.001 1.881z" />
    <path fill-rule="evenodd" clip-rule="evenodd" fill="#737F84" d="M60.322 19.341c-.455-.373-.901-.758-1.366-1.119-2.399-1.855-4.23-4.137-5.2-7.04-.896-2.679-.905-5.403-.278-8.138.045-.197.211-.366.321-.547l.802 3.114c1.179 3.777 3.409 6.768 6.699 8.972 1.231.824 1.281.861.625 2.208-.436.897-1.062 1.703-1.603 2.55z" />
    <path fill-rule="evenodd" clip-rule="evenodd" fill="#4F4E51" d="M98.204 29.501c.005-.126-.035-.278.021-.375.768-1.328 1.549-2.648 2.327-3.971 1.354-.277 2.73-.473 4.056-.848 2.946-.833 5.552-2.278 7.635-4.575.248-.273.508-.534.763-.8-1.058 3-2.641 5.677-4.941 7.893-2.193 2.113-4.896 2.867-7.873 2.805-.663-.013-1.325-.084-1.988-.129z" />
    <path fill-rule="evenodd" clip-rule="evenodd" fill="#737F84" d="M113.006 18.933c-.255.266-.516.527-.763.8-2.083 2.297-4.688 3.742-7.635 4.575-1.326.375-2.703.571-4.056.848l2.549-3.972c3.606.582 6.773-.525 9.705-2.532l.416-.262-.216.543z" />
    <path fill-rule="evenodd" clip-rule="evenodd" fill="#65C1DD" d="M109.078 92.043l.028-.174.056.016-.065.174-.019-.016zm-32.775 30.963l.232.107-.232-.107z" />
    <path fill-rule="evenodd" clip-rule="evenodd" fill="#B3E0EE" d="M94.992 84.194l.052.029-.052-.029zM83.645 62.616l-.129-.138.129.138z" />
    <path fill-rule="evenodd" clip-rule="evenodd" fill="#737F84" d="M53.693 2.208l.061-.069.037.116-.098-.047z" />
    <path fill-rule="evenodd" clip-rule="evenodd" fill="#B3E0EE" d="M43.479 109.392l-1.997-1.311-.374-.193c-.193-1.68-.35-3.364-.589-5.037-.221-1.546-1.054-2.819-2.027-3.993-1.531-1.849-3.182-3.603-4.146-5.858-.845-1.975-1.431-4.016-1.582-6.158a118.048 118.048 0 01-.246-5.644c-.019-.839.104-1.682.168-2.614l1.467 1.544c.545-3.757 2.358-6.844 4.135-9.956-.509 2.396-1.088 4.779-1.506 7.19-.418 2.414-.794 4.847-.533 7.417-.763-.309-1.097-.957-1.609-1.654-.084 1.928.573 3.498 1.263 5.023.688 1.52 1.557 2.958 2.429 4.585L35.4 92.47c.114.638.515 1.228 1.032 1.672a34.418 34.418 0 002.946 2.269c2.513 1.723 4.087 4.046 4.438 7.075.145 1.254-.013 2.547-.079 3.82-.036.698-.169 1.391-.258 2.086zm-13.345 8.475l.352 1.134c-.261-.25-.565-.47-.773-.758a19.336 19.336 0 01-1.142-1.77c-.343-.605-.626-1.244-.953-1.903l-.378.41c-.188-1.457-.637-2.814-.217-4.238.233 1.664.688 3.246 1.549 4.826l.185-.39.104-.42 1.147 2.854.13.26-.004-.005z" />
    <path fill-rule="evenodd" clip-rule="evenodd" fill="#B4E1EE" d="M24.359 120.056c-1.769-.753-3.389-5.257-2.564-6.837l.861 4.031.421-.287 1.282 3.093z" />
    <path fill-rule="evenodd" clip-rule="evenodd" fill="#B3E0EE" d="M38.46 69.748l-.045.012-.018-.053.045-.012.018.053z" />
    <path fill-rule="evenodd" clip-rule="evenodd" fill="#65C2DD" d="M30.139 117.872l-.13-.26.13.26z" />
    <path fill-rule="evenodd" clip-rule="evenodd" fill="#E9F5FA" d="M68.051 7.86l-.125.125.125-.125z" />
    <path fill-rule="evenodd" clip-rule="evenodd" fill="#4F4E51" d="M54.668 57.42c4.498 0 8.882-.053 13.265.02 2.653.044 5.306.25 7.954.454a4.522 4.522 0 012.596 1.037c-1.074.817-2.082 1.637-3.146 2.373-.505.35-.67.718-.427 1.25.336.733.708 1.449 1.061 2.174l.71 1.487c-.266.05-.403.095-.542.098-3.095.081-6.199.295-9.271-.218-3.41-.569-6.663-1.6-9.443-3.764-1.348-1.048-2.326-2.365-2.666-4.083-.049-.237-.055-.484-.091-.828z" />
    <path fill-rule="evenodd" clip-rule="evenodd" fill="#D3EDF6" d="M68.611 75.482l-1.722-2.788-2.139 3.159c-1.117-1.253-1.486-2.7-2.036-4.186l-1.749 1.948c-.812-1.656-1.305-3.301-1.426-5.246 4.533 1.464 9.04 1.967 13.641 1.682l.051.196c-.528.288-1.033.634-1.588.849-1.025.396-1.369 1.266-1.732 2.178-.297.742-.7 1.441-1.056 2.159l-.244.049z" />
    <path fill-rule="evenodd" clip-rule="evenodd" fill="#66C2DD" d="M72.718 92.754l-.05.015-.015-.063.053.011.012.037z" />
    <path fill-rule="evenodd" clip-rule="evenodd" fill="#D4EDF6" d="M65.142 39.102c-2.521-.889-4.738-.703-6.572 1.367-.144-1.146 1.151-2.617 2.525-2.995 1.638-.451 3.467.238 4.047 1.628zm-6.196 3.308c.034-.805.601-1.234 1.189-1.616 1.351-.877 3.787-.746 4.754.729-.384-.046-.713-.063-1.033-.128-1.646-.334-3.139.118-4.577.872l-.333.143zm24.265-.656c.787-.699 1.984-.849 2.968-.309 1.051.575 1.555 1.337 1.476 2.635-1.106-1.57-2.656-2.159-4.444-2.326z" />
    <path fill-rule="evenodd" clip-rule="evenodd" fill="#CDEBF4" d="M86.362 46.742c-1.609-1.942-2.275-2.001-4.159-2.52.628-.598 1.377-.719 2.117-.507 1.439.413 1.891 1.581 2.042 3.027z" />
    <path fill-rule="evenodd" clip-rule="evenodd" fill="#D4EDF6" d="M58.947 42.411l-.029.052.029-.052z" />
    <path fill-rule="evenodd" clip-rule="evenodd" fill="#EBF7FE" d="M107.339 73.59l-.025.051.029-.048-.004-.003zm-3.362 3.748l-.058.05.051-.058.007.008z" />
    <path fill-rule="evenodd" clip-rule="evenodd" fill="#D3EDF6" d="M32.648 119.725l.035.18-.086-.137.051-.043z" />
    <path fill-rule="evenodd" clip-rule="evenodd" fill="#E8F4F8" d="M64.446 46.365c1.396.39 2.808.732 4.183 1.185.904.297 1.031.681.624 1.525-.467.97-.947 1.94-1.51 2.857-.682 1.111-1.682 1.717-3.042 1.739-3.723.062-7.379-.319-10.923-1.517-1.283-.434-1.413-.596-1.33-1.924.082-1.304.209-2.607.364-3.905.088-.732.505-1.155 1.246-1.133 1.843.054 3.684.195 5.525.301l-.507 1.587a5.76 5.76 0 00-.234 3.587c.325 1.294 1.449 1.981 2.621 1.671 1.066-.282 2.234-1.679 2.345-2.806.549-.986.62-2.071.638-3.167z" />
    <path fill-rule="evenodd" clip-rule="evenodd" fill="#ECF5F9" d="M80.083 48.152c2.093.285 4.192.527 6.274.873 1.039.172 1.138.431.734 1.421-.485 1.188-1.045 2.346-1.541 3.531-.276.661-.76 1.019-1.435 1.147-.508.097-1.021.213-1.535.237a22.314 22.314 0 01-6.302-.595c-1.452-.35-1.729-.684-1.731-2.196-.002-.869.069-1.739.151-2.604.079-.831.591-1.305 1.396-1.442.612-.104 1.23-.194 1.849-.228.704-.039 1.412-.009 2.118-.009l.022-.135zm2.777 2.611c-.104.22-.152.375-.241.5-.391.557-.72 1.184-1.207 1.641-1.049.983-2.355.69-2.946-.62-.235-.523-.357-1.098-.537-1.666-.135 1.502.011 2.559.45 3.298.442.744 1.062 1.032 1.884.875 1.464-.279 2.711-2.161 2.597-4.028zm-4.101-.284l-.12.114c.247.311.434.758.755.897.447.194.733-.244.942-.611a1.63 1.63 0 00.182-.522c.102-.597-.168-1.217-.557-1.322-.425-.114-.932.319-1.111.96l-.091.484z" />
    <path fill-rule="evenodd" clip-rule="evenodd" fill="#778287" d="M59.075 47.081c.049.721.027 1.455.165 2.158.166.84.587 1.557 1.504 1.81.918.254 1.665-.087 2.314-.708.265-.253.5-.537.749-.807-.111 1.127-1.279 2.524-2.345 2.806-1.172.31-2.296-.377-2.621-1.671a5.755 5.755 0 01.234-3.588zm23.785 3.682c.114 1.867-1.133 3.749-2.596 4.027-.822.157-1.441-.131-1.884-.875-.439-.739-.585-1.796-.45-3.298.179.568.301 1.143.537 1.666.591 1.31 1.897 1.604 2.946.62.487-.457.816-1.084 1.207-1.641.088-.124.136-.279.24-.499z" />
    <path fill-rule="evenodd" clip-rule="evenodd" fill="#1C1C1C" d="M78.759 50.479l.091-.483c.18-.641.687-1.074 1.111-.96.388.105.659.725.557 1.322a1.63 1.63 0 01-.182.522c-.208.367-.495.805-.942.611-.321-.139-.509-.587-.755-.897l.12-.115zm-18.85-2.388c.027-.694.492-1.273 1.023-1.277.446-.003.817.536.791 1.149-.03.684-.561 1.321-1.087 1.301-.472-.018-.755-.473-.727-1.173z" />
</svg>