<?xml version="1.0" encoding="utf-8"?>
<!-- Generator: Adobe Illustrator 24.3.0, SVG Export Plug-In . SVG Version: 6.00 Build 0)  -->
<svg version="1.1" id="Layer_1" xmlns:sketch="http://www.bohemiancoding.com/sketch/ns"
	 xmlns="http://www.w3.org/2000/svg" xmlns:xlink="http://www.w3.org/1999/xlink" x="0px" y="0px" viewBox="0 0 48 48"
	 style="enable-background:new 0 0 48 48;" xml:space="preserve">
<style type="text/css">
	.st0{fill-rule:evenodd;clip-rule:evenodd;fill:#DA4648;}
</style>
<desc>Created with Sketch.</desc>
<g id="gulp" sketch:type="MSArtboardGroup">
	<g id="Gulp-Logo" transform="translate(0.000000, 1.000000)" sketch:type="MSLayerGroup">
		<path id="Cup" sketch:type="MSShapeGroup" class="st0" d="M23.9,36.9c-2.8,0-5-0.4-6-0.7c-0.7-0.2-1.3-0.4-1.7-0.5l1.4,2.4
			l0.5,7.4c0,0.8,2.6,1.5,5.9,1.5s5.9-0.7,5.9-1.5l0.4-7.5l1.3-2.3c-0.4,0.2-1,0.4-1.7,0.5C28.9,36.4,26.7,36.9,23.9,36.9z
			 M31.7,12.7c-2.1,0.3-4.8,0.4-7.7,0.4s-5.6-0.2-7.7-0.4c-1-0.1-1.8-0.3-2.4-0.5c-0.1,0-0.4-0.1-0.6-0.2l1.3,11.8
			c0.1-0.2,0.1-0.4,0.2-0.6c0.2-0.4,0.3-0.8,0.5-1.2c0.2-0.4,0.4-0.8,0.6-1.1c0.2-0.4,0.5-0.7,0.7-1c0.3-0.3,0.5-0.5,0.8-0.8
			c0.3-0.2,0.6-0.4,0.8-0.5c0.3-0.1,0.6-0.2,0.8-0.2c0.3,0,0.6,0.1,0.9,0.3c0.3,0.2,0.6,0.5,0.8,0.8c0.1,0.1,0.1,0.2,0.1,0.3
			c0,0.1,0,0.2,0,0.3c0,0.2,0,0.3-0.1,0.4c-0.1,0.1-0.2,0.2-0.3,0.2c-0.1,0-0.2-0.1-0.3-0.2c-0.1-0.1-0.2-0.3-0.3-0.5
			c-0.1-0.2-0.2-0.3-0.4-0.4c-0.1-0.1-0.3-0.1-0.4-0.1c-0.2,0-0.5,0.1-0.8,0.3c-0.3,0.2-0.6,0.5-0.8,0.8c-0.3,0.3-0.5,0.7-0.8,1.1
			c-0.2,0.4-0.5,0.9-0.7,1.3c-0.2,0.4-0.3,0.9-0.5,1.3c-0.1,0.4-0.2,0.8-0.2,1.2c0,0.1,0,0.2,0,0.4c0,0.1,0,0.2,0.1,0.3
			c0,0.1,0.1,0.2,0.2,0.2c0.1,0.1,0.2,0.1,0.3,0.1c0.1,0,0.3,0,0.4-0.1c0.2-0.1,0.3-0.2,0.5-0.3c0.2-0.1,0.4-0.3,0.5-0.5
			c0.2-0.2,0.3-0.4,0.5-0.5c0.2-0.2,0.3-0.4,0.4-0.5c0.1-0.2,0.2-0.3,0.3-0.4l0.5-1.5c0.1-0.2,0.1-0.3,0.2-0.3
			c0.1-0.1,0.2-0.1,0.3-0.1c0,0,0.1,0,0.1,0c0,0,0.1,0,0.1,0.1c0,0,0.1,0.1,0.1,0.1c0,0.1,0,0.1,0,0.2c0,0.2,0,0.4-0.1,0.6
			c0,0.2-0.1,0.3-0.1,0.5c-0.1,0.2-0.1,0.3-0.2,0.5c-0.1,0.2-0.1,0.3-0.2,0.5c0,0,0,0.1-0.1,0.2c0,0.1-0.1,0.2-0.1,0.4
			c-0.1,0.2-0.1,0.4-0.2,0.6c-0.1,0.2-0.1,0.4-0.2,0.6c-0.1,0.2-0.1,0.4-0.2,0.6c-0.1,0.2-0.1,0.4-0.2,0.6c0,0.2-0.1,0.3-0.1,0.4
			c0,0.1-0.1,0.2-0.1,0.2c0,0.1,0,0.1-0.1,0.2c0,0.1-0.1,0.2-0.1,0.2c-0.1,0.1-0.1,0.1-0.2,0.2c-0.1,0-0.1,0.1-0.2,0.1
			c-0.1,0-0.2,0-0.2-0.1c-0.1-0.1-0.1-0.2-0.1-0.4v-0.1c0,0,0-0.1,0-0.1c0-0.1,0-0.2,0.1-0.4c0-0.2,0.1-0.4,0.2-0.6
			c0.1-0.2,0.1-0.5,0.2-0.7c0.1-0.2,0.1-0.5,0.2-0.7c-0.2,0.2-0.4,0.4-0.6,0.6c-0.2,0.2-0.4,0.4-0.7,0.6c-0.2,0.2-0.5,0.3-0.7,0.4
			c-0.2,0.1-0.5,0.2-0.7,0.2c-0.2,0-0.5-0.1-0.6-0.2c0,0-0.1,0-0.1-0.1l0.7,7.5c0.2,0.5,3.7,1.6,8.3,1.6c4.6,0,8.1-1.1,8.3-1.6
			l1-8.9c-0.1,0.1-0.2,0.2-0.2,0.2c-0.3,0.3-0.6,0.5-0.8,0.7c-0.3,0.2-0.5,0.3-0.8,0.5c-0.2,0.1-0.5,0.2-0.8,0.2
			c-0.3,0-0.5-0.1-0.6-0.2c-0.1-0.1-0.2-0.3-0.2-0.5v0c0,0,0,0,0-0.1c0-0.1,0.1-0.3,0.2-0.4c0.1-0.2,0.2-0.3,0.3-0.5
			c0.1-0.2,0.3-0.3,0.4-0.5c0.2-0.2,0.3-0.3,0.4-0.5c0.1-0.2,0.2-0.3,0.3-0.4c0.1-0.1,0.1-0.2,0.1-0.3c0,0,0-0.1-0.1-0.1
			c0,0-0.1,0-0.2,0c-0.1,0-0.3,0-0.4,0.1c-0.1,0.1-0.3,0.2-0.4,0.3c-0.1,0.1-0.3,0.3-0.4,0.4c-0.1,0.2-0.3,0.3-0.4,0.5
			c-0.1,0.2-0.2,0.3-0.3,0.5c-0.1,0.2-0.2,0.3-0.3,0.5c0,0-0.1,0.1-0.1,0.2c0,0.1-0.1,0.2-0.1,0.3c0,0.1-0.1,0.2-0.1,0.3
			c-0.1,0.1-0.1,0.2-0.1,0.3c0,0.1-0.1,0.2-0.1,0.3c0,0.1-0.1,0.1-0.1,0.2c0,0,0,0.1-0.1,0.2c0,0.1-0.1,0.2-0.1,0.4
			c-0.1,0.1-0.1,0.3-0.2,0.4c-0.1,0.2-0.1,0.3-0.2,0.4c-0.1,0.1-0.1,0.3-0.1,0.4c0,0.1-0.1,0.2-0.1,0.2c0,0.1-0.1,0.2-0.1,0.3
			c0,0.1-0.1,0.2-0.2,0.3c-0.1,0.1-0.1,0.1-0.2,0.2c-0.1,0-0.2,0.1-0.3,0.1c-0.1,0-0.2,0-0.3-0.1c-0.1-0.1-0.1-0.2-0.1-0.3
			c0-0.1,0-0.2,0-0.3c0-0.1,0-0.2,0.1-0.3c0-0.1,0.1-0.2,0.1-0.2c0-0.1,0.1-0.2,0.1-0.2c0.2-0.4,0.4-0.8,0.6-1.2
			c0.2-0.4,0.4-0.8,0.6-1.2c0-0.1,0.1-0.2,0.1-0.3c0,0,0,0,0,0c-0.2,0.2-0.5,0.4-0.7,0.6c-0.2,0.2-0.4,0.3-0.7,0.4
			c-0.2,0.1-0.4,0.1-0.6,0.1c-0.1,0-0.3,0-0.4-0.1c-0.1,0-0.2-0.1-0.2-0.2c-0.1-0.1-0.1-0.2-0.1-0.3c0,0,0-0.1,0-0.1
			c-0.1,0-0.1,0.1-0.2,0.1c-0.2,0.2-0.4,0.3-0.6,0.4c-0.2,0.1-0.4,0.1-0.6,0.1c-0.2,0-0.3-0.1-0.4-0.2c-0.1-0.1-0.2-0.3-0.2-0.6
			c0-0.2,0-0.4,0.1-0.7c-0.1,0.2-0.2,0.3-0.3,0.5c-0.1,0.2-0.3,0.3-0.5,0.5c-0.2,0.1-0.4,0.2-0.6,0.3c-0.2,0.1-0.5,0.1-0.7,0.1
			c-0.1,0-0.2,0-0.3,0c-0.1,0-0.2-0.1-0.3-0.1c-0.1-0.1-0.1-0.2-0.2-0.3c0-0.1-0.1-0.3-0.1-0.4c0,0,0-0.1,0-0.2
			c0-0.1,0.1-0.3,0.1-0.6c0.1-0.3,0.2-0.6,0.3-1c0.2-0.4,0.4-0.9,0.7-1.5c0.1-0.2,0.2-0.3,0.3-0.3c0.1-0.1,0.2-0.1,0.3-0.1
			c0,0,0.1,0,0.2,0c0.1,0,0.1,0,0.1,0.1c0,0,0.1,0.1,0.1,0.1c0,0,0,0.1,0,0.2c0,0,0,0.1,0,0.1c0,0.1-0.1,0.2-0.1,0.3
			c-0.1,0.1-0.1,0.2-0.2,0.4c-0.1,0.1-0.2,0.3-0.2,0.5c-0.1,0.2-0.2,0.3-0.2,0.5s-0.1,0.4-0.2,0.6c-0.1,0.2-0.1,0.4-0.1,0.5
			c0,0.1,0,0.1,0.1,0.2c0,0.1,0.1,0.1,0.2,0.1c0.2,0,0.4-0.1,0.6-0.2c0.2-0.1,0.4-0.3,0.6-0.6c0.2-0.2,0.3-0.5,0.5-0.7
			c0.1-0.3,0.3-0.5,0.4-0.7c0.1-0.1,0.1-0.3,0.2-0.5c0.1-0.2,0.1-0.3,0.2-0.4c0.1-0.1,0.1-0.2,0.2-0.3c0.1-0.1,0.2-0.1,0.3-0.1
			c0.1,0,0.2,0,0.3,0.1c0.1,0.1,0.1,0.2,0.1,0.3c0,0.1,0,0.2-0.1,0.3c0,0.1-0.1,0.3-0.2,0.4c-0.1,0.2-0.1,0.3-0.2,0.5
			c-0.1,0.2-0.2,0.4-0.2,0.6c-0.1,0.2-0.1,0.4-0.2,0.6c0,0.2-0.1,0.4-0.1,0.5c0,0.1,0.1,0.2,0.2,0.2c0.1,0,0.2,0,0.4-0.1
			c0.2-0.1,0.3-0.2,0.5-0.3c0,0,0.1-0.1,0.1-0.1c0-0.2,0.1-0.4,0.2-0.6c0.1-0.3,0.2-0.6,0.4-1c0.1-0.3,0.2-0.6,0.3-0.9l1.6-4
			c0.1-0.2,0.1-0.3,0.3-0.3c0.1-0.1,0.2-0.1,0.3-0.1c0.1,0,0.2,0,0.3,0.1c0.1,0.1,0.1,0.2,0.1,0.3c0,0.1,0,0.2,0,0.2
			c0,0.1-0.1,0.2-0.1,0.3c-0.1,0.2-0.2,0.4-0.3,0.7c-0.1,0.3-0.2,0.6-0.4,0.9c-0.1,0.3-0.3,0.7-0.4,1c-0.1,0.4-0.3,0.7-0.4,1
			c-0.1,0.3-0.3,0.7-0.4,1c-0.1,0.3-0.2,0.6-0.3,0.8c0,0.1-0.1,0.2-0.1,0.3c0,0.1-0.1,0.2-0.1,0.3c0,0.1,0,0.1,0,0.1
			c0,0,0.1,0.1,0.1,0.1c0.1,0,0.2,0,0.3-0.1c0.1-0.1,0.2-0.1,0.4-0.2c0.1-0.1,0.3-0.2,0.4-0.3c0.1-0.1,0.3-0.2,0.4-0.3
			c0.1-0.1,0.3-0.2,0.4-0.4c0.1-0.1,0.2-0.2,0.3-0.3c0,0,0.1,0,0.1-0.1c0.1-0.2,0.1-0.3,0.2-0.5c0-0.1,0.1-0.2,0.1-0.3
			c0-0.1,0.1-0.3,0.2-0.4c0.1-0.1,0.1-0.2,0.2-0.3c0.1-0.1,0.2-0.1,0.3-0.1c0.1,0,0.2,0,0.3,0.1c0.1,0.1,0.1,0.2,0.1,0.3
			c0,0,0,0.1,0,0.1c0,0.1,0,0.1,0,0.2c0,0.1,0,0.1,0,0.2c0,0.1,0,0.1,0,0.1c0.1-0.1,0.3-0.3,0.4-0.4c0.1-0.1,0.3-0.3,0.5-0.4
			c0.2-0.1,0.3-0.2,0.5-0.3c0.2-0.1,0.3-0.1,0.5-0.1c0.1,0,0.2,0,0.3,0c0.1,0,0.2,0.1,0.3,0.1c0.1,0.1,0.2,0.1,0.2,0.2
			c0.1,0.1,0.1,0.2,0.1,0.3c0,0.2,0,0.4-0.1,0.5c-0.1,0.2-0.2,0.4-0.3,0.6c-0.1,0.2-0.3,0.4-0.4,0.6c-0.1,0.2-0.3,0.4-0.4,0.5
			C31.2,25.9,31,26,31,26.1c-0.1,0.1-0.1,0.2-0.1,0.2c0,0,0,0.1,0,0.1c0,0,0.1,0,0.2,0c0.1,0,0.1,0,0.3-0.1c0.1-0.1,0.3-0.2,0.5-0.3
			c0.2-0.2,0.5-0.4,0.8-0.7c0.2-0.2,0.5-0.4,0.8-0.7l1.4-12.8c-0.2,0.1-0.5,0.2-0.6,0.2C33.5,12.4,32.7,12.5,31.7,12.7z M24,9.6
			c-6,0-10.8,0.7-10.8,1.5c0,0.8,4.8,1.5,10.8,1.5s10.8-0.7,10.8-1.5C34.8,10.3,30,9.6,24,9.6z M28.3,11.6c0,0.2-0.6,0.4-1.3,0.4
			c-0.7,0-1.3-0.2-1.3-0.4c0-0.2,0.6-0.4,1.3-0.4C27.7,11.2,28.3,11.4,28.3,11.6z"/>
		<path id="Straw" sketch:type="MSShapeGroup" class="st0" d="M26,11.4C26,11.4,26,11.4,26,11.4c0,0.2,0.5,0.3,1,0.3
			c0.6,0,1-0.1,1-0.2L29.4,6l5.4-5.7c0,0,0,0,0,0c0.1-0.1-0.1-0.5-0.5-0.9c-0.4-0.3-0.8-0.5-0.9-0.3c0,0,0,0,0,0l-5.7,6L26,11.4z"/>
	</g>
</g>
</svg>
