<svg xmlns="http://www.w3.org/2000/svg" xmlns:xlink="http://www.w3.org/1999/xlink" id="Layer_1" x="0" y="0" version="1.1" viewBox="0 0 48 48" xml:space="preserve" style="enable-background:new 0 0 48 48"><style type="text/css">.st0{fill:#e65100}.st1{fill:#ff6d00}.st2{fill:#fff}.st3{fill:#eee}</style><path d="M45.5,0H2.5l3.8,42.9L24,48l17.7-5.1L45.5,0L45.5,0z" class="st0"/><path d="M24,3.8v40.3l14.1-4l3.2-36.3H24z" class="st1"/><path d="M24,25.3v-5.1h10.9L34,34.7L24,38v-5.3l5.2-1.8l0.4-5.7C29.6,25.3,24,25.3,24,25.3z M35.2,15.2l0.4-5.1H24v5.1	H35.2z" class="st2"/><path d="M24,32.7V38l-10-3.3l-0.5-6.9h5.1l0.3,3.2L24,32.7z M17.8,15.2H24v-5.1H12.5l0.9,15.2H24v-5.1h-5.8L17.8,15.2z" class="st3"/></svg>