<?xml version="1.0" encoding="utf-8"?>
<!-- Generator: Adobe Illustrator 24.3.0, SVG Export Plug-In . SVG Version: 6.00 Build 0)  -->
<svg version="1.1"
	 id="Layer_1" xmlns:cc="http://creativecommons.org/ns#" xmlns:dc="http://purl.org/dc/elements/1.1/" xmlns:rdf="http://www.w3.org/1999/02/22-rdf-syntax-ns#"
	 xmlns="http://www.w3.org/2000/svg" xmlns:xlink="http://www.w3.org/1999/xlink" x="0px" y="0px" viewBox="0 0 48 48"
	 style="enable-background:new 0 0 48 48;" xml:space="preserve">
<style type="text/css">
	.st0{enable-background:new    ;}
	.st1{clip-path:url(#SVGID_2_);}
	.st2{fill:none;}
	.st3{clip-path:url(#SVGID_4_);}
	.st4{fill:#EB7077;}
	.st5{fill:#F6A2AD;}
	.st6{clip-path:url(#SVGID_6_);}
	.st7{clip-path:url(#SVGID_8_);}
</style>
<g class="st0">
	<g class="st0">
		<g>
			<g>
				<g>
					<defs>
						<polygon id="SVGID_3_" points="-161.3,36.1 -161.3,24 -161.3,11.8 232.3,11.8 232.3,24 232.3,36.1 						"/>
					</defs>
					<clipPath id="SVGID_2_">
						<use xlink:href="#SVGID_3_"  style="overflow:visible;"/>
					</clipPath>
					<g class="st1">
						<path class="st4" d="M41,24.9h7c-2.5,0.8-3.2,2.5-3.7,7.1c-0.3,3.3-1.8,4.2-1.8,4.2c-1.1,0-2.2-4.8-3.2-9.9
							C39.7,25.4,40.2,25,41,24.9z"/>
						<path class="st4" d="M42.5,36.1h-7c1.3,0,2.1-2.4,2.6-5.4c0.3-2,0.7-3.5,1.2-4.5C40.3,31.4,41.4,36.1,42.5,36.1z"/>
						<path class="st5" d="M39.3,26.3c-0.5,0.9-0.9,2.5-1.2,4.5c-0.5,3-1.4,5.4-2.6,5.4c-1.3-0.3-2.4-5.4-3.8-13.2
							c0-0.3-0.1-0.5-0.1-0.7c1.1-5.6,2.2-10.4,3.3-10.4h0.4c1.3,0.3,2.4,5.4,3.8,13.2C39.2,25.4,39.2,25.8,39.3,26.3z"/>
						<g>
							<path class="st4" d="M28.2,11.9h6.6c-1.1,0-2.3,4.8-3.3,10.4C30.5,17,29.4,11.9,28.2,11.9z"/>
							<path class="st4" d="M31.5,22.3c-0.1,0.6-0.2,1.1-0.3,1.7c-1.6,8.7-2.5,11.9-3.7,12.2c-1.3,0-2.5-5.6-3.4-11.2
								c0-0.1,0-0.2,0-0.3c0-0.3,0.1-0.5,0.1-0.7c1.6-8.8,2.5-11.9,3.6-12.2h0.4C29.4,11.9,30.5,17,31.5,22.3z"/>
							<path class="st4" d="M27.6,36.1h-7c1.2,0,2.4-5.4,3.5-11.4c0,0.1,0,0.2,0,0.3C25.1,30.5,26.3,36.1,27.6,36.1z"/>
						</g>
						<path class="st5" d="M24.1,24.8c-1.1,6-2.3,11.4-3.5,11.4c-1.4-0.3-2.4-5.4-3.9-13.2c0-0.3-0.1-0.5-0.1-0.7
							c1.1-5.6,2.2-10.4,3.3-10.4h0.4C21.6,12.2,22.6,17.2,24.1,24.8z"/>
						<g>
							<path class="st4" d="M13.2,11.9h6.6c-1.1,0-2.2,4.8-3.3,10.4C15.6,17,14.4,11.9,13.2,11.9z"/>
							<path class="st4" d="M16.6,22.3c-0.1,0.6-0.2,1.1-0.3,1.7c-1.6,8.7-2.5,11.9-3.7,12.2c-1.3,0-0.8-0.2-1.6-3.7
								s-1.4-5.6-2.2-6.6C9,25.2,9.1,24.6,9.2,24c1.6-8.8,2.6-11.9,3.7-12.2h0.4C14.4,11.9,15.6,17,16.6,22.3z"/>
							<path class="st4" d="M12.6,36.1h-7c1.1,0,2.2-4.8,3.3-10.3c0.8,1.1,1.4,3.1,2.2,6.6C11.9,35.9,11.3,36.1,12.6,36.1z"/>
						</g>
						<path class="st5" d="M8.9,25.8c-1.1,5.6-2.2,10.3-3.3,10.3c-0.1-0.2-0.9,0-1.6-4.3c-0.6-4-1.8-6.5-3.7-6.9h7
							C7.9,24.9,8.4,25.2,8.9,25.8z"/>
					</g>
				</g>
			</g>
		</g>
	</g>
</g>
<g class="st0">
	<g class="st0">
		<g>
			<g>
				<g>
					<defs>
						<polygon id="SVGID_7_" points="-161.3,36.1 -161.3,24 -161.3,11.8 232.3,11.8 232.3,24 232.3,36.1 						"/>
					</defs>
					<clipPath id="SVGID_4_">
						<use xlink:href="#SVGID_7_"  style="overflow:visible;"/>
					</clipPath>
					<g class="st3">
						<path class="st4" d="M41,24.9h7c-2.5,0.8-3.2,2.5-3.7,7.1c-0.3,3.3-1.8,4.2-1.8,4.2c-1.1,0-2.2-4.8-3.2-9.9
							C39.7,25.4,40.2,25,41,24.9z"/>
						<path class="st4" d="M42.5,36.1h-7c1.3,0,2.1-2.4,2.6-5.4c0.3-2,0.7-3.5,1.2-4.5C40.3,31.4,41.4,36.1,42.5,36.1z"/>
						<path class="st5" d="M39.3,26.3c-0.5,0.9-0.9,2.5-1.2,4.5c-0.5,3-1.4,5.4-2.6,5.4c-1.3-0.3-2.4-5.4-3.8-13.2
							c0-0.3-0.1-0.5-0.1-0.7c1.1-5.6,2.2-10.4,3.3-10.4h0.4c1.3,0.3,2.4,5.4,3.8,13.2C39.2,25.4,39.2,25.8,39.3,26.3z"/>
						<g>
							<path class="st4" d="M28.2,11.9h6.6c-1.1,0-2.3,4.8-3.3,10.4C30.5,17,29.4,11.9,28.2,11.9z"/>
							<path class="st4" d="M31.5,22.3c-0.1,0.6-0.2,1.1-0.3,1.7c-1.6,8.7-2.5,11.9-3.7,12.2c-1.3,0-2.5-5.6-3.4-11.2
								c0-0.1,0-0.2,0-0.3c0-0.3,0.1-0.5,0.1-0.7c1.6-8.8,2.5-11.9,3.6-12.2h0.4C29.4,11.9,30.5,17,31.5,22.3z"/>
							<path class="st4" d="M27.6,36.1h-7c1.2,0,2.4-5.4,3.5-11.4c0,0.1,0,0.2,0,0.3C25.1,30.5,26.3,36.1,27.6,36.1z"/>
						</g>
						<path class="st5" d="M24.1,24.8c-1.1,6-2.3,11.4-3.5,11.4c-1.3-0.3-2.4-5.4-3.8-13.2c0-0.3-0.1-0.5-0.1-0.7
							c1-5.6,2.2-10.4,3.3-10.4h0.4C21.6,12.2,22.6,17.1,24.1,24.8z"/>
						<g>
							<path class="st4" d="M13.2,11.9h6.6c-1.1,0-2.2,4.8-3.3,10.4C15.6,17,14.4,11.9,13.2,11.9z"/>
							<path class="st4" d="M16.6,22.3c-0.1,0.6-0.2,1.1-0.3,1.7c-1.6,8.7-2.5,11.9-3.7,12.2c-1.3,0-0.8-0.2-1.6-3.7
								s-1.4-5.6-2.2-6.6C9,25.2,9.1,24.6,9.2,24c1.6-8.8,2.6-11.9,3.7-12.2h0.4C14.4,11.9,15.6,17,16.6,22.3z"/>
							<path class="st4" d="M12.6,36.1h-7c1.1,0,2.2-4.8,3.3-10.3c0.8,1.1,1.4,3.1,2.2,6.6C11.9,35.9,11.3,36.1,12.6,36.1z"/>
						</g>
						<path class="st5" d="M8.9,25.8c-1.1,5.6-2.2,10.3-3.3,10.3c-0.1-0.2-0.9,0-1.6-4.3c-0.6-4-1.8-6.5-3.7-6.9h7
							C7.9,24.9,8.4,25.2,8.9,25.8z"/>
					</g>
				</g>
			</g>
		</g>
	</g>
</g>
</svg>
