<?xml version="1.0" encoding="utf-8"?>
<!-- Generator: Adobe Illustrator 24.3.0, SVG Export Plug-In . SVG Version: 6.00 Build 0)  -->
<svg version="1.1" id="Layer_1" xmlns="http://www.w3.org/2000/svg" xmlns:xlink="http://www.w3.org/1999/xlink" x="0px" y="0px"
	 viewBox="0 0 128 128" style="enable-background:new 0 0 128 128;" xml:space="preserve">
<style type="text/css">
	.st0{fill:#DF5052;}
</style>
<g>
	<path class="st0" d="M122,65.3c1.3,0,2.2-0.9,2.2-2.2c0-0.4,0-0.9-0.4-1.3L94.8,35.1L120.2,64C120.7,64.9,121.1,65.3,122,65.3z
		 M128.1,80.2L65,22.8l57.4,62.7c0.9,0.4,1.8,0.9,2.6,0.9c2.2,0,3.5-1.8,3.5-3.5C129,81.5,128.6,80.7,128.1,80.2z M100.5,118.8
		L9.8,35.1l83.7,91.2c0.9,0.9,2.2,1.8,3.9,1.8c2.6,0,5.3-2.2,5.3-5.3C102.3,121.4,101.4,119.7,100.5,118.8z M-0.7,0l110.9,118.4
		c0.9,0.9,2.2,1.3,3.5,1.3c2.6,0,5.3-2.2,5.3-5.3c0-0.9-0.4-2.2-0.9-3.1C117.6,111.3-0.7,0-0.7,0z M125.5,95.6L34.8,11.8l83.7,91.2
		c0.9,0.9,2.2,1.8,3.9,1.8c2.6,0,5.3-2.2,5.3-5.3C127.3,98.2,126.4,96.4,125.5,95.6z M81.7,121.4C81.7,121,81.2,121,81.7,121.4
		L18.5,64L76,126.7c0.9,0.4,1.8,0.9,2.6,0.9c2.2,0,3.5-1.8,3.5-3.5C82.5,122.7,82.1,121.9,81.7,121.4z M33.4,92.5l25.4,28.9
		c0.4,0.4,0.9,1.3,1.8,1.3c1.3,0,2.2-0.9,2.2-2.2c0-0.4,0-0.9-0.4-1.3C61.9,118.8,33.4,92.5,33.4,92.5z"/>
</g>
</svg>
