<?xml version="1.0" encoding="utf-8"?>
<!-- Generator: Adobe Illustrator 24.3.0, SVG Export Plug-In . SVG Version: 6.00 Build 0)  -->
<svg version="1.1" id="Layer_1" xmlns="http://www.w3.org/2000/svg" xmlns:xlink="http://www.w3.org/1999/xlink" x="0px" y="0px"
	 viewBox="0 0 48 48" style="enable-background:new 0 0 48 48;" xml:space="preserve">
<style type="text/css">
	.st0{fill:#EFCCA3;}
	.st1{fill:#CCAC8D;}
	.st2{fill:#FFFFFF;}
	.st3{fill:#56332B;}
	.st4{fill:#442823;}
	.st5{fill:#7F4A41;}
	.st6{fill:#331712;}
</style>
<path class="st0" d="M40.3,19.1c-0.1-1.7,0.2-3.1-0.6-4.3c-1.8-3.1-6.3-4.9-15.3-4.9v0.3h-0.2h0.2V9.9c-9,0-13.7,1.8-15.5,4.9
	c-0.7,1.3-0.6,2.7-0.8,4.3c-0.1,1.3-0.7,2.7-0.4,4.2c0.3,2,0.4,3.9,0.7,5.7c0.2,1.5,2.2,2.7,2.4,4.1c0.5,3.8,4.5,5.6,13.5,5.6V39
	h-0.2h0.3v-0.3c9,0,12.8-1.8,13.3-5.6c0.2-1.4,2.1-2.6,2.3-4.1c0.3-1.8,0.4-3.8,0.7-5.7C40.9,21.8,40.3,20.4,40.3,19.1z"/>
<path class="st1" d="M24.2,20.4c1.6,0,2.7,1.1,3.8,2c1.2,1.1,3.3,1.8,4.2,2.8s2,1.9,2.4,3.3c0.4,1.5,0.5,3.3,0.5,3.8s0.3,0.4,1,0
	c1.8-0.9,3.7-3.2,3.7-3.2c-0.2,1.5-2.1,2.8-2.3,4.2c-0.4,3.8-4.2,5.7-13.3,5.7h0h0.2"/>
<path class="st1" d="M30.2,17.5c0.3,1.2,1.5,5.1-0.8,3.8c0,0,1,0.6,1.6,2.7c0.6,2.1,2.2,2.4,2.2,2.4s2.5,0.5,4.4-1.1
	c1.6-1.4,1.8-3.8,1.2-5.6c-0.7-1.8-1.9-2.4-3.6-2.7C33.3,16.5,29.7,16.2,30.2,17.5z"/>
<circle cx="34.6" cy="21.8" r="3.3"/>
<circle class="st2" cx="33.8" cy="20.3" r="0.9"/>
<path class="st0" d="M29.6,21.6c0,0,3,2,4.6,4c1.6,2,1.6,2.4,1.6,2.4l-1.2,0.5c0,0-1.6-3.1-3.7-4.3c-2.1-1.2-2.3-2.1-2.3-2.1
	S29.6,21.6,29.6,21.6z"/>
<path class="st1" d="M24.3,20.4c-1.6,0-2.8,1.1-3.9,2c-1.2,1.1-3.4,1.8-4.3,2.8c-0.9,0.9-2,1.9-2.4,3.3c-0.4,1.5-0.6,3.3-0.6,3.8
	s0.1,0.5-1,0c-1.8-0.8-3.7-3.2-3.7-3.2c0.2,1.5,2.1,2.8,2.3,4.2C11.3,37.2,15,39,24.2,39h0.2"/>
<path class="st3" d="M33,26.8c-1.8-2.2-4.7-4.3-8.7-4.3h0c-4,0-6.9,2.1-8.7,4.3c-1.9,2.3-1.7,3.2-1.7,5.4c0,7.9,2.8,5.6,4.6,6.6
	c1.9,0.9,3.8,0.6,5.8,0.6h0c2,0,3.9,0.3,5.8-0.7c1.8-0.9,4.6,1.4,4.6-6.5C34.8,30,34.9,29.1,33,26.8z"/>
<path class="st4" d="M24.2,24.4c0,0-0.3,3.6-0.8,4.4l1-0.2L24.2,24.4z"/>
<path class="st4" d="M24.4,24.4c0,0,0.3,3.6,0.8,4.4l-1-0.2L24.4,24.4z"/>
<path class="st3" d="M21.3,23.6c-0.4-0.9,1-2.2,3.1-2.3c2.1,0,3.5,1.4,3.1,2.3s-1.7,1.2-3.1,1.2C23,24.7,21.6,24.5,21.3,23.6z"/>
<path d="M24.4,24.4c0-0.1,1.3-0.2,1.9-0.6c0,0-1.4,0.4-1.7,0.3c-0.3-0.1-0.4-0.6-0.4-0.6s-0.1,0.5-0.3,0.6c-0.3,0.2-1.8-0.3-1.8-0.3
	s2.1,0.5,2.1,0.6s0,0.5,0,0.8c0,0.9,0,3.3,0.2,3.4c0.2,0.3,0.1-2.5,0.1-3.4C24.4,24.9,24.4,24.6,24.4,24.4z"/>
<path class="st5" d="M24.4,29.5c0.6,0,1.8,0.4,2.8,1.2c-1-1.1-2.1-1.8-2.8-1.8c-0.7,0-2.1,0.8-3.1,2C22.4,30,23.7,29.5,24.4,29.5z"
	/>
<path class="st4" d="M24.2,36.1c-1.4,0-2.8-0.5-4.1-0.8c-0.3-0.1-0.5,0.1-0.8,0c-2.4-0.8-4.3-2-5.4-3.6v0.4c0,7.9,2.8,5.7,4.6,6.6
	c1.9,0.9,3.8,0.6,5.8,0.6h0c2,0,3.9,0.3,5.8-0.7c1.8-0.9,4.6,1.4,4.6-6.5c0-0.3,0-0.6,0-0.9c-1.1,1.8-3.1,3.2-5.6,4
	c-0.2,0.1-0.8-0.1-1-0.1C26.9,35.6,25.7,36.1,24.2,36.1z"/>
<path class="st4" d="M20.6,31.9c0,0-0.9,2.8-0.3,4.1l-0.9-0.4C19.5,35.5,20.1,32.7,20.6,31.9z M28.1,31.9c0,0,0.9,2.8,0.3,4.1
	l0.9-0.4C29.2,35.5,28.5,32.7,28.1,31.9z"/>
<path class="st1" d="M18.2,17.5c-0.3,1.2-1.5,5.1,0.8,3.8c0,0-1,0.6-1.6,2.7s-2.2,2.4-2.2,2.4s-2.5,0.5-4.4-1.1
	c-1.6-1.4-1.8-3.8-1.2-5.6c0.7-1.8,1.9-2.4,3.6-2.7C15.1,16.5,18.6,16.2,18.2,17.5z"/>
<path d="M24.3,28.8c1,0,4.2,2.2,4.2,4.8v-0.1c0-2.8-2.5-5-4.2-5c-1.7,0-4.2,2.2-4.2,5v0.1C20.2,31,23.3,28.8,24.3,28.8z"/>
<ellipse transform="matrix(0.9683 -0.2498 0.2498 0.9683 -4.9679 6.9797)" class="st6" cx="25" cy="23.1" rx="0.3" ry="0.6"/>
<ellipse transform="matrix(0.2963 -0.9551 0.9551 0.2963 -5.5659 38.5759)" class="st6" cx="23.4" cy="23.1" rx="0.6" ry="0.3"/>
<circle cx="14" cy="21.8" r="3.3"/>
<circle class="st2" cx="14.8" cy="20.3" r="0.9"/>
<path class="st5" d="M25.3,21.8c0,0-0.9,0.4-1.1,0.4c-0.2,0-1.1-0.5-1.1-0.4H25.3z"/>
<path class="st0" d="M18.8,21.6c0,0-3,2-4.6,4S12.6,28,12.6,28l1.2,0.5c0,0,1.7-3.1,3.7-4.3c2-1.2,2.3-2.1,2.3-2.1L18.8,21.6z"/>
<path class="st1" d="M12.3,15.6c0,0-1,2.8-3.3,3.9C9,19.6,12.5,19.2,12.3,15.6z M35.9,15.6c0,0,1,2.8,3.3,3.9
	C39.2,19.6,35.7,19.2,35.9,15.6z M29.5,20.8c0,0-2.2-2.3-5.2-2.4h0h0c-3,0.1-5.2,2.4-5.2,2.4C21.8,19,24,19,24.4,19
	C24.4,19,26.9,19,29.5,20.8z M26.9,15.9c0,0-1.1-1.6-2.6-1.6h0.1c-1.1,0-2.6,1.6-2.6,1.6c1.3-1.2,2.6-1.2,2.6-1.2
	S25.6,14.7,26.9,15.9z M14,27.4c0,0-1.8,0.9-3,0.3h0c-1.1-0.6-1.7-2.6-1.7-2.6S10.3,28.6,14,27.4z M34.5,27.4c0,0,1.8,0.9,3,0.3
	c1.5-0.6,1.7-2.6,1.7-2.6S38.1,28.6,34.5,27.4z"/>
<path class="st1" d="M16,15.4c1-0.2,2.6-0.2,3.9,0.2c1.6,0.6,0.3,2.6,0.6,2.7c0.3,0.1,0.8-1.4,3.8-1.3c3,0.1,3.4,1.5,3.8,1.3
	c0.4-0.2-0.4-3.7,4.1-2.9c0,0-4.8-1.3-4.5,2.2c0,0-2.7-2.1-6.6-0.2C21.1,17.4,22.1,14.2,16,15.4z M32.6,15.4c0.1,0,0.1,0,0.2,0
	C32.8,15.5,32.7,15.4,32.6,15.4z M14.7,10.8c0,0-4.1,5.1-4.6,7.1C9.4,19.9,9,28,8.4,29.2l-1.9-8l3.5-8.4
	C10,12.8,14.7,10.8,14.7,10.8z M33.7,10.8c0,0,4,5.1,4.7,7c0.6,2,1,10.1,1.6,11.3l1.9-8l-3.4-8.4C38.4,12.8,33.7,10.8,33.7,10.8z"/>
<path class="st3" d="M33.5,10.8c0,0,4.3,3.6,5.6,7.8s0.8,9.3,1.7,9.9c1.4,0.9,3-4.5,3.5-5c0.8-0.9,3.6-3.2,3.8-3.6
	c0.2-0.4-5.6-6.7-8.1-7.9C37,10.6,33.3,10.5,33.5,10.8z"/>
<path class="st4" d="M37.2,13.1c0,0,5.1,6.6,5.1,14.7l2.1-4.2C44.3,23.6,42.5,18.3,37.2,13.1z"/>
<path class="st3" d="M14.7,10.8c0,0-4.4,3.6-5.6,7.8S8.3,28,7.3,28.6c-1.4,0.9-3-4.5-3.5-5C3,22.7,0.3,20.4,0.1,20s5.6-6.7,8.1-7.9
	C11.2,10.6,14.9,10.5,14.7,10.8z"/>
<path class="st4" d="M11,13.1c0,0-5.1,6.6-5.1,14.7l-2-4.2C3.9,23.6,5.7,18.3,11,13.1z"/>
<path class="st1" d="M8.2,28c0,0,0.4,2,1,2.7s0.2-0.5,0.2-0.5s-0.6-0.3-0.5-2.9S8.2,28,8.2,28z M40.2,28c0,0-0.4,2-1,2.7
	S39,30.1,39,30.1s0.6-0.3,0.5-2.9C39.4,24.6,40.2,28,40.2,28z"/>
<g>
	<circle class="st4" cx="20.4" cy="26.4" r="0.3"/>
	<circle class="st4" cx="18.7" cy="28.2" r="0.3"/>
	<circle class="st4" cx="18.2" cy="26.4" r="0.3"/>
</g>
<g>
	<circle class="st4" cx="27.8" cy="26.4" r="0.3"/>
	<circle class="st4" cx="29.5" cy="28.2" r="0.3"/>
	<circle class="st4" cx="30" cy="26.4" r="0.3"/>
</g>
</svg>
