<?xml version="1.0" encoding="utf-8"?>
<!-- Generator: Adobe Illustrator 24.3.0, SVG Export Plug-In . SVG Version: 6.00 Build 0)  -->
<svg version="1.1" id="svg2" xmlns="http://www.w3.org/2000/svg" xmlns:xlink="http://www.w3.org/1999/xlink" x="0px" y="0px"
	 viewBox="0 0 48 48" style="enable-background:new 0 0 48 48;" xml:space="preserve">
<style type="text/css">
	.st0{fill:#41CD52;}
	.st1{fill:#FFFFFF;}
</style>
<path id="path6" class="st0" d="M6.6,6.4H48v28.5l-6.7,6.7H0V13L6.6,6.4z"/>
<path id="path8" class="st1" d="M12.7,13.8c1.6-1,3.5-1.3,5.4-1.3c1.8,0,3.6,0.3,5.1,1.4c1.1,0.7,1.7,1.9,2.2,3.1c0.7,2,1,4.1,1,6.1
	c0,2.1-0.1,4.2-0.8,6.2c-0.5,1.4-1.3,2.6-2.5,3.4c0.8,1.4,1.7,2.7,2.5,4.1c-1.1,0.5-2.1,1-3.2,1.5c-0.9-1.5-1.8-3-2.7-4.4
	c-1.2,0.2-2.5,0.2-3.7,0c-1.5-0.2-3-0.6-4.1-1.6c-0.9-0.8-1.4-1.8-1.8-2.9c-0.6-1.8-0.8-3.7-0.8-5.6c0-2.1,0.1-4.1,0.7-6.1
	C10.6,16.1,11.4,14.7,12.7,13.8z"/>
<path id="path10" class="st1" d="M30.6,13.7h3.3v4.4h4.2c0,0.9,0,1.9-0.1,2.8h-4.2v7.2c0,0.7,0,1.3,0.3,1.9c0.2,0.5,0.8,0.6,1.2,0.6
	c0.9,0,1.7-0.1,2.6-0.1c0.1,0.9,0.1,1.7,0.2,2.6c-1.7,0.3-3.5,0.6-5.3,0.1c-0.7-0.2-1.4-0.7-1.7-1.4c-0.5-1.2-0.6-2.6-0.6-3.9v-7.1
	h-2.3V18h2.3C30.6,16.6,30.6,15.2,30.6,13.7z"/>
<path id="path12" class="st0" d="M16.7,15.5c1.1-0.1,2.2-0.1,3.2,0.3c0.8,0.3,1.5,1,1.9,1.8c0.6,1.2,0.8,2.6,0.9,3.9
	c0.1,1.8,0.1,3.6-0.1,5.3c-0.2,1-0.4,2.1-1.1,3c-0.7,0.8-1.8,1.2-2.9,1.3c-1.1,0.1-2.3,0-3.3-0.5c-0.6-0.3-1.1-0.8-1.4-1.4
	c-0.4-0.7-0.6-1.5-0.7-2.3c-0.4-2.5-0.5-5.1,0.1-7.6c0.2-0.9,0.6-1.9,1.3-2.6C15,15.9,15.8,15.6,16.7,15.5z"/>
</svg>
