<?xml version="1.0" encoding="utf-8"?>
<!-- Generator: Adobe Illustrator 24.3.0, SVG Export Plug-In . SVG Version: 6.00 Build 0)  -->
<svg version="1.1" id="Layer_2_1_" xmlns="http://www.w3.org/2000/svg" xmlns:xlink="http://www.w3.org/1999/xlink" x="0px" y="0px"
	 viewBox="0 0 48 48" style="enable-background:new 0 0 48 48;" xml:space="preserve">
<style type="text/css">
	.st0{fill:#00D8FF;}
</style>
<circle class="st0" cx="24" cy="24" r="4.3"/>
<g>
	<path class="st0" d="M24,33.8c-6,0-11.3-0.7-15.3-2.1c-2.6-0.9-4.7-2-6.3-3.4C0.8,27,0,25.4,0,24c0-2.8,3.1-5.6,8.3-7.4
		c4.3-1.5,9.9-2.3,15.7-2.3c5.7,0,11.2,0.8,15.5,2.3c2.5,0.9,4.6,2,6.1,3.2C47.2,21,48,22.5,48,24c0,3-3.5,5.9-9.1,7.8
		C35,33.1,29.7,33.8,24,33.8z M24,16.3c-5.5,0-11,0.8-15,2.2c-4.8,1.7-7,4-7,5.5c0,1.6,2.3,4.1,7.4,5.8c3.7,1.3,8.8,2,14.6,2
		c5.4,0,10.5-0.7,14.3-1.9C43.6,28,46,25.5,46,24c0-0.8-0.6-1.8-1.7-2.7c-1.3-1.1-3.2-2.1-5.4-2.8C34.8,17,29.5,16.3,24,16.3z"/>
</g>
<g>
	<path class="st0" d="M14.3,45.4c-0.9,0-1.6-0.2-2.3-0.6c-2.5-1.4-3.3-5.5-2.3-10.9c0.8-4.5,2.9-9.7,5.8-14.8
		c2.9-5,6.3-9.3,9.7-12.3c2-1.7,4-3,5.8-3.7c2-0.7,3.7-0.7,4.9,0c2.6,1.5,3.4,6,2.2,11.8c-0.8,4.1-2.9,9.1-5.7,14
		c-3,5.2-6.3,9.4-9.4,12.2c-2,1.8-4.1,3.1-6.1,3.8C16,45.2,15.1,45.4,14.3,45.4z M17.3,20.1c-2.8,4.8-4.8,9.9-5.6,14.1
		c-1,5,0,8,1.3,8.8c0.3,0.2,0.8,0.3,1.3,0.3c1.7,0,4.4-1.1,7.5-3.8c3-2.6,6.1-6.6,9-11.7c2.7-4.7,4.7-9.5,5.5-13.4
		c1.1-5.5,0.2-8.8-1.2-9.6c-0.7-0.4-1.8-0.4-3.2,0.2c-1.6,0.6-3.4,1.7-5.2,3.3C23.4,11.2,20.1,15.4,17.3,20.1"/>
</g>
<g>
	<path class="st0" d="M33.7,45.4c-2.3,0-5.3-1.4-8.4-4.1c-3.4-3-6.9-7.4-9.9-12.4l0,0c-2.9-5-4.9-10.1-5.8-14.6
		c-0.5-2.6-0.6-5-0.3-6.9c0.4-2.1,1.2-3.6,2.5-4.3c2.6-1.5,6.9,0,11.3,4c3.1,2.8,6.4,7,9.3,11.9c3,5.2,5.1,10.1,5.9,14.2
		c0.5,2.7,0.6,5.1,0.2,7.1c-0.4,2.1-1.3,3.6-2.6,4.4C35.3,45.2,34.6,45.4,33.7,45.4z M17.3,27.9c2.8,4.8,6.2,9.1,9.4,11.9
		c3.9,3.3,6.9,4,8.3,3.3c1.4-0.8,2.4-4.1,1.3-9.3c-0.8-3.9-2.7-8.6-5.6-13.6c-2.7-4.7-5.9-8.8-8.8-11.4C17.7,5,14.3,4.2,12.9,5
		c-0.7,0.4-1.2,1.4-1.5,2.9c-0.3,1.7-0.2,3.8,0.3,6.1C12.5,18.1,14.5,23.1,17.3,27.9L17.3,27.9z"/>
</g>
</svg>
