<?xml version="1.0" encoding="utf-8"?>
<!-- Generator: Adobe Illustrator 24.3.0, SVG Export Plug-In . SVG Version: 6.00 Build 0)  -->
<svg version="1.1" id="Layer_1" xmlns="http://www.w3.org/2000/svg" xmlns:xlink="http://www.w3.org/1999/xlink" x="0px" y="0px"
	 viewBox="0 0 48 48" style="enable-background:new 0 0 48 48;" xml:space="preserve">
<style type="text/css">
	.st0{fill:#CF649A;}
</style>
<path class="st0" d="M41.3,26.7c-1.7,0-3.1,0.4-4.3,1c-0.5-0.9-0.9-1.7-1-2.2c-0.1-0.7-0.2-1.1-0.1-1.9c0.1-0.8,0.6-1.9,0.6-2
	c0-0.1-0.1-0.5-1.1-0.5c-1,0-1.8,0.2-1.9,0.4c-0.1,0.3-0.3,0.8-0.4,1.4c-0.2,0.9-1.9,4-2.9,5.6c-0.3-0.6-0.6-1.2-0.7-1.6
	c-0.1-0.7-0.2-1.1-0.1-1.9c0.1-0.8,0.6-2,0.6-2c0-0.1-0.1-0.5-1.1-0.5s-1.8,0.2-1.9,0.4c-0.1,0.3-0.2,0.9-0.4,1.4
	c-0.2,0.6-2.5,5.8-3.1,7.2c-0.3,0.7-0.6,1.2-0.8,1.6c-0.2,0.4,0,0,0,0.1c-0.2,0.3-0.3,0.5-0.3,0.5v0c-0.1,0.2-0.3,0.5-0.3,0.5
	c0,0-0.1-0.6,0-1.5c0.3-1.8,1.2-4.6,1.2-4.7c0,0,0.2-0.5-0.5-0.8c-0.7-0.3-0.9,0.2-1,0.2c-0.1,0-0.1,0.1-0.1,0.1s0.8-3.2-1.5-3.2
	c-1.4,0-3.3,1.5-4.2,2.9c-0.6,0.3-1.9,1-3.2,1.8c-0.5,0.3-1,0.6-1.6,0.9l-0.1-0.1c-2.7-2.9-7.6-4.9-7.4-8.7c0.1-1.4,0.6-5.1,9.5-9.5
	c7.3-3.7,13.2-2.7,14.2-0.4c1.5,3.2-3.1,9.1-10.8,10c-2.9,0.3-4.4-0.8-4.8-1.2c-0.4-0.4-0.5-0.5-0.6-0.4c-0.2,0.1-0.1,0.5,0,0.8
	c0.2,0.6,1.2,1.6,2.8,2.2c1.4,0.5,4.8,0.7,8.9-0.9c4.6-1.8,8.2-6.8,7.2-10.9C29,6.2,22,4.8,15.3,7.2C11.4,8.6,7.1,10.8,4,13.6
	c-3.7,3.4-4.2,6.4-4,7.6c0.9,4.4,6.9,7.3,9.4,9.4c-0.1,0.1-0.2,0.1-0.3,0.2c-1.2,0.6-5.9,3-7,5.6c-1.3,2.9,0.2,5,1.2,5.3
	c3.1,0.9,6.3-0.7,8.1-3.3c1.7-2.6,1.5-5.9,0.7-7.5l0-0.1l1-0.6c0.6-0.4,1.2-0.7,1.8-1c-0.3,0.8-0.5,1.8-0.6,3.2
	c-0.1,1.7,0.5,3.8,1.4,4.6c0.4,0.4,0.9,0.4,1.2,0.4c1,0,1.5-0.9,2-1.9c0.6-1.2,1.2-2.7,1.2-2.7S19.2,37,21.2,37
	c0.7,0,1.4-0.9,1.7-1.4v0c0,0,0,0,0.1-0.1c0.1-0.1,0.1-0.2,0.1-0.2v0c0.3-0.5,0.9-1.6,1.8-3.4c1.2-2.4,2.4-5.4,2.4-5.4
	s0.1,0.7,0.5,1.9c0.2,0.7,0.7,1.5,1,2.2c-0.3,0.4-0.5,0.6-0.5,0.6l0,0c-0.2,0.3-0.5,0.6-0.7,0.9c-1,1.1-2.1,2.4-2.2,2.8
	c-0.2,0.4-0.1,0.8,0.2,1c0.3,0.2,0.7,0.2,1.2,0.2c0.9-0.1,1.5-0.3,1.8-0.4c0.5-0.2,1-0.4,1.5-0.8c0.9-0.7,1.5-1.7,1.5-3
	c0-0.7-0.3-1.4-0.6-2.1c0.1-0.1,0.2-0.2,0.3-0.4c1.5-2.2,2.6-4.5,2.6-4.5s0.1,0.7,0.5,1.9c0.2,0.6,0.5,1.3,0.9,1.9
	c-1.4,1.1-2.3,2.4-2.6,3.3c-0.6,1.6-0.1,2.3,0.7,2.5c0.4,0.1,0.9-0.1,1.3-0.3c0.5-0.2,1.1-0.4,1.6-0.8c0.9-0.7,1.8-1.7,1.8-3
	c0-0.6-0.2-1.2-0.4-1.8c1.2-0.5,2.7-0.8,4.7-0.5c4.2,0.5,5,3.1,4.8,4.2c-0.2,1.1-1,1.7-1.3,1.9c-0.3,0.2-0.4,0.2-0.4,0.4
	c0,0.2,0.2,0.2,0.4,0.2c0.3-0.1,2.2-0.9,2.3-2.9C48.1,29.5,45.6,26.7,41.3,26.7L41.3,26.7z M9.1,37.5C7.8,39,5.8,39.6,5,39.1
	c-0.9-0.5-0.5-2.7,1.2-4.3c1-1,2.4-1.9,3.3-2.4c0.2-0.1,0.5-0.3,0.9-0.5c0.1,0,0.1-0.1,0.1-0.1c0.1,0,0.1-0.1,0.2-0.1
	C11.2,33.9,10.6,35.9,9.1,37.5z M19.2,30.7c-0.5,1.2-1.5,4.2-2.1,4c-0.5-0.1-0.8-2.4-0.1-4.7c0.4-1.1,1.2-2.5,1.6-3
	c0.8-0.8,1.6-1.1,1.8-0.8C20.7,26.7,19.5,29.9,19.2,30.7z M27.5,34.6c-0.2,0.1-0.4,0.2-0.5,0.1c-0.1,0,0.1-0.2,0.1-0.2
	s1-1.1,1.5-1.6c0.2-0.3,0.5-0.6,0.8-1V32C29.4,33.4,28.1,34.3,27.5,34.6z M33.9,33.2c-0.1-0.1-0.1-0.5,0.4-1.5
	c0.2-0.4,0.6-1.2,1.4-1.8c0.1,0.3,0.1,0.6,0.1,0.8C35.9,32.3,34.7,32.9,33.9,33.2z"/>
</svg>
