<?xml version="1.0" encoding="utf-8"?>
<!-- Generator: Adobe Illustrator 24.3.0, SVG Export Plug-In . SVG Version: 6.00 Build 0)  -->
<svg version="1.1" id="Layer_1" xmlns="http://www.w3.org/2000/svg" xmlns:xlink="http://www.w3.org/1999/xlink" x="0px" y="0px"
	 viewBox="0 0 48 48" style="enable-background:new 0 0 48 48;" xml:space="preserve">
<style type="text/css">
	.st0{fill-rule:evenodd;clip-rule:evenodd;fill:url(#SVGID_1_);}
</style>
<linearGradient id="SVGID_1_" gradientUnits="userSpaceOnUse" x1="1.024037e-06" y1="63.8895" x2="48" y2="-16.11" gradientTransform="matrix(1 0 0 -1 0 47.8898)">
	<stop  offset="0" style="stop-color:#2383AE"/>
	<stop  offset="1" style="stop-color:#6DD7B9"/>
</linearGradient>
<path class="st0" d="M12,19.2c1.6-6.4,5.6-9.6,12-9.6c9.6,0,10.8,7.2,15.6,8.4c3.2,0.8,6-0.4,8.4-3.6c-1.6,6.4-5.6,9.6-12,9.6
	c-9.6,0-10.8-7.2-15.6-8.4C17.2,14.8,14.4,16,12,19.2z M0,33.6C1.6,27.2,5.6,24,12,24c9.6,0,10.8,7.2,15.6,8.4
	c3.2,0.8,6-0.4,8.4-3.6c-1.6,6.4-5.6,9.6-12,9.6c-9.6,0-10.8-7.2-15.6-8.4C5.2,29.2,2.4,30.4,0,33.6z"/>
</svg>
