<?xml version="1.0" encoding="utf-8"?>
<!-- Generator: Adobe Illustrator 24.3.0, SVG Export Plug-In . SVG Version: 6.00 Build 0)  -->
<svg version="1.1" id="Layer_1" xmlns="http://www.w3.org/2000/svg" xmlns:xlink="http://www.w3.org/1999/xlink" x="0px" y="0px"
	 viewBox="0 0 48 48" style="enable-background:new 0 0 48 48;" xml:space="preserve">
<style type="text/css">
	.st0{fill:#FFFFFF;}
	.st1{fill:#8ED6FB;}
	.st2{fill:#1C78C0;}
</style>
<path class="st0" d="M24,0l21.2,12v24L24,48L2.8,36V12L24,0z"/>
<path class="st1" d="M41.4,35.2l-16.7,9.5v-7.4l10.4-5.7C35.1,31.5,41.4,35.2,41.4,35.2z M42.6,34.1V14.4l-6.1,3.5v12.7
	C36.5,30.6,42.6,34.1,42.6,34.1z M6.5,35.2l16.7,9.5v-7.4l-10.4-5.7L6.5,35.2z M5.4,34.1V14.4l6.1,3.5v12.7L5.4,34.1z M6.1,13.1
	l17.2-9.7v7.1l-11,6l-0.1,0C12.2,16.6,6.1,13.1,6.1,13.1z M41.9,13.1L24.7,3.4v7.1l11,6l0.1,0C35.8,16.6,41.9,13.1,41.9,13.1z"/>
<path class="st2" d="M23.2,35.6l-10.3-5.7V18.7l10.3,5.9V35.6z M24.7,35.6L35,29.9V18.7l-10.3,5.9V35.6z M13.6,17.4L24,11.8
	l10.3,5.7l-10.3,6C24,23.4,13.6,17.4,13.6,17.4z"/>
</svg>
