<?xml version="1.0" encoding="utf-8"?>
<!-- Generator: Adobe Illustrator 24.3.0, SVG Export Plug-In . SVG Version: 6.00 Build 0)  -->
<svg version="1.1" id="Layer_1" xmlns="http://www.w3.org/2000/svg" xmlns:xlink="http://www.w3.org/1999/xlink" x="0px" y="0px"
	 viewBox="0 0 475 474.9" style="enable-background:new 0 0 475 474.9;" xml:space="preserve">
<style type="text/css">
	.st0{fill:url(#SVGID_1_);}
	.st1{opacity:0.25;fill-rule:evenodd;clip-rule:evenodd;fill:#FF0000;enable-background:new    ;}
	.st2{fill:url(#SVGID_2_);}
	.st3{fill:none;stroke:#800000;stroke-width:12.686;stroke-linejoin:round;stroke-miterlimit:20;stroke-opacity:0.502;}
	.st4{fill:url(#SVGID_3_);}
	.st5{opacity:0.25;fill-rule:evenodd;clip-rule:evenodd;fill:#0000FF;enable-background:new    ;}
	.st6{fill:url(#SVGID_4_);}
	.st7{fill:none;stroke:#000080;stroke-width:12.686;stroke-linejoin:round;stroke-miterlimit:20;stroke-opacity:0.502;}
	.st8{fill:url(#SVGID_5_);}
	.st9{opacity:0.25;fill-rule:evenodd;clip-rule:evenodd;fill:#C0C000;enable-background:new    ;}
	.st10{fill:url(#SVGID_6_);}
	.st11{fill:none;stroke:#808000;stroke-width:12.686;stroke-linejoin:round;stroke-miterlimit:20;stroke-opacity:0.502;}
</style>
<g>
	<g>
		
			<linearGradient id="SVGID_1_" gradientUnits="userSpaceOnUse" x1="195.6442" y1="70.1744" x2="94.5518" y2="270.1683" gradientTransform="matrix(1 0 0 -1 -45.0075 472.8094)">
			<stop  offset="0" style="stop-color:#FF0000"/>
			<stop  offset="1" style="stop-color:#FFE0E0"/>
		</linearGradient>
		<path class="st0" d="M44.3,202.4h111.3c24.6,0,44.3,19.8,44.3,44.3v111.3c0,24.6-19.8,44.3-44.3,44.3H44.3
			C19.8,402.4,0,382.7,0,358.1V246.8C0,222.2,19.8,202.4,44.3,202.4z"/>
		<path class="st1" d="M157.1,277.5c-48.5,0.5-61.8,56.7-104.9,57.2C33.5,334.9,17.6,322.1,0,307v51.7c0,24.2,19.8,43.8,44.4,43.8
			h111.3c24.6,0,44.3-19.5,44.3-43.8v-70.3C188,281.8,174,277.3,157.1,277.5z"/>
		
			<linearGradient id="SVGID_2_" gradientUnits="userSpaceOnUse" x1="114.4311" y1="89.3125" x2="197.7391" y2="89.3125" gradientTransform="matrix(0.5456 0 0 -0.3503 -49.8778 333.7271)">
			<stop  offset="0" style="stop-color:#FFFFFF"/>
			<stop  offset="1" style="stop-color:#FFFFFF;stop-opacity:0"/>
		</linearGradient>
		<path class="st2" d="M41.5,227.4L41.5,227.4c9.1,0,16.5,7.6,16.5,17v115.9c0,9.4-7.4,17-16.5,17l0,0c-9.1,0-16.5-7.6-16.5-17
			V244.5C25,235.1,32.4,227.4,41.5,227.4z"/>
		<path class="st3" d="M44.5,208.8h111.2c21.1,0,38,16.9,38,38v111.3c0,21.1-16.9,38-38,38H44.3c-21.1,0-38-16.9-38-38V246.8
			C6.3,225.6,23.3,208.8,44.5,208.8z"/>
	</g>
	<g>
		
			<linearGradient id="SVGID_3_" gradientUnits="userSpaceOnUse" x1="271.4243" y1="191.1716" x2="196.0659" y2="341.0782" gradientTransform="matrix(1.3342 0 0 -1.3342 -81.9289 527.351)">
			<stop  offset="0" style="stop-color:#0000FF"/>
			<stop  offset="1" style="stop-color:#E0E0FF"/>
		</linearGradient>
		<path class="st4" d="M174.3,72.4h111.3c24.6,0,44.3,19.8,44.3,44.3v111.3c0,24.6-19.8,44.3-44.3,44.3H174.3
			c-24.6,0-44.3-19.8-44.3-44.3V116.8C130,92.2,149.8,72.4,174.3,72.4z"/>
		<path class="st5" d="M287.1,147.5c-48.5,0.5-61.8,56.7-104.9,57.2c-18.6,0.2-34.5-12.6-52.2-27.7v51.7c0,24.2,19.8,43.8,44.4,43.8
			h111.3c24.6,0,44.3-19.5,44.3-43.8v-70.3C318,151.8,304,147.3,287.1,147.5z"/>
		
			<linearGradient id="SVGID_4_" gradientUnits="userSpaceOnUse" x1="114.6297" y1="89.3128" x2="197.7382" y2="89.3128" gradientTransform="matrix(0.5456 0 0 -0.3503 80.1223 203.7272)">
			<stop  offset="0" style="stop-color:#FFFFFF"/>
			<stop  offset="1" style="stop-color:#FFFFFF;stop-opacity:0"/>
		</linearGradient>
		<path class="st6" d="M171.5,97.4L171.5,97.4c9.1,0,16.5,7.6,16.5,17v115.9c0,9.4-7.4,17-16.5,17l0,0c-9.1,0-16.5-7.6-16.5-17
			V114.5C155,105.1,162.4,97.4,171.5,97.4z"/>
		<path class="st7" d="M174.5,78.8h111.2c21.1,0,38,16.9,38,38v111.3c0,21.1-16.9,38-38,38H174.3c-21.1,0-38-16.9-38-38V116.8
			C136.3,95.6,153.3,78.8,174.5,78.8z"/>
	</g>
	<g>
		
			<linearGradient id="SVGID_5_" gradientUnits="userSpaceOnUse" x1="195.964" y1="340.9379" x2="271.6675" y2="191.0312" gradientTransform="matrix(1.3342 0 0 -1.3342 63.0711 622.351)">
			<stop  offset="0" style="stop-color:#FFFFE0"/>
			<stop  offset="1" style="stop-color:#FFFF00"/>
		</linearGradient>
		<path class="st8" d="M319.3,167.4h111.3c24.6,0,44.3,19.8,44.3,44.3v111.3c0,24.6-19.8,44.3-44.3,44.3H319.3
			c-24.6,0-44.3-19.8-44.3-44.3V211.8C275,187.2,294.8,167.4,319.3,167.4z"/>
		<path class="st9" d="M432.1,242.5c-48.5,0.5-61.8,56.7-104.9,57.2c-18.6,0.2-34.5-12.6-52.2-27.7v51.7c0,24.2,19.8,43.8,44.4,43.8
			h111.3c24.6,0,44.3-19.5,44.3-43.8v-70.3C463,246.8,449,242.3,432.1,242.5z"/>
		
			<linearGradient id="SVGID_6_" gradientUnits="userSpaceOnUse" x1="114.431" y1="89.3128" x2="197.7384" y2="89.3128" gradientTransform="matrix(0.5456 0 0 -0.3503 225.1222 298.7272)">
			<stop  offset="0" style="stop-color:#FFFFFF"/>
			<stop  offset="1" style="stop-color:#FFFFFF;stop-opacity:0"/>
		</linearGradient>
		<path class="st10" d="M316.5,192.4L316.5,192.4c9.1,0,16.5,7.6,16.5,17v115.9c0,9.4-7.4,17-16.5,17l0,0c-9.1,0-16.5-7.6-16.5-17
			V209.5C300,200.1,307.4,192.4,316.5,192.4z"/>
		<path class="st11" d="M319.5,173.8h111.2c21.1,0,38,16.9,38,38v111.3c0,21.1-16.9,38-38,38H319.3c-21.1,0-38-16.9-38-38V211.8
			C281.3,190.6,298.3,173.8,319.5,173.8z"/>
	</g>
</g>
</svg>
