<svg xmlns="http://www.w3.org/2000/svg" xmlns:xlink="http://www.w3.org/1999/xlink" id="Layer_1" x="0" y="0" version="1.1" viewBox="0 0 475 474.9" xml:space="preserve" style="enable-background:new 0 0 475 474.9"><style type="text/css">.st0{fill:url(#SVGID_1_)}.st1{opacity:.25;fill-rule:evenodd;clip-rule:evenodd;fill:red;enable-background:new}.st2{fill:url(#SVGID_2_)}.st3{fill:none;stroke:maroon;stroke-width:12.686;stroke-linejoin:round;stroke-miterlimit:20;stroke-opacity:.502}.st4{fill:url(#SVGID_3_)}.st5{opacity:.25;fill-rule:evenodd;clip-rule:evenodd;fill:#00f;enable-background:new}.st6{fill:url(#SVGID_4_)}.st7{fill:none;stroke:navy;stroke-width:12.686;stroke-linejoin:round;stroke-miterlimit:20;stroke-opacity:.502}.st8{fill:url(#SVGID_5_)}.st9{opacity:.25;fill-rule:evenodd;clip-rule:evenodd;fill:#c0c000;enable-background:new}.st10{fill:url(#SVGID_6_)}.st11{fill:none;stroke:olive;stroke-width:12.686;stroke-linejoin:round;stroke-miterlimit:20;stroke-opacity:.502}</style><g><g><linearGradient id="SVGID_1_" x1="195.644" x2="94.552" y1="70.174" y2="270.168" gradientTransform="matrix(1 0 0 -1 -45.0075 472.8094)" gradientUnits="userSpaceOnUse"><stop offset="0" style="stop-color:red"/><stop offset="1" style="stop-color:#ffe0e0"/></linearGradient><path d="M44.3,202.4h111.3c24.6,0,44.3,19.8,44.3,44.3v111.3c0,24.6-19.8,44.3-44.3,44.3H44.3 C19.8,402.4,0,382.7,0,358.1V246.8C0,222.2,19.8,202.4,44.3,202.4z" class="st0"/><path d="M157.1,277.5c-48.5,0.5-61.8,56.7-104.9,57.2C33.5,334.9,17.6,322.1,0,307v51.7c0,24.2,19.8,43.8,44.4,43.8 h111.3c24.6,0,44.3-19.5,44.3-43.8v-70.3C188,281.8,174,277.3,157.1,277.5z" class="st1"/><linearGradient id="SVGID_2_" x1="114.431" x2="197.739" y1="89.313" y2="89.313" gradientTransform="matrix(0.5456 0 0 -0.3503 -49.8778 333.7271)" gradientUnits="userSpaceOnUse"><stop offset="0" style="stop-color:#fff"/><stop offset="1" style="stop-color:#fff;stop-opacity:0"/></linearGradient><path d="M41.5,227.4L41.5,227.4c9.1,0,16.5,7.6,16.5,17v115.9c0,9.4-7.4,17-16.5,17l0,0c-9.1,0-16.5-7.6-16.5-17 V244.5C25,235.1,32.4,227.4,41.5,227.4z" class="st2"/><path d="M44.5,208.8h111.2c21.1,0,38,16.9,38,38v111.3c0,21.1-16.9,38-38,38H44.3c-21.1,0-38-16.9-38-38V246.8 C6.3,225.6,23.3,208.8,44.5,208.8z" class="st3"/></g><g><linearGradient id="SVGID_3_" x1="271.424" x2="196.066" y1="191.172" y2="341.078" gradientTransform="matrix(1.3342 0 0 -1.3342 -81.9289 527.351)" gradientUnits="userSpaceOnUse"><stop offset="0" style="stop-color:#00f"/><stop offset="1" style="stop-color:#e0e0ff"/></linearGradient><path d="M174.3,72.4h111.3c24.6,0,44.3,19.8,44.3,44.3v111.3c0,24.6-19.8,44.3-44.3,44.3H174.3 c-24.6,0-44.3-19.8-44.3-44.3V116.8C130,92.2,149.8,72.4,174.3,72.4z" class="st4"/><path d="M287.1,147.5c-48.5,0.5-61.8,56.7-104.9,57.2c-18.6,0.2-34.5-12.6-52.2-27.7v51.7c0,24.2,19.8,43.8,44.4,43.8 h111.3c24.6,0,44.3-19.5,44.3-43.8v-70.3C318,151.8,304,147.3,287.1,147.5z" class="st5"/><linearGradient id="SVGID_4_" x1="114.63" x2="197.738" y1="89.313" y2="89.313" gradientTransform="matrix(0.5456 0 0 -0.3503 80.1223 203.7272)" gradientUnits="userSpaceOnUse"><stop offset="0" style="stop-color:#fff"/><stop offset="1" style="stop-color:#fff;stop-opacity:0"/></linearGradient><path d="M171.5,97.4L171.5,97.4c9.1,0,16.5,7.6,16.5,17v115.9c0,9.4-7.4,17-16.5,17l0,0c-9.1,0-16.5-7.6-16.5-17 V114.5C155,105.1,162.4,97.4,171.5,97.4z" class="st6"/><path d="M174.5,78.8h111.2c21.1,0,38,16.9,38,38v111.3c0,21.1-16.9,38-38,38H174.3c-21.1,0-38-16.9-38-38V116.8 C136.3,95.6,153.3,78.8,174.5,78.8z" class="st7"/></g><g><linearGradient id="SVGID_5_" x1="195.964" x2="271.668" y1="340.938" y2="191.031" gradientTransform="matrix(1.3342 0 0 -1.3342 63.0711 622.351)" gradientUnits="userSpaceOnUse"><stop offset="0" style="stop-color:#ffffe0"/><stop offset="1" style="stop-color:#ff0"/></linearGradient><path d="M319.3,167.4h111.3c24.6,0,44.3,19.8,44.3,44.3v111.3c0,24.6-19.8,44.3-44.3,44.3H319.3 c-24.6,0-44.3-19.8-44.3-44.3V211.8C275,187.2,294.8,167.4,319.3,167.4z" class="st8"/><path d="M432.1,242.5c-48.5,0.5-61.8,56.7-104.9,57.2c-18.6,0.2-34.5-12.6-52.2-27.7v51.7c0,24.2,19.8,43.8,44.4,43.8 h111.3c24.6,0,44.3-19.5,44.3-43.8v-70.3C463,246.8,449,242.3,432.1,242.5z" class="st9"/><linearGradient id="SVGID_6_" x1="114.431" x2="197.738" y1="89.313" y2="89.313" gradientTransform="matrix(0.5456 0 0 -0.3503 225.1222 298.7272)" gradientUnits="userSpaceOnUse"><stop offset="0" style="stop-color:#fff"/><stop offset="1" style="stop-color:#fff;stop-opacity:0"/></linearGradient><path d="M316.5,192.4L316.5,192.4c9.1,0,16.5,7.6,16.5,17v115.9c0,9.4-7.4,17-16.5,17l0,0c-9.1,0-16.5-7.6-16.5-17 V209.5C300,200.1,307.4,192.4,316.5,192.4z" class="st10"/><path d="M319.5,173.8h111.2c21.1,0,38,16.9,38,38v111.3c0,21.1-16.9,38-38,38H319.3c-21.1,0-38-16.9-38-38V211.8 C281.3,190.6,298.3,173.8,319.5,173.8z" class="st11"/></g></g></svg>