<?xml version="1.0" encoding="utf-8"?>
<!-- Generator: Adobe Illustrator 24.3.0, SVG Export Plug-In . SVG Version: 6.00 Build 0)  -->
<svg version="1.1" id="Layer_1" xmlns="http://www.w3.org/2000/svg" xmlns:xlink="http://www.w3.org/1999/xlink" x="0px" y="0px"
	 viewBox="0 0 48 48" style="enable-background:new 0 0 48 48;" xml:space="preserve">
<style type="text/css">
	.st0{fill:#EE4323;}
</style>
<g>
	<path class="st0" d="M16.9,48c-2.9-1.2-5.6-4.4-5.6-7.6c0-3.5,2.2-6.5,5-8.5c-0.3,1.3-0.5,2.4,0.3,3.6c0.8,1.1,2.1,1.6,3.4,1.3
		c3-0.7,3.1-3.9,1.3-5.8c-1.7-1.9-3.4-4-2.8-6.8c0.3-1.4,1.2-2.7,2.2-3.6c-0.8,2.2,1.5,4.3,3,5.3c2.7,1.8,5.6,3.2,8,5.4
		c2.6,2.3,4.5,5.3,4.1,8.9c-0.4,3.8-3.5,6.5-6.9,7.9c7.2-1.6,14.7-7.2,14.9-15.2c0.1-6.6-4.4-11.7-10-14.6L33.7,18
		c0.2,0.4,0.2,0.7,0.2,1c0-0.2,0.1-0.4,0.1-0.7c0,0.3,0,0.5-0.1,0.8l0-0.1c-0.1,0.4-0.2,0.7-0.4,1l0.1-0.1c-1.1,1.9-4.2,2.3-5.6,0.3
		c-2.4-3.1,0-6.4,0.4-9.7c0.4-4.1-2.1-8.1-5.3-10.5c1.8,2.8-0.6,6.6-2.4,8.7c-1.8,2-4,3.7-6,5.6c-2.1,2-4.2,4.1-5.9,6.4
		C5.1,25.4,3,31.3,4.5,37.1C6.1,43,11.2,46.7,16.9,48L16.9,48z"/>
</g>
</svg>
