<?xml version="1.0" encoding="utf-8"?>
<!-- Generator: Adobe Illustrator 24.3.0, SVG Export Plug-In . SVG Version: 6.00 Build 0)  -->
<svg version="1.1" id="Layer_1" xmlns="http://www.w3.org/2000/svg" xmlns:xlink="http://www.w3.org/1999/xlink" x="0px" y="0px"
	 viewBox="0 0 48 48" style="enable-background:new 0 0 48 48;" xml:space="preserve">
<style type="text/css">
	.st0{fill:#092E20;}
</style>
<g>
	<g>
		<path class="st0" d="M5.7,15.6h2.6v12.2c-1.3,0.3-2.3,0.4-3.4,0.4c-3.2,0-4.9-1.4-4.9-4.2c0-2.7,1.8-4.4,4.5-4.4
			c0.4,0,0.7,0,1.1,0.1C5.7,19.6,5.7,15.6,5.7,15.6z M5.7,21.7c-0.3-0.1-0.6-0.1-0.9-0.1c-1.3,0-2.1,0.8-2.1,2.2
			c0,1.4,0.7,2.2,2.1,2.2c0.3,0,0.5,0,0.9-0.1V21.7z"/>
		<path class="st0" d="M12.5,19.7v6.1c0,2.1-0.2,3.1-0.6,4c-0.4,0.8-1,1.4-2.1,1.9l-2.4-1.2c1.2-0.5,1.7-1,2.1-1.8
			c0.4-0.7,0.5-1.6,0.5-3.9v-5.2H12.5z M9.8,15.6h2.6v2.7H9.8V15.6z"/>
		<path class="st0" d="M14,20.3c1.2-0.5,2.3-0.8,3.5-0.8c1.3,0,2.2,0.4,2.6,1.1c0.2,0.4,0.3,0.9,0.3,2v5.3c-1.2,0.2-2.7,0.3-3.8,0.3
			c-2.2,0-3.2-0.8-3.2-2.5c0-1.8,1.3-2.7,4.5-3v-0.6c0-0.5-0.2-0.6-0.9-0.6c-1,0-2.1,0.3-3.1,0.8L14,20.3L14,20.3z M18.2,24.4
			c-1.7,0.2-2.3,0.4-2.3,1.1c0,0.5,0.3,0.7,1,0.7c0.4,0,0.7,0,1.3-0.1C18.2,26.2,18.2,24.4,18.2,24.4z"/>
		<path class="st0" d="M21.7,20.1c1.6-0.4,2.8-0.6,4.1-0.6c1.3,0,2.3,0.3,2.9,0.9c0.5,0.6,0.7,1.2,0.7,2.5V28h-2.6v-5
			c0-1-0.3-1.4-1.3-1.4c-0.4,0-0.7,0-1.2,0.2V28h-2.6V20.1z"/>
		<path class="st0" d="M30.5,29.5c0.9,0.5,1.8,0.7,2.8,0.7c1.7,0,2.5-0.7,2.5-2.4c0,0,0,0,0-0.1c-0.5,0.3-1,0.4-1.7,0.4
			c-2.3,0-3.8-1.5-3.8-3.9c0-3,2.2-4.7,6-4.7c1.1,0,2.2,0.1,3.4,0.4l-0.9,1.9c-0.7-0.1-0.1,0-0.6-0.1V22l0,1.1l0,1.4
			c0,0.4,0,0.7,0,1.1c0,0.3,0,0.5,0,0.7c0,2.3-0.2,3.3-0.7,4.2c-0.8,1.3-2.2,1.9-4.2,1.9c-1,0-1.9-0.2-2.8-0.5L30.5,29.5L30.5,29.5z
			 M35.7,21.6C35.7,21.6,35.6,21.6,35.7,21.6h-0.3c-0.5,0-1.1,0.1-1.5,0.4c-0.6,0.4-1,1-1,1.9c0,1.3,0.6,2.1,1.8,2.1
			c0.4,0,0.6-0.1,1-0.2v-0.2v-0.7c0-0.3,0-0.6,0-1l0-1.2l0-0.9L35.7,21.6L35.7,21.6z"/>
		<path class="st0" d="M43.8,19.4c2.6,0,4.2,1.7,4.2,4.3c0,2.7-1.7,4.5-4.3,4.5c-2.6,0-4.2-1.7-4.2-4.3
			C39.4,21.2,41.1,19.4,43.8,19.4z M43.7,26.1c1,0,1.6-0.8,1.6-2.3c0-1.4-0.6-2.3-1.6-2.3c-1,0-1.6,0.8-1.6,2.3
			C42.1,25.3,42.7,26.1,43.7,26.1z"/>
	</g>
</g>
</svg>
