<?xml version="1.0" encoding="utf-8"?>
<!-- Generator: Adobe Illustrator 24.3.0, SVG Export Plug-In . SVG Version: 6.00 Build 0)  -->
<svg version="1.1" id="Layer_1" xmlns="http://www.w3.org/2000/svg" xmlns:xlink="http://www.w3.org/1999/xlink" x="0px" y="0px"
	 viewBox="0 0 48 48" style="enable-background:new 0 0 48 48;" xml:space="preserve">
<style type="text/css">
	.st0{fill:#672A7A;}
	.st1{fill:#FFFFFF;}
</style>
<g id="XMLID_1_">
	<rect id="XMLID_5_" class="st0" width="48" height="48"/>
	<g id="XMLID_3_">
		<path id="XMLID_4_" class="st1" d="M30.9,18.3c0.2-0.2,0.4-0.5,0.4-0.8c0-0.3-0.1-0.5-0.3-0.7c-0.1-0.2-0.4-0.3-0.7-0.4
			c-0.3-0.1-0.5-0.2-0.6-0.3c-0.1-0.1-0.2-0.2-0.2-0.4c0-0.2,0.1-0.3,0.2-0.4c0.1-0.1,0.3-0.2,0.5-0.2c0.3,0,0.6,0.1,0.9,0.3v-0.6
			c-0.2-0.1-0.5-0.2-0.9-0.2c-0.4,0-0.7,0.1-1,0.3c-0.3,0.2-0.4,0.5-0.4,0.8c0,0.3,0.1,0.5,0.2,0.7c0.1,0.2,0.4,0.3,0.7,0.5
			c0.3,0.1,0.6,0.3,0.7,0.4c0.1,0.1,0.2,0.2,0.2,0.4c0,0.4-0.2,0.6-0.8,0.6c-0.4,0-0.7-0.1-1-0.4v0.7c0.3,0.2,0.6,0.2,1,0.2
			C30.2,18.7,30.6,18.6,30.9,18.3z"/>
		<path id="XMLID_29_" class="st1" d="M36.9,18.6h0.6v-3.5h0.9v-0.5h-0.9V14c0-0.6,0.2-0.9,0.7-0.9c0.2,0,0.3,0,0.4,0.1v-0.6
			c-0.1-0.1-0.3-0.1-0.5-0.1c-0.3,0-0.6,0.1-0.9,0.3c-0.3,0.2-0.4,0.6-0.4,1v0.7h-0.7v0.5h0.7V18.6z"/>
		<path id="XMLID_30_" class="st1" d="M16.4,13.6c0.1,0,0.2,0,0.3-0.1c0.1-0.1,0.1-0.2,0.1-0.3c0-0.1,0-0.2-0.1-0.3
			c-0.1-0.1-0.2-0.1-0.3-0.1c-0.1,0-0.2,0-0.3,0.1C16.1,12.9,16,13,16,13.1c0,0.1,0,0.2,0.1,0.3C16.2,13.5,16.3,13.6,16.4,13.6z"/>
		<path id="XMLID_31_" class="st1" d="M19.7,18.7c0.4,0,0.8-0.1,1.1-0.3v-0.6c-0.3,0.2-0.6,0.3-1,0.3c-0.4,0-0.7-0.1-1-0.4
			c-0.2-0.3-0.4-0.6-0.4-1.1c0-0.5,0.1-0.9,0.4-1.2c0.3-0.3,0.6-0.4,1-0.4c0.3,0,0.7,0.1,1,0.3v-0.7c-0.3-0.1-0.6-0.2-0.9-0.2
			c-0.6,0-1.1,0.2-1.5,0.6c-0.4,0.4-0.6,0.9-0.6,1.6c0,0.6,0.2,1.1,0.5,1.4C18.6,18.5,19.1,18.7,19.7,18.7z"/>
		<path id="XMLID_34_" class="st1" d="M42.5,14.9h0.1c0.1,0,0.2,0.1,0.2,0.2l0.1,0.3h0.2l-0.2-0.4c-0.1-0.1-0.1-0.2-0.2-0.2l0,0
			c0.1,0,0.2-0.1,0.2-0.1c0.1-0.1,0.1-0.1,0.1-0.2c0-0.1,0-0.2-0.1-0.3c-0.1-0.1-0.2-0.1-0.4-0.1h-0.4v1.4h0.2L42.5,14.9L42.5,14.9z
			 M42.5,14.3h0.2c0.1,0,0.2,0,0.2,0.1c0,0,0.1,0.1,0.1,0.2c0,0.2-0.1,0.2-0.3,0.2h-0.2C42.5,14.8,42.5,14.3,42.5,14.3z"/>
		<path id="XMLID_35_" class="st1" d="M39.6,17.5c0,0.8,0.4,1.2,1.1,1.2c0.2,0,0.4,0,0.6-0.1V18c-0.1,0.1-0.2,0.1-0.4,0.1
			c-0.2,0-0.4-0.1-0.5-0.2c-0.1-0.1-0.1-0.3-0.1-0.6v-2.3h1v-0.5h-1v-1.2c-0.2,0.1-0.4,0.1-0.6,0.2v1h-0.7v0.5h0.7V17.5z"/>
		<path id="XMLID_40_" class="st1" d="M42.7,15.9c0.3,0,0.6-0.1,0.8-0.3c0.2-0.2,0.3-0.5,0.3-0.8s-0.1-0.6-0.3-0.8
			c-0.2-0.2-0.5-0.3-0.7-0.3c-0.3,0-0.6,0.1-0.8,0.3c-0.2,0.2-0.3,0.5-0.3,0.7c0,0.3,0.1,0.6,0.3,0.8C42.2,15.8,42.4,15.9,42.7,15.9
			z M42.1,14.1c0.2-0.2,0.4-0.3,0.7-0.3c0.3,0,0.5,0.1,0.7,0.3c0.2,0.2,0.3,0.4,0.3,0.7s-0.1,0.5-0.3,0.7c-0.2,0.2-0.4,0.3-0.7,0.3
			c-0.3,0-0.5-0.1-0.7-0.3c-0.2-0.2-0.3-0.4-0.3-0.7C41.8,14.5,41.9,14.3,42.1,14.1z"/>
		<rect id="XMLID_41_" x="16.1" y="14.6" class="st1" width="0.6" height="4"/>
		<path id="XMLID_44_" class="st1" d="M26.1,18.7c0.6,0,1.1-0.2,1.5-0.6c0.4-0.4,0.5-0.9,0.5-1.5c0-0.6-0.2-1.2-0.5-1.5
			c-0.3-0.4-0.8-0.6-1.4-0.6s-1.1,0.2-1.5,0.5c-0.4,0.4-0.6,0.9-0.6,1.6c0,0.6,0.2,1.1,0.5,1.5C25,18.5,25.5,18.7,26.1,18.7z
			 M25.2,15.4c0.2-0.3,0.6-0.4,1-0.4c0.4,0,0.7,0.1,0.9,0.4c0.2,0.3,0.3,0.7,0.3,1.2c0,0.5-0.1,0.9-0.3,1.1c-0.2,0.3-0.5,0.4-1,0.4
			c-0.4,0-0.7-0.1-1-0.4c-0.2-0.3-0.4-0.6-0.4-1.1C24.8,16.1,24.9,15.7,25.2,15.4z"/>
		<path id="XMLID_47_" class="st1" d="M35.3,18.1c0.4-0.4,0.5-0.9,0.5-1.5s-0.2-1.2-0.5-1.5c-0.3-0.4-0.8-0.6-1.4-0.6
			c-0.6,0-1.1,0.2-1.5,0.5c-0.4,0.4-0.6,0.9-0.6,1.6c0,0.6,0.2,1.1,0.5,1.5c0.4,0.4,0.8,0.6,1.4,0.6C34.5,18.7,34.9,18.5,35.3,18.1z
			 M32.5,16.6c0-0.5,0.1-0.9,0.4-1.2c0.2-0.3,0.6-0.4,1-0.4c0.4,0,0.7,0.1,0.9,0.4c0.2,0.3,0.4,0.7,0.4,1.2c0,0.5-0.1,0.9-0.3,1.1
			c-0.2,0.3-0.5,0.4-1,0.4c-0.4,0-0.7-0.1-1-0.4C32.7,17.5,32.5,17.1,32.5,16.6z"/>
		<polygon id="XMLID_48_" class="st1" points="25.9,28.5 31.2,28.5 31.2,26.9 25.9,26.9 25.9,22 31.6,22 31.6,20.4 24.1,20.4 
			24.1,35.2 31.9,35.2 31.9,33.6 25.9,33.6 		"/>
		<polygon id="XMLID_49_" class="st1" points="33.6,22 37.8,22 37.8,35.2 39.5,35.2 39.5,22 43.8,22 43.8,20.4 33.6,20.4 		"/>
		<path id="XMLID_50_" class="st1" d="M5.3,33.1c-0.3,0-0.6,0.1-0.8,0.3S4.2,34,4.2,34.3c0,0.3,0.1,0.6,0.3,0.8
			c0.2,0.2,0.5,0.3,0.8,0.3c0.3,0,0.6-0.1,0.8-0.3c0.2-0.2,0.3-0.5,0.3-0.8c0-0.3-0.1-0.6-0.3-0.8C5.9,33.2,5.6,33.1,5.3,33.1z"/>
		<path id="XMLID_51_" class="st1" d="M22.8,14.7c-0.2,0.2-0.3,0.4-0.4,0.7h0v-0.8h-0.6v4h0.6v-2.1c0-0.5,0.1-0.8,0.3-1.1
			c0.2-0.2,0.4-0.4,0.7-0.4c0.2,0,0.4,0,0.5,0.1v-0.7c-0.1,0-0.2-0.1-0.4-0.1C23.2,14.5,23,14.6,22.8,14.7z"/>
		<polygon id="XMLID_52_" class="st1" points="9.6,13.7 9.6,13.7 11.7,18.6 12,18.6 14.1,13.7 14.1,13.7 14.1,18.6 14.7,18.6 
			14.7,13 13.9,13 11.9,17.6 11.8,17.6 9.9,13 9,13 9,18.6 9.6,18.6 		"/>
		<polygon id="XMLID_53_" class="st1" points="19.1,32.9 11.2,20.4 9,20.4 9,35.2 10.7,35.2 10.7,22.6 18.8,35.2 20.9,35.2 
			20.9,20.4 19.1,20.4 		"/>
	</g>
</g>
</svg>
