<?xml version="1.0" encoding="utf-8"?>
<!-- Generator: Adobe Illustrator 24.3.0, SVG Export Plug-In . SVG Version: 6.00 Build 0)  -->
<svg version="1.1" id="Layer_1" xmlns="http://www.w3.org/2000/svg" xmlns:xlink="http://www.w3.org/1999/xlink" x="0px" y="0px"
	 viewBox="0 0 48 48" style="enable-background:new 0 0 48 48;" xml:space="preserve">
<style type="text/css">
	.st0{fill-rule:evenodd;clip-rule:evenodd;fill:#2B2E3A;}
	.st1{fill:#9FEAF9;}
</style>
<g>
	<circle class="st0" cx="24" cy="24" r="24"/>
	<g>
		<path class="st1" d="M18.8,13.4c-4.9-0.9-8.7,0-10.3,2.7c-1.1,2-0.8,4.6,0.8,7.4c0.1,0.2,0.4,0.3,0.7,0.2c0.2-0.1,0.3-0.4,0.2-0.7
			c0,0,0,0,0,0c-1.5-2.5-1.7-4.8-0.8-6.4c1.3-2.2,4.7-3,9.2-2.2c0.3,0,0.5-0.1,0.6-0.4C19.3,13.7,19.1,13.5,18.8,13.4z M11.9,27
			c2,2.2,4.5,4.2,7.5,5.9c7.1,4.1,14.6,5.2,18.3,2.6c0.2-0.2,0.3-0.5,0.1-0.7c-0.2-0.2-0.5-0.3-0.7-0.1c0,0,0,0,0,0
			C33.8,37,26.6,35.9,19.9,32c-2.8-1.6-5.3-3.6-7.2-5.7c-0.2-0.2-0.5-0.2-0.7,0C11.7,26.5,11.7,26.8,11.9,27
			C11.9,27,11.9,27,11.9,27z"/>
		<path class="st1" d="M36.5,26.4c3.2-3.8,4.3-7.6,2.8-10.2c-1.1-2-3.5-3-6.7-3c-0.3,0-0.5,0.2-0.5,0.5c0,0.3,0.2,0.5,0.5,0.5
			c2.9,0,4.9,0.9,5.8,2.5c1.3,2.2,0.3,5.6-2.7,9.1c-0.2,0.2-0.2,0.5,0.1,0.7C36,26.6,36.3,26.6,36.5,26.4
			C36.5,26.4,36.5,26.4,36.5,26.4z M28.3,13.6c-2.9,0.6-6,1.8-8.9,3.5C12.1,21.4,7.3,27.6,8,32.1c0,0.3,0.3,0.5,0.6,0.4
			c0.3,0,0.5-0.3,0.4-0.6c0,0,0,0,0,0c-0.6-4,3.9-9.9,10.9-13.9c2.9-1.7,5.8-2.8,8.6-3.4c0.3-0.1,0.4-0.3,0.4-0.6
			C28.8,13.7,28.6,13.6,28.3,13.6C28.3,13.6,28.3,13.6,28.3,13.6L28.3,13.6z"/>
		<path class="st1" d="M16.5,35.2c1.7,4.7,4.4,7.5,7.5,7.5c2.2,0,4.3-1.5,5.9-4.2c0.1-0.2,0.1-0.5-0.2-0.7c-0.2-0.1-0.5-0.1-0.7,0.2
			c0,0,0,0,0,0c-1.5,2.4-3.2,3.7-5.1,3.7c-2.6,0-5-2.6-6.5-6.9c-0.1-0.3-0.4-0.4-0.6-0.3C16.5,34.6,16.4,34.9,16.5,35.2
			C16.5,35.2,16.5,35.2,16.5,35.2L16.5,35.2z M31.7,34.3c0.9-2.8,1.3-5.9,1.3-9.3c0-8.3-2.9-15.4-7-17.3c-0.3-0.1-0.5,0-0.7,0.3
			c-0.1,0.2,0,0.5,0.2,0.6C29.3,10.3,32,17.1,32,25c0,3.2-0.4,6.3-1.3,9c-0.1,0.3,0.1,0.5,0.3,0.6C31.3,34.7,31.6,34.6,31.7,34.3
			C31.7,34.3,31.7,34.3,31.7,34.3L31.7,34.3z M41.1,33.8c0-1.3-1.1-2.4-2.4-2.4s-2.4,1.1-2.4,2.4c0,1.3,1.1,2.4,2.4,2.4
			S41.1,35.1,41.1,33.8z M40.1,33.8c0,0.8-0.6,1.4-1.4,1.4c-0.8,0-1.4-0.6-1.4-1.4s0.6-1.4,1.4-1.4C39.5,32.4,40.1,33,40.1,33.8z
			 M9.1,36.2c1.3,0,2.4-1.1,2.4-2.4c0-1.3-1.1-2.4-2.4-2.4c-1.3,0-2.4,1.1-2.4,2.4C6.7,35.1,7.8,36.2,9.1,36.2z M9.1,35.2
			c-0.8,0-1.4-0.6-1.4-1.4c0-0.8,0.6-1.4,1.4-1.4c0.8,0,1.4,0.6,1.4,1.4C10.5,34.6,9.9,35.2,9.1,35.2z"/>
		<path class="st1" d="M23.9,10.2c1.3,0,2.4-1.1,2.4-2.4s-1.1-2.4-2.4-2.4c-1.3,0-2.4,1.1-2.4,2.4S22.6,10.2,23.9,10.2z M23.9,9.2
			c-0.8,0-1.4-0.6-1.4-1.4s0.6-1.4,1.4-1.4s1.4,0.6,1.4,1.4S24.7,9.2,23.9,9.2z M24.3,26.7c-0.9,0.2-1.9-0.4-2.1-1.3
			c-0.2-0.9,0.4-1.9,1.3-2.1c0.9-0.2,1.9,0.4,2.1,1.3C25.8,25.6,25.2,26.5,24.3,26.7z"/>
	</g>
</g>
</svg>
