<?xml version="1.0" encoding="utf-8"?>
<!-- Generator: Adobe Illustrator 24.3.0, SVG Export Plug-In . SVG Version: 6.00 Build 0)  -->
<svg version="1.1" id="Layer_1" xmlns="http://www.w3.org/2000/svg" xmlns:xlink="http://www.w3.org/1999/xlink" x="0px" y="0px"
	 viewBox="0 0 48 48" style="enable-background:new 0 0 48 48;" xml:space="preserve">
<path d="M14.3,40.7c-1.8-1.4-3.8-2.8-5.1-4.8c-2.8-3.4-5-7.4-6.4-11.6c-0.9-2.7-1.2-5.6-2.3-8.2c-1.2-1.9,0.2-4,2.3-4.6
	c0.9-0.2,2.5-1.1,0.6-0.4C1.6,12.5,1.4,10,3.2,9.9c1.2-0.2,1.7-1.2,1.3-2.1C3.1,6.9,7.6,6,5.4,4.7C3,2.2,8.7,1.7,7.3,4.6
	c-0.3,2.2,4-0.4,3,2.2c1,1.2,3.8,0.3,3.7,2c1.5,0.1,2,1.3,3.4,1.4c1.4,0.6,4,1.2,4.5,2.8c-1.4,1.1-4.7-2.3-4.9,0.8
	c0.4,4.6,0.3,9.4,2,13.8c0.8,2.7,2.7,4.8,4.5,6.8c1.7,2,3.9,3.5,6.3,4.7c2,1,4.2,1.6,6.4,2c0.9-0.7,2.5-3.2,3.9-2.2
	c0.1,1.2-2.8,2.5-0.1,2.4c1.6-0.5,2.6,1.2,3.9-0.3c1.2,1.4,4.9-0.9,4.1,2c-1.1,0.7-2.8,0.3-3.9,1.3c-1.9-0.9-3.4,0.8-5.4,0.6
	c-2.3,0.4-4.6,0.6-7,0.6c-3.8-0.3-7.7-0.4-11.4-1.8C18.1,43.1,16.1,41.9,14.3,40.7L14.3,40.7z M17.6,42.1c2,0.9,4,1.8,6.1,2.1
	c3.5,0.5,7.1,1.2,10.6,0.5c-1.6-0.7-3.2,0.3-4.8-0.5c-1.9,0.4-3.9-0.1-5.9-0.4c-2.2-1-4.5-1.6-6.6-2.9c-2.6-0.9,1.3,1.2,2,1.4
	c1.6,0.9-1.8-0.4-2.2-0.8c-1.3-0.8-1.5-0.6-0.1,0.2L17.6,42.1L17.6,42.1z M13.8,39.4c1.9,0.7,0-1.4-0.9-1.2
	c-0.4-0.7-1.5-1.1-0.7-1.5c-1.4,0.5-1.5-1.9-2.1-1.5C8.5,34.7,9.4,33,7.7,32c-0.2-1.1-1.8-2-2.3-3.6c-0.2-0.8-1.8-3.2-0.8-1
	c0.8,2.1,2.3,4,3.5,5.8c0.9,1.7,2.1,3.6,3.8,4.7C12.4,38.4,13,39.3,13.8,39.4L13.8,39.4z M8.2,33.3C8.2,33,8.5,33.9,8.2,33.3z
	 M16.1,40.3C16.5,40.1,15.5,40,16.1,40.3z M17.1,40.7C17,40.1,16.7,41,17.1,40.7z M18.5,41.2C19.1,40.6,17.5,40.8,18.5,41.2z
	 M20.7,42.5C21.1,41.9,19.5,42.3,20.7,42.5z M16.4,39.5C17.4,38.8,15.1,39.4,16.4,39.5z M17.4,40C17.3,39.6,17,40.1,17.4,40z
	 M22.3,43c0.8,0.5,4.6,1.1,2.2,0.2C24.1,43.3,20.1,42.1,22.3,43z M14.5,36.9C14.4,36.6,13.2,36.6,14.5,36.9z M16.8,38.3
	C17.4,37.8,15.5,37.9,16.8,38.3z M18.7,39.5C19.6,39.1,17.3,39.1,18.7,39.5z M13.5,35.9c0.9,0.7,3.8,0.1,1.4-0.4
	c-1.1-0.6-3.4-1-1.8,0.3L13.5,35.9L13.5,35.9z M20,39.9C20.4,39.2,18.4,39.5,20,39.9z M18,38.3c2.3,0.6-1.9-1.4-0.6-0.2l0.3,0.1
	L18,38.3L18,38.3z M22,40.6C24.2,40.6,20,40.3,22,40.6z M12.7,34.7C12.6,34.3,12.2,34.7,12.7,34.7z M25.6,42.6
	C25.7,41.9,24.9,43.2,25.6,42.6z M16.4,36.9C16.3,36.5,15.7,36.9,16.4,36.9z M12.9,34.4C14.1,34.3,11.2,33.9,12.9,34.4z M8.8,31.7
	C8.6,31.2,7.4,30.7,8.8,31.7z M19.6,38.6C19.4,38.4,19.5,38.7,19.6,38.6z M26.3,42.7C26.3,42.3,26,42.9,26.3,42.7z M19,38
	C19.1,37.5,18,37.8,19,38z M14,34.8C14.9,34.7,12.5,34.2,14,34.8z M22.5,40.1C23.9,39.5,21.1,39.8,22.5,40.1z M18.1,37.1
	c1.7,0.2-2-1.1-0.4-0.1L18.1,37.1z M23.8,40.6c1.5-0.9,1,2.2,2.6,0.3c1.6-1.1-1.4,1.4,0.6,0.2c1.4-0.9,3.5,0.4,4.8,0.9
	c0.9,0,1.8,0.8,2.8,0.3c1.8-0.5-3.6-0.7-2.2-1.6c-1.7,0.5-2.9-0.6-3.8-1.7c-1.9-0.4-4.1-1.4-5-3.1c-0.4-0.6,0.6,0.1-0.3-0.9
	c-1.1-1-1.7-2.2-2.5-3.4c-0.9-0.5-1-1.9-1.1,0c0-1.2-1.1-2-1.4-1.7c0-1.1,1.2-0.6,0.4-1.4c-0.2-1.2-0.8-2.4-1-3.8
	c-0.3-0.6,0-2-0.9-0.6c-0.3,1.5-0.1-1.9,0.4-0.8c0.7-1.2-0.2-1-0.3-0.9c0.4-1,0.3-2.4-0.1-1.8c0.2-1,0.4-3.8-0.3-3.3
	c0.4-1.1,0.8-4.9-1.1-3.5c-0.8,0-2.1,0.3-2.7,0.6c2,1.1-0.2,0.4-1,0.2c-0.1,1-0.9,0.6-1.9,0.6c1.6,0.2-0.8,1.6-1.7,1.1
	c-1.2,0.6,1,2,0,2.4c0.1,0.7-1.8-0.2-1.7,1.3c-1.1-0.5-0.2,1.8,0.4,1c1.9,0.5,1.4,1.7,1.4,2.9c-0.3,0.7-1.6-1.6-0.3-1.5
	c-1-1.7-1.1-0.6-2,0.2c-0.2,0.1,2.2,1.1,0.7,1.6C8,24.5,8,25.6,8.3,26.3c0.8,0.8,0.6-0.9,1.6,0.1c-0.6-0.9-3.1-2.5-1.1-1.9
	c0-0.9-0.4-1.6,0.3-1.6c0.6-1.1-0.7,2.8,0.8,1.3c0.4-0.2,0.5-1.1,1.2,0.1c1,1,0.4,1.7-1.1,0.8c0.3,0.9,1.9,1.2,1.6,2.5
	c0.3,1.2,0.8,0.8,1.2,0.7c0.3,1.2,0.5,0.3,0.5-0.2c1.4,0.3,1.1,1.2,1.6,1.8c1,0.4-1.4-3,0.3-1.1c1.8,1.6,0.7,2.3-0.9,2
	c1-0.1,1.3,1.4,2.6,1.3c1.2,0.6,2,2.7-0.1,1.8c-0.7-0.6-3.2-1.4-1.1-0.2c1.9,0.9,3.3,1.4,5.1,2.5c1.3,0.9,1.8,2,2.3,2.2
	c-1.1,0.5-3.2-0.4-1.7-0.7c-1-0.2-2.1-0.7-1.2,0.6c0.8,0.7,2.9,0.6,3.3,0.7c-0.3,0.7-0.9,0.8,0,0.8C22.4,40.2,23.7,40.3,23.8,40.6
	L23.8,40.6z M21.8,35c-0.6-0.6-0.7-1.8-0.1-0.8C22.1,34.4,22.8,36.1,21.8,35z M28.3,39.1C28.7,39.1,28.3,39.4,28.3,39.1z M20.9,33.5
	C20.9,32.5,21.1,34.2,20.9,33.5z M20.3,32.6C19.5,31.2,21.2,33,20.3,32.6z M12.5,27.2C12.9,27.1,12.7,28,12.5,27.2z M18.7,30.6
	C18.9,29.6,19,31.4,18.7,30.6z M14.3,27.5C14,27,14.9,28,14.3,27.5z M18,28.7c-0.7-1.6,0.5-0.9,0.2,0.3L18,28.7z M11.5,24.4
	c-0.3-0.5-0.8-2-0.7-2.5c0.1,0.8,1.6,3.3,0.7,1c-1-1.9,1.2,0.6,1.4,1.1c0.1,0.5-0.6-0.1-0.1,1C12,23.7,12.3,25.7,11.5,24.4
	L11.5,24.4z M9.5,23C9.6,21.8,10,23.8,9.5,23z M10.4,23.3C10.9,22.4,11.2,24.6,10.4,23.3z M8.3,21.7c-0.7-0.7-1.3-1.4,0-0.5
	c0.5,0-1.1-1.6,0.1-0.5C9.7,21,9.1,22.9,8.3,21.7L8.3,21.7z M9.4,21.7C9.8,21.2,9.6,22.1,9.4,21.7z M10.1,21.9
	C9.4,20.6,10.9,22.4,10.1,21.9z M8.7,20.5c-2.2-1.9,2.7,1,0.4,0.4L8.7,20.5z M14.9,24.2c-0.9-0.6-0.3-4,0.1-1.6
	c0.9-0.3-0.1,1.2,0.6,1.2C15.5,24.7,15.2,25,14.9,24.2L14.9,24.2z M17.2,25.5C17.3,24.5,17.4,26.2,17.2,25.5z M16.8,25.1
	C16.9,24.7,16.8,25.6,16.8,25.1z M9.1,19.9c-1.4-1.9,4.1,1.9,0.9,0.5C9.7,20.3,9.3,20.3,9.1,19.9z M13.6,22.3
	C13.4,20.6,13.9,22.5,13.6,22.3z M16.9,24.4C17.2,23.5,17,25,16.9,24.4z M9.4,19.2c0.8-0.2,3.4,1.5,1,0.5
	C10.1,19.3,9.6,19.5,9.4,19.2z M16.5,22.7c0.1-1.7,0.5-1,0,0.2L16.5,22.7z M10,18.6c0.3-0.5-0.9-2.2,0.2-0.6
	c0.5,0.4,1.3,0.6,0.6,0.8C11.9,19.8,10.4,19,10,18.6L10,18.6z M16.1,22.2C16.4,20.3,16.3,23.3,16.1,22.2z M9.3,16.9
	C9.5,16.7,9.4,17.2,9.3,16.9z M10.9,17.8C11.3,16.9,11.6,18.8,10.9,17.8z M15.4,20.3C15.4,20,15.5,20.8,15.4,20.3z M15.1,19.7
	C14.5,18.2,15.7,20.6,15.1,19.7z M14.7,18.7C14.6,18.1,15.1,19.5,14.7,18.7z M15.4,17.7C14.9,17,15.9,14.4,16,16
	c-0.5,1.3-0.1,2,0.2,0.3C16.8,14.9,16.1,18.8,15.4,17.7L15.4,17.7z M16,13.9C16.2,13.6,16.1,14.1,16,13.9z M14.9,35.1
	C14.7,34.9,15,35.2,14.9,35.1z M17.2,36.2c1.2,0.3,1.2-0.2,0.1-0.3c-0.6-0.6-2.5-1.2-0.8-0.1C16.6,36.1,16.9,36.1,17.2,36.2
	L17.2,36.2z M12.8,33.3c0.7,0.5,2.6,1.4,1,0.2c0.5-0.6-1-1-0.5-1.4c-1.3-0.8-1-0.8-0.1-0.7c-1.6-0.7,0.2-0.7,0.1-1
	c-0.6-0.1-3-1.1-1.6,0.1c-1.5-0.7-0.3,0.3-0.8,0.2c-1.5-0.4,1.3,1.1-0.2,0.8c0.9,0.7,2.3,1.7,0.4,0.7C10.7,32.5,12.4,33,12.8,33.3
	L12.8,33.3z M15.1,34.6C17.9,35.5,13.7,33.5,15.1,34.6z M27,41.8C27,41.3,26.6,42.3,27,41.8z M28.2,42.3c0.7-0.6,0,1,1.1-0.2
	c0-0.8,0-1.3-1.2-0.3C27.8,42.1,27.6,42.8,28.2,42.3L28.2,42.3z M8.8,30.2C8.6,29.4,7.4,29.4,8.8,30.2z M10.1,31
	C9.6,30.2,8.4,30.3,10.1,31z M17.5,35.5c0.7,0.6,3.3,0.5,0.9,0.1C18.1,35,16.1,35.2,17.5,35.5z M27.7,41.8
	C28.9,40.9,26.7,42.2,27.7,41.8z M30.1,43.4C30.1,43.1,29.6,43.5,30.1,43.4z M30.1,43C31.3,41.7,28.9,43,30.1,43z M5.6,27.5
	C4.6,26,5,25.3,3.9,24.1c-0.2-0.9-1.7-3.1-0.8-0.8C4,24.6,4.3,26.6,5.6,27.5L5.6,27.5z M29.7,42.6C31.9,41.1,28.7,41.9,29.7,42.6z
	 M31.4,43.2C32.5,42.3,30.7,43,31.4,43.2z M8.4,28.5C8.8,28,7.6,28.4,8.4,28.5z M31,42.8c1.1-0.7-0.3-0.6-0.2,0.1L31,42.8z
	 M16.1,33.3C16.1,32.9,15.5,33.4,16.1,33.3z M17,33.9C16.7,33.3,16.6,34,17,33.9z M32.8,43.2c1.4-1-0.9-0.2-0.3,0.2L32.8,43.2z
	 M32.3,43C33.4,42,31.1,43.4,32.3,43z M35,44.8C35.8,44.3,34.1,44.7,35,44.8z M9.1,28.2c1,0.2,4.1,2.5,2.3,0.2
	c-0.9-0.3-0.4-2.6-1.3-2.2c0.6,1.1,0.5,1.5-0.8,0.9c-1.7-0.8-0.9,0.4-0.6,0.8C8.2,27.9,9.3,28.2,9.1,28.2L9.1,28.2z M4.4,24.4
	c0.2-0.8-1.7-4.2-0.9-1.7C3.8,23.2,3.8,24.2,4.4,24.4z M13.1,29.8C12.5,29.3,13.1,29.7,13.1,29.8z M14.4,30.1
	C14.4,29.3,12.9,29.7,14.4,30.1z M25.8,37.2C25.5,36.7,24.9,37.2,25.8,37.2z M26.3,37.6C26.2,37.3,26,37.7,26.3,37.6z M30.8,40.5
	C31.2,40.2,30.3,40.4,30.8,40.5z M6.8,25C8,24.6,5.5,24.7,6.8,25z M24.8,36.4C24.7,35.6,24,36.6,24.8,36.4z M6.3,23.9
	C7.1,23.6,5.6,23.7,6.3,23.9z M8.6,25C8.6,24.8,8.4,25.1,8.6,25z M36.8,42.3c1-0.2,3.4,0.5,3.7-0.3c-1.2,0-4.3-0.9-4.4,0.2l0.3,0
	L36.8,42.3L36.8,42.3z M9.3,25.2C9.4,24.4,8.7,25.2,9.3,25.2z M3.3,21C3,19.4,2.2,20.8,3.3,21z M4.7,21.4
	C4.7,20.9,3.4,20.9,4.7,21.4z M5.5,21.8C5.3,21.6,5.4,22,5.5,21.8z M10.7,25.1C11,24.9,10.2,24.9,10.7,25.1z M5,20.8
	C4.8,19.7,3.3,20.7,5,20.8z M2,18.9C2,18.4,1.7,19.1,2,18.9z M2.5,18.6C2.4,17.9,2.1,18.7,2.5,18.6z M4.9,20c1-0.4-1.9-0.8-0.2-0.1
	L4.9,20z M37.6,40.2C38.2,39.6,36.7,40,37.6,40.2z M41.5,42.3C41.8,41.5,40.8,42.4,41.5,42.3z M5.1,18.8C5.3,18,4.3,18.9,5.1,18.8z
	 M1.7,16.4c-0.2-1.1-0.2-2.9,1.6-2.3c-2.4,0.5,1.6,3,1.1,1c1,0,2-0.6,1.4,0.4c2-0.2,3.3-1.9,5.2-1.7c1.5-0.2,3.1-0.3,4.7-0.9
	c1.3-0.1,2.6-1.5,1.9-2.4C15.9,10.4,14,10.6,12,11c-2.2,0.5-4.2,1.3-6.4,1.7c-2.2,0.3,0.4,0.8-0.2,0.9c-1.1,0.4,1.3,0.7-0.1,1.1
	c-0.9-0.2-1.9-0.5-1.5-1.5c-2.1,0.3-3.9,1.1-2.3,3.2L1.7,16.4L1.7,16.4z M6.7,13.9c0.5-1.8,2.6,1.5,0.8,0.2
	C7.2,14,6.9,13.9,6.7,13.9z M6.8,13C7.5,12.5,7.1,13.3,6.8,13z M7.7,13.1c0.1-0.8,2,0.4,0.3,0.3L7.7,13.1z M8.9,12.6
	C9.3,12,9,13,8.9,12.6z M9.2,12.4c0.7-0.9,4.2-0.6,1.6-0.1C10.2,11.8,9.6,12.6,9.2,12.4z M13.7,11.7C13.6,9.2,15.9,12.5,13.7,11.7z
	 M15,11.7c0.5-1.2,1.8-0.5,0.2-0.2C15.2,11.5,15.1,12,15,11.7z M4.6,18.1C6,17.3,3.2,17.4,4.6,18.1z M5.7,18.4
	C6.2,17.9,4.6,18.2,5.7,18.4z M2.6,16.3C3.4,15.6,1.7,16,2.6,16.3z M43.8,42C43.9,41.3,43.2,42.4,43.8,42z M39.7,39.2
	C39.8,38.4,39.1,39.3,39.7,39.2z M45,42.3c1.1,0,3.4-0.3,1-0.3C45.6,42,43.7,42,45,42.3z M6.6,17.9c0.9-0.1,1.4-1-0.2-0.9
	c-2.5-0.3,2.2,0.8-0.3,0.5C5.8,17.7,6.6,18,6.6,17.9L6.6,17.9z M7.4,18.3C7.3,17.7,7.1,18.6,7.4,18.3z M8.3,15.8
	C8.7,15.3,7.8,15.7,8.3,15.8z M5.3,10.8c1.6-0.5,3.8-1.2,4.6,0.3c-0.8-0.9-0.3-1.8,0.4-0.5c1,1.4,1.6-0.6,0.9-1.1
	c0.8,1,1.6,1.4,0.5,0.1c1.2-1.5-2.4,0.2-3.3,0.2C8,9.9,4.3,10.7,5.3,10.8L5.3,10.8z M6.3,9C7.2,8.3,9.5,9.4,8,8.3
	C7.9,8.2,4.8,9.1,6.3,9z M9.6,9.1c1.1,0-0.5-1.4,0.8-0.8c-0.2-0.7-1.5-0.8-2.1-1.1C8,7.9,9,9.1,9.6,9.1L9.6,9.1z M6.9,6.1
	C7.2,5.6,6.2,6.3,6.9,6.1z M8.2,6.4c1.7-0.2-0.4-0.7-0.3,0L8.2,6.4z M5.7,4.4C4.4,2.8,8,4.7,6.7,3C5.7,2.2,4.7,4,5.7,4.4z
	 M21.3,12.8c0.6-1-2.3-1.3-0.4-0.4C21.1,12.6,21.1,12.9,21.3,12.8z"/>
</svg>
