<?xml version="1.0" encoding="utf-8"?>
<!-- Generator: Adobe Illustrator 24.3.0, SVG Export Plug-In . SVG Version: 6.00 Build 0)  -->
 <svg version="1.0" xmlns="http://www.w3.org/2000/svg"  width="225.000000pt" height="225.000000pt" viewBox="0 0 225.000000 225.000000"  preserveAspectRatio="xMidYMid meet">  <g transform="translate(0.000000,225.000000) scale(0.100000,-0.100000)" fill="#000000" stroke="none"> <path d="M402 2018 c-19 -19 -15 -34 19 -72 l30 -35 -23 -20 c-13 -11 -32 -27 -43 -35 -17 -12 -18 -17 -6 -40 12 -22 12 -28 -2 -49 -9 -14 -28 -28 -44 -32 -37 -9 -53 -23 -53 -46 0 -23 7 -23 54 -4 20 8 36 11 36 7 0 -5 -28 -19 -62 -33 -102 -39 -129 -99 -87 -194 11 -25 36 -108 55 -182 63 -247 150 -423 305 -619 99 -125 288 -253 447 -305 172 -54 429 -80 612 -60 170 19 183 21 234 37 26 9 62 14 80 11 18 -3 42 1 56 9 14 7 34 13 45 14 11 0 37 5 58 11 33 9 38 14 35 37 -3 26 -5 27 -73 30 -38 2 -75 8 -82 14 -10 8 -18 6 -33 -7 -17 -16 -25 -17 -59 -7 -21 7 -59 12 -85 12 -25 0 -46 3 -46 6 0 4 13 22 30 41 34 38 37 48 14 57 -23 9 -66 -15 -81 -44 -7 -14 -13 -21 -13 -16 0 5 -11 -1 -24 -13 -21 -20 -31 -22 -68 -16 -110 19 -296 103 -376 170 -17 14 -36 24 -44 22 -7 -2 -10 -2 -6 0 4 3 -26 44 -66 93 -96 114 -131 166 -155 228 -47 120 -67 238 -86 522 -9 130 -2 136 127 99 36 -10 51 -10 59 -2 19 19 -35 59 -125 93 -116 44 -195 83 -195 97 -1 17 -34 33 -68 33 -48 0 -78 22 -75 53 3 26 2 27 -51 27 -64 0 -80 13 -71 59 4 19 2 37 -6 46 -15 18 -71 20 -88 3z m76 -20 c3 -14 -3 -18 -28 -18 -21 0 -29 -4 -24 -12 4 -7 3 -8 -4 -4 -28 17 -2 59 33 54 11 -2 21 -11 23 -20z m19 -145 c5 -14 -53 -46 -68 -37 -14 8 31 56 50 52 8 -2 16 -8 18 -15z m91 -29 c20 -9 32 -18 25 -21 -7 -2 -9 -11 -6 -19 8 -22 -27 -17 -54 8 -24 22 -31 48 -13 48 6 0 27 -7 48 -16z m-53 -34 c3 -6 -4 -10 -18 -10 -14 0 -40 -2 -58 -5 l-34 -5 30 14 c35 18 71 20 80 6z m147 -33 c-1 -8 2 -18 8 -22 5 -3 10 -11 10 -17 0 -6 -9 -3 -21 8 -16 15 -21 16 -19 4 7 -44 -14 -54 -45 -20 -22 25 -36 26 -28 3 5 -15 3 -16 -8 -5 -17 16 -65 15 -124 -3 -44 -13 -66 -13 -53 0 7 8 262 73 273 70 6 -1 9 -9 7 -18z m244 -58 c11 -18 -16 -57 -51 -73 -42 -20 -143 -43 -223 -51 -41 -4 -87 -18 -135 -41 -60 -29 -73 -32 -75 -18 -2 9 -10 13 -19 10 -8 -3 -21 -6 -29 -6 -8 0 -14 -7 -14 -15 0 -19 -30 -19 -58 1 -26 18 -28 39 -5 53 16 9 16 10 -3 11 -30 0 -46 -23 -46 -65 0 -43 -11 -45 -28 -6 -15 38 0 68 45 87 46 19 62 18 68 -6 3 -11 17 -24 32 -30 32 -12 51 -4 34 16 -6 8 -8 14 -3 14 5 0 0 7 -10 15 -11 8 -18 16 -15 18 2 2 36 11 74 20 39 10 120 31 180 47 116 30 267 41 281 19z m-56 -130 c6 -11 11 -48 10 -82 -2 -107 9 -248 19 -261 6 -7 6 -17 1 -26 -6 -8 -10 -10 -10 -5 0 6 -5 3 -10 -5 -12 -19 -13 -50 -1 -50 5 0 8 7 7 16 0 9 4 19 11 21 6 2 14 -13 18 -38 4 -22 17 -72 30 -110 18 -58 20 -71 9 -80 -8 -6 -14 -16 -14 -22 0 -6 3 -7 7 -4 9 10 43 -23 43 -42 0 -13 2 -13 9 -2 6 10 15 5 34 -20 54 -70 121 -164 122 -171 0 -3 11 -21 23 -38 22 -29 129 -90 159 -90 6 0 30 -16 54 -35 23 -20 48 -34 56 -31 8 3 11 1 8 -4 -4 -6 7 -10 24 -10 17 0 31 -4 31 -9 0 -5 23 -14 50 -21 57 -14 71 -27 38 -35 -25 -6 -96 11 -195 47 -60 22 -62 22 -99 5 -32 -16 -36 -16 -24 -2 7 8 10 18 7 21 -3 3 -12 -3 -19 -15 -16 -27 -40 -27 -56 0 -7 11 -21 19 -30 18 -9 -2 -27 3 -40 9 -12 7 -27 10 -32 7 -5 -3 -11 -1 -15 5 -3 5 2 10 12 10 18 0 43 17 43 30 0 4 -23 7 -51 8 -54 1 -99 23 -99 47 0 17 4 18 38 8 17 -4 20 -8 11 -14 -15 -9 28 -29 64 -29 18 0 15 6 -22 44 -46 46 -117 89 -210 126 -30 11 -63 27 -74 35 -20 14 -19 14 16 13 20 -1 34 -5 31 -10 -5 -7 10 -12 29 -9 5 1 6 -3 2 -9 -3 -5 3 -10 14 -10 14 0 21 6 21 18 0 21 -35 62 -53 62 -7 0 -28 11 -46 24 l-34 25 27 7 c36 9 34 43 -5 80 l-31 29 16 -32 c20 -39 20 -39 1 -47 -20 -7 -47 3 -39 16 3 5 12 4 21 -4 14 -11 15 -10 8 12 -4 14 -12 31 -17 38 -14 16 -38 15 -38 -2 0 -12 -4 -12 -30 0 -16 9 -30 19 -31 22 -3 31 -11 58 -20 69 -17 20 -31 16 -19 -6 5 -11 10 -28 10 -37 0 -10 12 -30 27 -46 40 -42 20 -45 -52 -9 -85 42 -119 98 -44 72 18 -6 36 -11 40 -11 10 0 6 56 -4 67 -4 3 -7 11 -7 17 0 6 5 5 12 -2 16 -16 48 -15 48 1 0 6 -7 20 -15 30 -7 11 -11 25 -8 33 3 8 -1 14 -8 14 -7 0 -9 -3 -6 -6 9 -9 -41 -46 -53 -39 -5 3 -7 19 -3 35 3 19 1 30 -6 30 -6 0 -11 -16 -11 -35 0 -28 -3 -33 -17 -28 -10 3 0 -13 22 -36 21 -22 35 -41 30 -41 -6 0 -20 -3 -32 -6 -17 -5 -22 0 -28 25 -4 18 -18 39 -31 48 -19 12 -22 18 -12 25 10 7 7 14 -14 30 -25 20 -26 22 -11 44 19 29 39 31 53 4 7 -14 7 -20 0 -20 -15 0 -12 -36 5 -50 13 -11 15 -6 15 34 0 37 -4 48 -24 61 -13 9 -28 15 -32 14 -20 -3 -32 2 -38 17 -8 21 32 64 60 64 33 0 45 21 29 50 -24 42 -19 60 16 60 41 0 72 18 65 37 -5 12 -1 14 20 9 18 -5 30 -2 38 9 9 12 18 13 46 5 31 -8 33 -8 17 4 -22 17 -13 23 44 32 24 4 51 10 59 15 23 13 28 11 40 -12z m-524 -145 c0 -16 4 -36 8 -45 8 -19 -18 -44 -34 -34 -7 4 -10 15 -7 26 3 10 -3 25 -14 35 -25 23 -24 42 4 47 35 7 42 2 43 -29z m149 6 c0 -9 -11 -16 -29 -18 -22 -3 -27 0 -23 12 3 8 1 17 -6 20 -7 3 4 4 23 3 23 -1 35 -7 35 -17z m-95 -90 c8 -5 12 -12 8 -15 -9 -9 -48 4 -48 16 0 12 21 11 40 -1z m0 -40 c0 -5 -5 -10 -11 -10 -5 0 -7 -4 -4 -10 3 -5 -1 -10 -9 -10 -18 0 -19 2 -10 24 7 17 34 22 34 6z m-46 -77 c7 -16 21 -57 30 -93 9 -36 23 -75 32 -87 19 -30 1 -30 -20 0 -8 12 -2 -6 15 -41 30 -63 81 -138 119 -177 11 -11 26 -38 33 -60 8 -23 24 -45 37 -52 13 -6 30 -23 37 -37 13 -24 24 -31 46 -27 5 1 6 -2 3 -7 -6 -10 34 -49 77 -75 15 -10 27 -24 27 -32 0 -25 -45 0 -117 63 -96 85 -319 428 -299 461 4 5 -10 44 -29 86 -40 88 -41 92 -19 74 15 -12 16 -11 10 9 -10 31 1 28 18 -5z m120 -138 c14 -13 26 -35 26 -49 0 -14 4 -36 10 -50 10 -27 4 -56 -11 -56 -14 0 -41 48 -49 88 -4 20 -11 49 -15 65 -9 34 4 35 39 2z m235 -171 c31 -7 43 -24 16 -24 -18 0 -20 -16 -2 -23 6 -3 4 -6 -7 -6 -17 -1 -16 -4 8 -27 23 -24 60 -84 51 -84 -8 0 -135 72 -135 77 0 2 10 1 23 -2 18 -5 16 -2 -8 14 -18 12 -24 21 -15 21 12 1 11 3 -2 11 -10 5 -18 15 -18 20 0 6 4 8 9 5 5 -3 11 1 15 9 6 17 18 18 65 9z m-99 -88 c0 -7 12 -23 26 -37 54 -51 56 -96 2 -58 -28 21 -70 96 -61 111 6 11 33 -3 33 -16z m120 -87 c0 -5 -4 -7 -10 -4 -5 3 -10 3 -10 -2 0 -14 122 -45 130 -33 5 7 22 3 56 -14 41 -21 45 -26 24 -26 -14 0 -36 7 -49 16 -22 16 -24 16 -33 0 -5 -9 -19 -16 -32 -16 -27 0 -96 27 -96 38 0 4 -3 17 -6 30 -5 16 -2 22 10 22 9 0 16 -5 16 -11z m212 -42 c44 -15 59 -27 34 -27 -20 0 -86 27 -86 34 0 9 11 7 52 -7z m-98 -104 c-11 -45 -15 -47 -39 -17 -27 34 -24 44 16 44 27 0 29 -2 23 -27z m106 -10 c13 -13 12 -14 -10 -8 -14 4 -32 14 -40 22 -13 13 -12 14 10 8 14 -4 32 -14 40 -22z m112 -98 c13 -17 29 -25 49 -25 31 0 95 -27 86 -37 -13 -12 -182 32 -207 54 -12 11 -11 13 7 13 12 0 25 5 28 10 9 15 15 12 37 -15z m-166 -3 c-3 -5 24 -22 58 -39 49 -25 66 -29 76 -20 10 9 12 8 7 -5 -4 -11 1 -18 16 -22 12 -3 23 -2 25 3 3 9 138 -22 150 -33 11 -11 -53 -5 -93 9 -52 19 -57 12 -7 -8 52 -21 151 -30 370 -35 135 -3 117 -22 -20 -22 -217 0 -427 44 -582 122 -59 30 -60 30 -35 44 27 15 43 18 35 6z m489 -61 c-6 -21 -25 -30 -25 -12 0 5 -10 7 -22 4 -21 -4 -21 -3 6 22 31 29 53 22 41 -14z m45 4 c-9 -11 -9 -15 -1 -15 7 0 9 -4 6 -10 -12 -19 -32 -10 -30 13 3 28 2 27 21 27 14 0 14 -3 4 -15z m395 5 c51 -12 8 -21 -80 -16 -94 5 -88 3 -80 16 7 11 114 11 160 0z m246 -12 c-30 -7 -47 -6 -54 1 -8 8 4 11 44 10 l54 -1 -44 -10z m-599 -11 c-9 -11 -3 -13 33 -11 42 2 60 -8 33 -19 -18 -6 -77 3 -84 14 -7 11 4 29 18 29 7 0 7 -4 0 -13z m196 -17 c9 -5 44 -12 77 -16 56 -6 58 -7 30 -16 -16 -5 -60 -10 -97 -11 -78 -2 -103 12 -67 37 27 19 33 19 57 6z"/> <path d="M756 1685 c-9 -24 -8 -25 15 -25 14 0 19 5 17 17 -4 23 -24 27 -32 8z"/> <path d="M594 1650 c-12 -5 -25 -14 -29 -20 -6 -9 -2 -9 13 -1 11 6 37 11 56 11 20 0 36 5 36 10 0 12 -47 12 -76 0z"/> <path d="M470 1583 c0 -10 52 -34 58 -28 3 2 -1 11 -8 20 -13 15 -50 21 -50 8z"/> <path d="M830 1491 c-13 -25 -13 -81 0 -81 5 0 14 9 20 19 13 26 13 40 -1 21 -8 -11 -9 -5 -4 23 7 41 1 47 -15 18z"/> <path d="M598 1405 c5 -15 18 -35 30 -43 32 -21 27 1 -8 39 l-29 33 7 -29z"/> <path d="M571 1351 c-19 -12 -6 -29 36 -46 49 -21 52 -12 8 18 -24 16 -32 27 -23 30 7 3 9 6 3 6 -5 0 -16 -3 -24 -8z"/> <path d="M528 1299 c18 -20 15 -34 -5 -18 -13 11 -13 8 2 -13 11 -15 26 -28 33 -28 23 0 12 38 -15 55 -16 10 -22 12 -15 4z"/> <path d="M790 1214 c0 -39 22 -85 35 -73 9 10 -5 75 -21 96 -12 16 -13 14 -14 -23z"/> <path d="M641 1228 c-1 -10 6 -35 15 -57 12 -30 20 -39 39 -37 13 0 21 4 19 8 -2 3 1 8 6 10 6 2 -5 21 -25 43 -35 38 -37 37 -19 -10 4 -12 3 -17 -2 -12 -5 5 -14 23 -21 40 -6 18 -12 24 -12 15z"/> <path d="M1060 755 c0 -3 7 -17 16 -30 23 -36 39 -31 17 5 -15 27 -33 40 -33 25z"/> </g> </svg> 
