<?xml version="1.0" encoding="utf-8"?>
<!-- Generator: Adobe Illustrator 24.3.0, SVG Export Plug-In . SVG Version: 6.00 Build 0)  -->
<svg version="1.1" id="Layer_1" xmlns="http://www.w3.org/2000/svg" xmlns:xlink="http://www.w3.org/1999/xlink" x="0px" y="0px"
	 viewBox="0 0 48 48" style="enable-background:new 0 0 48 48;" xml:space="preserve">
<style type="text/css">
	.st0{fill-rule:evenodd;clip-rule:evenodd;fill:#FF2D20;}
</style>
<g>
	<path class="st0" d="M47.3,10.9c0,0.1,0,0.1,0,0.2v10.3c0,0.3-0.1,0.5-0.4,0.7l-8.6,5v9.9c0,0.3-0.1,0.5-0.4,0.7L19.9,47.9
		c0,0-0.1,0-0.1,0.1c0,0,0,0-0.1,0c-0.1,0-0.3,0-0.4,0c0,0,0,0-0.1,0c0,0-0.1,0-0.1-0.1l-18-10.4c-0.2-0.1-0.4-0.4-0.4-0.7V5.9
		c0-0.1,0-0.1,0-0.2c0,0,0,0,0-0.1c0,0,0-0.1,0-0.1c0,0,0,0,0.1-0.1c0,0,0-0.1,0.1-0.1c0,0,0,0,0.1-0.1c0,0,0.1,0,0.1-0.1h0l9-5.2
		c0.2-0.1,0.5-0.1,0.8,0l9,5.2h0c0,0,0.1,0,0.1,0.1c0,0,0.1,0,0.1,0.1c0,0,0,0.1,0.1,0.1c0,0,0,0,0.1,0.1c0,0,0,0.1,0,0.1
		c0,0,0,0,0,0.1c0,0.1,0,0.1,0,0.2v19.3l7.5-4.3v-9.9c0-0.1,0-0.1,0-0.2c0,0,0,0,0-0.1c0,0,0-0.1,0-0.1c0,0,0,0,0.1-0.1
		c0,0,0-0.1,0.1-0.1c0,0,0,0,0.1-0.1c0,0,0.1,0,0.1-0.1h0l9-5.2c0.2-0.1,0.5-0.1,0.8,0l9,5.2c0,0,0.1,0,0.1,0.1c0,0,0.1,0,0.1,0.1
		c0,0,0,0.1,0.1,0.1c0,0,0,0,0.1,0.1C47.2,10.7,47.2,10.8,47.3,10.9C47.3,10.8,47.3,10.8,47.3,10.9z M45.8,20.9v-8.6l-3.2,1.8
		l-4.4,2.5v8.6L45.8,20.9L45.8,20.9z M36.8,36.4v-8.6l-4.3,2.5l-12.3,7v8.7C20.2,45.9,36.8,36.4,36.8,36.4z M2.2,7.2v29.2l16.5,9.5
		v-8.7l-8.6-4.9l0,0l0,0c0,0-0.1,0-0.1-0.1c0,0-0.1,0-0.1-0.1l0,0c0,0,0-0.1-0.1-0.1c0,0,0,0-0.1-0.1l0,0c0,0,0-0.1,0-0.1
		c0,0,0-0.1,0-0.1v0c0,0,0-0.1,0-0.1c0,0,0-0.1,0-0.1v0V11.6L5.3,9.1L2.2,7.2L2.2,7.2z M10.5,1.6L2.9,5.9l7.5,4.3L18,5.9L10.5,1.6
		L10.5,1.6z M14.4,28.6l4.4-2.5V7.2l-3.2,1.8l-4.4,2.5v18.9C11.2,30.4,14.4,28.6,14.4,28.6z M37.5,6.7L30,11.1l7.5,4.3l7.5-4.3
		C45.1,11.1,37.5,6.7,37.5,6.7z M36.8,16.7l-4.4-2.5l-3.2-1.8v8.6l4.4,2.5l3.2,1.8C36.8,25.3,36.8,16.7,36.8,16.7z M19.5,36l11-6.3
		l5.5-3.1l-7.5-4.3l-8.6,5L12,31.7C12,31.7,19.5,36,19.5,36z"/>
</g>
</svg>
