<?xml version="1.0" encoding="utf-8"?>
<!-- Generator: Adobe Illustrator 24.3.0, SVG Export Plug-In . SVG Version: 6.00 Build 0)  -->
<svg version="1.1" id="Layer_1" xmlns="http://www.w3.org/2000/svg" xmlns:xlink="http://www.w3.org/1999/xlink" x="0px" y="0px"
	 viewBox="0 0 48 48" style="enable-background:new 0 0 48 48;" xml:space="preserve">
<style type="text/css">
	.st0{fill-rule:evenodd;clip-rule:evenodd;fill:#CC0000;}
</style>
<g transform="translate(8 8)">
	<path class="st0" d="M33.8,22.2v2.2h4c0.8,0,2.2-0.6,2.3-2.3v-0.8c0-1.4-1.2-2.3-2.3-2.3h-2v-1h3.9v-2.2h-3.8c-1,0-2.3,0.8-2.3,2.3
		v0.8c0,1.5,1.3,2.3,2.3,2.3c2.7,0-0.7,0,1.9,0v1.1 M12.5,21.7c0,0,2.1-0.2,2.1-2.9s-2.6-3-2.6-3H7.5v8.6h2.3v-2.1l2,2.1h3.4
		L12.5,21.7z M11.6,19.9H9.8v-2h1.9c0,0,0.5,0.2,0.5,1C12.2,19.7,11.6,19.9,11.6,19.9z M20.4,15.9H18c-1.7,0-2.3,1.5-2.3,2.3v6.3
		h2.4v-1.5h2.2v1.5h2.3v-6.3C22.7,16.3,21,15.9,20.4,15.9z M20.4,20.5h-2.2v-2.1c0,0,0-0.5,0.7-0.5h0.8c0.7,0,0.7,0.5,0.7,0.5
		L20.4,20.5L20.4,20.5z"/>
	<rect x="23.7" y="15.9" class="st0" width="2.5" height="8.6"/>
	<polygon class="st0" points="29.7,22.2 29.7,15.9 27.2,15.9 27.2,22.2 27.2,24.4 29.7,24.4 33,24.4 33,22.2 	"/>
	<path class="st0" d="M-7.2,24.4h9.6c0,0-1.8-8.4,4.2-11.7c1.3-0.6,5.5-3,12.4,2c0.2-0.2,0.4-0.3,0.4-0.3S13.2,8.1,6.2,8.8
		c-3.5,0.3-7.9,3.5-10.4,7.8S-7.2,24.4-7.2,24.4z"/>
	<path class="st0" d="M-7.2,24.4h9.6c0,0-1.8-8.4,4.2-11.7c1.3-0.6,5.5-3,12.4,2c0.2-0.2,0.4-0.3,0.4-0.3S13.2,8.1,6.2,8.8
		c-3.5,0.3-7.9,3.5-10.4,7.8S-7.2,24.4-7.2,24.4z"/>
	<path class="st0" d="M-7.2,24.4h9.6c0,0-1.8-8.4,4.2-11.7c1.3-0.6,5.5-3,12.4,2c0.2-0.2,0.4-0.3,0.4-0.3S13.2,8.1,6.2,8.8
		c-3.5,0.3-7.9,3.5-10.4,7.8S-7.2,24.4-7.2,24.4z M12.8,9.5l0-0.8c-0.1-0.1-0.4-0.2-1.2-0.4l0,0.8C12,9.2,12.4,9.4,12.8,9.5z"/>
	<path class="st0" d="M11.7,12.1l0,0.8c0.4,0,0.8,0.1,1.2,0.1l0-0.8C12.4,12.2,12,12.1,11.7,12.1z M7.2,8.3h0.1L7,7.6
		c-0.4,0-0.8,0-1.2,0.1l0.2,0.7C6.5,8.3,6.8,8.3,7.2,8.3z M7.7,12.8L8,13.6c0.4-0.2,0.7-0.3,1.1-0.4l-0.3-0.8
		C8.4,12.5,8.1,12.6,7.7,12.8z M2.2,9.6L1.7,8.7C1.4,8.9,1.1,9.1,0.8,9.3l0.6,0.8C1.6,9.9,1.9,9.7,2.2,9.6z M4.7,15l0.6,0.9
		C5.5,15.6,5.8,15.3,6,15l-0.5-0.8C5.2,14.5,4.9,14.8,4.7,15z M3,18.9l1,0.8c0-0.5,0.1-0.9,0.3-1.4l-0.9-0.7C3.2,18,3.1,18.5,3,18.9
		z M-2.3,13.2l-0.9-0.8c-0.3,0.3-0.6,0.6-0.9,0.9l0.9,0.8C-2.9,13.8-2.6,13.5-2.3,13.2z M-6,18.6l-1.4-0.5c-0.2,0.5-0.5,1.1-0.6,1.5
		l1.4,0.5C-6.4,19.6-6.2,19-6,18.6z M2.8,22c0,0.6,0.1,1.2,0.1,1.5l1.5,0.5c-0.1-0.5-0.2-1-0.3-1.6L2.8,22z"/>
</g>
</svg>
