<?xml version="1.0" encoding="utf-8"?>
<!-- Generator: Adobe Illustrator 24.3.0, SVG Export Plug-In . SVG Version: 6.00 Build 0)  -->
<svg version="1.1" id="Layer_1" xmlns="http://www.w3.org/2000/svg" xmlns:xlink="http://www.w3.org/1999/xlink" x="0px" y="0px"
	 viewBox="0 0 48 48" style="enable-background:new 0 0 48 48;" xml:space="preserve">
<style type="text/css">
	.st0{fill:#FFFFFF;}
</style>
<g>
	<path d="M48,24c0,13.3-10.7,24-24,24C10.7,48,0,37.3,0,24C0,10.7,10.7,0,24,0C37.3,0,48,10.7,48,24z"/>
	<path class="st0" d="M34.5,8.9c-2.4,0.1-4.6,1.4-6.2,3.3c-1.8,2-2.9,4.5-3.8,6.9c-1.5-1.2-2.7-2.8-5.1-3.5c-1.9-0.5-3.8-0.3-5.6,1
		c-0.9,0.6-1.4,1.6-1.7,2.5c-0.7,2.4,0.8,4.4,1.4,5.2l1.5,1.6c0.3,0.3,1,1.1,0.7,2.3c-0.4,1.3-1.9,2.1-3.5,1.6
		c-0.7-0.2-1.7-0.7-1.5-1.5c0.1-0.3,0.3-0.5,0.4-0.8c0.1-0.2,0.2-0.4,0.2-0.5c0.3-0.9-0.1-2.1-1.1-2.4c-0.9-0.3-1.9-0.1-2.2,1.1
		c-0.4,1.4,0.2,3.8,3.7,4.9c4.1,1.3,7.5-1,8-3.9c0.3-1.8-0.5-3.2-2-4.9l-1.2-1.4c-0.7-0.7-1-2-0.2-3c0.6-0.8,1.6-1.2,3.1-0.8
		c2.2,0.6,3.2,2.1,4.8,3.4c-0.7,2.2-1.1,4.4-1.5,6.4l-0.2,1.5c-1.2,6.1-2.1,9.5-4.4,11.5c-0.5,0.3-1.1,0.8-2.1,0.9
		c-0.5,0-0.7-0.3-0.7-0.5c0-0.4,0.3-0.5,0.5-0.7c0.3-0.2,0.8-0.5,0.7-1.4c0-1.1-0.9-2-2.2-1.9c-1,0-2.4,0.9-2.4,2.6
		c0.1,1.7,1.6,3,4,2.9c1.3,0,4.1-0.6,6.9-3.9c3.3-3.8,4.2-8.2,4.9-11.4l0.8-4.2c0.4,0.1,0.9,0.1,1.4,0.1c4.1,0.1,6.1-2,6.1-3.6
		c0-0.9-0.6-1.8-1.5-1.8c-0.6,0-1.4,0.4-1.6,1.3c-0.2,0.9,1.3,1.6,0.1,2.4c-0.8,0.5-2.3,0.9-4.4,0.6l0.4-2.1c0.8-4,1.7-8.8,5.3-8.9
		c0.3,0,1.2,0,1.2,0.6c0,0.2,0,0.3-0.3,0.8c-0.3,0.4-0.3,0.7-0.3,1.1c0,1,0.8,1.7,1.9,1.6c1.5,0,1.9-1.5,1.9-2.2
		C38.8,9.9,36.9,8.8,34.5,8.9z"/>
</g>
</svg>
