<?xml version="1.0" standalone="no"?>
<!DOCTYPE svg PUBLIC "-//W3C//DTD SVG 20010904//EN"
 "http://www.w3.org/TR/2001/REC-SVG-20010904/DTD/svg10.dtd">
<svg version="1.0" xmlns="http://www.w3.org/2000/svg"
 width="130.000000pt" height="130.000000pt" viewBox="0 0 130.000000 130.000000"
 preserveAspectRatio="xMidYMid meet">

<g transform="translate(0.000000,130.000000) scale(0.100000,-0.100000)"
fill="#000000" stroke="none">
<path d="M440 1230 c-252 -77 -240 -65 -240 -250 0 -155 6 -142 -80 -155 -56
-9 -80 -29 -80 -69 0 -44 45 -268 59 -294 9 -18 21 -22 56 -22 40 0 45 -2 45
-23 0 -82 85 -199 203 -279 72 -49 217 -118 247 -118 33 0 183 73 254 124 112
80 196 194 196 269 0 25 3 27 45 27 35 0 47 4 56 22 14 26 59 250 59 294 0 40
-24 60 -80 69 -86 13 -80 0 -80 155 0 185 12 173 -244 250 -109 33 -203 60
-210 59 -6 0 -99 -27 -206 -59z m27 -142 l10 -23 7 21 c4 14 15 22 31 22 22 0
25 -5 25 -37 0 -30 -4 -37 -20 -37 -11 0 -20 7 -20 15 0 11 -4 10 -14 -5 -14
-18 -15 -18 -25 6 -10 25 -10 25 -10 2 -1 -33 -21 -17 -21 17 0 45 21 55 37
19z m363 13 c0 -5 8 -8 17 -7 13 1 18 -7 18 -27 1 -35 -14 -47 -22 -18 -7 27
-23 27 -23 1 0 -11 -4 -20 -10 -20 -5 0 -10 9 -10 21 0 21 0 21 -19 -2 -15
-19 -22 -21 -33 -11 -10 8 -18 8 -25 1 -14 -14 -36 -2 -26 14 3 7 -3 3 -16 -7
-20 -18 -23 -19 -38 -3 -24 23 -5 40 48 43 33 2 39 -1 34 -14 -5 -14 -3 -14
13 1 11 10 26 15 34 12 8 -3 21 1 28 10 14 17 30 20 30 6z m-240 -20 c0 -5 -6
-12 -12 -14 -10 -4 -9 -8 2 -16 18 -12 9 -24 -14 -15 -16 6 -22 35 -9 47 10
10 33 8 33 -2z m35 -13 c-12 -39 -25 -44 -25 -10 0 22 5 32 16 32 11 0 14 -6
9 -22z m-167 -88 c-11 -17 -10 -22 2 -30 13 -8 13 -10 -2 -10 -9 0 -18 6 -21
13 -5 15 10 47 23 47 6 0 5 -9 -2 -20z m56 9 c-3 -6 0 -15 7 -20 12 -7 11 -9
-1 -9 -13 0 -13 -1 0 -10 13 -8 12 -10 -2 -10 -13 0 -18 8 -18 30 0 17 5 30
11 30 5 0 7 -5 3 -11z m67 -22 c4 -15 3 -27 -2 -27 -5 0 -9 6 -9 13 0 8 -4 7
-10 -3 -7 -11 -10 -7 -10 18 0 40 20 39 31 -1z m43 6 c-9 -38 -11 -39 -16 -3
-3 21 0 30 9 30 10 0 11 -8 7 -27z m80 1 c-4 -38 -14 -42 -14 -6 0 18 4 32 9
32 4 0 7 -12 5 -26z m86 16 c-13 -9 -13 -11 0 -20 13 -9 13 -10 0 -10 -13 0
-13 -1 0 -10 13 -8 12 -10 -2 -10 -13 0 -18 8 -18 30 0 22 5 30 18 30 14 0 15
-2 2 -10z m65 -20 c0 -16 -6 -26 -17 -28 -14 -3 -18 3 -18 28 0 25 4 31 18 28
11 -2 17 -12 17 -28z m-185 -5 c0 -14 -4 -25 -10 -25 -5 0 -10 11 -10 25 0 14
5 25 10 25 6 0 10 -11 10 -25z m77 -12 c-3 -10 -5 -4 -5 12 0 17 2 24 5 18 2
-7 2 -21 0 -30z m283 -128 c162 -19 190 -26 204 -47 14 -23 -41 -307 -60 -315
-8 -3 -76 3 -151 13 -194 26 -545 26 -746 0 -87 -11 -152 -15 -157 -10 -9 10
-60 254 -60 289 0 35 20 44 136 60 266 37 567 41 834 10z m-590 -424 c15 -29
13 -56 -3 -42 -10 8 -17 7 -25 -1 -17 -17 -20 -7 -10 30 10 36 23 41 38 13z
m60 8 c0 -5 -6 -7 -12 -4 -7 4 -5 0 5 -8 25 -21 21 -37 -10 -36 -19 1 -22 3
-10 6 17 4 17 5 1 17 -9 7 -14 18 -10 24 9 15 36 16 36 1z m53 4 c-10 -3 -9
-8 2 -20 8 -8 13 -19 10 -24 -8 -12 -45 -12 -45 1 0 5 8 7 18 4 16 -5 16 -5 0
6 -26 16 -23 40 5 39 12 0 16 -3 10 -6z m81 -5 c5 -10 7 -10 12 0 3 6 18 12
32 11 l27 0 -25 -10 -25 -10 25 -19 c23 -18 24 -20 5 -20 -12 0 -26 5 -32 11
-8 8 -17 7 -32 -2 -17 -12 -23 -11 -36 2 -9 9 -13 23 -9 32 7 20 50 23 58 5z
m97 -15 l1 -28 11 28 c14 35 32 35 45 -1 9 -27 9 -27 -34 -29 -42 -1 -44 0
-44 28 0 37 20 38 21 2z m119 17 c0 -5 -4 -10 -10 -10 -5 0 -10 -9 -10 -20 0
-11 -4 -20 -10 -20 -5 0 -10 6 -10 14 0 8 -3 21 -6 30 -5 12 0 16 20 16 14 0
26 -4 26 -10z m50 0 c0 -5 -5 -10 -11 -10 -5 0 -7 -4 -4 -10 3 -5 0 -10 -7
-11 -10 0 -10 -2 0 -6 17 -7 15 -23 -2 -23 -20 0 -25 11 -19 43 4 18 12 27 24
27 11 0 19 -4 19 -10z m-326 -125 c5 -20 13 -25 39 -25 l32 -1 -27 -20 c-23
-17 -26 -24 -17 -46 11 -31 7 -39 -11 -18 -16 20 -39 19 -63 -2 -19 -18 -19
-17 -12 16 6 29 4 37 -16 52 l-24 19 32 0 c26 0 34 5 39 25 3 14 10 25 14 25
4 0 11 -11 14 -25z m180 0 c5 -20 13 -25 39 -25 l32 0 -24 -19 c-20 -15 -22
-23 -16 -52 7 -33 7 -34 -12 -16 -24 21 -47 22 -63 2 -18 -21 -22 -13 -11 18
9 22 6 29 -17 46 l-27 20 32 1 c26 0 34 5 39 25 3 14 10 25 14 25 4 0 11 -11
14 -25z"/>
<path d="M513 1075 c-3 -9 -3 -18 -1 -21 3 -3 8 4 11 16 6 23 -1 27 -10 5z"/>
<path d="M650 1060 c0 -5 5 -10 10 -10 6 0 10 5 10 10 0 6 -4 10 -10 10 -5 0
-10 -4 -10 -10z"/>
<path d="M750 1060 c0 -5 5 -10 10 -10 6 0 10 5 10 10 0 6 -4 10 -10 10 -5 0
-10 -4 -10 -10z"/>
<path d="M830 971 c0 -12 5 -21 10 -21 6 0 10 6 10 14 0 8 -4 18 -10 21 -5 3
-10 -3 -10 -14z"/>
<path d="M479 743 c-5 -16 -12 -34 -14 -40 -2 -7 0 -13 5 -13 6 0 10 5 10 10
0 6 9 10 20 10 11 0 20 -5 20 -12 0 -6 3 -9 6 -5 8 7 -18 77 -28 77 -5 0 -13
-12 -19 -27z m31 -14 c0 -5 -7 -9 -15 -9 -9 0 -12 6 -9 15 6 15 24 11 24 -6z"/>
<path d="M563 763 c21 -5 21 -12 2 -37 -21 -28 -19 -36 13 -35 23 2 24 2 4 6
l-22 4 20 29 c26 37 25 40 -7 39 -17 -1 -21 -3 -10 -6z"/>
<path d="M623 741 c3 -44 32 -65 53 -37 16 23 19 66 4 66 -5 0 -10 -13 -10
-29 0 -28 -15 -49 -27 -38 -3 4 -9 21 -14 39 l-8 33 2 -34z"/>
<path d="M711 728 c1 -24 3 -35 6 -25 5 21 22 22 29 2 4 -8 11 -15 16 -15 7 0
6 5 -1 14 -6 7 -10 24 -9 37 2 18 -2 25 -19 27 -21 3 -23 0 -22 -40z m37 20
c-6 -18 -28 -21 -28 -4 0 9 7 16 16 16 9 0 14 -5 12 -12z"/>
<path d="M786 754 c-3 -9 -6 -27 -6 -40 0 -20 5 -24 28 -23 l27 0 -25 10 c-24
10 -24 11 -6 25 11 8 14 14 8 14 -19 0 -14 18 6 23 13 4 12 5 -4 6 -12 0 -25
-6 -28 -15z"/>
<path d="M618 639 c-25 -14 -23 -56 3 -70 16 -8 24 -8 33 1 8 8 7 10 -5 5 -23
-9 -46 22 -32 43 6 10 18 16 27 16 9 -1 13 2 10 7 -7 11 -15 11 -36 -2z"/>
<path d="M385 632 c-6 -4 -8 -22 -4 -42 l6 -35 2 37 c0 20 7 39 14 41 6 3 8 6
2 6 -5 0 -15 -3 -20 -7z"/>
<path d="M431 603 c-6 -20 -8 -39 -6 -42 3 -2 5 1 5 7 0 16 33 15 49 0 9 -9 8
-1 -3 26 -9 21 -16 40 -16 42 0 2 -4 4 -10 4 -5 0 -14 -17 -19 -37z m29 2 c0
-8 -4 -15 -10 -15 -5 0 -10 7 -10 15 0 8 5 15 10 15 6 0 10 -7 10 -15z"/>
<path d="M536 631 c-3 -4 3 -16 14 -26 25 -22 25 -32 3 -38 -15 -4 -15 -5 -2
-6 9 0 22 5 28 13 10 11 7 17 -10 29 -11 9 -18 20 -14 26 3 6 2 11 -4 11 -5 0
-12 -4 -15 -9z"/>
<path d="M683 600 c0 -25 2 -35 4 -22 2 12 2 32 0 45 -2 12 -4 2 -4 -23z"/>
<path d="M720 600 c0 -35 3 -40 23 -39 16 1 18 2 5 6 -10 2 -18 11 -18 18 0 7
8 16 18 18 16 4 16 5 0 6 -10 0 -18 5 -18 10 0 5 8 12 18 14 13 4 11 5 -5 6
-20 1 -23 -4 -23 -39z"/>
<path d="M781 598 l2 -43 6 35 7 35 17 -32 c24 -45 37 -41 36 10 l-2 42 -6
-35 -6 -35 -20 33 c-26 43 -35 40 -34 -10z"/>
<path d="M878 633 c6 -2 13 -21 13 -41 l2 -37 6 35 c8 42 5 50 -17 49 -11 0
-12 -3 -4 -6z"/>
<path d="M300 594 c-7 -19 -9 -38 -6 -41 3 -4 6 -1 6 5 0 16 33 15 48 0 7 -7
4 7 -5 30 -10 23 -21 42 -25 42 -3 0 -12 -16 -18 -36z m30 -5 c0 -5 -4 -9 -10
-9 -5 0 -10 7 -10 16 0 8 5 12 10 9 6 -3 10 -10 10 -16z"/>
<path d="M943 595 c0 -22 2 -30 4 -17 2 12 2 30 0 40 -3 9 -5 -1 -4 -23z"/>
<path d="M980 611 c0 -10 7 -21 15 -25 23 -8 18 -26 -7 -27 -19 -1 -20 -2 -4
-6 29 -8 43 13 23 35 -21 23 -21 29 1 35 13 4 11 5 -5 6 -16 1 -23 -5 -23 -18z"/>
<path d="M1051 613 c6 -7 9 -24 7 -38 -3 -14 -1 -25 3 -25 5 0 9 13 9 29 0 20
6 31 18 33 10 3 4 6 -15 9 -26 4 -30 3 -22 -8z"/>
<path d="M208 580 c3 -30 8 -40 22 -40 24 0 42 24 38 52 -2 17 -10 24 -33 26
-30 3 -31 2 -27 -38z m47 0 c0 -16 -6 -26 -17 -28 -14 -3 -18 3 -18 28 0 25 4
31 18 28 11 -2 17 -12 17 -28z"/>
<path d="M596 403 c-11 -11 -6 -23 9 -23 8 0 15 4 15 9 0 13 -16 22 -24 14z"/>
</g>
</svg>
