<svg xmlns="http://www.w3.org/2000/svg" xmlns:xlink="http://www.w3.org/1999/xlink" id="Capa_1" x="0" y="0" version="1.1" viewBox="0 0 512 512" xml:space="preserve" style="enable-background:new 0 0 512 512"><path style="fill:#ff7043" d="M498.944,198.08c-10.816-4.608-57.184,0.512-70.048-11.104c-9.088-8.384-9.664-23.552-13.216-43.776	c-5.952-33.888-8.416-41.568-14.592-54.912C378.592,40.736,324.704,0,275.744,0H162.24C72.96,0,0,72.864,0,161.824v188.672	C0,439.296,72.96,512,162.24,512h186.464c89.28,0,161.76-72.704,162.272-161.504L512,219.84C512,219.84,512,203.68,498.944,198.08z M164.288,132.256h89.984c17.152,0,31.072,13.856,31.072,30.784c0,16.96-13.92,30.944-31.072,30.944h-89.984	c-17.152,0-31.072-14.016-31.072-30.944C133.216,146.08,147.136,132.256,164.288,132.256z M347.168,378.912h-182.88	c-17.152,0-31.072-14.016-31.072-30.784c0-16.928,13.92-30.784,31.072-30.784h182.88c16.992,0,30.912,13.856,30.912,30.784	C378.08,364.896,364.16,378.912,347.168,378.912z"/></svg>