<svg viewBox="0 0 62 39" fill="none" xmlns="http://www.w3.org/2000/svg"><path fill="#19223C" d="M33.2502 0.0546214L2.14722 19.6346C0.682223 20.5206 -0.0337766 21.5126 0.00122339 22.6116V25.5916C0.0362234 26.6916 0.769223 27.6666 2.20122 28.5176L17.5942 37.4026C17.6856 37.4561 17.7876 37.489 17.8931 37.4989C17.9985 37.5088 18.1048 37.4955 18.2046 37.4599C18.3043 37.4244 18.3951 37.3675 18.4706 37.2931C18.546 37.2188 18.6042 37.1289 18.6412 37.0296L22.0972 28.6776L14.7672 24.5276C14.5559 24.418 14.3783 24.2532 14.2532 24.0506C14.1595 23.8984 14.0971 23.729 14.0696 23.5524C14.042 23.3758 14.05 23.1955 14.0929 23.022C14.1358 22.8484 14.2128 22.6852 14.3195 22.5418C14.4262 22.3984 14.5604 22.2776 14.7142 22.1866L28.1712 13.9396L33.7202 0.427621C33.7424 0.364335 33.7444 0.295717 33.726 0.231235C33.7076 0.166754 33.6695 0.109587 33.6172 0.0676214C33.5652 0.0261725 33.5013 0.00253308 33.4349 0.00019229C33.3684 -0.0021485 33.303 0.0169333 33.2482 0.0546214H33.2502Z"></path> <path d="M58.8002 10.9616L43.6182 1.75764C43.5302 1.70275 43.4314 1.66737 43.3285 1.65387C43.2257 1.64038 43.1211 1.64909 43.0219 1.67941C42.9227 1.70973 42.8311 1.76097 42.7534 1.82966C42.6756 1.89836 42.6135 1.98291 42.5712 2.07764L39.0112 10.4296L46.2362 14.7396C46.4442 14.8526 46.6172 15.0216 46.7382 15.2276C46.8594 15.4343 46.9233 15.6696 46.9233 15.9091C46.9233 16.1487 46.8594 16.384 46.7382 16.5906C46.6182 16.7963 46.4447 16.9657 46.2362 17.0806L32.6752 25.0606L26.9152 38.4676C26.8594 38.5313 26.8309 38.6144 26.8357 38.699C26.8406 38.7835 26.8785 38.8627 26.9412 38.9196C26.9719 38.9476 27.0079 38.969 27.0471 38.9829C27.0862 38.9967 27.1277 39.0026 27.1692 39.0001C27.2106 38.9977 27.2511 38.9871 27.2884 38.9688C27.3257 38.9505 27.3589 38.9249 27.3862 38.8936L37.3352 32.8816L41.2622 38.5216C41.348 38.6516 41.4645 38.7583 41.6015 38.8324C41.7384 38.9066 41.8915 38.9458 42.0472 38.9466H51.4722C51.644 38.9472 51.8127 38.9002 51.9595 38.8109C52.1064 38.7216 52.2256 38.5935 52.3042 38.4406C52.3849 38.2874 52.4232 38.1153 52.4149 37.9422C52.4066 37.7692 52.3522 37.6015 52.2572 37.4566L45.8692 27.6666L58.8022 19.8466C60.2682 18.9596 61.0012 17.9666 61.0012 16.8666V13.9406C61.0012 12.8406 60.2682 11.8486 58.8012 10.9616H58.8002Z" fill="#67A4AC"></path></svg>
