<?xml version="1.0" standalone="no"?>
<!DOCTYPE svg PUBLIC "-//W3C//DTD SVG 20010904//EN"
 "http://www.w3.org/TR/2001/REC-SVG-20010904/DTD/svg10.dtd">
<svg version="1.0" xmlns="http://www.w3.org/2000/svg"
 width="719.000000pt" height="719.000000pt" viewBox="0 0 719.000000 719.000000"
 preserveAspectRatio="xMidYMid meet">

<g transform="translate(0.000000,719.000000) scale(0.100000,-0.100000)"
fill="#000000" stroke="none">
<path d="M2630 3787 c0 -13 63 -185 88 -238 93 -205 249 -342 421 -370 160
-25 387 52 590 201 90 66 195 159 189 166 -3 2 -206 42 -454 89 -247 47 -529
101 -626 120 -167 33 -208 39 -208 32z"/>
<path d="M5090 3669 c-311 -65 -588 -123 -617 -129 l-52 -11 32 -28 c149 -127
340 -238 510 -297 344 -118 584 27 680 411 33 132 39 175 24 174 -7 0 -266
-54 -577 -120z"/>
</g>
</svg>
