<svg version="1.1" id="Layer_1" xmlns="http://www.w3.org/2000/svg" xmlns:xlink="http://www.w3.org/1999/xlink" x="0px" y="0px"
	 width="100%" viewBox="0 0 719 719" enable-background="new 0 0 719 719" xml:space="preserve">
<path fill="#FFFFFF" opacity="1.000000" stroke="none" 
	d="
M395.000000,720.000000 
	C263.333344,720.000000 132.166672,720.000000 1.000000,720.000000 
	C1.000000,480.333344 1.000000,240.666672 1.000000,1.000000 
	C240.666672,1.000000 480.333344,1.000000 720.000000,1.000000 
	C720.000000,240.666672 720.000000,480.333344 720.000000,720.000000 
	C611.833313,720.000000 503.666656,720.000000 395.000000,720.000000 
M187.385056,590.601624 
	C187.385056,590.601624 187.494156,590.576172 187.294250,591.288452 
	C187.301422,591.453918 187.239944,591.701843 187.325546,591.773193 
	C197.207520,600.003723 209.136093,604.249573 220.856079,608.878479 
	C221.377335,609.084412 222.273682,608.340637 223.578476,608.062500 
	C224.066315,608.343689 224.554153,608.624878 225.079956,609.655823 
	C226.536407,610.766907 227.839966,612.265686 229.479599,612.912292 
	C233.502655,614.498840 237.691711,615.659973 241.793320,617.053040 
	C246.470963,618.641724 251.118988,620.416504 256.770569,617.899475 
	C257.491486,618.045837 258.212372,618.192261 259.055450,618.874939 
	C259.713470,618.886230 260.371460,618.897461 261.686371,618.912842 
	C262.111298,619.014404 262.536194,619.115967 263.109924,619.860413 
	C263.603088,620.636658 264.096252,621.412964 264.921173,622.711426 
	C261.612946,622.917297 258.831543,623.090393 256.050171,623.263550 
	C258.407806,624.633850 260.993774,625.502075 263.118469,624.855225 
	C272.301727,622.059448 281.521851,623.923462 290.742340,623.942688 
	C339.788422,624.044922 388.834808,623.996887 437.881104,623.996582 
	C459.615356,623.996460 481.350250,623.890808 503.083618,624.026489 
	C512.037170,624.082397 520.988098,624.927856 529.939148,624.907715 
	C540.556091,624.883789 551.170166,624.248291 561.788452,624.004944 
	C568.197571,623.857971 574.613464,624.005981 581.022644,623.860657 
	C581.707031,623.845154 582.367004,622.750977 583.815979,622.005981 
	C584.867798,622.048157 585.919617,622.090332 587.099609,622.794800 
	C588.805603,624.622009 589.688782,624.147766 589.991211,621.393188 
	C589.991211,621.393188 590.200012,621.039490 590.953979,620.807617 
	C591.299561,619.602539 591.945801,618.397827 591.947266,617.192322 
	C592.001526,571.762817 592.012756,526.333252 591.917542,480.903931 
	C591.914856,479.601318 590.699158,478.301300 589.846252,476.731750 
	C589.846252,476.731750 589.782349,476.401520 589.871765,475.602448 
	C588.845337,474.815002 587.817383,473.351166 586.792664,473.353394 
	C581.411926,473.365173 576.032104,473.966003 570.651794,473.968994 
	C486.019440,474.016113 401.387115,473.994598 316.754761,474.013428 
	C305.657227,474.015900 294.528351,474.466644 283.764130,470.960876 
	C277.387299,468.884033 270.151428,468.012939 264.888885,464.331207 
	C259.114502,460.291290 252.977859,457.879364 246.670441,455.310730 
	C246.670441,455.310730 246.597549,455.324310 246.845230,454.522736 
	C247.067993,450.122040 243.702682,451.263794 241.030182,450.603912 
	C241.030182,450.603912 240.911453,450.203064 240.780243,449.652649 
	C240.474396,449.453796 240.168549,449.254944 239.440079,448.874512 
	C239.172241,448.693939 239.000809,448.446564 238.985245,447.353180 
	C237.553162,445.677979 236.121063,444.002777 234.837845,442.232178 
	C234.837845,442.232178 234.664459,442.266815 234.885605,441.485901 
	C232.893311,436.770813 231.210358,431.888367 228.786301,427.406830 
	C227.450592,424.937378 224.869766,423.141357 222.626419,420.583160 
	C222.623428,420.247375 222.620422,419.911591 222.848602,418.663208 
	C222.276337,415.460571 222.072098,412.133118 221.038834,409.086853 
	C219.741928,405.263397 217.765610,401.670441 215.909592,397.354065 
	C215.873611,396.924896 215.837631,396.495697 216.372513,395.721344 
	C215.961761,394.803009 215.551010,393.884644 214.944534,392.346771 
	C214.901337,391.916656 214.858139,391.486511 215.337448,390.779114 
	C214.961838,389.853058 214.586243,388.926971 214.066437,387.261169 
	C214.043289,386.508423 214.020142,385.755707 214.600616,384.424652 
	C214.731323,382.446747 215.070953,380.457001 214.959778,378.492798 
	C214.044891,362.330048 213.307556,346.190857 216.965820,330.211151 
	C219.122360,320.791107 220.850204,311.262848 223.339111,301.934875 
	C224.135605,298.949799 226.883621,296.524933 228.495819,293.704865 
	C229.686554,291.622009 230.904327,289.398285 231.367355,287.088440 
	C232.314041,282.365784 234.778641,279.610687 238.785843,279.250488 
	C239.596085,277.113892 239.776993,274.854065 241.000931,273.732788 
	C245.219604,269.868042 249.906723,266.517975 254.184006,262.711823 
	C255.492935,261.547058 256.057831,259.546234 257.280090,257.421326 
	C257.830750,257.208862 258.381409,256.996399 259.314941,257.372650 
	C263.522644,256.373596 267.816162,255.635712 271.910370,254.291107 
	C275.068054,253.254074 277.975647,251.455414 281.840149,249.982315 
	C296.366974,248.980713 310.890869,247.165970 325.421143,247.112961 
	C404.197235,246.825485 482.974976,246.945969 561.752014,247.012283 
	C569.974121,247.019196 578.195007,247.718597 586.418152,247.759613 
	C587.554199,247.765305 588.700012,245.815140 589.916748,244.373337 
	C589.916748,244.373337 590.087341,244.006866 590.862122,243.805756 
	C591.235962,242.124023 591.920288,240.444748 591.933777,238.760147 
	C592.027771,226.962006 591.919312,215.162369 591.995605,203.363968 
	C592.179077,174.977051 592.466187,146.590637 592.538391,118.203583 
	C592.541931,116.798424 590.905396,115.389091 589.998657,113.999702 
	C589.998657,113.999702 590.018250,113.966415 589.840027,113.176125 
	C587.825562,112.791290 585.811279,112.071075 583.796631,112.069870 
	C495.687073,112.017021 407.577301,111.920113 319.468201,112.121094 
	C301.726593,112.161568 283.911652,112.582886 266.274597,114.304596 
	C254.815536,115.423225 243.527145,118.885269 232.338089,121.941124 
	C226.114410,123.640877 220.216492,126.578865 214.239120,129.117416 
	C210.903854,130.533890 205.208527,127.535408 204.583267,134.159546 
	C204.574646,134.250931 204.311584,134.329575 204.158905,134.394485 
	C196.794800,137.525299 189.127335,139.885620 182.887482,145.415878 
	C178.417755,149.377304 173.174088,152.464523 168.287720,155.958572 
	C167.895111,156.239304 167.613373,156.669922 167.250427,156.998047 
	C161.682709,162.031631 156.115646,167.066010 150.531464,172.081299 
	C149.825531,172.715302 148.796722,173.094269 148.306305,173.845291 
	C146.388565,176.782135 144.645859,179.832581 142.803970,182.819748 
	C135.869980,194.065170 128.641678,205.141174 122.071175,216.594757 
	C117.032288,225.378448 113.157265,234.753799 111.509560,244.654129 
	C111.210175,244.097900 110.910789,243.541656 110.539726,242.852249 
	C107.664452,253.725769 104.573318,264.385040 102.076035,275.181641 
	C100.032501,284.016541 98.339508,292.969086 97.178383,301.958221 
	C96.456001,307.550659 97.013382,313.308441 97.090675,319.742065 
	C96.983009,320.485504 96.875343,321.228973 96.024254,322.006378 
	C92.773354,325.929352 91.428192,330.384583 92.321671,335.442444 
	C92.808281,338.197144 93.770454,340.937286 93.800301,343.691803 
	C93.972366,359.572296 94.006943,375.455688 93.901070,391.336823 
	C93.877426,394.883759 93.366951,398.482910 92.606796,401.954285 
	C91.807472,405.604431 93.649223,411.760559 96.966270,414.746643 
	C96.975517,415.499725 96.984764,416.252808 96.405350,417.566864 
	C97.377792,426.880524 98.251823,436.205872 99.359634,445.503418 
	C100.022308,451.065125 100.477348,456.749695 102.026688,462.088593 
	C106.064301,476.001770 110.357567,489.858337 115.135025,503.532654 
	C117.965248,511.633514 121.158180,519.793091 125.533798,527.122925 
	C131.366760,536.894043 138.104553,546.206299 145.211487,555.110779 
	C151.190155,562.601685 158.172607,569.306152 164.911942,576.160950 
	C166.052185,577.320740 168.210205,577.480042 169.975632,578.819885 
	C171.760193,583.028076 177.601120,586.916016 182.569107,587.066345 
	C182.843033,587.225586 183.028290,587.456055 183.108047,588.496521 
	C184.499146,589.212280 185.890228,589.928040 187.385056,590.601624 
M270.221222,341.524323 
	C268.226227,341.173157 266.231262,340.821991 263.589539,340.356995 
	C268.381683,357.069611 274.140869,372.213226 284.887329,384.907623 
	C298.199249,400.632538 315.061981,405.884125 335.067596,401.280029 
	C348.916290,398.092896 361.249268,391.621246 372.595673,383.306793 
	C379.892273,377.960022 386.744141,372.006317 394.733429,365.568726 
	C391.596771,364.808167 390.044800,364.362183 388.465332,364.060059 
	C376.887604,361.845337 365.303680,359.663147 353.722992,357.463776 
	C326.152985,352.227844 298.583710,346.988068 270.221222,341.524323 
M530.998840,348.614838 
	C501.732239,354.663818 472.465637,360.712830 442.270508,366.953705 
	C462.261169,383.624542 482.783936,397.280396 507.674225,402.674896 
	C521.181458,405.602325 534.319702,404.371796 545.394714,394.932098 
	C561.931580,380.837128 565.661804,361.152863 569.116272,340.679565 
	C556.162659,343.336182 543.978760,345.834930 530.998840,348.614838 
M90.922600,340.524384 
	C90.320572,339.428131 89.718544,338.331848 89.116508,337.235596 
	C88.411102,338.724945 87.103340,340.209717 87.091911,341.704376 
	C86.951851,360.005310 86.990875,378.307739 87.033142,396.609650 
	C87.035370,397.575317 87.481659,398.539917 87.721214,399.505035 
	C88.183769,399.491638 88.646332,399.478241 89.108887,399.464844 
	C89.739151,393.319061 90.845917,387.176788 90.891174,381.026703 
	C90.964226,371.099609 90.251556,361.169067 90.056801,351.236328 
	C89.992409,347.952454 90.502197,344.657288 90.922600,340.524384 
M106.717346,494.466370 
	C106.606422,495.040222 106.495506,495.614105 106.384590,496.187958 
	C106.790825,496.192963 107.197060,496.197968 107.603287,496.202972 
	C107.506805,495.626465 107.410316,495.049988 106.717346,494.466370 
M107.586670,241.519791 
	C107.586670,241.519791 107.478653,241.584579 107.586670,241.519791 
z"/>
<path fill="#F77728" opacity="1.000000" stroke="none" 
	d="
M96.994019,417.005890 
	C96.984764,416.252808 96.975517,415.499725 96.949554,413.947723 
	C96.360916,391.871613 95.567230,370.596954 95.321114,349.316010 
	C95.215775,340.208252 96.250809,331.087341 96.767685,321.972412 
	C96.875343,321.228973 96.983009,320.485504 97.276688,319.048492 
	C98.832718,309.652344 99.805046,300.863922 101.661278,292.266327 
	C104.849472,277.499329 108.589256,262.851410 112.249252,248.027618 
	C112.596596,247.671829 112.616585,247.427658 112.645714,246.837769 
	C112.893753,246.007828 112.957047,245.509293 113.246025,244.731476 
	C124.519356,209.280960 144.515396,180.133438 172.937897,156.795792 
	C178.122787,152.538483 184.091599,149.235947 189.777344,145.896790 
	C189.173050,147.705612 188.815826,149.466400 187.744461,150.446777 
	C184.781693,153.157913 181.608582,155.664673 178.350220,158.019180 
	C175.735016,159.908905 172.873642,161.457932 170.408356,162.980957 
	C170.906738,164.992096 171.344421,166.758224 172.028946,169.520432 
	C169.318649,168.369812 167.888153,167.762527 166.656998,167.239853 
	C162.450912,170.267639 159.723923,173.484146 161.308960,178.799301 
	C161.588379,179.736267 160.899490,181.688583 160.141647,182.031570 
	C159.102524,182.501846 157.558105,181.949432 156.253143,181.710190 
	C155.112610,181.501099 154.003769,181.119049 152.880936,180.813416 
	C152.890167,182.004395 152.433960,183.514282 152.992218,184.329102 
	C155.007706,187.270828 157.364624,189.978622 160.024643,193.316925 
	C154.364410,196.564758 156.027878,202.426208 156.026169,207.767685 
	C155.991318,316.824982 155.997070,425.882324 156.023239,534.939636 
	C156.023712,536.905029 155.961990,539.024231 156.631760,540.807922 
	C159.043030,547.229553 158.822739,547.913696 151.974228,549.886658 
	C152.312927,552.213074 152.661560,554.607788 152.700958,556.864319 
	C149.550674,554.203064 146.709656,551.679932 143.926086,549.144043 
	C143.983521,549.131226 143.868591,549.132812 143.798050,548.882446 
	C143.429245,548.484863 143.130981,548.337646 142.843613,548.147522 
	C142.854507,548.104614 142.776962,548.147400 142.834457,547.777344 
	C142.191177,546.680847 141.490387,545.954407 140.868454,545.216370 
	C140.947296,545.204712 140.788681,545.189819 140.751694,544.932495 
	C140.452515,544.461243 140.190323,544.247192 139.796448,543.734985 
	C139.067337,542.329651 138.469910,541.222534 138.270294,540.078125 
	C143.522751,538.972961 147.340271,539.921936 148.619339,545.570312 
	C153.574631,543.927246 152.986755,540.041992 152.987244,536.521362 
	C153.002777,424.926941 153.000427,313.332520 152.995575,201.738083 
	C152.995499,200.240601 153.291916,198.612305 152.810471,197.275345 
	C152.026352,195.097794 150.713654,193.110596 149.650940,191.094147 
	C147.906891,196.307068 146.452850,200.653229 144.665771,204.999542 
	C143.888687,205.000198 143.444656,205.000702 142.635971,205.070145 
	C139.602692,207.762238 141.084396,209.244553 143.571030,210.870041 
	C147.215988,213.252655 147.307678,222.781174 143.509201,224.022537 
	C139.029465,225.486526 138.949234,228.324356 138.953232,232.037277 
	C139.019104,292.990601 139.000000,353.944000 139.000000,414.897400 
	C139.000000,440.044830 139.040909,465.192444 138.953735,490.339569 
	C138.941345,493.912781 138.982590,496.923615 143.424988,497.889526 
	C144.461121,498.114807 145.798340,499.957672 145.864029,501.120270 
	C146.137817,505.966736 145.979263,510.837555 145.979263,516.363708 
	C144.877731,515.354553 144.224792,514.387878 143.323135,514.001160 
	C140.869019,512.948608 138.356659,511.869263 135.760269,511.421265 
	C135.082153,511.304230 133.030930,514.011047 133.290253,514.468323 
	C134.527695,516.650574 136.341232,518.506775 137.954788,520.474854 
	C139.266235,522.074585 141.477448,523.538147 141.733322,525.289429 
	C142.513290,530.627808 141.674515,535.839844 137.530243,539.994263 
	C135.996124,538.325378 134.626709,536.873779 133.590164,535.214233 
	C116.527092,507.896271 108.256500,477.439423 102.069099,446.272919 
	C100.141624,436.564056 98.672798,426.764130 96.994019,417.005890 
z"/>
<path fill="#424244" opacity="1.000000" stroke="none" 
	d="
M270.617676,341.637085 
	C298.583710,346.988068 326.152985,352.227844 353.722992,357.463776 
	C365.303680,359.663147 376.887604,361.845337 388.465332,364.060059 
	C390.044800,364.362183 391.596771,364.808167 394.733429,365.568726 
	C386.744141,372.006317 379.892273,377.960022 372.595673,383.306793 
	C361.249268,391.621246 348.916290,398.092896 335.067596,401.280029 
	C315.061981,405.884125 298.199249,400.632538 284.887329,384.907623 
	C274.140869,372.213226 268.381683,357.069611 263.589539,340.356995 
	C266.231262,340.821991 268.226227,341.173157 270.617676,341.637085 
z"/>
<path fill="#424244" opacity="1.000000" stroke="none" 
	d="
M531.396851,348.474243 
	C543.978760,345.834930 556.162659,343.336182 569.116272,340.679565 
	C565.661804,361.152863 561.931580,380.837128 545.394714,394.932098 
	C534.319702,404.371796 521.181458,405.602325 507.674225,402.674896 
	C482.783936,397.280396 462.261169,383.624542 442.270508,366.953705 
	C472.465637,360.712830 501.732239,354.663818 531.396851,348.474243 
z"/>
<path fill="#E0A254" opacity="1.000000" stroke="none" 
	d="
M590.199951,621.039490 
	C590.200012,621.039490 589.991211,621.393188 589.577209,621.612183 
	C588.432617,621.931641 587.702026,622.032043 586.971436,622.132446 
	C585.919617,622.090332 584.867798,622.048157 582.960022,622.007629 
	C528.952698,621.988403 475.793213,622.541992 422.652344,621.785217 
	C369.422211,621.027222 316.106506,625.057983 262.961121,619.217529 
	C262.536194,619.115967 262.111298,619.014404 261.166565,618.683105 
	C260.075623,618.415100 259.504456,618.376892 258.933289,618.338684 
	C258.212372,618.192261 257.491486,618.045837 256.116150,617.654053 
	C245.321808,614.574463 235.181900,611.740295 225.041992,608.906067 
	C224.554153,608.624878 224.066315,608.343689 223.070831,607.770020 
	C220.281723,606.550232 217.911835,605.793335 215.735062,604.664062 
	C208.643356,600.985229 201.622192,597.170349 194.982758,593.286743 
	C196.770233,593.491333 198.249725,593.600220 199.507675,594.185303 
	C202.725388,595.682007 205.844513,597.390686 209.369049,599.034790 
	C212.117432,600.050415 214.499817,601.045898 217.018280,602.259644 
	C217.439957,602.658386 217.725571,602.838989 218.371094,603.077759 
	C220.819916,603.763733 222.908829,604.391541 225.307724,605.166870 
	C227.412888,606.217041 229.208084,607.119629 231.372925,608.076660 
	C247.795486,613.418762 263.986694,618.078735 281.454193,619.000000 
	C287.009155,619.349304 292.117920,620.008118 297.220001,619.960144 
	C314.873566,619.794189 332.523956,619.296021 350.177521,619.116455 
	C355.449829,619.062805 360.728546,619.638489 366.425781,619.943604 
	C369.967529,619.661377 373.091461,619.071594 376.207520,619.110840 
	C390.472809,619.290161 404.735901,619.645813 419.468018,619.958618 
	C450.623779,619.985291 481.311279,619.991455 512.467529,620.002991 
	C534.762939,620.024597 556.589661,620.062805 578.416138,620.021973 
	C580.543152,620.018005 582.662598,619.432068 584.797241,619.281860 
	C588.039551,619.053772 589.081116,617.032532 588.949768,614.216492 
	C588.749207,609.917786 588.103271,605.628113 588.095642,601.333801 
	C588.026428,562.512268 587.969788,523.690125 588.162598,484.869415 
	C588.186890,479.979309 586.715881,478.805206 581.977478,478.855225 
	C558.653809,479.101410 535.326233,478.970093 511.531403,478.962524 
	C479.707306,478.957275 448.351837,478.961487 416.528137,478.958679 
	C400.373688,478.967346 384.687469,478.983093 368.532593,478.987183 
	C341.703918,478.610107 315.295013,480.166687 288.568542,476.956055 
	C281.980865,475.558075 275.487762,474.986816 269.766785,472.580109 
	C262.011475,469.317535 254.385300,465.612305 247.897339,459.744202 
	C243.566193,455.826904 237.383377,454.192932 234.995682,447.821075 
	C233.784027,444.587646 231.078156,441.914154 228.889786,438.672546 
	C227.088547,434.300415 225.445312,430.243256 223.896606,426.104248 
	C223.991104,426.022369 224.183395,425.862488 224.417542,426.111145 
	C227.989288,431.662170 231.326874,436.964478 234.664459,442.266815 
	C234.664459,442.266815 234.837845,442.232178 234.796204,442.606079 
	C236.144943,444.697418 237.535355,446.414917 238.925766,448.132385 
	C239.000809,448.446564 239.172241,448.693939 239.746338,449.219971 
	C240.338882,449.777954 240.625168,449.990509 240.911453,450.203064 
	C240.911453,450.203064 241.030182,450.603912 241.233704,451.080872 
	C243.157333,452.813324 244.877441,454.068817 246.597549,455.324310 
	C246.597549,455.324310 246.670441,455.310730 246.733154,455.672241 
	C251.149979,459.034790 255.273575,462.463165 259.900299,464.958771 
	C275.354279,473.294525 292.179352,476.084869 309.523010,476.099152 
	C396.118774,476.170410 482.714661,476.165833 569.310486,476.204010 
	C576.134460,476.207031 582.958374,476.332794 589.782349,476.401520 
	C589.782349,476.401520 589.846252,476.731750 589.932800,477.334045 
	C590.038818,482.091492 590.071411,486.246704 590.075623,490.401886 
	C590.119629,533.947754 590.159180,577.493652 590.199951,621.039490 
z"/>
<path fill="#E0A254" opacity="1.000000" stroke="none" 
	d="
M214.814941,391.056396 
	C214.858139,391.486511 214.901337,391.916656 214.975220,392.985779 
	C215.271149,394.438721 215.536407,395.252625 215.801666,396.066528 
	C215.837631,396.495697 215.873611,396.924896 215.943817,398.071106 
	C218.191177,405.717346 220.404312,412.646576 222.617432,419.575806 
	C222.620422,419.911591 222.623428,420.247375 222.770691,421.171844 
	C223.337784,423.127838 223.760590,424.495178 224.183395,425.862488 
	C224.183395,425.862488 223.991104,426.022369 223.567169,425.981384 
	C220.806519,420.807220 217.409851,415.886658 216.329529,410.501434 
	C212.926575,393.538391 209.074234,376.559540 210.898300,358.976440 
	C211.403046,354.111023 210.574936,349.119720 210.876556,344.218079 
	C211.374130,336.131744 212.293457,328.071320 213.044815,319.673096 
	C213.060135,318.910095 213.065674,318.473999 213.307770,317.857910 
	C213.701508,317.117310 213.858688,316.556763 214.041229,315.600159 
	C215.389404,311.491028 216.712204,307.777924 218.283798,303.867004 
	C218.368835,302.749573 218.205093,301.829926 218.056000,300.610077 
	C218.064438,299.909241 218.058197,299.508636 218.323700,298.881531 
	C220.742218,294.436707 222.888992,290.218353 225.083038,285.656281 
	C226.751190,283.071625 228.445679,280.879608 229.975021,278.577850 
	C232.063446,275.434570 234.026169,272.207794 236.367523,268.877136 
	C238.899826,267.135559 241.028595,265.408997 243.329666,263.955139 
	C250.207199,259.609802 257.152222,255.371307 264.426147,251.068512 
	C266.880005,249.748169 268.978607,248.450424 271.445404,247.136292 
	C272.551239,247.093857 273.288940,247.067810 274.453400,247.046753 
	C276.042542,247.024185 277.304657,247.286148 278.352142,246.925232 
	C291.986847,242.227264 306.121918,243.045593 320.184265,242.948059 
	C321.793060,242.936905 323.397980,242.362503 325.472778,242.053818 
	C341.960266,242.056442 357.979675,242.054520 374.459747,242.056992 
	C389.613983,242.357574 404.307617,242.653748 419.469421,242.969482 
	C470.745239,242.989319 521.552795,243.004715 572.360352,242.951187 
	C575.319336,242.948074 578.312012,241.946579 581.229675,242.173203 
	C588.057556,242.703506 588.052734,242.891525 588.053101,236.150269 
	C588.055115,199.502136 588.059631,162.854004 588.039307,126.205879 
	C588.037109,122.250534 590.132263,117.685616 585.398682,115.001488 
	C587.177490,114.600403 588.597839,114.283409 590.018250,113.966415 
	C590.018250,113.966415 589.998657,113.999702 590.016663,114.460831 
	C590.052246,157.950256 590.069824,200.978561 590.087341,244.006866 
	C590.087341,244.006866 589.916748,244.373337 589.424927,244.603409 
	C587.935303,244.862701 586.937561,244.917450 585.939758,244.917496 
	C495.404907,244.921204 404.869537,244.781143 314.335785,245.095108 
	C302.865570,245.134872 291.403564,247.552887 279.547363,248.889984 
	C278.401031,249.101517 277.645142,249.292114 276.682007,249.460846 
	C276.190186,249.539017 275.995667,249.730698 275.644531,250.053040 
	C274.252563,250.451462 273.107330,250.810852 271.701416,251.195618 
	C271.170197,251.439636 270.899597,251.658264 270.333679,251.846710 
	C269.332458,252.106415 268.626587,252.396332 267.578064,252.744141 
	C266.434418,253.196884 265.633392,253.591705 264.532959,254.110992 
	C262.466400,255.084961 260.699249,255.934448 258.932068,256.783936 
	C258.381409,256.996399 257.830750,257.208862 256.776550,257.728760 
	C236.497696,269.106018 225.716156,286.918060 219.012100,307.775574 
	C214.400452,322.123260 212.605042,336.979492 212.320663,351.913208 
	C212.110901,362.928497 213.384399,373.972015 213.996994,385.002960 
	C214.020142,385.755707 214.043289,386.508423 214.068176,387.953125 
	C214.318268,389.448883 214.566605,390.252625 214.814941,391.056396 
z"/>
<path fill="#FEF2D3" opacity="1.000000" stroke="none" 
	d="
M589.929138,113.571274 
	C588.597839,114.283409 587.177490,114.600403 584.996338,114.957008 
	C583.163330,114.972015 582.091125,114.947411 580.763672,114.584625 
	C579.185181,114.175606 577.862000,114.043427 576.538696,114.042648 
	C485.264282,113.989037 393.989838,113.992149 302.715515,113.872719 
	C276.672913,113.838646 251.425201,118.011421 226.734024,127.087357 
	C226.270203,127.372437 226.076645,127.662933 225.654755,127.991837 
	C225.426407,128.030228 225.013931,128.240768 224.643494,128.239609 
	C212.112854,132.648514 200.118103,137.389130 189.778473,145.492233 
	C189.751892,145.494705 189.698547,145.492661 189.698547,145.492661 
	C184.091599,149.235947 178.122787,152.538483 172.937897,156.795792 
	C144.515396,180.133438 124.519356,209.280960 112.993179,244.728577 
	C112.346069,245.004211 112.177490,245.003448 112.008911,245.002686 
	C113.157265,234.753799 117.032288,225.378448 122.071175,216.594757 
	C128.641678,205.141174 135.869980,194.065170 142.803970,182.819748 
	C144.645859,179.832581 146.388565,176.782135 148.306305,173.845291 
	C148.796722,173.094269 149.825531,172.715302 150.531464,172.081299 
	C156.115646,167.066010 161.682709,162.031631 167.250427,156.998047 
	C167.613373,156.669922 167.895111,156.239304 168.287720,155.958572 
	C173.174088,152.464523 178.417755,149.377304 182.887482,145.415878 
	C189.127335,139.885620 196.794800,137.525299 204.158905,134.394485 
	C204.311584,134.329575 204.574646,134.250931 204.583267,134.159546 
	C205.208527,127.535408 210.903854,130.533890 214.239120,129.117416 
	C220.216492,126.578865 226.114410,123.640877 232.338089,121.941124 
	C243.527145,118.885269 254.815536,115.423225 266.274597,114.304596 
	C283.911652,112.582886 301.726593,112.161568 319.468201,112.121094 
	C407.577301,111.920113 495.687073,112.017021 583.796631,112.069870 
	C585.811279,112.071075 587.825562,112.791290 589.929138,113.571274 
z"/>
<path fill="#FEF5DD" opacity="1.000000" stroke="none" 
	d="
M589.827026,476.001984 
	C582.958374,476.332794 576.134460,476.207031 569.310486,476.204010 
	C482.714661,476.165833 396.118774,476.170410 309.523010,476.099152 
	C292.179352,476.084869 275.354279,473.294525 259.900299,464.958771 
	C255.273575,462.463165 251.149979,459.034790 246.735718,455.709229 
	C252.977859,457.879364 259.114502,460.291290 264.888885,464.331207 
	C270.151428,468.012939 277.387299,468.884033 283.764130,470.960876 
	C294.528351,474.466644 305.657227,474.015900 316.754761,474.013428 
	C401.387115,473.994598 486.019440,474.016113 570.651794,473.968994 
	C576.032104,473.966003 581.411926,473.365173 586.792664,473.353394 
	C587.817383,473.351166 588.845337,474.815002 589.827026,476.001984 
z"/>
<path fill="#FEF5DD" opacity="1.000000" stroke="none" 
	d="
M263.035522,619.538940 
	C316.106506,625.057983 369.422211,621.027222 422.652344,621.785217 
	C475.793213,622.541992 528.952698,621.988403 582.571167,622.083252 
	C582.367004,622.750977 581.707031,623.845154 581.022644,623.860657 
	C574.613464,624.005981 568.197571,623.857971 561.788452,624.004944 
	C551.170166,624.248291 540.556091,624.883789 529.939148,624.907715 
	C520.988098,624.927856 512.037170,624.082397 503.083618,624.026489 
	C481.350250,623.890808 459.615356,623.996460 437.881104,623.996582 
	C388.834808,623.996887 339.788422,624.044922 290.742340,623.942688 
	C281.521851,623.923462 272.301727,622.059448 263.118469,624.855225 
	C260.993774,625.502075 258.407806,624.633850 256.050171,623.263550 
	C258.831543,623.090393 261.612946,622.917297 264.921173,622.711426 
	C264.096252,621.412964 263.603088,620.636658 263.035522,619.538940 
z"/>
<path fill="#FEF2D3" opacity="1.000000" stroke="none" 
	d="
M279.937775,248.869064 
	C291.403564,247.552887 302.865570,245.134872 314.335785,245.095108 
	C404.869537,244.781143 495.404907,244.921204 585.939758,244.917496 
	C586.937561,244.917450 587.935303,244.862701 589.387207,244.801956 
	C588.700012,245.815140 587.554199,247.765305 586.418152,247.759613 
	C578.195007,247.718597 569.974121,247.019196 561.752014,247.012283 
	C482.974976,246.945969 404.197235,246.825485 325.421143,247.112961 
	C310.890869,247.165970 296.366974,248.980713 281.182831,249.863129 
	C280.329590,249.452332 280.133698,249.160690 279.937775,248.869064 
z"/>
<path fill="#FEF5DD" opacity="1.000000" stroke="none" 
	d="
M96.699677,417.286377 
	C98.672798,426.764130 100.141624,436.564056 102.069099,446.272919 
	C108.256500,477.439423 116.527092,507.896271 133.590164,535.214233 
	C134.626709,536.873779 135.996124,538.325378 137.570099,539.962158 
	C137.929535,540.050598 137.872467,540.115479 137.872467,540.115479 
	C138.469910,541.222534 139.067337,542.329651 139.804352,544.004578 
	C140.225525,544.778259 140.507095,544.984009 140.788681,545.189819 
	C140.788681,545.189819 140.947296,545.204712 140.928833,545.515381 
	C141.532562,546.599854 142.154770,547.373657 142.776962,548.147400 
	C142.776962,548.147400 142.854507,548.104614 142.924591,548.390259 
	C143.285965,548.828247 143.577271,548.980530 143.868591,549.132812 
	C143.868591,549.132812 143.983521,549.131226 144.001251,549.472290 
	C147.352997,553.533081 150.686996,557.252747 154.149414,561.077454 
	C154.277802,561.182556 154.597641,561.271118 154.696320,561.509033 
	C155.078888,561.913086 155.362778,562.079224 155.668488,562.268799 
	C155.690323,562.292297 155.681976,562.355835 155.700958,562.642029 
	C156.124512,563.302246 156.529114,563.676208 156.967529,564.031860 
	C157.001343,564.013611 156.941406,564.064026 157.001129,564.393311 
	C161.473160,569.029480 165.885483,573.336426 170.198853,577.758789 
	C170.099930,577.874207 169.897980,578.101562 169.897980,578.101562 
	C168.210205,577.480042 166.052185,577.320740 164.911942,576.160950 
	C158.172607,569.306152 151.190155,562.601685 145.211487,555.110779 
	C138.104553,546.206299 131.366760,536.894043 125.533798,527.122925 
	C121.158180,519.793091 117.965248,511.633514 115.135025,503.532654 
	C110.357567,489.858337 106.064301,476.001770 102.026688,462.088593 
	C100.477348,456.749695 100.022308,451.065125 99.359634,445.503418 
	C98.251823,436.205872 97.377792,426.880524 96.699677,417.286377 
z"/>
<path fill="#FEF5DD" opacity="1.000000" stroke="none" 
	d="
M214.298798,384.713806 
	C213.384399,373.972015 212.110901,362.928497 212.320663,351.913208 
	C212.605042,336.979492 214.400452,322.123260 219.012100,307.775574 
	C225.716156,286.918060 236.497696,269.106018 256.618256,257.982208 
	C256.057831,259.546234 255.492935,261.547058 254.184006,262.711823 
	C249.906723,266.517975 245.219604,269.868042 241.000931,273.732788 
	C239.776993,274.854065 239.596085,277.113892 238.785843,279.250488 
	C234.778641,279.610687 232.314041,282.365784 231.367355,287.088440 
	C230.904327,289.398285 229.686554,291.622009 228.495819,293.704865 
	C226.883621,296.524933 224.135605,298.949799 223.339111,301.934875 
	C220.850204,311.262848 219.122360,320.791107 216.965820,330.211151 
	C213.307556,346.190857 214.044891,362.330048 214.959778,378.492798 
	C215.070953,380.457001 214.731323,382.446747 214.298798,384.713806 
z"/>
<path fill="#FEF5DD" opacity="1.000000" stroke="none" 
	d="
M590.576965,620.923584 
	C590.159180,577.493652 590.119629,533.947754 590.075623,490.401886 
	C590.071411,486.246704 590.038818,482.091492 590.034180,477.468201 
	C590.699158,478.301300 591.914856,479.601318 591.917542,480.903931 
	C592.012756,526.333252 592.001526,571.762817 591.947266,617.192322 
	C591.945801,618.397827 591.299561,619.602539 590.576965,620.923584 
z"/>
<path fill="#FEF2D3" opacity="1.000000" stroke="none" 
	d="
M590.474731,243.906311 
	C590.069824,200.978561 590.052246,157.950256 590.033630,114.451828 
	C590.905396,115.389091 592.541931,116.798424 592.538391,118.203583 
	C592.466187,146.590637 592.179077,174.977051 591.995605,203.363968 
	C591.919312,215.162369 592.027771,226.962006 591.933777,238.760147 
	C591.920288,240.444748 591.235962,242.124023 590.474731,243.906311 
z"/>
<path fill="#FEF5DD" opacity="1.000000" stroke="none" 
	d="
M96.395966,321.989380 
	C96.250809,331.087341 95.215775,340.208252 95.321114,349.316010 
	C95.567230,370.596954 96.360916,391.871613 96.834793,413.588623 
	C93.649223,411.760559 91.807472,405.604431 92.606796,401.954285 
	C93.366951,398.482910 93.877426,394.883759 93.901070,391.336823 
	C94.006943,375.455688 93.972366,359.572296 93.800301,343.691803 
	C93.770454,340.937286 92.808281,338.197144 92.321671,335.442444 
	C91.428192,330.384583 92.773354,325.929352 96.395966,321.989380 
z"/>
<path fill="#FEFDF5" opacity="1.000000" stroke="none" 
	d="
M90.836029,340.945831 
	C90.502197,344.657288 89.992409,347.952454 90.056801,351.236328 
	C90.251556,361.169067 90.964226,371.099609 90.891174,381.026703 
	C90.845917,387.176788 89.739151,393.319061 89.108887,399.464844 
	C88.646332,399.478241 88.183769,399.491638 87.721214,399.505035 
	C87.481659,398.539917 87.035370,397.575317 87.033142,396.609650 
	C86.990875,378.307739 86.951851,360.005310 87.091911,341.704376 
	C87.103340,340.209717 88.411102,338.724945 89.116508,337.235596 
	C89.718544,338.331848 90.320572,339.428131 90.836029,340.945831 
z"/>
<path fill="#FEF5DD" opacity="1.000000" stroke="none" 
	d="
M111.759232,244.828400 
	C112.177490,245.003448 112.346069,245.004211 112.767494,245.007874 
	C112.957047,245.509293 112.893753,246.007828 112.527771,246.973297 
	C112.102776,247.663651 112.060242,247.901413 112.097496,248.153503 
	C108.589256,262.851410 104.849472,277.499329 101.661278,292.266327 
	C99.805046,300.863922 98.832718,309.652344 97.229546,318.673462 
	C97.013382,313.308441 96.456001,307.550659 97.178383,301.958221 
	C98.339508,292.969086 100.032501,284.016541 102.076035,275.181641 
	C104.573318,264.385040 107.664452,253.725769 110.539726,242.852249 
	C110.910789,243.541656 111.210175,244.097900 111.759232,244.828400 
z"/>
<path fill="#FEF5DD" opacity="1.000000" stroke="none" 
	d="
M194.573883,593.407837 
	C201.622192,597.170349 208.643356,600.985229 215.735062,604.664062 
	C217.911835,605.793335 220.281723,606.550232 222.779266,607.758423 
	C222.273682,608.340637 221.377335,609.084412 220.856079,608.878479 
	C209.136093,604.249573 197.207520,600.003723 187.325546,591.773193 
	C187.239944,591.701843 187.301422,591.453918 187.725983,590.996521 
	C190.081268,591.534973 192.004837,592.365417 194.080994,593.275513 
	C194.233597,593.355225 194.573883,593.407837 194.573883,593.407837 
z"/>
<path fill="#FEF5DD" opacity="1.000000" stroke="none" 
	d="
M225.060974,609.280945 
	C235.181900,611.740295 245.321808,614.574463 255.747055,617.653076 
	C251.118988,620.416504 246.470963,618.641724 241.793320,617.053040 
	C237.691711,615.659973 233.502655,614.498840 229.479599,612.912292 
	C227.839966,612.265686 226.536407,610.766907 225.060974,609.280945 
z"/>
<path fill="#FEF5DD" opacity="1.000000" stroke="none" 
	d="
M224.417542,426.111145 
	C223.760590,424.495178 223.337784,423.127838 222.882629,421.401123 
	C224.869766,423.141357 227.450592,424.937378 228.786301,427.406830 
	C231.210358,431.888367 232.893311,436.770813 234.775024,441.876343 
	C231.326874,436.964478 227.989288,431.662170 224.417542,426.111145 
z"/>
<path fill="#FEF5DD" opacity="1.000000" stroke="none" 
	d="
M279.547363,248.889984 
	C280.133698,249.160690 280.329590,249.452332 280.759949,249.869675 
	C277.975647,251.455414 275.068054,253.254074 271.910370,254.291107 
	C267.816162,255.635712 263.522644,256.373596 259.123505,257.078308 
	C260.699249,255.934448 262.466400,255.084961 264.907227,254.113937 
	C266.360809,253.557022 267.140747,253.121628 267.920715,252.686249 
	C268.626587,252.396332 269.332458,252.106415 270.603760,251.825897 
	C271.433472,251.613602 271.697754,251.391907 271.962067,251.170227 
	C273.107330,250.810852 274.252563,250.451462 275.834747,250.008026 
	C276.520905,249.837509 276.726746,249.690430 276.889221,249.482727 
	C277.645142,249.292114 278.401031,249.101517 279.547363,248.889984 
z"/>
<path fill="#E0A254" opacity="1.000000" stroke="none" 
	d="
M193.928406,593.195801 
	C192.004837,592.365417 190.081268,591.534973 187.825928,590.640381 
	C187.494156,590.576172 187.385056,590.601624 187.235214,590.317749 
	C185.765213,589.275146 184.445053,588.516479 183.124893,587.757812 
	C183.028290,587.456055 182.843033,587.225586 182.198700,586.700195 
	C180.221970,584.887512 178.615662,583.440918 177.398987,581.983704 
	C179.770859,582.635925 181.932648,582.996887 183.688248,584.040955 
	C185.716919,585.247375 187.171524,587.825623 189.266846,588.413879 
	C192.086578,589.205444 193.302704,590.693909 193.928406,593.195801 
z"/>
<path fill="#FEF5DD" opacity="1.000000" stroke="none" 
	d="
M222.733017,419.119507 
	C220.404312,412.646576 218.191177,405.717346 216.030289,398.383057 
	C217.765610,401.670441 219.741928,405.263397 221.038834,409.086853 
	C222.072098,412.133118 222.276337,415.460571 222.733017,419.119507 
z"/>
<path fill="#FEF5DD" opacity="1.000000" stroke="none" 
	d="
M177.009354,581.994385 
	C178.615662,583.440918 180.221970,584.887512 181.985321,586.626282 
	C177.601120,586.916016 171.760193,583.028076 169.936798,578.460693 
	C169.897980,578.101562 170.099930,577.874207 170.506256,577.884399 
	C172.587982,578.950500 174.263397,580.006409 175.963562,581.044739 
	C175.988312,581.027161 175.943314,581.052246 176.024139,581.297485 
	C176.404770,581.692078 176.704559,581.841370 177.002090,581.995117 
	C176.999817,581.999634 177.009354,581.994385 177.009354,581.994385 
z"/>
<path fill="#FEF5DD" opacity="1.000000" stroke="none" 
	d="
M246.721390,454.923523 
	C244.877441,454.068817 243.157333,452.813324 241.365356,451.243256 
	C243.702682,451.263794 247.067993,450.122040 246.721390,454.923523 
z"/>
<path fill="#FEF5DD" opacity="1.000000" stroke="none" 
	d="
M238.955505,447.742798 
	C237.535355,446.414917 236.144943,444.697418 234.721771,442.653748 
	C236.121063,444.002777 237.553162,445.677979 238.955505,447.742798 
z"/>
<path fill="#FEF5DD" opacity="1.000000" stroke="none" 
	d="
M183.116470,588.127197 
	C184.445053,588.516479 185.765213,589.275146 187.183350,590.338806 
	C185.890228,589.928040 184.499146,589.212280 183.116470,588.127197 
z"/>
<path fill="#FEF5DD" opacity="1.000000" stroke="none" 
	d="
M216.087097,395.893921 
	C215.536407,395.252625 215.271149,394.438721 215.073074,393.295563 
	C215.551010,393.884644 215.961761,394.803009 216.087097,395.893921 
z"/>
<path fill="#FEF5DD" opacity="1.000000" stroke="none" 
	d="
M587.035522,622.463623 
	C587.702026,622.032043 588.432617,621.931641 589.531494,621.812439 
	C589.688782,624.147766 588.805603,624.622009 587.035522,622.463623 
z"/>
<path fill="#FEF5DD" opacity="1.000000" stroke="none" 
	d="
M107.015587,494.469910 
	C107.410316,495.049988 107.506805,495.626465 107.603287,496.202972 
	C107.197060,496.197968 106.790825,496.192963 106.384590,496.187958 
	C106.495506,495.614105 106.606422,495.040222 107.015587,494.469910 
z"/>
<path fill="#FEF5DD" opacity="1.000000" stroke="none" 
	d="
M215.076202,390.917755 
	C214.566605,390.252625 214.318268,389.448883 214.140289,388.322998 
	C214.586243,388.926971 214.961838,389.853058 215.076202,390.917755 
z"/>
<path fill="#FEF5DD" opacity="1.000000" stroke="none" 
	d="
M258.994385,618.606812 
	C259.504456,618.376892 260.075623,618.415100 260.838135,618.681030 
	C260.371460,618.897461 259.713470,618.886230 258.994385,618.606812 
z"/>
<path fill="#FEF5DD" opacity="1.000000" stroke="none" 
	d="
M107.532661,241.552185 
	C107.478653,241.584579 107.586670,241.519791 107.532661,241.552185 
z"/>
<path fill="#FEF5DD" opacity="1.000000" stroke="none" 
	d="
M240.845856,449.927856 
	C240.625168,449.990509 240.338882,449.777954 239.957657,449.310730 
	C240.168549,449.254944 240.474396,449.453796 240.845856,449.927856 
z"/>
<path fill="#F77E25" opacity="1.000000" stroke="none" 
	d="
M194.080994,593.275513 
	C193.302704,590.693909 192.086578,589.205444 189.266846,588.413879 
	C187.171524,587.825623 185.716919,585.247375 183.688248,584.040955 
	C181.932648,582.996887 179.770859,582.635925 177.398987,581.983704 
	C177.009354,581.994385 176.999817,581.999634 176.913940,581.753296 
	C176.533157,581.355408 176.238220,581.203857 175.943298,581.052246 
	C175.943314,581.052246 175.988312,581.027161 175.996750,580.670776 
	C175.973618,579.564941 175.942047,578.815613 176.190369,577.845947 
	C176.143829,576.533936 176.060806,574.674255 175.449738,574.480591 
	C172.460495,573.533142 171.893616,572.140808 172.655029,569.013062 
	C173.406143,565.927673 170.549561,565.774841 168.397980,566.160278 
	C166.860886,566.435669 165.443817,567.380981 163.978516,568.019531 
	C163.983841,568.011780 163.968674,568.036072 163.984756,567.640503 
	C165.594223,560.599792 165.386871,560.266602 159.553070,560.099365 
	C160.450989,556.916687 163.519012,553.825317 161.010986,550.634277 
	C158.298706,553.073059 156.084030,555.064392 153.653839,557.054199 
	C153.438324,557.052551 153.010193,557.002502 153.010193,557.002502 
	C152.661560,554.607788 152.312927,552.213074 151.974228,549.886658 
	C158.822739,547.913696 159.043030,547.229553 156.631760,540.807922 
	C155.961990,539.024231 156.023712,536.905029 156.023239,534.939636 
	C155.997070,425.882324 155.991318,316.824982 156.026169,207.767685 
	C156.027878,202.426208 154.364410,196.564758 160.024643,193.316925 
	C157.364624,189.978622 155.007706,187.270828 152.992218,184.329102 
	C152.433960,183.514282 152.890167,182.004395 152.880936,180.813416 
	C154.003769,181.119049 155.112610,181.501099 156.253143,181.710190 
	C157.558105,181.949432 159.102524,182.501846 160.141647,182.031570 
	C160.899490,181.688583 161.588379,179.736267 161.308960,178.799301 
	C159.723923,173.484146 162.450912,170.267639 166.656998,167.239853 
	C167.888153,167.762527 169.318649,168.369812 172.028946,169.520432 
	C171.344421,166.758224 170.906738,164.992096 170.408356,162.980957 
	C172.873642,161.457932 175.735016,159.908905 178.350220,158.019180 
	C181.608582,155.664673 184.781693,153.157913 187.744461,150.446777 
	C188.815826,149.466400 189.173050,147.705612 189.777344,145.896790 
	C189.698547,145.492661 189.751892,145.494705 190.035507,145.743713 
	C191.128830,146.340698 192.246201,147.215988 192.698807,146.951904 
	C195.874573,145.099014 198.913177,143.011093 202.074921,141.375366 
	C202.644043,142.139267 203.090607,142.783554 203.630249,142.874268 
	C211.360413,144.173553 212.981720,145.864914 212.986588,153.333160 
	C213.014099,195.441010 213.033524,237.549026 212.909164,279.656525 
	C212.902313,281.972900 212.074295,284.622284 210.770370,286.530212 
	C207.977737,290.616425 208.150009,294.923645 210.069321,298.757538 
	C212.952499,304.516907 211.356339,310.073456 209.837631,315.335510 
	C208.685303,319.328156 209.390686,320.181061 213.035034,320.000000 
	C212.293457,328.071320 211.374130,336.131744 210.876556,344.218079 
	C210.574936,349.119720 211.403046,354.111023 210.898300,358.976440 
	C209.074234,376.559540 212.926575,393.538391 216.329529,410.501434 
	C217.409851,415.886658 220.806519,420.807220 223.472656,426.063232 
	C225.445312,430.243256 227.088547,434.300415 228.481277,438.684540 
	C224.766144,439.149689 224.998184,441.661591 224.999054,444.033813 
	C225.002029,452.172821 225.000015,460.311829 225.000000,468.450836 
	C224.999985,505.024872 225.037674,541.598999 224.955505,578.172852 
	C224.944397,583.115112 224.331299,588.056030 223.631165,592.997986 
	C222.176712,593.332275 221.088058,593.666138 219.686432,594.036133 
	C218.582306,594.714783 217.791168,595.357422 216.602325,595.951477 
	C213.196075,595.532959 208.924500,592.239929 209.003052,599.014648 
	C205.844513,597.390686 202.725388,595.682007 199.507675,594.185303 
	C198.249725,593.600220 196.770233,593.491333 194.982758,593.286743 
	C194.573883,593.407837 194.233597,593.355225 194.080994,593.275513 
z"/>
<path fill="#F57A25" opacity="1.000000" stroke="none" 
	d="
M137.889679,540.082703 
	C141.674515,535.839844 142.513290,530.627808 141.733322,525.289429 
	C141.477448,523.538147 139.266235,522.074585 137.954788,520.474854 
	C136.341232,518.506775 134.527695,516.650574 133.290253,514.468323 
	C133.030930,514.011047 135.082153,511.304230 135.760269,511.421265 
	C138.356659,511.869263 140.869019,512.948608 143.323135,514.001160 
	C144.224792,514.387878 144.877731,515.354553 145.979263,516.363708 
	C145.979263,510.837555 146.137817,505.966736 145.864029,501.120270 
	C145.798340,499.957672 144.461121,498.114807 143.424988,497.889526 
	C138.982590,496.923615 138.941345,493.912781 138.953735,490.339569 
	C139.040909,465.192444 139.000000,440.044830 139.000000,414.897400 
	C139.000000,353.944000 139.019104,292.990601 138.953232,232.037277 
	C138.949234,228.324356 139.029465,225.486526 143.509201,224.022537 
	C147.307678,222.781174 147.215988,213.252655 143.571030,210.870041 
	C141.084396,209.244553 139.602692,207.762238 142.636871,205.438889 
	C143.223099,206.671188 143.443787,207.603699 143.664459,208.536194 
	C143.966156,208.513931 144.267853,208.491669 144.569550,208.469406 
	C144.712616,207.312729 144.855698,206.156067 144.998779,204.999390 
	C146.452850,200.653229 147.906891,196.307068 149.650940,191.094147 
	C150.713654,193.110596 152.026352,195.097794 152.810471,197.275345 
	C153.291916,198.612305 152.995499,200.240601 152.995575,201.738083 
	C153.000427,313.332520 153.002777,424.926941 152.987244,536.521362 
	C152.986755,540.041992 153.574631,543.927246 148.619339,545.570312 
	C147.340271,539.921936 143.522751,538.972961 138.270279,540.078125 
	C137.872467,540.115479 137.929535,540.050598 137.889679,540.082703 
z"/>
<path fill="#E0A254" opacity="1.000000" stroke="none" 
	d="
M152.700943,556.864319 
	C153.010193,557.002502 153.438324,557.052551 153.686874,557.443726 
	C153.963959,558.880737 153.992493,559.926575 154.021011,560.972351 
	C150.686996,557.252747 147.352997,553.533081 143.943817,549.485107 
	C146.709656,551.679932 149.550674,554.203064 152.700943,556.864319 
z"/>
<path fill="#F77E25" opacity="1.000000" stroke="none" 
	d="
M144.665756,204.999542 
	C144.855698,206.156067 144.712616,207.312729 144.569550,208.469406 
	C144.267853,208.491669 143.966156,208.513931 143.664459,208.536194 
	C143.443787,207.603699 143.223099,206.671188 143.001511,205.369949 
	C143.444656,205.000702 143.888687,205.000198 144.665756,204.999542 
z"/>
<path fill="#E0A254" opacity="1.000000" stroke="none" 
	d="
M142.834457,547.777344 
	C142.154770,547.373657 141.532562,546.599854 140.849976,545.527100 
	C141.490387,545.954407 142.191177,546.680847 142.834457,547.777344 
z"/>
<path fill="#FEF2D3" opacity="1.000000" stroke="none" 
	d="
M112.249252,248.027618 
	C112.060242,247.901413 112.102776,247.663651 112.343033,247.304718 
	C112.616585,247.427658 112.596596,247.671829 112.249252,248.027618 
z"/>
<path fill="#E0A254" opacity="1.000000" stroke="none" 
	d="
M143.798035,548.882446 
	C143.577271,548.980530 143.285965,548.828247 142.913696,548.433167 
	C143.130981,548.337646 143.429245,548.484863 143.798035,548.882446 
z"/>
<path fill="#E0A254" opacity="1.000000" stroke="none" 
	d="
M140.751694,544.932495 
	C140.507095,544.984009 140.225525,544.778259 139.936035,544.302856 
	C140.190323,544.247192 140.452515,544.461243 140.751694,544.932495 
z"/>
<path fill="#F09917" opacity="1.000000" stroke="none" 
	d="
M511.998779,619.997559 
	C481.311279,619.991455 450.623779,619.985291 419.372070,619.569824 
	C417.298157,618.773560 415.792633,618.072205 414.278107,618.052307 
	C405.957886,617.942566 397.635315,618.021484 389.313873,617.976746 
	C388.002167,617.969727 386.692047,617.662109 385.381226,617.493469 
	C385.364624,616.989136 385.348053,616.484802 385.331482,615.980469 
	C386.946808,615.653687 388.558044,615.071045 390.178223,615.044922 
	C396.833832,614.937805 403.524902,614.599487 410.138153,615.139282 
	C414.628265,615.505859 416.648773,612.869507 418.173798,609.888611 
	C419.003296,608.267212 418.030365,605.767212 418.012573,603.662231 
	C417.661346,562.096863 417.330963,520.531250 416.996338,478.965698 
	C448.351837,478.961487 479.707306,478.957275 511.524902,479.354248 
	C511.316010,480.785126 510.695496,482.664490 509.965881,482.707886 
	C504.885071,483.009857 504.941132,486.308380 504.958130,490.072784 
	C505.047577,509.886230 504.999969,529.700317 505.000000,549.514160 
	C505.000031,566.830505 504.948639,584.147156 505.078339,601.462524 
	C505.091583,603.228882 505.748016,606.086975 506.872742,606.541504 
	C510.170319,607.874390 513.828674,608.687073 517.393982,608.901611 
	C523.366516,609.260986 529.376282,608.999939 535.370422,609.000000 
	C537.699951,609.000000 540.029419,609.000000 542.358948,609.000000 
	C542.357178,609.666687 542.355408,610.333313 542.353638,611.000000 
	C539.510925,611.000000 536.664307,610.903381 533.825989,611.016052 
	C517.661133,611.657837 501.497864,612.340515 485.336212,613.058594 
	C484.714325,613.086243 484.114838,613.618042 483.504883,613.914856 
	C491.885803,615.000610 500.081970,615.116028 508.272522,614.950928 
	C512.247314,614.870789 513.479736,616.302124 511.998779,619.997559 
z"/>
<path fill="#F48D1D" opacity="1.000000" stroke="none" 
	d="
M289.007141,476.964935 
	C315.295013,480.166687 341.703918,478.610107 368.531921,479.454376 
	C369.000275,483.764923 368.823730,487.608337 369.075745,491.423462 
	C369.201324,493.324493 370.090515,495.180267 370.672394,497.044678 
	C371.428436,499.467041 372.888123,501.874451 372.899384,504.293640 
	C373.049866,536.612976 372.973602,568.933289 373.048004,601.253174 
	C373.054230,603.957642 373.738739,606.660461 374.289795,610.693909 
	C362.292053,611.642944 349.972748,612.617493 337.653473,613.591980 
	C337.652496,613.942688 337.651489,614.293335 337.650482,614.644043 
	C347.229584,615.210327 356.808716,615.776672 366.653290,616.358704 
	C366.406860,617.713379 366.205597,618.819580 366.004333,619.925842 
	C360.728546,619.638489 355.449829,619.062805 350.177521,619.116455 
	C332.523956,619.296021 314.873566,619.794189 297.220001,619.960144 
	C292.117920,620.008118 287.009155,619.349304 281.417664,618.649841 
	C281.637756,616.185242 281.730438,613.108643 283.182404,612.196899 
	C285.868530,610.510376 286.025085,608.537659 286.022919,605.960510 
	C285.989929,566.895264 286.081848,527.829651 285.886627,488.765411 
	C285.864563,484.353302 285.278320,480.203400 289.007141,476.964935 
z"/>
<path fill="#EE9E16" opacity="1.000000" stroke="none" 
	d="
M512.467529,620.002991 
	C513.479736,616.302124 512.247314,614.870789 508.272522,614.950928 
	C500.081970,615.116028 491.885803,615.000610 483.504883,613.914856 
	C484.114838,613.618042 484.714325,613.086243 485.336212,613.058594 
	C501.497864,612.340515 517.661133,611.657837 533.825989,611.016052 
	C536.664307,610.903381 539.510925,611.000000 542.353638,611.000000 
	C542.355408,610.333313 542.357178,609.666687 542.358948,609.000000 
	C540.029419,609.000000 537.699951,609.000000 535.370422,609.000000 
	C529.376282,608.999939 523.366516,609.260986 517.393982,608.901611 
	C513.828674,608.687073 510.170319,607.874390 506.872742,606.541504 
	C505.748016,606.086975 505.091583,603.228882 505.078339,601.462524 
	C504.948639,584.147156 505.000031,566.830505 505.000000,549.514160 
	C504.999969,529.700317 505.047577,509.886230 504.958130,490.072784 
	C504.941132,486.308380 504.885071,483.009857 509.965881,482.707886 
	C510.695496,482.664490 511.316010,480.785126 511.993500,479.363708 
	C535.326233,478.970093 558.653809,479.101410 581.977478,478.855225 
	C586.715881,478.805206 588.186890,479.979309 588.162598,484.869415 
	C587.969788,523.690125 588.026428,562.512268 588.095642,601.333801 
	C588.103271,605.628113 588.749207,609.917786 588.949768,614.216492 
	C589.081116,617.032532 588.039551,619.053772 584.797241,619.281860 
	C582.662598,619.432068 580.543152,620.018005 578.416138,620.021973 
	C556.589661,620.062805 534.762939,620.024597 512.467529,620.002991 
M560.694275,609.149170 
	C556.004639,609.149170 551.315063,609.149170 546.625427,609.149170 
	C546.689209,609.939026 546.752930,610.728943 546.816711,611.518799 
	C551.660767,610.882446 556.504761,610.246094 560.694275,609.149170 
z"/>
<path fill="#F68520" opacity="1.000000" stroke="none" 
	d="
M288.568542,476.956055 
	C285.278320,480.203400 285.864563,484.353302 285.886627,488.765411 
	C286.081848,527.829651 285.989929,566.895264 286.022919,605.960510 
	C286.025085,608.537659 285.868530,610.510376 283.182404,612.196899 
	C281.730438,613.108643 281.637756,616.185242 280.968384,618.635376 
	C263.986694,618.078735 247.795486,613.418762 231.334808,607.707397 
	C229.662720,604.364380 230.618057,603.000183 233.801483,602.980469 
	C235.790375,602.968201 237.777847,602.725708 240.294785,602.549500 
	C238.519302,597.857849 235.072678,598.298645 231.654831,597.965942 
	C228.872086,596.287109 226.434525,594.642334 223.996948,592.997559 
	C224.331299,588.056030 224.944397,583.115112 224.955505,578.172852 
	C225.037674,541.598999 224.999985,505.024872 225.000000,468.450836 
	C225.000015,460.311829 225.002029,452.172821 224.999054,444.033813 
	C224.998184,441.661591 224.766144,439.149689 228.639282,438.999512 
	C231.078156,441.914154 233.784027,444.587646 234.995682,447.821075 
	C237.383377,454.192932 243.566193,455.826904 247.897339,459.744202 
	C254.385300,465.612305 262.011475,469.317535 269.766785,472.580109 
	C275.487762,474.986816 281.980865,475.558075 288.568542,476.956055 
z"/>
<path fill="#F2921C" opacity="1.000000" stroke="none" 
	d="
M366.425781,619.943604 
	C366.205597,618.819580 366.406860,617.713379 366.653290,616.358704 
	C356.808716,615.776672 347.229584,615.210327 337.650482,614.644043 
	C337.651489,614.293335 337.652496,613.942688 337.653473,613.591980 
	C349.972748,612.617493 362.292053,611.642944 374.289795,610.693909 
	C373.738739,606.660461 373.054230,603.957642 373.048004,601.253174 
	C372.973602,568.933289 373.049866,536.612976 372.899384,504.293640 
	C372.888123,501.874451 371.428436,499.467041 370.672394,497.044678 
	C370.090515,495.180267 369.201324,493.324493 369.075745,491.423462 
	C368.823730,487.608337 369.000275,483.764923 369.000580,479.466003 
	C384.687469,478.983093 400.373688,478.967346 416.528137,478.958679 
	C417.330963,520.531250 417.661346,562.096863 418.012573,603.662231 
	C418.030365,605.767212 419.003296,608.267212 418.173798,609.888611 
	C416.648773,612.869507 414.628265,615.505859 410.138153,615.139282 
	C403.524902,614.599487 396.833832,614.937805 390.178223,615.044922 
	C388.558044,615.071045 386.946808,615.653687 385.331482,615.980469 
	C385.348053,616.484802 385.364624,616.989136 385.381226,617.493469 
	C386.692047,617.662109 388.002167,617.969727 389.313873,617.976746 
	C397.635315,618.021484 405.957886,617.942566 414.278107,618.052307 
	C415.792633,618.072205 417.298157,618.773560 418.903809,619.549255 
	C404.735901,619.645813 390.472809,619.290161 376.207520,619.110840 
	C373.091461,619.071594 369.967529,619.661377 366.425781,619.943604 
z"/>
<path fill="#F78221" opacity="1.000000" stroke="none" 
	d="
M223.631165,592.997986 
	C226.434525,594.642334 228.872086,596.287109 231.652832,598.379028 
	C232.291977,601.647949 230.574097,601.826050 228.338791,602.149597 
	C227.112350,602.327087 226.104279,604.013367 224.997742,605.019348 
	C222.908829,604.391541 220.819916,603.763733 218.248779,602.847412 
	C217.471786,602.386353 217.177002,602.213928 216.882217,602.041443 
	C214.499817,601.045898 212.117432,600.050415 209.369049,599.034790 
	C208.924500,592.239929 213.196075,595.532959 216.769272,596.196899 
	C217.889053,596.660583 218.444229,596.830261 219.053635,597.348877 
	C220.635849,598.903503 222.163818,600.109192 223.976913,601.539917 
	C225.320862,596.091675 225.200607,595.931152 220.000290,594.750000 
	C219.999771,594.333313 219.999588,594.166687 219.999390,594.000000 
	C221.088058,593.666138 222.176712,593.332275 223.631165,592.997986 
z"/>
<path fill="#F77E25" opacity="1.000000" stroke="none" 
	d="
M225.307709,605.166870 
	C226.104279,604.013367 227.112350,602.327087 228.338791,602.149597 
	C230.574097,601.826050 232.291977,601.647949 231.998016,598.413025 
	C235.072678,598.298645 238.519302,597.857849 240.294785,602.549500 
	C237.777847,602.725708 235.790375,602.968201 233.801483,602.980469 
	C230.618057,603.000183 229.662720,604.364380 230.965164,607.652954 
	C229.208084,607.119629 227.412888,606.217041 225.307709,605.166870 
z"/>
<path fill="#F77E25" opacity="1.000000" stroke="none" 
	d="
M217.018280,602.259644 
	C217.177002,602.213928 217.471786,602.386353 217.888885,602.789185 
	C217.725571,602.838989 217.439957,602.658386 217.018280,602.259644 
z"/>
<path fill="#EF9B17" opacity="1.000000" stroke="none" 
	d="
M581.018860,114.922806 
	C582.091125,114.947411 583.163330,114.972015 584.637939,115.041092 
	C590.132263,117.685616 588.037109,122.250534 588.039307,126.205879 
	C588.059631,162.854004 588.055115,199.502136 588.053101,236.150269 
	C588.052734,242.891525 588.057556,242.703506 581.229675,242.173203 
	C578.312012,241.946579 575.319336,242.948074 572.360352,242.951187 
	C521.552795,243.004715 470.745239,242.989319 419.476685,242.576477 
	C419.677124,237.128525 420.880066,232.096451 420.910889,227.057220 
	C421.092102,197.433014 421.111603,167.806320 420.897827,138.182541 
	C420.859039,132.803772 422.654449,129.742050 427.985291,129.580536 
	C433.234253,129.421494 438.500488,129.935410 443.759399,129.941742 
	C445.413940,129.943741 447.069305,129.259613 448.724274,128.889511 
	C448.623871,128.272812 448.523468,127.656105 448.423035,127.039398 
	C431.480560,127.039398 414.538086,127.039398 397.004425,127.039398 
	C398.404633,125.156204 399.204742,124.080086 400.472961,123.003441 
	C409.294037,123.001137 417.647034,122.999344 426.468658,122.998596 
	C476.755676,122.999641 526.574036,122.999641 576.700806,122.999641 
	C576.386475,121.227615 576.189575,120.117630 576.409668,119.004166 
	C578.527161,119.000687 580.227539,119.000687 581.927917,119.000687 
	C581.923218,118.668068 581.918518,118.335449 581.913818,118.002831 
	C580.106384,118.002831 578.298889,118.002914 576.491455,118.002823 
	C530.785583,118.000656 485.079681,118.020851 439.374054,117.913200 
	C437.573730,117.908966 435.776245,116.684898 434.447388,116.017189 
	C466.976837,116.000084 499.036346,115.994476 531.095886,115.990189 
	C545.131409,115.988312 559.167297,116.042679 573.202087,115.940628 
	C575.809998,115.921669 578.413391,115.278107 581.018860,114.922806 
z"/>
<path fill="#F38F1C" opacity="1.000000" stroke="none" 
	d="
M373.999115,242.052597 
	C357.979675,242.054520 341.960266,242.056442 325.394806,241.666168 
	C320.916565,240.515961 316.973602,239.103912 313.054932,239.168518 
	C308.344086,239.246201 306.850403,238.013168 306.886902,233.106720 
	C307.112091,202.829147 307.000000,172.549057 307.000000,142.269806 
	C307.000000,132.250198 307.014832,132.493484 317.153168,131.875626 
	C321.024353,131.639725 324.810364,130.005753 328.635193,129.008911 
	C328.490967,128.727402 328.346741,128.445892 328.202515,128.164383 
	C315.544373,126.570801 302.886261,124.977219 290.087646,123.365952 
	C291.064667,118.318222 293.610229,118.821152 296.128693,119.320351 
	C302.267731,120.537186 308.356140,122.338142 314.552277,122.853394 
	C321.987518,123.471695 329.513367,123.000198 337.045502,123.389832 
	C337.668610,126.749084 339.742706,127.055252 342.324982,127.038170 
	C355.137451,126.953430 367.950806,126.986610 380.763763,127.017143 
	C382.326477,127.020866 383.888672,127.258484 385.451111,127.387703 
	C377.000031,131.126205 377.000000,131.126205 377.000000,140.112747 
	C377.000000,169.898849 376.961151,199.685074 377.041534,229.470963 
	C377.053711,233.978210 377.074951,238.353806 373.999115,242.052597 
z"/>
<path fill="#F1921C" opacity="1.000000" stroke="none" 
	d="
M374.459747,242.056992 
	C377.074951,238.353806 377.053711,233.978210 377.041534,229.470963 
	C376.961151,199.685074 377.000000,169.898849 377.000000,140.112747 
	C377.000000,131.126205 377.000031,131.126205 385.451111,127.387703 
	C383.888672,127.258484 382.326477,127.020866 380.763763,127.017143 
	C367.950806,126.986610 355.137451,126.953430 342.324982,127.038170 
	C339.742706,127.055252 337.668610,126.749084 337.514160,123.389709 
	C348.291534,123.000336 358.645782,123.000320 369.468658,123.000504 
	C379.959839,123.001785 389.982361,123.002876 400.004883,123.003967 
	C399.204742,124.080086 398.404633,125.156204 397.004425,127.039398 
	C414.538086,127.039398 431.480560,127.039398 448.423035,127.039398 
	C448.523468,127.656105 448.623871,128.272812 448.724274,128.889511 
	C447.069305,129.259613 445.413940,129.943741 443.759399,129.941742 
	C438.500488,129.935410 433.234253,129.421494 427.985291,129.580536 
	C422.654449,129.742050 420.859039,132.803772 420.897827,138.182541 
	C421.111603,167.806320 421.092102,197.433014 420.910889,227.057220 
	C420.880066,232.096451 419.677124,237.128525 419.008484,242.556915 
	C404.307617,242.653748 389.613983,242.357574 374.459747,242.056992 
z"/>
<path fill="#F38A20" opacity="1.000000" stroke="none" 
	d="
M369.000000,123.000305 
	C358.645782,123.000320 348.291534,123.000336 337.468658,123.000481 
	C329.513367,123.000198 321.987518,123.471695 314.552277,122.853394 
	C308.356140,122.338142 302.267731,120.537186 296.128693,119.320351 
	C293.610229,118.821152 291.064667,118.318222 290.087646,123.365952 
	C302.886261,124.977219 315.544373,126.570801 328.202515,128.164383 
	C328.346741,128.445892 328.490967,128.727402 328.635193,129.008911 
	C324.810364,130.005753 321.024353,131.639725 317.153168,131.875626 
	C307.014832,132.493484 307.000000,132.250198 307.000000,142.269806 
	C307.000000,172.549057 307.112091,202.829147 306.886902,233.106720 
	C306.850403,238.013168 308.344086,239.246201 313.054932,239.168518 
	C316.973602,239.103912 320.916565,240.515961 324.926758,241.661606 
	C323.397980,242.362503 321.793060,242.936905 320.184265,242.948059 
	C306.121918,243.045593 291.986847,242.227264 278.352142,246.925232 
	C277.304657,247.286148 276.042542,247.024185 274.252136,246.759644 
	C270.463135,243.956375 272.639282,241.157394 274.167084,239.650009 
	C276.933624,236.920486 277.030701,233.926254 277.025330,230.546448 
	C276.980652,202.548599 276.798981,174.548325 277.124634,146.554184 
	C277.220154,138.341766 276.489868,130.648529 272.362793,124.316437 
	C269.743011,124.910248 267.278717,126.089706 264.949341,125.865799 
	C260.292389,125.418175 255.616669,123.157883 251.118378,123.557266 
	C244.994370,124.100975 239.029083,126.432686 232.746323,127.999001 
	C232.496902,128.000305 231.998093,128.005310 231.748581,128.005829 
	C231.499069,128.006363 231.000076,128.010788 230.667053,128.007324 
	C229.890137,128.010880 229.446228,128.017883 228.669083,128.017059 
	C227.891418,128.002686 227.447006,127.996147 227.001984,127.765404 
	C227.001389,127.541191 227.004288,127.092781 227.004288,127.092781 
	C251.425201,118.011421 276.672913,113.838646 302.715515,113.872719 
	C393.989838,113.992149 485.264282,113.989037 576.538696,114.042648 
	C577.862000,114.043427 579.185181,114.175606 580.763672,114.584625 
	C578.413391,115.278107 575.809998,115.921669 573.202087,115.940628 
	C559.167297,116.042679 545.131409,115.988312 531.095886,115.990189 
	C499.036346,115.994476 466.976837,116.000084 433.981232,116.007431 
	C424.704071,116.016304 416.362946,116.022911 407.551147,116.017365 
	C387.046051,116.020187 367.011658,116.035164 346.510925,116.039154 
	C337.241730,116.387054 328.438904,116.745941 319.636047,117.104820 
	C319.665985,117.740898 319.695923,118.376976 319.725891,119.013054 
	C335.817261,119.013054 351.908661,119.013054 368.031982,119.357025 
	C368.375946,120.800774 368.687958,121.900543 369.000000,123.000305 
z"/>
<path fill="#F68421" opacity="1.000000" stroke="none" 
	d="
M227.002594,127.989616 
	C227.447006,127.996147 227.891418,128.002686 228.816864,128.237961 
	C229.865295,128.314728 230.432678,128.162766 231.000076,128.010788 
	C231.000076,128.010788 231.499069,128.006363 231.838470,128.171967 
	C232.450500,128.224289 232.723114,128.110992 232.995743,127.997696 
	C239.029083,126.432686 244.994370,124.100975 251.118378,123.557266 
	C255.616669,123.157883 260.292389,125.418175 264.949341,125.865799 
	C267.278717,126.089706 269.743011,124.910248 272.362793,124.316437 
	C276.489868,130.648529 277.220154,138.341766 277.124634,146.554184 
	C276.798981,174.548325 276.980652,202.548599 277.025330,230.546448 
	C277.030701,233.926254 276.933624,236.920486 274.167084,239.650009 
	C272.639282,241.157394 270.463135,243.956375 273.825348,246.754669 
	C273.288940,247.067810 272.551239,247.093857 271.267395,246.792755 
	C264.821228,243.160568 257.376038,243.647202 255.315918,247.628082 
	C258.244019,248.786301 261.157471,249.938690 264.070892,251.091095 
	C257.152222,255.371307 250.207199,259.609802 243.329666,263.955139 
	C241.028595,265.408997 238.899826,267.135559 236.011932,268.816742 
	C233.874878,268.207703 232.277863,267.710052 231.004288,266.772858 
	C229.914688,265.971039 228.323334,264.468506 228.512985,263.627502 
	C228.814545,262.290344 230.274918,261.057281 231.514114,260.145874 
	C232.299988,259.567902 233.573486,259.652893 235.431824,259.278839 
	C229.246368,252.018860 231.072250,243.828339 231.045929,236.009216 
	C230.936600,203.538422 230.894623,171.066315 231.115143,138.596649 
	C231.147720,133.800293 229.645035,131.444504 224.999222,130.750549 
	C224.992752,130.333832 224.988907,130.167175 224.990372,129.707047 
	C225.001755,129.022644 225.007843,128.631714 225.013931,128.240768 
	C225.013931,128.240768 225.426407,128.030228 225.934982,128.010117 
	C226.629913,127.989868 226.816254,127.989746 227.002594,127.989616 
M260.000000,180.500000 
	C260.000000,199.423630 260.000000,218.347244 260.000000,237.417770 
	C261.901428,237.814865 263.346771,238.042435 264.750732,238.422714 
	C270.986328,240.111710 270.996460,240.127548 270.997559,233.609665 
	C271.002899,201.507339 270.898499,169.404358 271.112274,137.303452 
	C271.143372,132.635803 269.496704,131.835754 265.358337,131.866287 
	C261.406464,131.895447 259.816986,132.728973 259.899780,137.086929 
	C260.168304,151.220154 260.000061,165.361679 260.000000,180.500000 
z"/>
<path fill="#F78221" opacity="1.000000" stroke="none" 
	d="
M225.001862,131.000610 
	C229.645035,131.444504 231.147720,133.800293 231.115143,138.596649 
	C230.894623,171.066315 230.936600,203.538422 231.045929,236.009216 
	C231.072250,243.828339 229.246368,252.018860 235.431824,259.278839 
	C233.573486,259.652893 232.299988,259.567902 231.514114,260.145874 
	C230.274918,261.057281 228.814545,262.290344 228.512985,263.627502 
	C228.323334,264.468506 229.914688,265.971039 231.004288,266.772858 
	C232.277863,267.710052 233.874878,268.207703 235.687180,268.956421 
	C234.026169,272.207794 232.063446,275.434570 229.975021,278.577850 
	C228.445679,280.879608 226.751190,283.071625 224.676941,285.657806 
	C223.310608,286.240143 221.744431,286.264801 221.587372,286.747742 
	C220.262955,290.820374 219.196182,294.976776 218.051971,299.108002 
	C218.058197,299.508636 218.064438,299.909241 218.041290,301.005310 
	C218.019608,302.488739 218.027313,303.276794 218.035004,304.064819 
	C216.712204,307.777924 215.389404,311.491028 213.742722,315.632385 
	C213.302979,316.719757 213.187119,317.378845 213.071228,318.037933 
	C213.065674,318.473999 213.060135,318.910095 213.044800,319.673096 
	C209.390686,320.181061 208.685303,319.328156 209.837631,315.335510 
	C211.356339,310.073456 212.952499,304.516907 210.069321,298.757538 
	C208.150009,294.923645 207.977737,290.616425 210.770370,286.530212 
	C212.074295,284.622284 212.902313,281.972900 212.909164,279.656525 
	C213.033524,237.549026 213.014099,195.441010 212.986588,153.333160 
	C212.981720,145.864914 211.360413,144.173553 203.630249,142.874268 
	C203.090607,142.783554 202.644043,142.139267 202.239899,141.059952 
	C207.217789,138.577515 212.109985,136.787537 217.401215,134.998352 
	C221.084641,135.258194 223.772659,134.443130 225.001862,131.000610 
M224.392242,136.744736 
	C221.048523,135.960159 220.311172,137.090378 222.143555,140.740402 
	C224.012421,140.572388 225.881287,140.404358 227.750153,140.236343 
	C226.833221,139.157608 225.916306,138.078873 224.392242,136.744736 
M223.818253,270.376190 
	C223.863739,272.131073 223.909210,273.885956 223.954681,275.640839 
	C224.868393,275.194275 226.360916,274.938599 226.583359,274.264038 
	C227.166992,272.494263 227.865753,270.202484 223.818253,270.376190 
z"/>
<path fill="#F38A20" opacity="1.000000" stroke="none" 
	d="
M264.426147,251.068512 
	C261.157471,249.938690 258.244019,248.786301 255.315918,247.628082 
	C257.376038,243.647202 264.821228,243.160568 270.899231,246.809143 
	C268.978607,248.450424 266.880005,249.748169 264.426147,251.068512 
z"/>
<path fill="#F77E25" opacity="1.000000" stroke="none" 
	d="
M218.323700,298.881531 
	C219.196182,294.976776 220.262955,290.820374 221.587372,286.747742 
	C221.744431,286.264801 223.310608,286.240143 224.629669,286.001526 
	C222.888992,290.218353 220.742218,294.436707 218.323700,298.881531 
z"/>
<path fill="#F77E25" opacity="1.000000" stroke="none" 
	d="
M213.307785,317.857910 
	C213.187119,317.378845 213.302979,316.719757 213.717361,316.028442 
	C213.858688,316.556763 213.701508,317.117310 213.307785,317.857910 
z"/>
<path fill="#F77E25" opacity="1.000000" stroke="none" 
	d="
M218.283783,303.867004 
	C218.027313,303.276794 218.019608,302.488739 218.026627,301.305481 
	C218.205093,301.829926 218.368835,302.749573 218.283783,303.867004 
z"/>
<path fill="#FEF2D3" opacity="1.000000" stroke="none" 
	d="
M267.578064,252.744156 
	C267.140747,253.121628 266.360809,253.557022 265.206604,253.989471 
	C265.633392,253.591705 266.434418,253.196884 267.578064,252.744156 
z"/>
<path fill="#FEF2D3" opacity="1.000000" stroke="none" 
	d="
M276.682007,249.460846 
	C276.726746,249.690430 276.520905,249.837509 276.081421,249.968964 
	C275.995667,249.730698 276.190186,249.539017 276.682007,249.460846 
z"/>
<path fill="#FEF2D3" opacity="1.000000" stroke="none" 
	d="
M271.701416,251.195618 
	C271.697754,251.391907 271.433472,251.613602 270.899109,251.856094 
	C270.899597,251.658264 271.170197,251.439636 271.701416,251.195618 
z"/>
<path fill="#F77728" opacity="1.000000" stroke="none" 
	d="
M217.002182,134.997559 
	C212.109985,136.787537 207.217789,138.577515 202.160614,140.682907 
	C198.913177,143.011093 195.874573,145.099014 192.698807,146.951904 
	C192.246201,147.215988 191.128830,146.340698 190.062088,145.741241 
	C200.118103,137.389130 212.112854,132.648514 224.643494,128.239609 
	C225.007843,128.631714 225.001755,129.022644 224.635635,129.745087 
	C221.851135,131.716904 219.426666,133.357239 217.002182,134.997559 
z"/>
<path fill="#F77E25" opacity="1.000000" stroke="none" 
	d="
M227.001984,127.765404 
	C226.816254,127.989746 226.629913,127.989868 226.163330,127.971718 
	C226.076645,127.662933 226.270203,127.372437 226.734024,127.087357 
	C227.004288,127.092781 227.001389,127.541191 227.001984,127.765404 
z"/>
<path fill="#F77728" opacity="1.000000" stroke="none" 
	d="
M154.149414,561.077454 
	C153.992493,559.926575 153.963959,558.880737 153.902374,557.445374 
	C156.084030,555.064392 158.298706,553.073059 161.010986,550.634277 
	C163.519012,553.825317 160.450989,556.916687 159.553070,560.099365 
	C165.386871,560.266602 165.594223,560.599792 163.646667,567.588379 
	C161.175461,566.642639 159.058426,565.353333 156.941406,564.064026 
	C156.941406,564.064026 157.001343,564.013611 156.983383,563.712830 
	C156.537613,563.059998 156.109787,562.707886 155.681976,562.355835 
	C155.681976,562.355835 155.690323,562.292297 155.659653,561.974487 
	C155.285202,561.528198 154.941422,561.399658 154.597641,561.271118 
	C154.597641,561.271118 154.277802,561.182556 154.149414,561.077454 
z"/>
<path fill="#E0A254" opacity="1.000000" stroke="none" 
	d="
M157.001129,564.393311 
	C159.058426,565.353333 161.175461,566.642639 163.630585,567.984009 
	C163.968674,568.036072 163.983841,568.011780 164.125793,568.325256 
	C168.148651,571.781250 172.029556,574.923767 175.910461,578.066223 
	C175.942047,578.815613 175.973618,579.564941 175.971985,580.688354 
	C174.263397,580.006409 172.587982,578.950500 170.605179,577.768921 
	C165.885483,573.336426 161.473160,569.029480 157.001129,564.393311 
z"/>
<path fill="#E0A254" opacity="1.000000" stroke="none" 
	d="
M155.700958,562.642029 
	C156.109787,562.707886 156.537613,563.059998 156.949554,563.731079 
	C156.529114,563.676208 156.124512,563.302246 155.700958,562.642029 
z"/>
<path fill="#E0A254" opacity="1.000000" stroke="none" 
	d="
M154.696320,561.509033 
	C154.941422,561.399658 155.285202,561.528198 155.637817,561.951050 
	C155.362778,562.079224 155.078888,561.913086 154.696320,561.509033 
z"/>
<path fill="#E0A254" opacity="1.000000" stroke="none" 
	d="
M176.024139,581.297485 
	C176.238220,581.203857 176.533157,581.355408 176.916229,581.748779 
	C176.704559,581.841370 176.404770,581.692078 176.024139,581.297485 
z"/>
<path fill="#F77728" opacity="1.000000" stroke="none" 
	d="
M176.190369,577.845947 
	C172.029556,574.923767 168.148651,571.781250 164.120453,568.333008 
	C165.443817,567.380981 166.860886,566.435669 168.397980,566.160278 
	C170.549561,565.774841 173.406143,565.927673 172.655029,569.013062 
	C171.893616,572.140808 172.460495,573.533142 175.449738,574.480591 
	C176.060806,574.674255 176.143829,576.533936 176.190369,577.845947 
z"/>
<path fill="#F68520" opacity="1.000000" stroke="none" 
	d="
M218.999390,597.000000 
	C218.444229,596.830261 217.889053,596.660583 217.166962,596.245422 
	C217.791168,595.357422 218.582306,594.714783 219.686432,594.036072 
	C219.999588,594.166687 219.999771,594.333313 219.893265,595.009033 
	C219.524170,596.012085 219.261780,596.506042 218.999390,597.000000 
z"/>
<path fill="#F09917" opacity="1.000000" stroke="none" 
	d="
M561.021545,609.379456 
	C556.504761,610.246094 551.660767,610.882446 546.816711,611.518799 
	C546.752930,610.728943 546.689209,609.939026 546.625427,609.149170 
	C551.315063,609.149170 556.004639,609.149170 561.021545,609.379456 
z"/>
<path fill="#F77E25" opacity="1.000000" stroke="none" 
	d="
M219.053635,597.348877 
	C219.261780,596.506042 219.524170,596.012085 219.893585,595.259033 
	C225.200607,595.931152 225.320862,596.091675 223.976913,601.539917 
	C222.163818,600.109192 220.635849,598.903503 219.053635,597.348877 
z"/>
<path fill="#F1971F" opacity="1.000000" stroke="none" 
	d="
M575.992676,119.007629 
	C576.189575,120.117630 576.386475,121.227615 576.700806,122.999641 
	C526.574036,122.999641 476.755676,122.999641 426.468628,122.600922 
	C425.997955,121.142868 425.995911,120.083542 426.462891,119.018120 
	C476.618835,119.010567 526.305786,119.009102 575.992676,119.007629 
z"/>
<path fill="#EE940C" opacity="1.000000" stroke="none" 
	d="
M576.409729,119.004158 
	C526.305786,119.009102 476.618835,119.010567 425.994965,119.011688 
	C406.038696,119.011917 387.019379,119.012489 368.000061,119.013054 
	C351.908661,119.013054 335.817261,119.013054 319.725891,119.013054 
	C319.695923,118.376976 319.665985,117.740898 319.636047,117.104820 
	C328.438904,116.745941 337.241730,116.387054 346.613373,116.428543 
	C348.191406,117.217018 349.199432,117.939720 350.210114,117.943542 
	C368.344849,118.012009 386.480164,118.028908 404.614349,117.909515 
	C405.754242,117.902008 406.886200,116.684242 408.021851,116.029526 
	C416.362946,116.022911 424.704071,116.016304 433.511292,116.019455 
	C435.776245,116.684898 437.573730,117.908966 439.374054,117.913200 
	C485.079681,118.020851 530.785583,118.000656 576.491455,118.002823 
	C578.298889,118.002914 580.106384,118.002831 581.913818,118.002831 
	C581.918518,118.335449 581.923218,118.668068 581.927917,119.000687 
	C580.227539,119.000687 578.527161,119.000687 576.409729,119.004158 
z"/>
<path fill="#F59021" opacity="1.000000" stroke="none" 
	d="
M368.031982,119.357025 
	C387.019379,119.012489 406.038696,119.011917 425.525940,119.017776 
	C425.995911,120.083542 425.997955,121.142868 426.000000,122.599884 
	C417.647034,122.999344 409.294037,123.001137 400.472961,123.003448 
	C389.982361,123.002876 379.959839,123.001785 369.468658,123.000504 
	C368.687958,121.900543 368.375946,120.800774 368.031982,119.357025 
z"/>
<path fill="#EF9B17" opacity="1.000000" stroke="none" 
	d="
M407.551147,116.017365 
	C406.886200,116.684242 405.754242,117.902008 404.614349,117.909515 
	C386.480164,118.028908 368.344849,118.012009 350.210114,117.943542 
	C349.199432,117.939720 348.191406,117.217018 347.079712,116.439529 
	C367.011658,116.035164 387.046051,116.020187 407.551147,116.017365 
z"/>
<path fill="#F77E25" opacity="1.000000" stroke="none" 
	d="
M230.667053,128.007324 
	C230.432678,128.162766 229.865295,128.314728 229.150116,128.245789 
	C229.446228,128.017883 229.890137,128.010880 230.667053,128.007324 
z"/>
<path fill="#F77E25" opacity="1.000000" stroke="none" 
	d="
M232.746323,127.998993 
	C232.723114,128.110992 232.450500,128.224289 232.087982,128.171448 
	C231.998093,128.005310 232.496902,128.000305 232.746323,127.998993 
z"/>
<path fill="#F38A20" opacity="1.000000" stroke="none" 
	d="
M260.000000,180.000000 
	C260.000061,165.361679 260.168304,151.220154 259.899780,137.086929 
	C259.816986,132.728973 261.406464,131.895447 265.358337,131.866287 
	C269.496704,131.835754 271.143372,132.635803 271.112274,137.303452 
	C270.898499,169.404358 271.002899,201.507339 270.997559,233.609665 
	C270.996460,240.127548 270.986328,240.111710 264.750732,238.422714 
	C263.346771,238.042435 261.901428,237.814865 260.000000,237.417770 
	C260.000000,218.347244 260.000000,199.423630 260.000000,180.000000 
z"/>
<path fill="#F77E25" opacity="1.000000" stroke="none" 
	d="
M217.401215,134.998352 
	C219.426666,133.357239 221.851135,131.716904 224.630341,130.038544 
	C224.988907,130.167175 224.992752,130.333832 224.999222,130.750549 
	C223.772659,134.443130 221.084641,135.258194 217.401215,134.998352 
z"/>
<path fill="#F77E25" opacity="1.000000" stroke="none" 
	d="
M224.196167,270.248474 
	C227.865753,270.202484 227.166992,272.494263 226.583359,274.264038 
	C226.360916,274.938599 224.868393,275.194275 223.954681,275.640839 
	C223.909210,273.885956 223.863739,272.131073 224.196167,270.248474 
z"/>
<path fill="#F68421" opacity="1.000000" stroke="none" 
	d="
M224.999390,137.000153 
	C225.916306,138.078873 226.833221,139.157608 227.750153,140.236328 
	C225.881287,140.404358 224.012421,140.572388 222.442932,140.363007 
	C223.494659,138.990448 224.247025,137.995300 224.999390,137.000153 
z"/>
<path fill="#F77E25" opacity="1.000000" stroke="none" 
	d="
M224.695831,136.872437 
	C224.247025,137.995300 223.494659,138.990448 222.370667,139.993958 
	C220.311172,137.090378 221.048523,135.960159 224.695831,136.872437 
z"/>
</svg>