<?xml version="1.0" encoding="UTF-8"?><svg id="a" xmlns="http://www.w3.org/2000/svg" width="153" height="150" viewBox="0 0 153 150"><defs><style>.e{fill:none;}.f{fill:#5865f2;}</style></defs><rect class="e" width="153" height="150"/><g id="b"><g id="c"><g id="d"><path class="f" d="M114.55,40.41c-7.2-3.3-14.81-5.64-22.62-6.96-1.07,1.91-2.04,3.88-2.9,5.89-8.32-1.25-16.78-1.25-25.1,0-.86-2.01-1.83-3.98-2.9-5.89-7.82,1.33-15.43,3.68-22.64,6.98-14.31,21.18-18.19,41.83-16.25,62.19h0c8.38,6.19,17.77,10.9,27.74,13.93,2.25-3.02,4.23-6.23,5.94-9.58-3.24-1.21-6.37-2.71-9.36-4.47,.78-.57,1.55-1.16,2.29-1.72,17.57,8.26,37.9,8.26,55.46,0,.75,.61,1.52,1.2,2.29,1.72-2.99,1.76-6.12,3.26-9.37,4.48,1.71,3.35,3.69,6.56,5.94,9.57,9.98-3.01,19.37-7.72,27.76-13.92h0c2.28-23.61-3.89-44.07-16.3-62.22Zm-56.27,49.69c-5.41,0-9.87-4.91-9.87-10.94s4.31-10.99,9.86-10.99,9.98,4.95,9.88,10.99-4.35,10.94-9.86,10.94Zm36.42,0c-5.42,0-9.86-4.91-9.86-10.94s4.31-10.99,9.86-10.99,9.95,4.95,9.86,10.99c-.09,6.04-4.35,10.94-9.86,10.94Z"/></g></g></g></svg>