<?xml version="1.0" encoding="UTF-8"?><svg id="a" xmlns="http://www.w3.org/2000/svg" width="245" height="240" viewBox="0 0 245 240"><defs><style>.e{fill:none;}.f{fill:#5865f2;}</style></defs><rect class="e" width="245" height="240"/><g id="b"><g id="c"><g id="d"><path class="f" d="M183.44,64.62c-11.53-5.28-23.71-9.03-36.22-11.14-1.71,3.06-3.26,6.21-4.64,9.43-13.32-2.01-26.87-2.01-40.2,0-1.38-3.22-2.93-6.37-4.64-9.43-12.52,2.13-24.7,5.89-36.25,11.17-22.92,33.91-29.14,66.98-26.03,99.59h0c13.42,9.92,28.45,17.46,44.42,22.3,3.6-4.84,6.78-9.97,9.51-15.34-5.19-1.94-10.21-4.33-14.98-7.15,1.26-.91,2.49-1.85,3.67-2.76,28.13,13.23,60.69,13.23,88.81,0,1.2,.98,2.43,1.92,3.67,2.76-4.78,2.82-9.81,5.22-15.01,7.17,2.73,5.37,5.91,10.5,9.51,15.33,15.99-4.82,31.02-12.36,44.45-22.29h0c3.65-37.81-6.23-70.57-26.1-99.63Zm-90.1,79.56c-8.66,0-15.81-7.86-15.81-17.52s6.9-17.59,15.78-17.59,15.98,7.93,15.82,17.59-6.97,17.52-15.8,17.52Zm58.33,0c-8.67,0-15.8-7.86-15.8-17.52s6.9-17.59,15.8-17.59,15.93,7.93,15.78,17.59c-.15,9.67-6.96,17.52-15.78,17.52Z"/></g></g></g></svg>