<?xml version="1.0" encoding="UTF-8" standalone="no"?>
<svg
   xmlns:dc="http://purl.org/dc/elements/1.1/"
   xmlns:cc="http://creativecommons.org/ns#"
   xmlns:rdf="http://www.w3.org/1999/02/22-rdf-syntax-ns#"
   xmlns:svg="http://www.w3.org/2000/svg"
   xmlns="http://www.w3.org/2000/svg"
   xmlns:sodipodi="http://sodipodi.sourceforge.net/DTD/sodipodi-0.dtd"
   xmlns:inkscape="http://www.inkscape.org/namespaces/inkscape"
   viewBox="0 0 700 700"
   class="logo-3LF899"
   version="1.1"
   id="svg22"
   sodipodi:docname="discord-logo.svg"
   width="700"
   height="700"
   inkscape:version="0.92.3 (2405546, 2018-03-11)"
   inkscape:export-filename="C:\Users\alex\sites\discord-logo-0.png"
   inkscape:export-xdpi="561.73712"
   inkscape:export-ydpi="561.73712">
  <metadata
     id="metadata28">
    <rdf:RDF>
      <cc:Work
         rdf:about="">
        <dc:format>image/svg+xml</dc:format>
        <dc:type
           rdf:resource="http://purl.org/dc/dcmitype/StillImage" />
        <dc:title></dc:title>
      </cc:Work>
    </rdf:RDF>
  </metadata>
  <defs
     id="defs26" />
  <sodipodi:namedview
     pagecolor="#ffffff"
     bordercolor="#666666"
     borderopacity="1"
     objecttolerance="10"
     gridtolerance="10"
     guidetolerance="10"
     inkscape:pageopacity="0"
     inkscape:pageshadow="2"
     inkscape:window-width="1600"
     inkscape:window-height="838"
     id="namedview24"
     showgrid="false"
     inkscape:zoom="0.58450359"
     inkscape:cx="517.06493"
     inkscape:cy="299.05118"
     inkscape:window-x="-8"
     inkscape:window-y="-8"
     inkscape:window-maximized="1"
     inkscape:current-layer="g20" />
  <g
     id="g20"
     style="fill:#5865f2;fill-opacity:1"
     transform="matrix(5.5268293,0,0,5.5268293,12.09756,721.25006)">
    <path
       d="M 26.0015,6.9529 C 24.0021,6.03845 21.8787,5.37198 19.6623,5 c -0.279,0.48048 -0.589,1.13144 -0.806,1.64292 -2.3574,-0.34099 -4.6978,-0.34099 -7.0227,0 C 11.6166,6.13144 11.2911,5.48048 11.0276,5 8.79575,5.37198 6.67235,6.03845 4.6869,6.9529 0.672601,12.8736 -0.41235,18.6548 0.130124,24.3585 2.79599,26.2959 5.36889,27.4739 7.89682,28.2489 8.51679,27.4119 9.07477,26.5129 9.55525,25.5675 8.64079,25.2265 7.77283,24.808 6.93587,24.312 c 0.21699,-0.1549 0.43399,-0.3254 0.63548,-0.4959 5.05275,2.3094 10.52555,2.3094 15.51625,0 0.217,0.1705 0.4185,0.341 0.6355,0.4959 -0.837,0.496 -1.7049,0.9145 -2.6194,1.2555 0.4805,0.9454 1.0385,1.8444 1.6584,2.6814 2.5264,-0.775 5.1148,-1.953 7.7667,-3.8904 C 31.1952,17.7559 29.4733,12.0212 26.0015,6.9529 Z M 10.2527,20.8402 c -1.51894,0 -2.75888,-1.3794 -2.75888,-3.0688 0,-1.6894 1.20894,-3.0689 2.75888,-3.0689 1.5344,0 2.7898,1.3795 2.7588,3.0689 0,1.6894 -1.2244,3.0688 -2.7588,3.0688 z m 10.1846,0 c -1.519,0 -2.7605,-1.3794 -2.7605,-3.0688 0,-1.6894 1.2105,-3.0689 2.7605,-3.0689 1.5344,0 2.7898,1.3795 2.7588,3.0689 0,1.6894 -1.2089,3.0688 -2.7588,3.0688 z"
       id="path2"
       style="fill:#5865f2;fill-opacity:1"
       inkscape:connector-curvature="0"
       inkscape:export-filename="C:\Users\alex\sites\discord-logo-6.png"
       inkscape:export-xdpi="98.055405"
       inkscape:export-ydpi="98.055405" />
    <path
       d="m 41.2697,9.86615 h 6.5888 c 1.5809,0 2.9293,0.24795 4.0298,0.74395 1.1004,0.496 1.9219,1.178 2.4644,2.0614 0.5424,0.8835 0.8214,1.8909 0.8214,3.0379 0,1.1159 -0.2789,2.1234 -0.8524,3.0378 -0.5735,0.899 -1.4414,1.6274 -2.6039,2.1544 -1.1624,0.527 -2.6039,0.7905 -4.3243,0.7905 h -6.1238 z m 6.0463,8.81905 c 1.0694,0 1.8909,-0.2635 2.4644,-0.8059 0.5735,-0.527 0.868,-1.271 0.868,-2.1854 0,-0.8525 -0.2635,-1.5345 -0.775,-2.0459 -0.5115,-0.5115 -1.2864,-0.775 -2.3249,-0.775 h -2.0614 v 5.8122 z"
       id="path4"
       style="fill:#5865f2;fill-opacity:1"
       inkscape:connector-curvature="0"
       inkscape:export-filename="C:\Users\alex\sites\discord-logo-6.png"
       inkscape:export-xdpi="98.055405"
       inkscape:export-ydpi="98.055405" />
    <path
       d="m 65.4362,21.6774 c -0.9145,-0.2325 -1.7359,-0.5735 -2.4644,-1.0385 v -2.8054 c 0.558,0.434 1.2864,0.775 2.2164,1.054 0.9299,0.279 1.8289,0.4185 2.6969,0.4185 0.4029,0 0.7129,-0.0465 0.9144,-0.155 0.2015,-0.1085 0.31,-0.2325 0.31,-0.3875 0,-0.1705 -0.062,-0.31 -0.1705,-0.4185 -0.1085,-0.1085 -0.3255,-0.2015 -0.651,-0.2945 l -2.0304,-0.4494 c -1.1624,-0.2635 -1.9839,-0.651 -2.4799,-1.116 -0.4959,-0.465 -0.7284,-1.1004 -0.7284,-1.8754 0,-0.651 0.217,-1.2244 0.6354,-1.7049 0.434,-0.4805 1.0385,-0.8525 1.829,-1.116 0.7904,-0.2634 1.7049,-0.4029 2.7743,-0.4029 0.9455,0 1.8134,0.093 2.6039,0.31 0.7904,0.2014 1.4414,0.4649 1.9529,0.7749 v 2.6504 c -0.527,-0.31 -1.1469,-0.558 -1.8289,-0.744 -0.6975,-0.186 -1.4104,-0.279 -2.1389,-0.279 -1.054,0 -1.5809,0.186 -1.5809,0.5425 0,0.1705 0.0775,0.2945 0.248,0.3875 0.1705,0.093 0.4649,0.1705 0.8989,0.2635 l 1.6894,0.31 c 1.1005,0.1859 1.9219,0.5269 2.4644,1.0074 0.5425,0.4805 0.806,1.1779 0.806,2.1234 0,1.023 -0.4495,1.8444 -1.3485,2.4334 -0.8989,0.6045 -2.1699,0.8989 -3.8128,0.8989 -0.9609,-0.031 -1.8909,-0.155 -2.8053,-0.3874 z"
       id="path6"
       style="fill:#5865f2;fill-opacity:1"
       inkscape:connector-curvature="0"
       inkscape:export-filename="C:\Users\alex\sites\discord-logo-6.png"
       inkscape:export-xdpi="98.055405"
       inkscape:export-ydpi="98.055405" />
    <path
       d="m 77.5891,21.3213 c -0.961,-0.4805 -1.7049,-1.1159 -2.1854,-1.9219 -0.496,-0.806 -0.7285,-1.7204 -0.7285,-2.7434 0,-1.0074 0.248,-1.9219 0.7595,-2.7123 0.5115,-0.806 1.2554,-1.426 2.2319,-1.8909 0.9764,-0.4495 2.1544,-0.682 3.5183,-0.682 1.6894,0 3.0844,0.3565 4.2003,1.0694 v 3.0844 c -0.3875,-0.2635 -0.8524,-0.496 -1.3794,-0.651 -0.527,-0.1705 -1.085,-0.248 -1.6739,-0.248 -1.054,0 -1.8599,0.186 -2.4644,0.5735 -0.589,0.3875 -0.8835,0.8835 -0.8835,1.5034 0,0.6045 0.279,1.1005 0.868,1.488 0.5734,0.3874 1.4104,0.5889 2.4954,0.5889 0.5579,0 1.1159,-0.0775 1.6584,-0.248 0.5425,-0.1705 1.0229,-0.3564 1.4104,-0.6044 v 2.9913 c -1.24,0.744 -2.6814,1.116 -4.3088,1.116 -1.3794,0 -2.5419,-0.248 -3.5183,-0.713 z"
       id="path8"
       style="fill:#5865f2;fill-opacity:1"
       inkscape:connector-curvature="0"
       inkscape:export-filename="C:\Users\alex\sites\discord-logo-6.png"
       inkscape:export-xdpi="98.055405"
       inkscape:export-ydpi="98.055405" />
    <path
       d="m 89.8041,21.3213 c -0.9765,-0.4805 -1.7204,-1.1159 -2.2319,-1.9374 -0.5115,-0.8215 -0.775,-1.7359 -0.775,-2.7589 0,-1.0074 0.2635,-1.9219 0.775,-2.7123 0.5115,-0.7905 1.2554,-1.4105 2.2164,-1.8599 0.9609,-0.4495 2.1233,-0.682 3.4578,-0.682 1.333,0 2.4954,0.217 3.4564,0.682 0.9609,0.4494 1.7049,1.0694 2.2164,1.8599 0.5114,0.7904 0.7594,1.6894 0.7594,2.7123 0,1.0075 -0.248,1.9374 -0.7594,2.7589 -0.5115,0.8215 -1.24,1.4724 -2.2164,1.9374 -0.9765,0.465 -2.1234,0.713 -3.4564,0.713 -1.319,0 -2.4659,-0.248 -3.4423,-0.713 z m 5.1317,-2.9914 c 0.403,-0.4029 0.62,-0.9609 0.62,-1.6274 0,-0.6819 -0.2015,-1.2089 -0.62,-1.6119 -0.4184,-0.403 -0.9764,-0.6045 -1.6739,-0.6045 -0.7284,0 -1.288,0.2015 -1.7064,0.6045 -0.403,0.403 -0.62,0.93 -0.62,1.6119 0,0.682 0.2015,1.2245 0.62,1.6274 0.4184,0.4185 0.978,0.62 1.7064,0.62 0.6975,-0.0155 1.271,-0.217 1.6739,-0.62 z"
       id="path10"
       style="fill:#5865f2;fill-opacity:1"
       inkscape:connector-curvature="0"
       inkscape:export-filename="C:\Users\alex\sites\discord-logo-6.png"
       inkscape:export-xdpi="98.055405"
       inkscape:export-ydpi="98.055405" />
    <path
       d="m 110.048,11.9901 v 3.6424 c -0.434,-0.279 -0.992,-0.4185 -1.674,-0.4185 -0.899,0 -1.597,0.279 -2.077,0.8214 -0.481,0.5425 -0.729,1.395 -0.729,2.5419 v 3.0999 h -4.138 v -9.8576 h 4.061 v 3.1464 c 0.217,-1.147 0.589,-1.9994 1.085,-2.5419 0.496,-0.5425 1.147,-0.8369 1.937,-0.8369 0.589,0 1.101,0.1395 1.535,0.4029 z"
       id="path12"
       style="fill:#5865f2;fill-opacity:1"
       inkscape:connector-curvature="0"
       inkscape:export-filename="C:\Users\alex\sites\discord-logo-6.png"
       inkscape:export-xdpi="98.055405"
       inkscape:export-ydpi="98.055405" />
    <path
       d="M 124,9.52563 V 21.6925 h -4.138 v -2.2164 c -0.357,0.837 -0.884,1.4725 -1.597,1.9064 -0.714,0.434 -1.598,0.651 -2.652,0.651 -0.93,0 -1.751,-0.2325 -2.449,-0.682 -0.697,-0.4494 -1.239,-1.0849 -1.611,-1.8754 -0.372,-0.8059 -0.558,-1.7049 -0.558,-2.6968 -0.016,-1.0385 0.186,-1.9684 0.604,-2.7899 0.403,-0.8214 0.992,-1.4569 1.736,-1.9219 0.744,-0.465 1.596,-0.6975 2.557,-0.6975 1.969,0 3.288,0.8525 3.97,2.5729 V 9.52563 Z m -4.758,8.72607 c 0.418,-0.403 0.635,-0.9455 0.635,-1.5964 0,-0.6355 -0.201,-1.147 -0.62,-1.5344 -0.418,-0.3875 -0.976,-0.589 -1.675,-0.589 -0.698,0 -1.256,0.2015 -1.674,0.6045 -0.419,0.4029 -0.62,0.9144 -0.62,1.5654 0,0.6509 0.201,1.1624 0.62,1.5654 0.418,0.403 0.961,0.6045 1.658,0.6045 0.699,0 1.257,-0.2015 1.676,-0.62 z"
       id="path14"
       style="fill:#5865f2;fill-opacity:1"
       inkscape:connector-curvature="0"
       inkscape:export-filename="C:\Users\alex\sites\discord-logo-6.png"
       inkscape:export-xdpi="98.055405"
       inkscape:export-ydpi="98.055405" />
    <path
       d="m 58.9885,12.4091 c 1.1887,0 2.1544,-0.8675 2.1544,-1.9374 0,-1.07006 -0.9657,-1.9374 -2.1544,-1.9374 -1.1904,0 -2.1544,0.86734 -2.1544,1.9374 0,1.0699 0.964,1.9374 2.1544,1.9374 z"
       id="path16"
       style="fill:#5865f2;fill-opacity:1"
       inkscape:connector-curvature="0"
       inkscape:export-filename="C:\Users\alex\sites\discord-logo-6.png"
       inkscape:export-xdpi="98.055405"
       inkscape:export-ydpi="98.055405" />
    <path
       d="m 61.1429,13.741 c -1.3175,0.5734 -2.9604,0.5889 -4.3088,0 v 7.9511 h 4.3088 z"
       id="path18"
       style="fill:#5865f2;fill-opacity:1"
       inkscape:connector-curvature="0"
       inkscape:export-filename="C:\Users\alex\sites\discord-logo-6.png"
       inkscape:export-xdpi="98.055405"
       inkscape:export-ydpi="98.055405" />
    <circle
       style="opacity:1;fill:#5865f2;fill-opacity:1;stroke:none;stroke-width:7.1046567;stroke-linecap:butt;stroke-miterlimit:4;stroke-dasharray:none;stroke-dashoffset:16.9322834;stroke-opacity:1;paint-order:fill markers stroke"
       id="path883"
       cx="182.48383"
       cy="-72.744316"
       r="37.185204"
       inkscape:export-filename="C:\Users\alex\sites\discord-logo-7.png"
       inkscape:export-xdpi="93.423264"
       inkscape:export-ydpi="93.423264" />
    <path
       d="m 199.3017,-86.718659 c -3.02793,-1.384361 -6.24364,-2.394709 -9.60013,-2.957543 -0.42336,0.727244 -0.89087,1.714216 -1.21813,2.48821 -3.56973,-0.516862 -7.11426,-0.516862 -10.63489,0 -0.32726,-0.773994 -0.82335,-1.760966 -1.21814,-2.48821 -3.37986,0.563613 -6.59531,1.571365 -9.60194,2.957543 -6.07924,8.966128 -7.72229,17.720838 -6.90102,26.358411 4.0375,2.933907 7.93396,4.717731 11.76212,5.891449 0.94022,-1.267482 1.78434,-2.628984 2.51158,-4.060614 -1.38436,-0.516862 -2.69937,-1.150603 -3.96659,-1.901223 0.32726,-0.233756 0.65452,-0.493486 0.9636,-0.750618 7.6519,3.497261 15.93961,3.497261 23.49775,0 0.32726,0.259729 0.63634,0.516862 0.96359,0.750618 -1.26488,0.75062 -2.58171,1.384361 -3.96633,1.901223 0.72725,1.431111 1.57137,2.793132 2.51159,4.060614 3.82582,-1.173979 7.74566,-2.957542 11.76186,-5.891449 1.01035,-9.998816 -1.59994,-18.683139 -6.85635,-26.358411 z m -23.84968,21.030315 c -2.3012,0 -4.17801,-2.088227 -4.17801,-4.647344 0,-2.558338 1.83109,-4.647343 4.17801,-4.647343 2.32198,0 4.22476,2.088227 4.17775,4.647343 0,2.558338 -1.85447,4.647344 -4.17775,4.647344 z m 15.42301,0 c -2.29861,0 -4.18009,-2.088227 -4.18009,-4.647344 0,-2.558338 1.83369,-4.647343 4.18009,-4.647343 2.32199,0 4.22503,2.088227 4.17801,4.647343 0,2.558338 -1.83109,4.647344 -4.17801,4.647344 z"
       id="path2-3"
       style="fill:#584ff2;fill-opacity:1;stroke-width:1.51437032"
       inkscape:connector-curvature="0"
       inkscape:export-filename="C:\Users\alex\sites\discord-logo-7.png"
       inkscape:export-xdpi="93.423264"
       inkscape:export-ydpi="93.423264" />
    <path
       d="m 198.68182,-87.338545 c -3.02792,-1.384371 -6.24364,-2.394723 -9.60014,-2.95755 -0.42335,0.727242 -0.89086,1.714211 -1.21812,2.488219 -3.56973,-0.516868 -7.11426,-0.516868 -10.63489,0 -0.32726,-0.774008 -0.82335,-1.760977 -1.21814,-2.488219 -3.37986,0.563615 -6.59531,1.571363 -9.60195,2.95755 -6.07923,8.96613 -7.72228,17.72084 -6.90101,26.358397 4.0375,2.933911 7.93396,4.717739 11.76212,5.891461 0.94022,-1.267492 1.78434,-2.628994 2.51158,-4.06061 -1.38436,-0.516867 -2.69937,-1.150613 -3.96659,-1.901238 0.32726,-0.233741 0.65452,-0.493485 0.9636,-0.750608 7.6519,3.497252 15.93962,3.497252 23.49774,0 0.32727,0.259727 0.63635,0.516867 0.9636,0.750608 -1.26489,0.750625 -2.58171,1.384371 -3.96632,1.901238 0.72724,1.431102 1.57136,2.793118 2.51158,4.06061 3.82581,-1.173978 7.74566,-2.95755 11.76185,-5.891461 1.01035,-9.998802 -1.59993,-18.683125 -6.85633,-26.358397 z m -23.84968,21.030312 c -2.30121,0 -4.17801,-2.088231 -4.17801,-4.647352 0,-2.558333 1.83109,-4.647334 4.17801,-4.647334 2.32198,0 4.22476,2.088231 4.17775,4.647334 0,2.55835 -1.85447,4.647352 -4.17775,4.647352 z m 15.42301,0 c -2.29861,0 -4.18009,-2.088231 -4.18009,-4.647352 0,-2.558333 1.83369,-4.647334 4.18009,-4.647334 2.32199,0 4.22502,2.088231 4.178,4.647334 0,2.55835 -1.83109,4.647352 -4.178,4.647352 z"
       id="path2-3-5"
       style="fill:#ffffff;fill-opacity:1;stroke-width:1.51437032"
       inkscape:connector-curvature="0"
       inkscape:export-filename="C:\Users\alex\sites\discord-logo-7.png"
       inkscape:export-xdpi="93.423264"
       inkscape:export-ydpi="93.423264" />
    <path
       d="m 87.953644,-91.486209 c -5.026407,-2.298889 -10.364542,-3.974369 -15.936478,-4.909509 -0.701394,1.20791 -1.480722,2.84439 -2.02625,4.130236 -5.926404,-0.857236 -11.810069,-0.857236 -17.654769,0 -0.545529,-1.285846 -1.363822,-2.922326 -2.02625,-4.130236 -5.610775,0.93514 -10.948913,2.61062 -15.940249,4.909509 -10.091777,14.884388 -12.819298,29.418088 -11.455541,43.756947 6.701873,4.870541 13.170035,7.831983 19.525143,9.780299 1.558578,-2.104182 2.961316,-4.36423 4.169222,-6.740925 -2.298913,-0.857259 -4.480927,-1.90935 -6.58501,-3.156273 0.545504,-0.389412 1.091033,-0.818042 1.59757,-1.246672 12.702398,5.805733 26.460787,5.805733 39.007191,0 0.545528,0.42863 1.052093,0.85726 1.597621,1.246672 -2.104186,1.246923 -4.28605,2.299014 -6.585056,3.156273 1.207949,2.376695 2.610742,4.636743 4.169142,6.740925 6.351265,-1.948316 12.858392,-4.909758 19.525156,-9.780299 1.675294,-16.598656 -2.653486,-31.015457 -11.381442,-43.756947 z m -39.591812,34.912091 c -3.81855,0 -6.935707,-3.467753 -6.935707,-7.714833 0,-4.24709 3.039224,-7.715094 6.935707,-7.715094 3.857416,0 7.013438,3.468004 6.935505,7.715094 0,4.24708 -3.078089,7.714833 -6.935505,7.714833 z m 25.603648,0 c -3.818702,0 -6.939777,-3.467753 -6.939777,-7.714833 0,-4.24709 3.043146,-7.715094 6.939777,-7.715094 3.857414,0 7.013443,3.468004 6.935507,7.715094 0,4.24708 -3.039121,7.714833 -6.935507,7.714833 z"
       id="path2-2"
       style="fill:#5865f2;fill-opacity:1;stroke-width:2.5139575"
       inkscape:connector-curvature="0"
       inkscape:export-filename="C:\Users\alex\sites\discord-logo-8.png"
       inkscape:export-xdpi="90.112053"
       inkscape:export-ydpi="90.112053" />
  </g>
</svg>
