<?xml version="1.0" encoding="iso-8859-1"?>
<!-- Generator: Adobe Illustrator 19.0.0, SVG Export Plug-In . SVG Version: 6.00 Build 0)  -->
<svg version="1.1" id="Capa_1" xmlns="http://www.w3.org/2000/svg" xmlns:xlink="http://www.w3.org/1999/xlink" x="0px" y="0px"
	 viewBox="0 0 512 512" style="enable-background:new 0 0 512 512;" xml:space="preserve">
<circle style="fill:#EC407A;" cx="256" cy="254.272" r="240"/>
<path style="fill:#C2185B;" d="M256,0C114.848,0,0,114.848,0,256s114.848,256,256,256s256-114.848,256-256S397.152,0,256,0z
	 M479.904,257.92c-54.208-14.304-109.792-15.968-162.752-5.056c-7.232-18.048-15.04-35.808-23.424-53.344
	c47.904-22.4,92.192-52.768,131.04-90.304C459.04,148.544,480,199.808,480,256C480,256.64,479.904,257.248,479.904,257.92z
	 M402.144,86.624c-36.288,35.04-77.568,63.584-122.304,84.448c-23.904-45.76-51.872-89.472-83.52-130.752
	C215.36,35.04,235.296,32,256,32C311.84,32,362.88,52.672,402.144,86.624z M164.704,51.648
	c32.48,41.344,60.992,85.376,85.28,131.488c-67.2,25.664-140.16,35.52-213.216,26.976C51.584,139.2,100.096,80.64,164.704,51.648z
	 M32,256c0-4.8,0.416-9.504,0.736-14.208c18.944,2.24,37.888,3.712,56.768,3.712c60.224,0,119.392-11.776,174.848-33.376
	c7.68,16,14.912,32.224,21.6,48.672c-78.656,23.616-148.736,73.984-195.904,145.12C54.112,366.176,32,313.664,32,256z
	 M113.44,428.64c43.392-68.224,109.568-116.32,184.032-138.08c20.224,55.68,34.784,113.504,43.264,172.672
	C314.592,473.984,285.984,480,256,480C201.888,480,152.192,460.704,113.44,428.64z M370.752,448
	c-8.8-56.384-22.752-111.584-41.856-164.864c48.352-9.088,98.944-6.944,148.224,6.976C466.784,357.184,426.752,414.4,370.752,448z"
	/>
<g>
</g>
<g>
</g>
<g>
</g>
<g>
</g>
<g>
</g>
<g>
</g>
<g>
</g>
<g>
</g>
<g>
</g>
<g>
</g>
<g>
</g>
<g>
</g>
<g>
</g>
<g>
</g>
<g>
</g>
</svg>
