<?xml version="1.0" encoding="UTF-8" standalone="no"?>
<svg width="124px" height="107px" viewBox="0 0 124 107" version="1.1" xmlns="http://www.w3.org/2000/svg" xmlns:xlink="http://www.w3.org/1999/xlink">
    <!-- Generator: Sketch 50.2 (55047) - http://www.bohemiancoding.com/sketch -->
    <title>Group</title>
    <desc>Created with Sketch.</desc>
    <defs></defs>
    <g id="Page-1" stroke="none" stroke-width="1" fill="none" fill-rule="evenodd">
        <g id="Artboard-2" transform="translate(-13.000000, -22.000000)" fill="#000000">
            <g id="Group" transform="translate(13.000000, 22.000000)">
                <path d="M69.755642,68.4788202 C69.755642,73.0103044 65.832675,75.8421053 62.3578705,75.8421053 C58.8830661,75.8421053 54.7143969,74.4342105 54.7143969,68.4788202 L54.7143969,65.5823778 L50.1368589,65.5823778 L50.1368589,68.4788202 C50.1368589,75.0740196 55.6213671,80.438231 62.3578705,80.438231 C69.0943739,80.438231 74.5788822,75.0740196 74.5788822,68.4788202 L74.5788822,65.5823778 L69.755642,65.5823778 L69.755642,68.4788202 Z" id="Shape" fill-rule="nonzero"></path>
                <path d="M31.3105247,54.4921927 C31.3105247,50.1649077 35.0635989,46.6457301 39.674695,46.6457301 C44.2827046,46.6457301 48.0357788,50.1678041 48.0357788,54.4921927 L48.0357788,54.4921927 L53.3042802,54.4921927 C53.3042802,47.4364589 47.193189,41.6986065 39.674695,41.6986065 C32.1562009,41.6986065 26.0420233,47.4364589 26.0420233,54.4921927 L31.3105247,54.4921927 L31.3105247,54.4921927 Z" id="Shape" fill-rule="nonzero"></path>
                <path d="M74.7256954,54.4921927 C74.7256954,50.1649077 78.4787696,46.6457301 83.0867792,46.6457301 C87.6978753,46.6457301 91.4509495,50.1678041 91.4509495,54.4921927 L91.4509495,54.4921927 L96.7194508,54.4921927 C96.7194508,47.4364589 90.6052732,41.6986065 83.0867792,41.6986065 C75.5682852,41.6986065 69.457194,47.4364589 69.457194,54.4921927 L74.7256954,54.4921927 L74.7256954,54.4921927 Z" id="Shape" fill-rule="nonzero"></path>
                <path d="M105.220223,37.7085316 L105.220223,20.7029062 C105.220223,14.9720441 104.523542,10.995799 103.130159,8.77405174 C101.736776,6.55230447 98.8356705,4.83930073 94.4267566,3.63498912 C93.0957637,3.26123724 92.4302772,2.65909047 92.4302772,1.82853074 C92.4302772,0.707275109 93.9276218,0.146655702 96.9223557,0.146655702 L101.476824,0.146655702 C106.426454,0.146655702 110.180214,1.68316815 112.738216,4.75623915 C115.296217,7.82931014 116.575199,12.3142654 116.575199,18.2112395 L116.575199,36.1512399 C116.575199,40.3040385 117.022323,43.5016455 117.916584,45.7441568 C118.810845,47.9866681 120.464163,50.0837999 122.876587,52.0356153 C123.583677,52.6170071 123.937217,53.0945718 123.937217,53.4683237 C123.937217,53.8420755 123.583677,54.3196402 122.876587,54.901032 C120.422569,56.8943754 118.758853,59.0018891 117.885389,61.2236363 C117.011925,63.4453836 116.575199,66.6326088 116.575199,70.7854074 L116.575199,88.6631162 C116.575199,94.6016182 115.285819,99.1073372 112.707021,102.180408 C110.128222,105.253479 106.38486,106.789992 101.476824,106.789992 L96.9223557,106.789992 C94.96746,106.789992 93.7300711,106.696555 93.210152,106.509679 C92.6902329,106.322803 92.4302772,105.85562 92.4302772,105.108117 C92.4302772,104.069917 93.1165601,103.384715 94.4891466,103.052492 L96.9847457,102.491867 C102.475091,101.246027 105.220223,95.826706 105.220223,86.2337411 L105.220223,69.2281157 C105.220223,62.7912778 106.779957,58.2440315 109.899471,55.5862404 L111.084881,54.5895737 C111.66719,54.0912378 111.958341,53.7174916 111.958341,53.4683237 C111.958341,53.1776278 111.66719,52.8038815 111.084881,52.3470736 L109.899471,51.3504069 C106.779957,48.6926158 105.220223,44.1453695 105.220223,37.7085316 Z" id="}"></path>
                <path d="M12.7899458,37.5618759 L12.7899458,20.5562505 C12.7899458,14.8253884 12.0932646,10.8491433 10.6998815,8.62739604 C9.30649828,6.40564877 6.40539326,4.69264502 1.99647934,3.48833342 C0.665486458,3.11458154 0,2.51243477 0,1.68187504 C0,0.560619407 1.49734453,0 4.49207851,0 L9.046547,0 C13.9961768,0 17.7499363,1.53651245 20.3079383,4.60958344 C22.8659402,7.68265444 24.144922,12.1676097 24.144922,18.0645838 L24.144922,36.0045842 C24.144922,40.1573828 24.5920457,43.3549898 25.4863066,45.5975011 C26.3805674,47.8400124 28.0338853,49.9371442 30.4463099,51.8889596 C31.1533999,52.4703514 31.5069396,52.9479161 31.5069396,53.321668 C31.5069396,53.6954198 31.1533999,54.1729845 30.4463099,54.7543763 C27.9922918,56.7477197 26.3285756,58.8552334 25.4551116,61.0769806 C24.5816475,63.2987279 24.144922,66.4859531 24.144922,70.6387517 L24.144922,88.5164605 C24.144922,94.4549625 22.855542,98.9606815 20.2767433,102.033752 C17.6979446,105.106823 13.9545832,106.643336 9.046547,106.643336 L4.49207851,106.643336 C2.53718272,106.643336 1.29979384,106.549899 0.779874742,106.363023 C0.259955648,106.176147 0,105.708965 0,104.961461 C0,103.923261 0.68628291,103.23806 2.05886932,102.905836 L4.55446849,102.345211 C10.0448141,101.099371 12.7899458,95.6800503 12.7899458,86.0870854 L12.7899458,69.08146 C12.7899458,62.6446221 14.3496796,58.0973758 17.4691942,55.4395847 L18.6546038,54.442918 C19.2369132,53.9445821 19.5280635,53.5708359 19.5280635,53.321668 C19.5280635,53.0309721 19.2369132,52.6572258 18.6546038,52.2004179 L17.4691942,51.2037512 C14.3496796,48.5459601 12.7899458,43.9987138 12.7899458,37.5618759 Z" id="}" transform="translate(15.753470, 53.321668) scale(-1, 1) translate(-15.753470, -53.321668) "></path>
            </g>
        </g>
    </g>
</svg>