<?xml version="1.0" encoding="iso-8859-1"?>
<!-- Generator: Adobe Illustrator 19.0.0, SVG Export Plug-In . SVG Version: 6.00 Build 0)  -->
<svg version="1.1" id="Capa_1" xmlns="http://www.w3.org/2000/svg" xmlns:xlink="http://www.w3.org/1999/xlink" x="0px" y="0px"
	 viewBox="0 0 512 512" style="enable-background:new 0 0 512 512;" xml:space="preserve">
<path style="fill:#1976D2;" d="M448,0H64C28.704,0,0,28.704,0,64v384c0,35.296,28.704,64,64,64h384c35.296,0,64-28.704,64-64V64
	C512,28.704,483.296,0,448,0z"/>
<path style="fill:#FAFAFA;" d="M432,256h-80v-64c0-17.664,14.336-16,32-16h32V96h-64l0,0c-53.024,0-96,42.976-96,96v64h-64v80h64
	v176h96V336h48L432,256z"/>
<g>
</g>
<g>
</g>
<g>
</g>
<g>
</g>
<g>
</g>
<g>
</g>
<g>
</g>
<g>
</g>
<g>
</g>
<g>
</g>
<g>
</g>
<g>
</g>
<g>
</g>
<g>
</g>
<g>
</g>
</svg>
