<svg xmlns="http://www.w3.org/2000/svg" xmlns:xlink="http://www.w3.org/1999/xlink" id="Layer_1" x="0" y="0" version="1.1" viewBox="0 0 256 256" xml:space="preserve" style="enable-background:new 0 0 256 256"><style type="text/css">.st0{fill:#0e141e}.st1{fill:#fff}.st2{fill:#00ea64}</style><rect width="256" height="256" x="0" y="0" class="st0"/><g><path d="M125.39,85.35h-19.26c-0.65,0-1.18,0.53-1.18,1.18v30.61H84.2V86.54c0-0.65-0.53-1.18-1.18-1.18H63.76 c-0.65,0-1.18,0.53-1.18,1.18v82.85c0,0.65,0.53,1.18,1.18,1.18h19.26c0.65,0,1.18-0.53,1.18-1.18v-30.61h20.75v30.61 c0,0.65,0.53,1.18,1.18,1.18h19.26c0.65,0,1.18-0.53,1.18-1.18V86.54C126.57,85.88,126.04,85.35,125.39,85.35z" class="st1"/><path d="M199.76,170.57h-61.64c-0.65,0-1.18-0.53-1.18-1.18V86.53c0-0.65,0.53-1.18,1.18-1.18h61.64 c0.65,0,1.18,0.53,1.18,1.18v82.85C200.94,170.04,200.41,170.57,199.76,170.57z" class="st2"/></g></svg>