<svg width="688" height="118" viewBox="0 0 688 118" fill="none"><path fill-rule="evenodd" clip-rule="evenodd" d="M7.95 38.655c-10.6 10.6-10.6 27.784 0 38.383l30.705 30.706c10.6 10.599 27.784 10.599 38.383 0l30.706-30.706c10.599-10.6 10.599-27.784 0-38.383L77.038 7.95c-10.6-10.599-27.784-10.599-38.383 0L7.95 38.655zm63.33 32.626c7.42-7.42 7.42-19.449 0-26.868-7.419-7.42-19.448-7.42-26.867 0-7.42 7.42-7.42 19.448 0 26.868 7.42 7.419 19.448 7.419 26.868 0z" fill="#2962FF"/><path d="M161.437 78.362c.043-8.549 5.268-13.558 12.781-13.558 7.47 0 11.874 4.793 11.831 12.954v38.947h18.394V74.476c.043-15.544-9.111-24.957-22.928-24.957-10.06 0-16.796 4.75-19.819 12.565h-.777V28.276h-17.876v88.429h18.394V78.362zM232.967 117.957c9.801 0 16.148-4.275 19.387-10.449h.518v9.197h17.444V71.972c0-15.803-13.385-22.453-28.152-22.453-15.89 0-26.339 7.6-28.887 19.69l17.013 1.381c1.252-4.404 5.181-7.642 11.787-7.642 6.261 0 9.845 3.152 9.845 8.592v.26c0 4.274-4.534 4.835-16.062 5.958-13.127 1.209-24.914 5.613-24.914 20.423 0 13.126 9.369 19.776 22.021 19.776zm5.267-12.695c-5.656 0-9.715-2.633-9.715-7.685 0-5.182 4.275-7.73 10.752-8.636 4.015-.561 10.578-1.511 12.78-2.98V93c0 6.951-5.742 12.262-13.817 12.262zM334.904 69.295c-1.64-12.22-11.485-19.776-28.238-19.776-16.969 0-28.152 7.859-28.109 20.64-.043 9.93 6.218 16.364 19.171 18.955l11.485 2.288c5.786 1.166 8.42 3.282 8.506 6.606-.086 3.93-4.361 6.736-10.794 6.736-6.563 0-10.924-2.806-12.047-8.204l-18.091.95c1.727 12.695 12.521 20.51 30.095 20.51 17.185 0 29.49-8.765 29.534-21.848-.044-9.586-6.304-15.329-19.171-17.962l-12.004-2.418c-6.175-1.339-8.463-3.455-8.42-6.65-.043-3.972 4.448-6.563 10.147-6.563 6.39 0 10.19 3.498 11.097 7.772l16.839-1.036zM361.529 78.362c.043-8.549 5.267-13.558 12.78-13.558 7.47 0 11.874 4.793 11.831 12.954v38.947h18.394V74.476c.043-15.544-9.111-24.957-22.928-24.957-10.06 0-16.796 4.75-19.818 12.565h-.778V28.276h-17.875v88.429h18.394V78.362zM432.54 78.362c.043-8.549 5.138-13.558 12.565-13.558 7.383 0 11.831 4.836 11.787 12.954v38.947h18.394V74.476c0-15.457-9.067-24.957-22.884-24.957-9.845 0-16.969 4.836-19.948 12.565h-.778V50.383h-17.53v66.322h18.394V78.362zM514.885 118c20.122 0 32.643-13.774 32.643-34.197 0-20.553-12.521-34.284-32.643-34.284-20.121 0-32.642 13.731-32.642 34.284 0 20.423 12.521 34.197 32.642 34.197zm.087-14.249c-9.283 0-14.033-8.506-14.033-20.078s4.75-20.12 14.033-20.12c9.11 0 13.86 8.549 13.86 20.12 0 11.572-4.75 20.078-13.86 20.078zM579.064 117.784c10.708 0 16.278-6.174 18.826-11.701h.777v10.622h18.135v-88.43h-18.351v33.248h-.561c-2.462-5.397-7.773-12.004-18.869-12.004-14.551 0-26.857 11.313-26.857 34.111 0 22.194 11.788 34.154 26.9 34.154zm5.829-14.637c-9.024 0-13.947-8.032-13.947-19.603 0-11.486 4.836-19.387 13.947-19.387 8.938 0 13.947 7.556 13.947 19.387 0 11.83-5.096 19.603-13.947 19.603zM657.286 118c16.408 0 27.461-7.988 30.052-20.294l-17.012-1.122c-1.857 5.051-6.606 7.685-12.738 7.685-9.197 0-15.026-6.088-15.026-15.976v-.043h45.165v-5.052c0-22.539-13.645-33.679-31.175-33.679-19.517 0-32.168 13.86-32.168 34.327 0 21.028 12.479 34.154 32.902 34.154zm-14.724-41.149c.389-7.556 6.132-13.601 14.292-13.601 7.988 0 13.515 5.7 13.558 13.601h-27.85z" fill="#333333"/></svg>
