<?xml version="1.0" encoding="iso-8859-1"?>
<svg version="1.1" id="Capa_1" xmlns="http://www.w3.org/2000/svg" xmlns:xlink="http://www.w3.org/1999/xlink" x="0px" y="0px"
	 viewBox="0 0 337 337" fill="none" style="enable-background:new 0 0 377 377;" xml:space="preserve">
     <rect x="113" y="113" width="111" height="111" rx="55.5" fill="#fff"/>
<path fill-rule="evenodd" clip-rule="evenodd" style="fill:#2962FF;" d="M23.155 112.598c-30.873 30.874-30.873 80.93 0 111.804l89.443 89.443c30.874 30.873 80.93 30.873 111.804 0l89.443-89.443c30.873-30.874 30.873-80.93 0-111.804l-89.443-89.443c-30.874-30.873-80.93-30.873-111.804 0l-89.443 89.443zm184.476 95.033c21.612-21.611 21.612-56.651 0-78.262-21.611-21.612-56.651-21.612-78.262 0-21.612 21.611-21.612 56.651 0 78.262 21.611 21.612 56.651 21.612 78.262 0z"
	/>
<g>
</g>
<g>
</g>
<g>
</g>
<g>
</g>
<g>
</g>
<g>
</g>
<g>
</g>
<g>
</g>
<g>
</g>
<g>
</g>
<g>
</g>
<g>
</g>
<g>
</g>
<g>
</g>
<g>
</g>
</svg>
