<?xml version="1.0" standalone="no"?>
<!DOCTYPE svg PUBLIC "-//W3C//DTD SVG 20010904//EN"
 "http://www.w3.org/TR/2001/REC-SVG-20010904/DTD/svg10.dtd">
<svg version="1.0" xmlns="http://www.w3.org/2000/svg"
 width="674.000000pt" height="674.000000pt" viewBox="0 0 674.000000 674.000000"
 preserveAspectRatio="xMidYMid meet">

<g transform="translate(0.000000,674.000000) scale(0.100000,-0.100000)"
fill="#000000" stroke="none">
<path d="M3203 6729 c-266 -26 -572 -149 -803 -323 -36 -27 -509 -493 -1051
-1035 -1078 -1079 -1062 -1061 -1178 -1296 -283 -573 -203 -1238 207 -1725 44
-52 507 -520 1029 -1040 1036 -1034 1025 -1023 1258 -1139 411 -204 862 -222
1297 -52 131 52 298 151 416 248 48 40 517 503 1042 1030 1045 1047 1033 1034
1149 1268 206 415 222 876 47 1307 -59 145 -147 290 -251 414 -46 54 -510 524
-1032 1044 -1036 1034 -1025 1023 -1258 1139 -184 91 -352 139 -564 160 -116
12 -175 12 -308 0z m392 -2273 c267 -58 503 -209 666 -425 260 -345 289 -827
74 -1205 -59 -105 -111 -170 -204 -259 -157 -150 -334 -241 -556 -289 -78 -16
-333 -16 -410 0 -221 48 -401 141 -555 289 -109 104 -170 187 -235 318 -205
417 -129 909 192 1245 42 45 106 104 142 131 129 96 308 174 461 199 41 6 82
13 90 15 35 9 271 -5 335 -19z"/>
</g>
</svg>
