<svg xmlns="http://www.w3.org/2000/svg"  viewBox="0 0 48 48" width="48px" height="48px"><path fill="#1de9b6" d="M18.89,32H21v8c0,1.1-0.9,2-2,2h-4c-1.1,0-2-0.9-2-2v-8H4.89c-1.52,0-2.48-1.64-1.75-2.97 L15.25,7.16c0.76-1.37,2.74-1.37,3.5,0l4.85,9.74l-6.46,12.13C16.41,30.36,17.37,32,18.89,32z"/><path fill="#26a69a" d="M43.11,32H35v8c0,1.1-0.9,2-2,2h-4c-1.1,0-2-0.9-2-2v-8h2.11c1.52,0,2.48-1.64,1.75-2.97L24.3,16.9 l4.95-9.74c0.76-1.37,2.74-1.37,3.5,0l12.11,21.87C45.59,30.36,44.63,32,43.11,32z"/></svg>