<svg xmlns="http://www.w3.org/2000/svg" xmlns:xlink="http://www.w3.org/1999/xlink" id="Capa_1" x="0" y="0" version="1.1" viewBox="0 0 512 512" xml:space="preserve" style="enable-background:new 0 0 512 512"><linearGradient id="SVGID_1_" x1="-46.004" x2="-32.933" y1="634.121" y2="647.192" gradientTransform="matrix(32 0 0 -32 1519 20757)" gradientUnits="userSpaceOnUse"><stop offset="0" style="stop-color:#ffc107"/><stop offset=".507" style="stop-color:#f44336"/><stop offset=".99" style="stop-color:#9c27b0"/></linearGradient><path style="fill:url(#SVGID_1_)" d="M352,0H160C71.648,0,0,71.648,0,160v192c0,88.352,71.648,160,160,160h192	c88.352,0,160-71.648,160-160V160C512,71.648,440.352,0,352,0z M464,352c0,61.76-50.24,112-112,112H160c-61.76,0-112-50.24-112-112	V160C48,98.24,98.24,48,160,48h192c61.76,0,112,50.24,112,112V352z"/><linearGradient id="SVGID_2_" x1="-42.297" x2="-36.64" y1="637.828" y2="643.485" gradientTransform="matrix(32 0 0 -32 1519 20757)" gradientUnits="userSpaceOnUse"><stop offset="0" style="stop-color:#ffc107"/><stop offset=".507" style="stop-color:#f44336"/><stop offset=".99" style="stop-color:#9c27b0"/></linearGradient><path style="fill:url(#SVGID_2_)" d="M256,128c-70.688,0-128,57.312-128,128s57.312,128,128,128s128-57.312,128-128	S326.688,128,256,128z M256,336c-44.096,0-80-35.904-80-80c0-44.128,35.904-80,80-80s80,35.872,80,80	C336,300.096,300.096,336,256,336z"/><linearGradient id="SVGID_3_" x1="-35.546" x2="-34.792" y1="644.579" y2="645.333" gradientTransform="matrix(32 0 0 -32 1519 20757)" gradientUnits="userSpaceOnUse"><stop offset="0" style="stop-color:#ffc107"/><stop offset=".507" style="stop-color:#f44336"/><stop offset=".99" style="stop-color:#9c27b0"/></linearGradient><circle style="fill:url(#SVGID_3_)" cx="393.6" cy="118.4" r="17.056"/></svg>