<svg xmlns="http://www.w3.org/2000/svg" xmlns:xlink="http://www.w3.org/1999/xlink" width="24" height="24" preserveAspectRatio="xMidYMid meet" viewBox="0 0 24 24" style="-ms-transform: rotate(360deg); -webkit-transform: rotate(360deg); transform: rotate(360deg);"><path d="M18.825 23.859c-.022.092-.117.141-.281.141h-3.139c-.187 0-.351-.082-.492-.248l-5.178-6.589l-1.448 1.374v5.111c0 .235-.117.352-.351.352H5.505c-.236 0-.354-.117-.354-.352V.353c0-.233.118-.353.354-.353h2.431c.234 0 .351.12.351.353v14.343l6.203-6.272c.165-.165.33-.246.495-.246h3.239c.144 0 .236.06.285.18c.046.149.034.255-.036.315l-6.555 6.344l6.836 8.507c.095.104.117.208.07.358" fill="#03A9F4"/><rect x="0" y="0" width="24" height="24" fill="rgba(0, 0, 0, 0)" /></svg>