<svg xmlns="http://www.w3.org/2000/svg" xmlns:xlink="http://www.w3.org/1999/xlink" id="Bold" enable-background="new 0 0 32 32" height="512" viewBox="0 0 32 32" width="512"><path d="m26 32h-20c-3.314 0-6-2.686-6-6v-20c0-3.314 2.686-6 6-6h20c3.314 0 6 2.686 6 6v20c0 3.314-2.686 6-6 6z" fill="#ffe6e2"/><path d="m22.723 11.155 1.277-1.221v-.267h-4.423l-3.152 7.845-3.585-7.845h-4.638v.268l1.492 1.795c.145.132.222.327.202.522v7.055c.046.254-.037.515-.215.7l-1.681 2.036v.264h4.763v-.268l-1.68-2.033c-.182-.185-.268-.442-.231-.7v-6.102l4.181 9.106h.486l3.595-9.106v7.254c0 .192 0 .231-.126.356l-1.294 1.251v.268h6.275v-.268l-1.247-1.221c-.109-.082-.166-.221-.143-.356v-8.977c-.021-.135.035-.274.144-.356z" fill="#fc573b"/></svg>