<svg xmlns="http://www.w3.org/2000/svg" xmlns:xlink="http://www.w3.org/1999/xlink" id="Capa_1" x="0" y="0" version="1.1" viewBox="0 0 512 512" xml:space="preserve" style="enable-background:new 0 0 512 512"><g><path style="fill:#37474f" d="M416,288c-52.928,0-96,43.072-96,96v16c0,8.832,7.168,16,16,16h160c8.832,0,16-7.168,16-16v-16 C512,331.072,468.928,288,416,288z"/><circle style="fill:#37474f" cx="416" cy="176" r="80"/><path style="fill:#37474f" d="M224,288c-44.096,0-80,35.872-80,80v32c0,8.832,7.168,16,16,16h128c8.832,0,16-7.168,16-16v-32 C304,323.872,268.096,288,224,288z"/><path style="fill:#37474f" d="M64,288c-35.296,0-64,28.704-64,64v48c0,8.832,7.168,16,16,16h96c8.832,0,16-7.168,16-16v-48 C128,316.704,99.296,288,64,288z"/><circle style="fill:#37474f" cx="224" cy="192" r="72"/><circle style="fill:#37474f" cx="64" cy="208" r="56"/></g></svg>