<?xml version="1.0" encoding="iso-8859-1"?>
<!-- Generator: Adobe Illustrator 19.0.0, SVG Export Plug-In . SVG Version: 6.00 Build 0)  -->
<svg version="1.1" id="Capa_1" xmlns="http://www.w3.org/2000/svg" xmlns:xlink="http://www.w3.org/1999/xlink" x="0px" y="0px"
	 viewBox="0 0 512.012 512.012" style="enable-background:new 0 0 512.012 512.012;" xml:space="preserve">
<path style="fill:#C62828;" d="M511.869,183.98C509.085,112.972,443.773-1.332,254.301,0.012
	C56.445,1.42-1.379,133.932,0.029,209.676c1.376,75.776,50.848,117.696,50.848,117.696l73.856-60.864c0,0-31.36,2.688-31.36-59.52
	c0-94.784,113.568-119.04,186.016-117.696s129.632,59.84,130.624,105.504c0.96,44.64-10.88,72.96-47.04,93.312
	c-43.2,24.352-95.552,2.72-95.552,2.72l0.704-152.832l-97.664,0.576l-0.256,269.952c0,0-0.896,21.6-26.112,20.288
	c-18.08-0.928-40.928-20.8-40.928-20.8l0.16,80.32c0,0,28.192,23.68,72.8,23.68c96.16,0,91.968-94.016,91.968-94.016v-52.96
	c0,0,19.616,9.472,58.624,9.472C488.381,374.508,514.205,243.532,511.869,183.98z"/>
<g>
</g>
<g>
</g>
<g>
</g>
<g>
</g>
<g>
</g>
<g>
</g>
<g>
</g>
<g>
</g>
<g>
</g>
<g>
</g>
<g>
</g>
<g>
</g>
<g>
</g>
<g>
</g>
<g>
</g>
</svg>
