<?xml version="1.0" encoding="iso-8859-1"?>
<!-- Generator: Adobe Illustrator 19.0.0, SVG Export Plug-In . SVG Version: 6.00 Build 0)  -->
<svg version="1.1" id="Capa_1" xmlns="http://www.w3.org/2000/svg" xmlns:xlink="http://www.w3.org/1999/xlink" x="0px" y="0px"
	 viewBox="0 0 512 512" style="enable-background:new 0 0 512 512;" xml:space="preserve">
<polygon style="fill:#FFC107;" points="128,128 0,256 192,256 240,240 "/>
<polygon style="fill:#FFA000;" points="128,128 240,240 256,192 256,128 "/>
<polygon style="fill:#4CAF50;" points="128,384 256,512 256,320 240,272 "/>
<polygon style="fill:#388E3C;" points="128,384 240,272 192,256 128,256 "/>
<polygon style="fill:#2196F3;" points="384,384 512,256 320,256 272,272 "/>
<polygon style="fill:#1976D2;" points="384,384 272,272 256,320 256,384 "/>
<polygon style="fill:#F44336;" points="384,128 256,0 256,192 272,240 "/>
<polygon style="fill:#9C27B0;" points="384,128 272,240 320,256 384,256 "/>
<g>
</g>
<g>
</g>
<g>
</g>
<g>
</g>
<g>
</g>
<g>
</g>
<g>
</g>
<g>
</g>
<g>
</g>
<g>
</g>
<g>
</g>
<g>
</g>
<g>
</g>
<g>
</g>
<g>
</g>
</svg>
