<svg xmlns="http://www.w3.org/2000/svg" xmlns:xlink="http://www.w3.org/1999/xlink" id="Capa_1" x="0" y="0" version="1.1" viewBox="0 0 512 512" xml:space="preserve" style="enable-background:new 0 0 512 512"><polygon style="fill:#ffc107" points="128 128 0 256 192 256 240 240"/><polygon style="fill:#ffa000" points="128 128 240 240 256 192 256 128"/><polygon style="fill:#4caf50" points="128 384 256 512 256 320 240 272"/><polygon style="fill:#388e3c" points="128 384 240 272 192 256 128 256"/><polygon style="fill:#2196f3" points="384 384 512 256 320 256 272 272"/><polygon style="fill:#1976d2" points="384 384 272 272 256 320 256 384"/><polygon style="fill:#f44336" points="384 128 256 0 256 192 272 240"/><polygon style="fill:#9c27b0" points="384 128 272 240 320 256 384 256"/></svg>