<?xml version="1.0" encoding="iso-8859-1"?>
<!-- Generator: Adobe Illustrator 19.0.0, SVG Export Plug-In . SVG Version: 6.00 Build 0)  -->
<svg version="1.1" id="Capa_1" xmlns="http://www.w3.org/2000/svg" xmlns:xlink="http://www.w3.org/1999/xlink" x="0px" y="0px"
	 viewBox="0 0 512 512" style="enable-background:new 0 0 512 512;" xml:space="preserve">
<path style="fill:#FFC107;" d="M384,34.528V352h109.216C505.248,322.336,512,289.984,512,256C512,161.312,460.448,78.816,384,34.528
	z"/>
<path style="fill:#F44336;" d="M352,18.784C322.336,6.752,289.984,0,256,0c-30.848,0-60.288,5.728-87.68,15.744L352,187.168V18.784z
	"/>
<path style="fill:#4CAF50;" d="M160,493.216C189.664,505.248,222.016,512,256,512c94.688,0,177.184-51.552,221.472-128H160V493.216z
	"/>
<path style="fill:#9C27B0;" d="M136.384,29.728C55.296,72.704,0,157.856,0,256c0,22.56,3.2,44.352,8.704,65.184l216.064-208.992
	L136.384,29.728z"/>
<path style="fill:#2196F3;" d="M128,477.472V250.336L19.84,354.944C41.568,406.656,79.872,449.6,128,477.472z"/>
<g>
</g>
<g>
</g>
<g>
</g>
<g>
</g>
<g>
</g>
<g>
</g>
<g>
</g>
<g>
</g>
<g>
</g>
<g>
</g>
<g>
</g>
<g>
</g>
<g>
</g>
<g>
</g>
<g>
</g>
</svg>
