<?xml version="1.0" encoding="iso-8859-1"?>
<!-- Generator: Adobe Illustrator 19.0.0, SVG Export Plug-In . SVG Version: 6.00 Build 0)  -->
<svg version="1.1" id="Capa_1" xmlns="http://www.w3.org/2000/svg" xmlns:xlink="http://www.w3.org/1999/xlink" x="0px" y="0px"
	 viewBox="0 0 514.24 514.24" style="enable-background:new 0 0 514.24 514.24;" xml:space="preserve">
<g>
	<polygon style="fill:#FAFAFA;" points="192,289.121 176,289.089 176,289.121 	"/>
	<polygon style="fill:#FAFAFA;" points="336,289.121 352,289.121 336,289.089 	"/>
</g>
<path style="fill:#FF9800;" d="M514.24,241.121c0-35.296-28.704-64-64-64c-14.112,0-27.52,4.608-38.464,12.96
	c-35.712-24.8-82.496-39.584-132.256-43.328l26.848-62.976l78.112,18.24c2.496,24.16,22.72,43.104,47.52,43.104
	c26.464,0,48-21.536,48-48s-21.536-48-48-48c-16.768,0-31.52,8.672-40.096,21.76l-91.296-21.344
	c-7.744-1.76-15.328,2.176-18.4,9.312l-37.12,87.04c-53.728,1.856-104.928,16.992-143.584,43.36
	C90.976,181.441,77.92,177.121,64,177.121c-35.296,0-64,28.704-64,64c0,23.392,12.768,44.544,32.352,55.392
	c-0.256,2.816-0.352,5.696-0.352,8.608c0,88.224,100.48,160,224,160c123.488,0,224-71.776,224-160c0-2.496-0.096-4.96-0.256-7.424
	C500.608,287.073,514.24,265.409,514.24,241.121z"/>
<g>
	<circle style="fill:#FAFAFA;" cx="432" cy="97.121" r="16"/>
	<circle style="fill:#FAFAFA;" cx="176" cy="289.121" r="32"/>
	<path style="fill:#FAFAFA;" d="M329.888,395.265c-22.08,15.968-48,23.968-73.888,23.968s-51.808-8-73.888-23.968
		c-7.168-5.184-8.768-15.2-3.584-22.336s15.2-8.736,22.336-3.584c32.992,23.84,77.28,23.904,110.272,0
		c7.136-5.152,17.12-3.616,22.336,3.584C338.656,380.097,337.024,390.081,329.888,395.265z"/>
	<circle style="fill:#FAFAFA;" cx="336" cy="289.121" r="32"/>
</g>
<g>
</g>
<g>
</g>
<g>
</g>
<g>
</g>
<g>
</g>
<g>
</g>
<g>
</g>
<g>
</g>
<g>
</g>
<g>
</g>
<g>
</g>
<g>
</g>
<g>
</g>
<g>
</g>
<g>
</g>
</svg>
