<?xml version="1.0" encoding="iso-8859-1"?>
<!-- Generator: Adobe Illustrator 19.0.0, SVG Export Plug-In . SVG Version: 6.00 Build 0)  -->
<svg version="1.1" id="Capa_1" xmlns="http://www.w3.org/2000/svg" xmlns:xlink="http://www.w3.org/1999/xlink" x="0px" y="0px"
	 viewBox="0 0 512 512" style="enable-background:new 0 0 512 512;" xml:space="preserve">
<path style="fill:#03A9F4;" d="M502.912,258.656c0-132.96-109.312-240.768-244.192-240.768c-14.208,0-28.16,1.216-41.76,3.52
	C195.136,7.872,169.312,0,141.632,0C63.392,0,0,62.496,0,139.648c0,25.76,7.104,49.856,19.456,70.624
	c-3.232,15.616-4.96,31.84-4.96,48.384c0,132.992,109.344,240.8,244.192,240.8c15.296,0,30.208-1.408,44.736-4.032
	C323.392,505.984,346.144,512,370.4,512c78.208,0,141.6-62.528,141.6-139.616c0-22.272-5.312-43.328-14.72-62.016
	C500.992,293.664,502.912,276.416,502.912,258.656z"/>
<path style="fill:#FAFAFA;" d="M383.968,373.728c-11.296,15.776-27.968,28.256-49.632,37.088
	c-21.408,8.768-47.04,13.28-76.288,13.28c-35.072,0-64.48-6.08-87.456-18.112c-16.416-8.736-29.92-20.544-40.192-35.2
	c-10.4-14.72-15.616-29.344-15.616-43.52c0-8.768,3.424-16.448,10.176-22.688c6.688-6.24,15.264-9.344,25.504-9.344
	c8.384,0,15.616,2.464,21.504,7.36c5.6,4.736,10.432,11.712,14.304,20.64c4.32,9.792,9.024,18.048,13.984,24.48
	c4.832,6.304,11.712,11.552,20.512,15.68c8.864,4.096,20.8,6.24,35.456,6.24c20.192,0,36.768-4.288,49.184-12.64
	c12.192-8.16,18.08-18.016,18.08-30.048c0-9.472-3.104-16.96-9.408-22.816c-6.656-6.144-15.424-10.912-26.048-14.208
	c-11.104-3.392-26.176-7.104-44.8-10.944c-25.376-5.344-46.912-11.648-64-18.88c-17.504-7.36-31.648-17.536-41.952-30.24
	c-10.496-12.992-15.808-29.216-15.808-48.288c0-18.176,5.568-34.56,16.576-48.704c10.912-14.048,26.848-25.024,47.424-32.48
	c20.256-7.392,44.352-11.104,71.648-11.104c21.792,0,40.96,2.496,56.992,7.424c16.096,4.928,29.664,11.584,40.32,19.808
	c10.752,8.32,18.752,17.12,23.744,26.336c5.056,9.28,7.648,18.528,7.648,27.456c0,8.608-3.36,16.448-10.016,23.232
	c-6.72,6.848-15.168,10.304-25.088,10.304c-9.024,0-16.128-2.208-21.024-6.464c-4.576-4-9.344-10.24-14.592-19.136
	c-6.08-11.392-13.472-20.384-21.92-26.752c-8.224-6.176-21.92-9.248-40.8-9.248c-17.472,0-31.744,3.456-42.304,10.304
	c-10.176,6.56-15.136,14.112-15.136,23.072c0,5.472,1.6,10.048,4.896,13.984c3.456,4.224,8.352,7.84,14.56,10.912
	c6.4,3.168,13.024,5.728,19.648,7.52c6.784,1.856,18.144,4.64,33.792,8.192c19.776,4.16,37.92,8.864,53.984,13.952
	c16.288,5.088,30.304,11.392,41.824,18.784c11.68,7.52,20.928,17.12,27.52,28.64c6.592,11.616,9.92,25.856,9.92,42.432
	C401.056,339.84,395.296,357.92,383.968,373.728z"/>
<g>
</g>
<g>
</g>
<g>
</g>
<g>
</g>
<g>
</g>
<g>
</g>
<g>
</g>
<g>
</g>
<g>
</g>
<g>
</g>
<g>
</g>
<g>
</g>
<g>
</g>
<g>
</g>
<g>
</g>
</svg>
