<?xml version="1.0" encoding="iso-8859-1"?>
<!-- Generator: Adobe Illustrator 19.0.0, SVG Export Plug-In . SVG Version: 6.00 Build 0)  -->
<svg version="1.1" id="Capa_1" xmlns="http://www.w3.org/2000/svg" xmlns:xlink="http://www.w3.org/1999/xlink" x="0px" y="0px"
	 viewBox="0 0 511.976 511.976" style="enable-background:new 0 0 511.976 511.976;" xml:space="preserve">
<path style="fill:#FFEB3B;" d="M501.94,374.42c-68.448-11.264-99.296-81.376-100.544-84.352c-0.096-0.192-0.16-0.384-0.288-0.576
	c-3.488-7.104-4.32-12.96-2.4-17.408c3.744-8.768,18.08-13.312,27.552-16.32c2.752-0.864,5.344-1.696,7.488-2.528
	c9.344-3.68,16-7.68,20.416-12.192c5.248-5.408,6.272-10.592,6.208-13.952c-0.16-8.192-6.432-15.488-16.448-19.04
	c-3.36-1.376-7.232-2.112-11.136-2.112c-2.656,0-6.624,0.352-10.368,2.112c-8,3.744-15.168,5.792-21.344,6.08
	c-3.264-0.16-5.568-0.864-7.072-1.536c0.192-3.2,0.384-6.496,0.608-9.888l0.096-1.472c2.208-34.656,4.928-77.76-6.528-103.36
	c-7.84-17.536-18.368-32.608-31.328-44.832c-10.848-10.24-23.456-18.56-37.472-24.704c-24.352-10.752-47.072-12.352-58.464-12.352
	h-0.032c-0.448,0-0.864,0-1.248,0c-3.168,0.032-8.32,0.096-8.8,0.096c-11.36,0-34.112,1.6-58.528,12.352
	c-13.984,6.144-26.528,14.432-37.344,24.672c-12.896,12.224-23.392,27.264-31.2,44.736c-11.456,25.568-8.736,68.672-6.56,103.296
	v0.064c0.224,3.712,0.48,7.584,0.704,11.36c-1.664,0.736-4.384,1.568-8.384,1.568c-6.464,0-14.144-2.048-22.816-6.112
	c-2.56-1.184-5.472-1.792-8.672-1.792c-5.152,0-10.624,1.504-15.328,4.288c-5.952,3.488-9.792,8.384-10.848,13.856
	c-0.672,3.584-0.64,10.72,7.296,17.952c4.384,3.968,10.784,7.648,19.072,10.912c2.176,0.864,4.768,1.664,7.488,2.528
	c9.472,3.008,23.84,7.552,27.584,16.32c1.888,4.448,1.056,10.304-2.432,17.408c-0.096,0.192-0.192,0.384-0.256,0.576
	c-0.896,2.048-9.056,20.448-25.792,39.872c-9.504,11.04-19.968,20.288-31.104,27.456c-13.6,8.768-28.288,14.464-43.68,16.992
	c-6.048,0.992-10.368,6.368-10.016,12.48c0.096,1.76,0.512,3.52,1.248,5.216v0.032c2.464,5.728,8.128,10.56,17.344,14.816
	c11.264,5.216,28.096,9.6,50.08,13.024c1.12,2.112,2.272,7.392,3.072,11.008c0.832,3.84,1.696,7.808,2.944,12
	c1.344,4.544,4.8,9.984,13.728,9.984c3.392,0,7.264-0.768,11.776-1.632c6.592-1.28,15.616-3.04,26.848-3.04
	c6.24,0,12.704,0.544,19.2,1.632c12.544,2.08,23.36,9.696,35.872,18.528c18.304,12.928,39.04,27.552,70.72,27.552
	c0.864,0,1.728-0.032,2.592-0.096c1.024,0.064,2.336,0.096,3.68,0.096c31.68,0,52.416-14.624,70.72-27.52l0.032-0.032
	c12.512-8.8,23.328-16.416,35.872-18.496c6.496-1.088,12.96-1.632,19.2-1.632c10.752,0,19.264,1.376,26.848,2.848
	c4.96,0.96,8.8,1.44,11.776,1.44h0.288h0.288c6.528,0,11.328-3.584,13.152-9.824c1.216-4.128,2.08-7.968,2.944-11.904
	c0.736-3.392,1.952-8.832,3.04-10.944c21.984-3.456,38.816-7.808,50.08-13.024c9.184-4.256,14.848-9.088,17.312-14.784
	c0.736-1.696,1.184-3.456,1.28-5.28C512.308,380.788,507.988,375.38,501.94,374.42z"/>
<g>
</g>
<g>
</g>
<g>
</g>
<g>
</g>
<g>
</g>
<g>
</g>
<g>
</g>
<g>
</g>
<g>
</g>
<g>
</g>
<g>
</g>
<g>
</g>
<g>
</g>
<g>
</g>
<g>
</g>
</svg>
