<?xml version="1.0" encoding="iso-8859-1"?>
<!-- Generator: Adobe Illustrator 19.0.0, SVG Export Plug-In . SVG Version: 6.00 Build 0)  -->
<svg version="1.1" id="Capa_1" xmlns="http://www.w3.org/2000/svg" xmlns:xlink="http://www.w3.org/1999/xlink" x="0px" y="0px"
	 viewBox="0 0 512 512" style="enable-background:new 0 0 512 512;" xml:space="preserve">
<g>
	<path style="fill:#FF9800;" d="M432,240c-5.696,0-11.296,0.608-16.672,1.76C408.128,169.024,346.592,112,272,112
		c-8.832,0-16,7.168-16,16v256c0,8.832,7.168,16,16,16h160c44.128,0,80-35.872,80-80C512,275.904,476.128,240,432,240z"/>
	<path style="fill:#FF9800;" d="M208,144c-8.832,0-16,7.168-16,16v224c0,8.832,7.168,16,16,16s16-7.168,16-16V160
		C224,151.168,216.832,144,208,144z"/>
	<path style="fill:#FF9800;" d="M144,208c-8.832,0-16,7.168-16,16v160c0,8.832,7.168,16,16,16s16-7.168,16-16V224
		C160,215.168,152.832,208,144,208z"/>
	<path style="fill:#FF9800;" d="M80,208c-8.832,0-16,7.168-16,16v160c0,8.832,7.168,16,16,16s16-7.168,16-16V224
		C96,215.168,88.832,208,80,208z"/>
	<path style="fill:#FF9800;" d="M16,256c-8.832,0-16,7.168-16,16v96c0,8.832,7.168,16,16,16s16-7.168,16-16v-96
		C32,263.168,24.832,256,16,256z"/>
</g>
<g>
</g>
<g>
</g>
<g>
</g>
<g>
</g>
<g>
</g>
<g>
</g>
<g>
</g>
<g>
</g>
<g>
</g>
<g>
</g>
<g>
</g>
<g>
</g>
<g>
</g>
<g>
</g>
<g>
</g>
</svg>
