<?xml version="1.0" encoding="iso-8859-1"?>
<!-- Generator: Adobe Illustrator 19.0.0, SVG Export Plug-In . SVG Version: 6.00 Build 0)  -->
<svg version="1.1" id="Capa_1" xmlns="http://www.w3.org/2000/svg" xmlns:xlink="http://www.w3.org/1999/xlink" x="0px" y="0px"
	 viewBox="0 0 512 512" style="enable-background:new 0 0 512 512;" xml:space="preserve">
<circle style="fill:#8BC34A;" cx="256" cy="256" r="256"/>
<g>
	<path style="fill:#37474F;" d="M360.352,376.352c-3.2,0-6.4-0.928-9.184-2.912c-60-42.176-159.808-44.512-227.2-28.8
		c-8.544,2.016-17.216-3.36-19.2-11.968s3.328-17.216,11.968-19.232c74.08-17.152,184.8-14.016,252.8,33.824
		c7.264,5.088,8.96,15.072,3.904,22.272C370.304,373.984,365.376,376.352,360.352,376.352z"/>
	<path style="fill:#37474F;" d="M391.648,313.76c-3.264,0-6.496-0.96-9.344-3.008C312.736,260.8,227.232,248.384,113.12,271.68
		c-8.608,1.696-17.12-3.808-18.88-12.48c-1.792-8.64,3.808-17.12,12.448-18.88c123.424-25.184,216.928-11.104,294.304,44.416
		c7.168,5.152,8.8,15.168,3.648,22.336C401.536,311.424,396.64,313.76,391.648,313.76z"/>
	<path style="fill:#37474F;" d="M422.976,230.272c-3.104,0-6.24-0.896-8.992-2.752c-88.224-59.872-222.336-60.16-309.152-29.44
		c-8.32,2.88-17.472-1.44-20.416-9.792c-2.944-8.32,1.408-17.472,9.76-20.416C188.608,134.496,334.944,135.2,432,201.024
		c7.328,4.96,9.184,14.912,4.256,22.208C433.12,227.808,428.064,230.272,422.976,230.272z"/>
</g>
<g>
</g>
<g>
</g>
<g>
</g>
<g>
</g>
<g>
</g>
<g>
</g>
<g>
</g>
<g>
</g>
<g>
</g>
<g>
</g>
<g>
</g>
<g>
</g>
<g>
</g>
<g>
</g>
<g>
</g>
</svg>
