<?xml version="1.0" encoding="iso-8859-1"?>
<!-- Generator: Adobe Illustrator 19.0.0, SVG Export Plug-In . SVG Version: 6.00 Build 0)  -->
<svg version="1.1" id="Capa_1" xmlns="http://www.w3.org/2000/svg" xmlns:xlink="http://www.w3.org/1999/xlink" x="0px" y="0px"
	 viewBox="0 0 512 512" style="enable-background:new 0 0 512 512;" xml:space="preserve">
<path style="fill:#2196F3;" d="M388.384,293.088c68.256,0,123.616-54.88,123.616-122.56C512,102.88,456.64,48,388.384,48
	c-62.112,0-113.44,45.376-122.208,104.48h-4C253.376,93.376,202.016,48,139.904,48C71.648,48,16.32,102.88,16.32,170.528
	c0,67.04,54.304,121.536,121.728,122.528v0.032h3.712v41.76L0,296.768v162.976l141.76-42.272V464h208.352l-61.056-170.912h99.04
	H388.384z M139.904,205.12c-19.296,0-34.912-15.456-34.912-34.624c0-19.104,15.648-34.592,34.912-34.592
	s34.912,15.488,34.912,34.592C174.816,189.664,159.168,205.12,139.904,205.12 M356,170.528c0-19.104,15.584-34.592,34.848-34.592
	c19.328,0,34.976,15.488,34.976,34.592c0,19.136-15.648,34.656-34.976,34.656C371.584,205.152,356,189.664,356,170.528"/>
<g>
</g>
<g>
</g>
<g>
</g>
<g>
</g>
<g>
</g>
<g>
</g>
<g>
</g>
<g>
</g>
<g>
</g>
<g>
</g>
<g>
</g>
<g>
</g>
<g>
</g>
<g>
</g>
<g>
</g>
</svg>
