<?xml version="1.0" encoding="iso-8859-1"?>
<!-- Generator: Adobe Illustrator 19.0.0, SVG Export Plug-In . SVG Version: 6.00 Build 0)  -->
<svg version="1.1" id="Capa_1" xmlns="http://www.w3.org/2000/svg" xmlns:xlink="http://www.w3.org/1999/xlink" x="0px" y="0px"
	 viewBox="0 0 512 512" style="enable-background:new 0 0 512 512;" xml:space="preserve">
<path style="fill:#757575;" d="M256,0C114.848,0,0,114.848,0,256s114.848,256,256,256s256-114.848,256-256S397.152,0,256,0z M256,32
	c45.216,0,87.264,13.568,122.496,36.704C366.24,75.52,354.88,89.856,354.88,120.32c0,16.192,11.04,34.976,23.808,56.736
	c15.328,26.112,34.336,58.592,29.568,82.048c-5.248,15.52-18.56,50.752-32.992,88.352l-66.144-190.08
	c1.344-0.352,2.848-0.576,4.128-0.992c8.384-2.784,12.896-11.84,10.112-20.224c-2.816-8.384-11.84-12.832-20.256-10.112
	c-13.632,4.544-38.304,4.448-53.12,4.416h-4.448h-4.448c-14.72,0.032-39.488,0.128-53.12-4.416
	c-8.288-2.816-17.376,1.728-20.192,10.112s1.728,17.44,10.112,20.224c6.752,2.272,14.72,3.488,22.848,4.384l39.36,102.336
	l-37.216,93.888L139.296,158.08c2.336-0.544,4.832-0.96,6.976-1.696c8.384-2.784,12.928-11.84,10.112-20.224
	s-11.84-12.928-20.224-10.112c-13.6,4.544-38.336,4.416-53.152,4.416h-4.384c-2.88,0-5.248-0.224-7.68-0.416
	C111.296,70.912,179.168,32,256,32z M32,256c0-25.152,4.352-49.28,12.032-71.872l98.176,264.48C76.384,409.536,32,337.952,32,256z
	 M192.288,470.656L257.056,307.2l62.848,163.424C299.648,476.64,278.208,480,256,480C233.856,480,212.512,476.64,192.288,470.656z
	 M370.528,448.128c20.736-53.152,56.448-145.216,67.168-176.352l0.416,0.128c0.448-1.28,0.928-2.944,1.248-4.896
	c3.616-10.048,6.688-19.232,9.152-26.976c7.904-24.992,12.928-46.976,15.552-66.432C474.24,199.136,480,226.88,480,256
	C480,337.632,435.968,408.992,370.528,448.128z"/>
<g>
</g>
<g>
</g>
<g>
</g>
<g>
</g>
<g>
</g>
<g>
</g>
<g>
</g>
<g>
</g>
<g>
</g>
<g>
</g>
<g>
</g>
<g>
</g>
<g>
</g>
<g>
</g>
<g>
</g>
</svg>
