<?xml version="1.0" encoding="iso-8859-1"?>
<!-- Generator: Adobe Illustrator 19.0.0, SVG Export Plug-In . SVG Version: 6.00 Build 0)  -->
<svg version="1.1" id="Capa_1" xmlns="http://www.w3.org/2000/svg" xmlns:xlink="http://www.w3.org/1999/xlink" x="0px" y="0px"
	 viewBox="0 0 511.996 511.996" style="enable-background:new 0 0 511.996 511.996;" xml:space="preserve">
<g>
	<circle style="fill:#7B1FA2;" cx="377.484" cy="447.996" r="32"/>
	<path style="fill:#7B1FA2;" d="M479.852,41.244c-5.824-5.952-13.696-9.248-22.112-9.248c-16.16,0-29.856,12.064-31.776,28.608
		L377.676,365.5c-1.312,8.416,4.16,16.416,12.512,18.144c1.12,0.224,2.208,0.352,3.296,0.352c7.136,0,13.568-4.736,15.456-11.872
		l79.2-297.952c0.16-0.576,0.288-1.056,0.352-1.632c0.64-1.664,0.96-3.424,0.992-5.216
		C489.708,57.052,486.284,47.804,479.852,41.244z"/>
	<path style="fill:#7B1FA2;" d="M300.012,3.42c-7.52,0.288-14.912-0.704-21.856-2.752c-7.936-2.272-16.16,1.632-19.328,9.184
		l-89.12,214.688L80.108,9.852C76.94,2.3,68.62-1.668,60.78,0.668c-6.976,2.08-14.208,2.816-21.76,2.752
		c-5.632-0.224-10.688,2.464-13.76,7.008s-3.616,10.336-1.44,15.36l113.664,261.504v208.704c0,8.832,7.168,16,16,16h32
		c8.832,0,16-7.168,16-16l0.192-209.152L315.148,25.788c2.144-5.024,1.632-10.816-1.44-15.328
		C310.668,5.916,305.388,3.612,300.012,3.42z"/>
</g>
<g>
</g>
<g>
</g>
<g>
</g>
<g>
</g>
<g>
</g>
<g>
</g>
<g>
</g>
<g>
</g>
<g>
</g>
<g>
</g>
<g>
</g>
<g>
</g>
<g>
</g>
<g>
</g>
<g>
</g>
</svg>
