<?xml version="1.0" encoding="utf-8"?>
<!-- Generator: Adobe Illustrator 24.3.0, SVG Export Plug-In . SVG Version: 6.00 Build 0)  -->
<svg version="1.1" id="Layer_1" xmlns="http://www.w3.org/2000/svg" xmlns:xlink="http://www.w3.org/1999/xlink" x="0px" y="0px"
	 viewBox="0 0 64 64" style="enable-background:new 0 0 64 64;" xml:space="preserve">
<style type="text/css">
	.st0{fill:#F03C2E;}
</style>
<g>
	<path class="st0" d="M62.8,29.2L34.9,1.2c-1.6-1.6-4.2-1.6-5.8,0c0,0,0,0,0,0L23.2,7l7.4,7.4c1.7-0.6,3.7-0.2,5,1.2
		c1.3,1.3,1.8,3.3,1.2,5.1l7.1,7.1c1.7-0.6,3.7-0.2,5.1,1.2c1.9,1.9,1.9,5,0,6.9c-1.9,1.9-5,1.9-6.9,0c-1.4-1.4-1.8-3.6-1.1-5.3
		l-6.6-6.6v17.4c0.5,0.2,0.9,0.6,1.3,0.9c1.9,1.9,1.9,5,0,6.9s-5,1.9-6.9,0l0,0c-1.9-1.9-1.9-5,0-6.9c0,0,0,0,0,0
		c0.5-0.5,1-0.8,1.6-1.1V23.6c-0.6-0.2-1.1-0.6-1.6-1.1c-1.4-1.4-1.8-3.5-1.1-5.4l-7.3-7.3L1.2,29c-1.6,1.6-1.6,4.2,0,5.8
		c0,0,0,0,0,0l27.9,27.9c1.6,1.6,4.2,1.6,5.8,0c0,0,0,0,0,0L62.8,35C64.4,33.4,64.4,30.8,62.8,29.2C62.8,29.2,62.8,29.2,62.8,29.2"
		/>
</g>
</svg>
