<?xml version="1.0" encoding="UTF-8"?> <svg xmlns="http://www.w3.org/2000/svg" id="Logos" viewBox="0 0 250 250"><defs><style>.cls-1{fill:#0b161d;}.cls-2{fill:#179287;}</style></defs><path class="cls-1" d="M54.7,203.6a9.3,9.3,0,0,0-2.1-2.3,8.1,8.1,0,0,0-5.4-1.9,9.1,9.1,0,0,0-9,9.5c0,6.3,4.6,9.6,9,9.6a9.6,9.6,0,0,0,5.6-1.7,8,8,0,0,0,2.9-4.2H45.2V208H62.1a17.4,17.4,0,0,1-1.2,7.1c-2.6,5.8-8.6,8.3-13.6,8.3a14.4,14.4,0,0,1-14.7-14.5c0-8.4,6.6-14.4,14.8-14.4,6.3,0,11.8,4,13.6,9.1Z"></path><path class="cls-1" d="M66.2,195h4.9v4.4H66.2Zm0,7.2h4.9v20.7H66.2Z"></path><path class="cls-1" d="M77.7,206H74.2v-3.8h3.5V195h4.9v7.2h3.6V206H82.6v16.9H77.7Z"></path><path class="cls-1" d="M90.2,195h5.7v12.9l9.2-12.9H111l-10.1,13.9,11.1,14h-6.8l-9.3-12.5v12.5H90.2Z"></path><path class="cls-1" d="M114.7,202.2h4.7v2.7a5.9,5.9,0,0,1,5.7-3.3v4.9h-.2c-3.5,0-5.3,1.7-5.3,5.2v11.2h-4.9Z"></path><path class="cls-1" d="M148.6,222.9h-4.9v-3a7.8,7.8,0,0,1-7,3.6c-6.6,0-10.5-5.1-10.5-11s4.7-10.9,10.5-10.9a7.8,7.8,0,0,1,7,3.6v-3h4.9Zm-17.5-10.3a6.2,6.2,0,0,0,6.3,6.3,5.7,5.7,0,0,0,5.5-3.3,7.4,7.4,0,0,0,.8-2.9,5.8,5.8,0,0,0-.6-2.9,6,6,0,0,0-5.7-3.6,6.2,6.2,0,0,0-6.3,6.4Z"></path><path class="cls-1" d="M154,195h4.9v15.1l7.2-7.9H172l-8.6,9.1,8.6,11.6h-5.6l-7.5-10.3v10.3H154Z"></path><path class="cls-1" d="M180.5,218a5.8,5.8,0,0,0,7.9-.9,5.4,5.4,0,0,0,1.4-5.5l3.5-3.7a11.9,11.9,0,0,1,.9,6.6,10.3,10.3,0,0,1-2.8,5.6,10.8,10.8,0,0,1-15.4.4,10.9,10.9,0,0,1-.6-15.5,10.5,10.5,0,0,1,7.6-3.4,11.4,11.4,0,0,1,9,4.2Zm5.4-11.2a5.6,5.6,0,0,0-7.4,1.1,5.5,5.5,0,0,0-.7,7.4Z"></path><path class="cls-1" d="M198.3,202.2h4.6V205c.9-1.7,2.7-3.5,6.4-3.4,6.8,0,8,5.2,8,8.8v12.5h-4.9V211.7c0-3.1-1-5.5-4.5-5.5s-4.7,2.4-4.7,5.3v11.4h-4.9Z"></path><path class="cls-2" d="M210.1,62.3a3.6,3.6,0,0,0-7,1.3,2.5,2.5,0,0,0,.2,1.2,82.6,82.6,0,0,1,5.3,29.5,83.8,83.8,0,0,1-72.7,83V138.2a60.2,60.2,0,0,0,7.3-1.9v32.8a77,77,0,0,0,19-142.2,3.7,3.7,0,0,0-5.1,1.6,4.5,4.5,0,0,0-.3,1.6,3.6,3.6,0,0,0,1.8,3.2,69.7,69.7,0,0,1-8.1,125.9V130.1a11.2,11.2,0,0,0,7.8-10.6,11,11,0,0,0-5.5-9.7c2.6-25.1,14.1-18.5,14.1-26.5V78.7c0-12.1-27.8-51.1-40.8-52.1h-2.4c-13,1-40.8,40-40.8,52.1v4.6c0,8,11.5,1.4,14.1,26.5a11.2,11.2,0,0,0,2.4,20.3v29.1A69.7,69.7,0,0,1,91.2,33.3a3.6,3.6,0,0,0,1.5-4.8,3.5,3.5,0,0,0-3.3-2,3.3,3.3,0,0,0-1.7.4,77,77,0,0,0,19,142.2V136.3a60.2,60.2,0,0,0,7.3,1.9v39.1a83.8,83.8,0,0,1-72.8-83,84.8,84.8,0,0,1,5.3-29.5,3.6,3.6,0,0,0-1.9-4.6,4,4,0,0,0-1.5-.3,3.7,3.7,0,0,0-3.4,2.4,91,91,0,0,0,81.5,122.9v-46h7.4v46a90.9,90.9,0,0,0,87.3-90.9A89.1,89.1,0,0,0,210.1,62.3Zm-68.4,51.9a7.5,7.5,0,1,1,10.6,10.6,7.5,7.5,0,1,1-10.6-10.6Zm-33.6,10.6a7.4,7.4,0,0,1-10.5,0,7.5,7.5,0,0,1,0-10.6,7.4,7.4,0,0,1,10.5,0,7.5,7.5,0,0,1,0,10.6Z"></path></svg> 