<?xml version="1.0" encoding="UTF-8"?>
<!DOCTYPE svg PUBLIC "-//W3C//DTD SVG 1.1//EN" "http://www.w3.org/Graphics/SVG/1.1/DTD/svg11.dtd">
<svg xmlns="http://www.w3.org/2000/svg" version="1.1" width="600px" height="600px" style="shape-rendering:geometricPrecision; text-rendering:geometricPrecision; image-rendering:optimizeQuality; fill-rule:evenodd; clip-rule:evenodd" xmlns:xlink="http://www.w3.org/1999/xlink">
<g><path style="opacity:0.98" fill="#002050" d="M 509.5,211.5 C 502.456,211.244 495.456,210.578 488.5,209.5C 488.667,172.165 488.5,134.832 488,97.5C 486.823,87.6444 481.656,80.8111 472.5,77C 419.438,61.1519 366.438,45.1519 313.5,29C 304.918,26.1962 296.252,25.8629 287.5,28C 234.546,44.1551 181.546,60.1551 128.5,76C 118.231,79.5983 112.398,86.765 111,97.5C 110.5,134.832 110.333,172.165 110.5,209.5C 103.523,210.364 96.523,211.031 89.5,211.5C 89.3333,171.499 89.5,131.499 90,91.5C 93.8704,72.6298 105.037,60.4632 123.5,55C 178.112,38.4626 232.778,22.1292 287.5,6C 299.722,4.67477 311.722,5.67477 323.5,9C 374.167,24.3333 424.833,39.6667 475.5,55C 493.963,60.4632 505.13,72.6298 509,91.5C 509.5,131.499 509.667,171.499 509.5,211.5 Z"/></g>
<g><path style="opacity:0.996" fill="#505050" d="M 509.5,211.5 C 525.152,213.951 540.819,216.451 556.5,219C 573.008,222.671 582.341,232.838 584.5,249.5C 576.989,291.554 569.156,333.554 561,375.5C 557.915,387.585 550.415,395.418 538.5,399C 528.768,399.692 519.101,399.192 509.5,397.5C 502.793,395.279 495.793,393.945 488.5,393.5C 362.368,374.855 236.368,374.855 110.5,393.5C 103.19,393.83 96.1902,395.163 89.5,397.5C 79.8986,399.192 70.2319,399.692 60.5,399C 48.5855,395.418 41.0855,387.585 38,375.5C 29.8441,333.554 22.0108,291.554 14.5,249.5C 16.6585,232.838 25.9918,222.671 42.5,219C 58.1808,216.451 73.8475,213.951 89.5,211.5C 96.523,211.031 103.523,210.364 110.5,209.5C 110.333,172.165 110.5,134.832 111,97.5C 112.398,86.765 118.231,79.5983 128.5,76C 181.546,60.1551 234.546,44.1551 287.5,28C 296.252,25.8629 304.918,26.1962 313.5,29C 366.438,45.1519 419.438,61.1519 472.5,77C 481.656,80.8111 486.823,87.6444 488,97.5C 488.5,134.832 488.667,172.165 488.5,209.5C 495.456,210.578 502.456,211.244 509.5,211.5 Z"/></g>
<g><path style="opacity:1" fill="#efefef" d="M 243.5,88.5 C 248.663,88.1068 250.33,90.2734 248.5,95C 242.244,95.9338 240.577,93.7672 243.5,88.5 Z"/></g>
<g><path style="opacity:1" fill="#fefefe" d="M 375.5,88.5 C 379.938,87.4251 381.938,89.0917 381.5,93.5C 377.651,93.0193 375.651,94.686 375.5,98.5C 377.167,98.5 378.833,98.5 380.5,98.5C 380.5,100.167 380.5,101.833 380.5,103.5C 378.833,103.5 377.167,103.5 375.5,103.5C 375.5,109.5 375.5,115.5 375.5,121.5C 373.5,121.5 371.5,121.5 369.5,121.5C 369.5,115.5 369.5,109.5 369.5,103.5C 368.167,103.5 366.833,103.5 365.5,103.5C 365.5,101.833 365.5,100.167 365.5,98.5C 366.833,98.5 368.167,98.5 369.5,98.5C 368.673,93.3517 370.673,90.0184 375.5,88.5 Z"/></g>
<g><path style="opacity:1" fill="#f5f5f5" d="M 229.5,121.5 C 229.666,113.16 229.5,104.827 229,96.5C 228.685,98.5856 228.185,100.586 227.5,102.5C 225.1,108.701 223.1,115.034 221.5,121.5C 219.396,121.799 217.396,121.466 215.5,120.5C 212.765,113.96 210.431,107.294 208.5,100.5C 208.291,99.0783 207.791,97.745 207,96.5C 206.5,104.827 206.334,113.16 206.5,121.5C 204.5,121.5 202.5,121.5 200.5,121.5C 200.5,111.167 200.5,100.833 200.5,90.5C 204.226,90.1774 207.893,90.5108 211.5,91.5C 214.217,97.9832 216.551,104.65 218.5,111.5C 221.597,104.791 223.93,97.7906 225.5,90.5C 229.167,90.5 232.833,90.5 236.5,90.5C 236.5,100.833 236.5,111.167 236.5,121.5C 234.167,121.5 231.833,121.5 229.5,121.5 Z"/></g>
<g><path style="opacity:1" fill="#f8f8f8" d="M 391.5,91.5 C 393.344,93.2789 394.01,95.6122 393.5,98.5C 395.167,98.5 396.833,98.5 398.5,98.5C 398.5,100.167 398.5,101.833 398.5,103.5C 396.833,103.5 395.167,103.5 393.5,103.5C 393.334,107.514 393.501,111.514 394,115.5C 395.356,116.38 396.856,116.714 398.5,116.5C 397.896,121.152 395.23,122.652 390.5,121C 389.667,120.167 388.833,119.333 388,118.5C 386.612,113.628 386.112,108.628 386.5,103.5C 385.5,103.5 384.5,103.5 383.5,103.5C 383.5,101.833 383.5,100.167 383.5,98.5C 384.5,98.5 385.5,98.5 386.5,98.5C 386.5,96.8333 386.5,95.1667 386.5,93.5C 388.553,93.5979 390.22,92.9313 391.5,91.5 Z"/></g>
<g><path style="opacity:1" fill="#f6f6f6" d="M 242.5,98.5 C 244.833,98.5 247.167,98.5 249.5,98.5C 249.5,106.167 249.5,113.833 249.5,121.5C 247.167,121.5 244.833,121.5 242.5,121.5C 242.5,113.833 242.5,106.167 242.5,98.5 Z"/></g>
<g><path style="opacity:1" fill="#f6f6f6" d="M 261.5,98.5 C 264.833,98.5 268.167,98.5 271.5,98.5C 271.799,100.604 271.466,102.604 270.5,104.5C 267.8,103.333 265.133,103.5 262.5,105C 259.032,114.357 262.032,117.857 271.5,115.5C 271.739,117.467 271.406,119.301 270.5,121C 257.421,122.921 252.254,117.421 255,104.5C 257.063,102.266 259.229,100.266 261.5,98.5 Z"/></g>
<g><path style="opacity:1" fill="#f8f8f8" d="M 276.5,98.5 C 278.833,98.5 281.167,98.5 283.5,98.5C 283.443,102.133 284.443,102.3 286.5,99C 287.793,98.51 289.127,98.3433 290.5,98.5C 290.5,100.5 290.5,102.5 290.5,104.5C 287.956,104.104 285.789,104.771 284,106.5C 283.501,111.489 283.334,116.489 283.5,121.5C 281.167,121.5 278.833,121.5 276.5,121.5C 276.5,113.833 276.5,106.167 276.5,98.5 Z"/></g>
<g><path style="opacity:1" fill="#f6f6f6" d="M 300.5,98.5 C 313.57,97.0672 318.737,102.734 316,115.5C 311.392,121.56 305.559,123.06 298.5,120C 296.333,119.167 294.833,117.667 294,115.5C 293.333,111.833 293.333,108.167 294,104.5C 295.872,102.153 298.039,100.153 300.5,98.5 Z"/></g>
<g><path style="opacity:1" fill="#f6f6f6" d="M 326.5,98.5 C 329.545,98.5079 332.545,98.8413 335.5,99.5C 335.66,101.199 335.494,102.866 335,104.5C 333.769,103.892 332.436,103.559 331,103.5C 329.027,103.309 327.527,103.976 326.5,105.5C 329.515,107.45 332.681,109.116 336,110.5C 337.643,115.428 336.143,118.928 331.5,121C 328.167,121.667 324.833,121.667 321.5,121C 319.396,119.164 319.062,116.998 320.5,114.5C 323.947,117.1 327.28,117.1 330.5,114.5C 326.027,113.511 322.527,111.177 320,107.5C 319.276,102.393 321.443,99.3928 326.5,98.5 Z"/></g>
<g><path style="opacity:1" fill="#f6f6f6" d="M 346.5,98.5 C 359.57,97.0672 364.737,102.734 362,115.5C 357.392,121.56 351.559,123.06 344.5,120C 342.333,119.167 340.833,117.667 340,115.5C 339.333,111.833 339.333,108.167 340,104.5C 341.872,102.153 344.039,100.153 346.5,98.5 Z"/></g>
<g><path style="opacity:1" fill="#848484" d="M 229.5,121.5 C 228.833,115.167 228.167,108.833 227.5,102.5C 228.185,100.586 228.685,98.5856 229,96.5C 229.5,104.827 229.666,113.16 229.5,121.5 Z"/></g>
<g><path style="opacity:1" fill="#cdcdcd" d="M 208.5,100.5 C 207.833,107.5 207.167,114.5 206.5,121.5C 206.334,113.16 206.5,104.827 207,96.5C 207.791,97.745 208.291,99.0783 208.5,100.5 Z"/></g>
<g><path style="opacity:1" fill="#535353" d="M 302.5,103.5 C 304.936,103.317 307.103,103.984 309,105.5C 310.023,109.317 309.523,112.817 307.5,116C 304.975,116.896 302.808,116.396 301,114.5C 300.013,110.525 300.513,106.859 302.5,103.5 Z"/></g>
<g><path style="opacity:1" fill="#535353" d="M 348.5,103.5 C 350.936,103.317 353.103,103.984 355,105.5C 356.023,109.317 355.523,112.817 353.5,116C 350.975,116.896 348.808,116.396 347,114.5C 346.013,110.525 346.513,106.859 348.5,103.5 Z"/></g>
<g><path style="opacity:1" fill="#f0f0f0" d="M 207.5,141.5 C 211.167,141.5 214.833,141.5 218.5,141.5C 218.5,142.5 218.5,143.5 218.5,144.5C 206.65,142.182 202.15,146.849 205,158.5C 206.167,159.667 207.333,160.833 208.5,162C 212.002,162.282 215.335,162.449 218.5,162.5C 218.291,163.086 217.957,163.586 217.5,164C 203.151,165.631 198.317,159.465 203,145.5C 204.667,144.267 206.167,142.933 207.5,141.5 Z"/></g>
<g><path style="opacity:1" fill="#ededed" d="M 230.5,141.5 C 234.555,141.176 238.555,141.509 242.5,142.5C 239.572,143.484 236.572,143.817 233.5,143.5C 233.5,146.167 233.5,148.833 233.5,151.5C 236.167,151.5 238.833,151.5 241.5,151.5C 241.5,152.5 241.5,153.5 241.5,154.5C 238.833,154.5 236.167,154.5 233.5,154.5C 233.5,156.833 233.5,159.167 233.5,161.5C 236.5,161.5 239.5,161.5 242.5,161.5C 242.5,162.5 242.5,163.5 242.5,164.5C 238.5,164.5 234.5,164.5 230.5,164.5C 230.5,156.833 230.5,149.167 230.5,141.5 Z"/></g>
<g><path style="opacity:1" fill="#f4f4f4" d="M 253.5,141.5 C 256.85,141.335 260.183,141.502 263.5,142C 267.104,143.334 268.271,145.834 267,149.5C 266.167,151.667 264.667,153.167 262.5,154C 265.444,156.722 267.777,159.889 269.5,163.5C 268.5,164.833 267.5,164.833 266.5,163.5C 264.869,160.404 262.869,157.57 260.5,155C 259.207,154.51 257.873,154.343 256.5,154.5C 256.5,157.833 256.5,161.167 256.5,164.5C 255.5,164.5 254.5,164.5 253.5,164.5C 253.5,156.833 253.5,149.167 253.5,141.5 Z"/></g>
<g><path style="opacity:1" fill="#f5f5f5" d="M 276.5,141.5 C 281.875,141.172 287.208,141.505 292.5,142.5C 290.257,143.474 287.924,143.808 285.5,143.5C 285.5,150.5 285.5,157.5 285.5,164.5C 284.5,164.5 283.5,164.5 282.5,164.5C 282.5,157.5 282.5,150.5 282.5,143.5C 279.918,143.975 277.918,143.308 276.5,141.5 Z"/></g>
<g><path style="opacity:1" fill="#f3f3f3" d="M 302.5,141.5 C 303.5,141.5 304.5,141.5 305.5,141.5C 305.5,149.167 305.5,156.833 305.5,164.5C 304.5,164.5 303.5,164.5 302.5,164.5C 302.5,156.833 302.5,149.167 302.5,141.5 Z"/></g>
<g><path style="opacity:1" fill="#f0f0f0" d="M 317.5,141.5 C 321.555,141.176 325.555,141.509 329.5,142.5C 326.572,143.484 323.572,143.817 320.5,143.5C 320.5,146.167 320.5,148.833 320.5,151.5C 323.167,151.5 325.833,151.5 328.5,151.5C 328.5,152.5 328.5,153.5 328.5,154.5C 325.833,154.5 323.167,154.5 320.5,154.5C 320.5,157.833 320.5,161.167 320.5,164.5C 319.5,164.5 318.5,164.5 317.5,164.5C 317.5,156.833 317.5,149.167 317.5,141.5 Z"/></g>
<g><path style="opacity:1" fill="#f3f3f3" d="M 340.5,141.5 C 341.5,141.5 342.5,141.5 343.5,141.5C 343.5,149.167 343.5,156.833 343.5,164.5C 342.5,164.5 341.5,164.5 340.5,164.5C 340.5,156.833 340.5,149.167 340.5,141.5 Z"/></g>
<g><path style="opacity:1" fill="#ededed" d="M 355.5,141.5 C 359.555,141.176 363.555,141.509 367.5,142.5C 364.572,143.484 361.572,143.817 358.5,143.5C 358.5,146.167 358.5,148.833 358.5,151.5C 361.167,151.5 363.833,151.5 366.5,151.5C 366.5,152.5 366.5,153.5 366.5,154.5C 363.833,154.5 361.167,154.5 358.5,154.5C 358.5,156.833 358.5,159.167 358.5,161.5C 361.5,161.5 364.5,161.5 367.5,161.5C 367.5,162.5 367.5,163.5 367.5,164.5C 363.5,164.5 359.5,164.5 355.5,164.5C 355.5,156.833 355.5,149.167 355.5,141.5 Z"/></g>
<g><path style="opacity:1" fill="#f1f1f1" d="M 378.5,141.5 C 392.564,139.066 398.398,144.732 396,158.5C 391.477,164.008 385.644,166.008 378.5,164.5C 378.5,156.833 378.5,149.167 378.5,141.5 Z"/></g>
<g><path style="opacity:1" fill="#5b5b5b" d="M 256.5,143.5 C 263.94,142.753 265.94,145.587 262.5,152C 260.527,152.495 258.527,152.662 256.5,152.5C 256.5,149.5 256.5,146.5 256.5,143.5 Z"/></g>
<g><path style="opacity:1" fill="#555555" d="M 381.5,143.5 C 389.133,142.313 393.466,145.48 394.5,153C 393.311,160.279 388.978,163.112 381.5,161.5C 381.5,155.5 381.5,149.5 381.5,143.5 Z"/></g>
<g><path style="opacity:1" fill="#fdfdfd" d="M 267.5,209.5 C 363.494,208.095 458.827,215.261 553.5,231C 567.342,234.153 573.175,242.653 571,256.5C 563.45,295.134 556.117,333.801 549,372.5C 546.266,381.734 540.1,386.734 530.5,387.5C 376.498,360.833 222.498,360.833 68.5,387.5C 56.8408,386.006 50.3408,379.34 49,367.5C 42.1621,330.479 35.1621,293.479 28,256.5C 25.7496,243.069 31.2496,234.569 44.5,231C 118.508,218.932 192.841,211.765 267.5,209.5 Z"/></g>
<g><path style="opacity:1" fill="#2e2e2e" d="M 260.5,273.5 C 259.957,273.56 259.624,273.893 259.5,274.5C 266.134,275.497 272.8,275.83 279.5,275.5C 279.5,277.167 279.5,278.833 279.5,280.5C 269.833,280.5 260.167,280.5 250.5,280.5C 250.343,279.127 250.51,277.793 251,276.5C 257.871,267.26 264.371,257.76 270.5,248C 264.175,247.5 257.842,247.334 251.5,247.5C 251.5,245.833 251.5,244.167 251.5,242.5C 260.833,242.5 270.167,242.5 279.5,242.5C 279.649,243.552 279.483,244.552 279,245.5C 272.575,254.69 266.408,264.024 260.5,273.5 Z"/></g>
<g><path style="opacity:1" fill="#767676" d="M 293.5,266.5 C 292.508,258.684 292.174,250.684 292.5,242.5C 290.833,242.5 289.167,242.5 287.5,242.5C 287.5,251.833 287.5,261.167 287.5,270.5C 286.506,261.014 286.173,251.348 286.5,241.5C 288.833,241.5 291.167,241.5 293.5,241.5C 293.5,249.833 293.5,258.167 293.5,266.5 Z"/></g>
<g><path style="opacity:1" fill="#2c2c2c" d="M 293.5,266.5 C 294.5,273.652 298.5,276.152 305.5,274C 308.397,272.285 309.731,269.785 309.5,266.5C 310.492,258.684 310.826,250.684 310.5,242.5C 312.167,242.5 313.833,242.5 315.5,242.5C 315.5,251.5 315.5,260.5 315.5,269.5C 313.725,277.1 308.892,280.766 301,280.5C 294.077,280.407 289.577,277.074 287.5,270.5C 287.5,261.167 287.5,251.833 287.5,242.5C 289.167,242.5 290.833,242.5 292.5,242.5C 292.174,250.684 292.508,258.684 293.5,266.5 Z"/></g>
<g><path style="opacity:1" fill="#767676" d="M 315.5,269.5 C 315.5,260.5 315.5,251.5 315.5,242.5C 313.833,242.5 312.167,242.5 310.5,242.5C 310.826,250.684 310.492,258.684 309.5,266.5C 309.5,258.167 309.5,249.833 309.5,241.5C 311.833,241.5 314.167,241.5 316.5,241.5C 316.827,251.015 316.494,260.348 315.5,269.5 Z"/></g>
<g><path style="opacity:1" fill="#313131" d="M 224.5,243.5 C 227.247,243.187 229.914,243.52 232.5,244.5C 237.371,256.406 242.371,268.239 247.5,280C 245.167,280.667 242.833,280.667 240.5,280C 239.407,277.557 238.407,275.057 237.5,272.5C 232.167,271.167 226.833,271.167 221.5,272.5C 220.067,275.333 219.4,278.333 219.5,281.5C 217.167,281.5 214.833,281.5 212.5,281.5C 215.911,268.601 219.911,255.934 224.5,243.5 Z"/></g>
<g><path style="opacity:1" fill="#717171" d="M 341.5,243.5 C 336.833,243.5 332.167,243.5 327.5,243.5C 327.818,248.032 327.485,252.366 326.5,256.5C 326.5,251.833 326.5,247.167 326.5,242.5C 331.695,242.179 336.695,242.513 341.5,243.5 Z"/></g>
<g><path style="opacity:1" fill="#2b2b2b" d="M 341.5,243.5 C 351.889,246.036 354.222,251.87 348.5,261C 346.668,261.748 345.001,262.748 343.5,264C 347.781,268.727 351.448,273.894 354.5,279.5C 352.235,280.647 349.902,280.814 347.5,280C 345.248,274.824 342.248,270.157 338.5,266C 336.527,265.505 334.527,265.338 332.5,265.5C 332.5,270.5 332.5,275.5 332.5,280.5C 330.5,280.5 328.5,280.5 326.5,280.5C 326.5,272.5 326.5,264.5 326.5,256.5C 327.485,252.366 327.818,248.032 327.5,243.5C 332.167,243.5 336.833,243.5 341.5,243.5 Z"/></g>
<g><path style="opacity:1" fill="#2c2c2c" d="M 361.5,243.5 C 368.167,243.5 374.833,243.5 381.5,243.5C 381.5,245.167 381.5,246.833 381.5,248.5C 376.833,248.5 372.167,248.5 367.5,248.5C 367.5,252.167 367.5,255.833 367.5,259.5C 371.5,259.5 375.5,259.5 379.5,259.5C 379.5,261.167 379.5,262.833 379.5,264.5C 375.167,264.5 370.833,264.5 366.5,264.5C 366.5,268.167 366.5,271.833 366.5,275.5C 371.5,275.5 376.5,275.5 381.5,275.5C 381.5,277.5 381.5,279.5 381.5,281.5C 374.515,280.911 367.515,280.578 360.5,280.5C 360.734,268.163 361.067,255.83 361.5,243.5 Z"/></g>
<g><path style="opacity:1" fill="#a2a2a2" d="M 339.5,248.5 C 337.5,248.5 335.5,248.5 333.5,248.5C 333.5,252.167 333.5,255.833 333.5,259.5C 336.167,259.5 338.833,259.5 341.5,259.5C 338.713,260.477 335.713,260.81 332.5,260.5C 332.5,256.167 332.5,251.833 332.5,247.5C 335.059,247.198 337.393,247.532 339.5,248.5 Z"/></g>
<g><path style="opacity:1" fill="#fcfcfc" d="M 339.5,248.5 C 341.39,248.297 342.89,248.963 344,250.5C 344.667,252.833 344.667,255.167 344,257.5C 343.292,258.381 342.458,259.047 341.5,259.5C 338.833,259.5 336.167,259.5 333.5,259.5C 333.5,255.833 333.5,252.167 333.5,248.5C 335.5,248.5 337.5,248.5 339.5,248.5 Z"/></g>
<g><path style="opacity:1" fill="#e5e5e5" d="M 227.5,248.5 C 230.587,254.076 232.921,260.076 234.5,266.5C 230.833,266.5 227.167,266.5 223.5,266.5C 225.041,260.544 226.374,254.544 227.5,248.5 Z"/></g>
<g><path style="opacity:1" fill="#747474" d="M 260.5,273.5 C 266.833,274.167 273.167,274.833 279.5,275.5C 272.8,275.83 266.134,275.497 259.5,274.5C 259.624,273.893 259.957,273.56 260.5,273.5 Z"/></g>
<g><path style="opacity:1" fill="#2d2d2d" d="M 303.5,301.5 C 305.5,301.5 307.5,301.5 309.5,301.5C 309.5,314.167 309.5,326.833 309.5,339.5C 306.315,339.98 303.481,339.314 301,337.5C 295.671,328.682 290.171,320.015 284.5,311.5C 284.217,310.711 283.717,310.044 283,309.5C 282.5,319.494 282.334,329.494 282.5,339.5C 280.833,339.5 279.167,339.5 277.5,339.5C 277.5,334.833 277.5,330.167 277.5,325.5C 277.5,317.833 277.5,310.167 277.5,302.5C 279.833,302.5 282.167,302.5 284.5,302.5C 290.153,311.13 295.82,319.797 301.5,328.5C 301.783,329.289 302.283,329.956 303,330.5C 303.5,320.839 303.666,311.172 303.5,301.5 Z"/></g>
<g><path style="opacity:1" fill="#2e2e2e" d="M 330.5,301.5 C 335.913,301.229 341.246,301.729 346.5,303C 347.406,304.699 347.739,306.533 347.5,308.5C 331.617,303.341 323.784,309.008 324,325.5C 326.869,334.017 332.703,336.85 341.5,334C 342.451,330.943 342.784,327.777 342.5,324.5C 339.833,324.5 337.167,324.5 334.5,324.5C 334.5,322.833 334.5,321.167 334.5,319.5C 339.167,319.5 343.833,319.5 348.5,319.5C 348.81,325.758 348.476,331.924 347.5,338C 333.888,344.265 324.055,340.765 318,327.5C 315.519,315.466 319.686,306.799 330.5,301.5 Z"/></g>
<g><path style="opacity:1" fill="#282828" d="M 262.5,307.5 C 259.5,307.5 256.5,307.5 253.5,307.5C 253.185,311.371 253.518,315.038 254.5,318.5C 256.5,318.5 258.5,318.5 260.5,318.5C 262.5,318.5 264.5,318.5 266.5,318.5C 266.5,320.167 266.5,321.833 266.5,323.5C 262.5,323.5 258.5,323.5 254.5,323.5C 253.517,327.298 253.183,331.298 253.5,335.5C 258.5,335.5 263.5,335.5 268.5,335.5C 268.5,336.833 268.5,338.167 268.5,339.5C 261.978,339.177 255.645,339.51 249.5,340.5C 248.566,328.002 247.899,315.335 247.5,302.5C 254.167,302.5 260.833,302.5 267.5,302.5C 267.5,304.167 267.5,305.833 267.5,307.5C 265.833,307.5 264.167,307.5 262.5,307.5 Z"/></g>
<g><path style="opacity:1" fill="#909090" d="M 284.5,302.5 C 282.167,302.5 279.833,302.5 277.5,302.5C 277.5,310.167 277.5,317.833 277.5,325.5C 276.508,317.684 276.174,309.684 276.5,301.5C 279.385,301.194 282.052,301.527 284.5,302.5 Z"/></g>
<g><path style="opacity:1" fill="#b1b1b1" d="M 365.5,306.5 C 365.5,305.5 365.5,304.5 365.5,303.5C 363.5,303.5 361.5,303.5 359.5,303.5C 359.817,307.702 359.483,311.702 358.5,315.5C 358.5,311.167 358.5,306.833 358.5,302.5C 361.167,302.5 363.833,302.5 366.5,302.5C 366.768,304.099 366.434,305.432 365.5,306.5 Z"/></g>
<g><path style="opacity:1" fill="#2f2f2f" d="M 365.5,306.5 C 365.593,317.85 365.259,329.183 364.5,340.5C 362.5,340.5 360.5,340.5 358.5,340.5C 358.5,332.167 358.5,323.833 358.5,315.5C 359.483,311.702 359.817,307.702 359.5,303.5C 361.5,303.5 363.5,303.5 365.5,303.5C 365.5,304.5 365.5,305.5 365.5,306.5 Z"/></g>
<g><path style="opacity:1" fill="#2e2e2e" d="M 400.5,331.5 C 400.783,332.289 401.283,332.956 402,333.5C 402.499,327.509 402.666,321.509 402.5,315.5C 402.5,311.833 402.5,308.167 402.5,304.5C 404.5,304.5 406.5,304.5 408.5,304.5C 408.5,306.833 408.5,309.167 408.5,311.5C 407.887,321.488 407.553,331.488 407.5,341.5C 404.753,341.813 402.086,341.48 399.5,340.5C 394.252,331.002 388.752,321.669 383,312.5C 382.168,321.819 381.668,331.152 381.5,340.5C 379.5,340.5 377.5,340.5 375.5,340.5C 375.675,328.161 376.008,315.828 376.5,303.5C 379.448,303.223 382.281,303.556 385,304.5C 390.178,313.527 395.345,322.527 400.5,331.5 Z"/></g>
<g><path style="opacity:1" fill="#c2c2c2" d="M 402.5,304.5 C 404.607,303.532 406.941,303.198 409.5,303.5C 409.806,306.385 409.473,309.052 408.5,311.5C 408.5,309.167 408.5,306.833 408.5,304.5C 406.5,304.5 404.5,304.5 402.5,304.5 Z"/></g>
<g><path style="opacity:1" fill="#313131" d="M 225.5,339.5 C 223.274,340.756 220.941,340.756 218.5,339.5C 217.877,331.893 213.877,329.393 206.5,332C 204.236,332.236 202.069,332.736 200,333.5C 199.047,336.432 198.547,339.432 198.5,342.5C 196.167,342.5 193.833,342.5 191.5,342.5C 195.037,329.756 198.87,317.089 203,304.5C 205.466,303.223 207.966,303.223 210.5,304.5C 215.788,316.072 220.788,327.739 225.5,339.5 Z"/></g>
<g><path style="opacity:1" fill="#2f2f2f" d="M 166.5,305.5 C 174.5,305.5 182.5,305.5 190.5,305.5C 190.5,307.167 190.5,308.833 190.5,310.5C 186.833,310.5 183.167,310.5 179.5,310.5C 180.042,321.509 180.709,332.509 181.5,343.5C 179.5,343.5 177.5,343.5 175.5,343.5C 174.392,332.864 173.725,322.198 173.5,311.5C 169.833,311.5 166.167,311.5 162.5,311.5C 162.5,309.833 162.5,308.167 162.5,306.5C 164.099,306.768 165.432,306.434 166.5,305.5 Z"/></g>
<g><path style="opacity:1" fill="#313131" d="M 424.5,329.5 C 423.523,332.287 423.19,335.287 423.5,338.5C 425.833,338.5 428.167,338.5 430.5,338.5C 433.167,338.5 435.833,338.5 438.5,338.5C 438.5,340.167 438.5,341.833 438.5,343.5C 431.5,343.5 424.5,343.5 417.5,343.5C 418.062,330.826 418.728,318.16 419.5,305.5C 426.211,305.287 432.877,305.62 439.5,306.5C 439.5,308.167 439.5,309.833 439.5,311.5C 434.833,311.5 430.167,311.5 425.5,311.5C 425.384,314.86 425.051,318.193 424.5,321.5C 428.182,321.335 431.848,321.501 435.5,322C 437.192,323.401 437.859,325.234 437.5,327.5C 432.706,326.903 428.373,327.57 424.5,329.5 Z"/></g>
<g><path style="opacity:1" fill="#b8b8b8" d="M 262.5,307.5 C 260.052,308.473 257.385,308.806 254.5,308.5C 254.5,311.833 254.5,315.167 254.5,318.5C 253.518,315.038 253.185,311.371 253.5,307.5C 256.5,307.5 259.5,307.5 262.5,307.5 Z"/></g>
<g><path style="opacity:1" fill="#2e2e2e" d="M 449.5,307.5 C 455.535,307.537 461.535,308.037 467.5,309C 469.107,310.049 469.773,311.549 469.5,313.5C 464.5,313.5 459.5,313.5 454.5,313.5C 454.211,317.106 454.544,320.606 455.5,324C 459.486,324.499 463.486,324.666 467.5,324.5C 467.5,326.167 467.5,327.833 467.5,329.5C 462.833,329.5 458.167,329.5 453.5,329.5C 453.448,333.198 453.114,336.865 452.5,340.5C 457.507,340.751 462.507,341.084 467.5,341.5C 467.5,343.167 467.5,344.833 467.5,346.5C 460.52,345.835 453.52,345.502 446.5,345.5C 447.595,332.841 448.595,320.174 449.5,307.5 Z"/></g>
<g><path style="opacity:1" fill="#303030" d="M 141.5,308.5 C 144.247,308.187 146.914,308.52 149.5,309.5C 155.239,320.594 160.573,331.927 165.5,343.5C 163.167,344.833 160.833,344.833 158.5,343.5C 157.399,341.358 156.399,339.192 155.5,337C 150.5,336.333 145.5,336.333 140.5,337C 139.545,340.099 138.711,343.266 138,346.5C 135.599,347.602 133.099,347.769 130.5,347C 134.461,334.279 138.128,321.445 141.5,308.5 Z"/></g>
<g><path style="opacity:1" fill="#2e2e2e" d="M 478.5,310.5 C 483.829,311.223 489.163,312.056 494.5,313C 501.614,316.069 503.447,321.236 500,328.5C 497.97,330.737 495.47,332.237 492.5,333C 496.713,337.918 500.046,343.418 502.5,349.5C 500.167,350.833 497.833,350.833 495.5,349.5C 493.65,343.628 490.65,338.462 486.5,334C 484.866,333.506 483.199,333.34 481.5,333.5C 481.387,338.518 481.053,343.518 480.5,348.5C 478.5,348.5 476.5,348.5 474.5,348.5C 475.321,335.775 476.655,323.108 478.5,310.5 Z"/></g>
<g><path style="opacity:1" fill="#a8a8a8" d="M 96.5,312.5 C 95.791,313.404 94.791,313.737 93.5,313.5C 93.5,315.167 93.5,316.833 93.5,318.5C 92.5386,316.735 92.2053,314.735 92.5,312.5C 93.8333,312.5 95.1667,312.5 96.5,312.5 Z"/></g>
<g><path style="opacity:1" fill="#2f2f2f" d="M 93.5,318.5 C 93.5,316.833 93.5,315.167 93.5,313.5C 94.791,313.737 95.791,313.404 96.5,312.5C 104.033,310.703 111.366,311.203 118.5,314C 126.519,320.439 128.686,328.606 125,338.5C 122.199,343.503 118.032,347.003 112.5,349C 107.22,350.095 101.887,350.595 96.5,350.5C 95.719,339.814 94.719,329.147 93.5,318.5 Z"/></g>
<g><path style="opacity:1" fill="#f0f0f0" d="M 206.5,310.5 C 209.058,315.289 211.392,320.289 213.5,325.5C 209.893,326.489 206.226,326.823 202.5,326.5C 203.629,321.112 204.963,315.779 206.5,310.5 Z"/></g>
<g><path style="opacity:1" fill="#656565" d="M 284.5,311.5 C 283.833,320.833 283.167,330.167 282.5,339.5C 282.334,329.494 282.5,319.494 283,309.5C 283.717,310.044 284.217,310.711 284.5,311.5 Z"/></g>
<g><path style="opacity:1" fill="#ebebeb" d="M 145.5,314.5 C 148.403,319.86 150.736,325.527 152.5,331.5C 148.833,331.5 145.167,331.5 141.5,331.5C 142.677,325.793 144.01,320.126 145.5,314.5 Z"/></g>
<g><path style="opacity:1" fill="#f2f2f2" d="M 483.5,316.5 C 487.839,315.846 491.673,316.846 495,319.5C 496.123,322.956 495.29,325.79 492.5,328C 489.183,328.498 485.85,328.665 482.5,328.5C 483.162,324.534 483.495,320.534 483.5,316.5 Z"/></g>
<g><path style="opacity:1" fill="#f7f7f7" d="M 99.5,317.5 C 114.759,314.27 121.593,320.27 120,335.5C 116.483,342.743 110.65,345.743 102.5,344.5C 101.427,335.508 100.427,326.508 99.5,317.5 Z"/></g>
<g><path style="opacity:1" fill="#b2b2b2" d="M 303.5,301.5 C 303.666,311.172 303.5,320.839 303,330.5C 302.283,329.956 301.783,329.289 301.5,328.5C 302.167,319.5 302.833,310.5 303.5,301.5 Z"/></g>
<g><path style="opacity:1" fill="#ababab" d="M 260.5,318.5 C 262.607,317.532 264.941,317.198 267.5,317.5C 267.795,319.735 267.461,321.735 266.5,323.5C 266.5,321.833 266.5,320.167 266.5,318.5C 264.5,318.5 262.5,318.5 260.5,318.5 Z"/></g>
<g><path style="opacity:1" fill="#7f7f7f" d="M 402.5,315.5 C 402.666,321.509 402.499,327.509 402,333.5C 401.283,332.956 400.783,332.289 400.5,331.5C 401.167,326.167 401.833,320.833 402.5,315.5 Z"/></g>
<g><path style="opacity:1" fill="#969696" d="M 424.5,329.5 C 424.5,332.167 424.5,334.833 424.5,337.5C 426.735,337.205 428.735,337.539 430.5,338.5C 428.167,338.5 425.833,338.5 423.5,338.5C 423.19,335.287 423.523,332.287 424.5,329.5 Z"/></g>
<g><path style="opacity:1" fill="#6e6e6e" d="M 254.5,323.5 C 254.5,327.167 254.5,330.833 254.5,334.5C 259.5,334.5 264.5,334.5 269.5,334.5C 269.5,336.5 269.5,338.5 269.5,340.5C 262.833,340.5 256.167,340.5 249.5,340.5C 255.645,339.51 261.978,339.177 268.5,339.5C 268.5,338.167 268.5,336.833 268.5,335.5C 263.5,335.5 258.5,335.5 253.5,335.5C 253.183,331.298 253.517,327.298 254.5,323.5 Z"/></g>
<g><path style="opacity:1" fill="#999999" d="M 218.5,339.5 C 220.941,340.756 223.274,340.756 225.5,339.5C 226.043,339.56 226.376,339.893 226.5,340.5C 225.167,340.833 223.833,341.167 222.5,341.5C 220.667,341.415 219.334,340.748 218.5,339.5 Z"/></g>
<g><path style="opacity:1" fill="#0264b4" d="M 488.5,393.5 C 487.184,422.781 477.017,448.447 458,470.5C 432.218,498.956 402.385,522.123 368.5,540C 346.241,552.13 323.241,562.63 299.5,571.5C 246.154,552.847 198.488,525.013 156.5,488C 135.415,468.232 120.915,444.399 113,416.5C 111.121,408.949 110.287,401.282 110.5,393.5C 236.368,374.855 362.368,374.855 488.5,393.5 Z"/></g>
<g><path style="opacity:0.975" fill="#002050" d="M 110.5,393.5 C 110.287,401.282 111.121,408.949 113,416.5C 120.915,444.399 135.415,468.232 156.5,488C 198.488,525.013 246.154,552.847 299.5,571.5C 323.241,562.63 346.241,552.13 368.5,540C 402.385,522.123 432.218,498.956 458,470.5C 477.017,448.447 487.184,422.781 488.5,393.5C 495.793,393.945 502.793,395.279 509.5,397.5C 507.676,430.134 496.176,458.801 475,483.5C 447.181,514.33 415.014,539.497 378.5,559C 353.26,573.131 326.927,584.631 299.5,593.5C 242.228,574.711 190.894,545.877 145.5,507C 121.497,485.328 104.33,459.161 94,428.5C 91.2398,418.345 89.7398,408.012 89.5,397.5C 96.1902,395.163 103.19,393.83 110.5,393.5 Z"/></g>
<g><path style="opacity:1" fill="#f4f8fb" d="M 274.5,404.5 C 289.509,404.01 295.009,411.01 291,425.5C 286.983,432.138 281.15,434.304 273.5,432C 270.417,431.214 268.251,429.381 267,426.5C 262.987,416.69 265.487,409.357 274.5,404.5 Z"/></g>
<g><path style="opacity:1" fill="#f5f9fc" d="M 307.5,404.5 C 311.437,404.207 315.27,404.54 319,405.5C 319.808,407.579 319.641,409.579 318.5,411.5C 307.476,408.693 303.309,412.693 306,423.5C 309.669,428.055 314.002,428.722 319,425.5C 319.918,428.063 319.418,430.23 317.5,432C 299.867,433.68 294.367,426.18 301,409.5C 303.326,407.934 305.492,406.268 307.5,404.5 Z"/></g>
<g><path style="opacity:1" fill="#f3f7fb" d="M 245.5,405.5 C 249.833,405.5 254.167,405.5 258.5,405.5C 258.799,407.604 258.466,409.604 257.5,411.5C 254.562,410.425 251.562,410.259 248.5,411C 247.167,412.333 247.167,413.667 248.5,415C 252.607,416.25 256.107,418.417 259,421.5C 260.634,430.203 256.967,434.203 248,433.5C 241.558,434.478 239.224,431.811 241,425.5C 245.038,429.391 248.872,429.391 252.5,425.5C 252.167,424.833 251.833,424.167 251.5,423.5C 247.021,422.502 243.521,420.169 241,416.5C 239.393,411.438 240.893,407.772 245.5,405.5 Z"/></g>
<g><path style="opacity:1" fill="#fefffe" d="M 327.5,405.5 C 329.5,405.5 331.5,405.5 333.5,405.5C 333.5,414.5 333.5,423.5 333.5,432.5C 331.5,432.5 329.5,432.5 327.5,432.5C 327.5,423.5 327.5,414.5 327.5,405.5 Z"/></g>
<g><path style="opacity:1" fill="#f3f8fb" d="M 218.5,406.5 C 222.833,406.5 227.167,406.5 231.5,406.5C 231.799,408.604 231.466,410.604 230.5,412.5C 227.562,411.425 224.562,411.259 221.5,412C 220.978,412.561 220.645,413.228 220.5,414C 224.219,416.614 228.052,419.114 232,421.5C 234.334,430.52 230.667,434.854 221,434.5C 215.37,435.087 213.537,432.754 215.5,427.5C 219.639,430.499 223.306,430.166 226.5,426.5C 224.172,423.665 221.172,421.831 217.5,421C 212.003,415.683 212.336,410.85 218.5,406.5 Z"/></g>
<g><path style="opacity:1" fill="#f3f7fb" d="M 345.5,432.5 C 343.265,432.795 341.265,432.461 339.5,431.5C 342.544,423.075 345.877,414.742 349.5,406.5C 352.645,405.005 355.478,405.338 358,407.5C 360.813,416.103 363.313,424.77 365.5,433.5C 363.167,433.5 360.833,433.5 358.5,433.5C 358.167,431.5 357.833,429.5 357.5,427.5C 354.15,427.335 350.817,427.502 347.5,428C 346.901,429.622 346.234,431.122 345.5,432.5 Z"/></g>
<g><path style="opacity:1" fill="#f7fafc" d="M 374.5,420.5 C 375.477,417.713 375.81,414.713 375.5,411.5C 373.5,411.5 371.5,411.5 369.5,411.5C 367.744,410.448 367.077,408.781 367.5,406.5C 374.849,406.549 382.183,406.882 389.5,407.5C 389.5,409.167 389.5,410.833 389.5,412.5C 386.833,412.5 384.167,412.5 381.5,412.5C 381.371,419.845 381.038,427.178 380.5,434.5C 378.5,434.5 376.5,434.5 374.5,434.5C 374.5,429.833 374.5,425.167 374.5,420.5 Z"/></g>
<g><path style="opacity:1" fill="#f3f7fb" d="M 189.5,407.5 C 192.448,407.223 195.281,407.556 198,408.5C 201.5,416.833 205,425.167 208.5,433.5C 206.167,434.833 203.833,434.833 201.5,433.5C 200.754,432.264 200.421,430.93 200.5,429.5C 196.833,429.5 193.167,429.5 189.5,429.5C 189.828,434.418 187.495,436.418 182.5,435.5C 184.517,426.097 186.851,416.764 189.5,407.5 Z"/></g>
<g><path style="opacity:1" fill="#f8fbfd" d="M 396.5,435.5 C 395.612,432.946 395.279,430.279 395.5,427.5C 395.454,420.809 395.788,414.143 396.5,407.5C 401.797,408.275 407.13,408.608 412.5,408.5C 412.5,410.167 412.5,411.833 412.5,413.5C 409.167,413.5 405.833,413.5 402.5,413.5C 402.5,415.5 402.5,417.5 402.5,419.5C 405.572,419.183 408.572,419.516 411.5,420.5C 410.754,421.736 410.421,423.07 410.5,424.5C 407.5,424.5 404.5,424.5 401.5,424.5C 401.5,426.5 401.5,428.5 401.5,430.5C 404.833,430.5 408.167,430.5 411.5,430.5C 411.5,432.167 411.5,433.833 411.5,435.5C 406.5,435.5 401.5,435.5 396.5,435.5 Z"/></g>
<g><path style="opacity:1" fill="#1067b6" d="M 275.5,410.5 C 284.077,409.935 287.244,413.935 285,422.5C 281.421,428.753 277.421,429.086 273,423.5C 271.743,418.617 272.576,414.284 275.5,410.5 Z"/></g>
<g><path style="opacity:1" fill="#5998ce" d="M 369.5,411.5 C 371.5,411.5 373.5,411.5 375.5,411.5C 375.81,414.713 375.477,417.713 374.5,420.5C 374.5,417.833 374.5,415.167 374.5,412.5C 372.585,412.784 370.919,412.451 369.5,411.5 Z"/></g>
<g><path style="opacity:1" fill="#2e75bd" d="M 352.5,412.5 C 354.41,415.452 355.41,418.786 355.5,422.5C 353.5,422.5 351.5,422.5 349.5,422.5C 350.492,419.177 351.492,415.844 352.5,412.5 Z"/></g>
<g><path style="opacity:1" fill="#2a73bc" d="M 193.5,414.5 C 195.403,417.53 196.737,420.863 197.5,424.5C 195.5,424.5 193.5,424.5 191.5,424.5C 191.959,421.123 192.626,417.789 193.5,414.5 Z"/></g>
<g><path style="opacity:1" fill="#79add8" d="M 339.5,431.5 C 341.265,432.461 343.265,432.795 345.5,432.5C 343.307,433.797 340.973,433.797 338.5,432.5C 338.624,431.893 338.957,431.56 339.5,431.5 Z"/></g>
<g><path style="opacity:1" fill="#659fd1" d="M 395.5,427.5 C 395.279,430.279 395.612,432.946 396.5,435.5C 395.252,434.666 394.585,433.333 394.5,431.5C 394.511,429.955 394.844,428.622 395.5,427.5 Z"/></g>
<g><path style="opacity:1" fill="#f9fbfd" d="M 257.5,454.5 C 260.659,462.632 263.659,470.965 266.5,479.5C 275.816,480.332 285.149,480.832 294.5,481C 287.333,486.167 280.167,491.333 273,496.5C 274.557,505.349 277.057,514.015 280.5,522.5C 280.167,522.833 279.833,523.167 279.5,523.5C 272.447,517.78 265.113,512.447 257.5,507.5C 250.244,512.712 243.077,518.045 236,523.5C 237.459,514.781 239.959,506.281 243.5,498C 236.472,491.976 229.138,486.309 221.5,481C 230.827,480.5 240.161,480.334 249.5,480.5C 251.564,471.643 254.23,462.976 257.5,454.5 Z"/></g>
<g><path style="opacity:1" fill="#f9fbfd" d="M 340.5,454.5 C 344.659,462.638 347.659,471.304 349.5,480.5C 358.839,480.334 368.173,480.5 377.5,481C 369.862,486.309 362.528,491.976 355.5,498C 359.041,506.281 361.541,514.781 363,523.5C 355.844,517.922 348.51,512.589 341,507.5C 333.898,512.302 327.064,517.469 320.5,523C 319.668,523.688 319.002,523.521 318.5,522.5C 321.943,514.015 324.443,505.349 326,496.5C 318.833,491.333 311.667,486.167 304.5,481C 313.851,480.832 323.184,480.332 332.5,479.5C 335.574,471.278 338.241,462.944 340.5,454.5 Z"/></g>
</svg>
