<?xml version="1.0" encoding="utf-8"?>
<!-- Generator: Adobe Illustrator 19.0.0, SVG Export Plug-In . SVG Version: 6.00 Build 0)  -->
<svg version="1.1" id="layer" xmlns="http://www.w3.org/2000/svg" xmlns:xlink="http://www.w3.org/1999/xlink" x="0px" y="0px"
	 viewBox="-153 -46 652 652" style="enable-background:new -153 -46 652 652;" xml:space="preserve">
<style type="text/css">
	.st0{fill:#3F4F75;}
	.st1{fill:#80CFBE;}
	.st2{fill:#FFFFFF;}
</style>
<path class="st0" d="M57.2,378.5h-172.1c-9.1,0-16.5-7.6-16.5-17V188.5c0-9.4,7.4-17,16.5-17H57.2c9.1,0,16.5,7.6,16.5,17v172.9
	C73.7,370.9,66.3,378.5,57.2,378.5"/>
<path class="st1" d="M-80.1,252.3c0.3,0.4,0.5,0.8,0.7,1.2c-0.6-0.5-1.2-0.9-1.9-1.1c-0.1-0.3-0.4-0.6-0.8-0.7l-0.1,0
	c-0.1-0.1-0.2-0.2-0.3-0.4C-81.7,251.6-80.8,251.9-80.1,252.3 M-86.3,260.7c0.5,0,1-0.1,1.5-0.3c0.1,0.1,0.2,0.2,0.3,0.3
	c-0.6,0.2-1.3,0.2-2,0.1L-86.3,260.7 M-84.2,254.4c0.2,0.1,0.4,0.2,0.6,0.2c0,0.2,0,0.3,0,0.5c-0.4-0.5-1-0.5-1.5-0.2l-0.1-0.4
	l0.7-0.2C-84.4,254.4-84.3,254.4-84.2,254.4 M-87.5,255.1c0.1,0.4,0.1,0.8,0.3,1.1C-87.4,255.9-87.5,255.6-87.5,255.1 M-81.1,258
	c-0.1-0.2-0.2-0.4-0.3-0.6c0.1-0.2,0.2-0.4,0.2-0.5C-81,257.3-81,257.6-81.1,258 M-77.9,251c-0.2-0.1-0.3-0.2-0.5-0.3
	c-0.6-0.7-1.2-1.4-2-1.9c-3.2-2.3-8.2-2.6-10.5,1.1c-0.1,0.2-0.2,0.4-0.3,0.6c-1.5,1.3-2.6,3.2-2.9,5.2c-0.5,0.1-0.8,0.6-0.8,1.1
	c-0.1,2.3,1.1,4.2,2.9,5.4c1.8,1.6,4.5,2.3,7.1,2.3c3.9,0.1,6.5-2,7.7-4.8l0-0.1C-75.2,256.9-74.9,253.1-77.9,251 M-80.1,218.3
	c0.3,0.4,0.5,0.8,0.7,1.2c-0.6-0.5-1.2-0.9-1.9-1.1c-0.1-0.3-0.4-0.6-0.8-0.7l-0.1,0c-0.1-0.1-0.2-0.2-0.3-0.4
	C-81.7,217.5-80.8,217.8-80.1,218.3 M-86.3,226.7c0.5,0,1-0.1,1.5-0.3c0.1,0.1,0.2,0.2,0.3,0.3c-0.6,0.2-1.3,0.2-2,0.1L-86.3,226.7
	 M-84.2,220.4c0.2,0.1,0.4,0.2,0.6,0.2c0,0.2,0,0.3,0,0.5c-0.4-0.5-1-0.5-1.5-0.2l-0.1-0.4l0.7-0.2
	C-84.4,220.3-84.3,220.3-84.2,220.4 M-87.5,221c0,0.1,0,0.3,0.1,0.4c0.1,0.2,0.1,0.4,0.2,0.7C-87.4,221.9-87.5,221.5-87.5,221
	 M-81.1,223.9l-0.3-0.6c0.1-0.2,0.2-0.4,0.2-0.5C-81,223.2-81,223.6-81.1,223.9 M-77.9,217c-0.2-0.1-0.3-0.2-0.5-0.3
	c-0.6-0.7-1.2-1.4-2-1.9c-3.2-2.3-8.2-2.6-10.5,1.1c-0.1,0.2-0.2,0.4-0.3,0.6c-1.5,1.3-2.6,3.2-2.9,5.2c-0.5,0.1-0.8,0.6-0.8,1.1
	c-0.1,2.3,1.1,4.2,2.9,5.4c1.8,1.6,4.5,2.3,7.1,2.3c3.9,0.1,6.5-2,7.7-4.8l0-0.1C-75.2,222.8-74.9,219.1-77.9,217 M-5.3,252.3
	c0.3,0.4,0.5,0.8,0.7,1.2c-0.6-0.5-1.2-0.9-1.9-1.1c-0.1-0.3-0.4-0.6-0.8-0.7l-0.1,0c-0.1-0.1-0.2-0.2-0.3-0.4
	C-6.8,251.6-6,251.9-5.3,252.3 M-11.4,260.7c0.5,0,1-0.1,1.5-0.3c0.1,0.1,0.2,0.2,0.3,0.3c-0.6,0.2-1.3,0.2-2,0.1L-11.4,260.7
	 M-9.4,254.4c0.2,0.1,0.4,0.2,0.6,0.2c0,0.2,0,0.3,0,0.5c-0.4-0.5-1-0.5-1.5-0.2l-0.1-0.4l0.7-0.2C-9.5,254.4-9.5,254.4-9.4,254.4
	 M-12.6,255.1c0.1,0.4,0.1,0.8,0.3,1.1C-12.6,255.9-12.7,255.6-12.6,255.1 M-6.3,258c-0.1-0.2-0.2-0.4-0.3-0.6
	c0.1-0.2,0.2-0.4,0.3-0.5C-6.2,257.3-6.2,257.6-6.3,258 M-3,251c-0.2-0.1-0.3-0.2-0.5-0.3c-0.6-0.7-1.2-1.4-2-1.9
	c-3.2-2.3-8.2-2.6-10.5,1.1c-0.1,0.2-0.2,0.4-0.3,0.6c-1.5,1.3-2.6,3.2-2.9,5.2c-0.5,0.1-0.8,0.6-0.8,1.1c-0.1,2.3,1.1,4.2,2.9,5.4
	c1.8,1.6,4.5,2.3,7.1,2.3c3.9,0.1,6.5-2,7.7-4.8l0-0.1C-0.3,256.9-0.1,253.1-3,251 M-5.3,218.3c0.3,0.4,0.5,0.8,0.7,1.2
	c-0.6-0.5-1.2-0.9-1.9-1.1c-0.1-0.3-0.4-0.6-0.8-0.7l-0.1,0c-0.1-0.1-0.2-0.2-0.3-0.4C-6.8,217.5-6,217.8-5.3,218.3 M-11.4,226.7
	c0.5,0,1-0.1,1.5-0.3c0.1,0.1,0.2,0.2,0.3,0.3c-0.6,0.2-1.3,0.2-2,0.1L-11.4,226.7 M-9.4,220.4c0.2,0.1,0.4,0.2,0.6,0.2
	c0,0.2,0,0.3,0,0.5c-0.4-0.5-1-0.5-1.5-0.2l-0.1-0.4l0.7-0.2C-9.5,220.3-9.5,220.3-9.4,220.4 M-12.6,221c0.1,0.4,0.2,0.7,0.3,1.1
	C-12.6,221.9-12.7,221.5-12.6,221 M-6.3,223.9l-0.3-0.6c0.1-0.2,0.2-0.4,0.3-0.5C-6.2,223.2-6.2,223.6-6.3,223.9 M-3,217
	c-0.2-0.1-0.3-0.2-0.5-0.3c-0.6-0.7-1.2-1.4-2-1.9c-3.2-2.3-8.2-2.6-10.5,1.1c-0.1,0.2-0.2,0.4-0.3,0.6c-1.5,1.3-2.6,3.2-2.9,5.2
	c-0.5,0.1-0.8,0.6-0.8,1.1c-0.1,2.3,1.1,4.2,2.9,5.4c1.8,1.6,4.5,2.3,7.1,2.3c3.9,0.1,6.5-2,7.7-4.8l0-0.1
	C-0.3,222.8-0.1,219.1-3,217"/>
<path class="st2" d="M-83.4,283.1c-5,0-9.1,4.1-9.1,9.2v37c0,5.1,4.1,9.2,9.1,9.2c5,0,9.1-4.1,9.1-9.2v-37
	C-74.3,287.3-78.4,283.1-83.4,283.1 M-10.7,283.1c-5,0-9.1,4.1-9.1,9.2v37c0,5.1,4.1,9.2,9.1,9.2c5,0,9.1-4.1,9.1-9.2v-37
	C-1.6,287.3-5.7,283.1-10.7,283.1 M-47,246.2c-5,0-9.1,4.1-9.1,9.2v74c0,5.1,4.1,9.2,9.1,9.2s9.1-4.1,9.1-9.2v-74
	C-37.9,250.3-42,246.2-47,246.2 M25.7,246.2c-5,0-9.1,4.1-9.1,9.2v74c0,5.1,4.1,9.2,9.1,9.2c5,0,9.1-4.1,9.1-9.2v-74
	C34.8,250.3,30.7,246.2,25.7,246.2"/>
<path class="st1" d="M31.4,225.7c-0.5,0.8-1.2,1.4-1.9,1.8c0.4-0.7,0.9-1.5,1.3-2.5c0.1-0.2,0.2-0.4,0.3-0.6c0.3-0.3,0.4-0.6,0.3-1
	c0,0,0,0,0,0c0.6-0.4,1-1.2,1.1-2l0.1-0.1C32.7,222.8,32.3,224.4,31.4,225.7 M19.5,222.7c0-0.4,0-0.8,0-1.2c0.4,1.3,0.9,2.6,1.4,3.8
	c0.3,0.8,0.7,1.7,1.2,2.4c-0.3-0.2-0.5-0.4-0.7-0.6C20.2,226,19.6,224.3,19.5,222.7 M25.7,220.9c0-0.8,0-1.7,0-2.5
	c0.1,0,0.2,0.1,0.3,0.2l0.2,0.1C26.4,219.4,26.4,220.5,25.7,220.9 M33.9,217.3c0-0.5-0.3-1.1-0.7-1.4c-0.8-1.3-1.8-2.4-3.1-3.2
	c-1.7-1.1-3.7-1.7-4.9-0.2c-0.5,0-0.9-0.1-1.4-0.1c-0.3,0-0.5,0-0.8,0.1c-1.4-0.6-3-0.6-3.7,1.3c-0.3,0.7-0.4,1.5-0.4,2.3
	c-0.3,0.2-0.5,0.5-0.7,0.7c-1.4,2-1.2,5.6-0.6,7.8c0.9,3.8,5,6.8,8.6,5.7c0.3,0,0.6-0.2,0.8-0.3c1.9,0.4,3.9-0.3,5.6-2.3
	C35.1,224.7,35.3,220.7,33.9,217.3 M-41.3,225.7c-0.5,0.8-1.2,1.4-1.9,1.8c0.5-0.7,0.9-1.5,1.3-2.5c0.1-0.2,0.2-0.4,0.2-0.6
	c0.3-0.3,0.4-0.6,0.3-1c0,0,0,0,0,0c0.6-0.4,1-1.2,1.1-2l0.1-0.1C-40,222.8-40.4,224.4-41.3,225.7 M-53.2,222.7c0-0.4,0-0.8,0-1.2
	c0.4,1.3,0.9,2.6,1.4,3.8c0.3,0.8,0.7,1.7,1.2,2.4c-0.3-0.2-0.5-0.4-0.7-0.6C-52.5,226-53.1,224.3-53.2,222.7 M-47,220.9
	c-0.1-0.8,0-1.7,0-2.5c0.1,0,0.2,0.1,0.3,0.2c0.1,0,0.1,0.1,0.2,0.1C-46.3,219.4-46.3,220.5-47,220.9 M-38.8,217.3
	c0-0.5-0.3-1.1-0.7-1.4c-0.8-1.3-1.8-2.4-3.1-3.2c-1.7-1.1-3.7-1.7-4.9-0.2c-0.5,0-0.9-0.1-1.4-0.1c-0.3,0-0.5,0-0.8,0.1
	c-1.5-0.6-3-0.6-3.7,1.3c-0.3,0.7-0.4,1.5-0.4,2.3c-0.3,0.2-0.5,0.5-0.7,0.7c-1.4,2-1.2,5.6-0.6,7.8c0.9,3.8,5,6.8,8.6,5.7
	c0.3,0,0.6-0.2,0.8-0.3c1.9,0.4,3.9-0.3,5.6-2.3C-37.6,224.7-37.4,220.7-38.8,217.3"/>
<path class="st0" d="M205,319.3c-4.6,0-8.4-3.8-8.3-8.4c0,0,0,0,0,0v-84.2c0-4.7,3.7-8.4,8.3-8.4c4.6,0,8.3,3.8,8.3,8.4v84.2
	C213.4,315.5,209.6,319.3,205,319.3C205,319.3,205,319.3,205,319.3 M379.9,319.3c-4.6,0-8.4-3.8-8.3-8.4c0,0,0,0,0,0v-84.2
	c0-4.7,3.7-8.4,8.3-8.4c4.6,0,8.3,3.8,8.3,8.4v84.2C388.3,315.5,384.6,319.3,379.9,319.3C379.9,319.3,379.9,319.3,379.9,319.3
	 M163.4,284.1c0,10.1-7.5,18.4-16.7,18.4c-9.2,0-16.7-8.2-16.7-18.4v-13.8c0-10.1,7.5-18.4,16.7-18.4c9.2,0,16.7,8.2,16.7,18.4
	C163.4,270.3,163.4,284.1,163.4,284.1z M146.7,235.1c-6.2,0-12.2,1.8-17.3,5.2c-1.3-3.2-4.3-5.2-7.7-5.2c-4.6,0-8.4,3.8-8.3,8.4
	v84.2c0,4.7,3.7,8.4,8.3,8.4c4.6,0,8.4-3.8,8.3-8.4c0,0,0,0,0,0v-13.3c5,3.2,10.8,4.8,16.7,4.8c18.4,0,33.3-16.2,33.3-36.1v-12
	C180,251.3,165.1,235.1,146.7,235.1z M280,284.1c0,10.1-7.5,18.4-16.7,18.4c-9.2,0-16.7-8.2-16.7-18.4v-13.8
	c0-10.1,7.5-18.4,16.7-18.4c9.2,0,16.7,8.2,16.7,18.4C280,270.3,280,284.1,280,284.1z M263.3,235.1c-18.4,0-33.3,16.2-33.3,36.1v12
	c0,19.9,14.9,36.1,33.3,36.1c18.4,0,33.3-16.2,33.3-36.1v-12C296.6,251.3,281.7,235.1,263.3,235.1z M346.6,302.5
	c-9.2,0-16.7-7.6-16.7-16.8v-33.7h16.7c4.6,0,8.4-3.8,8.3-8.4c0-4.6-3.7-8.4-8.3-8.4H330v-8.4c0-4.6-3.7-8.4-8.3-8.4
	c-4.6,0-8.4,3.8-8.3,8.4c0,0,0,0,0,0v59c0,18.6,14.9,33.7,33.3,33.7c4.6,0,8.4-3.8,8.3-8.4c0,0,0,0,0,0
	C355,306.3,351.2,302.5,346.6,302.5 M463.6,235.8c-4.2-1.8-9.1,0.1-10.9,4.3c0,0,0,0.1,0,0.1L435.4,281l-17.3-40.7
	c-1.8-4.2-6.6-6.2-10.9-4.5c0,0-0.1,0-0.1,0c-4.2,1.9-6.2,6.8-4.4,11.1l23.5,55.5l-2.8,6.6c-2.5,6.1-8.4,10.2-15,10.4
	c-4.6,0.1-8.3,4-8.1,8.6c0.1,4.5,3.8,8.2,8.3,8.2h0.2c13.2-0.3,25-8.5,30-20.7l29.1-68.6C469.8,242.6,467.9,237.7,463.6,235.8"/>
</svg>
