<svg xmlns="http://www.w3.org/2000/svg" xmlns:xlink="http://www.w3.org/1999/xlink" id="Layer_1" x="0" y="0" version="1.1" viewBox="0 0 48 48" xml:space="preserve" style="enable-background:new 0 0 48 48"><style type="text/css">.st0{fill:#ee4c2c}</style><g transform="matrix(2.21262 0 0 2.21262 -39.453867 -1.770085)"><path d="M35,7.2l-1.6,1.6c2.6,2.6,2.6,6.9,0,9.5c-2.6,2.6-6.9,2.6-9.5,0s-2.6-6.9,0-9.5l4.2-4.2L28.7,4V0.8l-6.4,6.4 c-3.5,3.5-3.5,9.1-0.1,12.6c0,0,0,0,0.1,0.1c3.5,3.5,9.1,3.5,12.6,0.1c0,0,0,0,0.1-0.1C38.6,16.3,38.6,10.6,35,7.2z" class="st0"/><circle cx="31.9" cy="5.5" r="1.2" class="st0"/></g></svg>