<svg version="1.1" id="Layer_1" xmlns="http://www.w3.org/2000/svg" x="0" y="0" viewBox="0 0 48 48" xml:space="preserve"><style>.st2{fill:#010101}</style><g id="g3" transform="translate(-120.60861 -220.26017)"><path id="path5" d="M157.4 253.3c5.9-5.9 6.8-14.4 2.2-19.1-4.7-4.7-13.2-3.7-19.1 2.2-5.9 5.9-4.2 17.1-2.2 19.1 1.7 1.6 13.3 3.7 19.1-2.2z" fill="#f89939"/><path id="path7" d="M133.4 244.8c-3.4-3.4-8.4-4-11.1-1.3-2.7 2.7-2.1 7.7 1.3 11.1 3.4 3.4 9.9 2.4 11.1 1.3.9-.9 2.1-7.7-1.3-11.1z" fill="#3499cd"/></g><g id="g9" transform="translate(-120.60861 -220.26017)"><g id="g11"><path id="path13" class="st2" d="M145.1 251.9c-.6.6-1.1 1-1.6 1.2-.5.3-.9.4-1.3.4-.5 0-.9-.2-1.1-.6-.3-.4-.4-.9-.4-1.5 0-.9.2-2 .6-3.3.4-1.3.9-2.5 1.5-3.6l1.7-.6h.1c.1 0 .2.1.3.3.1.2.1.4.1.8 0 .9-.2 1.8-.6 2.6-.4.8-1.1 1.7-1.9 2.7 0 .5-.1.8-.1.9 0 .4.1.7.2.9.1.2.3.3.6.3.2 0 .5-.1.8-.3.3-.2.7-.5 1.2-1.1l-.1.9zm-2.5-2.6c.6-.6 1-1.3 1.4-2.1.3-.8.5-1.4.5-2 0-.2 0-.3-.1-.4 0-.1-.1-.1-.2-.1-.2 0-.4.4-.7 1.2-.3.8-.6 1.9-.9 3.4z"/><path id="path15" class="st2" d="M150.1 251.9c-.6.6-1.1 1-1.5 1.2-.4.3-.9.4-1.5.4s-1.1-.2-1.5-.6c-.4-.4-.6-.9-.6-1.5 0-.9.3-1.8 1-2.5.6-.8 1.4-1.1 2.2-1.1.4 0 .7.1 1 .3.2.2.4.5.4.8 0 .9-1 1.7-2.9 2.2.2.9.6 1.3 1.4 1.3.3 0 .6-.1.8-.2.3-.2.7-.5 1.2-1v.7zm-3.5-1.2c1.1-.3 1.7-.9 1.7-1.8 0-.4-.2-.6-.5-.6s-.6.2-.8.7c-.3.4-.4.9-.4 1.7z"/><path id="path17" class="st2" d="M157.1 251.9c-.7.7-1.2 1.1-1.5 1.3-.3.2-.6.3-.9.3-.7 0-1-.6-1-1.8-.4.6-.8 1.1-1.2 1.4-.4.3-.8.5-1.2.5-.4 0-.7-.2-1-.5s-.4-.8-.4-1.3c0-.7.2-1.3.5-1.9.4-.6.8-1.1 1.4-1.5.6-.4 1.1-.6 1.5-.6.6 0 .9.3 1.2.8l1.4-.7h.4l-.6 1.9c-.3 1-.5 1.6-.5 2 0 .4.1.6.4.6.2 0 .4-.1.6-.3.2-.2.5-.5.9-.8v.6zm-4.8.3c.4 0 .9-.4 1.3-1.1.4-.8.6-1.4.6-2.1 0-.2-.1-.4-.2-.6-.1-.1-.3-.2-.4-.2-.4 0-.9.4-1.3 1.1-.4.8-.6 1.4-.6 2.1 0 .2.1.4.2.6.1.2.2.2.4.2z"/><path id="path19" class="st2" d="M162.1 251.9c-1.1 1.1-2 1.6-2.6 1.6-.3 0-.5-.1-.7-.3-.2-.2-.3-.5-.3-.8 0-.6.3-1.5 1-2.5-.3.2-.7.3-1.1.4-.3.5-.7 1.1-1.4 1.7v-.6c.3-.4.7-.7.9-1.2-.4-.2-.6-.4-.6-.7 0-.3.1-.7.3-1.1.2-.4.6-.6 1-.6.3 0 .5.2.5.5s-.1.7-.3 1.2c.7-.1 1.4-.6 1.9-1.7h.6l-.6 1.7c-.3.7-.4 1.2-.5 1.5-.1.3-.1.5-.1.7 0 .2 0 .3.1.4.1.1.2.2.3.2.2 0 .3-.1.5-.2.1-.1.5-.4 1-.9l.1.7z"/><path id="path21" class="st2" d="M168.6 251.9c-1 1.1-1.9 1.6-2.6 1.6-.3 0-.5-.1-.7-.3-.2-.2-.3-.5-.3-.8 0-.5.2-1.2.6-2.2.2-.5.3-.9.3-1 0-.1-.1-.2-.2-.2s-.1 0-.2.1-.2.1-.3.3l-.4.4c-.1.1-.2.3-.4.4l-.4.4c-.2.2-.3.4-.3.6-.1.4-.1.7-.1 1v.9l-1.5.3c0-.6-.1-1-.1-1.3 0-.7.1-1.4.2-2 .2-.6.4-1.4.8-2.1l1.6-.3c-.3.9-.6 1.6-.7 2.2.7-.8 1.3-1.4 1.7-1.7.4-.3.8-.5 1.1-.5.2 0 .4.1.6.3.2.2.2.4.2.6 0 .4-.2 1.1-.6 2.1-.3.7-.4 1.1-.4 1.3 0 .3.1.4.3.4.3 0 .8-.4 1.6-1.3v.8z"/></g></g><text id="text25" transform="translate(26.54 25.2403)" font-size="3.9947" font-family="HelveticaNeue-BlackExt" fill="#fff">scikit</text></svg>