<?xml version="1.0" encoding="utf-8"?>
<!-- Generator: Adobe Illustrator 24.3.0, SVG Export Plug-In . SVG Version: 6.00 Build 0)  -->
<svg version="1.1" id="Layer_1" xmlns="http://www.w3.org/2000/svg" xmlns:xlink="http://www.w3.org/1999/xlink" x="0px" y="0px"
	 viewBox="0 0 48 48" style="enable-background:new 0 0 48 48;" xml:space="preserve">
<style type="text/css">
	.st0{fill:#F6BD3A;}
	.st1{fill:#EB8C23;}
	.st2{fill:#E35A2B;}
</style>
<g>
	<path class="st0" d="M20.8,25.9l6.5-3.8l6.4,3.8l-6.4,3.7L20.8,25.9L20.8,25.9z M1.3,14.7L27.3,0l19.3,10.9L40.2,22l-12.9-7.3
		l-19.4,11L1.3,14.7z"/>
	<path class="st1" d="M20.8,40.6v-7.4l6.4-3.7l6.5-3.7v7.4l-6.4,3.7v7.4L20.8,48V40.6z M20.8,25.9l-6.5-3.7l-6.5,3.6v-7.3L27.3,7.3
		V22L20.8,25.9z M40.1,18.4v-3.7l6.4-3.8l0.1,7.4L40.1,22L40.1,18.4z"/>
	<path class="st2" d="M14.3,44.1v-22l6.4-3.6l0.1,7.3l6.5,3.6v7.4l-6.5-3.5V48L14.3,44.1z M4.6,23.8l-3.2-2v-7.2l6.4,3.7v7.4
		L4.6,23.8z M27.3,14.7V7.3l12.8,7.3l0.1,7.4L27.3,14.7L27.3,14.7z"/>
</g>
</svg>
