<?xml version="1.0" encoding="utf-8"?>
<!-- Generator: Adobe Illustrator 24.3.0, SVG Export Plug-In . SVG Version: 6.00 Build 0)  -->
<svg version="1.1" id="Layer_1" xmlns="http://www.w3.org/2000/svg" xmlns:xlink="http://www.w3.org/1999/xlink" x="0px" y="0px"
	 viewBox="0 0 48 48" style="enable-background:new 0 0 48 48;" xml:space="preserve">
<style type="text/css">
	.st0{fill:#252F3E;}
	.st1{fill-rule:evenodd;clip-rule:evenodd;fill:#FF9900;}
</style>
<g>
	<path class="st0" d="M13.5,20.1c0,0.6,0.1,1.1,0.2,1.4c0.1,0.4,0.3,0.7,0.5,1.1c0.1,0.1,0.1,0.3,0.1,0.4c0,0.2-0.1,0.3-0.3,0.5
		l-1,0.7c-0.1,0.1-0.3,0.1-0.4,0.1c-0.2,0-0.3-0.1-0.5-0.2c-0.2-0.2-0.4-0.5-0.6-0.8c-0.2-0.3-0.3-0.6-0.5-0.9
		c-1.2,1.5-2.8,2.2-4.7,2.2c-1.3,0-2.4-0.4-3.2-1.1C2.4,22.7,2,21.7,2,20.4c0-1.4,0.5-2.5,1.5-3.3c1-0.8,2.3-1.2,3.9-1.2
		c0.5,0,1.1,0,1.7,0.1c0.6,0.1,1.2,0.2,1.8,0.4v-1.2c0-1.2-0.3-2.1-0.8-2.6c-0.5-0.5-1.4-0.7-2.6-0.7c-0.6,0-1.1,0.1-1.7,0.2
		c-0.6,0.1-1.2,0.3-1.7,0.5c-0.3,0.1-0.4,0.2-0.6,0.2c-0.1,0-0.2,0-0.3,0c-0.2,0-0.3-0.2-0.3-0.5v-0.8c0-0.3,0-0.4,0.1-0.6
		c0.1-0.1,0.2-0.2,0.4-0.3c0.6-0.3,1.2-0.5,2-0.7C6.3,9.8,7.1,9.7,8,9.7c1.9,0,3.3,0.4,4.2,1.3c0.9,0.9,1.3,2.2,1.3,3.9L13.5,20.1
		L13.5,20.1z M7,22.5c0.5,0,1.1-0.1,1.6-0.3c0.6-0.2,1.1-0.5,1.5-1c0.3-0.3,0.4-0.6,0.5-1c0.1-0.4,0.2-0.8,0.2-1.4v-0.7
		c-0.5-0.1-1-0.2-1.5-0.3c-0.5-0.1-1-0.1-1.5-0.1c-1.1,0-1.9,0.2-2.4,0.6s-0.8,1-0.8,1.8c0,0.8,0.2,1.3,0.6,1.7
		C5.8,22.3,6.3,22.5,7,22.5z M19.9,24.2c-0.3,0-0.5,0-0.6-0.2c-0.1-0.1-0.2-0.3-0.3-0.6l-3.8-12.3c-0.1-0.3-0.1-0.5-0.1-0.6
		c0-0.3,0.1-0.4,0.4-0.4H17c0.3,0,0.5,0,0.6,0.2c0.1,0.1,0.2,0.3,0.3,0.6l2.7,10.6l2.5-10.6c0.1-0.3,0.2-0.5,0.3-0.6
		c0.1-0.1,0.4-0.2,0.6-0.2h1.3c0.3,0,0.5,0,0.6,0.2c0.1,0.1,0.2,0.3,0.3,0.6l2.5,10.7l2.8-10.7c0.1-0.3,0.2-0.5,0.3-0.6
		c0.1-0.1,0.3-0.2,0.6-0.2H34c0.3,0,0.4,0.1,0.4,0.4c0,0.1,0,0.2,0,0.3s0,0.2-0.1,0.4l-3.8,12.3c-0.1,0.3-0.2,0.5-0.3,0.6
		s-0.3,0.2-0.6,0.2h-1.4c-0.3,0-0.5,0-0.6-0.2s-0.2-0.3-0.3-0.6l-2.5-10.3l-2.5,10.3c-0.1,0.3-0.2,0.5-0.3,0.6
		c-0.1,0.1-0.4,0.2-0.6,0.2H19.9z M40.4,24.7c-0.8,0-1.7-0.1-2.5-0.3c-0.8-0.2-1.4-0.4-1.8-0.6c-0.3-0.1-0.4-0.3-0.5-0.4
		c-0.1-0.1-0.1-0.3-0.1-0.4V22c0-0.3,0.1-0.5,0.4-0.5c0.1,0,0.2,0,0.3,0c0.1,0,0.2,0.1,0.4,0.2c0.5,0.2,1.1,0.4,1.8,0.6
		c0.6,0.1,1.3,0.2,1.9,0.2c1,0,1.8-0.2,2.3-0.5c0.5-0.4,0.8-0.9,0.8-1.5c0-0.4-0.1-0.8-0.4-1.1c-0.3-0.3-0.8-0.6-1.6-0.8L39,17.8
		c-1.2-0.4-2-0.9-2.6-1.6c-0.5-0.7-0.8-1.5-0.8-2.3c0-0.7,0.1-1.3,0.4-1.8c0.3-0.5,0.7-1,1.1-1.3c0.5-0.4,1-0.6,1.7-0.8
		c0.6-0.2,1.3-0.3,2-0.3c0.4,0,0.7,0,1.1,0.1c0.4,0,0.7,0.1,1,0.2c0.3,0.1,0.6,0.2,0.9,0.3c0.3,0.1,0.5,0.2,0.7,0.3
		c0.2,0.1,0.4,0.3,0.5,0.4c0.1,0.1,0.1,0.3,0.1,0.5v0.8c0,0.3-0.1,0.5-0.4,0.5c-0.1,0-0.3-0.1-0.6-0.2c-0.9-0.4-1.9-0.6-3.1-0.6
		c-0.9,0-1.6,0.1-2.1,0.4c-0.5,0.3-0.8,0.8-0.8,1.4c0,0.4,0.2,0.8,0.5,1.1c0.3,0.3,0.9,0.6,1.8,0.9l2.3,0.7c1.1,0.4,2,0.9,2.5,1.5
		c0.5,0.7,0.7,1.4,0.7,2.2c0,0.7-0.1,1.3-0.4,1.9c-0.3,0.5-0.7,1-1.2,1.4c-0.5,0.4-1.1,0.7-1.8,0.9C41.9,24.5,41.2,24.7,40.4,24.7z"
		/>
	<g>
		<path class="st1" d="M43.4,32.4c-5.3,3.9-12.9,5.9-19.4,5.9c-9.2,0-17.5-3.4-23.7-9.1c-0.5-0.4,0-1.1,0.5-0.7
			c6.8,3.9,15.1,6.3,23.8,6.3c5.8,0,12.2-1.2,18.1-3.7C43.5,30.8,44.3,31.8,43.4,32.4z"/>
		<path class="st1" d="M45.6,29.9c-0.7-0.9-4.4-0.4-6.1-0.2c-0.5,0.1-0.6-0.4-0.1-0.7c3-2.1,7.9-1.5,8.5-0.8c0.6,0.7-0.2,5.7-3,8
			c-0.4,0.4-0.8,0.2-0.7-0.3C44.8,34.3,46.3,30.8,45.6,29.9z"/>
	</g>
</g>
</svg>
