<?xml version="1.0" encoding="utf-8"?>
<!-- Generator: Adobe Illustrator 24.3.0, SVG Export Plug-In . SVG Version: 6.00 Build 0)  -->
<svg version="1.1" id="Layer_1" xmlns="http://www.w3.org/2000/svg" xmlns:xlink="http://www.w3.org/1999/xlink" x="0px" y="0px"
	 viewBox="0 0 48 48" style="enable-background:new 0 0 48 48;" xml:space="preserve">
<style type="text/css">
	.st0{fill-rule:evenodd;clip-rule:evenodd;fill:#1B1B1F;}
</style>
<g>
	<path class="st0" d="M42.1,9.8l-15.2-9c-1.8-1.1-4-1.1-5.8,0L6,9.8C4.1,10.9,3,12.9,3,15v18c0,2.1,1.1,4.1,2.9,5.2l15.2,9
		c1.8,1.1,4,1.1,5.8,0l15.2-9c1.8-1.1,2.9-3.1,2.9-5.2V15C45,12.9,43.9,10.9,42.1,9.8L42.1,9.8z M30.4,37.9v1.3
		c0,0.2-0.1,0.3-0.2,0.4L29.4,40c-0.1,0.1-0.2,0-0.2-0.2v-1.3c-0.5,0.3-1.2,0.3-1.7,0.2c-0.1-0.1-0.1-0.2-0.1-0.3l0.3-1.2
		c0-0.1,0.1-0.2,0.2-0.3c0,0,0,0,0.1-0.1c0,0,0.1,0,0.1,0c0.5,0.1,1.1,0.1,1.6-0.2c0.7-0.3,1.2-1,1.2-1.8c0-0.7-0.4-0.9-1.2-0.9
		c-1.1,0-2.1-0.2-2.1-1.8c0-1.4,0.7-2.7,1.8-3.6v-1.3c0-0.2,0.1-0.3,0.2-0.4l0.7-0.5c0.1-0.1,0.2,0,0.2,0.2v1.3
		c0.5-0.2,1-0.3,1.5-0.2c0.1,0.1,0.1,0.2,0.1,0.3l-0.3,1.2c0,0.1-0.1,0.2-0.1,0.2c0,0,0,0-0.1,0.1c0,0-0.1,0-0.1,0
		c-0.5-0.1-1,0-1.4,0.2c-0.6,0.3-1,0.9-1.1,1.6c0,0.6,0.3,0.8,1.4,0.8c1.4,0,2,0.6,2,2C32.2,35.6,31.5,36.9,30.4,37.9L30.4,37.9z
		 M38.3,35.7c0,0.1,0,0.2-0.1,0.3l-3.8,2.3c0,0-0.1,0-0.1,0c0,0-0.1-0.1,0-0.1v-1c0-0.1,0.1-0.2,0.2-0.2l3.8-2.3c0,0,0.1,0,0.1,0
		c0,0,0.1,0.1,0,0.1L38.3,35.7L38.3,35.7z M40.9,13.6l-14.3,8.9c-1.8,1.1-3.1,2.2-3.1,4.4v17.7c0,1.3,0.5,2.1,1.3,2.4
		c-0.3,0-0.5,0.1-0.8,0.1c-0.8,0-1.7-0.2-2.4-0.7l-15.2-9C5,36.4,4.1,34.7,4.1,33V15c0-1.8,0.9-3.4,2.4-4.3l15.2-9
		c1.5-0.9,3.3-0.9,4.8,0l15.2,9c1.2,0.8,2.1,2,2.3,3.4C43.4,13.1,42.3,12.8,40.9,13.6L40.9,13.6L40.9,13.6z"/>
</g>
</svg>
