<?xml version="1.0" encoding="utf-8"?>
<!-- Generator: Adobe Illustrator 24.3.0, SVG Export Plug-In . SVG Version: 6.00 Build 0)  -->
<svg version="1.1" id="Layer_1" xmlns="http://www.w3.org/2000/svg" xmlns:xlink="http://www.w3.org/1999/xlink" x="0px" y="0px"
	 viewBox="0 0 48 48" style="enable-background:new 0 0 48 48;" xml:space="preserve">
<style type="text/css">
	.st0{fill:#161616;}
</style>
<g transform="matrix(2.791226 0 0 2.791226 71.368826 91.588681)">
	<circle class="st0" cx="-17.1" cy="-24.2" r="2"/>
	<path class="st0" d="M-17.1-32.8c-4,0-7.4,2.7-8.3,6.4c0,0,0,0.1,0,0.1c0,0.2,0.2,0.4,0.4,0.4h3.5c0.2,0,0.3-0.1,0.4-0.2
		c0,0,0,0,0,0c0.7-1.5,2.3-2.6,4.1-2.6c2.5,0,4.5,2,4.5,4.5s-2,4.5-4.5,4.5c-1.8,0-3.4-1.1-4.1-2.6c0,0,0,0,0,0
		c-0.1-0.1-0.2-0.2-0.4-0.2H-25c-0.2,0-0.4,0.2-0.4,0.4c0,0,0,0.1,0,0.1c1,3.7,4.3,6.4,8.3,6.4c4.7,0,8.6-3.8,8.6-8.6
		S-12.3-32.8-17.1-32.8L-17.1-32.8z"/>
</g>
</svg>
