<svg xmlns="http://www.w3.org/2000/svg" xmlns:xlink="http://www.w3.org/1999/xlink" id="Layer_1" x="0" y="0" version="1.1" viewBox="0 0 48 48" xml:space="preserve" style="enable-background:new 0 0 48 48"><style type="text/css">.st0{fill:#03a9f4}.st1{fill:#0288d1}.st2{fill:#81d4fa}.st3{fill:#fff}.st4{fill:#37474f}.st5{fill:#01579b}</style><path d="M41.5,19.6c0.4-1.9-0.1-4.1-2.7-6.5c-4.3,3.9-3,7.9-1.6,9.8c0,0-0.2,1.1-4.4,1.1S0,24,0,24s-2,17.5,17.5,17.5	c17,0,21.8-13.1,22.7-16.4C40.6,25,41,25,41.5,25c2.3,0,5.4-1.3,6.5-6C44.9,18,42.9,18.5,41.5,19.6z" class="st0"/><path d="M0.2,28.3C1,33.5,4.3,41.4,17.5,41.4c13.3,0,19.1-8,21.5-13.1H0.2z" class="st1"/><path d="M19.4,41.3c-1-0.4-5.5-1.2-6.3-7.6c-4.6,2-8.7,1.5-10.4,1.1c2.4,3.5,6.7,6.5,14.8,6.5	C18.1,41.4,18.8,41.4,19.4,41.3z" class="st2"/><path d="M17.5,30.5c-1.2,0-2.2,1-2.2,2.2c0,1.2,1,2.2,2.2,2.2s2.2-1,2.2-2.2C19.6,31.5,18.7,30.5,17.5,30.5z" class="st3"/><path d="M14.1,34.4c0.2,0.6,0,1.3-0.6,1.4c-3.6,1.1-6.7,1.2-9.1,1.2c-0.7-0.7-1.3-1.4-1.8-2.1c2.8,0,7.3-0.1,10-1.1	C13.2,33.7,13.8,33.9,14.1,34.4z M0,27.2c0,0,2,0.1,3.3-1.1c2,1.8,6.5,1.2,7.6,0c1.2,1.8,7.6,1.5,8.7,0c1.4,1.6,7.2,1.9,8.7,0	c0.5,1.6,7.4,2,8.7,0c1.2,1.2,5.5,2.1,8,0c0.6,1.3,2.9,1.1,2.9,1.1v1.1H0 M16.4,32.7c0,0.6,0.5,1.1,1.1,1.1s1.1-0.5,1.1-1.1	c0-0.6-0.5-1.1-1.1-1.1S16.4,32.1,16.4,32.7z" class="st4"/><path d="M9.8,24H4.4v-5.5h5.5V24z M20.7,18.5h-5.5V24h5.5V18.5z M31.6,18.5h-5.5V24h5.5V18.5z M15.3,13H9.8v5.5h5.5V13z M26.2,13h-5.5v5.5h5.5V13z" class="st5"/><path d="M15.3,24H9.8v-5.5h5.5V24z M26.2,18.5h-5.5V24h5.5V18.5z M26.2,7.6h-5.5V13h5.5V7.6z M20.7,13h-5.5v5.5h5.5V13z" class="st1"/></svg>