<?xml version="1.0" encoding="utf-8"?>
<!-- Generator: Adobe Illustrator 24.3.0, SVG Export Plug-In . SVG Version: 6.00 Build 0)  -->
<svg version="1.1" id="Layer_1" xmlns="http://www.w3.org/2000/svg" xmlns:xlink="http://www.w3.org/1999/xlink" x="0px" y="0px"
	 viewBox="0 0 48 48" style="enable-background:new 0 0 48 48;" xml:space="preserve">
<style type="text/css">
	.st0{fill:#EA4335;}
	.st1{fill:#4285F4;}
	.st2{fill:#34A853;}
	.st3{fill:#FBBC05;}
</style>
<g>
	<path class="st0" d="M30.5,15.4l1.5,0l4.2-4.2l0.2-1.8c-3.3-3-7.7-4.8-12.5-4.8c-8.7,0-16,5.9-18.1,13.9c0.5-0.3,1.4-0.1,1.4-0.1
		l8.4-1.4c0,0,0.4-0.7,0.6-0.7c2-2.2,4.8-3.4,7.7-3.4C26.5,13,28.8,13.9,30.5,15.4L30.5,15.4z"/>
	<path class="st1" d="M42.1,18.6c-1-3.6-3-6.7-5.7-9.1l-5.9,5.9c2.4,1.9,3.9,4.8,3.9,8.1v1c2.9,0,5.2,2.3,5.2,5.2
		c0,2.9-2.3,5.2-5.2,5.2H24L23,36v6.3l1,1h10.4c7.5,0,13.6-6.1,13.6-13.6C48,25.1,45.7,21,42.1,18.6L42.1,18.6z"/>
	<path class="st2" d="M13.6,43.3H24V35H13.6c-0.7,0-1.5-0.2-2.1-0.5l-1.5,0.5l-4.2,4.2l-0.4,1.4C7.7,42.3,10.6,43.3,13.6,43.3
		L13.6,43.3z"/>
	<path class="st3" d="M13.6,16.2C6.1,16.2,0,22.3,0,29.7c0,4.4,2.1,8.3,5.4,10.8l6-6c-1.9-0.8-3.1-2.7-3.1-4.8
		c0-2.9,2.3-5.2,5.2-5.2c2.1,0,3.9,1.3,4.8,3.1l6-6C21.9,18.3,18,16.2,13.6,16.2L13.6,16.2z"/>
</g>
</svg>
