<?xml version="1.0" encoding="utf-8"?>
<!-- Generator: Adobe Illustrator 24.3.0, SVG Export Plug-In . SVG Version: 6.00 Build 0)  -->
<svg version="1.1" id="Layer_1" xmlns="http://www.w3.org/2000/svg" xmlns:xlink="http://www.w3.org/1999/xlink" x="0px" y="0px"
	 viewBox="0 0 48 48" style="enable-background:new 0 0 48 48;" xml:space="preserve">
<style type="text/css">
	.st0{fill-rule:evenodd;clip-rule:evenodd;fill:#D33833;}
	.st1{fill:#EF3D3A;}
	.st2{fill:#231F20;}
	.st3{fill-rule:evenodd;clip-rule:evenodd;fill:#F0D6B7;}
	.st4{fill-rule:evenodd;clip-rule:evenodd;fill:#335061;}
	.st5{fill-rule:evenodd;clip-rule:evenodd;fill:#6D6B6D;}
	.st6{fill-rule:evenodd;clip-rule:evenodd;fill:#DCD9D8;}
	.st7{fill-rule:evenodd;clip-rule:evenodd;fill:#F7E4CD;}
	.st8{fill:#F7E4CD;}
	.st9{fill-rule:evenodd;clip-rule:evenodd;fill:#49728B;}
	.st10{fill-rule:evenodd;clip-rule:evenodd;fill:#FFFFFF;}
	.st11{fill:#FFFFFF;}
	.st12{fill:none;stroke:#D33833;stroke-width:0.3855;stroke-miterlimit:6;}
	.st13{fill-rule:evenodd;clip-rule:evenodd;fill:#EF3D3A;}
	.st14{fill-rule:evenodd;clip-rule:evenodd;fill:#231F20;}
	.st15{fill-rule:evenodd;clip-rule:evenodd;fill:#81B0C4;}
	.st16{fill-rule:evenodd;clip-rule:evenodd;fill:#1D1919;}
</style>
<g>
	<path class="st0" d="M40.8,23.1c0,9.5-7.5,17.2-16.8,17.2S7.2,32.6,7.2,23.1S14.7,5.9,24,5.9S40.8,13.6,40.8,23.1"/>
	<path class="st1" d="M7.9,27.4c0,0-1.2-18,15.3-18.5L22,7l-9,3l-2.5,3l-2.2,4.3l-1.3,5l0.4,3.3"/>
	<path class="st2" d="M12.5,11.4c-3,3-4.8,7.2-4.8,11.8S9.5,32,12.5,35s7,4.9,11.5,4.9S32.6,38,35.5,35s4.8-7.2,4.8-11.8
		s-1.8-8.8-4.8-11.8s-7-4.9-11.5-4.9S15.4,8.4,12.5,11.4z M11.7,35.7c-3.1-3.2-5.1-7.6-5.1-12.5s1.9-9.3,5.1-12.5S19.2,5.5,24,5.5
		c4.8,0,9.1,2,12.3,5.2c3.1,3.2,5.1,7.6,5.1,12.5s-1.9,9.3-5.1,12.5s-7.5,5.2-12.3,5.2S14.9,38.9,11.7,35.7"/>
	<g>
		<path class="st3" d="M31.1,23.2l-2.6,0.4L25.1,24l-2.2,0.1L20.6,24L19,23.5l-1.5-1.6l-1.2-3.3l-0.3-0.7l-1.5-0.5l-0.9-1.5L13,13.8
			l0.7-1.9l1.7-0.6l1.3,0.6l0.6,1.4l0.8-0.1l0.3-0.3l-0.3-1.5l-0.1-1.9l0.4-2.6l0-1.5l1.2-1.9l2.1-1.5l3.6-1.6l4,0.6l3.5,2.5
			l1.6,2.5l1,1.9l0.3,4.6l-0.8,4l-1.4,3.5L32,22.2"/>
		<path class="st4" d="M28.9,34.3l-9.2,0.4v1.5l0.8,5.4l-0.4,0.5l-6.4-2.2l-0.5-0.8l-0.6-7.2l-1.5-4.4l-0.3-1l5.1-3.5l1.6-0.6
			l1.4,1.7l1.2,1.1l1.4,0.4l0.6,0.2l0.8,3.3l0.6,0.7l1.5-0.5l-1,2l5.6,2.6L28.9,34.3"/>
		<path class="st5" d="M13.7,11.9l1.7-0.6l1.3,0.6l0.6,1.4l0.8-0.1l0.2-0.8L17.9,11l0.4-3.5L18,5.6l1.2-1.3l2.5-2l-0.7-1L17.4,3
			L16,4.2L15.1,6l-1.3,1.7l-0.4,2.1L13.7,11.9"/>
		<path class="st6" d="M16.3,5.9c0,0,1-2.4,4.8-3.5s0.2-0.8,0.2-0.8l-4.2,1.6l-1.6,1.6L14.9,6L16.3,5.9 M14.4,11.5
			c0,0-1.3-4.5,3.8-5.1L18,5.6l-3.5,0.8l-1,3.3l0.3,2.2L14.4,11.5"/>
		<path class="st7" d="M16.5,17.5l0.8-0.8c0,0.2,0.2,0.4,0.4,0.5c0.1,0.5,0.3,4.5,3,6.7c0.3,0.2-2.1-0.3-2.1-0.3l-2.1-3.2
			 M28.2,16.2c0,0,0.1-1.9,0.7-1.8c0.5,0.1,0.5,0.7,0.5,0.7S28.2,15.9,28.2,16.2"/>
	</g>
	<path class="st8" d="M33.6,9.1c0,0-1.1,0.2-1.2,1.2c-0.1,0.9,1.2,0.2,1.3,0.1 M25.8,9.2c0,0-1.4,0.2-1.4,1.1c0,0.9,1.6,0.8,2.1,0.4
		"/>
	<g>
		<path class="st7" d="M17.1,13.4c0,0-2.4-1.5-2.7-0.1s-0.8,2.4,0.4,3.9L14,16.9l-0.8-2L12.9,13l1.5-1.5l1.7,0.1l1,0.8L17.1,13.4
			 M18.3,9.3c0,0,1.1-5.6,6.6-6.8c4.5-0.9,6.9,0.2,7.8,1.2c0,0-4-4.8-7.9-3.3s-6.7,4.2-6.6,5.9L18.3,9.3 M33.1,4.4
			c0,0-1.9-0.1-1.9,1.6c0,0.2,0.1,0.4,0.1,0.5c0,0,1.5-1.7,2.4-0.8 M25,6.7c0,0-0.3-2.6-2.5-1.1c-1.4,1-1.3,2.3-1,2.6
			c0.3,0.2,0.2,0.8,0.4,0.4C22,8.3,22,7.1,22.7,6.8S24.5,6.1,25,6.7"/>
		<path class="st9" d="M19,24.1l-6,2.7c0,0,2.5,9.9,1.2,13l-0.9-0.3l-0.1-3.8l-1.7-7.2l-0.7-2l6.3-4.2L19,24.1 M19.6,29.6l0.9,1v3.8
			h-1l-0.1-3c0-0.3,0.1-1.5,0.1-1.5 M19.6,35l-2.9,0.1l0.8,0.6l2.1,0.3"/>
		<g>
			<path class="st4" d="M29.5,34.4l2.4-0.1l0.6,5.9L30,40.5L29.5,34.4"/>
			<path class="st4" d="M30.1,34.4l3.6-0.2l1.5-3.9c0-0.2,1.3-5.4,1.3-5.4l-2.9-3L33,21.4l-1.5,1.5v6L30.1,34.4"/>
		</g>
		<path class="st9" d="M31.7,33.9l-2.2,0.5l0.3,1.8c0.8,0.4,2.2-0.6,2.2-0.6 M31.8,22.7l4.5,3.3l0.1-1.5L33,21.4L31.8,22.7"/>
		<path class="st10" d="M21.8,47l-1.3-5.4l-0.7-4l-0.1-3l6-0.3h3.7l-0.3,6.8l0.6,5.2l-0.1,1l-4.9,0.4L21.8,47"/>
		<path class="st6" d="M28.6,34.3c0,0-0.3,6.7,0.6,11.4c0,0-1.9,1.2-4.7,1.5l5.4-0.2l0.6-0.4l-0.8-10.5l-0.2-2.2"/>
		<path class="st10" d="M32.5,39.7L35,39l4.7-0.3l0.7-2.2l-1.3-3.8l-1.5-0.2l-2.1,0.6l-2,1l-1-0.2l-0.8,0.3"/>
		<path class="st6" d="M32.5,38.4c0,0,1.7-0.8,1.9-0.7l-0.7-3.5l0.8-0.3l0.6,3.7l3.9,0.2c0,0,0.8-1.5,0.6-3l0.7,2.1l0.1,1.2l-1,1.5
			l-1.2,0.3l-1.9-0.1l-0.6-0.8l-2.2,0.3l-0.7,0.3"/>
	</g>
	<path class="st11" d="M30,33.9l-1.4-3.6l-1.5-2.1c0,0,0.3-0.9,0.8-0.9h1.5l1.4,0.5l-0.1,2.4L30,33.9"/>
	<path class="st6" d="M30.3,32.7c0,0-1.8-3.5-1.8-4c0,0,0.3-0.8,0.8-0.6c0.4,0.2,1.4,0.7,1.4,0.7v-1.2l-2.2-0.4L27,27.3l2.5,5.9
		l0.5,0.1"/>
	<path class="st11" d="M22.4,24.2L20.6,24L19,23.5v0.6l0.8,0.9l2.5,1.2"/>
	<g>
		<path class="st6" d="M19.5,24.4c0,0,2,0.8,2.6,0.6l0.1,0.8l-1.8-0.4l-1.1-0.8L19.5,24.4"/>
		<path class="st0" d="M32.5,27.5c-1.1,0-2.1-0.2-2.9-0.4c0.1-0.4-0.1-0.7,0-1c0.2-0.2,0.6-0.2,1-0.2c-0.3-0.2-0.8-0.2-1.1-0.1
			c0-0.2-0.1-0.4-0.2-0.6c0.6-0.2,2.1-1.7,2.9-1.2c0.4,0.2,0.6,1.5,0.6,2.1C32.8,26.7,32.7,27.2,32.5,27.5"/>
	</g>
	<path class="st12" d="M32.5,27.5c-1.1,0-2.1-0.2-2.9-0.4c0.1-0.4-0.1-0.7,0-1c0.2-0.2,0.6-0.2,1-0.2c-0.3-0.2-0.8-0.2-1.1-0.1
		c0-0.2-0.1-0.4-0.2-0.6c0.6-0.2,2.1-1.7,2.9-1.2c0.4,0.2,0.6,1.5,0.6,2.1C32.8,26.7,32.7,27.2,32.5,27.5z"/>
	<path class="st0" d="M27.3,25.7l0,0.2c-0.3,0.2-0.9,0.2-1.3,0.4c0.5,0,1,0.2,1.4,0.3l0,0.6c-0.6,0.4-1.2,1.1-1.9,1.5
		c-0.3,0.2-1.6,0.7-1.9,0.6c-0.2,0-0.2-0.3-0.3-0.6c-0.2-0.5-0.6-1.4-0.6-2.1c0-1-0.1-2.7,0.9-2.5c0.9,0.2,1.7,0.5,2.5,0.9
		C26.5,25.4,26.7,25.7,27.3,25.7"/>
	<path class="st12" d="M27.3,25.7l0,0.2c-0.3,0.2-0.9,0.2-1.3,0.4c0.5,0,1,0.2,1.4,0.3l0,0.6c-0.6,0.4-1.2,1.1-1.9,1.5
		c-0.3,0.2-1.6,0.7-1.9,0.6c-0.2,0-0.2-0.3-0.3-0.6c-0.2-0.5-0.6-1.4-0.6-2.1c0-1-0.1-2.7,0.9-2.5c0.9,0.2,1.7,0.5,2.5,0.9
		C26.5,25.4,26.7,25.7,27.3,25.7L27.3,25.7z"/>
	<path class="st0" d="M27.9,26.9c-0.1-0.5-0.2-0.7-0.2-1.2C29.2,24.8,29.5,27.4,27.9,26.9"/>
	<path class="st12" d="M27.9,26.9c-0.1-0.5-0.2-0.7-0.2-1.2C29.2,24.8,29.5,27.4,27.9,26.9z"/>
	<path class="st13" d="M30,27.3c0,0-0.4-0.6-0.1-0.8c0.3-0.2,0.6,0,0.8-0.3c0.2-0.3,0-0.5,0.1-0.9s0.4-0.4,0.7-0.5
		c0.3-0.1,1.2-0.2,1.3,0.1l-0.4-1.2l-0.8-0.3l-2.4,1.4l-0.1,0.7V27 M23.3,29.4l-0.2-3c-0.1-1.5,0.4-1.2,1.7-1.2
		c0.2,0,1.2,0.2,1.3,0.4c0.3,0.7-0.6,0.6,0.4,1.1c0.8,0.5,2.3-0.3,2-1.3c-0.2-0.2-1-0.1-1.3-0.2l-1.5-0.8c-0.6-0.3-2.1-0.8-2.8-0.4
		c-1.7,1.2,0.1,4.1,0.7,5.3"/>
	<path class="st14" d="M25,6.7c-1.7-0.4-2.6,0.7-3.1,1.9c-0.5-0.1-0.3-0.8-0.1-1.1c0.3-0.9,1.6-2,2.6-1.9C24.7,5.8,25.3,6.2,25,6.7
		 M33.5,8.7L33.5,8.7c0.5,0.8,0.8,1.7,1.3,2.4c-0.3,0.8-2.5,1.5-2.5,0.1c0.5-0.2,1.3,0,1.7-0.3C33.8,10.2,33.5,9.6,33.5,8.7
		 M25.9,8.7c0.4,0.7,0.5,1.4,1,1.9c0.2,0.2,0.7,0.5,0.5,1.2c-0.2,0.3-0.4,0.4-0.7,0.6c-0.8,0.2-2.8,0.1-2.1-1c0.7,0,1.6,0.4,2.1-0.1
		C26.4,10.7,25.6,9.5,25.9,8.7 M33.2,15.7c-1.3,0.8-2.7,1.7-4.7,1.5c-0.4-0.4-0.6-1.2-0.2-1.8c0.2,0.4,0.1,1.1,0.7,1.2
		c1.2,0.2,2.5-0.7,3.4-1c0.5-0.9,0-1.2-0.5-1.8c-1-1.2-2.2-2.6-2.2-4.3c0.4-0.3,0.4,0.4,0.5,0.6c0.5,1.2,1.8,2.7,2.7,3.7
		c0.2,0.2,0.6,0.5,0.6,0.6C33.6,14.8,33.2,15.4,33.2,15.7 M16.7,14.9c-0.4-0.2-0.5-1.2-0.9-1.2c-0.7,0-0.5,1.3-0.5,2.1
		c-0.5-0.4-0.5-1.7-0.2-2.3c-0.4-0.2-0.6,0.2-0.8,0.3C14.5,11.7,17.1,12.8,16.7,14.9 M34,16.5c-0.6,1.1-1.4,2.3-3.1,2.4
		c0-0.4-0.1-0.9,0-1.1C32.2,17.6,33,17,34,16.5 M25.8,17.2c1.1,0.6,3.1,0.6,4.6,0.6c0.1,0.3,0.1,0.7,0.1,1.1
		C28.5,19.1,26.3,18.6,25.8,17.2 M25.6,18.3c0.8,1.9,3.4,1.7,5.5,1.6c-0.1,0.2-0.3,0.5-0.6,0.6c-0.7,0.3-2.6,0.5-3.6,0
		c-0.6-0.3-1-1.1-1.4-1.5C25.5,18.9,24.6,18.3,25.6,18.3"/>
	<path class="st15" d="M33.1,28.8l-2.8,4.4c0.4-1.3,0.6-3.5,0.7-5.1C31.9,27.7,32.7,28.2,33.1,28.8"/>
	<path class="st14" d="M37.9,34.3c-1,0.2-1.7,1.2-2.7,1.1C35.8,34.6,36.7,34.3,37.9,34.3 M38.3,35.8c-0.8,0.1-1.8,0.2-2.6,0.1
		C36.1,35.4,37.6,35.6,38.3,35.8 M38.6,37.1c-0.9,0-2,0-2.9-0.1C36.2,36.5,38,36.9,38.6,37.1"/>
	<path class="st6" d="M31.4,40.8c0.1,1.1,0.6,2.3,0.5,3.5c-0.5,0.2-0.8,0.3-1.5,0.3L30.3,41C30.6,41,31.1,40.7,31.4,40.8"/>
	<path class="st3" d="M29.9,24c-0.5,0.3-0.8,0.7-1.3,1c-1,0-1.5-0.1-2.2-0.6c0,0,0.1,0,0.1-0.1C27.6,24.7,28.9,24.1,29.9,24"/>
	<path class="st15" d="M24.5,31.1c0.3-1.2,1.4-1.9,2.4-2.6c1.1,1.3,1.7,3,2.4,4.7C27.6,32.7,25.9,31.9,24.5,31.1"/>
	<path class="st14" d="M30.3,41c0,1,0.1,2.6,0.1,3.7c0.7,0,1-0.1,1.5-0.3c0.1-1.3-0.4-2.4-0.5-3.5C31.1,40.7,30.6,41,30.3,41
		L30.3,41z M19.8,35.2c0.4,4.1,1.1,7.5,2.3,11.1c2.6,0.8,5.8,0.9,8.1,0.1c-0.4-2-0.2-4.5-0.5-6.7l-0.3-5
		C26.5,34.2,22.6,34.7,19.8,35.2L19.8,35.2z M30,34.9c0,1.8,0.1,3.5,0.2,5.2l1.8-0.3c-0.2-1.7-0.2-3.6-0.6-5.1
		C30.9,34.7,30.5,34.7,30,34.9L30,34.9z M33.4,34.6c-0.3-0.1-0.7,0-1,0l0.6,4.5c0.5,0,0.7-0.2,1.1-0.3
		C34.2,37.5,34.1,35.7,33.4,34.6L33.4,34.6z M38.6,39.3c1-0.2,1.6-1.5,1.3-2.7c-0.2-0.8-0.5-2.4-0.9-3c-0.3-0.4-1-0.9-1.6-0.6
		c-0.9,0.6-2.6,0.8-3.3,1.5c0.3,1.1,0.4,2.7,0.6,4.1c1.2,0.1,2.6-0.3,3.6,0.1c-0.7,0.2-1.6,0.2-2.1,0.5
		C36.8,39.5,37.9,39.5,38.6,39.3L38.6,39.3z M29.3,33.2c-0.7-1.7-1.3-3.4-2.4-4.7c-1,0.7-2.1,1.3-2.4,2.6
		C25.9,31.9,27.6,32.7,29.3,33.2L29.3,33.2z M31,28.1c-0.1,1.7-0.3,3.8-0.7,5.1c1.1-1.3,1.9-2.9,2.8-4.4C32.7,28.2,32,27.7,31,28.1
		L31,28.1z M29.1,27.4c-0.4,0-0.7,0.5-1.3,0.2L27.5,28c1.1,1.4,1.7,3.3,2.6,5c0.5-1.6,0.4-3.3,0.5-5C29.9,28.1,29.5,27.4,29.1,27.4
		L29.1,27.4z M27.8,25.7c0,0.5,0.1,0.6,0.2,1.2C29.5,27.4,29.3,24.8,27.8,25.7z M26.1,25.2c-0.8-0.4-1.7-0.7-2.5-0.9
		c-1.1-0.2-1,1.5-0.9,2.5c0,0.8,0.4,1.6,0.6,2.1c0.1,0.2,0.1,0.5,0.3,0.6c0.4,0.1,1.6-0.4,1.9-0.6c0.7-0.4,1.3-1.1,1.9-1.5l0-0.6
		c-0.4-0.2-0.8-0.3-1.4-0.3c0.4-0.2,0.9-0.2,1.3-0.4l0-0.2C26.7,25.7,26.5,25.4,26.1,25.2L26.1,25.2z M19.7,24
		c-0.6,0.6,1.6,1.3,2.2,1.4c0-0.4,0.2-0.7,0.2-0.9C21.3,24.3,20.2,24.4,19.7,24L19.7,24z M26.5,24.3C26.5,24.3,26.5,24.3,26.5,24.3
		c0.6,0.6,1.2,0.8,2.1,0.7l1.3-1C28.9,24.1,27.6,24.7,26.5,24.3z M32.8,26.2c0-0.6-0.2-1.9-0.6-2.1c-0.8-0.5-2.3,1-2.9,1.2
		c0.1,0.2,0.2,0.3,0.2,0.6c0.4-0.1,0.8,0,1.1,0.1c-0.4,0-0.8,0-1,0.2c-0.1,0.3,0,0.6,0,1c0.9,0.2,1.8,0.4,2.9,0.4
		C32.8,27.2,32.9,26.7,32.8,26.2z M18.8,24.5c-0.2-0.1-1.4-1.7-1.5-1.6c-2.1,0.8-4.1,2.3-5.9,3.7c1.7,3.6,2.4,8.1,2.5,12.4
		c2,0.9,3.7,2.2,6.3,2.4l-0.8-6.1c-0.7-0.3-1.6,0-2.2-0.1c0-0.8,0.9-0.3,1-0.8c0.1-0.4-0.5-0.4-0.3-1c0.5,0.2,0.7,0.6,1.3,0.7
		c0.5-1,0-2.9,0.1-3.8c0-0.2,0.1-0.9,0.4-0.8c0.3,0.1,0,2,0,2.8c0,0.8-0.1,1.5,0.2,2c2.6-0.3,5.1-0.6,7.9-0.6
		c-0.6-0.3-1.3-0.5-2.1-1c-0.4-0.2-1.8-0.7-1.9-1.2c-0.2-0.6,0.5-1,0.6-1.6c-1.3,0.7-1.5-0.7-1.8-1.7c-0.3-0.9-0.4-1.5-0.5-2.1
		C20.9,25.7,19.7,25.2,18.8,24.5L18.8,24.5z M31.7,23.1c1.8-0.9,2.1,3.2,1.4,4.5c0.1,0.4,0.5,0.5,0.6,0.9l-3.1,5.2
		c0.8-0.5,1.8-0.1,2.7-0.4c0.3-0.1,0.6-0.9,0.8-1.5c0.7-1.6,1.4-3.7,1.7-5.2c0.1-0.4,0.3-1.1,0.2-1.4c-0.1-0.6-0.8-1-1.2-1.4
		L32.9,22C32.6,22.4,31.9,22.7,31.7,23.1L31.7,23.1z M14.7,7.4c-0.8,0.9-0.7,2.7-0.6,3.9c1.5-1,3.6,0.1,3.5,1.7
		c0.7,0,0.3-0.9,0.1-1.5c-0.4-1.9,0.7-3.9,0.1-5.6C16.5,6,15.5,6.5,14.7,7.4L14.7,7.4z M20.7,2c-1.9,0.5-4.4,1.9-5.2,3.7
		c0.6-0.1,1-0.4,1.6-0.4c0.2,0,0.5,0.1,0.8,0c0.5-0.1,1-1.3,1.4-1.7c0.4-0.4,0.8-0.6,1.2-1C20.7,2.4,21,2.4,21,2.1
		C20.9,2,20.8,1.9,20.7,2L20.7,2z M30.7,2.5c-2-1.1-5.4-2-7.5-0.9c-1.7,0.9-4,2.3-4.8,4.1c0.7,1.7-0.2,3.3-0.3,5.1
		c0,0.9,0.4,1.7,0.5,2.8c-0.3,0.4-1,0.5-1.6,0.4c-0.2-0.9-0.5-1.9-1.4-2c-1.3-0.1-2.3,0.9-2.3,2.1c-0.1,1.3,1,3.5,2.6,3.4
		c0.6-0.1,0.7-0.7,1.4-0.7c0.4,0.7-0.5,0.9-0.6,1.4c0,0.1,0.1,0.6,0.1,0.9c0.3,1.2,0.9,2.7,1.5,3.5c0.8,1.1,2.3,1.3,4,1.4
		c0.3-0.6,1.4-0.6,2.1-0.4c-0.8-0.3-1.6-1.2-2.3-1.9c-0.8-0.8-1.5-1.7-1.6-2.8c1.4,2,2.6,3.7,5.2,4.6c2,0.7,4.2-0.3,5.7-1.4
		c0.6-0.4,1-1.1,1.4-1.8c1.7-2.4,2.4-5.8,2.3-9.1c-0.1-1.4-0.1-2.7-0.5-3.6c-0.5-1-2.1-1.8-3-0.9c-0.2-0.9,0.8-1.5,1.9-1.2
		C32.7,4.4,31.9,3.1,30.7,2.5L30.7,2.5z M34.4,33.2c1.6-0.8,4.5-2.1,5.4,0c0.4,0.8,0.8,2.1,1,2.9c0.3,1.1-0.3,3.5-1.4,3.8
		c-1,0.3-2.2,0.3-3.4,0.1c-0.1-0.1-0.3-0.3-0.4-0.5c-0.9,0-1.7,0-2.4,0.4c0.1,0.6-0.4,0.8-0.8,0.9c-0.3,1.2,0.6,2.8,0.4,3.9
		c-0.2,0.8-1.1,0.9-1.8,1.1c0,0.4,0,0.8,0.1,1.2c-0.2,0.6-0.9,0.9-1.6,1c-2.3,0.3-5.7,0.4-7.9-0.4c-0.6-1.5-1.1-3.3-1.6-5
		c-2.1,0.2-3.8-0.9-5.5-1.7c-0.6-0.3-1.3-0.4-1.5-0.8c-0.2-0.4-0.1-1.3-0.2-2c-0.1-2-0.2-3.9-0.8-6c-0.2-0.9-0.6-1.7-0.9-2.6
		c-0.3-0.8-0.7-1.8-0.9-2.6c-0.2-1.2,1-1.3,1.7-1.8c1.1-0.8,2-1.3,3.2-2c0.4-0.2,1.5-0.8,1.6-1c0.2-0.5-0.4-1.2-0.6-1.6
		c-0.3-0.6-0.4-1.1-0.5-1.8c-1-0.2-1.8-0.8-2.3-1.5c-0.8-1.1-1.3-3.2-0.6-4.8c0.1-0.1,0.3-0.4,0.4-0.6c0.1-0.4-0.1-0.9-0.2-1.3
		c-0.1-2.1,0.4-3.9,1.8-4.5c0.6-2.2,2.6-3,4.5-4.1c0.7-0.4,1.5-0.7,2.3-1c2.9-1.1,7.4-0.9,9.8,1c1,0.8,2.7,2.4,3.3,3.6
		c1.6,3.1,1.4,8.4,0.4,12.2c-0.1,0.5-0.4,1.3-0.7,1.9c-0.2,0.4-0.8,1.3-0.8,1.7c0.1,0.4,1.5,1.4,1.8,1.7c0.5,0.5,1.5,1.2,1.6,1.8
		c0.1,0.7-0.3,1.6-0.5,2.3L34.4,33.2"/>
	<path class="st7" d="M24.1,17.7c0.1-0.1,0.5-0.3,1.2,0c0,0-0.8,0.1-0.7,1.4l-0.3-0.1C24.2,19.1,23.9,18,24.1,17.7"/>
	<path class="st16" d="M29.7,28.8c0,0.2-0.2,0.4-0.4,0.4S29,29,29,28.8s0.2-0.4,0.4-0.4S29.7,28.6,29.7,28.8 M30,30.4
		c0,0.2-0.2,0.4-0.4,0.4s-0.4-0.2-0.4-0.4s0.2-0.4,0.4-0.4S30,30.2,30,30.4"/>
</g>
</svg>
