<svg xmlns="http://www.w3.org/2000/svg" xmlns:xlink="http://www.w3.org/1999/xlink" id="Layer_1" x="0" y="0" version="1.1" viewBox="0 0 48 48" xml:space="preserve" style="enable-background:new 0 0 48 48"><style type="text/css">.st0{fill:#326ce5}.st1{fill:#fff;stroke:#fff;stroke-width:8.250000e-02;stroke-miterlimit:6}</style><g><path d="M23.8,0.7c-0.4,0-0.8,0.1-1.2,0.3L5.9,9C5,9.4,4.4,10.2,4.2,11.2L0.1,29.1c-0.2,0.8,0,1.7,0.5,2.4 c0.1,0.1,0.1,0.2,0.2,0.3l11.6,14.4c0.6,0.8,1.5,1.2,2.5,1.2h18.5c1,0,1.9-0.4,2.5-1.2l11.5-14.4c0.6-0.8,0.8-1.7,0.6-2.7 l-4.1-17.9c-0.2-0.9-0.9-1.7-1.7-2.1L25.4,1C24.9,0.8,24.4,0.7,23.8,0.7L23.8,0.7z" class="st0"/><path d="M24,6.8c-0.6,0-1,0.5-1,1.1v0.3c0,0.3,0.1,0.6,0.1,0.9c0.1,0.6,0.1,1.2,0.1,1.8c-0.1,0.2-0.2,0.4-0.3,0.5 l0,0.4c-0.6,0.1-1.2,0.1-1.8,0.3c-2.5,0.6-4.8,1.9-6.5,3.7l-0.4-0.3c-0.2,0.1-0.4,0-0.6-0.1c-0.5-0.4-0.9-0.8-1.3-1.2 c-0.2-0.2-0.4-0.5-0.7-0.7l-0.2-0.2c-0.2-0.2-0.4-0.3-0.7-0.3c-0.3,0-0.6,0.1-0.8,0.4c-0.3,0.5-0.2,1.1,0.2,1.5l0.2,0.2 c0.3,0.2,0.5,0.3,0.8,0.5c0.5,0.3,1,0.6,1.5,1c0.1,0.2,0.2,0.4,0.2,0.6l0.3,0.3c-1.8,2.6-2.5,5.9-2,9l-0.4,0.1 c-0.1,0.2-0.3,0.3-0.4,0.4c-0.6,0.2-1.2,0.3-1.8,0.3c-0.3,0-0.6,0-1,0.1l-0.3,0.1h0c-0.5,0.1-0.9,0.6-0.9,1.1 c0,0.2,0.1,0.4,0.3,0.6c0.3,0.3,0.7,0.4,1,0.2h0l0.3,0c0.3-0.1,0.6-0.2,0.9-0.3c0.6-0.2,1.1-0.4,1.7-0.5c0.2,0,0.4,0.1,0.6,0.2 l0.5-0.1c1,3,3,5.6,5.8,7.2l-0.2,0.4c0.1,0.2,0.1,0.4,0.1,0.6c-0.2,0.6-0.6,1.1-0.9,1.6c-0.2,0.3-0.4,0.5-0.5,0.8l-0.1,0.3 c-0.3,0.5-0.1,1.1,0.4,1.4c0.2,0.1,0.4,0.2,0.6,0.1c0.4,0,0.7-0.3,0.8-0.6l0.1-0.3c0.1-0.3,0.2-0.6,0.3-0.9 c0.3-0.7,0.4-1.4,0.8-1.8c0.1-0.1,0.3-0.2,0.4-0.2l0.2-0.4c3,1.1,6.2,1.1,9.2,0l0.2,0.4c0.2,0,0.4,0.1,0.5,0.3 c0.3,0.5,0.5,1.1,0.7,1.7c0.1,0.3,0.2,0.6,0.3,0.9l0.1,0.3c0.2,0.5,0.8,0.8,1.3,0.6c0.2-0.1,0.4-0.2,0.5-0.4c0.2-0.3,0.2-0.7,0-1.1 l-0.1-0.3c-0.2-0.3-0.3-0.5-0.5-0.8c-0.3-0.5-0.6-1-0.9-1.6c0-0.2,0-0.4,0.1-0.6c-0.1-0.1-0.1-0.3-0.2-0.4c2.7-1.6,4.8-4.2,5.7-7.2 l0.4,0.1c0.2-0.1,0.4-0.2,0.6-0.2c0.6,0.1,1.2,0.3,1.7,0.5c0.3,0.1,0.6,0.2,0.9,0.3c0.1,0,0.2,0,0.3,0.1h0c0.5,0.2,1.1-0.1,1.3-0.6 c0.1-0.2,0.1-0.4,0-0.6c-0.1-0.4-0.4-0.6-0.8-0.7l-0.3-0.1c-0.3,0-0.6-0.1-1-0.1c-0.6,0-1.2-0.1-1.8-0.3c-0.2-0.1-0.3-0.3-0.4-0.4 l-0.4-0.1c0.4-3.2-0.3-6.3-2.1-9l0.4-0.3c0-0.2,0.1-0.4,0.2-0.6c0.5-0.4,1-0.7,1.5-1c0.3-0.1,0.6-0.3,0.8-0.5l0.2-0.2 c0.5-0.3,0.6-0.9,0.3-1.4c-0.1-0.2-0.3-0.3-0.5-0.4c-0.4-0.1-0.8,0-1,0.2l-0.2,0.2c-0.2,0.2-0.5,0.5-0.7,0.7 c-0.4,0.5-0.8,0.9-1.3,1.2c-0.2,0.1-0.4,0.1-0.6,0.1l-0.4,0.3c-2.2-2.3-5.1-3.7-8.3-4c0-0.1,0-0.4,0-0.4c-0.2-0.1-0.3-0.3-0.3-0.5 c0-0.6,0-1.2,0.1-1.8C24.9,8.9,25,8.5,25,8.2V7.9C25,7.4,24.6,6.9,24,6.8L24,6.8z M22.7,14.6l-0.3,5.2h0c0,0.3-0.2,0.6-0.5,0.8 s-0.6,0.1-0.9-0.1l-4.3-3c1.4-1.3,3.1-2.3,5-2.7C22,14.7,22.4,14.6,22.7,14.6L22.7,14.6z M25.2,14.6c2.3,0.3,4.4,1.3,6,2.9l-4.3,3 c-0.3,0.2-0.6,0.3-0.9,0.1s-0.5-0.4-0.5-0.8L25.2,14.6z M15.2,19.4l3.9,3.5v0c0.2,0.2,0.4,0.5,0.3,0.9c-0.1,0.3-0.3,0.6-0.6,0.7v0 l-5,1.5C13.5,23.6,14,21.3,15.2,19.4L15.2,19.4z M32.8,19.4c1.2,1.9,1.7,4.2,1.5,6.5l-5.1-1.5v0c-0.3-0.1-0.6-0.3-0.6-0.7 c-0.1-0.3,0-0.6,0.3-0.9L32.8,19.4L32.8,19.4z M23.2,23.2h1.6l1,1.2L25.4,26L24,26.7L22.5,26l-0.3-1.6L23.2,23.2z M28.3,27.4 c0.1,0,0.1,0,0.2,0l5.2,0.9c-0.8,2.2-2.2,4-4.2,5.2l-2-4.9c-0.2-0.5,0-1,0.5-1.2C28.1,27.5,28.2,27.5,28.3,27.4L28.3,27.4z M19.6,27.5c0.3,0,0.6,0.2,0.7,0.4c0.2,0.2,0.2,0.6,0.1,0.8v0l-2,4.8c-1.9-1.2-3.4-3-4.1-5.2l5.2-0.9 C19.5,27.5,19.5,27.5,19.6,27.5L19.6,27.5z M24,29.6c0.3,0,0.6,0.2,0.8,0.5h0l2.5,4.6l-1,0.3c-1.9,0.4-3.8,0.3-5.6-0.3l2.6-4.6 C23.4,29.8,23.7,29.6,24,29.6L24,29.6z" class="st1"/></g></svg>