<svg xmlns="http://www.w3.org/2000/svg" xmlns:xlink="http://www.w3.org/1999/xlink" id="Layer_1" x="0" y="0" version="1.1" viewBox="0 0 48 48" xml:space="preserve" style="enable-background:new 0 0 48 48"><style type="text/css">.st0{fill:#1159cc}.st1{fill:#127eff}</style><g><path d="M28.2,31.8L24,34.7V48l9-5.2L47.2,8.1V3.7L36.7,9.8v3.7L28.2,31.8z M11.3,9.8v3.7l8.4,19l4.2-2.1v-5.3 l-6.3-14.8V6.2l0,0L11.3,9.8z" class="st0"/><path d="M30.3,6.2v4.2L24,25.2v4.9l-4.2,2.4l-8.4-19V9.8l6.3-3.6L7.1,0L0.8,3.7v4.5L15,42.8l9,5.2V35l4.2-2.4l0,0 l8.5-19V9.8l10.6-6.1L40.9,0L30.3,6.2L30.3,6.2z" class="st1"/></g></svg>