<?xml version="1.0" encoding="utf-8"?>
<!-- Generator: Adobe Illustrator 24.3.0, SVG Export Plug-In . SVG Version: 6.00 Build 0)  -->
<svg version="1.1" id="Layer_1" xmlns="http://www.w3.org/2000/svg" xmlns:xlink="http://www.w3.org/1999/xlink" x="0px" y="0px"
	 viewBox="0 0 48 48" style="enable-background:new 0 0 48 48;" xml:space="preserve">
<style type="text/css">
	.st0{fill:#151F34;}
	.st1{fill:#348540;}
	.st2{fill:#7DBC42;}
</style>
<g>
	<path class="st0" d="M29.3,13.8c-1.7,0.4-3.5,0.6-5.3,0.6c-1.8,0-3.5-0.2-5.3-0.6c1.4-2.2,3.2-4.2,5.3-5.9
		C26.1,9.5,27.9,11.5,29.3,13.8z M45.1,0.9C43,0.3,40.8,0,38.5,0C33.4,0,28.3,1.5,24,4.4C19.7,1.5,14.7,0,9.5,0C7.2,0,5,0.3,2.8,0.9
		C1.9,1.1,1,1.4,0.1,1.7c0,0,0,0.1,0,0.1c0.4,0.8,0.8,1.6,1.2,2.4c0,0,0.1,0,0.1,0c0.9-0.3,1.8-0.6,2.7-0.8C10.2,2,16.4,3,21.6,6.2
		c-2.3,1.9-4.2,4.2-5.7,6.7c-0.3,0.5-0.6,1-0.8,1.5s-0.3,0.7-0.5,1c-0.2,0.4-0.5,1.1-0.7,1.6c-3.6,9.8-1.1,20.8,6.4,28.1
		c0.4,0.4,0.8,0.7,1.2,1.1c0.4,0.4,0.7,0.6,1,0.8s0.9,0.7,1.3,1c0,0,0.1,0,0.1,0c0.4-0.3,0.9-0.6,1.3-1c0.4-0.3,0.7-0.5,1-0.8
		c0.3-0.3,0.8-0.7,1.2-1.1c5.2-4.9,8.1-11.8,8.1-18.9c0-3.1-0.5-6.2-1.6-9.1c-0.2-0.6-0.4-1.1-0.7-1.6c-0.2-0.5-0.3-0.7-0.5-1
		s-0.5-1-0.8-1.5c-1.5-2.5-3.4-4.8-5.7-6.7C31.6,3,37.9,2,43.8,3.4c0.9,0.2,1.8,0.5,2.7,0.8c0,0,0.1,0,0.1,0
		c0.4-0.8,0.8-1.5,1.2-2.3c0,0,0-0.1,0-0.1C47,1.4,46.1,1.1,45.1,0.9z"/>
	<path class="st1" d="M32.9,26.2c0,6-2.3,11.7-6.4,16c-0.7-2.3-1.1-4.6-1.1-7c0-6,2.3-11.7,6.4-16C32.5,21.5,32.9,23.8,32.9,26.2"/>
	<path class="st2" d="M22.6,35.2c0,2.4-0.4,4.7-1.1,7c-5.8-6.2-7.9-15-5.3-23.1C20.4,23.5,22.7,29.3,22.6,35.2"/>
</g>
</svg>
