<?xml version="1.0" encoding="utf-8"?>
<!-- Generator: Adobe Illustrator 24.3.0, SVG Export Plug-In . SVG Version: 6.00 Build 0)  -->
<svg version="1.1" id="Layer_1" xmlns="http://www.w3.org/2000/svg" xmlns:xlink="http://www.w3.org/1999/xlink" x="0px" y="0px"
	 viewBox="0 0 48 48" style="enable-background:new 0 0 48 48;" xml:space="preserve">
<style type="text/css">
	.st0{fill:#E42528;}
</style>
<path class="st0" d="M39,29.3c0,2-1.1,3-3,3.1H12c-2,0-3-1-3-3.1c0-2,1.1-3,3-3.1H36C38,26.3,39,27.3,39,29.3z M36,33.9H12
	c-2,0-3,1-3,3.1c0,2,1.1,3,3,3.1H36c2,0,3-1,3-3.1C39,34.8,38,33.9,36,33.9z M43.5,17L43.5,17c-2,0-3,1-3,3v16.8c0,2,1.1,3,3,3.1
	l0,0c3-0.1,4.5-3.1,4.5-9.2v-7.6C48,19.1,46.4,17.1,43.5,17z M4.5,17L4.5,17c-3,0.1-4.5,2.1-4.5,6.2v7.6c0,6.1,1.6,9.1,4.5,9.2l0,0
	c2,0,3-1,3-3.1V20.1C7.5,18.1,6.5,17.1,4.5,17z M43.5,15.5c0-5.1-2.6-7.5-7.4-7.6H12C7.1,8,4.5,10.6,4.5,15.5l0,0
	c3,0,4.5,1.6,4.5,4.6s1.6,4.6,4.5,4.6h21c2.9,0,4.5-1.6,4.5-4.6C39,17,40.6,15.6,43.5,15.5z"/>
</svg>
