<svg xmlns="http://www.w3.org/2000/svg" xmlns:xlink="http://www.w3.org/1999/xlink" id="Layer_1" x="0" y="0" version="1.1" viewBox="0 0 48 48" xml:space="preserve" style="enable-background:new 0 0 48 48"><style type="text/css">.st0{fill:#00a9e5}.st1{fill:#353535}.st2{fill:#00bfb3}.st3{fill:#019b8f}.st4{fill:#f9b110}.st5{fill:#fed10a}</style><g id="Elasticsearch_1_"><g><path d="M35,16.8H22.5c0.1,0.3,0.2,0.6,0.2,0.8c0.4,1.4,0.7,2.9,0.8,4.5c0.1,0.6,0.1,1.3,0.1,1.9c0,0.6,0,1.3-0.1,1.9 c-0.1,1.6-0.4,3.1-0.8,4.5c-0.1,0.3-0.2,0.6-0.2,0.8H35c4,0,7.1-3.2,7.1-7.2S39,16.8,35,16.8z" class="st0"/><path d="M23.5,25.9c0.1-0.6,0.1-1.3,0.1-1.9c0-0.6,0-1.3-0.1-1.9c-0.1-1.6-0.4-3.1-0.8-4.5c-0.1-0.3-0.2-0.6-0.2-0.8 H3.1C2.4,19.1,2,21.5,2,24c0,2.5,0.4,4.9,1.1,7.2h19.4c0.1-0.3,0.2-0.6,0.2-0.8C23.2,28.9,23.4,27.4,23.5,25.9z" class="st1"/></g><g><path d="M37.2,33.6H21.6c-0.5,1.1-1,2.1-1.6,3.1c-0.9,1.5-2,2.8-3.2,4.1c-0.4,0.4-0.8,0.8-1.3,1.2 c-0.8,0.8-1.8,1.4-2.8,2.1c3.8,2.5,8.3,4,13.2,4c8.3,0,15.7-4.3,20-10.7C43.7,35,40.6,33.6,37.2,33.6z" class="st2"/><path d="M20,36.7c0.6-1,1.1-2,1.6-3.1H4c1.9,4.3,4.9,7.9,8.8,10.4c1-0.7,1.9-1.3,2.8-2.1c0.4-0.4,0.8-0.8,1.3-1.2 C18,39.5,19.1,38.2,20,36.7z" class="st3"/></g><g><path d="M16.8,7.3c-0.4-0.4-0.8-0.8-1.3-1.2c-0.8-0.8-1.8-1.4-2.8-2.1C8.9,6.5,5.9,10.1,4,14.4h17.6 c-0.5-1.1-1-2.1-1.6-3.1C19.1,9.8,18,8.5,16.8,7.3z" class="st4"/><path d="M26,0c-4.9,0-9.4,1.4-13.2,4c1,0.7,1.9,1.3,2.8,2.1c0.4,0.4,0.8,0.8,1.3,1.2c1.2,1.3,2.3,2.6,3.2,4.1 c0.6,1,1.1,2,1.6,3.1h15.6c3.4,0,6.5-1.4,8.8-3.7C41.6,4.3,34.3,0,26,0z" class="st5"/></g></g></svg>