<?xml version="1.0" encoding="utf-8"?>
<!-- Generator: Adobe Illustrator 24.3.0, SVG Export Plug-In . SVG Version: 6.00 Build 0)  -->
<svg version="1.1" id="Layer_1" xmlns="http://www.w3.org/2000/svg" xmlns:xlink="http://www.w3.org/1999/xlink" x="0px" y="0px"
	 viewBox="0 0 48 48" style="enable-background:new 0 0 48 48;" xml:space="preserve">
<style type="text/css">
	.st0{fill-rule:evenodd;clip-rule:evenodd;fill:#FDEE21;}
	.st1{fill-rule:evenodd;clip-rule:evenodd;fill:#C8C037;}
	.st2{fill-rule:evenodd;clip-rule:evenodd;fill:#FCF6A0;}
	.st3{fill-rule:evenodd;clip-rule:evenodd;}
	.st4{fill-rule:evenodd;clip-rule:evenodd;fill:#FFFFFF;}
	.st5{fill-rule:evenodd;clip-rule:evenodd;stroke:#000000;stroke-width:8.298515e-03;stroke-miterlimit:10;}
</style>
<g transform="matrix(.072794 0 0 .072794 -.000407 .634153)">
	<path class="st0" d="M377.3,87.6C371.6,71.8,172.6-5.6,170.1,2.9c-36.5,9.5-51.4,51.6-76.5,78.3L37.8,78
		c-24.6,31.6-37.5,63.9-28.7,97.5c31.5,42.7,68.1,79,90.9,132.6c1.8,25.3,109.4,2.6,132.4-2.4c-31.5,22.5-58.9,57.5-47.1,158.1
		c10.8,47.3,18.1,100,113.6,153.5c12.6,7,38.6,15.2,54.6,21.1c15.4,7.1,33.3,9.9,84.1-5.6c29.3-12.6,61-20.3,89.7-32.9l-34.5,1.6
		c-47.5,1-84.2,4.6-95.5-8.7l-43.7-75.5l25.5-49.5c35.3,3.6,47,32.2,78.1,43.1l36.7-27.2c106.5,62.9,148.9-39.8,161-119.8
		c-1.3-32.5-70.5,10.2-66.3-5c1.6-35-26.9-80.8-45.3-116.4l21.3-82.5c9.7-8.6-44.8-100.4-89.3-111.8
		C436.2,38.2,377.3,87.6,377.3,87.6L377.3,87.6z"/>
	<g>
		<path class="st1" d="M552.3,263c0.4,8.9,0.3,19.6,1.2,26.4c-0.1,5.1-4,5.3-7.2,6.4l20.7,7.6c4.1,6.9,7.4,13.8,10.8,20.8
			c3.9,17,1,17.5-1.6,18.8c-7.5,0.1-15,0.1-22-1.4c3.1,1.7,3.8,2.9,4.2,5c0.6,3.9-1.9,9.2-6.1,14.4c6.1,3.4,17.3,6.7,25.6,9.9
			l9.5-21.1C583.1,318.7,570.1,290.2,552.3,263L552.3,263z M591,366.8c11.5,4.8,27.4,3.4,49.4-8c3.3-2.3,6.3-0.9,0.5,2.9
			C611.9,387.6,598.1,374.7,591,366.8L591,366.8z"/>
		<path class="st1" d="M642.6,355.4c3.4,6.5,1.3,11.9,0.2,17.4c-3.6,28.1-12.3,50.3-29.5,73.5c-55.9,89.8-112.3,33.6-157.2-3
			L437.4,490c-1,4.1-5.1,7.3,24,20.1l29.6-20.9C603.8,575,683.8,368.9,642.6,355.4L642.6,355.4z M469.7,435.7
			c-7.6,0.5-30.3,8.2-31.3,12.7l10.4-15.5L469.7,435.7z M454.9,340.5c1.4,0,8.1,1.8,7.4,1.4c-1-0.6-0.1,9.4,2,14.6l-8.2,17.8
			c15.6-18,40.4-16.8,63.4-19.2l-11-6.8c1.9-6.3-0.3-11.4-1.4-16.8L454.9,340.5z M493.3,286.9c-16.8,5.1-32.9,13.6-43.7,31.5
			c8.2-29.5,9.9-28.4,12.6-29.9C473.7,283.4,483.2,286.6,493.3,286.9z"/>
	</g>
	<path class="st2" d="M403.6,633.3c-20.3,22.4-65.6-1.7-103.2-14c-95.6-60.8-114.3-118-115.6-174.2c-4.9-80.4,19.8-127.1,51-138.2
		c-20.7,39.9-30.3,111.4-20.7,164.6c7.7,29.6,7.9,79.5,57.4,106.2c24.2,13.7,17.7,24.3,34.1,37.1
		C324.6,628.8,374.7,642.1,403.6,633.3L403.6,633.3z M434,261.6c-34.4-48.8-82.7-67-137.2-69c10.9-3.6,21.9-5.4,32.8-10.7
		c2.7-2.8,1.8-7.8,0.8-12.8c-52.5-13.7-85.6-30.6-127.5-46.3L316,149.9C392.4,152.8,385.8,171.7,434,261.6L434,261.6z M470.8,238.1
		c-25.4-36.3-50-80.3-83.5-108.3c-80.7-36.4-160.6-63.5-254.2-88.1L163,3.3C262.3,26,355.6,63.9,439.1,126.5
		C453.3,162.2,462.7,198,470.8,238.1L470.8,238.1z M522,174c0,0-14.2-32-21.2-44.2c-16.1-17.8-24.2-51-57.2-66.7
		c10.4,2.8,17.6-0.5,38.8,18.7l33.5,63.6L522,174z M539.7,229.4c3.3-27.7,9.5-72.1,2.4-89.6l-60-80c-3.3-3.1-5.7-7.3-8.3-10.6
		c28.2,7.3,57.6,26.9,97.4,104.4L539.7,229.4z"/>
	<path class="st3" d="M421.1,232.6c-11.2-8.9-21.2-40.1-38.3-46.6c-15.8-1.3-21.5-6.3-42.3-2.1c7.5-3.8,14.6-8.6,22.6-11.2
		c5.4-1.3,10.5,0.1,15.7,0.8c1.3-0.6,2.1-1.4,1.8-2.5c-20.9-12.9-63.7-13.1-92.5-20.4c33.5,1.1,70.6-0.7,95.8,7.4
		C404.2,176.1,410.7,209.9,421.1,232.6L421.1,232.6z M482.5,81.8c4.7,0.4,29.7,40,30.9,46.6c2.1,14.4,7.2,30.5,8.6,45.6
		c-4.1-14.5-8.6-28.9-14.2-43.4c-1.7-4-5.8-13-17.3-25.7C485.1,96,483.9,89,482.5,81.8L482.5,81.8z M567.4,297.5h-10.7l11.8,3.1
		L567.4,297.5z M494.3,286.8c-10.8-1.3-21.8-1.5-32.6,0.9c-4.4,5.9-4.7,11.9-6.6,17.4C468.2,290.7,473.4,289.8,494.3,286.8
		L494.3,286.8z M641.2,361.2c-6,4.8-6.6,9.3-24.3,14.7c-12.9,3.1-20.2-2.1-26.3-9.1c9.2,2.6,10.7,9.6,35.4,1.8L641.2,361.2z
		 M587.5,364.2c-4.3,11.9-9,23.9-13.7,35c-11.2,13.1-6.4,5.6-23.1,26c5.3-8.2,12.3-16.2,15.9-24.8c2.6-5.7,5.7-11.7,7.1-16.7
		c-4.4-2.2-13.5-2.4-14.7-1.6c-14.9,8.8-17.5,18-26.3,27.1c6.3-10.1,11.8-21.2,19.1-30.4c0.8-1.2,6.3-1.4,9.6-2.1
		c-5.2-0.9-14.8-2.8-15.6-2.7c-9.7,2.3-15.1,10.8-22.3,16.4c5.2-7.6,10.1-15.5,16.7-22c0.7-0.8,18.7,0.8,28,4.5l0.2,3.7l5.3,2.1
		l4-10L587.5,364.2z M469.9,435.7c-2.4-0.8-23.5-3.5-23.5-2.9c-8.1,5.8-9.3,11.3-9.2,16.1C450.7,435.7,450.2,435.6,469.9,435.7
		L469.9,435.7z M453.8,340.3c0,0,15.2-2.2,14.9-0.8c-1.1,5.3,1.9,18.2,2.2,16.4l-8.6,7c17.9-9,36.8-7.2,56-8.6
		c0,0-16.1-4.5-15.1-4.6c3.6-0.5-1-16.8-2.2-17.2c3.1-1,6.1-1.8,9.2-2.6C487.2,323.8,473.8,327.4,453.8,340.3L453.8,340.3z"/>
	<path class="st3" d="M585.8,351.7l-3.4,1.7c-0.5-9.9-11.1-9.2-20.1-9.3l-7.4-1.8c2.3,2.1,9.2,1.9,6.4,6.4
		c-2.4,1.3-3.4,6.7-4.8,11.2l-4,0.2l21.3,8.4l4.6,0.7l11-5.9L585.8,351.7z"/>
	<path class="st4" d="M484.7,345c-1.7-3.4-10.3-2.9-12.2-0.7c-1.5,1.8-0.1,13.2,1.8,11.3c2.8-2.5,6.5-3.5,10.9-3.3
		C485.8,350.1,485.6,347.9,484.7,345L484.7,345z M567.5,362c0.8-0.6,2.5-6.3,2-8.1c-1.1-4.1-9.2-3.2-9.2-3.2c-2,1.2-3.7,7.5-3,9.6
		C557.7,362.1,566.2,362.7,567.5,362L567.5,362z"/>
	<path class="st3" d="M224.3,560.1l5.1,0.5c30.1,14.8,79.5,36.6,151.2,24.9l11.2,17.7c-31.6,15.3-65.5,11.8-97.3,12.9L224.3,560.1z
		 M181.2,443.4l15.1,63.2c40.3,25.2,109.2,54.1,166.6,51.7l-12.7-29.1C230.3,503.8,220.2,471.6,181.2,443.4L181.2,443.4z
		 M218.6,313.9c7.4,49,17.2,86.1,59.8,117.2c26.1,18.8,52,37.5,83.5,52.9c0,0-2.8,14.4-5.1,14.1c-93.8-10.4-162.5-88.2-170.8-123.7
		C194.1,347.2,205.7,330.2,218.6,313.9L218.6,313.9z M263.7,286.2c12.5,54.3,42.3,109.3,71.9,159.1c10.9,13.8,13.7,19.9,30.4,28.2
		c22.6,7.2,38.6,5.3,55,4.3c-4.5-8.3-8.5-17-13.7-24.9c-36.8-29.1-19.8-55.5-10-72.3c-20.4-5.2-47.5-16.1-51.3-30.6
		c-6-46.7-3-61.5,3.1-85.5C321.5,270.4,293.5,276.2,263.7,286.2L263.7,286.2z"/>
	<path class="st5" d="M162.2-2.2c-9.1,5.9-17.9,14.4-27.3,24.1c-15.6,16.2-26,32-41.9,43.7c-3.2,2.7-12.1,7.2-23.3,7.8
		c-5.3,0.3-8.7,1.1-18.5-0.1c-8.6-4.6-16.7-1.6-24.7,7.9c-8.7,12.5-19.8,36.3-24.3,51.3c-9.5,38.2,14.7,69.7,37.8,93.9
		c20.6,20.1,32.4,32.7,40.9,51.1c6.4,12,11.1,28.4,16.3,39.9c1.8,3.6,1.5,3.6,6.5,4.7c10.8,2.3,25.7,2.3,38.9,3.5
		c5.7,0.1,13.6-0.1,21.1-0.9c10.3-1.9,22.4-3.9,32.5-7.4c9.9-2.4,18.7-5.8,26.7-8.9c-1,3.5-8.6,6.8-11.5,11.3
		c-27,38.6-34.4,73-29.7,127.2c2.7,24,8.2,44,16.5,66.8c3.8,10.4,11.9,27,19.7,37.9c23.1,32.6,74.8,74.5,146.7,90.7
		c12.5,1.7,26.8,0.8,40.2-2.8c35.5-10.8,107.8-36.2,107.8-36.2s-64.2,5.3-93.6,2.4c-6.8-1.1-14.3-1.4-19.1-6.1
		c-0.8-1-3.7-6.8-1.8-6.9c2.5-0.1,9.9-3.1,21.2-4.1c-24.1-2.6-23.8-2.6-25.5-7c-2.7-6.8-6.9-16.1-11.2-24.3c10.6,0.9,34,2.2,42-6
		c0,0-13.9,1.6-26.1,0.2c-4.1-0.5-11.2-3-13.3-3.8c-5.5-2.1-10-2.8-11.1-4.2c-1.9-4.9-3.2-6.5-5.5-13c-3.1-8.6-3.4-18.3-4-27.1
		c8,9.9,18.2,18.2,31.8,22.5c0.2-0.4,17.6,7.6,30.2,3.5l2.6-0.8c0,0.2-8.4,0.7-11.4-0.8c-25.7-10.9-29.5-20.5-33.7-25.2l-11.1-16.6
		c3.4-6.7,5.3-7,9.8-7c13.5,1.5,19.4,2.7,27.6,0.7c5.6,11.4,7.1,22.9,19.7,31.2c42.1,12.5,51.3-3.7,61.5-18
		c30.3,22.2,79.7,29.1,113.9,0.4c43.6-50.4,57.4-129.9,53.5-134.4c-5.4-9.2-12.6-18.8-18.7-17.4c-21.8,6-29.9,17-51.6,14.5
		c2.6-0.1,6.9-0.2,6.9-0.5c1.7-18.3-0.1-27.2-0.9-28.7c-6.6-14.5-15.2-29.7-21.2-41.2c-1.6-2.4-6.1-20.4-13.7-27.5
		c-3.3-2.8-11.3-10.2-11.3-10.2l-0.7,7.8c0,0,3.1,0.5,4.3,5.3c4.5,18.4,27.5,61.9,29.2,64c8.2,13.2,0.8,29.6,7,38.7
		c0.6,1.2,12.6-0.1,22,0.5c15.4-3.3,14.7-10.1,28-11.1c8.9-0.7,9.8,16.1,9.7,17.4c-1.7,18.5-7.3,40.1-15.9,59.7
		c-17.9,34.6-38,65.6-66.5,69.9c-34.7,6.1-52.8-9.1-71.6-18.8l-7.2,6.1c-24.5,24.4-53.6,22.2-65.4-9.6
		c-5.9-12.4-13.6-19.9-20.2-30.5l-35,25.2c-2.9,6-6.5,15.4-10.9,25.9c-3,7.3-5.6,19.9-5.4,30.3c-4.5,7.6,15.5,38.7,28.2,57.5
		l11,15.9c2.5,6.5,8,12.3,8.3,13c23.5,30.7-29.6,23.6-40.6,21.8c-21.7-3.5-42.8-12.5-62.8-24.6l-3.5-2.1c-23.7-14.9-45.4-34-64-52.8
		c-11-12.5-21.6-38.1-29.3-56.3c-11.6-43.7-28.3-119.4,16.9-176.7c2.9-3.3,6-8.7,8.6-9.8c13.4-9.1,28-15.3,43.7-18.7l-1.6-10.2
		c-7.8,1.8-34.2,11.4-41.7,15.5c-17,4.9-31,10.1-52.7,15.5c-7,0.9-13.9,0.9-20.7,0c-15.6-2.1-42.1-0.2-43.8-1.8
		c-10.5-14.7-13.4-41-23-55.1l-0.1-0.1l-0.1-0.1c-5.6-7.5-12.1-13.7-18.6-20.1c-23-22.9-42.8-45-48.3-68.5c-1.4-6.9-5-14.1-3.1-34.6
		l0-0.1l0-0.1c5.5-19.1,14.6-34.7,29.9-50.4c15.9,0.3,31.7,0.6,44,3c5.6,0.9,17.3,2.5,29.4,7c30.6,11.4,71.1,30.2,71.1,30.2
		c-30.4-16.7-64.3-38.3-85.8-42.7c-3.2-0.5-5.2-1.9-6.1-4.4c32.3-18.9,38.2-41.3,59.4-61.3c9.7-4.2,13.5-6.4,21.7-7.3
		c76.2,12,124.1,42.4,162.1,62.7c15.4,8.4,29.4,14.7,42.8,22.3c11.7,3.9,47.1,30.6,57.4,44.9c10.5,22.2,18.2,46.2,25.2,69.3
		c5,23.5,9.4,33.1,9.4,33.1s-4.3-19.7-3.6-23.2c4.4,1.7,14.9,4.9,19.2,4.4c0,0-19.4-10-21.9-18.9c-8.1-28.4-16.3-72.6-18.5-74.9
		c-6.2-7.8-32.1-27.6-48-36.8c-6-3.5-9.3-5.6-9.5-7.1c5.1-5.1,11.3-11.9,16.9-16.2c5.4-4.1,10.3-8.8,17.8-11.6
		c33-14.9,51.8,5.7,56.3,1.5c0,0-7.1-8.1-3.9-6.8c3.2,1.7,13.7,3.8,14.9,4.9c12,9.4,43.4,43.8,62.4,80c4.5,8.9,6.4,14.7,4.3,25.4
		c-2.1,10.7-3.8,16.6-6.1,23.7c-2.1,4.8-13.9,37.5-13.8,41.9c-2.4,18,7.7,40.4,7.7,40.4c0.1-6.1-0.4-9.4,0.2-13.7l0.7-7.8
		c0,0-0.4-2.1-0.4-2.9c0.5-5.4,1.8-9.9,2.2-13c3.8-23.4,10.4-40.3,17.8-60.9c2.2-5.2,5.1-8.1,5-12c0.1-7-6.2-16.4-10.7-25.6
		c-4.6-9.3-10.1-19.7-17.2-30.6c-16.4-23.5-30.3-41.9-55.9-53.5c-7.1-3.1-35.3-6.2-45-4.4c-11.8,2.5-21.9,4.9-30,10
		c-12.7,8.1-22.7,20.7-34.4,28.2c-25.9-13-38.4-22.7-40.8-24c-15.4-8.3-33.9-17.8-53.8-26.9C275.7,23.3,216.4,2,162.2-2.2L162.2-2.2
		z M493.7,481.3c-16-12.5-29.4-25.4-38.3-38.6c-2.9,15.6-13.4,26.7-21.5,37.6c-1.6,2.6-2.8,6,5.2,17.2c2.1,3,9.9,3.5,15.1,3.2
		c-5.3-4-13.4-8.3-14.7-12c9.4,6.4,18.1,8.2,25.9,7.2c1.8-0.2,4-2.1,5.7-5c3.5-7.5,6.2-9.3,9-11.3l6.4,8L493.7,481.3z"/>
</g>
</svg>
