<?xml version="1.0" encoding="utf-8"?>
<!-- Generator: Adobe Illustrator 24.3.0, SVG Export Plug-In . SVG Version: 6.00 Build 0)  -->
<svg version="1.1" id="Layer_1" xmlns="http://www.w3.org/2000/svg" xmlns:xlink="http://www.w3.org/1999/xlink" x="0px" y="0px"
	 viewBox="0 0 48 48" style="enable-background:new 0 0 48 48;" xml:space="preserve">
<style type="text/css">
	.st0{clip-path:url(#SVGID_2_);fill:#444B5E;}
</style>
<g>
	<defs>
		<rect id="SVGID_1_" y="8.1" width="106.1" height="31.8"/>
	</defs>
	<clipPath id="SVGID_2_">
		<use xlink:href="#SVGID_1_"  style="overflow:visible;"/>
	</clipPath>
	<path class="st0" d="M41.7,11.1c-1,0-1.7,0.5-1.9,1.3c0.3,0.2,0.6,0.3,1,0.3c0.8,0,1.6-0.6,1.3-1.6C42,11.1,41.8,11.1,41.7,11.1
		 M47,8.1L47,8.1c-0.8,0-0.9,0.4-2.5,0.8c-1.6,0.4-3.2,0-4.9,0.7c-5.2,2.2-6.3,9.7-11,12.4c-3.5,2-6.9,2.9-10.1,3.9
		c-2.1,0.7-4.2,1.4-6.1,3.1c-1.5,1.3-1.9,2.3-3.4,3.9c-1.6,1.6-6.4-1.3-8.8,0.9c-0.2,0.2-0.2,0.5,0,0.7c0,0,0,0,0,0
		c0.5,0.4,1.5,1.5,2.4,1.8c-0.3,0.6-1.9,2.2-1.6,3c0.4,0.9,4.5,0.3,8.3-2c1.8-1.1,3.2-2.6,5.9-3c3.6-0.5,7.7,0.3,11.8,0.9
		c-0.6,1.8-1.8,3-2.8,4.5c-0.3,0.3,0.6,0.4,1.7,0.2c1.9-0.5,3.2-0.8,4.7-1.7c1.7-1,2-3.6,4.1-4.2c1,1.6,3.6,2.1,5.6,1.3
		c0.1,0,0.2-0.1,0.3-0.2c0.2-0.2,0.1-0.5,0-0.6c-0.1-0.1-0.1-0.1-0.2-0.2c-1.1-1.2-1.4-4-0.9-5.4c0.6-1.6,1.1-4.1,1.7-6.1
		c0.6-2.2,0.8-5,1.6-6.2c1.1-1.7,2.3-2.3,3.4-3.2c1.1-1,2-1.9,2-4.1C48,8.5,47.7,8.1,47,8.1 M47.2,10.4c-0.2,1.5-1.2,2.3-2.3,3.2
		c-1,0.7-2.1,1.4-2.8,2.5c-0.7,1.1-1.2,5-2.3,8.8c-0.9,3.2-2.3,6.3-4.7,7.8c-0.2,0.1-0.4,0-0.4-0.2c-0.2-0.9-0.1-2.5-0.4-2
		c-0.3,1-0.7,1.9-1.2,2.8c-1.4,2.7-3.4,4.7-6.7,5.5c-0.2,0-0.3-0.1-0.4-0.2c0-0.1,0-0.2,0-0.2c1.5-2.1,2.9-4.3,3-7.8
		c0-0.3-0.4-0.4-0.5-0.2c-0.7,0.9-0.9,3-1.9,3.6c-0.8,0.1-1.6,0.1-2.5,0c-3.4-0.2-6.9-1.2-10.1-0.2c-2.2,0.7-4.5,2.7-6.3,3.5
		c-2.2,0.9-3.2,1.8-5.9,1.8c-0.3-0.4,1.1-2,1.6-2.7c0.2-0.2-0.2-0.5-0.5-0.6c-0.7-0.3-1.5-1.3-2.3-1.6c0.1-0.2,0.5-0.4,0.7-0.5
		c1.8-1,6.6,1.2,7.8-0.1c0.8-0.8,1.3-1.5,1.9-2.2c0.5-0.8,1.3-1.6,2.1-2.2c0.3-0.3,0.7-0.5,1.1-0.8c1.4-1,2.2-1,4-1.7
		c2.3-0.9,5.2-1.6,7.6-2.6c1.5-0.6,3.2-1.3,4.5-2.3c0.3-0.2,0.6-0.5,0.9-0.8c3.9-3.8,4.6-10.4,10.6-11c0.7-0.1,1.2-0.1,1.8-0.1
		c0.6,0,1.2-0.2,1.8-0.5c0.2-0.1,1.3-0.7,1.7-0.4C47.3,9.1,47.2,10.3,47.2,10.4"/>
</g>
</svg>
