<?xml version="1.0" encoding="utf-8"?>
<!-- Generator: Adobe Illustrator 24.3.0, SVG Export Plug-In . SVG Version: 6.00 Build 0)  -->
<svg version="1.1" id="Layer_1" xmlns="http://www.w3.org/2000/svg" xmlns:xlink="http://www.w3.org/1999/xlink" x="0px" y="0px"
	 viewBox="0 0 48 48" style="enable-background:new 0 0 48 48;" xml:space="preserve">
<style type="text/css">
	.st0{fill-rule:evenodd;clip-rule:evenodd;fill:#439934;}
	.st1{fill-rule:evenodd;clip-rule:evenodd;fill:#45A538;}
	.st2{fill-rule:evenodd;clip-rule:evenodd;fill:#46A037;}
	.st3{fill-rule:evenodd;clip-rule:evenodd;fill:#409433;}
	.st4{fill-rule:evenodd;clip-rule:evenodd;fill:#4FAA41;}
	.st5{fill-rule:evenodd;clip-rule:evenodd;fill:#4AA73C;}
	.st6{fill-rule:evenodd;clip-rule:evenodd;fill:#57AE47;}
	.st7{fill-rule:evenodd;clip-rule:evenodd;fill:#60B24F;}
	.st8{fill-rule:evenodd;clip-rule:evenodd;fill:#A9AA88;}
	.st9{fill-rule:evenodd;clip-rule:evenodd;fill:#B6B598;}
	.st10{fill-rule:evenodd;clip-rule:evenodd;fill:#C2C1A7;}
	.st11{fill-rule:evenodd;clip-rule:evenodd;fill:#CECDB7;}
	.st12{fill-rule:evenodd;clip-rule:evenodd;fill:#DBDAC7;}
	.st13{fill-rule:evenodd;clip-rule:evenodd;fill:#EBE9DC;}
</style>
<path class="st0" d="M33.5,15.7c0.6,1.8,1.1,3.7,1.2,5.6c0.2,2.4,0.1,4.8-0.4,7.1c0,0.1,0,0.1-0.1,0.2c-0.2,0-0.3,0-0.5,0
	c-1.3,0.2-2.6,0.4-3.9,0.6c-1.4,0.2-2.7,0.4-4.1,0.7c-0.5,0.1-1.1,0-1.3,0.6c0,0-0.1,0-0.1,0l0.1-4c0-3.2,0-6.4-0.1-9.5L25,17
	c1-0.2,2.1-0.3,3.1-0.5c1.2-0.2,2.5-0.4,3.7-0.6C32.4,15.8,32.9,15.7,33.5,15.7z"/>
<path class="st1" d="M23.1,42.1c-0.7-0.6-1.4-1.1-2-1.7c-3.4-3.2-5.9-7-7.2-11.6c-0.3-1.3-0.6-2.5-0.6-3.9c-0.1-0.9-0.1-1.8-0.1-2.7
	c0.2-2.4,0.5-4.8,1.2-7.1l0-0.1c0.1,0.1,0.2,0.2,0.2,0.3c0.7,2,1.4,4.1,2.1,6.1c2.1,6.4,4.3,12.8,6.4,19.2c0,0.1,0.2,0.2,0.2,0.3
	C23.4,41,23.1,42.1,23.1,42.1z"/>
<path class="st2" d="M33.5,15.7c-0.5,0.1-1.1,0.2-1.6,0.2c-1.2,0.2-2.5,0.4-3.7,0.6c-1,0.2-2.1,0.3-3.1,0.5l-0.6,0.1l0-0.4
	c0-0.3-0.1-0.7-0.1-1c0-2.2,0-4.3-0.1-6.5c0-1.3,0-2.7-0.1-4c0-0.8,0-1.7-0.1-2.5c0-0.4-0.1-0.9-0.1-1.3c0-0.3,0-0.5,0-0.8
	c0.3,0.6,0.6,1.3,1,1.9c0.5,1,1.4,1.7,2.1,2.5C30,8,32.1,11.6,33.5,15.7z"/>
<path class="st3" d="M24.4,30.6C24.4,30.6,24.5,30.6,24.4,30.6c0.3-0.7,0.9-0.6,1.4-0.7c1.4-0.2,2.7-0.4,4.1-0.7
	c1.3-0.2,2.6-0.4,3.9-0.6c0.2,0,0.3,0,0.5,0c-0.2,0.9-0.4,1.8-0.7,2.6c-0.4,1-0.8,1.9-1.2,2.8c-0.7,1.4-1.5,2.7-2.5,3.8
	c-0.8,0.9-1.6,1.7-2.4,2.6c-0.5,0.5-1,0.8-1.5,1.2l-0.1-0.1l-0.5-0.4l-0.5-1.1c-0.3-1.3-0.5-2.6-0.5-3.9l0-0.2l0.1-1
	c0-0.3,0.1-0.7,0.1-1C24.3,32.9,24.4,31.8,24.4,30.6z"/>
<path class="st4" d="M24.4,30.6c0,1.2-0.1,2.3-0.1,3.5c0,0.3,0,0.7-0.1,1l-0.3,0.1c-0.7-2-1.3-3.9-2-5.9c-1.1-3.2-2.2-6.5-3.2-9.7
	c-0.9-2.6-1.8-5.2-2.6-7.8c0-0.1-0.2-0.2-0.2-0.3L17.7,8c0.1,0.1,0.2,0.2,0.2,0.3c0.9,2.6,1.8,5.3,2.7,7.9c1.1,3.4,2.3,6.9,3.4,10.3
	c0,0.1,0.1,0.3,0.2,0.4l0.3-0.3C24.5,28,24.4,29.3,24.4,30.6z"/>
<path class="st5" d="M15.8,11.5c0.1,0.1,0.2,0.2,0.2,0.3c0.9,2.6,1.8,5.2,2.6,7.8c1.1,3.2,2.1,6.5,3.2,9.7c0.7,2,1.3,3.9,2,5.9
	l0.3-0.1l-0.1,1l-0.1,0.2c-0.1,1-0.2,2.1-0.3,3.1c-0.1,0.5-0.2,1-0.3,1.6c-0.1-0.1-0.2-0.2-0.2-0.3c-2.2-6.4-4.3-12.8-6.4-19.2
	c-0.7-2-1.4-4.1-2.1-6.1c0-0.1-0.1-0.2-0.2-0.3C14.9,13.8,15.4,12.7,15.8,11.5z"/>
<path class="st6" d="M24.5,26.6l-0.3,0.3c-0.1-0.2-0.1-0.3-0.2-0.4c-1.1-3.4-2.3-6.9-3.4-10.3c-0.9-2.6-1.8-5.3-2.7-7.9
	c0-0.1-0.1-0.2-0.2-0.3l2.4-3.1c0.1,0.1,0.2,0.2,0.2,0.3c0.7,1.9,1.3,3.9,2,5.8c0.6,1.8,1.2,3.6,1.8,5.4c0,0.1,0.2,0.2,0.3,0.3
	l0,0.4C24.4,20.3,24.5,23.5,24.5,26.6z"/>
<path class="st7" d="M24.4,16.7c-0.1-0.1-0.2-0.2-0.3-0.3c-0.6-1.8-1.2-3.6-1.8-5.4c-0.7-1.9-1.3-3.9-2-5.8c0-0.1-0.1-0.2-0.2-0.3
	c0.8-0.8,1.5-1.5,2.3-2.3c0.7-0.6,1.3-1.3,1.3-2.3c0,0,0-0.1,0.1-0.2L24,0.5c0,0.3,0,0.5,0,0.8c0,0.4,0.1,0.9,0.1,1.3
	c0,0.8,0.1,1.7,0.1,2.5c0,1.3,0.1,2.7,0.1,4c0,2.2,0,4.3,0.1,6.5C24.3,16,24.4,16.3,24.4,16.7z"/>
<path class="st8" d="M23.4,41c0.1-0.5,0.2-1,0.3-1.6c0.1-1,0.2-2.1,0.3-3.1l0,0l0,0c0,1.3,0.2,2.6,0.5,3.9c-0.1,0.1-0.2,0.2-0.2,0.3
	c-0.3,0.8-0.6,1.6-0.8,2.4c0,0.1-0.1,0.2-0.2,0.3l-0.3-1C23.1,42.1,23.4,41,23.4,41z"/>
<path class="st9" d="M23.4,43.1c0.1-0.1,0.2-0.2,0.2-0.3c0.3-0.8,0.6-1.6,0.8-2.4c0-0.1,0.1-0.2,0.2-0.3l0.5,1.1
	c-0.1,0.1-0.2,0.3-0.3,0.4l-0.9,2.8c0,0.1-0.2,0.2-0.3,0.3C23.7,44.7,23.4,43.1,23.4,43.1z"/>
<path class="st10" d="M23.7,44.7c0.1-0.1,0.2-0.2,0.3-0.3l0.9-2.8c0.1-0.2,0.2-0.3,0.3-0.4l0.5,0.4c-0.2,0.2-0.4,0.5-0.3,0.8
	l-0.1,0.5c-0.1,0.1-0.2,0.2-0.2,0.2c-0.3,0.9-0.6,1.9-1,2.8c0,0.1-0.2,0.2-0.2,0.3C23.8,45.8,23.7,45.2,23.7,44.7z"/>
<path class="st11" d="M23.8,46.3c0.1-0.1,0.2-0.2,0.2-0.3c0.3-0.9,0.6-1.9,1-2.8c0-0.1,0.1-0.2,0.2-0.2L25,45.1
	c-0.1,0.1-0.1,0.1-0.2,0.2c-0.2,0.6-0.4,1.3-0.7,1.9c0,0.1-0.1,0.2-0.2,0.4c-0.1-0.1-0.2-0.2-0.2-0.2C23.8,47,23.8,46.7,23.8,46.3z"
	/>
<path class="st12" d="M24,47.6c0.1-0.1,0.2-0.2,0.2-0.4c0.2-0.6,0.4-1.3,0.7-1.9c0-0.1,0.1-0.1,0.2-0.2l0,1.4l-0.5,1.2
	C24.5,47.8,24,47.6,24,47.6z"/>
<path class="st13" d="M24.5,47.8l0.5-1.2l0.1,1.5L24.5,47.8z"/>
<path class="st11" d="M25.4,42.5c-0.1-0.3,0.1-0.6,0.3-0.8l0.1,0.1L25.4,42.5z"/>
<path class="st4" d="M24.1,36.3L24.1,36.3L24.1,36.3l0-0.2C24.1,36,24.1,36.3,24.1,36.3z"/>
</svg>
