<?xml version="1.0" encoding="utf-8"?>
<!-- Generator: Adobe Illustrator 24.3.0, SVG Export Plug-In . SVG Version: 6.00 Build 0)  -->
<svg version="1.1" id="Layer_1" xmlns="http://www.w3.org/2000/svg" xmlns:xlink="http://www.w3.org/1999/xlink" x="0px" y="0px"
	 viewBox="0 0 48 48" style="enable-background:new 0 0 48 48;" xml:space="preserve">
<style type="text/css">
	.st0{fill:#00546B;}
</style>
<g>
	<path class="st0" d="M44.2,36.9c-2.6-0.1-4.6,0.2-6.3,0.9c-0.5,0.2-1.3,0.2-1.3,0.8c0.3,0.3,0.3,0.7,0.5,1c0.4,0.7,1.1,1.5,1.7,2
		c0.7,0.5,1.4,1,2.1,1.5c1.3,0.8,2.7,1.2,3.9,2c0.7,0.5,1.4,1,2.2,1.5c0.4,0.3,0.6,0.7,1,0.8v-0.1c-0.2-0.3-0.3-0.7-0.5-1
		c-0.3-0.3-0.7-0.6-1-0.9c-0.9-1.3-2.1-2.4-3.4-3.3c-1-0.7-3.3-1.7-3.8-2.9c0,0,0,0-0.1-0.1c0.7-0.1,1.6-0.3,2.3-0.5
		c1.1-0.3,2.1-0.2,3.3-0.5c0.5-0.1,1-0.3,1.6-0.5v-0.3c-0.6-0.6-1-1.4-1.6-1.9c-1.7-1.4-3.5-2.8-5.4-4c-1-0.7-2.3-1.1-3.4-1.6
		c-0.4-0.2-1-0.3-1.3-0.6c-0.6-0.7-0.9-1.7-1.3-2.5c-0.9-1.8-1.9-3.8-2.7-5.7c-0.6-1.3-0.9-2.5-1.7-3.7c-3.4-5.5-7-8.9-12.6-12.2
		c-1.2-0.7-2.6-1-4.2-1.3c-0.8,0-1.6-0.1-2.4-0.1c-0.5-0.2-1-0.8-1.5-1.1c-1.9-1.2-6.7-3.7-8-0.4c-0.9,2.1,1.3,4.2,2.1,5.3
		C2.8,8.2,3.5,9,3.9,9.9c0.2,0.6,0.3,1.1,0.5,1.7c0.5,1.4,1,3,1.7,4.4c0.4,0.7,0.8,1.4,1.2,2c0.3,0.4,0.7,0.5,0.8,1.1
		c-0.5,0.7-0.5,1.6-0.8,2.4c-1.2,3.7-0.7,8.3,0.9,11c0.5,0.8,1.8,2.6,3.4,1.9c1.5-0.6,1.1-2.4,1.6-4.1c0.1-0.4,0-0.7,0.2-0.9v0.1
		c0.5,0.9,0.9,1.8,1.3,2.7c1,1.6,2.8,3.3,4.2,4.4c0.8,0.6,1.4,1.6,2.4,2v-0.1h-0.1c-0.2-0.3-0.5-0.4-0.8-0.7c-0.6-0.6-1.2-1.3-1.7-2
		c-1.4-1.8-2.6-3.8-3.7-5.9c-0.5-1-1-2.1-1.4-3.1c-0.2-0.4-0.2-1-0.5-1.2c-0.5,0.7-1.2,1.3-1.6,2.2c-0.6,1.4-0.7,3.1-0.9,4.9
		c-0.1,0-0.1,0-0.1,0.1c-1-0.3-1.4-1.3-1.8-2.3c-1-2.3-1.1-6-0.3-8.7C9,21.2,10,19,9.6,18.3c-0.2-0.6-0.8-1-1.2-1.5
		c-0.4-0.6-0.9-1.4-1.2-2.1C6.4,13,6,10.9,5.2,9.1C4.8,8.3,4.1,7.4,3.5,6.6C2.9,5.7,2.2,5.1,1.7,4.1C1.6,3.7,1.4,3.1,1.6,2.7
		c0.1-0.3,0.2-0.4,0.5-0.4c0.4-0.4,1.6,0.1,2.1,0.3c1.2,0.5,2.2,0.9,3.2,1.6c0.5,0.3,0.9,0.9,1.5,1.1h0.7c1,0.2,2.2,0.1,3.2,0.4
		c1.7,0.6,3.3,1.4,4.7,2.3c4.3,2.7,7.8,6.6,10.2,11.2c0.4,0.8,0.6,1.4,0.9,2.2c0.7,1.6,1.5,3.2,2.2,4.8c0.7,1.5,1.3,3.1,2.3,4.4
		c0.5,0.7,2.4,1,3.3,1.4c0.7,0.3,1.7,0.6,2.3,0.9c1.1,0.7,2.2,1.5,3.3,2.2C42.5,35.4,44.1,36.2,44.2,36.9z"/>
	<path class="st0" d="M10.9,8.5c-0.6,0-0.9,0.1-1.3,0.2v0.1h0.1c0.3,0.5,0.7,0.9,1,1.3c0.3,0.5,0.5,1,0.8,1.6c0,0,0.1-0.1,0.1-0.1
		c0.5-0.3,0.7-0.8,0.7-1.6C12,9.7,12,9.5,11.8,9.3C11.6,8.9,11.2,8.8,10.9,8.5z"/>
</g>
</svg>
