<?xml version="1.0" encoding="utf-8"?>
<!-- Generator: Adobe Illustrator 24.3.0, SVG Export Plug-In . SVG Version: 6.00 Build 0)  -->
<svg version="1.1" id="Layer_1" xmlns="http://www.w3.org/2000/svg" xmlns:xlink="http://www.w3.org/1999/xlink" x="0px" y="0px"
	 viewBox="0 0 48 48" style="enable-background:new 0 0 48 48;" xml:space="preserve">
<style type="text/css">
	.st0{fill:#336791;}
	.st1{fill:#FFFFFF;}
</style>
<path d="M46.4,28.7c-0.3-0.8-1-1.4-2-1.6c-0.4-0.1-1,0-1.6,0.1c-1.1,0.2-1.8,0.3-2.4,0.3c2.2-3.6,3.9-7.8,4.9-11.7
	c1.6-6.3,0.8-9.2-0.3-10.5C42.4,2,38.5,0.1,33.7,0.1c-2.5,0-4.7,0.5-5.9,0.8c-1.1-0.2-2.2-0.3-3.5-0.3c-2.3,0-4.3,0.5-6,1.5
	c-1-0.3-2.5-0.8-4.2-1.1C10,0.3,6.6,0.8,4.2,2.6c-3,2.1-4.3,5.7-4.1,10.8c0.1,1.6,1,6.5,2.4,11.2c0.8,2.7,1.7,4.9,2.6,6.6
	c1.3,2.4,2.6,3.8,4.2,4.4c0.9,0.3,2.4,0.5,4.1-0.9c0.2,0.3,0.5,0.5,0.9,0.7c0.5,0.3,1,0.5,1.6,0.7c2.1,0.5,4,0.4,5.6-0.3
	c0,0.3,0,0.6,0,0.8c0,0.4,0,0.8,0,1.1c0.1,2.4,0.3,4.3,0.8,5.6c0,0.1,0.1,0.2,0.1,0.3c0.2,0.7,0.7,2,1.7,3c1.1,1,2.4,1.3,3.6,1.3
	c0.6,0,1.2-0.1,1.7-0.2c1.8-0.4,3.8-1,5.3-3.1c1.4-2,2.1-4.9,2.2-9.6c0-0.1,0-0.3,0-0.4l0-0.2l0.3,0l0.1,0c1.8,0.1,4-0.3,5.4-0.9
	C43.7,33,47.2,31.2,46.4,28.7"/>
<path class="st0" d="M43.3,29.2c-5.4,1.1-5.8-0.7-5.8-0.7c5.7-8.5,8.1-19.2,6-21.9C37.9-0.5,28.2,2.9,28,3L28,3
	c-1.1-0.2-2.3-0.4-3.6-0.4c-2.4,0-4.3,0.6-5.7,1.7c0,0-17.4-7.1-16.5,9c0.2,3.4,4.9,26,10.6,19.2c2.1-2.5,4.1-4.6,4.1-4.6
	c1,0.7,2.2,1,3.4,0.9l0.1-0.1c0,0.3,0,0.6,0,1c-1.5,1.6-1,1.9-3.9,2.5c-3,0.6-1.2,1.7-0.1,2c1.4,0.3,4.5,0.8,6.7-2.2l-0.1,0.3
	c0.6,0.5,1,3,0.9,5.3c-0.1,2.3-0.1,3.9,0.3,5.1c0.5,1.2,0.9,4,4.7,3.2c3.2-0.7,4.9-2.5,5.1-5.4c0.2-2.1,0.5-1.8,0.6-3.7l0.3-0.9
	c0.3-2.9,0.1-3.8,2-3.4l0.5,0c1.5,0.1,3.4-0.2,4.5-0.8C44.2,30.6,45.6,28.7,43.3,29.2L43.3,29.2"/>
<path class="st1" d="M19.7,14.8c-0.5-0.1-0.9,0-1.2,0.2c-0.1,0.1-0.2,0.2-0.2,0.3c0,0.2,0.1,0.4,0.2,0.5c0.2,0.3,0.6,0.5,1,0.6
	c0.1,0,0.1,0,0.2,0c0.6,0,1.1-0.5,1.2-0.8C20.9,15.2,20.2,14.9,19.7,14.8 M35.8,14.8c0-0.3-0.6-0.4-1.2-0.3
	c-0.6,0.1-1.1,0.3-1.1,0.7c0,0.3,0.5,0.7,1.1,0.7c0,0,0.1,0,0.1,0c0.4-0.1,0.6-0.3,0.8-0.4C35.7,15.2,35.8,15,35.8,14.8"/>
<path class="st1" d="M45.1,29.1c-0.2-0.6-0.9-0.8-2-0.6c-3.3,0.7-4.4,0.2-4.8-0.1c2.5-3.9,4.6-8.6,5.8-12.9c0.5-2.1,0.8-4,0.9-5.6
	c0-1.7-0.3-3-0.9-3.8c-2.4-3.1-6-4.8-10.3-4.8c-3,0-5.5,0.7-6,0.9c-1-0.3-2.1-0.4-3.4-0.4c-2.2,0-4.2,0.5-5.8,1.6
	c-0.7-0.3-2.5-0.9-4.7-1.2c-3.8-0.6-6.8-0.1-9,1.4c-2.6,1.8-3.8,5.1-3.5,9.7c0.1,1.5,1,6.3,2.3,10.9c1.8,6,3.8,9.4,5.9,10.1
	c0.2,0.1,0.5,0.1,0.8,0.1c0.8,0,1.7-0.3,2.7-1.5c1.2-1.4,2.4-2.8,3.7-4.2c0.8,0.4,1.7,0.7,2.7,0.7c0,0,0,0,0,0.1
	c-0.2,0.2-0.3,0.4-0.5,0.6c-0.6,0.8-0.8,1-2.8,1.4C15.6,31.5,14,31.9,14,33c0,1.2,1.8,1.7,2.1,1.7c0.7,0.2,1.5,0.3,2.1,0.3
	c1.7,0,3.1-0.5,4.3-1.6c0,4.3,0.1,8.4,0.7,9.7c0.4,1,1.4,3.6,4.7,3.6c0.5,0,1-0.1,1.6-0.2c3.4-0.7,4.8-2.2,5.4-5.5
	c0.3-1.8,0.8-5.9,1.1-8.2c0.5,0.2,1.2,0.2,1.9,0.2c1.5,0,3.2-0.3,4.3-0.8C43.3,31.7,45.5,30.3,45.1,29.1z M37,13.9
	c0,0.7-0.1,1.3-0.2,1.9c-0.1,0.7-0.2,1.4-0.2,2.2c0,0.8,0.1,1.7,0.2,2.5c0.2,1.7,0.4,3.4-0.4,5.1c-0.1-0.2-0.3-0.5-0.4-0.7
	c-0.1-0.2-0.3-0.6-0.6-1.2c-1.2-2.1-3.9-7-2.5-9C33.3,14.2,34.4,13.6,37,13.9z M33.8,2.7c3.9,0.1,6.9,1.5,9.1,4.3
	c1.7,2.1-0.2,11.8-5.5,20.2c-0.1-0.1-0.1-0.1-0.2-0.2l-0.1-0.1c1.4-2.3,1.1-4.5,0.9-6.5c-0.1-0.8-0.2-1.6-0.2-2.3
	c0-0.8,0.1-1.4,0.2-2.1c0.1-0.8,0.2-1.6,0.2-2.6c0-0.1,0-0.2,0-0.4c-0.1-0.9-1.1-3.7-3.3-6.1C34,5.6,32.3,4.1,29.9,3
	C30.9,2.8,32.3,2.6,33.8,2.7z M12.1,32c-1.1,1.3-1.8,1-2.1,1C8.5,32.4,6.6,29,5,23.7c-1.4-4.6-2.2-9.2-2.3-10.5
	c-0.2-4.1,0.8-7,3-8.5c3.5-2.5,9.3-1,11.7-0.2c0,0-0.1,0.1-0.1,0.1c-3.8,3.9-3.7,10.5-3.7,10.9c0,0.2,0,0.4,0,0.7
	c0.1,1.1,0.2,3.2-0.1,5.5c-0.3,2.2,0.4,4.3,1.8,5.8c0.2,0.2,0.3,0.3,0.5,0.4C15.1,28.6,13.6,30.1,12.1,32z M16.2,26.5
	c-1.2-1.2-1.7-3-1.5-4.7c0.3-2.5,0.2-4.6,0.1-5.8c0-0.2,0-0.3,0-0.4c0.6-0.5,3.1-1.9,5-1.5c0.8,0.2,1.4,0.8,1.6,1.8
	c1.1,5.1,0.1,7.2-0.6,9c-0.2,0.4-0.3,0.7-0.4,1l-0.1,0.3c-0.3,0.7-0.5,1.3-0.6,1.9C18.4,28,17.1,27.5,16.2,26.5L16.2,26.5z
	 M16.4,33.4c-0.4-0.1-0.7-0.3-0.9-0.4c0.2-0.1,0.5-0.2,1-0.3c2.4-0.5,2.8-0.9,3.6-1.9c0.2-0.2,0.4-0.5,0.7-0.8l0,0
	c0.4-0.5,0.6-0.4,1-0.3c0.3,0.1,0.6,0.5,0.7,0.9c0.1,0.2,0.1,0.6-0.1,0.8C20.7,33.9,18.2,33.8,16.4,33.4z M29.1,45.2
	c-3,0.6-4-0.9-4.7-2.6c-0.4-1.1-0.7-6.2-0.5-11.7c0-0.1,0-0.1,0-0.2c0-0.1,0-0.3-0.1-0.4c-0.2-0.8-0.8-1.5-1.5-1.8
	c-0.3-0.1-0.8-0.3-1.4-0.2c0.1-0.5,0.3-1.1,0.6-1.7l0.1-0.3c0.1-0.3,0.3-0.6,0.4-0.9c0.8-1.8,1.9-4.2,0.7-9.8
	c-0.4-2.1-1.9-3.1-4.2-2.9c-1.4,0.1-2.6,0.7-3.2,1c-0.1,0.1-0.3,0.1-0.4,0.2c0.2-2.1,0.8-6,3.3-8.5c1.5-1.6,3.6-2.3,6.1-2.3
	c4.9,0.1,8.1,2.6,9.9,4.7c1.5,1.8,2.4,3.7,2.7,4.6c-2.5-0.3-4.2,0.2-5.1,1.5c-1.9,2.7,1,7.9,2.4,10.4c0.3,0.5,0.5,0.9,0.5,1
	c0.5,1.1,1,1.8,1.5,2.4c0.1,0.2,0.3,0.3,0.4,0.5c-0.8,0.2-2.1,0.7-2,3.2c-0.1,1.3-0.8,7.2-1.2,9.3C33,43.6,32,44.6,29.1,45.2
	L29.1,45.2z M41.5,31c-0.8,0.4-2.1,0.6-3.3,0.7c-1.4,0.1-2.1-0.2-2.2-0.3c-0.1-1.6,0.5-1.7,1.1-1.9c0.1,0,0.2-0.1,0.3-0.1
	c0.1,0,0.1,0.1,0.2,0.1c1.1,0.7,3,0.8,5.8,0.2l0,0C43,30.2,42.4,30.6,41.5,31z"/>
</svg>
