<?xml version="1.0" encoding="utf-8"?>
<!-- Generator: Adobe Illustrator 24.3.0, SVG Export Plug-In . SVG Version: 6.00 Build 0)  -->
<svg version="1.1" id="Layer_1" xmlns="http://www.w3.org/2000/svg" xmlns:xlink="http://www.w3.org/1999/xlink" x="0px" y="0px"
	 viewBox="0 0 48 48" style="enable-background:new 0 0 48 48;" xml:space="preserve">
<style type="text/css">
	.st0{fill:#FFFFFF;}
	.st1{filter:url(#Adobe_OpacityMaskFilter);}
	.st2{mask:url(#mask-2_1_);}
	.st3{fill:#FCC397;}
	.st4{fill:#FC9F95;}
	.st5{fill:#F77C88;}
	.st6{fill:#F25192;}
	.st7{fill:#D34CA3;}
	.st8{fill:#9A50A5;}
	.st9{fill:#59569E;}
	.st10{fill:#39477F;}
</style>
<g>
	<g>
		<circle id="path-1_1_" class="st0" cx="24" cy="24" r="24"/>
	</g>
	<defs>
		<filter id="Adobe_OpacityMaskFilter" filterUnits="userSpaceOnUse" x="-0.4" y="-0.2" width="48.6" height="48.4">
			<feColorMatrix  type="matrix" values="1 0 0 0 0  0 1 0 0 0  0 0 1 0 0  0 0 0 1 0"/>
		</filter>
	</defs>
	<mask maskUnits="userSpaceOnUse" x="-0.4" y="-0.2" width="48.6" height="48.4" id="mask-2_1_">
		<g class="st1">
			<circle id="path-1_2_" class="st0" cx="24" cy="24" r="24"/>
		</g>
	</mask>
	<g class="st2">
		<g transform="translate(-2.000000, -1.000000)">
			<path class="st3" d="M36.4,3.2C33.3,1.7,29.7,0.8,26,0.8c-6.5,0-12.4,2.6-16.8,6.7C4.6,12,44.6,7.1,36.4,3.2z"/>
			<path class="st4" d="M45,9.9c0,0-2,2.7-8,3.5C24.8,15,3.9,15.1,3.9,15.1C5.2,12.2,7,9.7,9.3,7.5c2.6,0.8,5.5,1,8.2,0.5
				c4.5-0.8,8.4-3.4,12.9-4.5c2-0.5,4.1-0.6,6.1-0.4C39.8,4.8,42.7,7.1,45,9.9z"/>
			<path class="st5" d="M50,21.3c0,0.1-27.5,2.7-40.9,1.9c-4.4-0.2-6.9-2.9-6.9-3c0.4-1.8,0.9-3.5,1.7-5.1c3.9-2.1,8.4-3.3,12.8-3.3
				c5.5,0.1,11,1.9,16.5,1.8c4.1-0.1,8.3-1.4,11.8-3.6C47.5,13.2,49.3,17.1,50,21.3z"/>
			<path class="st6" d="M50.2,25c0,0.1,0,0.4,0,0.4s-7.6,1.9-17.5,1.8C19,27,1.6,24.8,1.6,24.8c0-1.6,0.2-3.2,0.5-4.7
				c3.3,2,7.3,3,11.2,2.6c3.1-0.3,6-1.5,8.8-2.7s5.7-2.5,8.7-3.2c4.4-1,9.1-0.7,13.3,1c2,0.8,4.1,2,5.8,3.4
				C50.1,22.4,50.2,23.7,50.2,25z"/>
			<path class="st7" d="M22.7,32.9c-7.3,1.3-19.8-0.2-19.8-0.3C2,30.2,1.6,27.6,1.6,25c0-0.1,0-0.1,0-0.2c1.1-0.9,2.4-1.7,3.7-2.3
				c3.1-1.5,6.7-2.1,10.1-1.8c3.4,0.3,6.7,1.6,9.8,3c2.7,1.1,5.3,2.4,8.1,3.2C33.5,27,30.7,31.4,22.7,32.9z"/>
			<path class="st8" d="M49.4,31.5c-0.5,0.9-5.3,3.8-11.9,4.3c-8.7,0.7-19-2-15.5-3.3c5.4-2.1,10-5.9,15.5-7.5
				c4.1-1.2,8.7-1,12.8,0.4C50.2,27.6,49.9,29.6,49.4,31.5z"/>
			<path class="st9" d="M47.1,37.1c-4.2,7.3-34.6,9.1-39.1,4.2c-2.3-2.5-4-5.5-5.1-8.7c3.7-2.1,8.1-3,12.3-2.5
				c5.4,0.7,10.3,3.8,15.7,5c4.3,1,8.9,0.7,13.1-0.9c1.9-0.7,3.8-1.6,5.4-2.7C48.9,33.5,48.1,35.4,47.1,37.1z"/>
			<path class="st10" d="M47,37c-4.2,7.3-12.1,12.2-21.1,12.2c-7.1,0-13.6-3.1-18-8c0.7,0.3,1.6,0.5,2.3,0.7c4.2,1.2,8.8,1.1,13-0.1
				c2.7-0.8,5.2-2.1,7.9-3C36.1,37.1,41.7,36.4,47,37z"/>
		</g>
	</g>
</g>
</svg>
