<?xml version="1.0" encoding="utf-8"?>
<!-- Generator: Adobe Illustrator 24.3.0, SVG Export Plug-In . SVG Version: 6.00 Build 0)  -->
<svg version="1.1" id="Layer_1" xmlns="http://www.w3.org/2000/svg" xmlns:xlink="http://www.w3.org/1999/xlink" x="0px" y="0px"
	 viewBox="0 0 48 48" style="enable-background:new 0 0 48 48;" xml:space="preserve">
<style type="text/css">
	.st0{fill:#A41E11;}
	.st1{fill:#D82C20;}
	.st2{fill:#FFFFFF;}
	.st3{fill:#7A0C00;}
	.st4{fill:#AD2115;}
</style>
<path class="st0" d="M46.1,35.1c-2.6,1.3-15.8,6.8-18.7,8.3c-2.8,1.5-4.4,1.5-6.6,0.4c-2.2-1.1-16.3-6.7-18.9-8
	C0.7,35.2,0,34.7,0,34.2v-4.9c0,0,18.4-4,21.3-5.1c3-1.1,4-1.1,6.5-0.2s17.6,3.6,20.1,4.6v4.8C48,33.9,47.4,34.5,46.1,35.1z"/>
<path class="st1" d="M46.1,30.3c-2.6,1.3-15.8,6.8-18.7,8.3S23,40,20.8,39S4.5,32.2,1.9,31c-2.5-1.2-2.6-2.1-0.1-3
	c2.5-1,16.5-6.5,19.5-7.5c3-1.1,4-1.1,6.5-0.2c2.5,0.9,15.7,6.2,18.2,7.1C48.6,28.2,48.7,29,46.1,30.3z"/>
<path class="st0" d="M46.1,27.3c-2.6,1.3-15.8,6.8-18.7,8.3C24.6,37,23,37,20.8,35.9c-2.2-1.1-16.3-6.8-18.9-8
	C0.7,27.3,0,26.8,0,26.3v-4.9c0,0,18.4-4,21.3-5.1c3-1.1,4-1.1,6.5-0.2c2.5,0.9,17.6,3.6,20.1,4.6v4.8C48,26,47.4,26.6,46.1,27.3z"
	/>
<path class="st1" d="M46.1,22.4c-2.6,1.3-15.8,6.8-18.7,8.3c-2.8,1.5-4.4,1.5-6.6,0.4C18.6,30,4.5,24.3,1.9,23
	c-2.6-1.2-2.6-2.1-0.1-3c2.5-1,16.5-6.5,19.5-7.5c3-1.1,4-1.1,6.5-0.2c2.5,0.9,15.7,6.2,18.2,7.1C48.6,20.3,48.7,21.1,46.1,22.4z"/>
<path class="st0" d="M46.1,19c-2.6,1.3-15.8,6.8-18.7,8.3c-2.8,1.5-4.4,1.5-6.6,0.4c-2.2-1-16.3-6.7-18.9-8c-1.3-0.6-2-1.1-2-1.6
	v-4.9c0,0,18.4-4,21.3-5.1c3-1.1,4-1.1,6.5-0.2c2.5,0.9,17.6,3.6,20.1,4.6v4.8C48,17.8,47.4,18.3,46.1,19z"/>
<path class="st1" d="M46.1,14.2c-2.6,1.3-15.8,6.8-18.7,8.3c-2.8,1.5-4.4,1.5-6.6,0.4c-2.2-1.1-16.3-6.7-18.9-8s-2.6-2.1-0.1-3
	c2.5-1,16.5-6.5,19.5-7.5c3-1.1,4-1.1,6.5-0.2s15.7,6.2,18.2,7.1C48.6,12.1,48.7,12.9,46.1,14.2z"/>
<path class="st2" d="M30.3,9.5L26.1,10l-1,2.2l-1.5-2.5l-4.8-0.4L22.5,8l-1.1-2l3.4,1.3l3.1-1l-0.8,2.1L30.3,9.5z M25,20.4l-7.8-3.2
	l11.1-1.7L25,20.4z"/>
<ellipse class="st2" cx="14.2" cy="13.1" rx="5.9" ry="2.3"/>
<path class="st3" d="M35.2,10.1l6.6,2.6l-6.6,2.6V10.1z"/>
<path class="st4" d="M27.9,13l7.3-2.9v5.2l-0.7,0.3L27.9,13z"/>
</svg>
