<?xml version="1.0" encoding="utf-8"?>
<!-- Generator: Adobe Illustrator 24.3.0, SVG Export Plug-In . SVG Version: 6.00 Build 0)  -->
<svg version="1.1" id="Layer_1" xmlns="http://www.w3.org/2000/svg" xmlns:xlink="http://www.w3.org/1999/xlink" x="0px" y="0px"
	 viewBox="0 0 24 12" style="enable-background:new 0 0 24 12;" xml:space="preserve">
<style type="text/css">
	.st0{fill:#FF4A00;}
</style>
<path d="M.837 2.756h6.488v4.062H.837z" fill="#09f"/><path d="M.837 6.818H4.9v2.427H.837z" fill="#f1422a"/><path d="M4.9 6.818h2.427v2.427H4.9z" fill="#333"/><path d="M8.168 3.96h1.298v4.08H8.168zm7.418 0H13.36v1.298h.927V8.04h1.298V5.258h.927V3.96zm3.524 0h-2.226v1.298h.927V8.04H19.1V5.258h.927V3.96zm3.524 0h-2.226v1.298h.927V8.04h1.298V5.258h.927V3.96zM13 5.258V3.96h-2.967v4.08h1.298V6.927h1.113V5.63H11.32v-.37z" fill="#09f"/>
</svg>
