<svg xmlns="http://www.w3.org/2000/svg" xmlns:xlink="http://www.w3.org/1999/xlink" style="enable-background:new 0 0 24 12" id="Layer_1" x="0" y="0" version="1.1" viewBox="0 0 24 12" xml:space="preserve"><style type="text/css"/><path fill="#09f" d="M.837 2.756h6.488v4.062H.837z"/><path fill="#f1422a" d="M.837 6.818H4.9v2.427H.837z"/><path fill="#333" d="M4.9 6.818h2.427v2.427H4.9z"/><path fill="#09f" d="M8.168 3.96h1.298v4.08H8.168zm7.418 0H13.36v1.298h.927V8.04h1.298V5.258h.927V3.96zm3.524 0h-2.226v1.298h.927V8.04H19.1V5.258h.927V3.96zm3.524 0h-2.226v1.298h.927V8.04h1.298V5.258h.927V3.96zM13 5.258V3.96h-2.967v4.08h1.298V6.927h1.113V5.63H11.32v-.37z"/></svg>