<?xml version="1.0" encoding="utf-8"?>
<!-- Generator: Adobe Illustrator 24.3.0, SVG Export Plug-In . SVG Version: 6.00 Build 0)  -->
<svg version="1.1" id="Layer_1" xmlns="http://www.w3.org/2000/svg" xmlns:xlink="http://www.w3.org/1999/xlink" x="0px" y="0px"
	 viewBox="0 0 48 48" style="enable-background:new 0 0 48 48;" xml:space="preserve">
<style type="text/css">
	.st0{fill:#FF4A00;}
</style>
<path class="st0" d="M47.6,19.8H33.4l10-10c-0.8-1.2-1.5-1.9-2.3-3.1C40,5.9,38.9,5,38,4.1L28,14V0.2c-1.3-0.3-2.5-0.4-3.8-0.4
	c-1.3-0.1-2.6,0-3.8,0.4v14.2L10,4.1C8.8,4.7,7.8,5.6,6.9,6.7C6.2,7.9,5,8.7,4.2,9.8l10,10H0.4L0,23.6c-0.1,1.3,0,2.6,0.4,3.8h14.2
	L4.2,37.8c1.5,2.3,3.5,4.2,5.8,5.8l10-10v14.2c1.3,0.3,2.5,0.4,3.8,0.4c1.3,0.1,2.6,0,3.8-0.4V33.6l10,10c1.2-0.7,2.2-1.6,3.1-2.7
	c1-0.9,1.9-2,2.7-3.1l-10-10h14.2c0.3-1.3,0.4-2.5,0.4-3.8C48.1,22.6,47.9,21.2,47.6,19.8L47.6,19.8z M29.9,23.6
	c0,1.7-0.3,3.4-0.8,5c-1.6,0.6-3.3,0.9-5,0.8c-1.7,0-3.4-0.3-5-0.8c-0.6-1.6-0.9-3.3-0.8-5c0-1.7,0.3-3.4,0.8-5
	c1.6-0.6,3.3-0.9,5-0.8c1.7,0,3.4,0.3,5,0.8C29.6,20.3,29.9,21.9,29.9,23.6z"/>
</svg>
