<?xml version="1.0" encoding="utf-8"?>
<!-- Generator: Adobe Illustrator 24.3.0, SVG Export Plug-In . SVG Version: 6.00 Build 0)  -->
<svg version="1.1" id="Layer_1" xmlns="http://www.w3.org/2000/svg" xmlns:xlink="http://www.w3.org/1999/xlink" x="0px" y="0px"
	 viewBox="0 0 48 48" style="enable-background:new 0 0 48 48;" xml:space="preserve">
<style type="text/css">
	.st0{fill:#30DC80;}
</style>
<g>
	<path class="st0" d="M24,15.8c-12.6,0-22.9,9.6-24,21.9h48C46.9,25.4,36.6,15.8,24,15.8z M33.2,28.7c0-1.1,0.9-2,2-2s2,0.9,2,2
		s-0.9,2-2,2C34.1,30.7,33.2,29.9,33.2,28.7z M12.8,30.7c-1.1,0-2-0.9-2-2s0.9-2,2-2s2,0.9,2,2C14.8,29.9,13.9,30.7,12.8,30.7z"/>
	<path class="st0" d="M34,21c-0.1,0-0.3,0-0.4-0.1c-0.4-0.2-0.5-0.7-0.3-1.1l5.2-9c0.2-0.4,0.7-0.5,1.1-0.3c0.4,0.2,0.5,0.7,0.3,1.1
		l-5.2,9C34.6,20.8,34.3,21,34,21z"/>
	<path class="st0" d="M14,21c-0.3,0-0.6-0.1-0.7-0.4l-5.2-9c-0.2-0.4-0.1-0.9,0.3-1.1c0.4-0.2,0.9-0.1,1.1,0.3l5.2,9
		c0.2,0.4,0.1,0.9-0.3,1.1C14.2,20.9,14.1,21,14,21z"/>
</g>
</svg>
