<svg viewBox="0 0 32 32" xmlns="http://www.w3.org/2000/svg" xmlns:xlink="http://www.w3.org/1999/xlink"><linearGradient id="a" xlink:href="none"><stop offset="0" stop-color="#24303a"/><stop offset="1" stop-color="#394958"/></linearGradient><linearGradient id="b" x1="371.822" x2="55.227" xlink:href="none" y1="391.787" y2="187.815"><stop offset="0" stop-color="#acacac"/><stop offset="1" stop-color="#e9e9e9"/></linearGradient><filter id="c" color-interpolation-filters="sRGB" height="1.107" width="1.402" x="-.201" y="-.054"><feGaussianBlur stdDeviation="1.11"/></filter><filter id="d" color-interpolation-filters="sRGB" height="1.222" width="1.83" x="-.415" y="-.111"><feGaussianBlur stdDeviation="2.293"/></filter><radialGradient id="e" cx="355.75" cy="-334.763" gradientTransform="matrix(.92307901 -11.507692 -5.8964407 -.47303508 -2165.6993 4248.2015)" r="16.25" xlink:href="none"><stop offset="0" stop-color="#25303b"/><stop offset="1" stop-color="#25303b" stop-opacity="0"/></radialGradient><linearGradient id="f" x1="327.184" x2="311.598" xlink:href="#a" y1="311.239" y2="126.1"/><linearGradient id="g" x1="135.705" x2="151.291" xlink:href="#a" y1="311.239" y2="126.1"/><linearGradient id="h" x1="352.926" x2="92.151" xlink:href="none" y1="107.19" y2="133.35"><stop offset="0" stop-color="#e5e5e5"/><stop offset="1" stop-color="#fff"/></linearGradient><linearGradient id="i" x1="182.228" x2="182.228" xlink:href="none" y1="190.194" y2="317.94"><stop offset="0" stop-color="#fff"/><stop offset=".5" stop-color="#fff" stop-opacity=".532"/><stop offset="1" stop-color="#fff" stop-opacity="0"/></linearGradient><linearGradient id="j" x1="193.994" x2="193.994" xlink:href="none" y1="190.194" y2="126.35"><stop offset="0" stop-color="#fff"/><stop offset="1" stop-color="#fff" stop-opacity="0"/></linearGradient><filter id="k" color-interpolation-filters="sRGB" height="1.715" width="1.262" x="-.131" y="-.358"><feGaussianBlur stdDeviation="19.201"/></filter><path d="m407.2 433.212-80.56-128.86h-191.5l-80.155 128.842z" fill-opacity=".57" fill-rule="evenodd" filter="url(#k)" transform="matrix(.06275611275 0 0 .05559862817 1.49769729578 5.3520243268)"/><g transform="matrix(.08081671397 0 0 .08081671397 -2.67608348076 -4.91773175952)"><g fill-rule="evenodd"><path d="m341.153 349.75-23.105 48.268-15.9-60.104zm-212.746 0 15.73 48.268 15.9-60.104z" fill="#7f8082"/><path d="m54.985 190.194-.012.018 32.8 207.807h56.373l-4.605-48.268h28.924l3.684 48.268h118.1l3.684-48.268h28.74l-4.605 48.268h56.74l32.392-207.825z" fill="url(#b)" stroke="#d6d6d6" stroke-linejoin="round"/><path d="m135.558 317.94 16.956-63.528-1.192-128.3-31.8 64.093z" fill="url(#e)"/><path d="m257.328 113.532h70.27l-1.443 155.314h-74.255zm-50.828.098-68.445.042 1.622 154.622h69.684z" fill="#293441"/><path d="m145.14 254.4-9.58 63.53h191.625l-11.4-63.076z" fill="#2d3948"/><path d="m327.184 317.94-16.64-63.077.625-129.17 32.195 64.496z" fill="url(#f)"/><path d="m135.705 317.94 16.8-63.53-1.192-128.3-31.797 64.1z" fill="url(#g)"/><path d="m199.316 149.428 6.327 134.88h49.285l7.94-134.88z" fill="#2d3b48"/><path d="m407.2 190.194-80.55-128.844h-191.5l-80.165 128.844h64.54l31.625-63.844h52l-3.835 23.077h63.55l-3.36-23.776h51.795l32.06 64.543z" fill="url(#h)" stroke="#d6d6d6" stroke-linejoin="round"/><path d="m259.508 125.65 52.235.043 31.62 64.5-16.18 127.746h-121.54l62.822-127.746z" fill="#363f49" opacity=".45"/><path d="m268.465 190.194-62.822 127.746h-70.083l-16.035-127.745z" fill="url(#i)" opacity=".3"/><path d="m151.15 126.35h52l-3.835 23.077h63.55l5.598 40.767h-148.94z" fill="url(#j)" opacity=".2"/></g><g transform="matrix(.899979 0 0 .977746 -16.344231 563.1165)"><ellipse cx="272.593" cy="-325.399" fill="#05f0ff" filter="url(#d)" opacity=".8" rx="6.63" ry="24.805" transform="matrix(1.499289 0 0 1.307739 -75.688852 99.470993)"/><g filter="url(#c)" stroke="#06effe"><ellipse cx="289.158" cy="-326.054" fill="#fff" opacity=".9" rx="6.63" ry="24.805" stroke-width=".918" transform="matrix(1.165326 0 0 1.157833 -3.956438 51.930291)"/><ellipse cx="289.158" cy="-326.054" fill="#feffff" opacity=".9" rx="6.63" ry="24.805" stroke-width=".954" transform="matrix(1.165326 0 0 1.070709 -3.956438 23.603105)"/></g></g><g transform="matrix(.899979 0 0 .977746 -117.53684 567.59263)"><ellipse cx="272.593" cy="-325.399" fill="#05f0ff" filter="url(#d)" opacity=".8" rx="6.63" ry="24.805" transform="matrix(1.499289 0 0 1.307739 -75.688852 99.470993)"/><g filter="url(#c)" stroke="#06effe"><ellipse cx="289.158" cy="-326.054" fill="#fff" opacity=".9" rx="6.63" ry="24.805" stroke-width=".918" transform="matrix(1.165326 0 0 1.157833 -3.956438 51.930291)"/><ellipse cx="289.158" cy="-326.054" fill="#feffff" opacity=".9" rx="6.63" ry="24.805" stroke-width=".954" transform="matrix(1.165326 0 0 1.070709 -3.956438 23.603105)"/></g></g><path d="m151.15 126.35h52l-3.835 23.077h63.55l-3.36-23.776 52.235.043 31.62 64.5-16.18 127.746h-191.622l-16.035-127.745z" fill="none" stroke="#d6d6d6" stroke-linejoin="round"/><path d="m342.836 190.194h-223.47" fill="#fff" fill-rule="evenodd" opacity=".343" stroke="#fff"/></g></svg>