<?xml version="1.0" encoding="utf-8"?>
<!-- Generator: Adobe Illustrator 24.3.0, SVG Export Plug-In . SVG Version: 6.00 Build 0)  -->
<svg version="1.1" id="Layer_1" xmlns="http://www.w3.org/2000/svg" xmlns:xlink="http://www.w3.org/1999/xlink" x="0px" y="0px"
	 viewBox="0 0 48 48" style="enable-background:new 0 0 48 48;" xml:space="preserve">
<style type="text/css">
	.st0{fill:#00C4B3;}
	.st1{fill:#22D3C5;}
	.st2{fill:#0075C9;}
	.st3{fill:#00A8E1;}
</style>
<g>
	<path class="st0" d="M13.2,13.1L10.1,10l0,22.4l0,1c0,0.5,0.1,1.1,0.3,1.6L35,43.7l6.2-2.7l0,0L13.2,13.1L13.2,13.1z"/>
	<path class="st1" d="M10.4,35.1L10.4,35.1C10.4,35.1,10.4,35,10.4,35.1C10.4,35,10.4,35.1,10.4,35.1L10.4,35.1z M41.1,41L35,43.7
		l-24.6-8.7c0.5,1.8,1.5,3.8,2.6,4.9l8,8l17.8,0L41.1,41L41.1,41z"/>
	<g>
		<path class="st2" d="M10.2,10L0.6,24.4c-0.8,0.8-0.4,2.6,0.9,3.9L7,33.8l3.5,1.2c-0.2-0.6-0.2-1.1-0.3-1.6l0-1L10.2,10L10.2,10z"
			/>
		<path class="st2" d="M35.2,10.3C34.6,10.1,34,10,33.5,10l-1.1,0l-22.4,0l31,31l2.7-6.2L35.2,10.3L35.2,10.3z"/>
	</g>
	<path class="st3" d="M35.1,10.2C35.2,10.3,35.2,10.3,35.1,10.2L35.1,10.2C35.2,10.2,35.2,10.2,35.1,10.2L35.1,10.2z M40.1,12.9
		c-1.1-1.1-3.1-2.2-4.9-2.6l8.7,24.6L41.1,41l6.7-2.1l0-18.3L40.1,12.9L40.1,12.9z"/>
	<path class="st0" d="M34,6.8l-5.6-5.5c-1.3-1.3-3-1.7-3.9-0.9L10.1,10l22.4,0l1.1,0c0.5,0,1.1,0.1,1.6,0.3L34,6.8L34,6.8z"/>
</g>
</svg>
