<svg xmlns="http://www.w3.org/2000/svg" xmlns:xlink="http://www.w3.org/1999/xlink" id="Layer_1" x="0" y="0" version="1.1" viewBox="0 0 48 48" xml:space="preserve" style="enable-background:new 0 0 48 48"><style type="text/css">.st0{clip-path:url(#SVGID_2_)}.st1,.st2{fill:#39cefd}.st2{clip-path:url(#SVGID_4_)}.st3{clip-path:url(#SVGID_6_);fill:#03569b}.st4{clip-path:url(#SVGID_8_);fill:url(#SVGID_9_)}.st5{clip-path:url(#SVGID_11_)}.st6{fill:#16b9fd}.st7{fill:url(#SVGID_12_)}</style><g transform="matrix(.061615 0 0 .061615 -1.430818 -1.2754)"><g><defs><path id="SVGID_1_" d="M727.3,380.2L517.6,590l209.7,209.8H487.7L277.9,590l209.8-209.8H727.3z M487.7,20.7L98.2,410.2L218,530 L727.3,20.7H487.7z"/></defs><clipPath id="SVGID_2_"><use xlink:href="#SVGID_1_" style="overflow:visible"/></clipPath><g class="st0"><path d="M278,590l119.8,119.9l329.6-329.6H487.7L278,590z" class="st1"/></g></g><g><defs><path id="SVGID_3_" d="M727.3,380.2L517.6,590l209.7,209.8H487.7L277.9,590l209.8-209.8H727.3z M487.7,20.7L98.2,410.2L218,530 L727.3,20.7H487.7z"/></defs><clipPath id="SVGID_4_"><use xlink:href="#SVGID_3_" style="overflow:visible"/></clipPath><path d="M487.7,20.7h239.6L218,530L98.2,410.2L487.7,20.7z" class="st2"/></g><g><defs><path id="SVGID_5_" d="M727.3,380.2L517.6,590l209.7,209.8H487.7L277.9,590l209.8-209.8H727.3z M487.7,20.7L98.2,410.2L218,530 L727.3,20.7H487.7z"/></defs><clipPath id="SVGID_6_"><use xlink:href="#SVGID_5_" style="overflow:visible"/></clipPath><path d="M397.7,709.8l89.9,89.9h239.6L517.6,590L397.7,709.8z" class="st3"/></g><g><defs><path id="SVGID_7_" d="M727.3,380.2L517.6,590l209.7,209.8H487.7L277.9,590l209.8-209.8H727.3z M487.7,20.7L98.2,410.2L218,530 L727.3,20.7H487.7z"/></defs><clipPath id="SVGID_8_"><use xlink:href="#SVGID_7_" style="overflow:visible"/></clipPath><linearGradient id="SVGID_9_" x1="74525.273" x2="74614.539" y1="-109226.586" y2="-109137.328" gradientTransform="matrix(6.161500e-02 0 0 -6.161500e-02 -4159.1699 -5997.0713)" gradientUnits="userSpaceOnUse"><stop offset="0" style="stop-color:#1a237e;stop-opacity:.4"/><stop offset="1" style="stop-color:#1a237e;stop-opacity:0"/></linearGradient><path d="M575.5,648.2L517.6,590L397.7,709.8L575.5,648.2z" class="st4"/></g><g><defs><path id="SVGID_10_" d="M727.3,380.2L517.6,590l209.7,209.8H487.7L277.9,590l209.8-209.8H727.3z M487.7,20.7L98.2,410.2L218,530 L727.3,20.7H487.7z"/></defs><clipPath id="SVGID_11_"><use xlink:href="#SVGID_10_" style="overflow:visible"/></clipPath><g class="st5"><path d="M277.9,589.9l119.9-119.9l119.9,119.9L397.8,709.8L277.9,589.9z" class="st6"/></g></g><radialGradient id="SVGID_12_" cx="408387.938" cy="470734.313" r="3812.197" gradientTransform="matrix(1.540375e-02 0 0 1.540375e-02 -6174.8472 -7177.2778)" gradientUnits="userSpaceOnUse"><stop offset="0" style="stop-color:#fff;stop-opacity:.1"/><stop offset="1" style="stop-color:#fff;stop-opacity:0"/></radialGradient><path d="M727.3,380.2L517.6,590l209.7,209.8H487.7L277.9,590l209.8-209.8H727.3z M487.7,20.7L98.2,410.2L218,530 L727.3,20.7H487.7z" class="st7"/></g></svg>