<?xml version="1.0" encoding="utf-8"?>
<!-- Generator: Adobe Illustrator 24.3.0, SVG Export Plug-In . SVG Version: 6.00 Build 0)  -->
<svg version="1.1" id="Layer_1" xmlns="http://www.w3.org/2000/svg" xmlns:xlink="http://www.w3.org/1999/xlink" x="0px" y="0px"
	 viewBox="0 0 48 48" style="enable-background:new 0 0 48 48;" xml:space="preserve">
<style type="text/css">
	.st0{fill:#478AFF;}
</style>
<path class="st0" d="M24,13.6c-5.8,0-10.4,4.7-10.4,10.4S18.2,34.4,24,34.4S34.4,29.8,34.4,24S29.8,13.6,24,13.6z"/>
<path class="st0" d="M45.8,14c-1,1.6-2.5,2.8-4.3,3.4c0.8,2.1,1.2,4.3,1.2,6.6c0,10.4-8.4,18.8-18.8,18.8S5.2,34.4,5.2,24
	S13.6,5.2,24,5.2c2.8,0,5.5,0.6,7.9,1.8c0.7-1.7,2-3.2,3.7-4C32.1,1.1,28.2,0,24,0C10.8,0,0,10.8,0,24s10.8,24,24,24s24-10.8,24-24
	C48,20.4,47.2,17,45.8,14z"/>
<path class="st0" d="M39.1,4.2c-3.2,0-5.7,2.6-5.7,5.7s2.6,5.7,5.7,5.7c3.2,0,5.7-2.6,5.7-5.7S42.3,4.2,39.1,4.2z"/>
</svg>
