<?xml version="1.0" encoding="utf-8"?>
<!-- Generator: Adobe Illustrator 24.3.0, SVG Export Plug-In . SVG Version: 6.00 Build 0)  -->
<svg version="1.1" id="Layer_1" xmlns="http://www.w3.org/2000/svg" xmlns:xlink="http://www.w3.org/1999/xlink" x="0px" y="0px"
	 viewBox="0 0 48 48" style="enable-background:new 0 0 48 48;" xml:space="preserve">
<style type="text/css">
	.st0{fill:#3C5AFD;}
</style>
<path class="st0" d="M44.5,3.5c2.3,2.3,3.4,5.1,3.5,8.5v24c-0.1,3.4-1.3,6.2-3.5,8.5c-2.3,2.3-5.1,3.4-8.5,3.5H12
	c-3.4-0.1-6.2-1.3-8.5-3.5C1.3,42.2,0.1,39.4,0,36V12c0.1-3.4,1.3-6.2,3.5-8.5C5.8,1.3,8.6,0.1,12,0h24C39.4,0.1,42.2,1.3,44.5,3.5z
	 M41.2,22.8C40.4,22.1,40,21.1,40,20v-8c0-1.1-0.4-2.1-1.2-2.8C38.1,8.4,37.1,8,36,8h-4v20L16,8h-4c-1.1,0-2.1,0.4-2.8,1.2
	C8.4,9.9,8,10.9,8,12v8c0,1.1-0.4,2.1-1.2,2.8C6.1,23.6,5.1,24,4,24c1.1,0,2.1,0.4,2.8,1.2C7.6,25.9,8,26.9,8,28v8
	c0,1.1,0.4,2.1,1.2,2.8C9.9,39.6,10.9,40,12,40h4V20l16,20h4c1.1,0,2.1-0.4,2.8-1.2c0.8-0.8,1.1-1.7,1.2-2.8v-8
	c0-1.1,0.4-2.1,1.2-2.8c0.8-0.7,1.7-1.1,2.8-1.2C42.9,24,41.9,23.6,41.2,22.8L41.2,22.8z"/>
</svg>
