<?xml version="1.0" encoding="utf-8"?>
<!-- Generator: Adobe Illustrator 24.3.0, SVG Export Plug-In . SVG Version: 6.00 Build 0)  -->
<svg version="1.1" id="Layer_1" xmlns="http://www.w3.org/2000/svg" xmlns:xlink="http://www.w3.org/1999/xlink" x="0px" y="0px"
	 viewBox="0 0 48 48" style="enable-background:new 0 0 48 48;" xml:space="preserve">
<style type="text/css">
	.st0{fill:#3498DB;}
</style>
<path class="st0" d="M13.8,2.6c-1.3,0-2.6,0.7-3.2,1.9L0.5,22.1c-0.6,1.1-0.6,2.6,0,3.7l10.2,17.6c0.7,1.1,1.9,1.9,3.2,1.9h20.3
	c1.3,0,2.6-0.7,3.2-1.9l10.2-17.6c0.6-1.1,0.6-2.6,0-3.7L37.4,4.5c-0.7-1.1-1.9-1.9-3.2-1.9H13.8z M14,12.9
	C14.1,12.9,14.1,12.9,14,12.9h3.6c0.2,0,0.3,0.1,0.4,0.2l5.9,10.6c0,0.1,0,0.1,0.1,0.2c0-0.1,0-0.1,0.1-0.2L30,13.2
	c0.1-0.1,0.2-0.2,0.4-0.2h3.5c0.3,0,0.5,0.4,0.4,0.7L28.5,24l5.8,10.4c0.2,0.3-0.1,0.7-0.4,0.7h-3.5c-0.2,0-0.3-0.1-0.4-0.2
	l-5.9-10.6c0-0.1,0-0.1-0.1-0.2c0,0.1,0,0.1-0.1,0.2L18,34.8c-0.1,0.1-0.2,0.2-0.4,0.2h-3.5c-0.3,0-0.6-0.4-0.4-0.7L19.5,24
	l-5.8-10.4C13.6,13.4,13.8,13,14,12.9L14,12.9z"/>
</svg>
