<?xml version="1.0" encoding="UTF-8"?>
<svg version="1.1" xmlns="http://www.w3.org/2000/svg" width="480" height="480">
<path d="M0 0 C1.33461021 -0.0146228 1.33461021 -0.0146228 2.69618225 -0.02954102 C22.59438354 -0.20268271 41.80275279 0.06006823 61.34765625 4.23828125 C62.24726074 4.42551758 63.14686523 4.61275391 64.07373047 4.80566406 C104.01527851 13.34402711 142.01865616 32.47238052 172.078125 60.15234375 C174.17525675 62.07982801 176.3114198 63.94589482 178.47265625 65.80078125 C186.27462742 72.63336923 192.92007941 80.10739655 199.34765625 88.23828125 C200.53875 89.72134766 200.53875 89.72134766 201.75390625 91.234375 C231.8950249 129.43538139 252.13794466 178.70873025 252.5859375 227.79296875 C252.59573135 228.68398788 252.60552521 229.57500702 252.61561584 230.49302673 C252.78928339 250.40124993 252.62138171 269.69753349 248.34765625 289.23828125 C248.02619629 290.71748047 248.02619629 290.71748047 247.69824219 292.2265625 C239.81099828 327.26567224 224.70425394 360.08705071 202.34765625 388.23828125 C201.66703125 389.11097656 200.98640625 389.98367188 200.28515625 390.8828125 C163.23700797 437.3973075 109.2056776 469.0969161 50.34765625 478.23828125 C49.22319092 478.41488281 48.09872559 478.59148437 46.94018555 478.7734375 C35.63515432 480.37587185 24.44223679 480.63752272 13.03515625 480.61328125 C12.06921539 480.61273743 11.10327454 480.6121936 10.10806274 480.6116333 C-5.78912069 480.57060916 -21.07190055 479.64585488 -36.65234375 476.23828125 C-37.63847656 476.02397461 -38.62460938 475.80966797 -39.640625 475.58886719 C-74.67973474 467.70162328 -107.50111321 452.59487894 -135.65234375 430.23828125 C-136.52503906 429.55765625 -137.39773437 428.87703125 -138.296875 428.17578125 C-184.8706468 391.08041982 -216.4901466 337.17037341 -225.65234375 278.23828125 C-225.82967041 277.11744141 -226.00699707 275.99660156 -226.18969727 274.84179688 C-227.81631731 263.42722414 -228.01063328 252.13032842 -227.96484375 240.61328125 C-227.9626886 239.63861908 -227.96053345 238.66395691 -227.95831299 237.65975952 C-227.90856937 223.65175449 -227.60083221 209.98199926 -224.65234375 196.23828125 C-224.35432861 194.78711914 -224.35432861 194.78711914 -224.05029297 193.30664062 C-210.82257908 130.09104916 -174.23863302 75.06950636 -120.66943359 38.89941406 C-116.43969164 36.14320832 -112.07966254 33.66087143 -107.65234375 31.23828125 C-106.39429932 30.5407373 -106.39429932 30.5407373 -105.11083984 29.82910156 C-72.98512029 12.12613028 -36.97186463 0.33932182 0 0 Z " fill="#000000" transform="translate(227.65234375,-0.23828125)"/>
<path d="M0 0 C40.59 0 81.18 0 123 0 C123 8.91 123 17.82 123 27 C93.3 27 63.6 27 33 27 C33 38.88 33 50.76 33 63 C60.39 63 87.78 63 116 63 C116 71.91 116 80.82 116 90 C88.61 90 61.22 90 33 90 C33 104.52 33 119.04 33 134 C63.69 134 94.38 134 126 134 C126 142.91 126 151.82 126 161 C84.42 161 42.84 161 0 161 C0 107.87 0 54.74 0 0 Z " fill="#FEFEFE" transform="translate(94,163)"/>
<path d="M0 0 C33.04260579 -3.60864166 33.04260579 -3.60864166 42.06152344 1.85449219 C46.96087496 6.92815355 49.65814166 13.14784735 52.40722656 19.56738281 C54.97499184 25.10122398 58.34394526 30.0748547 61.71365356 35.14627075 C63.45645787 37.78896168 65.13869512 40.46997362 66.83203125 43.14453125 C68.45753197 45.70936486 69.85335017 47.85335017 72 50 C78.23328301 40.41694088 84.41685164 30.8055499 90.49902344 21.12573242 C91.44310378 19.62483122 92.40706547 18.13629795 93.38793945 16.65917969 C94.66652403 14.55008637 95.66421338 12.57067523 96.66479492 10.33300781 C101.17288262 0.98897284 101.17288262 0.98897284 106.06433105 -0.72213745 C112.04945293 -1.74939321 118.03703848 -1.27615679 124.0625 -0.875 C125.90015312 -0.80468867 127.73806491 -0.74082509 129.57617188 -0.68359375 C134.05721927 -0.53010053 138.52574462 -0.28919472 143 0 C139.51870555 6.53332094 135.64787038 12.6852892 131.5 18.8125 C130.10635105 20.89815706 128.71316469 22.98412326 127.3203125 25.0703125 C124.35659832 29.5017304 121.37713421 33.92217565 118.38574219 38.33496094 C115.04033893 43.27149293 111.71445747 48.22078458 108.39770508 53.17660522 C107.04909826 55.18407199 105.69377572 57.1870434 104.33178711 59.18545532 C102.39935395 62.02268004 100.49049053 64.87448093 98.5859375 67.73046875 C97.99199188 68.59102875 97.39804626 69.45158875 96.78610229 70.33822632 C96.25646881 71.14208771 95.72683533 71.9459491 95.18115234 72.77416992 C94.70978851 73.47233322 94.23842468 74.17049652 93.7527771 74.88981628 C92.74278549 77.06777226 92.74278549 77.06777226 93.7648468 79.60404968 C95.16157205 82.31341748 96.72953231 84.77662294 98.45703125 87.2890625 C99.15086914 88.30339355 99.84470703 89.31772461 100.55957031 90.36279297 C101.30303711 91.43932129 102.04650391 92.51584961 102.8125 93.625 C103.58606432 94.7524567 104.35917164 95.88022709 105.13183594 97.00830078 C106.6870964 99.27745928 108.24491617 101.54482294 109.80517578 103.81054688 C112.27157562 107.39464559 114.72722573 110.98597019 117.18115234 114.57861328 C120.89375735 120.01290563 124.61596125 125.44061938 128.33984375 130.8671875 C133.52852644 138.43216485 138.70502268 146.00487654 143.8125 153.625 C144.23942139 154.25889648 144.66634277 154.89279297 145.10620117 155.54589844 C148 159.88204191 148 159.88204191 148 161 C142.45026865 161.27328223 136.9044972 161.47210322 131.34960938 161.60424805 C129.46349857 161.65935118 127.57785319 161.7342651 125.69335938 161.82983398 C110.22071176 162.59447064 110.22071176 162.59447064 105.30493164 159.06494141 C103.16405602 156.16611603 101.61799712 153.21969952 100 150 C98.78405443 148.07674618 97.51352665 146.19806276 96.2338562 144.31669617 C94.85653446 142.29108785 93.51133605 140.24739538 92.17382812 138.1953125 C91.72338135 137.50469727 91.27293457 136.81408203 90.80883789 136.10253906 C90.35629639 135.40870117 89.90375488 134.71486328 89.4375 134 C88.5217231 132.60140616 87.60570851 131.20296792 86.68945312 129.8046875 C79.50556008 118.82727104 79.50556008 118.82727104 76.85986328 114.5859375 C76.23708496 113.58820313 75.61430664 112.59046875 74.97265625 111.5625 C74.17420288 110.26505859 74.17420288 110.26505859 73.35961914 108.94140625 C72.13953768 106.87139792 72.13953768 106.87139792 70 106 C69.76531006 106.67836914 69.53062012 107.35673828 69.28881836 108.05566406 C67.70084115 111.68343545 65.5938746 114.84591818 63.37890625 118.109375 C62.92431534 118.78978348 62.46972443 119.47019196 62.00135803 120.17121887 C59.51667195 123.88401528 56.99842403 127.57201143 54.45654297 131.24584961 C47.50966949 141.14219639 47.50966949 141.14219639 42.82250977 152.22973633 C40.91082242 155.95372666 38.48710596 158.66755537 35 161 C31.80507173 161.92851893 28.76277051 161.99705271 25.44921875 162 C24.55720261 162.02360092 23.66518646 162.04720184 22.74613953 162.07151794 C13.47912511 162.24260426 4.2357851 161.7124288 -5 161 C-3.64866162 157.29240761 -1.97706903 154.24726304 0.24609375 150.9921875 C1.31899658 149.41002441 1.31899658 149.41002441 2.41357422 147.79589844 C2.820495 147.19950562 3.22741577 146.60311279 3.64666748 145.98864746 C5.72025524 142.94162467 7.7739096 139.88125098 9.8303833 136.82266235 C11.63728832 134.13639273 13.44694451 131.45199536 15.25732422 128.76806641 C17.82794599 124.95697646 20.39566457 121.14395362 22.96142578 117.32958984 C33.8557571 101.14635406 33.8557571 101.14635406 39.26953125 93.46875 C39.98423584 92.44894043 40.69894043 91.42913086 41.43530273 90.37841797 C42.68625918 88.60267389 43.94926993 86.83533153 45.22680664 85.07861328 C46.02332642 83.94528564 46.02332642 83.94528564 46.8359375 82.7890625 C47.28501465 82.16725098 47.7340918 81.54543945 48.19677734 80.90478516 C49.31338353 78.25683334 48.73427172 76.75140478 48 74 C46.93027585 71.87505795 46.93027585 71.87505795 45.52587891 69.83764648 C45.00605942 69.04656998 44.48623993 68.25549347 43.95066833 67.44044495 C43.38171341 66.59255905 42.81275848 65.74467316 42.2265625 64.87109375 C41.63492813 63.97619736 41.04329376 63.08130096 40.43373108 62.1592865 C38.50518654 59.24683267 36.56523519 56.34217575 34.625 53.4375 C33.30254195 51.44457074 31.98068514 49.45124239 30.65942383 47.45751953 C24.76996802 38.58381791 18.84331952 29.73591123 12.84765625 20.93359375 C12.39638367 20.27090988 11.94511108 19.60822601 11.48016357 18.92546082 C9.42451012 15.91058366 7.36147192 12.90117004 5.28564453 9.90014648 C4.57649902 8.86833252 3.86735352 7.83651855 3.13671875 6.7734375 C2.21959106 5.44965088 2.21959106 5.44965088 1.28393555 4.09912109 C0 2 0 2 0 0 Z " fill="#FDFDFD" transform="translate(238,163)"/>
</svg>
