<svg xmlns="http://www.w3.org/2000/svg" class="express-logo" viewBox="0 0 1120.322 250" width="90" height="30">
  <path d="M347.47162 250V4.890464h13.29516v38.55596a50.415241 50.415241 0 0 0 4.33954-5.43506c11.10412-23.03785 34.52487-37.57744 60.09412-37.29026 30.31296-.90408 54.94623 10.31704 69.422 37.29026a119.86915 119.86915 0 0 1 2.89302 109.881816c-13.4866 30.22788-46.79895 45.25672-82.46189 39.73657a66.688515 66.688515 0 0 1-53.22317-35.12049v97.4801zm13.29516-158.403836 2.97812 28.781356c5.25425 32.75927 24.62263 52.11702 55.03132 55.75458a62.540425 62.540425 0 0 0 68.69874-39.73657c11.82737-28.18574 10.95521-60.094116-2.33995-87.620406a61.26409 61.26409 0 0 0-64.54001-35.66294 59.668671 59.668671 0 0 0-53.30827 44.07611 304.40595 304.40595 0 0 0-6.51995 34.39724zm420.10574 33.312346a71.687494 71.687494 0 0 1-70.06017 63.35941c-55.75458 2.80794-81.91945-34.21642-86.07817-76.94174a123.27271 123.27271 0 0 1 10.85948-67.890396 75.729222 75.729222 0 0 1 78.83497-42.26797 72.432023 72.432023 0 0 1 64.26348 55.12705 371.94535 371.94535 0 0 1 6.24341 40.73636H638.50796c-2.71221 38.736776 18.10269 69.879356 47.6073 77.388456 36.74782 9.04071 68.1563-6.88157 79.55823-41.82125 2.5314-8.96625 7.14748-10.23195 15.29475-7.68992zM638.4016 84.629504h130.97326c-.81898-41.26817-26.51586-71.26205-61.37045-71.60241-39.35367-.63816-67.89039 28.15383-69.60281 71.60241zm169.53986 41.183076h12.83781a51.478853 51.478853 0 0 0 30.22787 44.35265 79.026422 79.026422 0 0 0 68.61365-1.80814 30.844768 30.844768 0 0 0 18.10269-30.3236 27.973013 27.973013 0 0 0-18.82595-27.97301c-14.12477-5.25425-29.14298-8.14727-43.53366-12.763346a319.0838 319.0838 0 0 1-43.81021-16.01801c-23.18675-11.31684-24.62263-55.39295 1.62733-69.34755a92.427941 92.427941 0 0 1 88.34367-1.36142c16.95398 9.35979 26.32441 28.26019 23.53775 47.43712h-11.00839c0-.5318-.9998-.99979-.9998-1.54223-1.36142-35.09922-30.86604-46.07571-62.54043-42.99123-9.57251 1.06361-18.64513 3.95664-27.15403 8.23236a27.122123 27.122123 0 0 0-15.74147 27.15404 27.122123 27.122123 0 0 0 18.10269 25.5267c13.82697 5.07343 28.50482 8.32809 42.81041 12.306l34.56741 9.04071a40.842727 40.842727 0 0 1 28.05811 36.843536c2.76539 18.56004-6.70076 36.801-23.44203 45.25672-30.22787 17.10289-80.01558 12.58254-102.1919-9.04071-11.34875-11.41256-17.67724-26.9094-17.54961-42.99123zm306.10774-67.794666h-12.0401c0-1.62733-.6382-3.19084-.819-4.43526a39.353669 39.353669 0 0 0-32.0466-37.83271 79.026422 79.026422 0 0 0-50.7769 2.44631 30.844768 30.844768 0 0 0-22.35715 29.41953 28.398458 28.398458 0 0 0 21.71895 28.60054l55.0313 14.12478a153.05386 153.05386 0 0 1 17.5497 5.33934c17.5496 6.381666 29.462 22.676216 29.9938 41.300076a45.203539 45.203539 0 0 1-27.6539 42.96995 100.72412 100.72412 0 0 1-81.4621.81898 56.477833 56.477833 0 0 1-34.0356-54.85051h11.76356c4.42463 21.32544 19.07054 39.08777 39.16224 47.49031 20.0916 8.40254 43.0337 6.33913 61.3066-5.48824a32.333825 32.333825 0 0 0 17.3794-30.22787 27.973013 27.973013 0 0 0-19.1024-27.7922c-14.1248-5.25425-29.143-8.05155-43.5337-12.763356a320.67922 320.67922 0 0 1-44.0761-15.83719c-22.6337-11.13602-24.44184-54.8505 1.3614-68.79447a91.151606 91.151606 0 0 1 89.7902-.99979 47.330764 47.330764 0 0 1 22.7188 46.43733zM325.59311 183.84329a20.740447 20.740447 0 0 1-25.70752-9.7746l-46.79895-64.72083-6.78585-9.04071-54.30807 73.85727a19.889557 19.889557 0 0 1-24.44182 9.59378l69.96445-93.863816-65.0931-84.81247c9.6576-3.48865 20.42136.29781 25.79261 9.04071l48.50074 65.51854 48.78791-65.26328a19.464112 19.464112 0 0 1 24.261-9.05134l-25.2608 33.51443-34.21642 44.53347a9.040708 9.040708 0 0 0 0 13.48661l65.16755 86.982236zM622.66013 4.177844v12.76335a65.624902 65.624902 0 0 0-69.87935 67.79467v99.564786h-12.94417V4.975554h12.76336v36.74781c15.65637-26.80304 39.82165-36.74781 70.14525-37.47107ZM.021272 88.724414l5.700964-28.15383c15.656379-55.66949 79.473139-78.83497 123.379074-44.35265 25.70751 20.18737 32.1211 48.78792 30.86604 81.01538H15.135208C12.79526 154.79603 54.329335 189.55489 107.45679 171.81383c17.50706-6.38167 30.68522-20.93189 35.02476-39.01331 2.80794-9.04071 7.44529-10.59359 15.93292-7.9771a73.495636 73.495636 0 0 1-35.12049 53.68054 85.089014 85.089014 0 0 1-99.118064-12.66763c-12.93353-14.53959-20.740447-32.91881-22.261413-52.32975 0-3.19084-1.063613-6.16895-1.808142-9.0407Q0 96.414334 0 88.724414Zm15.294751-3.89282H146.28929c-.81898-41.72553-27.15403-71.32587-62.274525-71.60241-39.098402-.53181-67.071415 28.41973-68.794468 71.42159Z"></path>
</svg>
