<?xml version="1.0" encoding="UTF-8" standalone="no"?>
<svg
   id="Layer_1"
   data-name="Layer 1"
   viewBox="0 0 1000 1000"
   version="1.1"
   sodipodi:docname="4c5bf531-c199-498a-a5bf-e46346345c94.svg"
   xmlns:inkscape="http://www.inkscape.org/namespaces/inkscape"
   xmlns:sodipodi="http://sodipodi.sourceforge.net/DTD/sodipodi-0.dtd"
   xmlns="http://www.w3.org/2000/svg"
   xmlns:svg="http://www.w3.org/2000/svg">
  <defs
     id="defs1" />
  <sodipodi:namedview
     id="namedview1"
     pagecolor="#ffffff"
     bordercolor="#000000"
     borderopacity="0.25"
     inkscape:showpageshadow="2"
     inkscape:pageopacity="0.0"
     inkscape:pagecheckerboard="0"
     inkscape:deskcolor="#d1d1d1" />
  <path
     d="M899.63,302.72l26.72-69.21-1.15-4.28L660.86,298.88C689,258.1,679.35,225.4,679.35,225.4s-84.41,53.91-148.26,52.49-84.41-18.44-182.31,12.77-125.56,127-153.93,147.55-117.4,87.61-117.4,87.61l.19,1.2,80.26-25.56s-22,20.75-68.77,83.77c0,0-.82-.75-2.18-2l.07.43s37.6,57.46,74.49,46.82A73.31,73.31,0,0,0,174,625.29c14.85,8.27,34.24,16.4,55.65,18.64a343.88,343.88,0,0,1-26.58-36l10-6.51-1.56,1.12,30.57,11.22L238.68,585l.3-.19,30,11-3.74-26.13c3.8-2,7.61-3.87,11.4-5.63L308,445.66l129.46-88.32-10.28,25.89C400.92,447.79,351.62,463,351.62,463l-20.57,7.8c-15.31,18.09-21.74,22.54-27,83.25,12.33-3.11,24.12-3.83,34.8-1,55.33,14.9,74.49,81.58,59.59,100-3.73,4.62-12.61,12.52-23.82,21.77H352.17l-.29,18.19-2.31,1.8H326.73l-.29,17.75c-2,1.54-4,3.05-6,4.52-21.47.45-48.65-18.27-48.65-18.27,0,17,14.19,43.27,14.19,43.27l2.51-1.22-2.15,1.57s57.46,38.31,93.63,24.12C412.17,754,495.44,688.37,567.33,657.3L784.87,600l28.69-74.31L647.78,569.35V502.59l194.47-51.24L870.94,377l-223.16,58.8V369.08ZM504.81,444.19l51.62-13.6.69,2.59L541,474.9,487.52,489Zm17.82,89.3-53.5,14.1,17.29-44.81L538,489.18l.69,2.59Zm69.71-15-53.51,14.1,17.3-44.8,51.62-13.61.69,2.59Z"
     id="path1" />
</svg>
