<?xml version="1.0" encoding="utf-8"?>
<!-- Generator: Adobe Illustrator 24.3.0, SVG Export Plug-In . SVG Version: 6.00 Build 0)  -->
<svg version="1.1" id="Layer_1" xmlns="http://www.w3.org/2000/svg" xmlns:xlink="http://www.w3.org/1999/xlink" x="0px" y="0px"
	 viewBox="0 0 48 48" style="enable-background:new 0 0 48 48;" xml:space="preserve">
<style type="text/css">
	.st0{fill:#E10098;}
</style>
<g>
	<path class="st0" d="M6.5,36.6l-1.8-1l19.6-34l1.8,1L6.5,36.6z"/>
	<path class="st0" d="M4.4,32.8h39.3v2H4.4V32.8z"/>
	<path class="st0" d="M24.8,45.3L5.1,34l1-1.8l19.6,11.3L24.8,45.3z M41.8,15.8L22.2,4.4l1-1.8L42.9,14L41.8,15.8z"/>
	<path class="st0" d="M6.2,15.8l-1-1.8L24.8,2.7l1,1.8L6.2,15.8z"/>
	<path class="st0" d="M41.5,36.6l-19.6-34l1.8-1l19.6,34L41.5,36.6z M5.9,12.7h2v22.7h-2V12.7z M40,12.7h2v22.7h-2V12.7z"/>
	<path class="st0" d="M24.4,44.5l-0.9-1.5l17.1-9.9l0.9,1.5L24.4,44.5z"/>
	<path class="st0" d="M44.8,36c-1.2,2-3.8,2.7-5.8,1.6c-2-1.2-2.7-3.8-1.6-5.8c1.2-2,3.8-2.7,5.8-1.6C45.3,31.3,46,34,44.8,36
		 M10.6,16.3c-1.2,2-3.8,2.7-5.8,1.6C2.7,16.7,2,14,3.2,12c1.2-2,3.8-2.7,5.8-1.6C11.1,11.6,11.8,14.2,10.6,16.3 M3.2,36
		c-1.2-2-0.5-4.7,1.6-5.8c2-1.2,4.7-0.5,5.8,1.6c1.2,2,0.5,4.7-1.6,5.8C7,38.7,4.4,38,3.2,36 M37.4,16.3c-1.2-2-0.5-4.7,1.6-5.8
		c2-1.2,4.7-0.5,5.8,1.6c1.2,2,0.5,4.7-1.6,5.8C41.2,19,38.6,18.3,37.4,16.3 M24,48c-2.4,0-4.3-1.9-4.3-4.3c0-2.4,1.9-4.3,4.3-4.3
		s4.3,1.9,4.3,4.3c0,0,0,0,0,0C28.3,46.1,26.4,48,24,48 M24,8.6c-2.4,0-4.3-1.9-4.3-4.3c0,0,0,0,0,0C19.7,1.9,21.6,0,24,0
		s4.3,1.9,4.3,4.3C28.3,6.6,26.4,8.6,24,8.6C24,8.6,24,8.6,24,8.6"/>
</g>
</svg>
