<?xml version="1.0" encoding="utf-8"?>
<!-- Generator: Adobe Illustrator 24.3.0, SVG Export Plug-In . SVG Version: 6.00 Build 0)  -->
<svg version="1.1" id="Layer_1" xmlns="http://www.w3.org/2000/svg" xmlns:xlink="http://www.w3.org/1999/xlink" x="0px" y="0px"
	 viewBox="0 0 48 48" style="enable-background:new 0 0 48 48;" xml:space="preserve">
<style type="text/css">
	.st0{fill:#FFFF00;}
	.st1{fill:#FFFFCC;}
	.st2{fill:#CCCC00;}
</style>
<path class="st0" d="M17.7,13.9l-3.2,0.5l-2.9,1.3l-2.5,1.6l-2.4,2.9l-1.3,1.4L4.1,22l-0.3-0.8l0.6-0.9l0.1-1.2l0.4,0l0.4,0.4
	l-0.1-1.2l-0.5-0.3l0-0.5l-1.1,0.6l-1,1.2l-0.2,1.1l0.4,0.9l0.4,1.5l0.8,0.4l0.9,0l0.8-0.5l-0.6,2.8l0.6,3.2l-0.6,1.5l-2,2.2
	l0.4,1.3l1,1.5l1.8,1.3l1,0.1l1.1,0l-0.7,2.7l2.4,1l3,0.4l1-0.7l0.1-1.8l1.2-1.9l0.1-1.5l2.8,0.2l2.6-0.2l-2.6,1.6l0.4,1.9l1.6,2.6
	l1.6,0.7l1.3-0.5l0.5-1l2.7-2l0.5,0.4l4.2,0.2l0.8-0.7l0.1-1.2l-0.3-0.5l-0.2-3.2l-1.4-2.8l0.2-1.2l0.8,0.4l2.4,2.2l1.2,0.1l1.3-0.5
	l1.3-1l0.6-2.1l3.7,0.2l2.3-0.9l1.8-1.7l1.3-2.5l0.3-2.9l-0.3-3.4l-0.7-3l-0.7-1l-1-0.3l-1.8,1.9l-1.6,0.6l-1.4-2.3l-1.4-1.3
	l-0.8-0.5l-3-2.5l-2.4-1.3l-2.4-0.2l-2.8,0.5l-2.5,0.9l-1.7,1.4l-1.4,1.6l-1.4,0.4L17.7,13.9"/>
<path class="st1" d="M8.4,21.1c-2.7,3.2-2.1,7.1-1.4,10.8c-0.4-1-0.8-2-1.2-3.1L5.4,26c0-1,0.1-1.9,0.1-2.9l1.1-2.7l1.7-2.6l2.7-2.2
	l2.9-1.2l3.4-0.4l-3.2,3.6C11.7,18.4,10.2,19,8.4,21.1"/>
<path class="st1" d="M21.3,11.4c-1.9,1.9-2.9,3.3-4.1,5.4c-0.9,1.6-1.8,3-2.7,4.6c-0.5,0.8-0.5,1.4-0.6,2.3l-1.3-1.6
	c0.2-0.6,0.4-1.3,0.6-1.9l2.2-3.9l4.6-4.5C20.3,11.6,20.8,11.5,21.3,11.4 M30.7,6.8c-1.5,0.6-4,0.8-4.2,2.5
	c-0.1,1.2,0.1,1.9,0.8,3.2c-1.8-1.9-2.3-1.6-5.9-1L23,9.3l2.7-1.7l3.4-0.8L30.7,6.8"/>
<path class="st2" d="M34.9,30.4c0.5,0.3,0.5,0.5,0.4,0.8c0.4-0.2,0.8-0.3,1.2-0.5l0.8-1l0.6-1.5l-0.7-0.6L33.9,28
	c-0.1,0.2-0.2,0.4-0.2,0.7c0,0.3,0,0.6,0.1,0.9c0.1,0.2,0.2,0.4,0.3,0.5c0.2,0.1,0.3,0.2,0.5,0.2C34.6,30.4,34.8,30.4,34.9,30.4
	 M34.6,24.9c-1.6,0.5-1.6,0.6-2.1,2.2C33.1,26.1,33.6,25.6,34.6,24.9 M45.3,12.9c-0.3,0.1-0.6,0.2-0.7,0.5c-0.4,0.6-0.7,1-1.4,1.4
	c-0.3,0.2-0.7,0.3-1,0.4c-0.3,0.1-0.5,0-0.7,0.2c0.1,0,0.3,0,0.4,0.1h0.9l1.2-0.7l0.7-0.7L45.3,12.9 M19.6,16.5
	c-0.6,1.7-1.2,3.2-2.2,4.8c1.2-1.3,2-2.5,2.7-4c0.3-0.6,0.3-1.3,1.1-1c0,0.6,0.2,1.2,0.2,1.7c0.4-3,1.6-4.2,4.3-5.3L23.4,13
	l-2.2,0.5L20.2,15L19.6,16.5 M24.8,16.4c0.6,2.7,1.4,5.4,1.8,8.2c0.2,1.8,0.3,2.7-0.6,4.2c-1-0.1-1.6,0-2.6,0.4
	c-3.8,1.3-6,3.1-8.6-0.6l2.5,1.2c0.6-0.1,1.2-0.2,1.8-0.3c1-0.6,2.1-1.2,3.1-1.8l2.4-0.5l0.8-3.3l-0.6-4.4c0-0.7,0-1.4-0.1-2.1
	C24.8,17.1,24.8,16.7,24.8,16.4 M31.5,33.4c-0.3,2.2,0.7,3.4,0.3,4c-0.1,0.2-0.3,0.5-0.5,0.6c-0.7,0.3-1.6-0.1-1.7,0.1h-2.2
	l-0.9-0.4l1.4-1.6c0.4-1,0.9-1.9,1.3-2.9l0.9-2.9h0.4L31.5,33.4"/>
<path class="st2" d="M27.7,26.9c0.2,1,0.5,1.3,1,2.2c-0.3,1.6-0.8,3.5-1.4,4.9c-0.3,0.6-0.5,0.9-0.9,1.4c-0.8,0.8-1.5,1.5-2.4,2.1
	c-0.6,0.5-1.1,0.2-1.8,0.1c-0.3,0.6-0.4,0.9-1,1.2c-0.9,0.5-1.8-0.5-2.5-1.1c0.5,0.8,1.1,1.7,1.6,2.5c0.4,0.3,0.7,0.7,1.1,1l0.9,0.1
	l1.2-0.8c0.2-0.4,0.4-0.8,0.7-1.2c0.5-0.3,0.9-0.7,1.4-1c0.6-0.5,1.1-1,1.7-1.4l1.1-1.5l1-1.8c0.4-1.2,0.8-2.5,1.2-3.7
	c0-0.5,0.1-0.9,0.1-1.4c-0.5-0.2-1-0.5-1.5-0.7C28.5,27.6,28.1,27.3,27.7,26.9 M15.4,34.1c1.7,0,3.6-0.1,5.1-0.8
	c0.4-0.7,0.9-1.2,1.4-1.8c-0.5,0.9-0.7,1.5-0.8,2.5l-0.5,0.8c-1.3,0-2.6,0.1-3.9,0.1c-0.4,0-0.8-0.1-1.3-0.1c0,0-0.1-0.1-0.1-0.1
	C15.4,34.4,15.4,34.2,15.4,34.1 M15.2,32.9L15,31.6c-0.3,1.8-0.2,3-1,4.6c-0.6,0.7-1.4,1.4-2.2,1.7c0.1,0.4,0.1,0.7,0.1,1
	c-0.2,1.2-2.5,0.6-3.4,0.6l4.6,1.2l1-0.4c0.1-0.7,0.2-1.3,0.3-2l1-1.8l0.2-1.1L15.2,32.9 M12.6,22.8c0,0.9-0.1,1.2,0.3,2
	c0.5,1,1.1,1.9,1.6,2.8l0.2-1.9C14,24.8,13.3,23.8,12.6,22.8 M5.6,29.3c-0.1,0.3-0.3,0.6-0.4,0.9c0.4,1.4,0.8,2.2,1.5,3.4
	c-0.1,0.5-0.2,0.7-0.5,1.1c-0.7-0.1-1.3-0.1-2-0.1c0.8,0.6,1.5,1.2,2.3,1.8c0.4-0.1,0.8-0.1,1.1-0.2l1.1-1.1l-1.6-2.5
	C6.6,31.5,6.1,30.4,5.6,29.3 M45.3,12.4c0.5,2.1,1.1,4,1,6.2c-0.1,2.6-0.6,6-3,7.5c-2.7,1.8-5.9,0.9-8.9,0.2l3.7,1.5
	c1.1,0.1,2.3,0.1,3.4,0.2c0.8-0.2,1.6-0.5,2.3-0.7c0.6-0.5,1.2-1,1.8-1.5L47,23l0.5-3.3c-0.1-1.1-0.3-2.2-0.4-3.3l-0.8-3.2
	C46,12.9,45.7,12.7,45.3,12.4 M4.5,18.7c-1.2,0.8-1.7,1.2-1.6,2.7l0.4,1.3l0.5,0.4l0.6,0.2L5.7,23c0.2-0.6,0.4-1.2,0.6-1.9l-1.7,0.8
	H4.2c-0.1-0.2-0.3-0.4-0.4-0.7l0.5-0.8L4.6,19c0.1,0,0.2,0.1,0.4,0.1c0.1,0.1,0.3,0.2,0.4,0.3l-0.1-0.8L5,18.2
	C4.9,18.1,4.8,18,4.7,18L4.5,18.7 M32.4,6.9c1.1,1,2.5,1.9,3.3,3.2c0.3,0.5,0.7,0.7,0,1.4c0.8-0.2,1.1-0.2,1.7-0.1
	c1.1,0.1,2.2,1.7,2.2,2.9c0,0.1-0.3,0.3-1.2,0.6c0,0-0.5-0.1-0.5,0c0.1,0.2,0.2,0.3,0.4,0.4c0,0.3,0.1,0.7,0.3,1
	c0.5,0,1.1,0,1.6,0.2c0.2,0.3,0.2,0.6,0.1,0.9l0.6-0.1c-0.1-0.5-0.1-0.9-0.2-1.4c0.2-0.3,0.4-0.6,0.5-0.9L40.5,13
	c-0.5-0.5-1-1-1.5-1.4l-0.1,0c-0.6-0.3-1.1-0.7-1.7-1l-2.8-2.3L32.4,6.9 M34.2,15.3c-0.1,0.1-0.1,0.3-0.3,0.4
	c0.5,0.4,0.7,0.7,0.8,1.3c-0.5,0.3-1,0.5-1.6,0.8l-1.3,1.3c-0.6-0.3-0.7-0.5-1-1.1C30.6,18,30.3,18.1,30,18c0.2,0,0.3,0,0.4-0.1
	l0.8-0.9c0.5-0.4,1-0.7,1.5-1.1l1-0.3C33.9,15.5,34.1,15.4,34.2,15.3"/>
<path class="st2" d="M35.7,16.9c-1.6,0.9-3.2,1.8-4.1,3.5C31.6,18.2,33.7,17.3,35.7,16.9 M31.3,12.7c-1.2,0.8-2.1,2.5-2,4.2
	c-0.4-1.4-0.3-2.8,1-3.7c0.2-0.1,0.4-0.2,0.6-0.3C31,12.7,31.1,12.7,31.3,12.7"/>
<path d="M47.7,16.6c-0.2-1.4-0.6-2.8-1.1-3.7c-0.1-0.1-0.2-0.2-0.3-0.4c-0.3-0.3-0.6-0.5-1-0.6c-0.4-0.1-0.8-0.2-1.2,0
	c-0.1,0-0.2,0.1-0.2,0.2c-0.2,0.2-0.4,0.5-0.6,0.8c-0.2,0.3-0.4,0.6-0.7,0.8c-0.3,0.2-0.7,0.4-1,0.5c-0.1-0.4-0.3-0.7-0.5-1
	c-0.2-0.4-0.5-0.7-0.8-1.1c-0.2-0.3-0.5-0.5-0.7-0.7c-0.3-0.2-0.5-0.4-0.8-0.5c-0.8-0.5-1.5-1.1-2.2-1.7c-0.3-0.3-0.6-0.6-1-0.8
	c-1.7-1.4-3.3-2.1-4.9-2.2C29,6,27.2,6.5,25.1,7.3c-1,0.4-1.7,0.9-2.4,1.5c-0.6,0.6-1.1,1.2-1.7,2c-0.3,0-0.6,0.1-0.9,0.2
	c-0.3,0.1-0.7,0.4-1.1,0.7c-0.3,0.2-0.6,0.5-0.8,0.8c-0.2,0.2-0.5,0.5-0.7,0.7c-1.9,0.3-3.4,0.6-4.8,1.2c-1.4,0.5-2.7,1.3-3.9,2.4
	c-0.5,0.4-1,0.9-1.4,1.5c-0.4,0.5-0.7,1-1,1.6c-0.3,0.3-0.5,0.6-0.8,0.8c-0.3,0.2-0.6,0.4-0.9,0.6l0,0c-0.2,0.1-0.3,0.1-0.3,0.1
	c0,0,0,0,0-0.1c0.5-0.4,0.5-1.1,0.6-1.7C5,19.7,5,19.8,5.1,19.9c0.1,0.1,0.1,0.2,0.2,0.3l0.3,0.4l0.1-0.5c0.1-0.4,0.2-1,0.1-1.4
	c-0.1-0.3-0.2-0.6-0.5-0.8c0-0.1,0-0.1,0.1-0.2c0.1-0.2,0.2-0.4,0.2-0.6l0.1-0.4l-0.4,0.1c-0.5,0.1-1.7,0.7-2.5,1.6
	c-0.3,0.3-0.6,0.7-0.7,1c-0.2,0.4-0.3,0.8-0.2,1.2c0.1,0.3,0.2,0.7,0.6,1c0.1,0.2,0.1,0.4,0.2,0.6c0.1,0.2,0.1,0.4,0.2,0.6
	c0.2,0.5,0.6,0.8,1.1,0.9c0.4,0.1,0.7,0.1,1.1,0c-0.1,0.5-0.1,0.9-0.1,1.4c0,0.6,0,1.4,0.1,2.2c0,0.2,0,0.4,0.1,0.6
	C5,28,5,28.2,5.1,28.4C5,28.6,4.9,28.8,4.9,29l-0.3,0.9l-0.7,0.7c-0.2,0.2-0.5,0.5-0.7,0.7c0,0-0.1,0.1-0.2,0.2
	c-0.5,0.4-0.6,0.5-0.4,1.3c0.1,0.5,0.2,1,0.5,1.4c0.2,0.4,0.5,0.9,0.9,1.2c0.5,0.5,1.3,1.1,2.1,1.4c0.5,0.2,1,0.3,1.4,0.2
	c0,0.1,0,0.1-0.1,0.2c-0.1,0.2-0.2,0.4-0.2,0.6c-0.6,1.2,0,1.9,0.9,2.3c0.5,0.2,1,0.3,1.5,0.5c0.1,0,0.2,0.1,0.3,0.1
	c0.6,0.2,1.6,0.5,2.6,0.5c1,0.1,1.9-0.1,2.2-1.1c0.1-0.4,0.2-0.6,0.2-0.9c0-0.3,0-0.5,0-0.8c0.3-0.6,0.4-0.8,0.6-1.1
	c0-0.1,0.1-0.1,0.1-0.2c0.2-0.3,0.3-0.6,0.4-0.9c0-0.3,0-0.5,0-0.9c0,0,0-0.1,0-0.2c0.6,0.1,1.2,0.1,1.8,0.1c0.3,0,0.6,0,0.9,0
	c-0.1,0-0.2,0.1-0.2,0.1l-0.1,0.1c-0.8,0.4-0.8,1.2-0.6,2c0.2,0.7,0.7,1.4,1,1.9c0.6,0.9,1.2,1.7,1.9,2.2c0.7,0.5,1.6,0.5,2.7-0.1
	c0.6-0.3,0.7-0.6,1-1c0.1-0.1,0.2-0.3,0.2-0.4c0.2-0.2,0.8-0.6,1.4-1.1c0.2-0.2,0.4-0.3,0.6-0.5c0.1,0.1,0.3,0.2,0.5,0.2
	c0.3,0.1,0.6,0.1,1,0.1c0.3,0,1.3,0,1.9,0c0.2,0,0.4,0,0.5,0c0.6,0,1.2,0,1.6-0.3c0.4-0.2,0.7-0.7,0.7-1.4c0-0.3,0-0.5,0-0.8
	c0-0.2-0.1-0.4-0.3-0.6c0-0.3,0-0.7,0-1c0-0.3,0-0.7,0-1c0-0.4-0.1-0.7-0.1-1.1c-0.1-0.3-0.2-0.6-0.4-1c-0.1-0.2-0.2-0.5-0.3-0.7
	l-0.2,0.1l0,0l0.2-0.1v0c-0.1-0.4-0.3-0.7-0.5-1.1c0-0.1,0-0.2,0-0.2l0.4,0.3l0.5,0.5c0.4,0.4,0.8,0.7,1.2,1c0.5,0.3,1,0.4,1.6,0.4
	c0.7,0,1.4-0.3,2-0.8c0.6-0.4,1.1-1,1.3-1.7l0.2-0.6l0.1-0.4c1,0.2,2,0.2,3,0.1c1-0.1,1.9-0.3,2.7-0.8c1.2-0.6,2.1-1.6,2.7-2.7h0
	c0.7-1.2,1.1-2.7,1.3-4.2C48.1,19.8,48,18.1,47.7,16.6z M35.2,26.6c-0.6-0.2-0.9-0.5-1.4-0.8c0.1,0.6,0.2,1.2,0,1.8
	c-0.3,0.9-0.7,2.5,0.6,2.8c0.5,0.1,0.7,0.1,1.4-0.3c-0.6,0.1-0.8,0.1-1.2,0c-0.3-0.1-0.5-0.3-0.6-0.5c0.1,0.1,0.3,0.1,0.7,0.2
	c1,0.2,1.9-0.2,2-0.9c0.1-0.4,0.1-0.6,0.3-1.1c0.2,0.1,0.4,0.1,0.6,0.2l-0.4,1.2c-0.3,1-1.5,1.8-2.6,1.8c-1,0-1.6-0.6-2.3-1.2
	c-0.5-0.4-0.9-0.8-1.4-1.2c-1.2-0.4-2.2-0.8-3.3-1.7c0.8,0.9,1.3,1.5,2.5,1.9c-0.2,1.7-0.7,2.9-1.2,4.5c-0.2,0.7-2,3.6-2.5,3.9
	c-0.3,0.2-2.5,2-2.9,2.3c-0.3,0.4-0.6,1-1,1.2c-1.4,0.7-2.3-0.7-3-1.9c-0.3-0.5-1.3-2.1-0.5-2.5c0.8-0.4,1.2-0.7,2-1.2
	c0.1,0.2,0.3,0.4,0.4,0.6l-0.1-0.7c-0.1-0.4-0.1-0.8,0-1.2c0-0.4,0.1-0.8,0.1-1.2c-0.1,0.4-0.4,0.8-0.5,1.3c0,0.2-0.1,0.3-0.1,0.4
	c-1.8,0.4-3.6,0.4-5.4,0.1c-0.1-0.7-0.3-1.4-0.4-1.9c0,0.6,0,2.1,0,3c0,0.7,0,0.9-0.4,1.5c-0.3,0.5-0.5,0.7-0.9,1.5
	c0,0.6,0,0.9-0.1,1.5c-0.2,0.9-2.8,0.2-3.4,0c-0.8-0.2-2.5-0.6-2.1-1.6c0.4-1,0.6-2,0.8-3.3c-1.5-2.2-2.9-5.1-3.2-7.7
	c-0.2-2-0.1-3.3,0.4-4.5c0.7-2,1.7-3.7,3.2-5.1c2.1-1.9,4.1-2.6,7.2-3.1c-0.7,0.8-1.5,1.7-2.3,2.7c-0.8,1-1.3,1.9-1.8,3
	c-0.7,1.4-0.7,2,0.2,3.3c0.8,1.1,1.3,1.6,1.6,2.7c-0.3,0.6-0.4,1.1-0.5,1.9c1,1.1,1.7,1.8,2.7,2.1c0.9,0.2,1.7,0.2,2.6-0.3
	c1.9-1,3.6-2.2,5.8-2.3c1-2.4,0.9-4.4,0.4-6.8c-0.3-1.6-0.5-3.1-0.6-4.7c-0.4,1.7-0.5,3.2-0.2,4.8c0.4,2,0.6,4.2-0.4,6
	c-1.9,0.1-3.6,1.3-5.3,2.2c-0.7,0.4-1.4,0.4-2.2,0.2c-0.7-0.2-1.2-0.7-2-1.6c0-0.9,0.2-1.3,0.6-2.1c0.7-1.3,1.4-2.5,2.2-3.8
	c-1,1.2-1.9,2.2-2.7,3.4c-0.3-0.8-0.7-1.3-1.4-2.2c-0.7-0.9-0.8-1.3-0.2-2.4c0.5-1.1,0.9-2,1.8-3c1.5-1.6,2.9-3.4,4.5-5
	c0.9-0.9,1.3-0.8,2.4-1c1.1-0.2,2.1-0.4,3.2-0.6c-1.1,0.1-2.1,0.1-3.1,0.2l0,0c1-1.3,1.6-2,3.2-2.7c4-1.8,6.6-1.9,9.8,0.7
	c0.8,0.7,1.5,1.4,2.4,2c-0.3,0-0.6,0.1-0.9,0.2c0.4-0.1,0.9,0,1.3,0.1c0.1,0.1,0.2,0.2,0.4,0.2c0.6,0.3,0.9,0.5,1.3,1.1
	c0.4,0.6,0.8,1.2,1.1,1.8c-0.2-0.1-0.4-0.1-0.5-0.2c-0.3-0.2-0.7-0.1-1.1,0.1l0,0c-0.3,0.2-0.8,0.3-1.2,0.4c0.2,0.1,0.6,0.1,0.7,0
	c0,0,0,0,0.1,0c-0.1,0.1-0.1,0.3-0.2,0.5c0,0.2,0,0.4,0.1,0.6l0,0c0,0.1,0.1,0.1,0.1,0.2c-0.2,0.1-0.3,0.1-0.5,0.2
	c0.8-0.1,1.4-0.1,2.2,0c0,0.2,0.1,0.5,0.1,0.7l-0.3,0c0,0,0,0,0,0c-0.3-0.3-0.7-0.2-1.3-0.1c-1.6,0.4-1.2,1.3-2,2.6
	c0.8-0.9,0.7-1.9,2-2.2c0.3-0.1,0.5-0.2,0.7-0.1c-0.4,0.2-0.7,0.5-0.8,0.8c-0.3,1-0.1,1.8-0.5,2.7c0.5-0.8,0.5-1.6,0.9-2.5
	c0.2-0.3,0.7-0.8,1.1-0.8l0.3,0c0.1,0.5,0.1,1.1,0.1,1.5c-0.1,0.8-0.3,2-0.4,2.5c0.4-0.5,0.6-1.7,0.8-2.5c0.2-0.8,0.1-1.9,0-2.8
	c-0.2-1.2,1.1-1,1.8-1.6c0.5-0.4,0.9-1.1,1.4-1.6c0.5-0.5,1.3,0.2,1.5,0.7c0.9,2.1,1.2,5.3,1,7.4c-0.3,2.3-1.4,4.9-3.4,6
	C40.9,28.4,37.8,27.5,35.2,26.6L35.2,26.6z M31.5,37c-0.1,1-0.4,1-1.3,1c-0.4,0-1.9,0-2.3,0c-0.5,0-0.9-0.1-1-0.2
	c0.9-0.6,2.3-3.2,2.6-4.1c0.3-0.9,0.6-1.8,0.9-2.7c0.1,0.4,0.2,0.7,0.4,1.1c0.3,0.7,0.4,1.1,0.4,1.7l0.1,2.2
	C31.5,36.4,31.6,36.5,31.5,37L31.5,37z M5.6,29.7c0.5,1.9,1.5,3.7,2.5,5.3v0c-0.1,0.3-0.1,0.5-0.3,0.7c-0.7,1-2.6-0.5-3.2-1
	c-0.6-0.6-1-1.3-1.1-2c-0.1-0.5,0-0.5,0.3-0.9l1.4-1.4C5.3,30.5,5.6,29.7,5.6,29.7z M4.6,17.8c-0.1,0.3-0.2,0.5-0.3,0.8
	c-0.3,1,0.1,1.9-0.8,2.7c0.4,0.9,0.4,1.2,1.4,0.8c0.4-0.2,0.7-0.4,1-0.6c-0.1,0.4-0.3,0.7-0.4,1.1c0,0.1,0,0.1-0.1,0.2
	c-0.7,0.3-1.7,0.5-2-0.3c-0.2-0.4-0.3-0.7-0.4-1.2C1.8,20,3.6,18.4,4.6,17.8z M5.2,19.1C5,19,4.9,18.9,4.7,18.9c0-0.1,0-0.2,0.1-0.4
	c0-0.1,0-0.1,0-0.2C5.1,18.5,5.1,18.8,5.2,19.1L5.2,19.1z M40.8,14.5c0,0.1,0.1,0.2,0.1,0.3c0,0-0.1,0.1-0.1,0.1
	c-0.1-0.1-0.1-0.3-0.2-0.4C40.6,14.5,40.7,14.5,40.8,14.5L40.8,14.5z M6.5,20.1L6.5,20.1L6.5,20.1L6.5,20.1z M15.6,35L15.6,35
	L15.6,35z M26.3,38.2L26.3,38.2L26.3,38.2z M30.7,29.9L30.7,29.9L30.7,29.9L30.7,29.9z M4.7,21.6L4.7,21.6L4.7,21.6L4.7,21.6
	L4.7,21.6z M46.5,25L46.5,25L46.5,25z M0.5,21.3c0.2-2.1,0.6-3.1,2.1-4.7C0.7,17.9,0.3,18.6,0.5,21.3"/>
<path d="M0,19.5c0.2-1,0.4-1.3,1-2.1C0.1,18.1-0.1,18.4,0,19.5 M22.4,6.1c-1.1,0.3-1.4,0.5-1.7,1.6C21.2,6.9,21.5,6.6,22.4,6.1"/>
<path d="M24.2,5.9c-2.3,0.6-2.9,1-3.7,3.6C21.5,7.6,22.2,6.9,24.2,5.9 M29.1,15.5c0.2-1.1,0.7-2.1,2.3-2.9
	C29.2,13.2,28.8,14.1,29.1,15.5 M43.1,15.6c1.3-0.5,1.9-1.5,2.2-2.7c-0.5,1-1.3,1.9-2.4,2.4c-0.6,0.3-0.9,0.2-1.6,0.1
	C42,15.6,42.4,15.8,43.1,15.6 M34.2,16.6c-0.2-0.4-0.5-0.6-0.8-0.8c0.3-0.2,0.6-0.4,0.9-0.6c-0.7,0.3-1.6,0.3-2.2,0.7
	c-0.5,0.4-1.3,1.5-1.8,2c0.4-0.2,0.8-0.4,1.1-0.7c0,0.5,0.3,1,0.8,1.3c-0.2,0.3-0.4,0.6-0.5,0.9c1-1.2,2.6-2.2,4-2.6
	c-0.4,0-0.9,0.1-1.4,0.2C34.3,16.9,34.3,16.8,34.2,16.6 M32.7,26c-0.1,0.3-0.1,0.7-0.2,1c0.1-0.4,0.3-0.8,0.5-1.1
	c0.2-0.4,0.3-0.4,0.6-0.6c0.3-0.1,0.7-0.3,1-0.5c-0.3,0-0.7,0.1-1,0.2C32.9,25.2,32.8,25.4,32.7,26 M20.8,13.6
	c-0.8,0.8-1.6,3.5-1.8,4.6c0.4-0.9,1.4-3.5,2.1-4.1c0.2-0.2,0.4-0.3,0.5-0.4c-0.5,0.9-0.5,1.1-0.3,2.4c0.2-1.2,0.6-1.7,1.3-2.6
	c0.8-0.2,1.5-0.4,2.3-0.7c-0.9,0.1-1.8,0.2-2.7,0.3C21.5,13.1,21.3,13.1,20.8,13.6"/>
<path class="st1" d="M31.8,18.3c-0.1-0.3,0-0.7,0.3-0.8c0.3-0.1,0.7,0,0.8,0.3c0,0,0,0.1,0,0.1c-0.3,0.2-0.6,0.5-0.8,0.8
	C32,18.5,31.9,18.4,31.8,18.3 M38.7,15.6c0-0.3,0.2-0.4,0.5-0.4c0.3,0,0.4,0.3,0.4,0.5c0,0.1,0,0.1,0,0.2c-0.2,0-0.5,0.1-0.7,0.2
	C38.8,15.9,38.7,15.7,38.7,15.6"/>
</svg>
