<?xml version="1.0" encoding="utf-8"?>
<!-- Generator: Adobe Illustrator 24.3.0, SVG Export Plug-In . SVG Version: 6.00 Build 0)  -->
<svg version="1.1" id="Layer_1" xmlns="http://www.w3.org/2000/svg" xmlns:xlink="http://www.w3.org/1999/xlink" x="0px" y="0px"
	 viewBox="0 0 48 48" style="enable-background:new 0 0 48 48;" xml:space="preserve">
<path d="M32.5,26.6c-1.9,0-3.5,0.8-4.7,2.1l-2.9-2.1c0.3-0.9,0.5-1.8,0.5-2.7c0-0.9-0.2-1.9-0.5-2.7l2.9-2.1
	c1.1,1.3,2.8,2.1,4.7,2.1c3.4,0,6.3-2.8,6.3-6.3S36,8.7,32.5,8.7s-6.3,2.8-6.3,6.3c0,0.6,0.1,1.2,0.3,1.8l-2.9,2.1
	c-1.2-1.5-3-2.6-5-2.9v-3.5c2.8-0.6,5-3.1,5-6.1c0-3.4-2.8-6.3-6.3-6.3s-6.3,2.8-6.3,6.3c0,3,2.1,5.5,4.9,6.1v3.6
	c-3.8,0.7-6.7,4-6.7,7.9c0,4,2.9,7.3,6.7,8v3.8c-2.8,0.6-4.9,3.1-4.9,6.1c0,3.4,2.8,6.3,6.3,6.3s6.3-2.8,6.3-6.3
	c0-3-2.1-5.5-4.9-6.1v-3.8c1.9-0.3,3.7-1.3,4.9-2.9l3,2.1c-0.2,0.6-0.3,1.1-0.3,1.8c0,3.4,2.8,6.3,6.3,6.3s6.3-2.8,6.3-6.3
	S36,26.6,32.5,26.6z M32.5,12c1.7,0,3,1.4,3,3s-1.4,3-3,3s-3-1.4-3-3S30.8,12,32.5,12z M14.3,6.3c0-1.7,1.4-3,3-3s3,1.4,3,3
	s-1.4,3-3,3S14.3,7.9,14.3,6.3z M20.3,41.7c0,1.7-1.4,3-3,3s-3-1.4-3-3s1.4-3,3-3S20.3,40.1,20.3,41.7z M17.3,28.1
	c-2.3,0-4.2-1.9-4.2-4.2c0-2.3,1.9-4.2,4.2-4.2c2.3,0,4.2,1.9,4.2,4.2C21.5,26.2,19.6,28.1,17.3,28.1z M32.5,35.9c-1.7,0-3-1.4-3-3
	s1.4-3,3-3c1.7,0,3,1.4,3,3S34.2,35.9,32.5,35.9z"/>
</svg>
