<svg height="966" viewBox="0 0 264.58333 255.58751" width="1000" xmlns="http://www.w3.org/2000/svg"><path d="m153.33845 45.652481c-1.80934 0-3.48944.387729-5.04032.904673 3.29558 2.19706 5.10493 5.104961 6.00963 8.400551.0648.45233.19386.775444.25856 1.227759.0648.387729.12916.775444.12916 1.163171.2586 5.686509-1.48628 6.397323-2.71403 9.757543-1.87398 4.329529-1.35704 8.982133.90466 12.730079.19387.452318.45234.969275.77546 1.421618-2.45558-16.348759 11.17919-18.804304 13.69932-23.90924.19386-4.458761-3.48944-7.431263-6.39731-9.499092-2.77864-1.680104-5.29884-2.197062-7.62513-2.197062zm20.54903 3.683318c-.25858 1.486247-.0647 1.09853-.12913 1.873973-.0647.516945-.0647 1.163157-.12914 1.680102-.12914.516959-.2586 1.033904-.45236 1.550886-.12913.516945-.32309 1.033903-.51694 1.550847-.2586.516983-.45234.969301-.71082 1.486258-.19385.258585-.32309.516945-.51695.775443-.12914.193857-.25858.387715-.38771.581572-.32309.452355-.64621.904673-.96929 1.292387-.38774.387729-.71083.840046-1.16319 1.163171v.0647c-.38771.3231-.77543.710815-1.22775 1.033903-1.35702 1.033902-2.90787 1.809344-4.32952 2.778644-.45231.323088-.90468.581587-1.29238.9693-.45233.323088-.84006.646176-1.22776 1.033903-.45236.387715-.77545.775442-1.16318 1.227784-.32309.387728-.7108.840048-.96927 1.292402-.32312.452317-.6462.904661-.9047 1.35699-.25857.516944-.45233.969299-.71081 1.486245-.19385.516944-.38773.969301-.51695 1.486244-.19386.581586-.3231 1.098544-.45234 1.615514-.0647.258583-.0647.58156-.12914.840045-.0648.258584-.0648.516945-.12913.775443 0 .516944-.0647 1.09853-.0647 1.615475 0 .387727 0 .775441.0647 1.163169 0 .516946.0647 1.033892.19385 1.615476.0647.516944.19384 1.033902.32312 1.550885.19386.516944.3231 1.033902.51694 1.550847.12916.323126.32309.646213.45236.904673l-14.86252-5.75114c-2.52018-.710815-4.9757-1.35699-7.49588-1.938576-1.357-.323087-2.714-.646198-4.07102-.969299-3.87719-.77543-7.81895-1.356991-11.76076-1.744705-.12913 0-.19385-.06471-.32309-.06471-3.8772-.387714-7.68973-.581572-11.5669-.581572-2.84328 0-5.68656.129131-8.465201.323088-3.941798.258584-7.883602.775442-11.825373 1.421617-.969302.129144-1.938602.323125-2.907905.516984-2.003199.387689-3.941771.840044-5.815742 1.292386-.9693.258584-1.938602.516958-2.907903.775419-.96927.387713-1.87394.84007-2.778642 1.227784-.710811.323088-1.421619.646187-2.132431.9693-.129139.06471-.25858.06471-.32309.129144-.64621.323087-1.22779.581547-1.809341.904671-.193861.06471-.323122.129132-.452351.193859-.71081.323089-1.421618.710803-2.003201 1.033902-.45235.193858-.90467.452343-1.292389.646213-.193862.129131-.452353.258572-.581582.323088-.581579.323088-1.16316.646174-1.680111.9693-.581581.323087-1.098532.646175-1.550882.969263-.452318.323125-.904667.581585-1.29239.904672-.06474.06471-.129139.06471-.193861.129145-.387719.258583-.840039.581571-1.227758.904696 0 0-.06473.0647-.12914.129142-.32309.258584-.646212.516947-.969301.775407-.129138.06471-.258581.193857-.38772.258583-.32309.258586-.64618.581586-.969271.84007-.06473.129143-.193859.193858-.258581.258585-.38772.387715-.775441.710802-1.163161 1.09853-.06473 0-.06473.06471-.129139.129131-.38772.3231-.775439.710816-1.163159 1.098543-.06473.06471-.06473.12913-.12914.12913-.32309.323089-.64618.646213-.969301 1.033902-.129137.129143-.32309.258586-.452319.387715-.32309.387728-.710811.775443-1.09853 1.163171-.06473.129132-.19386.193858-.258582.323087-.516952.516983-.969302 1.033928-1.486252 1.550885-.06473.06471-.129138.129128-.193859.193858-1.033931 1.098529-2.132463 2.197059-3.295594 3.166352-1.163159 1.0339-2.390922 2.0032-3.618711 2.84325-1.292392.9047-2.520152 1.68011-3.877173 2.45555-1.292392.71079-2.649412 1.35701-4.071032 1.9386-1.357022.58157-2.778641 1.09854-4.200264 1.55085-2.714041.58157-5.492684 1.68011-7.883605 1.87397-.51695 0-1.098531.12915-1.615482.19385-.581578.12914-1.098529.25859-1.615479.38774-.516951.19384-1.033931.38771-1.550883.58156-.516951.19386-1.033901.45235-1.550852.71083-.45235.32308-.969299.58157-1.421651.90466-.452322.32309-.904672.7108-1.292393 1.09853-.452319.32312-.904669.77545-1.29239 1.16315-.387721.45237-.77544.84008-1.0985304 1.29239-.3230901.51695-.7108108.96931-.9693016 1.48627-.32309.45235-.6461799.96929-.9046707 1.48622-.2585815.58161-.5169498 1.09855-.7108107 1.68014-.1938599.51695-.3877199 1.09852-.5815799 1.68011-.1291382.51694-.2585813 1.0339-.3230898 1.55083 0 .0648-.064719.12916-.064719.19387-.1291392.58161-.1291392 1.35706-.1938608 1.74479-.064719.45232-.1291373.84002-.1291373 1.29238 0 .25858 0 .58155.064719.84003.064719.45236.1291371.84007.2585814 1.22782.1291382.38766.2585815.77539.4523201 1.16312v.0647c.1938599.38775.4523506.77545.7108108 1.16317.2585814.38772.5169804.77544.8400704 1.16317.3230899.32309.7108109.71078 1.0985304 1.03389.3877209.38772.7754421.71081 1.2277611 1.0339 1.550881 1.35703 1.938601 1.80938 3.941806 2.84327.323087.19387.64621.32311 1.03393.51697.06473 0 .129139.0647.193859.0647 0 .12913 0 .19387.06473.32313.06472.51696.193859 1.03389.32309 1.55086.129138.58158.323121 1.09855.516981 1.55087.19386.38773.32309.77543.516951 1.16317.06472.12915.12914.25858.19386.32309.258581.51694.51695.96932.77541 1.42162.323121.45233.64621.90466.969299 1.35703.323092.3877.710813.84004 1.098532 1.22775.387721.38773.775442.71083 1.227793 1.09852 0 0 .06473.0648.129137.0648.387722.32312.77544.64622 1.163162.90466.45232.32311.90467.58157 1.421619.84007.452351.25858.969302.51695 1.486252.71082.387721.19386.84004.32311 1.292392.45234.06473.0648.129138.0648.258582.12916.258581.0648.581548.12912.840039.19384-.193859 3.48945-.258582 6.78504.258583 7.94822.58155 1.29238 3.424821-2.64941 6.268094-7.17277-.387719 4.45875-.646211 9.6929 0 11.24381.710809 1.61545 4.587982-3.42487 7.948203-8.98215 45.815262-10.59757 87.62418 21.066 92.01829 65.78273-.84006-6.97892-9.43446-10.85608-13.37623-9.88677-1.93861 4.78183-5.2342 10.92068-10.53299 14.73324.45233-4.2649.25856-8.65901-.64619-12.92392-1.42165 5.94501-4.2003 11.50232-8.01287 16.28415-6.138857.45232-12.277729-2.52019-15.50872-6.97891-.258582-.19388-.323091-.58159-.516951-.84006-.193862-.45238-.387719-.90467-.516951-1.35703-.193859-.45232-.323089-.90467-.387719-1.35699-.06473-.45236-.06473-.90469-.06473-1.42163 0-.32312 0-.6462 0-.96928.06473-.45238.19386-.90471.323091-1.35705.129138-.45232.25858-.90467.45235-1.35701.258582-.45231.45232-.90466.775441-1.35698 1.09853-3.10178 1.09853-5.62192-.90467-7.10816-.387721-.25858-.775441-.45236-1.227791-.64622-.258584-.0647-.581582-.19386-.84004-.25857-.193861-.0647-.32309-.12916-.516951-.19387-.452351-.12914-.904702-.25859-1.357022-.32309-.45235-.12913-.90467-.19386-1.35702-.19386-.452321-.0648-.969303-.12914-1.421622-.12914-.323089 0-.64621.0647-.969301.0647-.516949 0-.969299.0648-1.421621.19386-.45235.0648-.904669.12913-1.357019.25856-.452322.12915-.904673.25859-1.357023.45238-.452319.19385-.840041.38771-1.292389.58157-.38769.19387-.775412.45232-1.227761.64618-15.056371 9.82217-6.074235 32.82674 4.200264 39.48256-3.877175.71081-7.818947 1.5509-8.917479 2.39092-.06473.0647-.129138.12915-.129138.12915 2.778642 1.68009 5.686516 3.10173 8.723616 4.32949 4.135665 1.35702 8.529786 2.58479 10.468387 3.10176v.0647c5.363424 1.09854 10.79148 1.48626 16.284139 1.16317 28.62649-2.00321 52.0834-23.78003 56.3483-52.47111.12914.58159.25858 1.09852.38772 1.68012.19387 1.16312.45232 2.3909.58155 3.61867v.0648c.12914.58158.19386 1.16315.25858 1.6801v.25859c.0648.58157.12915 1.16316.12915 1.6801.0647.71082.12914 1.42162.12914 2.13247v1.0339c0 .32312.0647.7108.0647 1.03392 0 .38773-.0647.77542-.0647 1.16314v.90467c0 .45236-.0648.84006-.0648 1.2924 0 .25856 0 .51696-.0647.84006 0 .45236-.0647.90466-.0647 1.42162-.0648.19386-.0648.38772-.0648.58159-.0647.51696-.12914.9693-.19387 1.48626 0 .19387 0 .38771-.0647.58159-.0648.64617-.19385 1.22777-.25855 1.87394v.0648.0647c-.12914.58157-.2586 1.22776-.38775 1.80933v.19387c-.12912.58156-.25858 1.16316-.3877 1.74471 0 .0648-.0647.19387-.0647.25856-.12916.5816-.2586 1.16317-.45232 1.74478v.19384c-.19386.64617-.38773 1.22776-.51698 1.80934-.0647.0647-.0647.12914-.0647.12914-.19387.64621-.38771 1.29239-.58155 1.93858-.25858.64621-.45234 1.22778-.71081 1.87398-.25857.6462-.45236 1.2924-.71083 1.87396-.25859.64622-.51697 1.2278-.77543 1.87397h-.0648c-.2586.58157-.51699 1.22779-.8401 1.80938-.0647.19383-.12912.32309-.19384.4523-.0647.0648-.0647.12914-.12914.19388-4.20026 8.46514-10.40377 15.89639-18.15809 21.71217-.51695.32309-1.03392.71082-1.55086 1.09852-.12915.12915-.32312.19388-.45235.32309-.45235.3231-.90468.64618-1.42161.96931l.19385.38772h.0647c.90466-.12913 1.80934-.25858 2.71402-.38772h.0647c1.68012-.25858 3.36023-.58158 5.04035-.90467.45231-.0648.9693-.19385 1.42161-.32312.32309-.0648.58158-.12913.90467-.19386.45235-.0648.90468-.19386 1.35704-.25857.3877-.12914.77543-.19388 1.16314-.3231 6.46195-1.55089 12.73007-3.68335 18.73965-6.20349-10.27448 14.02243-24.03847 25.33087-40.12874 32.76212 7.43127-.51696 14.86251-1.74472 22.03528-3.81254 26.0417-7.68977 47.94772-25.20165 61.06549-48.7878-2.6494 14.92714-8.5944 29.14344-17.38265 41.55041 6.26809-4.13569 12.01923-8.91753 17.25342-14.34557 14.47478-15.12097 23.97388-34.31296 27.20483-54.92665 2.19708 10.2099 2.84328 20.74293 1.87398 31.14666 46.65534-65.07192 3.87717-132.53476-14.02244-150.305141-.0648-.129133-.12914-.193858-.12914-.323089-.0648.0647-.0648.0647-.0648.129144 0-.06471 0-.06471-.0647-.129144 0 .775442-.0647 1.550848-.12914 2.326291-.19387 1.48625-.38771 2.907879-.64621 4.329529-.32308 1.42162-.71081 2.84322-1.09854 4.26488-.45232 1.35699-.96925 2.77862-1.55085 4.13565-.58158 1.29237-1.22778 2.64939-1.93859 3.9418-.71082 1.22778-1.48625 2.52016-2.32629 3.6833-.84006 1.2278-1.74474 2.39093-2.64943 3.48944-.96931 1.16318-2.00319 2.1971-3.03712 3.23101-.64618.58158-1.22775 1.09853-1.87398 1.61546-.51694.45236-.96927.84009-1.48625 1.29239-1.16314.90468-2.32629 1.74474-3.61867 2.52019-1.22778.77542-2.52014 1.55086-3.81254 2.19707-1.35702.64619-2.71404 1.22776-4.07104 1.80935-1.35702.51693-2.77864.96928-4.20031 1.35701-1.42161.3877-2.90785.71081-4.32949.96928-1.48623.25858-2.97249.38771-4.39412.51697-1.03392.0647-2.06782.12915-3.10175.12915-1.48626 0-2.97248-.12915-4.39412-.25858-1.48624-.12914-2.97251-.32314-4.39413-.64623-1.48625-.25858-2.9079-.64621-4.32953-1.09851h-.0647c1.42163-.12914 2.84327-.2586 4.26492-.51697 1.48622-.25858 2.90785-.58156 4.3295-.96931 1.42162-.38771 2.84325-.84006 4.20026-1.357 1.42162-.51696 2.77865-1.16313 4.07105-1.80936 1.357-.64621 2.58478-1.357 3.87716-2.13244 1.22776-.84005 2.45554-1.68009 3.61869-2.58479 1.16316-.90466 2.26167-1.87394 3.29562-2.90786 1.09853-.96932 2.06781-2.06784 3.03711-3.16638.96927-1.16312 1.87396-2.32628 2.71402-3.48944.12915-.19387.25859-.45232.38774-.64619.64617-1.03392 1.29235-2.06783 1.87392-3.10176.71083-1.29239 1.35704-2.58479 1.9386-3.94177.58159-1.35702 1.09855-2.71405 1.55089-4.13566.45232-1.35703.77542-2.77864 1.09853-4.200258.25859-1.486258.51694-2.90791.64619-4.329528.12914-1.486244.25857-2.972503.25857-4.394119 0-1.033928-.0648-2.06783-.12912-3.101733-.12915-1.486246-.32311-2.9079-.51696-4.329519-.25859-1.486257-.58157-2.907873-.96931-4.329529-.45231-1.356991-.90467-2.778634-1.42161-4.135623-.51699-1.357028-1.16315-2.714042-1.80938-4.006443-.71081-1.292388-1.42161-2.584776-2.19704-3.812536-.84005-1.22776-1.68013-2.390917-2.5848-3.554087-.96927-1.098531-1.93857-2.19706-2.97251-3.29559-.51694-.516947-1.09853-1.098532-1.6801-1.615476-2.90787-2.2617-5.945-4.394159-8.9821-6.332732-.45233-.258574-.84005-.452342-1.2924-.646212-2.13246-1.356992-4.13566-2.067831-6.13885-2.714007z" fill="#e0234e" fill-rule="evenodd" transform="translate(0 -41.412487)"/></svg>