<svg xmlns="http://www.w3.org/2000/svg" viewBox="0 0 128 128"><path fill="#DF234F" d="M75.4.3c-.9 0-1.8.2-2.6.5 1.7 1.1 2.6 2.6 3.1 4.3 0 .2.1.4.1.6 0 .2.1.4.1.6.1 2.9-.8 3.3-1.4 5-1 2.2-.7 4.6.5 6.5.1.2.2.5.4.7-1.3-8.4 5.7-9.6 7-12.2.1-2.3-1.8-3.8-3.3-4.9C77.8.5 76.6.3 75.4.3zm10.5 1.8c-.1.8 0 .6-.1 1 0 .3 0 .6-.1.9-.1.3-.1.5-.2.8-.1.3-.2.5-.3.8-.1.2-.2.4-.3.7-.1.1-.2.3-.3.4-.1.1-.1.2-.2.3-.2.2-.3.5-.5.7l-.6.6c-.2.2-.4.4-.6.5-.7.5-1.5.9-2.2 1.4-.2.2-.5.3-.7.5-.2.2-.4.3-.6.5l-.6.6c-.2.2-.4.4-.5.7-.2.2-.3.5-.5.7-.1.3-.2.5-.4.8-.1.3-.2.5-.3.8-.1.3-.2.6-.2.8 0 .1 0 .3-.1.4 0 .1 0 .3-.1.4v1.4c0 .3 0 .5.1.8 0 .3.1.5.2.8.1.3.2.5.3.8.1.2.2.3.2.5l-7.6-2.9c-1.3-.4-2.5-.7-3.8-1-.7-.2-1.4-.3-2.1-.5-2-.4-4-.7-6-.9h-.2c-2-.2-3.9-.3-5.9-.3-1.5 0-2.9.1-4.3.2-2 .1-4 .4-6 .7l-1.5.3c-1 .2-2 .4-3 .7-.5.1-1 .3-1.5.4-.5.2-1 .4-1.4.6-.4.2-.7.3-1.1.5-.1 0-.1 0-.2.1-.3.2-.6.3-.9.5-.1 0-.2.1-.2.1-.4.2-.7.4-1 .5-.2.1-.5.2-.7.3-.1.1-.2.1-.3.2-.3.2-.6.3-.9.5-.3.2-.6.3-.8.5-.2.2-.5.3-.7.5 0 0-.1 0-.1.1-.2.1-.4.3-.6.5l-.1.1c-.2.1-.3.3-.5.4-.1 0-.1.1-.2.1-.2.1-.3.3-.5.4 0 .1-.1.1-.1.1l-.6.6-.1.1-.6.6s0 .1-.1.1l-.5.5c-.1.1-.2.1-.2.2l-.6.6c0 .1-.1.1-.1.2l-.8.8-.1.1c-.5.6-1.1 1.1-1.7 1.6-.6.5-1.2 1-1.9 1.5s-1.3.9-2 1.3-1.4.7-2.1 1c-.7.3-1.4.6-2.1.8-1.4.3-2.8.9-4 1 0-.5-.3-.4-.6-.4-.3.1-.6.1-.8.2-.3.1-.5.2-.8.3-.3.1-.5.2-.8.4-.2.2-.5.3-.7.5-.2.2-.5.4-.7.6-.2.2-.5.4-.7.6-.2.2-.4.4-.6.7-.2.3-.4.5-.5.8-.2.2-.3.5-.5.8-.1.3-.3.6-.4.9l-.3.9c-.1.3-.1.5-.2.8v.1c-.1.3-.1.7-.1.9.1-.1.1.1.1.3v.4c0 .2.1.4.1.6.1.2.1.4.2.6.1.2.2.4.4.6.1.2.3.4.4.6.2.2.4.4.6.5.2.2.4.4.6.5.8.7 1 .9 2 1.5.2.1.3.2.5.3h.1v.2c0 .3.1.5.2.8.1.3.2.6.3.8l.3.6c0 .1.1.1.1.2.1.3.3.5.4.7.2.2.3.5.5.7l.6.6.6.6H8c.2.2.4.3.6.5.2.2.5.3.7.4.2.1.5.3.8.4.2.1.4.2.7.2 0 0 .1 0 .1.1.1 0 .3.1.4.1-.1 1.8-.1 3.5.1 4.1.3.7 1.8-1.4 3.2-3.7-.2 2.3-.3 5 0 5.8.4.8 2.3-1.8 4.1-4.6 23.4-5.4 44.8 10.8 47.1 33.7-.4-3.6-4.8-5.6-6.9-5.1-1 2.4-2.7 5.6-5.4 7.5.2-2.2.1-4.4-.3-6.6-.7 3-2.1 5.9-4.1 8.3-3.1.2-6.3-1.3-7.9-3.6-.1-.1-.2-.3-.3-.4-.1-.2-.2-.5-.3-.7-.1-.2-.2-.5-.2-.7v-.7-.5c0-.2.1-.5.2-.7.1-.2.1-.5.2-.7.1-.2.2-.5.4-.7.6-1.6.6-2.9-.5-3.6l-.6-.3c-.1 0-.3-.1-.4-.1-.1 0-.2-.1-.3-.1-.2-.1-.5-.1-.7-.2-.2-.1-.5-.1-.7-.1-.2 0-.5-.1-.7-.1h-.5c-.3 0-.5 0-.7.1-.2 0-.5.1-.7.1-.2.1-.5.1-.7.2-.2.1-.4.2-.7.3l-.6.3c-7.7 5-3.1 16.8 2.1 20.2-2 .4-4 .8-4.6 1.2l-.1.1c1.4.9 2.9 1.6 4.5 2.2 2.1.7 4.4 1.3 5.4 1.6 2.7.6 5.5.8 8.3.6 14.6-1 26.6-12.2 28.8-26.8.1.3.1.6.2.9.1.6.2 1.2.3 1.9.1.3.1.6.1.9v.1c0 .3.1.6.1.9 0 .4.1.7.1 1.1V91.6c0 .3-.1.5-.1.8v.3c0 .3-.1.6-.1 1-.1.3-.1.6-.2.9v.1c-.1.3-.1.6-.2.9v.1c-.1.3-.1.6-.2.9v.1l-.3.9v.1c-.1.3-.2.7-.3 1-.1.3-.2.6-.4 1-.1.3-.2.7-.4 1-.1.3-.3.6-.4 1-.1.3-.3.6-.4.9 0 .1-.1.2-.1.2s0 .1-.1.1c-2.1 4.3-5.3 8.1-9.3 11.1-.3.2-.5.4-.8.6-.1.1-.2.1-.2.2-.2.2-.5.3-.7.5l.1.2c.5-.1.9-.1 1.4-.2.9-.1 1.7-.3 2.6-.5.2 0 .5-.1.7-.2.2 0 .3-.1.5-.1s.5-.1.7-.1c.2-.1.4-.1.6-.2 3.3-.8 6.5-1.9 9.6-3.2-5.3 7.2-12.3 13-20.5 16.8 3.8-.3 7.6-.9 11.3-2 13.3-3.9 24.5-12.9 31.2-25-1.4 7.6-4.4 14.9-8.9 21.3 3.2-2.1 6.1-4.6 8.8-7.3 7.4-7.7 12.3-17.6 13.9-28.1 1.1 5.2 1.5 10.6 1 15.9 23.9-33.3 2-67.8-7.2-76.9 0-.1-.1-.1-.1-.2v0c0 .4 0 .8-.1 1.2-.1.8-.2 1.5-.3 2.2-.2.7-.4 1.5-.6 2.2-.2.7-.5 1.4-.8 2.1-.3.7-.6 1.4-1 2-.4.6-.8 1.3-1.2 1.9-.4.6-.9 1.2-1.4 1.8-.5.6-1 1.1-1.6 1.7-.3.3-.6.6-1 .8-.3.2-.5.4-.8.7-.6.5-1.2.9-1.9 1.3-.6.4-1.3.8-2 1.1l-2.1.9c-.7.3-1.4.5-2.1.7-.7.2-1.5.4-2.2.5-.8.1-1.5.2-2.2.3-.5 0-1.1.1-1.6.1-.8 0-1.5-.1-2.2-.1-.8-.1-1.5-.2-2.2-.3-.8-.1-1.5-.3-2.2-.6.7-.1 1.5-.1 2.2-.3.8-.1 1.5-.3 2.2-.5.7-.2 1.5-.4 2.1-.7l2.1-.9c.7-.3 1.3-.7 2-1.1.6-.4 1.3-.9 1.9-1.3.6-.5 1.2-1 1.7-1.5.6-.5 1.1-1.1 1.6-1.6.5-.6 1-1.2 1.4-1.8.1-.1.1-.2.2-.3.3-.5.7-1.1 1-1.6.4-.7.7-1.3 1-2 .3-.7.6-1.4.8-2.1l.6-2.1c.1-.8.3-1.5.3-2.2.1-.8.1-1.5.1-2.2 0-.5 0-1.1-.1-1.6-.1-.8-.2-1.5-.3-2.2-.1-.8-.3-1.5-.5-2.2-.2-.7-.5-1.4-.7-2.1-.3-.7-.6-1.4-.9-2-.4-.7-.7-1.3-1.1-2-.4-.6-.9-1.2-1.3-1.8-.5-.6-1-1.1-1.5-1.7-.3-.3-.6-.6-.9-.8-1.5-1.2-3-2.2-4.6-3.2-.2-.1-.4-.2-.7-.3-1.3-1.1-2.3-1.4-3.3-1.8z"/></svg>