<?xml version="1.0" encoding="utf-8"?>
<!-- Generator: Adobe Illustrator 24.3.0, SVG Export Plug-In . SVG Version: 6.00 Build 0)  -->
<svg version="1.1" id="Layer_1" xmlns="http://www.w3.org/2000/svg" xmlns:xlink="http://www.w3.org/1999/xlink" x="0px" y="0px"
	 viewBox="0 0 48 48" style="enable-background:new 0 0 48 48;" xml:space="preserve">
<style type="text/css">
	.st0{fill:#009438;}
	.st1{fill:#FEFEFE;}
</style>
<path class="st0" d="M3,24V12.6c0-0.4,0.2-0.8,0.6-1L23.3,0.2c0.4-0.2,0.8-0.3,1.1,0l19.8,11.5c0.3,0.2,0.6,0.6,0.5,1v22.9
	c0,0.4-0.2,0.8-0.5,1l-17.1,9.9c-0.9,0.5-1.8,1.1-2.7,1.6c-0.4,0.2-0.8,0.2-1.2,0L3.5,36.4C3.2,36.2,3,35.9,3,35.5V24L3,24z"/>
<path class="st1" d="M17.2,19.8v13.4c0,1.5-1.2,2.8-2.8,2.8c-1,0-1.7-0.4-2.2-1.3c-0.3-0.4-0.4-0.8-0.4-1.3V14.8
	c0-1.2,0.8-2.1,1.7-2.5s2-0.3,2.9,0c0.9,0.3,1.6,0.8,2.2,1.6L30.5,28c0,0,0.1,0.1,0.2,0.2V14.7c0-1.4,1-2.5,2.4-2.7
	c1.7-0.2,2.9,1,3.1,2.3v18.9c0,1.1-0.5,1.8-1.4,2.3c-0.7,0.4-1.4,0.4-2.1,0.4c-1.1-0.1-2.1-0.5-2.9-1.2c-0.4-0.4-0.8-0.9-1.2-1.3
	L17.2,19.9C17.2,19.9,17.2,19.8,17.2,19.8L17.2,19.8z"/>
</svg>
