<?xml version="1.0" encoding="utf-8"?>
<!-- Generator: Adobe Illustrator 24.3.0, SVG Export Plug-In . SVG Version: 6.00 Build 0)  -->
<svg version="1.1" id="Layer_1" xmlns="http://www.w3.org/2000/svg" xmlns:xlink="http://www.w3.org/1999/xlink" x="0px" y="0px"
	 viewBox="0 0 48 48" style="enable-background:new 0 0 48 48;" xml:space="preserve">
<style type="text/css">
	.st0{fill:#539E43;}
</style>
<g>
	<path class="st0" d="M24,47.9c-0.7,0-1.3-0.2-1.8-0.5l-5.9-3.5c-0.9-0.5-0.4-0.7-0.2-0.7c1.2-0.4,1.4-0.5,2.6-1.2
		c0.1-0.1,0.3,0,0.4,0l4.5,2.7c0.2,0.1,0.4,0.1,0.5,0l17.6-10.2c0.2-0.1,0.3-0.3,0.3-0.5V13.8c0-0.2-0.1-0.4-0.3-0.5L24.2,3.2
		c-0.2-0.1-0.4-0.1-0.5,0L6.1,13.3c-0.2,0.1-0.3,0.3-0.3,0.5v20.3c0,0.2,0.1,0.4,0.3,0.5l4.8,2.8c2.6,1.3,4.2-0.2,4.2-1.8v-20
		c0-0.3,0.2-0.5,0.5-0.5h2.2c0.3,0,0.5,0.2,0.5,0.5v20c0,3.5-1.9,5.5-5.2,5.5c-1,0-1.8,0-4-1.1l-4.6-2.6c-1.1-0.7-1.8-1.9-1.8-3.2
		V13.8c0-1.3,0.7-2.6,1.8-3.2L22.2,0.5c1.1-0.6,2.6-0.6,3.7,0l17.6,10.2c1.1,0.7,1.8,1.9,1.8,3.2v20.3c0,1.3-0.7,2.6-1.8,3.2
		L25.8,47.5C25.3,47.8,24.6,47.9,24,47.9L24,47.9z M29.4,34c-7.7,0-9.3-3.5-9.3-6.5c0-0.3,0.2-0.5,0.5-0.5h2.3
		c0.3,0,0.5,0.2,0.5,0.4c0.4,2.3,1.4,3.5,6,3.5c3.7,0,5.3-0.8,5.3-2.8c0-1.1-0.4-2-6.2-2.6c-4.8-0.5-7.8-1.5-7.8-5.4
		c0-3.6,3-5.7,8-5.7c5.6,0,8.4,1.9,8.8,6.2c0,0.1,0,0.3-0.1,0.4c-0.1,0.1-0.2,0.2-0.4,0.2h-2.3c-0.2,0-0.4-0.2-0.5-0.4
		c-0.5-2.4-1.9-3.2-5.5-3.2c-4,0-4.5,1.4-4.5,2.5c0,1.3,0.6,1.7,6,2.4c5.4,0.7,8,1.7,8,5.5C38.2,31.8,35,34,29.4,34L29.4,34z"/>
</g>
</svg>
