<svg xmlns="http://www.w3.org/2000/svg" xmlns:xlink="http://www.w3.org/1999/xlink" id="Layer_1" x="0" y="0" version="1.1" viewBox="0 0 48 48" xml:space="preserve" style="enable-background:new 0 0 48 48"><style type="text/css">.st0{fill:#b1db9e;stroke:#b1db9e;stroke-width:.5;stroke-linecap:round}.st0,.st1,.st2{fill-rule:evenodd;clip-rule:evenodd}.st1{fill:#85cb65;stroke:#85cb65;stroke-width:.5;stroke-linecap:round}.st2{fill:#75b35b;stroke:#75b35b}.st2,.st3,.st4{stroke-width:.5;stroke-linecap:round}.st3{fill-rule:evenodd;clip-rule:evenodd;fill:#6fb950;stroke:#6fb950}.st4{fill:#6fb850;stroke:#6fb850}.st4,.st5,.st6{fill-rule:evenodd;clip-rule:evenodd}.st5{fill:#77c656;stroke:#77c656;stroke-width:.5;stroke-linecap:round}.st6{fill:#fff}</style><symbol id="A" viewBox="-45.2 -46.2 90.5 92.5"><g><path d="M-40.4-0.6c12.6,0.3,17,0.9,26.3,1.8C-9,11.6-9.2,9.4-7,21.7c-8.3-9.5-20.9-19.5-33.8-22.3" class="st0"/><path d="M-39-46c11.1,5.7,38.8,24.2,46.4,27.9c4-1,9.8-3.6,17.8-0.5C16.3-17.6,8.7-7.7-0.2-0.9 c-8-20.3-21.4-32-27.2-38.3" class="st1"/><path d="M-44.8-19.4c15.4,3.1,20.6,4.9,31.7,8C-6,3.5-8,10.5-9.5,19.9C-16.7,2.7-29.8-13.2-45-19.4" class="st2"/><path d="M-38.8-45.9c8.9,5.2,20.7,21,25.6,34c1.8,5.2,4.5,17.7,3.6,31.8C-8,28.7,3.4,54.3,28.8,43.3 c-12.9,0-19.2-4.9-25.9-15.9C2.5,27.2-3.8,8.9-0.2-0.9C-8.7-29.1-32.1-42.9-39-46" class="st3"/><path d="M24.3,36.6c10.3,0,18.5-7,20.5-18.2c0.1-0.7,1.6,8.3-8.2,19.3c-0.7,0.7-6.7,1.6-12.1-1" class="st0"/></g><g><path d="M31.5-3c2.2,1.6,3.6,2.9,4.9,4.4c1.3,1-0.9-3.6-1.3-4.2c0.7-3.4-1.4-8.5-1.7-8.6c-1.6-1.6-30,9.4-20.2,35.4 C12.3,2.2,22.5-2,31.5-3L31.5-3z" class="st4"/><path d="M28.8,43.3c3.1-1.3,5.1-3.6,7.8-5.7c0.1-0.1-18.1,2.5-23.4-13.7c-1.8-2.9-8.3-26.7,20.1-35.5 c-1.3-2.9-6.7-6.6-8.1-7.1c-8.9,1-19,6.1-25.2,17.2C-5,7.5-2.4,45.1,28.8,43.3L28.8,43.3z" class="st5"/></g><ellipse cx="31" cy="-8.8" class="st6" rx="1.3" ry="1.6"/></symbol><use width="90.5" height="92.5" x="-45.2" y="-46.2" transform="matrix(0.5162 0 0 0.5162 24.004 24.0041)" xlink:href="#A" style="overflow:visible"/></svg>