<svg xmlns="http://www.w3.org/2000/svg" xmlns:xlink="http://www.w3.org/1999/xlink" id="Layer_1" x="0" y="0" version="1.1" viewBox="0 0 48 48" xml:space="preserve" style="enable-background:new 0 0 48 48"><style type="text/css">.st0{fill:#f60}</style><path d="M44.8,19.2H29.7c-0.8,0-1.4-0.6-1.4-1.4l0,0V2.1c0-1.2-0.9-2.1-2.1-2.1h-5.4c-1.2,0-2.1,0.9-2.1,2.1v15.6	c0,0.8-0.7,1.5-1.5,1.5l-4.9,0c-0.8,0-1.5-0.7-1.5-1.5l0-15.6C10.9,0.9,10,0,8.8,0H3.4C2.2,0,1.3,0.9,1.3,2.1v44	c0,1,0.8,1.9,1.9,1.9h41.6c1,0,1.9-0.8,1.9-1.9v-25C46.7,20,45.9,19.2,44.8,19.2C44.8,19.2,44.8,19.2,44.8,19.2L44.8,19.2z M37.7,35.7c0,1.3-1.1,2.4-2.4,2.4H31c-1.3,0-2.4-1.1-2.4-2.4v-4.3c0-1.3,1.1-2.4,2.4-2.4h4.3c1.3,0,2.4,1.1,2.4,2.4L37.7,35.7z" class="st0"/></svg>