<?xml version="1.0" encoding="utf-8"?>
<!-- Generator: Adobe Illustrator 24.3.0, SVG Export Plug-In . SVG Version: 6.00 Build 0)  -->
<svg version="1.1" id="Layer_1" xmlns="http://www.w3.org/2000/svg" xmlns:xlink="http://www.w3.org/1999/xlink" x="0px" y="0px"
	 viewBox="0 0 48 48" style="enable-background:new 0 0 48 48;" xml:space="preserve">
<style type="text/css">
	.st0{fill:#C7402B;}
</style>
<path class="st0" d="M41.5,7.6L17.8,33.1l29.7-13.7C46.7,15,44.6,10.9,41.5,7.6L41.5,7.6z M23.9,0c-3.2,0-6.3,0.6-9.2,1.8l-3.2,26.7
	L27.4,0.3C26.3,0.1,25.1,0,23.9,0L23.9,0z M47.8,20.9L19.6,36.7L46,33.5c1.3-3,2-6.2,1.9-9.5C48,23,47.9,22,47.8,20.9L47.8,20.9z
	 M37.4,44c3.2-2.1,5.8-5,7.6-8.3l-24.8,4.9L37.4,44z M28.8,0.5L15.1,30.4L40.6,6.7C37.4,3.6,33.3,1.4,28.8,0.5L28.8,0.5z M26,48
	c2.6-0.2,5.1-0.9,7.5-1.9l-13.9-1.6L26,48L26,48z M2,14.2c-1.1,2.4-1.8,5.1-2,7.7l3.7,6.6L2,14.2z M12.6,2.8
	c-3.4,1.8-6.3,4.4-8.5,7.6l3.5,17.5L12.6,2.8z"/>
</svg>
