<?xml version="1.0" encoding="utf-8"?>
<!-- Generator: Adobe Illustrator 24.3.0, SVG Export Plug-In . SVG Version: 6.00 Build 0)  -->
<svg version="1.1" id="Layer_1" xmlns="http://www.w3.org/2000/svg" xmlns:xlink="http://www.w3.org/1999/xlink" x="0px" y="0px"
	 viewBox="0 0 48 48" style="enable-background:new 0 0 48 48;" xml:space="preserve">
<style type="text/css">
	.st0{fill:#6DB33F;}
</style>
<g id="Layer_2_1_">
	<g id="logos">
		<path class="st0" d="M43.7,2.8c-0.7,1.6-1.5,3.1-2.6,4.5C31.9-2.2,16.8-2.5,7.3,6.7s-9.8,24.4-0.6,33.9c0.3,0.3,0.6,0.6,1,1
			l0.9,0.8c10.1,8.5,25.2,7.2,33.7-2.9c3.3-3.9,5.2-8.7,5.6-13.7C48.5,19.7,46.7,12,43.7,2.8z M11.1,41.7c-0.7,0.9-2,1-2.9,0.3
			c-0.9-0.7-1-2-0.3-2.9c0.7-0.9,2-1,2.9-0.3C11.7,39.6,11.8,40.9,11.1,41.7z M43.6,34.6C37.7,42.4,25,39.8,17,40.2
			c0,0-1.4,0.1-2.9,0.3c0,0,0.5-0.2,1.2-0.5c5.7-2,8.4-2.4,11.8-4.2c6.5-3.3,13-10.6,14.2-18.1c-2.5,7.2-10,13.4-16.8,16
			c-4.7,1.7-13.1,3.4-13.1,3.4l-0.3-0.2c-5.7-2.8-5.9-15.3,4.5-19.3c4.6-1.8,8.9-0.8,13.9-2c5.3-1.2,11.4-5.2,13.9-10.4
			C46.2,13.6,49.6,26.6,43.6,34.6z"/>
	</g>
</g>
</svg>
