<svg xmlns="http://www.w3.org/2000/svg" viewBox="0 0 1896.08 915.85"><defs><style>.cls-1{fill:#fd9306;}.cls-2{fill:#055494;}.cls-3{fill:#fefefe;}</style></defs><title>lamp_1</title><g id="Layer_2" data-name="Layer 2"><g id="Layer_1-2" data-name="Layer 1"><path class="cls-1" d="M1678.51,229.36c61.5,48.93,93.42,114.51,107.69,189.91,7.82,41.36,7.83,82.84-3.63,123.61-19.11,68-66,110-129.52,135.6-25.41,10.25-52.09,15.82-79.13,19.9-7.12,1.07-9.58.13-7.8-7.8,12.56-55.79,9-112.11,4-168.27-3.25-36.9-30.89-65-70.93-75.5-7.12-1.87-14.36-3.27-21.49-5.11-10.39-2.67-15.22-10-11-19.55,13.2-29.82,26.53-58.85,64.81-65.5,44.3-7.71,82.39-28.22,111.15-64a201.29,201.29,0,0,0,28.49-47.85C1673.37,239.72,1674.09,233.9,1678.51,229.36Z"/><path class="cls-1" d="M914.48,499c51.65,0,103.31.41,155-.13,41.49-.44,70.12,26.13,69.06,67.9-1.8,70.69-.65,141.46-.3,212.2,0,8.81-1.76,12-11.24,11.68-21.24-.75-42.55-.74-63.79,0-9.69.36-11.14-3.26-11.1-11.85.34-69.87.22-139.74.22-209.61,0-23-16.09-39.15-39.06-39.19-28.91-.06-28.91-.06-28.91,28.26,0,73.34-.17,146.68.21,220,.05,9.34-1.71,12.83-11.92,12.4-21.23-.89-42.54-.74-63.79-.09-9.66.3-13.2-1.66-13.13-12.46.53-78.55.08-157.1.55-235.65.06-10-2-13.41-12.44-12.73a386.7,386.7,0,0,1-45.55,0c-8.83-.47-10.51,2.42-10.48,10.74.35,78.12-.19,156.23.63,234.34.15,13.76-4,16.49-16.49,15.84-19.91-1-39.92-.51-59.88-.15-6.81.13-9.94-1-9.92-9q.42-136.71-.05-273.4c0-9.21,4.15-9.31,11-9.29C806.83,499.09,860.66,499,914.48,499Z"/><path class="cls-2" d="M1896.08,475.77C1895,637,1783.33,767.52,1622.94,795.22c-9.82,1.69-19.58,3.77-29.37,5.65-9.47,1.81-14.57-1.25-15.54-11.7-2.22-24.14,2-29.38,28.63-34.71,61-12.21,117.19-35.36,162.57-79.07,64-61.62,88.09-138.84,81.21-225.76-8.92-112.85-62.81-203.74-142.44-281.24-21.77-21.18-45.2-40.38-69.07-59.09a82.27,82.27,0,0,0-9.68-6.56c-4.29-2.48-9.31-3.89-13.51-.86-4.75,3.44-.79,8.07.3,11.82a190.76,190.76,0,0,1,4.22,90.07c-9.61,50.78-40.45,80.86-90.6,91.55-40.34,8.6-73.19,28.44-96.42,63.08-7.77,11.58-13.27,24.32-18.88,37-8.79,19.92-24,24.41-41.9,12.28-5.44-3.68-9.6-8.61-6-15.3,15.62-29.36,28-60.59,51.41-85.39,26.58-28.18,59.23-45,96.64-52.74,44.53-9.26,63.22-32.19,64.61-77.65,1.6-52.27-15.38-99.76-35.11-146.74-3.82-9.08-12-21-5.33-27.39,7.5-7.13,18.22,2.91,26.6,7.71,66.41,38,129.07,81.31,183.2,135.79,77,77.49,126.9,169.21,143.44,278A399.13,399.13,0,0,1,1896.08,475.77Z"/><path class="cls-2" d="M367.33,645.19c0-45.13.21-90.27-.2-135.4-.07-8.4,2.05-10.85,10.69-10.81,82,.34,164.08.07,246.12.26,38.2.08,63.25,25.61,63.25,63.73,0,71.61-.22,143.22.24,214.83.07,10.19-2.49,13.16-12.76,12.77-21.67-.83-43.41-.7-65.09,0-8.83.27-10.73-2.68-10.59-10.93.48-28.64-.07-57.29.36-85.93.11-7.5-1.11-10.58-9.61-10.48q-65.75.72-131.52.13c-7.63-.07-8.21,2.83-8.16,8.92.23,29.08-.15,58.16.27,87.23.11,8-1.3,11.4-10.43,11.06-20.37-.75-40.81-.68-61.19,0-8.89.29-11.73-1.82-11.62-11.24C367.62,734.6,367.33,689.89,367.33,645.19Zm157.37,7.65c21.24,0,42.51-.62,63.72.28,9.72.41,11.18-2.85,11-11.55-.6-26-.16-52-.24-78-.07-22.49-9.79-33.22-31.87-33.51-36.41-.47-72.84.08-109.25-.37-7.68-.09-8.07,3.14-8,9.21.24,34.68.37,69.36,0,104-.08,7.64,1.17,10.47,9.7,10.18C481.32,652.35,503,652.84,524.7,652.84Z"/><path class="cls-2" d="M1203.51,644.19c0-44.26.24-88.52-.2-132.78-.09-9.05,1.22-12.58,11.68-12.51,81.59.51,163.19.15,244.78.32,38.62.08,63.35,25,63.57,63.42.08,14.75.05,29.51,0,44.26-.09,34.34-19.09,53.13-54,53.19-53,.09-105.91.28-158.85-.24-9.16-.09-11.53,2-11.38,11.23.57,36.44,0,72.9.43,109.34.1,8.08-2.1,10.25-10.12,10.08-25.17-.52-50.36-.6-75.51,0-8.86.23-10.63-2.75-10.56-10.95C1203.7,734.45,1203.51,689.32,1203.51,644.19ZM1356.17,529.9v-.12c-16,0-32,.24-48.05-.12-6.37-.14-9.15,1.21-9,8.43.43,28.12.29,56.26.16,84.39,0,4.55.48,7.17,6.12,7.12,33.76-.36,67.54.19,101.27-.82,16-.48,25.78-12.3,26.06-28.26.22-13,.17-26,0-38.95-.25-20.45-10.3-30.9-31.08-31.58C1386.49,529.5,1371.32,529.9,1356.17,529.9Z"/><path class="cls-2" d="M167.24,790.31q-59.21,0-118.41,0C19.59,790.26.05,770.75.05,741.51c0-76.33.24-152.65,0-229C0,504,1.89,501.46,10.66,501.7c22.53.63,45.12.7,67.64-.17C89,501.11,90.93,505,90.88,514.78c-.4,75-.23,150.05-.21,225.07,0,18.64,1.27,19.83,20,19.82,59.43,0,118.86.18,178.28-.25,9.94-.07,13.46,2.3,13,12.8-.81,18.06-.12,18.09-18.86,18.09Z"/><path class="cls-1" d="M848,886.07c5.82-8.19,7.5-15.42,9.24-22.38,2-8.18,7.67-8.19,13.91-7.82,8.16.47,4.82,6.76,5,10.78.41,9.51.23,19,.24,28.56,0,2.87,1.07,6.37-3.55,6.91s-6-2.08-6.2-6.15c-.39-7.74-1-15.48-1.56-25.08-6.1,6.5-5.56,13.75-8.38,19.5-2.08,4.23-.34,11.3-7.6,11.79-7.92.54-6-6.95-8.1-11.06-2.51-4.9-1.83-11.18-6.83-15.62-5.45,6-2,13.26-3.11,19.7-.51,3.12.77,7.28-4.85,7.25-5.1,0-5.35-3.39-5.36-7q0-15.59.14-31.17c0-3.81-.57-8.55,5.4-8.21,4.71.26,10.55-2.26,12.76,5.28C841.41,869.15,844.56,876.64,848,886.07Z"/><path class="cls-1" d="M983.81,879.62c-.7-9.91,4.24-16.49,12.72-20.55,11.71-5.61,27.25-3.73,35.14,4.18,7.23,7.24,8.64,15.58,3.82,24.78-1.1,2.11-3.88,3.92-1.58,6.71,1.77,2.13,6.3,3.24,3.95,6.89s-6.33,1.52-9.33.3c-4.31-1.74-8.14-.53-12.43.16C997.9,905,984.07,895.1,983.81,879.62Zm11-.1a13.58,13.58,0,0,0,3.42,10.86c5.89,6.7,25.33,2.67,27.94-6.1,1.74-5.86,1.73-12.33-3.14-16.83-6-5.51-13.47-5.26-20.64-2.71C996.2,866.93,994.55,872.26,994.77,879.52Z"/><path class="cls-2" d="M1663.47,889.81c1.63-4,3.51-7.84,4.81-11.9,1.83-5.73,3.32-11.46,11.34-7.27,2.54,1.32,3.76-1.27,5.66-1.84,3.65-1.09,3.35-10.9,9.16-5,1.15,1.18,14.85,7.72,1.5,14.41-2.4,1.21-2.13,10.71.66,15.75,1.14,2,6.26,1.73,4.21,6.18-1.13,2.48-3.61,1.91-5.68,1.77-3.79-.24-6.86-1.85-7.32-5.94a44.18,44.18,0,0,1-.18-11.65,9.94,9.94,0,0,0-6.42-11.25c-4.09-1.22-5.31,4.52-6.76,8.08-3.27,8-6.87,15.9-9.8,24-1.77,4.92-4.72,8.3-9.52,9.79-2.26.7-5.47,1.35-6.62-1.9-1-2.85,0-4.53,3.54-5.24,7.28-1.48,5.17-6.83,3.56-11.25-2.52-6.9-5.59-13.59-8.32-20.42-.86-2.18-3.38-5.08,0-6.58,3-1.35,5.67.22,6.87,3.88,1.83,5.58,4.09,11,6.16,16.51Z"/><path class="cls-1" d="M953.32,855.72c2.11.48,4.63.94,7.1,1.61,5.07,1.38,12.28,3.65,10.07,9.15-2.14,5.31-8,.74-11.75-1.81-3.16-2.12-6.7-1.07-10.08-1.23-2.73-.12-5.45.48-5.92,3.66s2.3,4.3,4.77,5.11c6.12,2,12.36,3.69,18.41,5.88,5.13,1.87,9.17,4.94,8.78,11.29s-4.78,8.67-9.79,10.65a30.91,30.91,0,0,1-29.49-3c-2.29-1.49-6.78-4.53-3.88-8.2,2.43-3.07,6.42-1.87,8.92,1.28,4.85,6.12,11.51,4.93,17.91,4.55,2.7-.17,5.15-1.53,5.62-4.46.58-3.68-1.57-5.43-5.06-6.11-4.62-.89-9.42-1.5-13.74-3.23-5.81-2.32-13.13-3.93-13.14-12.29,0-9.38,8-10,14.4-12.05C948.46,855.92,950.7,856,953.32,855.72Z"/><path class="cls-2" d="M417.07,856.25c4-.53,6.52.69,8.2,4.61,4.94,11.52,10.34,22.85,15.43,34.32,1,2.16,3.06,5.15-.32,6.63-2.82,1.23-5.49.18-7.84-2.69-8.64-10.57-22.42-10.4-31.79.4-2.51,2.89-5.47,3.23-8.08,2.2-3.67-1.46-1.14-4.1-.12-6.36,5-11.07,10.1-22.08,14.66-33.32C409.22,857.08,412.29,855.44,417.07,856.25Zm8.47,28.15c-2.85-7.2-2.47-16.66-9.61-17.29-4.41-.38-8.54,10.13-6.93,14.63C411.51,888.74,419,883.43,425.54,884.4Z"/><path class="cls-2" d="M451.3,891c0-4.32,0-8.63,0-12.94-.06-6.54.62-12.07,9.36-7.25,3.08,1.7,5.76-.17,8.58-1,7.57-2.19,13.87.64,18.32,6.32A15,15,0,0,1,488,894.3c-4,5.82-10.41,10-17.87,7-8.39-3.36-9.77.11-9.21,7.27.29,3.65-.06,7-5.26,6.69-5.47-.33-4.32-4.19-4.33-7.49,0-5.6,0-11.21,0-16.81Zm20.07-14.77c-6.78,0-10.53,2.71-10.35,9.3.19,7.1,4.27,9.78,11.06,9.58s9.44-4,9.12-10C480.88,878.91,477.16,875.78,471.37,876.2Z"/><path class="cls-2" d="M590,878.72c0-5.61,0-11.23,0-16.84,0-3.47,1-6,5.1-5.76,3.44.16,4.37,2.65,4,5.37-1.4,11,2.14,11.86,12,8.22,6.67-2.46,13.56,1.68,14.94,10.28.48,3,1,6.13.43,9-.89,4.45,3.79,12.24-4,12.7-9.62.56-4.51-8.12-5.36-12.74-1-5.6,1.52-12.93-8.3-12.79-9.54.13-9.51,6.85-9.63,13.56,0,2.16,0,4.32,0,6.48,0,3.3-.68,6.16-4.91,5.93s-4.26-3.46-4.27-6.56C590,890,590,884.34,590,878.72Z"/><path class="cls-2" d="M1227,879.37c0-1.73,0-3.46,0-5.18,0-20.51,0-20.5,20.92-18.12,8.1.92,14.56,4.28,14.74,13.23.18,9.45-6.34,14.66-14.86,14.46-9.72-.23-14.59,2-12.78,12.54.59,3.42-.83,6-4.9,5.75-3.92-.28-3-3.51-3.08-5.84C1226.86,890.6,1227,885,1227,879.37Zm16.28-2.82c4.85.26,10,.05,10.07-6.63.11-7.06-5.48-6.27-10.21-6.55s-8.11.21-8.1,6.64S1238.11,877.23,1243.25,876.55Z"/><path class="cls-2" d="M645.83,886.6c5,16.33,18,1.58,25.33,9.59-6.2,4.86-12.61,7.24-20.09,5.63-8.35-1.79-14.71-6.51-15-15.55-.27-9.72,6.22-15.08,15.12-16.64,8.54-1.5,16.43.41,20.92,9,2.35,4.51,3.13,8.32-4.27,8C661,886.39,654.06,886.6,645.83,886.6Z"/><path class="cls-2" d="M1310.09,879.79c0,5.2.13,10.4-.06,15.58-.1,2.76.93,6.67-3.92,6.49-4.41-.16-4-3.66-4.1-6.65-.3-6.79,2.88-14.68-10-14.33-9.81.26-11.66,3.65-10.79,12,.36,3.47,1.66,9.12-4.17,9-6-.11-3.56-5.87-3.67-9.18-.33-10-.18-19.91,0-29.87,0-2.77-.88-6.74,3.81-6.65,4.33.09,4.39,3.61,3.88,6.65-1.5,8.94,1.67,12,11,11.67,7.82-.27,11.18-2,10.06-10.23-.43-3.08-1.29-7.76,4-7.85,5.66-.1,3.69,4.79,3.88,7.78C1310.33,869.39,1310.1,874.6,1310.09,879.79Z"/><path class="cls-2" d="M1718.7,873.67c7.32-4,14.45-7.78,19.31.06,5,8.11,2.25,17.59,1.74,26.5-.11,1.93-2.57,1.94-4.25,1.77-2-.21-2.93-1.61-3-3.52-.1-4.74-.11-9.49-.18-14.24-.07-4.16-.59-7.72-6.21-7.74s-7.62,2.88-7.52,8.06c.09,4.31.08,8.64,0,13-.08,3.06-1.68,4.81-4.9,4.56-2.68-.2-3.53-2.1-3.55-4.44q-.12-18.14-.15-36.26c0-2.92,1-5,4.33-5.17,3.53-.19,4.34,2,4.37,4.9C1718.72,864.54,1718.7,868,1718.7,873.67Z"/><path class="cls-1" d="M883.56,870.35c11.64-4.47,11.08,5.5,14.22,10.56,1.76,2.85,2,8,5.36,8.19,4.74.34,4.67-5.2,6.31-8.44,1-1.92,1.55-4,2.52-5.94,1.78-3.5,3.78-7.7,8.58-5.38,5,2.41,1.1,5.94-.17,8.66-4.2,9-8.78,17.83-13,26.8-2.35,5-5.73,8.84-11.08,10.15-3.15.78-7.77,2.13-9.35-1.55-2.18-5.1,2.88-4.73,6-5.84,5.12-1.85,6.1-5.1,3.47-10.17C891.81,888.63,887.88,879.56,883.56,870.35Z"/><path class="cls-2" d="M191,888.17c-2.81,3.61,4.77,13-4.82,13.59-27.44,1.6-31.14-.73-31.91-15.29a7.75,7.75,0,0,1,0-2.59c1.53-5-4.28-14.33,5.3-14.2,8.55.12,3.51,8.88,4.31,13.69.91,5.5-.62,11.72,8.18,11.7,8.56,0,9.82-5.4,9.75-12.11a18.71,18.71,0,0,1,0-3.89c.77-3.7-2.4-10,4.76-9.81s3.48,6.53,4.28,10.18C191.42,881.92,191,884.62,191,888.17Z"/><path class="cls-2" d="M1604.1,878.1c0-1.3,0-2.6,0-3.9,0-20,0-19.89,19.79-18.14,8.21.73,14.37,3.61,14.73,13,.39,10-5.87,14.78-14.47,14.6-9.37-.19-13.85,1.92-12.07,12,.5,2.83.39,6.69-4.2,6.31-4.29-.37-3.73-4.08-3.78-7C1604,889.38,1604.08,883.74,1604.1,878.1Zm15.68-14.83c-4.06-.36-7.68-.66-7.79,6.07-.11,6.58,2.44,7.91,8.2,7.65,5.1-.24,9.87-.72,10-7C1630.25,863.39,1625.1,863.18,1619.78,863.27Z"/><path class="cls-2" d="M1398.34,878.6c0-1.3,0-2.6,0-3.91,0-19.92,0-19.79,19.65-18.53,8.46.55,14.21,3.72,14.91,12.86.78,10.28-6.24,14.75-14.4,14.59-10.24-.19-14.35,2.53-12.18,12.94.56,2.69-.68,5.26-4,5.53-3.84.31-3.88-2.7-3.93-5.26C1398.28,890.75,1398.36,884.67,1398.34,878.6Zm15.07-2.14c5.35.35,10.69-.48,10.66-6.42s-5.42-6.56-10.43-6.56c-4.08,0-7.42-.17-7.27,5.77C1406.5,874.63,1408,877.37,1413.41,876.46Z"/><path class="cls-2" d="M1322.77,879v-3.9c0-21.17,0-21.13,20.59-19.1,8.5.83,13.77,4.9,14,13.85.2,8.52-5.11,13.44-12.69,13.53-10.21.12-16.81,1.81-14.18,14.1.43,2-.07,4.4-3.09,4.55-3.42.17-4.53-1.93-4.56-4.85-.06-6.06,0-12.12,0-18.18Zm14.39-2c5.58-.19,11.19.19,11.56-6.41s-4.69-7.24-9.83-7.27c-4.42,0-8.67-.75-8.42,6.22C1330.67,874.93,1332.08,877.81,1337.16,877Z"/><path class="cls-2" d="M106.51,883.73c3.41-3.58-6-14.17,5.26-14.12,31.28.13,31.87.75,31.11,16.57-.25,5.19,5.46,15.39-4.86,15.31-8.34-.06-3.77-9.62-4.43-14.84-.72-5.55-.53-10.46-8.1-10.44-6.89,0-9.14,3.72-8.83,9.92a6.58,6.58,0,0,1-.07,2.59c-1.78,4.44,4.48,13.15-5,13.09-9.35,0-3.39-8.66-5-13.2C106.16,887.46,106.51,886,106.51,883.73Z"/><path class="cls-2" d="M237.78,869.18c-19.06,13.09-6.85,22.56,1.62,31.73-10.91,5-13.48-7.48-19.48-7.57s-8.21,13-18.16,8c1.44-6.52,9.68-9.25,10.61-15.38,1-6.85-8.1-9.42-10.75-18.73C213.9,875.3,225.16,875.39,237.78,869.18Z"/><path class="cls-2" d="M507.36,874.41c4.53-6.61,11.71-6.65,19.87-3.55,9.2,3.49,6.8,11.19,6.35,17.55-.32,4.52,2.47,14-1.4,12.92-10.88-3.16-24.1,7.36-32.45-4.66-5-7.27,3-9.61,7.73-11.37,5.46-2,16,.42,14.95-7.11C521.15,869,511,876.7,507.36,874.41Zm16.09,17.45c.19-4.19-2.2-5.35-4.9-4.47-3.72,1.2-9.53.29-10,5.82-.26,3.13,3.36,4.61,6.67,4.39C519.33,897.33,522.76,896,523.45,891.86Z"/><path class="cls-2" d="M1793.53,886.68c0-4.67-.12-8.13.06-11.58.08-1.64.64-4.66,1.12-4.68,7.33-.4,14.8-1.22,22-.27,6.27.82,7.21,6.6,7,12.16a5.58,5.58,0,0,1,0,1.29c-1.71,6.06,4.27,17-3.85,17.5s-2.74-10.22-4.08-15.8c-1-4.14.07-8.95-6.59-8.75-5.74.17-7.39,3.46-7.23,8.48a4.65,4.65,0,0,1,0,1.29c-1.41,5.26,3.39,15.2-4.14,15C1788.91,901.07,1795.59,890.83,1793.53,886.68Z"/><path class="cls-2" d="M1469.58,896.53c-6.76,6.45-14,7.59-21.5,3.05-6-3.66-8.55-9.49-7.42-16.62a15.69,15.69,0,0,1,24.59-10.76c4.23,2.85,7.48,6.83,5.94,11.84s-6.67,1.85-10.15,2.56c-1.24.26-2.64-.22-3.86.08-2.76.7-8-2.14-7.32,3.8.46,4.15,4.47,4.7,8.14,4.48S1465.41,891.79,1469.58,896.53Z"/><path class="cls-2" d="M580.09,893.55c-10.56,10.35-23.56,11.82-31.89,3.2-6.75-7-6.83-15-.44-22,7.85-8.67,21.94-7,31.87,3.16-4.39,2.81-7.93,2.79-12.66-.53-3.62-2.53-9.3-2.64-12.41,2.7a10.22,10.22,0,0,0,.91,12.18c3.55,4.27,9.2,4.51,12.77,1.16C573,888.92,576.17,889.58,580.09,893.55Z"/><path class="cls-2" d="M36,877.89c0-5.63-.05-11.26,0-16.89,0-3,1.3-4.86,4.64-4.79S45,858.46,45,861.32c.05,7.79.45,15.61-.08,23.37-.51,7.48,1.28,10.68,9.79,10.73,6.55,0,19.27-3.89,18.82,2.69-.59,8.59-12.83,2.3-19.7,4.18a4.7,4.7,0,0,1-1.3,0c-18.84-.21-16.35,2.12-16.58-16.62,0-2.6,0-5.19,0-7.79Z"/><path class="cls-1" d="M1049.29,878.91V862c0-3.53,1.38-5.76,5.27-5.83,4.63-.08,4.34,3.06,4.22,6.19q-.13,3.89-.15,7.79c0,22.86,0,22.83,22.8,24.79,2.63.23,6.82-1.4,6.57,3.63-.22,4.46-4.13,3.5-6.92,3.76-2.58.23-5.2.1-7.79.11C1049.13,902.57,1049.13,902.56,1049.29,878.91Z"/><path class="cls-2" d="M1481.66,878.17c4.37-8,9.13-10.61,16.68-8.89s10.87,6.42,9.84,14.15a24.85,24.85,0,0,0,0,2.59c-.16,5.08.53,14.31-.62,14.55a75.2,75.2,0,0,1-22.13.76,7.38,7.38,0,0,1-6.42-7.18,7.74,7.74,0,0,1,5.44-7.94,63.19,63.19,0,0,1,10-2.21c3.38-.62,5.87-2.14,5.16-5.94-.85-4.53-4.4-4.61-8.08-4.22S1486.63,880.54,1481.66,878.17ZM1499.48,892c.67-3.31-.53-4.77-3.17-4.56-3.8.29-8,.83-8.75,5.45-.51,3.05,2.1,4.24,5,4.37C1496.65,897.48,1498.52,894.9,1499.48,892Z"/><path class="cls-2" d="M1768.2,869.06c8,1.54,15.42,5.07,16.07,15.78.56,9.3-7.44,17.84-17,17.2-9.34-.61-16.66-4.78-17.18-15.62C1749.59,876.86,1757.16,869.18,1768.2,869.06Zm.44,7.47c-7.51,0-10.27,3.45-10.37,8.89s2.27,9.14,8.29,9.29c6.46.17,9.61-3.34,9.44-9.49C1775.85,879.75,1772.84,876.55,1768.64,876.53Z"/><path class="cls-2" d="M1554.52,878.88c0,6,0,12,0,18,0,2.72-.45,5.18-4.06,5.12s-3.93-2.61-3.94-5.29c0-12,0-24,0-36.07,0-2.44.92-4.1,3.52-4.4,3.42-.4,4.52,1.57,4.53,4.57Q1554.54,869.87,1554.52,878.88Z"/><path class="cls-2" d="M1518.27,884.67c3.37-3.89-6.44-14.84,5.61-14.46,4.39.14,11.53-5.07,13.7.84,2.51,6.87-7,3.61-9.31,7.38-3,4.78-1.43,10-1.94,15.06-.37,3.58,1.17,8.88-4.94,8.26-5.05-.51-2.56-5.39-3-8.36C1517.94,890.88,1518.27,888.25,1518.27,884.67Z"/><path class="cls-2" d="M94.44,886.14c-3,5.17,3.56,15.09-4.58,15.32-10.22.3-4.41-10.06-4.72-15.32-.33-5.51-4.06-16.13,3.61-16.22C99.62,869.78,90.69,881,94.44,886.14Z"/><path class="cls-2" d="M1364,906.86c-.49-3.82-7.7-5.29-4.58-10.35.6-1,3.49-1.69,4.39-1.1C1368.67,898.59,1365.4,902.64,1364,906.86Z"/><path class="cls-3" d="M994.77,879.52c-.22-7.26,1.43-12.59,7.58-14.78,7.17-2.55,14.68-2.8,20.64,2.71,4.87,4.5,4.88,11,3.14,16.83-2.61,8.77-22.05,12.8-27.94,6.1A13.58,13.58,0,0,1,994.77,879.52Z"/><path class="cls-3" d="M425.54,884.4c-6.5-1-14,4.34-16.54-2.66-1.61-4.5,2.52-15,6.93-14.63C423.07,867.74,422.69,877.2,425.54,884.4Z"/><path class="cls-3" d="M471.37,876.2c5.79-.42,9.51,2.71,9.83,8.87.32,6-2.45,9.81-9.12,10S461.21,892.6,461,885.5C460.84,878.91,464.59,876.2,471.37,876.2Z"/><path class="cls-3" d="M1243.25,876.55c-5.14.68-8.22-.17-8.24-6.54s3.23-6.93,8.1-6.64,10.32-.51,10.21,6.55C1253.22,876.6,1248.1,876.81,1243.25,876.55Z"/><path class="cls-3" d="M1619.78,863.27c5.32-.09,10.47.12,10.37,6.72-.09,6.28-4.86,6.76-10,7-5.76.26-8.31-1.07-8.2-7.65C1612.1,862.61,1615.72,862.91,1619.78,863.27Z"/><path class="cls-3" d="M1413.41,876.46c-5.42.91-6.91-1.83-7-7.21-.15-5.94,3.19-5.77,7.27-5.77,5,0,10.4.68,10.43,6.56S1418.76,876.81,1413.41,876.46Z"/><path class="cls-3" d="M1337.16,877c-5.08.86-6.49-2-6.69-7.46-.25-7,4-6.26,8.42-6.22,5.14,0,10.21.75,9.83,7.27S1342.74,876.76,1337.16,877Z"/><path class="cls-3" d="M523.45,891.86c-.69,4.14-4.12,5.47-8.22,5.74-3.31.22-6.93-1.26-6.67-4.39.46-5.53,6.27-4.62,10-5.82C521.25,886.51,523.64,887.67,523.45,891.86Z"/><path class="cls-3" d="M1499.48,892c-1,2.87-2.83,5.45-7,5.26-2.85-.13-5.46-1.32-5-4.37.77-4.62,5-5.16,8.75-5.45C1499,887.26,1500.15,888.72,1499.48,892Z"/><path class="cls-3" d="M1768.64,876.53c4.2,0,7.21,3.22,7.36,8.69.17,6.15-3,9.66-9.44,9.49-6-.15-8.38-3.93-8.29-9.29S1761.13,876.57,1768.64,876.53Z"/></g></g></svg>