<svg xmlns="http://www.w3.org/2000/svg" viewBox="0 0 1910.96 400.39"><defs><style>.cls-1{fill:#45443b;}.cls-2{fill:#fefefe;}.cls-3{fill:#01bcd3;}.cls-4{fill:#fcfefe;}</style></defs><title>mern</title><g id="Layer_2" data-name="Layer 2"><g id="Layer_1-2" data-name="Layer 1"><path class="cls-1" d="M321,199.09q0,37.26,0,74.51c0,31.77.77,32.64,31.69,40.78,8.77,2.31,19.13,2.59,17,16.92-1.43,9.69-4.59,13.73-15.25,13.61-43.63-.5-87.27-.06-130.9.16-7.81,0-14.83,0-15.8-10.56-1-10.25,1.93-17.36,13-18.46,41.8-4.15,37-19.07,37.76-50.48.89-35.55.69-71.14.5-106.71-.06-10.69-.58-21.6-2.77-32-9.63-45.8-46.55-66.85-91-52.2-7.6,2.5-14.7,6.46-22.12,9.54-19.56,8.13-28,21.66-27.23,43.79,1.66,50.29,1,100.66,1.37,151,.23,27.25,2.53,29.84,30.18,35.52,10.06,2.06,20.59,3.11,17.63,18.19-1.62,8.25-4.07,13.18-14.12,12.47a977.11,977.11,0,0,0-134.84,0c-8,.55-13.14-1.61-13-10.58.09-7.06-2.49-16.32,8.68-16.85,41.24-2,44.28-29.58,43.8-61.69-.68-45.61-.62-91.3,1.31-136.86.93-22-8.22-32.87-27.1-41.24C19.17,73.14-1.45,75.33.08,60c1.61-16.17,21.91-11,34-14.1,23.37-6,47.11-10.68,69.6-19.5,13.37-5.25,14.49.8,14.72,11.65.22,10.21-7.1,24.72,2.59,29.6,9.18,4.62,17.26-9.73,26.57-14.45,13.74-7,26.91-15.31,41.14-21,48.05-19.33,82.15-10.21,113,31.05,8.12,10.86,12.92,9.15,22.17,2.52A350.45,350.45,0,0,1,368.3,38.27C442.44.44,508.93,34.4,520.83,116.79c7.42,51.37,1,103.23,2.3,154.86.84,34.12.93,34.81,34.33,42.73,9.21,2.19,20.93,1.19,17,17.68-2.33,9.91-5.87,13.38-16,12.74a1133.32,1133.32,0,0,0-130.85-.39c-6,.32-13,1.25-12.58-8.14.35-7.3-4.35-18.09,8-19.27,34.91-3.33,38.11-26.23,37.08-54.47-1.37-37.54,0-75.17-.68-112.75-.58-31.47-10.64-58.6-42.28-71.46C382.85,64.37,353,77.55,324.7,96.51c-5.86,3.93-5.49,9.66-5.39,16.06.45,28.83.2,57.67.2,86.52Z"/><path class="cls-1" d="M1910.54,210.19c0,34.89.33,69.78-.13,104.67-.24,17.81-5.17,20.54-20.82,11.89-24.66-13.63-48.88-28-73.48-41.77-10.82-6.05-13.92-15.14-13.79-26.84.34-28.85.42-57.71,0-86.55-.48-29.66-44.29-53.41-71.31-41.19-27.87,12.59-41.38,30.22-37.29,62.1,2.8,21.78.26,44.22.66,66.35.21,11.87-3.69,20.54-14.41,26.49q-37,20.51-73.42,41.86c-13.72,8-20.14,4.23-20.17-11.23q-.19-105.66-.28-211.34c0-11.39,5.53-18.69,15-24.12q66.42-37.92,132.61-76.19c10.45-6.05,20-5.59,30.29.39,43.51,25.27,87,50.53,130.88,75.18,12.24,6.88,16.27,16.32,16.09,29.66-.46,33.54-.15,67.09-.15,100.64Z"/><path class="cls-1" d="M849,210.66c-39.63,0-79.25.09-118.87,0-9.36,0-16.7-.16-16.82,13.24-.35,40.23,26.69,81.51,64.64,96.45,45.66,18,96.92,8.24,124.22-23.68a65,65,0,0,0,8.19-11.38c4.83-9.06,3.08-23.91,15.3-26.15,15-2.75,30.91-2.58,46.1-.79,11.95,1.4,5.59,12.11,3.95,17.89-12.17,43.06-37,76.91-79.92,92.08-69.63,24.62-136,20.16-193.59-31.72-18.81-16.95-31.08-38.75-38.62-62.73-23.31-74.19-22.74-146,27.49-210.13C733.3,9.71,791.25-6.53,856.56,5.17c58.34,10.45,92.78,50.64,113.81,103.31,10.26,25.68,13.57,53.05,15.83,80.62,1.34,16.34-2.81,22.53-20.41,22C926.88,209.77,887.9,210.65,849,210.66ZM815.68,157.3c28.15,0,56.3,0,84.44,0,21.93-.05,22.74-1.2,17.36-23-12.2-49.36-53.19-80-105.08-78.43C763,57.3,724.63,91.4,715,141.3c-2.57,13.32,2.06,16.39,14.24,16.16C758,156.92,786.87,157.29,815.68,157.3Z"/><path class="cls-2" d="M1131.67,336.51a95.66,95.66,0,0,0,1.13,16.19c.61,3.26,1.13,6.56,2,9.76,6.36,24.16,23.57,38.12,46.71,37.85,15-.18,28.24-5.94,40.93-13.24,13.31-7.66,25.24-17.19,36.37-27.71,2.2-2.08,3.58-2.46,5.86-.13a128.39,128.39,0,0,0,10.14,9.07c15.46,12.82,31.81,24.16,51.45,29.69,22.38,6.29,42.22.06,54.09-17,7.58-10.89,10.42-23.37,11.27-36.35,1.22-18.4-.95-36.53-5.2-54.42-.83-3.49-.57-5.27,3.49-6.37a176.09,176.09,0,0,0,28.37-10.68c16-7.51,31-16.45,41.93-30.9,13.13-17.45,13.11-38.86.07-56.39-7.36-9.88-16.94-17.21-27.44-23.39a195.25,195.25,0,0,0-43.27-18.38c-2.93-.88-4.24-1.85-3.36-5.25a177.62,177.62,0,0,0,5-30.37c1.28-16.2,1.36-32.35-4.13-48-7.14-20.32-23.27-32.46-43.31-32.69-16.52-.18-30.91,6.25-44.68,14.45a192.32,192.32,0,0,0-34.41,26.57c-2.24,2.14-3.64,2.29-5.86,0-3.18-3.23-6.66-6.17-10.15-9.07-15.46-12.82-31.8-24.23-51.47-29.63-17.49-4.81-34-3.3-47.84,9.77-12.57,11.88-16.33,27.52-17.43,44-1.23,18.24,1,36.23,5.22,54,.84,3.5.52,5.26-3.51,6.38a183.74,183.74,0,0,0-20.48,7.25c-17.18,7.06-33.43,15.7-46.1,29.74-11.11,12.3-16.07,26.55-12.3,43.08,3,13.15,11.26,22.93,21.43,31.19,17,13.77,36.76,21.92,57.36,28.31,3.82,1.18,4.48,2.63,3.61,6.29A189.63,189.63,0,0,0,1131.67,336.51Z"/><path class="cls-3" d="M1131.67,336.51a189.63,189.63,0,0,1,5.51-46.34c.87-3.66.21-5.11-3.61-6.29-20.6-6.39-40.41-14.54-57.36-28.31-10.17-8.26-18.42-18-21.43-31.19-3.77-16.53,1.19-30.78,12.3-43.08,12.67-14,28.92-22.68,46.1-29.74a183.74,183.74,0,0,1,20.48-7.25c4-1.12,4.35-2.88,3.51-6.38-4.24-17.73-6.45-35.72-5.22-54,1.1-16.48,4.86-32.12,17.43-44,13.83-13.07,30.35-14.58,47.84-9.77,19.67,5.4,36,16.81,51.47,29.63,3.49,2.9,7,5.84,10.15,9.07,2.22,2.26,3.62,2.11,5.86,0a192.32,192.32,0,0,1,34.41-26.57c13.77-8.2,28.16-14.63,44.68-14.45,20,.23,36.17,12.37,43.31,32.69,5.49,15.64,5.41,31.79,4.13,48a177.62,177.62,0,0,1-5,30.37c-.88,3.4.43,4.37,3.36,5.25a195.25,195.25,0,0,1,43.27,18.38c10.5,6.18,20.08,13.51,27.44,23.39,13,17.53,13.06,38.94-.07,56.39-10.88,14.45-25.91,23.39-41.93,30.9a176.09,176.09,0,0,1-28.37,10.68c-4.06,1.1-4.32,2.88-3.49,6.37,4.25,17.89,6.42,36,5.2,54.42-.85,13-3.69,25.46-11.27,36.35-11.87,17-31.71,23.25-54.09,17-19.64-5.53-36-16.87-51.45-29.69a128.39,128.39,0,0,1-10.14-9.07c-2.28-2.33-3.66-2-5.86.13-11.13,10.52-23.06,20.05-36.37,27.71-12.69,7.3-25.94,13.06-40.93,13.24-23.14.27-40.35-13.69-46.71-37.85-.84-3.2-1.36-6.5-2-9.76A95.66,95.66,0,0,1,1131.67,336.51ZM1262,156.28c-9.83,0-19.67,0-29.5,0-2.68,0-4.31,1.06-5.83,3.36-11,16.67-20.48,34.23-29.94,51.8a5,5,0,0,0,0,5.4c9.44,17.58,18.91,35.13,30,51.79,1.41,2.12,2.87,3.22,5.4,3.28q29.73.75,59.45,0c2.56-.07,4-1.26,5.36-3.35,11-16.65,20.52-34.2,30-51.77a5,5,0,0,0,0-5.4c-9.45-17.58-18.92-35.13-29.94-51.8-1.54-2.32-3.19-3.34-5.85-3.32C1281.34,156.3,1271.66,156.27,1262,156.28Zm178.9,56.52c.12-2.54-1.43-5.79-3.48-8.84-3.52-5.22-8.24-9.21-13.37-12.75-13.44-9.28-28.45-15.08-43.85-20.12-3.06-1-3.27.73-3.9,2.58a379.91,379.91,0,0,1-14.64,37,7.52,7.52,0,0,0,0,6.85,356.43,356.43,0,0,1,14.59,37c.79,2.38,1.51,3.36,4.39,2.4,11.33-3.76,22.47-7.93,33-13.62,7.61-4.1,14.85-8.75,20.7-15.23C1437.92,224.12,1440.85,219.76,1440.87,212.8Zm-358.17,2.6c-.09,2.12,1.07,4.87,2.63,7.51a40.27,40.27,0,0,0,10.4,11.24c14.33,11.07,30.9,17.46,47.9,23,2.43.8,2.89-.34,3.44-2a406.9,406.9,0,0,1,15.24-38.71,5.35,5.35,0,0,0,0-4.73A388.11,388.11,0,0,1,1147.08,173c-.78-2.41-1.83-2.41-4-1.73a187.94,187.94,0,0,0-34.22,14.16c-7,3.86-13.74,8.25-19.23,14.21C1085.81,203.78,1082.65,208.34,1082.7,215.4Zm77.57-122a202.83,202.83,0,0,0,5,39c.55,2.41,1.27,3.3,3.87,2.78,13.61-2.74,27.35-4.67,41.16-6.19a4.35,4.35,0,0,0,3.44-1.76q12.4-17.34,26.47-33.35c2-2.28.26-3.1-1-4.24a190.77,190.77,0,0,0-25.63-20.12c-8.42-5.39-17.16-10.09-27.12-12.05-11.26-2.22-18.77,1.94-22.73,12.74C1161,77.86,1160.58,85.86,1160.27,93.38Zm0,241.17c.27,7.83.68,16.14,3.7,24,3.92,10.25,11.46,14.3,22.26,12.2a60.28,60.28,0,0,0,15-5.09c14.4-7,26.72-16.94,38.59-27.53,2.27-2,1-3.14-.3-4.69-8.79-10.17-17.22-20.64-25-31.6a6.14,6.14,0,0,0-4.8-2.81c-13.51-1.39-27-3.36-40.27-6.05-2.77-.56-3.56.32-4.16,2.95A205.56,205.56,0,0,0,1160.27,334.55ZM1363.08,98c.15-9.54-.08-19.07-3.54-28.15-4-10.53-11.58-14.57-22.61-12.36a57.24,57.24,0,0,0-12,3.88c-15.54,6.94-28.54,17.49-41.12,28.68-2.27,2-1,3.18.3,4.7,8.84,10.17,17.23,20.69,25.07,31.64a5.75,5.75,0,0,0,4.38,2.71c13.67,1.45,27.29,3.37,40.77,6.1,2.45.49,3.41-.08,4-2.66A203,203,0,0,0,1363.08,98Zm0,232.1a197,197,0,0,0-4.86-34.53c-.49-2.2-1.14-3.09-3.58-2.6-13.64,2.71-27.4,4.68-41.22,6.17a5.31,5.31,0,0,0-4.07,2.41,402.41,402.41,0,0,1-25.38,32c-1.75,2-2,3.25.22,5,4.49,3.59,8.65,7.59,13.19,11.1,11.9,9.17,24.15,17.75,39.24,21,11.5,2.44,19.13-1.73,23.14-12.77C1363,348.85,1363.25,339.47,1363.07,330.08Zm-89.83-203.33c-3.75-4.54-6.92-8.33-10-12.17-1-1.22-1.8-1.33-2.84,0-3.17,3.9-6.39,7.76-10.08,12.22Zm-23,174.61c3.81,4.61,7,8.48,10.23,12.38.84,1,1.59,1.23,2.52.09,3.26-4,6.55-7.93,10.31-12.47Zm-58.65-141c-5.56,1-10.22,1.93-14.89,2.75-1.46.26-2.16.69-1.6,2.36,1.54,4.68,2.78,9.47,5.29,14.33Zm151.87,20c1.84-5.52,3.23-9.94,4.81-14.3.69-1.9.34-2.68-1.72-3-4.57-.73-9.12-1.66-14.57-2.68Zm0,67.51c-4,7-7.53,13.09-11.51,20,5.59-1,10.26-2,15-2.74,2-.34,1.89-1.32,1.36-2.84C1346.75,257.86,1345.33,253.44,1343.47,247.84Zm-163.12.58c-2.5,4.83-3.72,9.62-5.28,14.3-.56,1.66.16,2.08,1.61,2.36q5.31,1,10.57,2.23c.89.21,1.8.69,2.48-.09s.43-2-.12-2.92C1186.61,259.13,1183.59,254,1180.35,248.42Z"/><path class="cls-4" d="M1273.24,126.75h-23c3.69-4.46,6.91-8.32,10.08-12.22,1-1.28,1.85-1.17,2.84,0C1266.32,118.42,1269.49,122.21,1273.24,126.75Z"/><path class="cls-4" d="M1250.23,301.36h23.06c-3.76,4.54-7,8.49-10.31,12.47-.93,1.14-1.68.93-2.52-.09C1257.26,309.84,1254,306,1250.23,301.36Z"/><path class="cls-4" d="M1191.58,160.36l-11.2,19.44c-2.51-4.86-3.75-9.65-5.29-14.33-.56-1.67.14-2.1,1.6-2.36C1181.36,162.29,1186,161.39,1191.58,160.36Z"/><path class="cls-4" d="M1343.45,180.33l-11.48-20c5.45,1,10,1.95,14.57,2.68,2.06.33,2.41,1.11,1.72,3C1346.68,170.39,1345.29,174.81,1343.45,180.33Z"/><path class="cls-4" d="M1343.47,247.84c1.86,5.6,3.28,10,4.81,14.4.53,1.52.69,2.5-1.36,2.84-4.7.76-9.37,1.7-15,2.74C1335.94,260.93,1339.43,254.85,1343.47,247.84Z"/><path class="cls-4" d="M1180.35,248.42c3.24,5.55,6.26,10.71,9.26,15.88.55.94.92,2,.12,2.92s-1.59.3-2.48.09q-5.26-1.24-10.57-2.23c-1.45-.28-2.17-.7-1.61-2.36C1176.63,258,1177.85,253.25,1180.35,248.42Z"/><path class="cls-3" d="M1261.76,249.82c-19.68,0-36.19-16.14-36.25-35.42a36.33,36.33,0,0,1,36.73-36.81c19.68.07,35.77,16.42,35.8,36.37C1298.07,233.57,1281.62,249.83,1261.76,249.82Z"/></g></g></svg>