<svg height="64" viewBox="0 0 60 59.999807" width="64" xmlns="http://www.w3.org/2000/svg"><g transform="matrix(1.6413083 0 0 1.6413083 -9.516965 -16.161743)"><path d="m40.118396 34.377435s-.05329-.326965-.08445-.324022l-5.933007.572439c-.472087.04558-.838731.422069-.871859.895141l-.162996 2.336147-4.589948.327458-.312206-2.117233c-.06953-.470941-.48077-.825944-.9568-.825944h-6.261958c-.475855 0-.88711.355003-.95664.825944l-.31238 2.117233-4.589948-.327458-.162997-2.336147c-.03312-.473231-.399772-.84972-.871858-.895315l-5.9359035-.572279c-.030664-.003-.053128.324341-.083792.324341l-.00803 1.283938 5.0271965.810693.164635 2.357023c.03329.477175.4183.863.895793.897273l6.321399.450934c.02394.0016.04755.0026.07117.0026.475043 0 .885631-.355177.955161-.826104l.321224-2.178558h4.592122l.321224 2.178558c.06936.470782.480451.825944.956147.825944.02329 0 .04657-.000869.06936-.0025l6.322268-.450934c.477334-.03427.862507-.420112.895794-.897273l.164461-2.357023 5.025021-.814303z" fill="#fff" stroke-width=".144976"/><g stroke-width=".108732"><path d="m20.358498 10.888386c-1.669909.371245-3.321877.887972-4.870658 1.667517.03542 1.367524.123824 2.677856.303048 4.008846-.601463.385347-1.233567.716078-1.795386 1.167131-.5708.439126-1.153866.859387-1.67067 1.372962-1.032553-.682958-2.125279-1.324793-3.2510915-1.891397-1.2135598 1.306091-2.3483975 2.715804-3.2753392 4.293181.6973864 1.128205 1.4254787 2.185626 2.2116123 3.189115h.021874v9.681404c.017709.000108.035547.000978.053092.0025l5.9352544.572116c.310898.03001.554513.280312.57615.591873l.183062 2.62001 5.177282.369516.356565-2.418204c.04624-.313518.315302-.545781.63243-.545781h6.261886c.316965 0 .585979.232263.632212.545781l.356566 2.418204 5.177499-.369516.182844-2.62001c.02181-.311551.265253-.5617.57615-.591873l5.932863-.572116c.01754-.0016.03517-.0024.05288-.0025v-.772597l.0025-.00087v-8.907991h.02187c.786264-1.003533 1.513878-2.061019 2.211612-3.189115-.926626-1.577486-2.061996-2.987199-3.275556-4.293181-1.125487.566538-2.218789 1.208341-3.251309 1.891396-.516685-.513575-1.09863-.933824-1.670235-1.372961-.561624-.451097-1.194641-.781828-1.794951-1.167131.178734-1.330991.267253-2.641322.302841-4.008846-1.54889-.779545-3.200749-1.296305-4.871528-1.667517-.66705 1.121137-1.277059 2.335023-1.808324 3.521944-.629994-.105274-1.262924-.144299-1.896616-.151845v-.000848c-.0044 0-.0085.000848-.01232.000848-.0039 0-.0082-.000848-.0121-.000848v.000848c-.63492.0075-1.267382.04657-1.897485.151845-.53095-1.186812-1.140492-2.400807-1.808542-3.521944zm-12.3367522 24.769189c.00247.573584.00977 1.201925.00977 1.327076 0 5.636458 7.1502282 8.345629 16.0336462 8.376835h.02187c8.883527-.03116 16.031471-2.740377 16.031471-8.376835 0-.127413.0078-.753166.01041-1.327076l-5.334836.514564-.183909 2.634037c-.02214.317454-.274625.570137-.592079.592927l-6.322233.451065c-.01541.0012-.03083.0017-.04608.0017-.314182 0-.585175-.230719-.631582-.546205l-.362513-2.458544h-5.15858l-.362515 2.458544c-.0487.330904-.344463.568941-.677662.544509l-6.322235-.451069c-.317454-.022791-.569941-.275473-.592079-.592927l-.183703-2.634037-5.33701-.514564z" fill="#478cbf"/><path d="m15.662682 25.050752c-1.974577 0-3.57631 1.600102-3.57631 3.575005 0 1.976207 1.601625 3.57707 3.57631 3.57707 1.975554 0 3.576853-1.600863 3.576853-3.57707 0-1.974903-1.601299-3.575005-3.576853-3.575005zm16.82739 0c-1.975881 0-3.577071 1.600102-3.577071 3.575005 0 1.976207 1.60119 3.57707 3.577071 3.57707 1.974468 0 3.575875-1.600863 3.575875-3.57707 0-1.974903-1.601407-3.575005-3.575875-3.575005zm-8.414456 2.092006c-.635899 0-1.151256.469136-1.151256 1.04633v3.292736c0 .577684.515347 1.04633 1.151256 1.04633s1.152561-.468646 1.152561-1.04633v-3.292736c0-.577194-.516619-1.04633-1.152561-1.04633z" fill="#fff"/><path d="m16.004862 26.46427c-1.311201 0-2.374058 1.063444-2.374058 2.374275 0 1.310832 1.0629 2.373189 2.374058 2.373189 1.311853 0 2.374275-1.062379 2.374275-2.373189 0-1.310809-1.062465-2.374275-2.374275-2.374275zm16.142378 0c-1.310875 0-2.372971 1.063444-2.372971 2.374275 0 1.310832 1.062172 2.373189 2.372971 2.373189 1.31218 0 2.374058-1.062379 2.374058-2.373189 0-1.310809-1.061922-2.374275-2.374058-2.374275z" fill="#414042"/></g></g></svg>