<?xml version="1.0" encoding="utf-8"?>
<!-- Generator: Adobe Illustrator 24.3.0, SVG Export Plug-In . SVG Version: 6.00 Build 0)  -->
<svg version="1.1" id="Layer_1" xmlns="http://www.w3.org/2000/svg" xmlns:xlink="http://www.w3.org/1999/xlink" x="0px" y="0px"
	 viewBox="0 0 48 48" style="enable-background:new 0 0 48 48;" xml:space="preserve">
<style type="text/css">
	.st0{fill:#FFFFFF;}
	.st1{fill:#221F1F;}
	.st2{fill:#5077B6;}
	.st3{fill:#DE4032;}
	.st4{fill:#30A14E;}
	.st5{fill:#ECB215;}
</style>
<rect y="14.1" class="st0" width="48" height="19.8"/>
<g>
	<g>
		<g>
			<path class="st1" d="M15,25.6c-0.2,0.3-0.5,0.5-0.8,0.6c-0.3,0.1-0.7,0.2-1,0.2c-0.3,0-0.7-0.1-1-0.2c-0.3-0.1-0.6-0.3-0.8-0.5
				S11,25.3,10.9,25c-0.1-0.3-0.2-0.6-0.2-1c0-0.3,0.1-0.7,0.2-1c0.1-0.3,0.3-0.6,0.5-0.8c0.2-0.2,0.5-0.4,0.8-0.5
				c0.3-0.1,0.6-0.2,1-0.2c0.4,0,0.7,0.1,1,0.2c0.3,0.1,0.6,0.3,0.8,0.6l-0.8,0.8c-0.1-0.2-0.3-0.3-0.4-0.4
				c-0.2-0.1-0.4-0.2-0.6-0.2c-0.2,0-0.3,0-0.5,0.1s-0.3,0.2-0.4,0.3c-0.1,0.1-0.2,0.3-0.3,0.4c-0.1,0.2-0.1,0.4-0.1,0.5
				c0,0.2,0,0.4,0.1,0.5c0.1,0.2,0.2,0.3,0.3,0.4c0.1,0.1,0.3,0.2,0.4,0.3c0.2,0.1,0.3,0.1,0.5,0.1c0.2,0,0.4-0.1,0.6-0.2
				c0.2-0.1,0.3-0.2,0.4-0.4L15,25.6z"/>
			<path class="st1" d="M19.4,26.3h-1.2v-0.2c-0.2,0.1-0.4,0.2-0.6,0.3c-0.2,0.1-0.5,0.1-0.7,0.1c-0.2,0-0.4,0-0.6-0.1
				c-0.2-0.1-0.3-0.2-0.5-0.3s-0.2-0.3-0.3-0.4s-0.1-0.4-0.1-0.6c0-0.3,0.1-0.5,0.2-0.7c0.1-0.2,0.3-0.4,0.5-0.5
				c0.2-0.1,0.4-0.2,0.7-0.3c0.3-0.1,0.5-0.1,0.9-0.1h0.7c0-0.3-0.1-0.5-0.3-0.6c-0.2-0.2-0.4-0.2-0.8-0.2c-0.2,0-0.3,0-0.5,0.1
				c-0.2,0.1-0.3,0.2-0.5,0.3l-0.7-0.7c0.2-0.2,0.5-0.4,0.9-0.5c0.3-0.1,0.7-0.2,1-0.2c0.3,0,0.6,0.1,0.9,0.2
				c0.3,0.1,0.5,0.2,0.6,0.4c0.2,0.2,0.3,0.4,0.4,0.7c0.1,0.3,0.1,0.6,0.1,1L19.4,26.3L19.4,26.3z M18.2,25.1v-0.9h-0.5
				c-0.2,0-0.3,0-0.5,0c-0.1,0-0.3,0.1-0.4,0.1c-0.1,0.1-0.2,0.1-0.2,0.2c-0.1,0.1-0.1,0.2-0.1,0.3c0,0.2,0.1,0.3,0.2,0.4
				c0.1,0.1,0.3,0.2,0.5,0.2c0.2,0,0.3,0,0.5-0.1C17.9,25.3,18,25.2,18.2,25.1z"/>
			<path class="st1" d="M24.5,26.3h-1.2v-2.8c0-0.2,0-0.3-0.1-0.4c-0.1-0.1-0.1-0.2-0.2-0.3c-0.1-0.1-0.2-0.1-0.3-0.2
				c-0.1,0-0.2-0.1-0.3-0.1c-0.2,0-0.4,0-0.5,0.1s-0.3,0.2-0.5,0.3v3.4h-1.2v-4.6h1.2l0,0.3c0.1-0.1,0.2-0.1,0.3-0.2
				c0.1-0.1,0.2-0.1,0.3-0.1c0.1,0,0.2-0.1,0.3-0.1c0.1,0,0.2,0,0.3,0c0.2,0,0.5,0,0.7,0.1c0.2,0.1,0.4,0.2,0.6,0.3
				c0.2,0.2,0.3,0.4,0.4,0.6c0.1,0.2,0.2,0.5,0.2,0.9L24.5,26.3L24.5,26.3z"/>
			<path class="st1" d="M29.6,21.7l-1.7,4.6h-1.1L25,21.7h1.3l1,3.1l1-3.1H29.6z"/>
			<path class="st1" d="M33.9,26.3h-1.2v-0.2c-0.2,0.1-0.4,0.2-0.6,0.3c-0.2,0.1-0.5,0.1-0.7,0.1c-0.2,0-0.4,0-0.6-0.1
				c-0.2-0.1-0.3-0.2-0.5-0.3c-0.1-0.1-0.2-0.3-0.3-0.4s-0.1-0.4-0.1-0.6c0-0.3,0.1-0.5,0.2-0.7c0.1-0.2,0.3-0.4,0.5-0.5
				c0.2-0.1,0.4-0.2,0.7-0.3c0.3-0.1,0.5-0.1,0.9-0.1h0.7c0-0.3-0.1-0.5-0.3-0.6c-0.2-0.2-0.4-0.2-0.8-0.2c-0.2,0-0.3,0-0.5,0.1
				c-0.2,0.1-0.3,0.2-0.5,0.3L30,22.3c0.2-0.2,0.5-0.4,0.9-0.5c0.3-0.1,0.7-0.2,1-0.2c0.3,0,0.6,0.1,0.9,0.2
				c0.2,0.1,0.5,0.2,0.6,0.4c0.2,0.2,0.3,0.4,0.4,0.7c0.1,0.3,0.1,0.6,0.1,1L33.9,26.3L33.9,26.3z M32.8,25.1v-0.9h-0.5
				c-0.2,0-0.3,0-0.5,0c-0.1,0-0.3,0.1-0.4,0.1c-0.1,0.1-0.2,0.1-0.2,0.2c-0.1,0.1-0.1,0.2-0.1,0.3c0,0.2,0.1,0.3,0.2,0.4
				c0.1,0.1,0.3,0.2,0.5,0.2c0.2,0,0.3,0,0.5-0.1C32.4,25.3,32.6,25.2,32.8,25.1z"/>
			<path class="st1" d="M38.2,25c0,0.2-0.1,0.4-0.2,0.6c-0.1,0.2-0.2,0.3-0.4,0.4c-0.2,0.1-0.4,0.2-0.6,0.3
				c-0.2,0.1-0.4,0.1-0.6,0.1c-0.4,0-0.7-0.1-1-0.2c-0.3-0.1-0.6-0.3-0.8-0.6l0.7-0.7c0.1,0.2,0.3,0.3,0.5,0.4
				c0.2,0.1,0.4,0.1,0.6,0.1c0.2,0,0.3,0,0.5-0.1c0.1-0.1,0.2-0.2,0.2-0.3c0-0.1-0.1-0.3-0.3-0.3c-0.2-0.1-0.4-0.2-0.7-0.3
				c-0.2-0.1-0.4-0.1-0.5-0.2c-0.2-0.1-0.3-0.2-0.5-0.3c-0.1-0.1-0.2-0.3-0.3-0.4c-0.1-0.2-0.1-0.3-0.1-0.5c0-0.2,0.1-0.4,0.2-0.6
				c0.1-0.2,0.2-0.3,0.4-0.4c0.2-0.1,0.4-0.2,0.6-0.3c0.2-0.1,0.4-0.1,0.7-0.1c0.7,0,1.3,0.3,1.7,0.8L37.5,23
				c-0.1-0.2-0.3-0.3-0.5-0.4c-0.2-0.1-0.4-0.1-0.6-0.1c-0.1,0-0.1,0-0.2,0c-0.1,0-0.1,0-0.2,0.1c-0.1,0-0.1,0.1-0.2,0.1
				c0,0.1-0.1,0.1-0.1,0.2c0,0.1,0.1,0.2,0.2,0.3c0.2,0.1,0.4,0.2,0.7,0.3c0.2,0.1,0.4,0.1,0.6,0.2c0.2,0.1,0.3,0.2,0.5,0.3
				c0.1,0.1,0.2,0.3,0.3,0.4C38.2,24.6,38.2,24.8,38.2,25z"/>
			<path class="st1" d="M42.6,24.2c0,0.4-0.1,0.8-0.2,1.1c-0.2,0.3-0.3,0.5-0.6,0.7c-0.2,0.2-0.5,0.3-0.7,0.4
				c-0.2,0.1-0.5,0.1-0.7,0.1c-0.4,0-0.7-0.1-1-0.3c-0.3-0.2-0.6-0.4-0.8-0.7l0.8-0.8c0.1,0.2,0.2,0.3,0.4,0.4
				c0.2,0.1,0.3,0.1,0.5,0.1c0.1,0,0.2,0,0.4-0.1c0.1,0,0.2-0.1,0.3-0.2c0.1-0.1,0.2-0.2,0.2-0.3c0.1-0.1,0.1-0.3,0.1-0.4v-4.3h1.3
				L42.6,24.2L42.6,24.2z"/>
			<path class="st1" d="M48,24.6c0,0.2-0.1,0.5-0.2,0.7c-0.1,0.2-0.2,0.4-0.4,0.6c-0.2,0.2-0.4,0.3-0.7,0.4
				c-0.3,0.1-0.5,0.1-0.8,0.1c-0.3,0-0.5,0-0.7,0c-0.2,0-0.4-0.1-0.6-0.2c-0.2-0.1-0.4-0.2-0.6-0.3c-0.2-0.1-0.4-0.2-0.6-0.4
				l0.9-0.9c0.3,0.2,0.5,0.4,0.8,0.5c0.2,0.1,0.5,0.1,0.8,0.1c0.1,0,0.2,0,0.3-0.1c0.1,0,0.2-0.1,0.3-0.1c0.1-0.1,0.1-0.1,0.2-0.2
				c0-0.1,0.1-0.2,0.1-0.3c0-0.1,0-0.2-0.1-0.3c0-0.1-0.1-0.2-0.2-0.2c-0.1-0.1-0.2-0.2-0.4-0.2c-0.2-0.1-0.4-0.2-0.7-0.3
				c-0.2-0.1-0.5-0.2-0.7-0.3c-0.2-0.1-0.4-0.2-0.6-0.4c-0.2-0.2-0.3-0.3-0.4-0.5c-0.1-0.2-0.1-0.5-0.1-0.7c0-0.3,0.1-0.5,0.2-0.8
				c0.1-0.2,0.3-0.4,0.4-0.6c0.2-0.2,0.4-0.3,0.7-0.4c0.3-0.1,0.5-0.1,0.8-0.1c0.5,0,0.9,0.1,1.2,0.2c0.3,0.1,0.6,0.3,0.9,0.6
				L47,21.4c-0.2-0.2-0.3-0.3-0.5-0.4c-0.2-0.1-0.4-0.1-0.7-0.1c-0.1,0-0.2,0-0.3,0.1c-0.1,0-0.2,0.1-0.3,0.1
				c-0.1,0.1-0.1,0.1-0.2,0.2c0,0.1-0.1,0.2-0.1,0.3c0,0.1,0,0.2,0.1,0.3s0.1,0.2,0.2,0.2c0.1,0.1,0.2,0.2,0.4,0.2
				c0.2,0.1,0.4,0.2,0.6,0.3c0.3,0.1,0.6,0.2,0.8,0.4c0.2,0.1,0.4,0.3,0.6,0.4c0.1,0.2,0.3,0.3,0.3,0.5C48,24.1,48,24.4,48,24.6z"/>
		</g>
	</g>
	<g>
		<path class="st2" d="M10.8,16.1c0,0-0.3,0.1-0.5,0.2c-0.1,0-0.3,0.1-0.3,0.1c-0.1,0-0.2,0.1-0.2,0.1l1.6,3.6
			c0.2-0.1,0.3-0.1,0.5-0.2L10.8,16.1z"/>
		<path class="st2" d="M13,17.5c0,0-0.1,0-0.1,0c-0.1,0-0.2,0-0.3,0c-0.2,0-0.4,0.1-0.4,0.1l0.4,2.2c0.2,0,0.4,0,0.6-0.1L13,17.5z"
			/>
		<path class="st2" d="M15.4,14.3c0,0-0.1,0-0.2,0c-0.1,0-0.3,0-0.4-0.1c-0.2,0-0.3,0-0.4-0.1c-0.1,0-0.2,0-0.2,0l-0.5,5.6
			c0.2,0,0.4,0,0.6,0.1L15.4,14.3z"/>
		<path class="st2" d="M16.9,16.7c0,0-0.2-0.1-0.5-0.2c-0.1-0.1-0.2-0.1-0.3-0.1c-0.1,0-0.2-0.1-0.2-0.1l-1.3,3.6
			c0.2,0.1,0.3,0.1,0.5,0.2L16.9,16.7z"/>
		<path class="st3" d="M14.7,28l1.2,3.2c0,0,0.1,0,0.2-0.1c0.1,0,0.2-0.1,0.3-0.1c0.1-0.1,0.2-0.1,0.3-0.1c0.1,0,0.1-0.1,0.1-0.1
			l-1.6-3C15.1,27.9,14.9,28,14.7,28z"/>
		<path class="st3" d="M14,32.5c0,0,0.3,0,0.6-0.1c0.1,0,0.3-0.1,0.4-0.1c0.1,0,0.2,0,0.2,0l-1-4.1c-0.2,0-0.4,0.1-0.6,0.1L14,32.5z
			"/>
		<path class="st3" d="M12.2,29.9c0,0,0,0,0.1,0c0.1,0,0.2,0,0.3,0c0.2,0,0.4,0,0.4,0l0-1.6c-0.2,0-0.4,0-0.6-0.1L12.2,29.9z"/>
		<path class="st3" d="M9,33.4c0,0,0.1,0,0.2,0.1c0.1,0,0.3,0.1,0.4,0.2c0.2,0.1,0.3,0.1,0.4,0.2c0.1,0,0.2,0.1,0.2,0.1l1.6-5.7
			c-0.2-0.1-0.4-0.1-0.5-0.2L9,33.4z"/>
		<path class="st4" d="M6.1,32.9c0,0,0.3,0.2,0.6,0.5c0.1,0.1,0.3,0.2,0.4,0.3c0.1,0.1,0.2,0.1,0.2,0.1l3.6-6.1
			c-0.2-0.1-0.3-0.2-0.5-0.3L6.1,32.9z"/>
		<path class="st4" d="M7.1,28.5c0,0,0.7,0.8,0.7,0.8l2.3-2.3c-0.1-0.1-0.3-0.3-0.4-0.4L7.1,28.5z"/>
		<path class="st4" d="M4.7,27.4c0,0,0.1,0.3,0.2,0.5c0.1,0.1,0.1,0.3,0.2,0.4c0.1,0.1,0.1,0.2,0.1,0.2l4.1-2.4
			c-0.1-0.2-0.2-0.3-0.2-0.5L4.7,27.4z"/>
		<path class="st4" d="M2.1,25.4c0,0,0,0.1,0,0.2c0,0.1,0,0.3,0.1,0.5c0.1,0.4,0.2,0.7,0.2,0.7L9,25.1c0-0.2-0.1-0.4-0.1-0.6
			L2.1,25.4z"/>
		<path class="st5" d="M0.1,22.3c0,0,0,0.1,0,0.3c0,0.2,0,0.4,0,0.6c0,0.2,0,0.4,0,0.6C0,23.9,0,24,0,24L8.9,24c0-0.2,0-0.4,0-0.6
			L0.1,22.3z"/>
		<path class="st5" d="M6.2,21.2c0,0-0.1,0.2-0.2,0.5C6,21.7,6,21.9,6,21.9c0,0.1,0,0.1,0,0.1L9,22.9c0-0.2,0.1-0.4,0.2-0.5
			L6.2,21.2z"/>
		<path class="st5" d="M4.8,17.7c0,0-0.1,0.1-0.1,0.2c-0.1,0.1-0.2,0.2-0.3,0.4C4.2,18.6,4,18.9,4,18.9l5.4,3
			c0.1-0.2,0.2-0.3,0.3-0.5L4.8,17.7z"/>
		<path class="st5" d="M6.5,14.5c0,0-0.3,0.2-0.6,0.5c-0.3,0.2-0.6,0.5-0.6,0.5l5,5.4c0.1-0.1,0.3-0.3,0.5-0.4L6.5,14.5z"/>
	</g>
</g>
</svg>
