<?xml version="1.0" encoding="utf-8"?>
<!-- Generator: Adobe Illustrator 24.3.0, SVG Export Plug-In . SVG Version: 6.00 Build 0)  -->
<svg version="1.1" id="Layer_1" xmlns="http://www.w3.org/2000/svg" xmlns:xlink="http://www.w3.org/1999/xlink" x="0px" y="0px"
	 viewBox="0 0 48 48" style="enable-background:new 0 0 48 48;" xml:space="preserve">
<style type="text/css">
	.st0{fill:#36A2EB;}
	.st1{fill:#FFCE56;}
	.st2{opacity:0.8;fill:#FE6184;enable-background:new    ;}
	.st3{fill:#E7E9ED;}
</style>
<path class="st0" d="M43.6,24.2c-6.7,0.1-5.3,4.4-10,5.5c-4.8,1.1-5.6-11.7-10.4-11.7c-4.8,0-5.9,12.5-11.9,21l-0.2,0.2L24,46.6
	l19.6-11.3V24.2z"/>
<path class="st1" d="M43.6,23.8c-2.2-2.9-3.8-6.2-7-6.2c-5.8,0-4.3,9.5-10.7,9.5c-6.4,0-7.1-10.2-14.3-0.6c-2.3,3-4.2,6.4-5.6,9.7
	L24,46.6l19.6-11.3V23.8z"/>
<path class="st2" d="M4.4,27.7c2.2-6.1,3.2-11,7.4-11c6.4,0,7.9,18,13.4,16.2c5.5-1.8,4.9-11.6,13.4-11.6c1.6,0,3.3,1,4.9,2.6v11.4
	L24,46.6L4.4,35.3L4.4,27.7L4.4,27.7z"/>
<path class="st3" d="M24,48L3.2,36V12L24,0l20.8,12v24L24,48z M5.7,34.6L24,45.2l18.3-10.6V13.4L24,2.8L5.7,13.4V34.6z"/>
</svg>
