<?xml version="1.0" encoding="utf-8"?>
<!-- Generator: Adobe Illustrator 24.3.0, SVG Export Plug-In . SVG Version: 6.00 Build 0)  -->
<svg version="1.1" id="Layer_1" xmlns="http://www.w3.org/2000/svg" xmlns:xlink="http://www.w3.org/1999/xlink" x="0px" y="0px"
	 viewBox="0 0 48 48" style="enable-background:new 0 0 48 48;" xml:space="preserve">
<style type="text/css">
	.st0{clip-path:url(#SVGID_2_);}
	.st1{fill:url(#SVGID_3_);}
	.st2{fill:url(#SVGID_4_);}
	.st3{fill:none;stroke:url(#SVGID_5_);stroke-width:16.5517;stroke-miterlimit:1.6552;}
</style>
<g>
	<defs>
		<path id="SVGID_1_" d="M0,1.3h3.9c12.6,0,22.7,10.2,22.7,22.7S16.4,46.7,3.9,46.7H0v-10h3.9c7,0,12.7-5.7,12.7-12.7
			S10.9,11.3,3.9,11.3H0V1.3z M18.1,1.3h16C41.8,1.3,48,7.5,48,15.1c0,3.2-1.1,6.4-3.2,8.9c4.9,5.9,4.1,14.6-1.8,19.5
			c-2.5,2.1-5.6,3.2-8.9,3.2h-16c3.9-2.5,7.2-5.9,9.4-10h6.6c2.1,0,3.9-1.7,3.9-3.9S36.3,29,34.1,29h-3.9c0.6-3.3,0.6-6.7,0-10h3.9
			c2.1,0,3.9-1.7,3.9-3.9s-1.7-3.9-3.9-3.9h-6.6C25.3,7.2,22.1,3.7,18.1,1.3z"/>
	</defs>
	<clipPath id="SVGID_2_">
		<use xlink:href="#SVGID_1_"  style="overflow:visible;"/>
	</clipPath>
	<g class="st0">
		
			<linearGradient id="SVGID_3_" gradientUnits="userSpaceOnUse" x1="337.4835" y1="-678.44" x2="389.4399" y2="-730.3964" gradientTransform="matrix(0.4138 0 0 -0.4138 -165.8965 -217.7353)">
			<stop  offset="0" style="stop-color:#F9A03C"/>
			<stop  offset="1" style="stop-color:#F7974E"/>
		</linearGradient>
		<path class="st1" d="M-64-49.7v150H86L-64-49.7z"/>
		
			<linearGradient id="SVGID_4_" gradientUnits="userSpaceOnUse" x1="530.8096" y1="-441.6156" x2="606.9317" y2="-517.7377" gradientTransform="matrix(0.4138 0 0 -0.4138 -165.8965 -217.7353)">
			<stop  offset="0" style="stop-color:#B84E51"/>
			<stop  offset="1" style="stop-color:#F68E48"/>
		</linearGradient>
		<path class="st2" d="M-36-49.7h150v150L-36-49.7z"/>
		
			<linearGradient id="SVGID_5_" gradientUnits="userSpaceOnUse" x1="402.4705" y1="-527.6592" x2="505.1709" y2="-631.5679" gradientTransform="matrix(0.4138 0 0 -0.4138 -165.8965 -217.7353)">
			<stop  offset="0" style="stop-color:#F26D58"/>
			<stop  offset="1" style="stop-color:#F9A03C"/>
		</linearGradient>
		<path class="st3" d="M-50-49.7l150,150"/>
	</g>
</g>
</svg>
