<?xml version="1.0" encoding="utf-8"?>
<!-- Generator: Adobe Illustrator 24.3.0, SVG Export Plug-In . SVG Version: 6.00 Build 0)  -->
<svg version="1.1" id="Layer_1" xmlns="http://www.w3.org/2000/svg" xmlns:xlink="http://www.w3.org/1999/xlink" x="0px" y="0px"
	 viewBox="0 0 48 48" style="enable-background:new 0 0 48 48;" xml:space="preserve">
<style type="text/css">
	.st0{clip-path:url(#SVGID_2_);fill:url(#SVGID_3_);}
</style>
<g>
	<defs>
		<path id="SVGID_1_" d="M21.6,5.5c0,0,0,0.1,0,0.2c-0.2,0.1-0.4,0.1-0.6,0.2c-0.3,0.1-0.5,0.2-0.8,0.3c-0.3,0.1-0.5,0.2-0.8,0.3
			c-0.5,0.2-1.1,0.5-1.6,0.8c-0.5,0.3-1,0.6-1.5,0.9c-0.1,0-0.1-0.1-0.1-0.1c-5-1.9-9.4,0.4-9.4,0.4c-0.4,5.3,2,8.7,2.5,9.3
			c-0.1,0.3-0.2,0.7-0.3,1C8.4,20,8.1,21.2,8,22.5c0,0.2,0,0.4-0.1,0.6c-4.6,2.3-6,7-6,7c3.9,4.4,8.3,4.7,8.3,4.7c0,0,0,0,0,0
			c0.6,1,1.2,2,2,2.9c0.3,0.4,0.6,0.7,1,1.1c-1.4,4,0.2,7.4,0.2,7.4c4.3,0.2,7.1-1.9,7.7-2.3c0.4,0.1,0.9,0.3,1.3,0.4
			c1.3,0.3,2.7,0.5,4,0.6c0.3,0,0.7,0,1,0h0.2l0.1,0l0.2,0l0.2,0l0,0c2,2.9,5.6,3.3,5.6,3.3c2.5-2.7,2.7-5.3,2.7-5.9c0-0.6,0,0,0,0
			c0,0,0-0.1,0-0.1c0,0,0-0.1,0-0.1c0.5-0.4,1-0.8,1.5-1.2c1-0.9,1.9-2,2.6-3.1c0.1-0.1,0.1-0.2,0.2-0.3c2.9,0.2,4.9-1.8,4.9-1.8
			c-0.5-3-2.2-4.4-2.5-4.7s0,0,0,0c0,0,0,0,0,0c0,0,0,0-0.1,0c0-0.2,0-0.4,0-0.5c0-0.3,0-0.6,0-1l0-0.2l0-0.1v-0.1
			c0-0.1,0-0.1,0-0.1l0-0.2l0-0.3c0-0.1,0-0.2,0-0.3c0-0.1,0-0.2,0-0.2l0-0.2l0-0.2c0-0.3-0.1-0.7-0.2-1c-0.3-1.3-0.8-2.5-1.5-3.6
			c-0.7-1.1-1.5-2.1-2.4-2.9c-0.9-0.8-2-1.5-3.1-2c-1.1-0.5-2.2-0.8-3.4-1c-0.6-0.1-1.1-0.1-1.7-0.1l-0.2,0l-0.1,0c0,0-0.1,0-0.1,0
			l-0.1,0l-0.2,0c-0.1,0-0.2,0-0.2,0c-0.3,0-0.6,0.1-0.9,0.1c-1.1,0.2-2.2,0.6-3.1,1.2c-0.9,0.6-1.8,1.3-2.4,2.1
			c-0.7,0.8-1.2,1.7-1.5,2.6c-0.4,0.9-0.6,1.9-0.6,2.8c0,0.2,0,0.5,0,0.7c0,0.1,0,0.1,0,0.2l0,0.2c0,0.1,0,0.2,0,0.3
			c0,0.5,0.1,0.9,0.3,1.3c0.2,0.9,0.6,1.6,1.1,2.3c0.5,0.7,1.1,1.2,1.7,1.6c0.6,0.4,1.3,0.7,2,0.9c0.7,0.2,1.3,0.3,1.9,0.3
			c0.1,0,0.2,0,0.2,0c0,0,0.1,0,0.1,0l0.1,0c0.1,0,0.1,0,0.2,0c0,0,0,0,0.1,0l0.1,0c0,0,0.1,0,0.1,0c0.1,0,0.2,0,0.2,0
			c0.1,0,0.1,0,0.2,0c0.1,0,0.3-0.1,0.4-0.1c0.3-0.1,0.5-0.2,0.8-0.3c0.2-0.1,0.5-0.3,0.7-0.4c0.1,0,0.1-0.1,0.2-0.1
			c0.2-0.2,0.3-0.5,0.1-0.7c-0.2-0.2-0.4-0.2-0.6-0.1c-0.1,0-0.1,0.1-0.2,0.1c-0.2,0.1-0.4,0.2-0.6,0.2c-0.2,0.1-0.4,0.1-0.6,0.2
			c-0.1,0-0.2,0-0.3,0c-0.1,0-0.1,0-0.2,0c-0.1,0-0.1,0-0.2,0c-0.1,0-0.1,0-0.2,0c-0.1,0-0.1,0-0.2,0c0,0,0,0,0,0l0,0l0,0
			c0,0-0.1,0-0.1,0c-0.1,0-0.1,0-0.2,0c-0.5-0.1-1-0.2-1.4-0.4c-0.5-0.2-0.9-0.5-1.3-0.9c-0.4-0.4-0.8-0.8-1-1.3
			c-0.3-0.5-0.5-1.1-0.6-1.6c0-0.3-0.1-0.6-0.1-0.9c0-0.1,0-0.2,0-0.2c0,0,0,0,0,0l0,0l0-0.1c0,0,0-0.1,0-0.1c0-0.2,0-0.3,0.1-0.5
			c0.2-1.3,0.9-2.5,1.8-3.5c0.2-0.2,0.5-0.5,0.8-0.6c0.3-0.2,0.6-0.4,0.9-0.5s0.6-0.3,1-0.4c0.3-0.1,0.7-0.1,1-0.2
			c0.2,0,0.3,0,0.5,0c0,0,0.1,0,0.1,0l0.1,0l0.1,0c0,0,0,0,0,0l0,0l0.1,0c0.4,0,0.8,0.1,1.1,0.2c0.7,0.2,1.5,0.4,2.1,0.8
			c1.3,0.7,2.5,1.9,3.2,3.3c0.4,0.7,0.6,1.5,0.7,2.2c0,0.2,0.1,0.4,0.1,0.6l0,0.1l0,0.1c0,0.1,0,0.1,0,0.1c0,0,0,0.1,0,0.1v0.1
			l0,0.1c0,0.1,0,0.3,0,0.3c0,0.2,0,0.4-0.1,0.6c0,0.2-0.1,0.4-0.1,0.6c0,0.2-0.1,0.4-0.1,0.6c-0.1,0.4-0.2,0.8-0.4,1.2
			c-0.3,0.8-0.7,1.6-1.2,2.3c-1,1.4-2.4,2.5-4,3.3c-0.8,0.4-1.6,0.6-2.5,0.8c-0.4,0.1-0.9,0.1-1.3,0.1l-0.1,0H28l-0.1,0h-0.2h-0.1
			c0.1,0,0,0,0,0l0,0c-0.2,0-0.5,0-0.7,0c-0.9-0.1-1.8-0.2-2.7-0.5c-0.9-0.3-1.8-0.6-2.6-1c-1.6-0.9-3.1-2.1-4.2-3.5
			c-0.6-0.7-1.1-1.5-1.5-2.3c-0.4-0.8-0.7-1.7-1-2.5c-0.2-0.9-0.4-1.8-0.4-2.7l0-0.2l0,0v0l0-0.1l0-0.1l0,0v-0.1v-0.1l0-0.2v0
			c0,0,0,0,0,0V25c0-0.1,0-0.2,0-0.3c0-0.4,0.1-0.9,0.1-1.4c0.1-0.5,0.1-0.9,0.2-1.4c0.1-0.5,0.2-0.9,0.3-1.3
			c0.3-0.9,0.6-1.7,0.9-2.6c0.7-1.6,1.7-3.1,2.9-4.2c0.3-0.3,0.6-0.6,0.9-0.8c0.3-0.3,0.6-0.5,1-0.7c0.3-0.2,0.7-0.4,1-0.6
			c0.2-0.1,0.4-0.2,0.5-0.3c0.1,0,0.2-0.1,0.3-0.1s0.2-0.1,0.3-0.1c0.4-0.2,0.8-0.3,1.1-0.4c0.1,0,0.2-0.1,0.3-0.1
			c0.1,0,0.2-0.1,0.3-0.1c0.2-0.1,0.4-0.1,0.6-0.2c0.1,0,0.2,0,0.3-0.1c0.1,0,0.2,0,0.3-0.1c0.1,0,0.2,0,0.3-0.1l0.2,0l0.2,0
			c0.1,0,0.2,0,0.3,0c0.1,0,0.2,0,0.3,0c0.1,0,0.2,0,0.3,0c0.1,0,0.1,0,0.2,0l0.1,0l0.1,0l0.1,0c0.1,0,0.2,0,0.3,0l0.2,0
			c0,0,0.1,0,0,0l0,0l0.1,0c0.1,0,0.2,0,0.3,0c0.4,0,0.8,0,1.2,0c0.8,0,1.5,0.1,2.3,0.3c1.5,0.3,2.8,0.7,4.1,1.4
			c1.3,0.6,2.4,1.4,3.3,2.2c0.1,0.1,0.1,0.1,0.2,0.2c0.1,0.1,0.1,0.1,0.2,0.2c0.1,0.1,0.2,0.2,0.3,0.3c0.1,0.1,0.2,0.2,0.3,0.3
			c0.1,0.1,0.2,0.2,0.3,0.3c0.4,0.4,0.8,0.9,1.1,1.3c0.7,0.9,1.2,1.8,1.7,2.6c0,0.1,0.1,0.1,0.1,0.2s0.1,0.1,0.1,0.2
			c0.1,0.1,0.1,0.2,0.1,0.3c0,0.1,0.1,0.2,0.1,0.3c0,0.1,0.1,0.2,0.1,0.3c0.2,0.4,0.3,0.8,0.4,1.1c0.2,0.6,0.3,1.1,0.5,1.5
			c0,0.2,0.2,0.3,0.4,0.3c0.2,0,0.3-0.2,0.3-0.4c0-0.5,0-1.1-0.1-1.7c-0.1-0.8-0.2-1.7-0.5-2.8c-0.3-1-0.7-2.1-1.2-3.3
			c-0.6-1.2-1.3-2.4-2.3-3.5c-0.4-0.5-0.8-0.9-1.3-1.4c0.7-2.7-0.8-5-0.8-5C37.3,5,35.7,6,35.1,6.4c-0.1,0-0.2-0.1-0.3-0.1
			c-0.4-0.2-0.9-0.3-1.4-0.5S32.5,5.5,32,5.4c-0.5-0.1-1-0.2-1.5-0.3c-0.1,0-0.2,0-0.3,0C29.1,1.5,25.9,0,25.9,0
			C22.3,2.3,21.6,5.5,21.6,5.5"/>
	</defs>
	<clipPath id="SVGID_2_">
		<use xlink:href="#SVGID_1_"  style="overflow:visible;"/>
	</clipPath>
	
		<linearGradient id="SVGID_3_" gradientUnits="userSpaceOnUse" x1="-1157.1758" y1="-7712.5269" x2="-1150.0594" y2="-7712.5269" gradientTransform="matrix(0 -6.1635 6.1635 0 47560.4922 -7073.5063)">
		<stop  offset="0" style="stop-color:#FFF200"/>
		<stop  offset="1" style="stop-color:#F15A29"/>
	</linearGradient>
	<path class="st0" d="M1.9,0h44.2v48H1.9L1.9,0z"/>
</g>
</svg>
