<svg xmlns="http://www.w3.org/2000/svg" xmlns:xlink="http://www.w3.org/1999/xlink" id="Layer_1" x="0" y="0" version="1.1" viewBox="0 0 48 48" xml:space="preserve" style="enable-background:new 0 0 48 48"><style type="text/css">.st0{fill:#e9478b}.st1{fill:#3ebeb0}.st2{fill:#37a595}.st3{fill:#353535}</style><path d="M6.2,18c6.4,0,12.4,1.7,17.6,4.5L42.5,0h-37v44.5V18C5.5,18,6.2,18,6.2,18z" class="st0"/><path d="M23.8,22.4L5.5,44.5V48h36.9C40.3,37,33.3,27.7,23.8,22.4z" class="st1"/><path d="M23.8,22.4L5.5,44.5V48H12l17.8-21.5c0,0-1.2-1-2.9-2.2C25.7,23.5,23.8,22.4,23.8,22.4z" class="st2"/><path d="M6.2,18H5.5v26.5l18.3-22.1C18.6,19.6,12.6,18,6.2,18z" class="st3"/></svg>