<svg xmlns="http://www.w3.org/2000/svg" xmlns:xlink="http://www.w3.org/1999/xlink" id="Layer_1" x="0" y="0" version="1.1" viewBox="0 0 48 48" xml:space="preserve" style="enable-background:new 0 0 48 48"><style type="text/css">.st0{fill:#fff}.st1{fill:#466acd}.st2{fill:#53a526}.st3{fill:#71aefd}.st4{fill:#81d837}</style><path d="M7.2,0h33.6c4,0,7.2,3.2,7.2,7.2v33.6c0,4-3.2,7.2-7.2,7.2H7.2c-4,0-7.2-3.2-7.2-7.2V7.2C0,3.2,3.2,0,7.2,0z" class="st0"/><path d="M4.5,10C12.2-0.7,27.2-3.2,38,4.5C44.3,9,48,16.3,48,24c0,12.7-13.3,10.9-13.3,10.9c5.9-6,5.9-15.7-0.1-21.6	c-4.4-4.4-11-5.6-16.7-3.2C10.5,5.8,4.5,10,4.5,10" class="st1"/><path d="M43.6,37.9c-7.7,10.8-22.7,13.2-33.5,5.5c-6.3-4.5-10-11.8-10-19.5C0.1,11.2,13.4,13,13.4,13	c-5.9,6-5.9,15.7,0.1,21.6c4.4,4.4,11,5.6,16.7,3.2C37.6,42.1,43.6,37.9,43.6,37.9" class="st2"/><path d="M20,12c6.6-2.3,13.8,1.3,16.1,7.9c1.8,5.3,0,11.1-4.5,14.3c-3.5,0.3-6.4-10.1-6.8-11.7S22.9,15.1,20,12" class="st3"/><path d="M16.5,34.2c-5.7-4.1-6.9-12-2.8-17.7c0.8-1.1,1.8-2.1,3-2.9c3.4,1.8,5.5,8.4,5.5,8.4S17.2,31.6,16.5,34.2 M19.6,35.9c0,0,3.6,1.7,8.3,0.2c-2.8-2.3-4.5-10.4-5-11.5C22.3,25.9,18.9,32.7,19.6,35.9" class="st4"/></svg>