<?xml version="1.0" encoding="utf-8"?>
<!-- Generator: Adobe Illustrator 24.3.0, SVG Export Plug-In . SVG Version: 6.00 Build 0)  -->
<svg version="1.1" id="Layer_1" xmlns="http://www.w3.org/2000/svg" xmlns:xlink="http://www.w3.org/1999/xlink" x="0px" y="0px"
	 viewBox="0 0 64 64" style="enable-background:new 0 0 64 64;" xml:space="preserve">
<path d="M34.4,7.8c-1.3,0.4-2.6,0.9-3.9,1.5l-3.6,2c-2.4,1.4-6.5,1.8-7.6,0.7c-1-1-0.9-1.4,0.2-2c0.6-0.3,1.9-0.4,3.5-0.2
	c2.1,0.3,2.6,0.2,2.6-0.3c0-0.8-2.2-1.6-3.8-1.3c-3.5,0.5-4,0.7-4.4,1.2c-1,1.3-0.9,2.5,0.4,3.7c2.9,2.7,7.8,2.6,13.6-0.2
	c4.8-2.3,7.1-3,10.3-2.9c2.8,0,4.3,0.6,4.3,1.8c0,1.8-5.6,2.5-7.3,0.9c-0.9-0.8-1-0.9-2-0.2c-1.3,0.8-1.3,1.2-0.3,2.1
	c1,1,2.3,1.3,5,1.3c4.6,0.1,8.1-1.6,8.1-3.9C49.5,8,41.7,5.9,34.4,7.8L34.4,7.8z M5.9,11.7c-3.2,1.6-3.6,3.3-1.5,5
	c1.7,1.5,5,2.6,10.4,3.7c6.4,1.3,9.8,1.5,19.7,1.5c12.3,0,21.2-1.4,26.6-4.1c3.3-1.7,3.7-4.1,0.8-5.8c-1.3-0.7-1.3-0.7-1,0.1
	c0.4,1.3-0.1,2.2-1.7,3.2c-1.6,1-6.8,2.4-10.1,2.8c-1.2,0.1-2.6,0.3-3.2,0.5c-2.3,0.6-20.6,0.5-24.9-0.1c-7.2-1-12.2-2.6-13.7-4.4
	c-0.8-1-0.8-1.2-0.2-2.1C8,10.8,7.7,10.8,5.9,11.7L5.9,11.7z M3.7,21.2c0.1,1,0.7,3.3,1.2,5.1l1,3.3L3.6,32c-4.8,5.2-4.8,12,0,16.1
	c2.8,2.4,7.5,2.9,10.6,1.2c0.7-0.4,0.7-0.5-0.4-0.5c-2.3,0-6-2.5-7.7-5.2c-0.9-1.4-1.6-4.6-1.4-6.2c0.2-1.4,1.7-4.6,2.2-4.6
	c0.2,0,0.7,1,1.3,2.1c0.6,1.2,2.5,4.2,4.3,6.9c3,4.2,5.3,8.5,5.3,10c0,1.1,3.4,3.2,6.6,4.2c2.9,0.9,4.2,1.1,9.1,1.1
	c10.5,0,15.4-2.3,17-7.8c0.4-1.3,1.6-3.6,2.6-5c5.3-7.4,6.4-9.1,8.2-14.3c0.6-1.7,1.4-4.4,1.8-6.1l0.9-3.6c0.1-0.3-0.5-0.1-1.4,0.5
	c-2.3,1.6-6.1,2.8-10.8,3.5c-0.9,0.1-2,0.3-2.5,0.4c-4.2,0.8-21.3,1.2-27.4,0.5c-8.6-1-15.1-2.7-17.5-4.8l-1-0.9L3.7,21.2z"/>
</svg>
