<svg xmlns="http://www.w3.org/2000/svg" xmlns:xlink="http://www.w3.org/1999/xlink" style="enable-background:new 0 0 48 48" id="Layer_1" x="0" y="0" version="1.1" viewBox="0 0 48 48" xml:space="preserve"><style type="text/css">.st0{fill:#00549d}.st0,.st1,.st2,.st3{fill-rule:evenodd;clip-rule:evenodd}.st1{fill:#0086d4}.st2{fill:#fff}.st3{fill:#0075c0}</style><path d="M22.7,0.3c0.8-0.4,1.7-0.4,2.5,0C29.1,2.5,40.6,9,44.5,11.1c0.8,0.4,1.3,1.2,1.3,2.1c0,4.3,0,17.3,0,21.6	c0,0.9-0.5,1.7-1.3,2.1c-3.8,2.2-15.4,8.6-19.2,10.8c-0.8,0.4-1.7,0.4-2.5,0C18.9,45.5,7.4,39,3.5,36.9c-0.8-0.4-1.3-1.2-1.3-2.1	c0-4.3,0-17.3,0-21.6c0-0.9,0.5-1.7,1.3-2.1C7.4,9,18.9,2.5,22.7,0.3z" class="st0"/><path d="M2.6,35.9c-0.3-0.4-0.3-0.8-0.3-1.3c0-4.3,0-17.2,0-21.4c0-0.9,0.5-1.7,1.3-2.1C7.4,8.9,18.9,2.5,22.7,0.3	c0.8-0.4,1.8-0.4,2.6,0C29.1,2.5,40.6,8.9,44.4,11c0.3,0.2,0.5,0.4,0.8,0.7L2.6,35.9z" class="st1"/><path d="M24,8c8.8,0,16,7.2,16,16s-7.2,16-16,16S8,32.8,8,24S15.2,8,24,8z M24,16c4.4,0,8,3.6,8,8c0,4.4-3.6,8-8,8	s-8-3.6-8-8C16,19.6,19.6,16,24,16z" class="st2"/><path d="M45.1,11.7c0.6,0.6,0.6,1.4,0.6,2c0,4.3,0,16.7,0,21c0,0.5-0.1,0.9-0.4,1.3L23.5,24L45.1,11.7z" class="st3"/><path d="M32,20.6h2.3v6.9H32V20.6z M40,20.6h2.3v6.9H40V20.6z" class="st2"/><path d="M29.7,22.9h6.9v2.3h-6.9V22.9z M37.7,22.9h6.9v2.3h-6.9V22.9z" class="st2"/></svg>