<svg xmlns="http://www.w3.org/2000/svg" xmlns:xlink="http://www.w3.org/1999/xlink" style="enable-background:new 0 0 64 64" id="Layer_1" x="0" y="0" version="1.1" viewBox="0 0 64 64" xml:space="preserve"><style type="text/css">.st0{fill:url(#SVGID_1_)}.st0,.st1,.st2,.st3,.st4,.st5{fill-rule:evenodd;clip-rule:evenodd}.st1{fill:url(#SVGID_2_)}.st2{fill:url(#SVGID_3_)}.st3{fill:url(#SVGID_4_)}.st4{fill:url(#SVGID_5_)}.st5{fill:url(#SVGID_6_)}.st6{fill:url(#SVGID_7_)}.st6,.st7,.st8,.st9{fill-rule:evenodd;clip-rule:evenodd}.st7{fill:#330a4c;fill-opacity:.3163}.st8{fill:#fff}.st9{fill:#ededed;fill-opacity:.6033}</style><g><linearGradient id="SVGID_1_" x1="1940.974" x2="1933.767" y1="-1516.647" y2="-1812.288" gradientTransform="matrix(0.1297 0 0 -0.2 -219.2176 -298.4317)" gradientUnits="userSpaceOnUse"><stop style="stop-color:#d9d8dc" offset="0"/><stop style="stop-color:#fff;stop-opacity:.3853" offset="1"/></linearGradient><path d="M33.8,0.2c-4.6,1.6-9.1,6.5-13.5,14.4c-6.5,12-14.9,29-3.3,42.4c5.3,6.2,14.2,9.9,25.7,4.1 C52,56.4,54.6,43,51.3,36.7c-6.9-13-13.9-16.2-15.7-24.3C34.3,7,33.7,3,33.8,0.2z" class="st0"/><linearGradient id="SVGID_2_" x1="2233.27" x2="2174.305" y1="-1276.976" y2="-1533.971" gradientTransform="matrix(0.1142 0 0 -0.2271 -223.3247 -286.1413)" gradientUnits="userSpaceOnUse"><stop style="stop-color:#8d67af;stop-opacity:.6719" offset="0"/><stop style="stop-color:#9f8daf" offset="1"/></linearGradient><path d="M33.8,0c-4.7,1.7-9.2,6.5-13.5,14.4c-6.5,11.9-14.9,29-3.3,42.4c5.3,6.2,14,8.2,18.9,4.5 c3.1-2.4,5.3-4.7,6.5-9.5c1.4-5.4,0.3-12.6-0.4-16c-0.9-4.2-1.2-8.8-0.9-13.9c-0.1-0.1-0.2-0.2-0.2-0.3c-2.5-3.1-4.5-5.8-5.3-9.5 C34.3,6.9,33.7,2.8,33.8,0z" class="st1"/><linearGradient id="SVGID_3_" x1="2087.43" x2="2087.43" y1="-1487.642" y2="-1681.037" gradientTransform="matrix(0.1227 0 0 -0.2115 -221.0835 -293.2332)" gradientUnits="userSpaceOnUse"><stop style="stop-color:#26053d;stop-opacity:.7616" offset="0"/><stop style="stop-color:#b7b4b4;stop-opacity:.2777" offset="1"/></linearGradient><path d="M29.9,2.1c-4.4,3.4-7.6,9.2-9.7,17.3c-3.2,12.2-3.5,23.4-2.4,29.9c2.2,12.6,13.4,17.4,25,11.5 c7.1-3.6,10.1-11.4,9.9-19.8c-0.2-8.7-17-18.6-20-25.9C30.7,10.2,29.8,5.9,29.9,2.1z" class="st2"/><linearGradient id="SVGID_4_" x1="1214.12" x2="1303.568" y1="-2478.573" y2="-2658.578" gradientTransform="matrix(0.1848 0 0 -0.1404 -204.6236 -325.4247)" gradientUnits="userSpaceOnUse"><stop style="stop-color:#91739f;stop-opacity:.4595" offset="0"/><stop style="stop-color:#32054f;stop-opacity:.5399" offset="1"/></linearGradient><path d="M40.9,24.9c5.2,6.7,6.4,11.4,3.4,14c-4.4,3.9-15.2,6.5-21.9,1.7c-4.5-3.2-6.2-10-5.1-20.4 c-1.8,3.9-3.4,7.8-4.7,11.7S11,40,11.5,44.3c1.6,3.2,5.5,5.4,11.7,6.5c9.3,1.6,18.1,0.8,24-2.1c3.9-2,5.8-4,5.6-5.9 c0.1-2.9-0.8-5.7-2.7-8.3C48.1,31.9,45.1,28.7,40.9,24.9z" class="st3"/><linearGradient id="SVGID_5_" x1="1828.024" x2="1669.046" y1="-1991.769" y2="-1821.93" gradientTransform="matrix(0.1418 0 0 -0.1829 -216.0028 -306.178)" gradientUnits="userSpaceOnUse"><stop style="stop-color:#463d49;stop-opacity:.3312" offset="0"/><stop style="stop-color:#340a50;stop-opacity:.8214" offset="1"/></linearGradient><path d="M20.5,18.2c0,4.8,1.2,9.4,3.7,13.8c3.8,6.5,8.2,13,14.9,18.3c4.4,3.6,8,4.7,10.6,3.5c-2.2,3.9-4.5,5.8-6.9,5.7 c-3.7-0.1-8.1-1.7-15.3-10.3c-4.8-5.7-8-11.2-9.8-16.3c0.3-2,0.6-4.1,0.9-6.1S19.5,21.9,20.5,18.2z" class="st4"/><linearGradient id="SVGID_6_" x1="2469.26" x2="2421.949" y1="-1221.623" y2="-1387.873" gradientTransform="matrix(0.106 0 0 -0.2448 -225.5084 -278.1429)" gradientUnits="userSpaceOnUse"><stop style="stop-color:#715383;stop-opacity:.1452" offset="0"/><stop style="stop-color:#f4f4f4;stop-opacity:.2336" offset="1"/></linearGradient><path d="M31.8,24.8c0.4,3.9,1.9,10.2,0,14.4S20.9,51,23.3,57.7c2.5,6.7,8.5,5.2,12.3,2.1c3.8-3.1,5.8-8.1,6.2-11.6 c0.4-3.5-1.1-10.3-1.6-16.2c-0.3-3.9-0.1-7.3,0.7-10.1l-1.2-1.5l-6.8-2C31.9,20.1,31.5,22.2,31.8,24.8z" class="st5"/><linearGradient id="SVGID_7_" x1="2930.43" x2="2779.317" y1="-1023.492" y2="-995.056" gradientTransform="matrix(9.173097e-02 0 0 -0.2828 -229.2815 -260.9361)" gradientUnits="userSpaceOnUse"><stop style="stop-color:#a5a1a8;stop-opacity:.3561" offset="0"/><stop style="stop-color:#370c50;stop-opacity:.582" offset="1"/></linearGradient><path d="M34.2,5.3c-2.2,0.9-4.3,2.8-6.3,5.5c-3,4.1-4.5,6.6-3.4,14.8c0.7,5.5,1.3,10.5,1.6,15.1l9.5-27.7 c-0.4-1.4-0.6-2.7-0.9-3.8S34.4,6.8,34.2,5.3z" class="st6"/><path d="M35.7,13c-2.4,1.4-4.3,4.3-5.6,8.7s-2.6,10.5-3.7,18.4c1.5-5,2.5-8.6,2.9-10.9c0.7-3.4,1-8.1,2.9-11.4 C33.5,15.7,34.7,14.1,35.7,13z" class="st7"/><path d="M24.5,59.9c4,0.6,6.1,1.1,6.3,1.5c0.3,0.7-0.5,1.3-2.7,0.9C26.5,62,25.4,61.3,24.5,59.9z" class="st8"/><path d="M26.5,5.3c-2.2,2.6-4.1,5.4-5.7,8.3s-2.8,5.1-3.4,6.6C17.1,21.3,17,22.9,17,25c0,2.1,0.2,4.4,0.5,7 c0.3-5,1.3-9.9,2.9-14.7S24.1,8.6,26.5,5.3z" class="st9"/></g></svg>