<?xml version="1.0" encoding="utf-8"?>
<!-- Generator: Adobe Illustrator 24.3.0, SVG Export Plug-In . SVG Version: 6.00 Build 0)  -->
<svg version="1.1" id="Layer_1" xmlns="http://www.w3.org/2000/svg" xmlns:xlink="http://www.w3.org/1999/xlink" x="0px" y="0px"
	 viewBox="0 0 256 225" style="enable-background:new 0 0 256 225;" xml:space="preserve">
<style type="text/css">
	.st0{fill:#FFFFFF;}
	.st1{fill:#A90533;}
</style>
<g>
	<path class="st0" d="M0,0.2h256v224.5H0V0.2z"/>
</g>
<path class="st1" d="M44.4,160.2c-18.8-20-29.9-47.5-29.8-80.4c0-29.1,9.1-54.1,24.8-73.1l0,0h-33v153.6L44.4,160.2z M218.4,160.2
	c8.1-8.7,15.4-18.9,22-30.6l-36.6-18.3c-12.8,20.9-31.6,40.1-57.6,40.2c-37.8-0.1-52.6-32.4-52.6-74h141.2c0.2-4.7,0.2-6.9,0-9.1
	c0.9-24.8-5.6-45.6-17.6-61.8l-0.1,0h31.8v153.6L218.4,160.2L218.4,160.2L218.4,160.2z M96,41.8c1.6-18.8,16.4-31.5,33.8-31.5
	c17.5,0,30.2,12.7,30.6,31.5H96L96,41.8z"/>
<path d="M26.5,217.8v-6.4H14.1v-10.1H26v-6.4H14.1v-8.7h12.3v-6.4H6.8v37.9L26.5,217.8z M59.8,201.8c4.9-0.7,7.6-5.6,7.8-10.5
	c-0.2-8.1-5.4-11.4-12.8-11.4H44.8v37.9h7.3v-15.1l9.1,15.1h9.1L59.8,201.8z M52.1,185.8H53c4,0.1,7,1.1,6.9,5.9
	c0.1,4.5-2.8,5.7-6.9,5.5h-0.9V185.8z M103.7,211.4H93.2v-31.5h-7.3v37.9h17.8L103.7,211.4z M141.2,210l3.2,7.8h7.8L138,178.9h-5.9
	L117,217.8h7.8l3.2-7.8H141.2z M139.4,204.1h-9.1l4.1-14.2L139.4,204.1z M199.3,218.7v-38.9h-7.8v25.6l-20.1-26.5h-5.5v38.9h7.8
	v-25.6l20.1,26.5L199.3,218.7z M231.3,197.7v5.9h8.2c-0.2,4.8-4.1,8.8-8.7,8.7c-7.3,0.1-10.9-6.9-11-13.3c0.1-6.3,3.6-13.6,11-13.7
	c3.8,0.1,7.1,2.7,8.7,5.9l6.4-3.2c-2.8-5.9-8.5-9.2-15.1-9.1c-11.3-0.1-18.6,9.3-18.7,20.1c0.1,10.6,7.2,20,18.3,20.1
	c12-0.1,17.5-9.7,17.4-20.6v-0.9L231.3,197.7L231.3,197.7z"/>
</svg>
