<?xml version="1.0" encoding="utf-8"?>
<!-- Generator: Adobe Illustrator 24.3.0, SVG Export Plug-In . SVG Version: 6.00 Build 0)  -->
<svg version="1.1" id="Layer_1" xmlns="http://www.w3.org/2000/svg" xmlns:xlink="http://www.w3.org/1999/xlink" x="0px" y="0px"
	 viewBox="0 0 207 78" style="enable-background:new 0 0 207 78;" xml:space="preserve">
<style type="text/css">
	.st0{fill-rule:evenodd;clip-rule:evenodd;fill:#00ACD7;}
	.st1{fill:#00ACD7;}
</style>
<g>
	<path class="st0" d="M15.6,23.7c-0.4,0-0.5-0.2-0.3-0.5l2.1-2.7c0.2-0.3,0.7-0.5,1.1-0.5h36c0.4,0,0.5,0.3,0.3,0.6l-1.7,2.6
		c-0.2,0.3-0.7,0.6-1,0.6L15.6,23.7z"/>
	<path class="st0" d="M0.4,33c-0.4,0-0.5-0.2-0.3-0.5l2.1-2.7c0.2-0.3,0.7-0.5,1.1-0.5h46c0.4,0,0.6,0.3,0.5,0.6L49,32.3
		c-0.1,0.4-0.5,0.6-0.9,0.6L0.4,33z"/>
	<path class="st0" d="M24.8,42.3c-0.4,0-0.5-0.3-0.3-0.6l1.4-2.5c0.2-0.3,0.6-0.6,1-0.6h20.2c0.4,0,0.6,0.3,0.6,0.7l-0.2,2.4
		c0,0.4-0.4,0.7-0.7,0.7L24.8,42.3z"/>
	<g transform="translate(55)">
		<path class="st0" d="M74.4,21.9c-6.3,1.6-10.7,2.8-16.9,4.4c-1.5,0.4-1.6,0.5-2.9-1c-1.5-1.7-2.6-2.8-4.7-3.8
			c-6.3-3.1-12.5-2.2-18.2,1.5c-6.9,4.4-10.4,11-10.3,19.1c0.1,8.1,5.6,14.7,13.6,15.8c6.9,0.9,12.6-1.5,17.1-6.7
			c0.9-1.1,1.7-2.3,2.7-3.7c-3.6,0-8.2,0-19.5,0c-2.1,0-2.6-1.3-1.9-3c1.3-3.1,3.7-8.4,5.1-11c0.3-0.6,1-1.6,2.5-1.6h36.7
			c-0.2,2.7-0.2,5.4-0.6,8.2c-1.1,7.3-3.8,13.9-8.3,19.8c-7.3,9.6-16.7,15.5-28.7,17.1c-9.9,1.3-19-0.6-27.1-6.7
			C5.6,64.8,1.3,57.3,0.2,48c-1.3-11,1.9-20.9,8.6-29.5C16,9.1,25.4,3.2,37,1.1C46.5-0.6,55.6,0.5,63.7,6c5.3,3.5,9.2,8.4,11.7,14.2
			C76,21.1,75.6,21.6,74.4,21.9z"/>
		<path class="st1" d="M107.8,77.7c-9.2-0.2-17.5-2.8-24.6-8.9c-5.9-5.1-9.7-11.7-10.9-19.5c-1.8-11.4,1.3-21.5,8.2-30.4
			c7.4-9.7,16.2-14.7,28.2-16.8c10.3-1.8,20-0.8,28.7,5.1c8,5.4,12.9,12.8,14.2,22.5c1.7,13.6-2.2,24.7-11.6,34.2
			c-6.7,6.8-14.8,11-24.2,12.9C113.1,77.3,110.4,77.4,107.8,77.7z M131.8,37c-0.1-1.3-0.1-2.3-0.3-3.3c-1.8-10-11-15.6-20.6-13.4
			c-9.4,2.1-15.4,8.1-17.6,17.5c-1.8,7.9,2,15.8,9.3,19c5.5,2.4,11.1,2.1,16.4-0.6C126.9,52.1,131.3,45.6,131.8,37L131.8,37z"/>
	</g>
</g>
</svg>
