<?xml version="1.0" encoding="utf-8"?>
<!-- Generator: Adobe Illustrator 24.3.0, SVG Export Plug-In . SVG Version: 6.00 Build 0)  -->
<svg version="1.1" id="Layer_1" xmlns="http://www.w3.org/2000/svg" xmlns:xlink="http://www.w3.org/1999/xlink" x="0px" y="0px"
	 viewBox="0 0 48 48" style="enable-background:new 0 0 48 48;" xml:space="preserve">
<style type="text/css">
	.st0{fill:#F44336;}
	.st1{fill:#1565C0;}
</style>
<path class="st0" d="M23.6,25.1c-1.2-1.9-2.1-3.5-3.3-6.5c-2-5.1,12.4-9.7,6.5-18.5c2.5,6.1-9.1,9.9-10.2,15
	C15.7,19.6,23.6,25.1,23.6,25.1z"/>
<path class="st0" d="M23.9,15.9c-0.2,3,2.7,4.6,2.8,6.8c0.1,1.8-1.7,3.3-1.7,3.3s3.3-0.6,4.3-3.4c1.1-3-2.2-5.1-1.9-7.6
	c0.3-2.3,7.2-6.7,7.2-6.7S24.4,9.1,23.9,15.9z"/>
<g>
	<path class="st1" d="M33.7,25.3c2.1-0.5,3.9,0.9,3.9,2.4c0,3.5-4.8,6.8-4.8,6.8s7.5-0.9,7.5-6.6C40.2,24.1,36.6,23.1,33.7,25.3z
		 M30.2,28.1c0,0,2.3-1.7,2.9-2.3c-5.7,1.2-18.8,1.4-18.8,0.3c0-1,4.2-2,4.2-2S9.2,24,9.2,26.8C9.2,29.6,21.4,29.8,30.2,28.1z"/>
	<path class="st1" d="M28.7,30.7c-5.4,1.8-15.4,1.2-12.4-1.2c-1.4,0-3.6,1.2-3.6,2.3c0,2.2,10.8,3.9,18.8,0.7L28.7,30.7z"/>
	<path class="st1" d="M17.6,34.5c-2,0-3.2,1.3-3.2,2.2c0,2.9,11.7,3.2,16.4,0.2l-2.9-2C24.3,36.5,15.6,36.7,17.6,34.5z"/>
	<path class="st1" d="M38.7,39.2c0-1.1-1.3-1.7-1.7-1.9c2.7,6.4-26.8,5.9-26.8,2.1c0-0.9,2.2-1.7,4.2-1.3l-1.7-1
		c-4-0.6-6.7,1.1-6.7,2.5C6,46.2,38.7,45.9,38.7,39.2z"/>
	<path class="st1" d="M42,41.5c-5,4.9-17.6,6.7-30.3,3.7C24.4,50.6,41.9,47.6,42,41.5z"/>
</g>
</svg>
