<svg xmlns="http://www.w3.org/2000/svg" xmlns:xlink="http://www.w3.org/1999/xlink" id="Layer_1" x="0" y="0" version="1.1" viewBox="0 0 48 48" xml:space="preserve" style="enable-background:new 0 0 48 48"><style type="text/css">.st0{fill:#ffd600}.st1{fill:#000001}</style><path d="M0,48V0h48v48H0z" class="st0"/><path d="M31.4,35.9c0.9,1.5,1.9,2.9,4,2.9c1.8,0,2.7-0.9,2.7-2.1c0-1.5-1-2-2.9-2.8l-1.1-0.5C31,32.1,29,30.5,29,27	c0-3.2,2.5-5.7,6.3-5.7c2.7,0,4.7,0.9,6.1,3.4l-3.4,2.1c-0.7-1.3-1.5-1.8-2.8-1.8c-1.3,0-2.1,0.8-2.1,1.8c0,1.3,0.8,1.8,2.6,2.6	l1.1,0.5c3.7,1.6,5.7,3.2,5.7,6.7c0,3.9-3,6-7.1,6c-4,0-6.3-2-7.5-4.5L31.4,35.9z M15.9,36c0.7,1.2,1.7,2.1,3.2,2.1	c1.4,0,2.2-0.6,2.2-2.7V21.3h4.4v14.8c0,4.5-2.6,6.5-6.4,6.5c-3.4,0-5.9-2.3-6.9-4.5L15.9,36z" class="st1"/></svg>