<?xml version="1.0" encoding="UTF-8" standalone="no"?>
<svg
   viewBox="0 0 128 128"
   version="1.1"
   id="svg6"
   sodipodi:docname="9c51eeed-28bf-4be4-8f58-8795bcaffa26.svg"
   xmlns:inkscape="http://www.inkscape.org/namespaces/inkscape"
   xmlns:sodipodi="http://sodipodi.sourceforge.net/DTD/sodipodi-0.dtd"
   xmlns="http://www.w3.org/2000/svg"
   xmlns:svg="http://www.w3.org/2000/svg">
  <defs
     id="defs6" />
  <sodipodi:namedview
     id="namedview6"
     pagecolor="#ffffff"
     bordercolor="#000000"
     borderopacity="0.25"
     inkscape:showpageshadow="2"
     inkscape:pageopacity="0.0"
     inkscape:pagecheckerboard="0"
     inkscape:deskcolor="#d1d1d1" />
  <path
     d="M58.3 93.5c0 15.7-12.7 28.3-28.3 28.3-15.7 0-28.3-12.7-28.3-28.3 0-15.6 12.7-28.3 28.3-28.3 15.6-.1 28.3 12.6 28.3 28.3"
     fill="#cb3c33"
     id="path1" />
  <path
     d="M30 123.4c-16.5 0-30-13.4-30-30s13.4-30 30-30 30 13.4 30 30-13.5 30-30 30zm0-56.6c-14.7 0-26.7 12-26.7 26.7s12 26.7 26.7 26.7 26.7-12 26.7-26.7-12-26.7-26.7-26.7z"
     fill="#eee"
     id="path2" />
  <path
     d="M126.4 93.5c0 15.7-12.7 28.3-28.3 28.3s-28.3-12.7-28.3-28.3c0-15.6 12.7-28.3 28.3-28.3s28.3 12.6 28.3 28.3"
     fill="#9558b2"
     id="path3" />
  <path
     d="M98 123.4c-16.5 0-30-13.4-30-30s13.4-30 30-30 30 13.4 30 30-13.4 30-30 30zm0-56.6c-14.7 0-26.7 12-26.7 26.7s12 26.7 26.7 26.7 26.7-12 26.7-26.7S112.8 66.8 98 66.8z"
     fill="#eee"
     id="path4" />
  <path
     d="M92.4 34.5c0 15.6-12.7 28.3-28.3 28.3-15.7 0-28.3-12.7-28.3-28.3S48.4 6.2 64 6.2c15.7 0 28.4 12.7 28.4 28.3"
     fill="#389826"
     id="path5" />
  <path
     d="M64 64.5c-16.5 0-30-13.4-30-30s13.4-30 30-30 30 13.4 30 30-13.5 30-30 30zm0-56.7c-14.7 0-26.7 12-26.7 26.7s12 26.7 26.7 26.7 26.7-12 26.7-26.7S78.7 7.8 64 7.8z"
     fill="#eee"
     id="path6" />
</svg>
