<?xml version="1.0" encoding="UTF-8"?>
<svg xmlns="http://www.w3.org/2000/svg" xmlns:xlink="http://www.w3.org/1999/xlink" width="350" height="350" viewBox="0 0 350 350">
<path fill-rule="nonzero" fill="rgb(79.6%, 23.5%, 20%)" fill-opacity="1" d="M 163.398438 250 C 163.398438 291.421875 129.820312 325 88.398438 325 C 46.976562 325 13.398438 291.421875 13.398438 250 C 13.398438 208.578125 46.976562 175 88.398438 175 C 129.820312 175 163.398438 208.578125 163.398438 250 Z M 163.398438 250 "/>
<path fill-rule="nonzero" fill="rgb(22%, 59.6%, 14.9%)" fill-opacity="1" d="M 250 100 C 250 141.421875 216.421875 175 175 175 C 133.578125 175 100 141.421875 100 100 C 100 58.578125 133.578125 25 175 25 C 216.421875 25 250 58.578125 250 100 Z M 250 100 "/>
<path fill-rule="nonzero" fill="rgb(58.4%, 34.5%, 69.8%)" fill-opacity="1" d="M 336.601562 250 C 336.601562 291.421875 303.023438 325 261.601562 325 C 220.179688 325 186.601562 291.421875 186.601562 250 C 186.601562 208.578125 220.179688 175 261.601562 175 C 303.023438 175 336.601562 208.578125 336.601562 250 Z M 336.601562 250 "/>
</svg>
