<?xml version="1.0" encoding="UTF-8"?>
<svg version="1.1" xmlns="http://www.w3.org/2000/svg" width="240" height="240">
<path d="M0 0 C0.825 -0.01289062 1.65 -0.02578125 2.5 -0.0390625 C6.18057533 0.93859032 7.620704 2.68231568 10 5.625 C10.48367273 8.43092178 10.66369699 10.62844174 10.61181641 13.42529297 C10.61748123 14.1950647 10.62314606 14.96483643 10.62898254 15.75793457 C10.6424531 18.29485217 10.6215595 20.8303329 10.6015625 23.3671875 C10.60706485 25.13690161 10.61519142 26.90660933 10.62582397 28.67630005 C10.64870476 33.33276918 10.64449358 37.98876884 10.63201904 42.64526367 C10.61371288 50.09062018 10.62374888 57.53570027 10.65787888 64.98099136 C10.66396396 67.57517837 10.65074518 70.16876881 10.63589478 72.76290894 C10.63884448 74.36391349 10.64250018 75.96491695 10.64697266 77.56591797 C10.63768234 78.2809549 10.62839203 78.99599182 10.61882019 79.73269653 C10.65891692 84.8314809 11.42514907 88.28761214 14 92.625 C18.24321007 94.81634782 22.27671774 94.88167558 26.99584961 94.8996582 C27.66823166 94.90476913 28.34061371 94.90988007 29.03337097 94.91514587 C31.23978764 94.92896234 33.44588916 94.92809125 35.65234375 94.92578125 C37.19641738 94.92967241 38.74048995 94.93400794 40.28456116 94.93876648 C43.51485673 94.94621148 46.74504297 94.94594983 49.9753418 94.94067383 C54.10218668 94.93487984 58.22858265 94.95181655 62.35535336 94.9750185 C65.54251189 94.98979389 68.72956323 94.99062242 71.91674995 94.98750877 C73.43769787 94.98802002 74.9586521 94.99322069 76.47956657 95.00332069 C78.61158805 95.01574309 80.74274682 95.00886 82.87475586 94.99731445 C84.08465683 94.99794388 85.2945578 94.9985733 86.54112244 94.9992218 C90.66359255 94.5532048 93.32105714 93.51539102 97 91.625 C98.59875351 88.42749299 98.50166324 85.09541009 98 81.625 C95.66971578 78.37924698 93.82890266 77.36936072 90 76.625 C87.952384 76.56971437 85.90460145 76.516848 83.85644531 76.48779297 C73.88461182 76.27496685 65.91347912 74.66107267 58.078125 67.98828125 C56.47668862 66.28774608 55.23916342 64.60273765 54 62.625 C53.59007812 62.00367188 53.18015625 61.38234375 52.7578125 60.7421875 C48.90973861 53.76257762 48.74945476 45.36454955 50 37.625 C52.71657827 29.05289966 57.1493257 22.9486344 64.93499756 18.52577209 C71.09381812 15.52283352 76.41110066 15.02449029 83.203125 15.05859375 C84.76435089 15.04929588 84.76435089 15.04929588 86.3571167 15.03981018 C88.5421048 15.03274695 90.72714712 15.03582437 92.91210938 15.04858398 C96.2549051 15.06252045 99.59493701 15.02824034 102.9375 14.99023438 C105.06770902 14.98928373 107.19792153 14.99113907 109.328125 14.99609375 C110.32402649 14.98283554 111.31992798 14.96957733 112.3460083 14.95591736 C117.06491849 15.01940446 119.27874024 15.07506901 123.12548828 18.00805664 C125.15585708 20.84258688 125.67886319 22.17775579 125.625 25.625 C125.63789063 26.45 125.65078125 27.275 125.6640625 28.125 C124.67452764 31.8503077 123.01632578 33.24694943 120 35.625 C116.99748249 36.32653552 114.07992411 36.27612053 111.0078125 36.2265625 C110.14364716 36.23456879 109.27948181 36.24257507 108.38912964 36.25082397 C105.63394015 36.27385252 102.8802285 36.26445303 100.125 36.25 C97.37718883 36.24614139 94.63003233 36.24969424 91.8822937 36.27059937 C90.17605437 36.2826027 88.46963102 36.28016189 86.76345825 36.26089478 C81.43941939 36.28571499 77.71441237 37.09074298 73 39.625 C71.40124649 42.82250701 71.49833676 46.15458991 72 49.625 C74.33028422 52.87075302 76.17109734 53.88063928 80 54.625 C82.047616 54.68028563 84.09539855 54.733152 86.14355469 54.76220703 C96.11538818 54.97503315 104.08652088 56.58892733 111.921875 63.26171875 C113.52331138 64.96225392 114.76083658 66.64726235 116 68.625 C116.40992188 69.24632812 116.81984375 69.86765625 117.2421875 70.5078125 C121.09026139 77.48742238 121.25054524 85.88545045 120 93.625 C117.56373707 101.31257171 113.7427076 107.20609488 107 111.625 C106.45503372 111.98733734 105.91006744 112.34967468 105.34858704 112.72299194 C97.17086743 117.17524013 87.76575983 116.24212194 78.73046875 116.2265625 C76.8439344 116.23434983 74.95740352 116.24302191 73.07087708 116.25253296 C69.12615571 116.26740909 65.18179248 116.26691108 61.23706055 116.25634766 C56.21022984 116.24477328 51.18487663 116.2786033 46.15828991 116.325037 C42.2640187 116.35466805 38.3700968 116.35623403 34.4757328 116.35001755 C32.62396638 116.35103647 30.77217843 116.36136956 28.92052269 116.38164139 C17.22331273 116.49398751 7.46161014 115.98157367 -1.90559387 108.00161743 C-8.13341215 101.40385276 -10.60763942 93.50239864 -10.53344727 84.60449219 C-10.54637062 83.32709671 -10.54637062 83.32709671 -10.55955505 82.02389526 C-10.58205865 79.23956988 -10.5755087 76.45626313 -10.56640625 73.671875 C-10.57164639 71.72373152 -10.5779243 69.77559059 -10.58518982 67.82745361 C-10.59556331 63.75919589 -10.59107293 59.69128869 -10.57641602 55.62304688 C-10.55917661 50.41184909 -10.58280293 45.20174861 -10.61790562 39.99067307 C-10.63986133 35.97402657 -10.63844351 31.95764385 -10.6301403 27.94095612 C-10.62932087 26.01922649 -10.63618283 24.09747749 -10.65091133 22.17580414 C-10.66833671 19.49248961 -10.65383574 16.81116419 -10.63110352 14.12792969 C-10.64279572 13.33718048 -10.65448792 12.54643127 -10.66653442 11.73171997 C-10.59675246 7.6822558 -10.17311541 5.8421887 -7.61680603 2.6350708 C-4.77385847 0.45129187 -3.53385635 -0.05521651 0 0 Z " fill="#D22E2E" transform="translate(30,69.375)"/>
<path d="M0 0 C1.21376312 -0.00832352 2.42752625 -0.01664703 3.67807007 -0.02522278 C6.99653293 -0.04515215 10.31474524 -0.05595664 13.63324642 -0.06104922 C15.71082321 -0.06470222 17.78837623 -0.07094718 19.86594391 -0.07805061 C27.12646027 -0.10252073 34.38690546 -0.11559136 41.64746094 -0.11914062 C48.39473175 -0.12277227 55.1415467 -0.15264681 61.88867831 -0.19454521 C67.69784037 -0.22934273 73.50685205 -0.2446907 79.31611753 -0.24538666 C82.77844862 -0.24617638 86.24031498 -0.25477251 89.70253754 -0.28338432 C93.57009676 -0.31463305 97.43701101 -0.30546015 101.3046875 -0.29296875 C102.43750153 -0.30780304 103.57031555 -0.32263733 104.73745728 -0.33792114 C112.27353719 -0.26884914 117.49893206 1.36427879 123.91113281 5.30639648 C125.27238281 6.14170898 125.27238281 6.14170898 126.66113281 6.99389648 C133.82814094 14.35998817 136.21576516 22.11270305 136.22583008 32.11499023 C136.05696175 40.9880716 132.95045663 47.0704228 126.87597656 53.51733398 C120.53994843 59.28652063 114.36986556 60.90967246 105.92675781 61.65405273 C102.07764264 62.48669812 100.5825211 63.38402763 97.91113281 66.30639648 C97.17947155 69.55816688 97.26139497 72.75501071 97.30957031 76.07592773 C97.30156403 77.03029221 97.29355774 77.98465668 97.28530884 78.96794128 C97.26222695 82.01869082 97.27170033 85.06811093 97.28613281 88.11889648 C97.28998771 91.15872247 97.28646256 94.19795649 97.26553345 97.23771667 C97.25350437 99.12758391 97.2560139 101.01761718 97.27523804 102.90742493 C97.24860799 109.22655876 96.52700532 114.3029873 92.22363281 119.24389648 C88.79950497 120.81714441 85.56506704 120.98063435 81.91113281 120.30639648 C79.10109821 118.51275738 77.40172814 117.28758713 75.91113281 114.30639648 C75.79566644 112.69531666 75.74162069 111.07964297 75.71826172 109.46459961 C75.70219879 108.45594849 75.68613586 107.44729736 75.66958618 106.40808105 C75.62502157 101.76807321 75.58402476 97.12820941 75.56103516 92.48803711 C75.54452981 90.04783556 75.5173124 87.60768127 75.47900391 85.16772461 C75.4239253 81.64077785 75.40230748 78.11496686 75.38769531 74.58764648 C75.36502594 73.50809692 75.34235657 72.42854736 75.31900024 71.31628418 C75.34438462 62.10794401 78.00896963 55.26041587 84.22363281 48.43139648 C89.91455351 43.25229307 94.97494437 41.31433699 102.59863281 40.36889648 C106.68725997 39.81394361 108.69896583 39.4425036 112.22363281 37.18139648 C114.56702084 33.18895761 114.35569693 30.90022567 113.91113281 26.30639648 C113.58113281 25.31639648 113.25113281 24.32639648 112.91113281 23.30639648 C107.04246356 20.92317692 101.28540126 21.0162734 95.0222168 21.03173828 C93.94818604 21.02662735 92.87415527 21.02151642 91.76757812 21.01625061 C88.23073701 21.00239296 84.69409153 21.00330815 81.15722656 21.00561523 C78.69295683 21.001727 76.22868776 20.99739207 73.76441956 20.99263 C68.60570093 20.98517661 63.44705076 20.98545331 58.28833008 20.99072266 C51.67845961 20.99652454 45.06886869 20.97956438 38.45904446 20.95637798 C33.37268944 20.94164819 28.28640194 20.94076779 23.20002937 20.94388771 C20.76278186 20.9433744 18.32553057 20.93813488 15.88830376 20.92807579 C12.4822353 20.91573991 9.07671399 20.9224858 5.6706543 20.93408203 C4.66529129 20.92643829 3.65992828 20.91879456 2.62409973 20.91091919 C-2.64694653 20.95058516 -6.62658201 21.16467609 -11.08886719 24.30639648 C-13.55173784 27.5419525 -13.33988866 30.77134127 -13.34423828 34.73974609 C-13.35467667 36.69713966 -13.35467667 36.69713966 -13.36532593 38.69407654 C-13.36464489 39.38884031 -13.36396385 40.08360409 -13.36326218 40.79942131 C-13.36229463 42.98142206 -13.37526518 45.1629333 -13.39224243 47.34486389 C-13.43844853 53.54676547 -13.46312091 59.74861573 -13.46972656 65.95068359 C-13.47474643 69.74860195 -13.49901749 73.54600739 -13.53505325 77.34375191 C-13.54483844 78.78816203 -13.54719014 80.23264282 -13.54188156 81.67707634 C-13.53479733 83.69928553 -13.55420384 85.72153468 -13.57470703 87.74365234 C-13.57898209 89.46762489 -13.57898209 89.46762489 -13.58334351 91.22642517 C-14.19606373 94.95950587 -15.47724739 96.62057407 -18.08886719 99.30639648 C-21.56149992 101.04271285 -25.30079732 100.90830051 -29.08886719 100.30639648 C-31.84456165 98.12480503 -33.52475466 96.43462155 -35.08886719 93.30639648 C-35.19591741 91.23554916 -35.2377485 89.16122269 -35.25 87.08764648 C-35.25960754 85.77868408 -35.26921509 84.46972168 -35.27911377 83.12109375 C-35.28396451 81.6828631 -35.28824266 80.24463043 -35.29199219 78.80639648 C-35.29774683 77.33105468 -35.30350453 75.85571288 -35.30926514 74.38037109 C-35.31978257 71.28002576 -35.3256189 68.17970638 -35.32910156 65.0793457 C-35.33455713 61.12982141 -35.35851816 57.18064698 -35.38707352 53.23123169 C-35.40582271 50.17864022 -35.4109122 47.12613048 -35.41243744 44.07348633 C-35.41544203 42.61920276 -35.42339537 41.16491987 -35.43662262 39.71069336 C-35.53809616 27.68605701 -34.72683619 17.35199998 -26.08886719 8.30639648 C-17.91509386 0.96468392 -10.73764945 0.00625555 0 0 Z " fill="#D32E2E" transform="translate(84.0888671875,54.693603515625)"/>
</svg>
