<?xml version="1.0" encoding="utf-8"?>
<!-- Generator: Adobe Illustrator 24.3.0, SVG Export Plug-In . SVG Version: 6.00 Build 0)  -->
<svg version="1.1" id="Layer_1" xmlns="http://www.w3.org/2000/svg" xmlns:xlink="http://www.w3.org/1999/xlink" x="0px" y="0px"
	 viewBox="0 0 64 64" style="enable-background:new 0 0 64 64;" xml:space="preserve">
<style type="text/css">
	.st0{fill:#F1592A;}
</style>
<path class="st0" d="M31.9,64C14.7,64,0.1,49.5,0,32.2c-0.1-8.4,3.3-16.5,9.2-22.5C15.2,3.5,23.4,0,32,0c8.4,0,16.5,3.3,22.4,9.3
	c6,5.9,9.5,13.9,9.6,22.4C64.1,49.4,49.9,63.8,32.2,64H31.9z M32,1.7c-8.1,0-15.9,3.4-21.6,9.2c-5.6,5.6-8.8,13.3-8.8,21.3
	c0.1,16.4,13.9,30.2,30.2,30.2h0.2c16.8-0.2,30.3-13.8,30.2-30.6c-0.1-8-3.3-15.6-9.1-21.2C47.6,4.8,40,1.7,32,1.7L32,1.7z
	 M7.2,41.4V22.7h4.5v1.7H9.3v15.4h2.4v1.7L7.2,41.4z M22.6,31.8c0,3.4-2.1,5.4-4.9,5.4S13.1,35,13.1,32c0-3.1,2-5.3,4.8-5.3
	S22.6,29,22.6,31.8L22.6,31.8z M15,32c0,2.1,1,3.7,2.8,3.7s2.8-1.7,2.8-3.8c0-1.9-0.9-3.7-2.8-3.7S15,29.9,15,32L15,32z M24.2,27
	c0.9-0.2,1.8-0.2,2.7-0.2c1-0.1,2,0.1,2.9,0.6c0.7,0.4,1.1,1.1,1.1,1.9c0,1-0.7,1.9-1.7,2.2c1.2,0.2,2.1,1.3,2.1,2.5
	c0,0.8-0.3,1.6-1,2.1c-0.7,0.6-1.9,0.9-3.8,0.9c-0.8,0-1.5,0-2.3-0.1L24.2,27z M26,31H27c1.3,0,2-0.6,2-1.5s-0.7-1.4-1.9-1.4
	c-0.4,0-0.7,0-1.1,0.1L26,31z M26,35.7c0.3,0,0.7,0,1,0c1.2,0,2.2-0.5,2.2-1.7s-1-1.7-2.3-1.7H26L26,35.7z M34.9,26.9h1.8v6.6
	c0,2.8-1.4,3.7-3.3,3.7c-0.5,0-1.1-0.1-1.6-0.3l0.2-1.5c0.4,0.1,0.8,0.2,1.1,0.2c1.1,0,1.7-0.5,1.7-2.2L34.9,26.9z M42,32.4v1.3
	h-3.9v-1.3L42,32.4z M51,36.8c-0.8,0.3-1.7,0.5-2.6,0.5c-3.2,0-5.2-2-5.2-5.1c-0.1-2.8,2-5.2,4.8-5.4c0.2,0,0.4,0,0.6,0
	c0.9,0,1.7,0.1,2.5,0.5l-0.4,1.5c-0.6-0.3-1.3-0.4-2-0.4c-2.1,0-3.6,1.3-3.6,3.7c0,2.2,1.3,3.7,3.5,3.7c0.7,0,1.4-0.1,2-0.4L51,36.8
	z M56.8,22.6v18.7h-4.5v-1.7h2.4V24.3h-2.4v-1.7L56.8,22.6z"/>
</svg>
