<?xml version="1.0" encoding="utf-8"?>
<!-- Generator: Adobe Illustrator 24.3.0, SVG Export Plug-In . SVG Version: 6.00 Build 0)  -->
<svg version="1.1" id="Layer_1" xmlns="http://www.w3.org/2000/svg" xmlns:xlink="http://www.w3.org/1999/xlink" x="0px" y="0px"
	 viewBox="0 0 48 48" style="enable-background:new 0 0 48 48;" xml:space="preserve">
<style type="text/css">
	.st0{fill:#004065;}
</style>
<g>
	<path class="st0" d="M30.4,25.6c0.4,2.5,0.7,4.9,0.8,7.4c0,1.6-0.4,3.1-1.3,4.4c-0.2,0.7-0.8,0-1.3,0c-1.1,0-1.5-1.2-2.1-1.9
		s-0.2-1.4,0.2-2c0.4-0.3,0.6-1,1.2-1s0.5-0.8,0.4-1.3c0.4-0.6,0.2-1.5,0.6-2.2c0.7-0.3,0.5-1.4,0.7-2c0.2-0.4,0-1.3,0.6-1.5
		C30.3,25.5,30.4,25.5,30.4,25.6 M29.7,0.2c-0.9-0.1-1.6,0.5-2.4,0.9c-0.6,0.2-1.3,0.4-2,0.5c-0.5,1-1.6,1.6-2.2,2.5
		c-0.6,1.8-1.8,3.5-3.3,4.7c-2.2,1.1-3.3,3.6-4,5.9c-0.2,0.5-0.2,1.3-0.5,1.7c-0.9,0.2-0.4-0.9-0.5-1.4c-0.1-0.8,0.6-1.3,0.6-2.1
		c0.3-0.6,0.4-1.2,0.4-1.8c-0.1-1.4,0.3-3.1-0.7-4.3c-0.6-0.3-0.4-1.1-0.6-1.6c-0.6-0.8-1.3-1.5-2.2-2c-0.7-0.1-1.4-1-2.1-0.6
		C9.7,3.1,8.9,3.1,8.6,3.8C8.5,4.7,7.5,4.5,6.8,4.7C6,5,4.9,4.7,4.2,5.4S2.5,7,2.8,8.1c0.8,1.5,2.8,0.8,3.9,1.7c-0.3,1-0.7,2-1.2,3
		c-0.2,1.3-0.2,2.7-0.1,4c0.2,1.3-0.1,3.1,1,4c0.6,0.2,0.6,1,0.8,1.5s0.7-0.2,0.9,0.3c0.6,0.3,0.1,1,0.4,1.4c0.5,0.1,1,0.4,1.4,0.7
		c0.6,0.4,1.2,0.9,1.7,1.4c0.4,0.8,0.9-0.8,1.3-0.2c0.2,0.5,0.8,0.7,1.3,0.5c0,0,0.1,0,0.1-0.1c0.8-0.1,1.6-0.5,2.2-1
		c0.4,1.5,0.1,3.1,0.3,4.7c0.3,1.1,0.4,2.3,0.5,3.5c0.3,1.1,0.5,2.3,0.5,3.5c0.3,2.5-0.1,5-1.2,7.2c-0.1,0.7-0.7,1.2-1.4,1.4
		c-0.5,0.2-1.5,0.6-1.2,1.3c1.1,1,3,0.9,4.3,0.4c0.9-0.4,0.1-1.5,0.6-2.1c0.6-2.2,0.3-4.7,1-6.9c0.5-1.1,0.7-2.4,0.6-3.6
		c0.1-0.8-0.2-1.7,0.3-2.3c0-0.8,0.3-1.5,0.8-2.1c0.2-1.2,0.2-2.3,0.2-3.5c0.7-0.2,1.4-0.3,2.2-0.2c0,0.7-0.5,1.4-0.3,2.1
		c0.1,0.8,0,1.7-0.4,2.4c-0.3,1.3-0.5,2.9,0.3,3.9c1.3,1.5,3,2.5,4.3,4c0.4,0.3,0.5,0.9,0.1,1.3c0,0-0.1,0.1-0.1,0.1
		c-0.2,0.8-0.9,1.5-1.7,1.8c-0.5,0.2-1.4,1-0.7,1.5c1.2,0.3,2.5,0.2,3.7-0.2c0.8-0.3,0.5-1.3,0.8-1.9c0.4,0.6,0.8,1.2,1.2,1.8
		c0.5,0.7,1.4,0.1,2-0.1c0.1-1.1-0.2-2.2-0.6-3.2c-0.3-0.7-1.4-0.7-1.3-1.5c0.5-2,1.9-3.5,2.9-5.2c0.9-0.8,0.2-2.1,0.3-3.1
		c-0.3-2.7,0.4-5.4,1.8-7.7c0.3,1.3,0.7,2.5,1.2,3.7c0.3,1.4,1,2.7,1.8,3.9c0.4,1.4,0.3,3,0.6,4.4c0.4,2.5,0.2,5.1-0.4,7.5
		c0.1,0.9-0.8,1.6-0.7,2.4c0.2,0.8,1.2,0.2,1.7,0.5c0.9,0.3,1.8-0.1,2.2-1c-0.2-0.7-0.3-1.4-0.4-2.1c-0.7-2.1-0.8-4.3-0.4-6.4
		c0.1-1.2,0.8-2.6-0.1-3.6c-0.2-1.1,0.2-2.2-0.1-3.3c-0.6-2.8-0.7-5.7-0.2-8.5c0.2-0.4,0-1.1,0.4-1.3c0.4,0.6,0.6,1.4,0.5,2.1
		c0.4,1.2,0.4,2.4,0.1,3.6c-0.7,0.9-0.3,2.2-0.2,3.2c0.1,0.7,0.9,0.2,1-0.2c0.7-1.2,1.2-2.5,1.6-3.9c0.5-0.6,0-1.3,0-2
		c0.7-0.1,0.4-0.9,0.1-1.2c-0.4-1.3-0.3-2.7-1.1-3.8c-1.3-1.4-2.5-3-3.3-4.7c-0.9-2.8-3.5-4.7-4.3-7.6c-0.3-1.7-1.3-3.1-2.8-4
		c-0.6-0.3-1.3-0.5-2-0.7C30.8,0.1,30.3,0.2,29.7,0.2"/>
</g>
</svg>
