<?xml version="1.0" encoding="utf-8"?>
<!-- Generator: Adobe Illustrator 24.3.0, SVG Export Plug-In . SVG Version: 6.00 Build 0)  -->
<svg version="1.1" id="Layer_1" xmlns="http://www.w3.org/2000/svg" xmlns:xlink="http://www.w3.org/1999/xlink" x="0px" y="0px"
	 viewBox="0 0 48 48" style="enable-background:new 0 0 48 48;" xml:space="preserve">
<path d="M3.8,16.6h7.1c2.1,0,3.6,0.6,4.5,1.8c0.9,1.2,1.2,2.8,0.9,4.9c-0.1,0.9-0.4,1.9-0.8,2.8c-0.4,0.9-1,1.7-1.7,2.4
	C13,29.3,12,29.9,11,30.2c-1,0.2-2.1,0.4-3.1,0.4H4.7l-1,5H0L3.8,16.6L3.8,16.6 M6.9,19.6l-1.6,8c0.1,0,0.2,0,0.3,0
	c0.1,0,0.2,0,0.4,0c1.7,0,3.1-0.2,4.2-0.5c1.1-0.4,1.9-1.7,2.3-3.9c0.3-1.9,0-2.9-1-3.2c-0.9-0.3-2.1-0.4-3.5-0.4
	c-0.2,0-0.4,0-0.6,0C7.2,19.6,7.1,19.6,6.9,19.6L6.9,19.6"/>
<path d="M20.6,11.5h3.7l-1,5.1h3.3c1.8,0,3.1,0.4,4,1.1c0.9,0.7,1.2,2.1,0.8,4l-1.8,8.8h-3.7l1.7-8.4c0.2-0.9,0.1-1.5-0.2-1.9
	c-0.3-0.4-0.9-0.6-1.8-0.6l-2.9,0l-2.2,10.9h-3.7L20.6,11.5L20.6,11.5"/>
<path d="M35.2,16.6h7.1c2.1,0,3.6,0.6,4.5,1.8c0.9,1.2,1.2,2.8,0.9,4.9c-0.1,0.9-0.4,1.9-0.8,2.8c-0.4,0.9-1,1.7-1.7,2.4
	c-0.9,0.9-1.8,1.5-2.8,1.7c-1,0.2-2.1,0.4-3.1,0.4h-3.2l-1,5h-3.7L35.2,16.6L35.2,16.6 M38.3,19.6l-1.6,8c0.1,0,0.2,0,0.3,0
	c0.1,0,0.2,0,0.4,0c1.7,0,3.1-0.2,4.2-0.5c1.1-0.4,1.9-1.7,2.3-3.9c0.3-1.9,0-2.9-1-3.2c-0.9-0.3-2.1-0.4-3.5-0.4
	c-0.2,0-0.4,0-0.6,0C38.7,19.6,38.5,19.6,38.3,19.6L38.3,19.6"/>
</svg>
