<svg xmlns="http://www.w3.org/2000/svg" xmlns:xlink="http://www.w3.org/1999/xlink" id="Layer_1" x="0" y="0" version="1.1" viewBox="0 0 48 48" xml:space="preserve" style="enable-background:new 0 0 48 48"><style type="text/css">.st0{fill:#0277bd}.st1{fill:#ffc107}</style><path d="M24.6,0c-2,0-3.3,0.2-5,0.5c-4.9,0.8-5.7,2.6-5.7,5.9v5h11.4v2.5H13.5H8c-3.3,0-6.2,1.6-7.2,5.3	c-1,4.3-1.1,7,0,11.5c0.8,3.4,2.7,5.9,6,5.9h4.6v-6.4c0-3.7,3.4-7.4,7.3-7.4h9.1c3.2,0,6.3-2.4,6.3-5.5V6.4c0-3.1-2.2-5.4-5.3-5.9	C28.9,0.5,26.6,0,24.6,0z M18.3,5.1c1,0,1.9,0.9,1.9,1.9c0,1.1-0.9,1.9-1.9,1.9c-1.1,0-1.9-0.8-1.9-1.9C16.4,5.9,17.3,5.1,18.3,5.1z" class="st0"/><path d="M23.4,48c2,0,3.3-0.2,5-0.5c4.9-0.8,5.7-2.6,5.7-5.9v-5H22.7v-2.5h11.8H40c3.3,0,6.2-1.6,7.2-5.3	c1-4.3,1.1-7,0-11.5c-0.8-3.4-2.7-5.9-6-5.9h-4.6v6.4c0,3.7-3.4,7.4-7.3,7.4h-9.1c-3.2,0-6.3,2.4-6.3,5.5v10.8	c0,3.1,2.2,5.4,5.3,5.9C19.1,47.5,21.4,48,23.4,48z M29.7,42.9c-1,0-1.9-0.9-1.9-1.9c0-1.1,0.9-1.9,1.9-1.9c1.1,0,1.9,0.8,1.9,1.9	C31.6,42.1,30.7,42.9,29.7,42.9z" class="st1"/></svg>