<?xml version="1.0" encoding="utf-8"?>
<!-- Generator: Adobe Illustrator 24.3.0, SVG Export Plug-In . SVG Version: 6.00 Build 0)  -->
<svg version="1.1" id="Layer_1" xmlns="http://www.w3.org/2000/svg" xmlns:xlink="http://www.w3.org/1999/xlink" x="0px" y="0px"
	 viewBox="0 0 48 48" style="enable-background:new 0 0 48 48;" xml:space="preserve">
<style type="text/css">
	.st0{fill:url(#SVGID_1_);}
	.st1{fill:url(#SVGID_2_);}
	.st2{fill:url(#SVGID_3_);}
	.st3{fill:url(#SVGID_4_);}
	.st4{fill:url(#SVGID_5_);}
	.st5{fill:url(#SVGID_6_);}
	.st6{fill:url(#SVGID_7_);}
	.st7{fill:url(#SVGID_8_);}
	.st8{fill:#FFFFFF;}
	.st9{fill:url(#SVGID_9_);}
	.st10{fill:url(#SVGID_10_);}
	.st11{fill:url(#SVGID_11_);}
	.st12{fill:url(#SVGID_12_);}
	.st13{fill:#9E1209;}
	.st14{fill:url(#SVGID_13_);}
	.st15{fill:url(#SVGID_14_);}
	.st16{fill:url(#SVGID_15_);}
	.st17{fill:url(#SVGID_16_);}
</style>
<g>
	
		<linearGradient id="SVGID_1_" gradientUnits="userSpaceOnUse" x1="-264.9778" y1="433.3343" x2="-265.2427" y2="433.8024" gradientTransform="matrix(38.0502 0 0 -38.0213 10124.458 16528.0195)">
		<stop  offset="0" style="stop-color:#FB7655"/>
		<stop  offset="0" style="stop-color:#FB7655"/>
		<stop  offset="0.41" style="stop-color:#E42B1E"/>
		<stop  offset="0.99" style="stop-color:#990000"/>
		<stop  offset="1" style="stop-color:#990000"/>
	</linearGradient>
	<path class="st0" d="M37,31.5L9.7,47.8l35.3-2.4l2.7-35.6L37,31.5z"/>
	
		<linearGradient id="SVGID_2_" gradientUnits="userSpaceOnUse" x1="-247.6907" y1="425.3386" x2="-248.8398" y2="425.7546" gradientTransform="matrix(11.3077 0 0 -20.9584 2847.8318 8951.5449)">
		<stop  offset="0" style="stop-color:#871101"/>
		<stop  offset="0" style="stop-color:#871101"/>
		<stop  offset="0.99" style="stop-color:#911209"/>
		<stop  offset="1" style="stop-color:#911209"/>
	</linearGradient>
	<path class="st1" d="M45.1,45.3l-3-21l-8.3,10.9L45.1,45.3z"/>
	
		<linearGradient id="SVGID_3_" gradientUnits="userSpaceOnUse" x1="-264.5107" y1="346.3946" x2="-264.8787" y2="348.5096" gradientTransform="matrix(35.3099 0 0 -4.1225 9376.4639 1480.6194)">
		<stop  offset="0" style="stop-color:#871101"/>
		<stop  offset="0" style="stop-color:#871101"/>
		<stop  offset="0.99" style="stop-color:#911209"/>
		<stop  offset="1" style="stop-color:#911209"/>
	</linearGradient>
	<path class="st2" d="M45.2,45.3l-22.2-1.7L9.9,47.7L45.2,45.3z"/>
	
		<linearGradient id="SVGID_4_" gradientUnits="userSpaceOnUse" x1="-250.1762" y1="423.0117" x2="-250.0115" y2="422.2927" gradientTransform="matrix(12.2291 0 0 -18.2062 3068.7747 7732.27)">
		<stop  offset="0" style="stop-color:#FFFFFF"/>
		<stop  offset="0" style="stop-color:#FFFFFF"/>
		<stop  offset="0.23" style="stop-color:#E57252"/>
		<stop  offset="0.46" style="stop-color:#DE3B20"/>
		<stop  offset="0.99" style="stop-color:#A60003"/>
		<stop  offset="1" style="stop-color:#A60003"/>
	</linearGradient>
	<path class="st3" d="M9.9,47.7l5.6-18.2L3.2,32.1L9.9,47.7z"/>
	
		<linearGradient id="SVGID_5_" gradientUnits="userSpaceOnUse" x1="-258.7137" y1="424.9058" x2="-258.6762" y2="424.2388" gradientTransform="matrix(19.7475 0 0 -20.0298 5132.147 8529.3545)">
		<stop  offset="0" style="stop-color:#FFFFFF"/>
		<stop  offset="0" style="stop-color:#FFFFFF"/>
		<stop  offset="0.23" style="stop-color:#E4714E"/>
		<stop  offset="0.56" style="stop-color:#BE1A0D"/>
		<stop  offset="0.99" style="stop-color:#A80D00"/>
		<stop  offset="1" style="stop-color:#A80D00"/>
	</linearGradient>
	<path class="st4" d="M33.8,35.4l-5.1-20L14.1,29L33.8,35.4z"/>
	
		<linearGradient id="SVGID_6_" gradientUnits="userSpaceOnUse" x1="-257.1937" y1="412.8552" x2="-257.0681" y2="412.0863" gradientTransform="matrix(17.6852 0 0 -12.4535 4584.0117 5147.728)">
		<stop  offset="0" style="stop-color:#FFFFFF"/>
		<stop  offset="0" style="stop-color:#FFFFFF"/>
		<stop  offset="0.18" style="stop-color:#E46342"/>
		<stop  offset="0.4" style="stop-color:#C82410"/>
		<stop  offset="0.99" style="stop-color:#A80D00"/>
		<stop  offset="1" style="stop-color:#A80D00"/>
	</linearGradient>
	<path class="st5" d="M46.6,15.6L32.8,4.3l-3.9,12.5L46.6,15.6z"/>
	
		<linearGradient id="SVGID_7_" gradientUnits="userSpaceOnUse" x1="-252.2892" y1="357.1758" x2="-251.5677" y2="358.2264" gradientTransform="matrix(13.2687 0 0 -4.5564 3376.259 1630.3068)">
		<stop  offset="0" style="stop-color:#FFFFFF"/>
		<stop  offset="0" style="stop-color:#FFFFFF"/>
		<stop  offset="0.54" style="stop-color:#C81F11"/>
		<stop  offset="0.99" style="stop-color:#BF0905"/>
		<stop  offset="1" style="stop-color:#BF0905"/>
	</linearGradient>
	<path class="st6" d="M40.2,0.3L32,4.8l-5.1-4.6L40.2,0.3z"/>
	
		<linearGradient id="SVGID_8_" gradientUnits="userSpaceOnUse" x1="-192.6238" y1="415.532" x2="-192.3926" y2="414.9529" gradientTransform="matrix(3.4082 0 0 -13.6209 657.4498 5687.4058)">
		<stop  offset="0" style="stop-color:#FFFFFF"/>
		<stop  offset="0" style="stop-color:#FFFFFF"/>
		<stop  offset="0.31" style="stop-color:#DE4024"/>
		<stop  offset="0.99" style="stop-color:#BF190B"/>
		<stop  offset="1" style="stop-color:#BF190B"/>
	</linearGradient>
	<path class="st7" d="M0,38.2L3.4,32l-2.8-7.4L0,38.2z"/>
	<path class="st8" d="M0.5,24.4l2.8,7.9l12.1-2.7l13.8-12.8l3.9-12.3l-6.1-4.3L16.4,4c-3.3,3-9.6,9.1-9.9,9.2
		C6.3,13.3,2.4,20.8,0.5,24.4L0.5,24.4z"/>
	
		<linearGradient id="SVGID_9_" gradientUnits="userSpaceOnUse" x1="-264.0009" y1="430.2608" x2="-262.7519" y2="431.547" gradientTransform="matrix(29.6555 0 0 -29.6133 7824.5918 12778.9326)">
		<stop  offset="0" style="stop-color:#BD0012"/>
		<stop  offset="0" style="stop-color:#BD0012"/>
		<stop  offset="7.000000e-02" style="stop-color:#FFFFFF"/>
		<stop  offset="0.17" style="stop-color:#FFFFFF"/>
		<stop  offset="0.27" style="stop-color:#C82F1C"/>
		<stop  offset="0.33" style="stop-color:#820C01"/>
		<stop  offset="0.46" style="stop-color:#A31601"/>
		<stop  offset="0.72" style="stop-color:#B31301"/>
		<stop  offset="0.99" style="stop-color:#E82609"/>
		<stop  offset="1" style="stop-color:#E82609"/>
	</linearGradient>
	<path class="st9" d="M10.2,10.2C17.3,3.2,26.5-1,30,2.6c3.5,3.5-0.2,12.2-7.3,19.2S6.5,33.2,3,29.7C-0.5,26.1,3.1,17.3,10.2,10.2
		L10.2,10.2z"/>
	
		<linearGradient id="SVGID_10_" gradientUnits="userSpaceOnUse" x1="-260.9542" y1="422.5011" x2="-261.4225" y2="422.6519" gradientTransform="matrix(23.8263 0 0 -18.2641 6241.4785 7757.9595)">
		<stop  offset="0" style="stop-color:#8C0C01"/>
		<stop  offset="0" style="stop-color:#8C0C01"/>
		<stop  offset="0.54" style="stop-color:#990C00"/>
		<stop  offset="0.99" style="stop-color:#A80D0E"/>
		<stop  offset="1" style="stop-color:#A80D0E"/>
	</linearGradient>
	<path class="st10" d="M9.9,47.7l5.5-18.3l18.3,5.9C27.1,41.5,19.7,46.8,9.9,47.7L9.9,47.7z"/>
	
		<linearGradient id="SVGID_11_" gradientUnits="userSpaceOnUse" x1="-256.7193" y1="424.2123" x2="-257.2816" y2="424.661" gradientTransform="matrix(17.6271 0 0 -19.8006 4568.2773 8427.6162)">
		<stop  offset="0" style="stop-color:#7E110B"/>
		<stop  offset="0" style="stop-color:#7E110B"/>
		<stop  offset="0.99" style="stop-color:#9E0C00"/>
		<stop  offset="1" style="stop-color:#9E0C00"/>
	</linearGradient>
	<path class="st11" d="M29.1,16.7l4.7,18.6c5.5-5.8,10.5-12.1,12.9-19.8L29.1,16.7L29.1,16.7z"/>
	
		<linearGradient id="SVGID_12_" gradientUnits="userSpaceOnUse" x1="-253.8031" y1="418.2615" x2="-254.1335" y2="418.6057" gradientTransform="matrix(14.9441 0 0 -15.3359 3839.5613 6426.0649)">
		<stop  offset="0" style="stop-color:#79130D"/>
		<stop  offset="0" style="stop-color:#79130D"/>
		<stop  offset="0.99" style="stop-color:#9E120B"/>
		<stop  offset="1" style="stop-color:#9E120B"/>
	</linearGradient>
	<path class="st12" d="M46.7,15.6C48.5,9.9,49,1.8,40.1,0.3l-7.3,4L46.7,15.6L46.7,15.6z"/>
	<path class="st13" d="M0,38.1c0.3,9.4,7,9.5,9.9,9.6L3.2,32.2L0,38.1L0,38.1z"/>
	
		<radialGradient id="SVGID_13_" cx="-257.0431" cy="400.9706" r="0.6957" gradientTransform="matrix(17.4587 0 0 -9.1229 4522.3408 3677.2444)" gradientUnits="userSpaceOnUse">
		<stop  offset="0" style="stop-color:#A80D00"/>
		<stop  offset="0" style="stop-color:#A80D00"/>
		<stop  offset="0.99" style="stop-color:#7E0E08"/>
		<stop  offset="1" style="stop-color:#7E0E08"/>
	</radialGradient>
	<path class="st14" d="M29.1,16.7c4.3,2.6,12.8,7.9,13,8c0.3,0.2,3.7-5.8,4.5-9.1L29.1,16.7L29.1,16.7z"/>
	
		<radialGradient id="SVGID_14_" cx="-257.9211" cy="416.5657" r="0.8839" gradientTransform="matrix(18.2689 0 0 -14.2215 4729.8179 5959.4419)" gradientUnits="userSpaceOnUse">
		<stop  offset="0" style="stop-color:#A30C00"/>
		<stop  offset="0" style="stop-color:#A30C00"/>
		<stop  offset="0.99" style="stop-color:#800E08"/>
		<stop  offset="1" style="stop-color:#800E08"/>
	</radialGradient>
	<path class="st15" d="M15.4,29.4l7.4,14.2c4.4-2.4,7.8-5.2,10.9-8.3L15.4,29.4L15.4,29.4z"/>
	
		<linearGradient id="SVGID_15_" gradientUnits="userSpaceOnUse" x1="-236.1582" y1="417.7787" x2="-236.6929" y2="418.676" gradientTransform="matrix(7.5256 0 0 -15.2143 1783.6722 6403.9106)">
		<stop  offset="0" style="stop-color:#8B2114"/>
		<stop  offset="0" style="stop-color:#8B2114"/>
		<stop  offset="0.43" style="stop-color:#9E100A"/>
		<stop  offset="0.99" style="stop-color:#B3100C"/>
		<stop  offset="1" style="stop-color:#B3100C"/>
	</linearGradient>
	<path class="st16" d="M3.2,32.2l-1,12.4c2,2.7,4.7,2.9,7.5,2.7C7.6,42.3,3.5,32,3.2,32.2L3.2,32.2z"/>
	
		<linearGradient id="SVGID_16_" gradientUnits="userSpaceOnUse" x1="-254.0484" y1="379.6325" x2="-253.4324" y2="378.9816" gradientTransform="matrix(14.6436 0 0 -6.117 3757.488 2324.6636)">
		<stop  offset="0" style="stop-color:#B31000"/>
		<stop  offset="0" style="stop-color:#B31000"/>
		<stop  offset="0.44" style="stop-color:#910F08"/>
		<stop  offset="0.99" style="stop-color:#791C12"/>
		<stop  offset="1" style="stop-color:#791C12"/>
	</linearGradient>
	<path class="st17" d="M32.8,4.3l14.6,2.1c-0.8-3.3-3.2-5.4-7.3-6.1L32.8,4.3L32.8,4.3z"/>
</g>
</svg>
