<svg xmlns="http://www.w3.org/2000/svg" xmlns:xlink="http://www.w3.org/1999/xlink" id="Layer_1" x="0" y="0" version="1.1" viewBox="0 0 48 48" xml:space="preserve" style="enable-background:new 0 0 48 48"><style type="text/css">.st0{fill:url(#SVGID_1_)}.st1{fill:url(#SVGID_2_)}.st2{fill:url(#SVGID_3_)}.st3{fill:url(#SVGID_4_)}.st4{fill:url(#SVGID_5_)}.st5{fill:url(#SVGID_6_)}.st6{fill:url(#SVGID_7_)}.st7{fill:url(#SVGID_8_)}.st8{fill:#fff}.st9{fill:url(#SVGID_9_)}.st10{fill:url(#SVGID_10_)}.st11{fill:url(#SVGID_11_)}.st12{fill:url(#SVGID_12_)}.st13{fill:#9e1209}.st14{fill:url(#SVGID_13_)}.st15{fill:url(#SVGID_14_)}.st16{fill:url(#SVGID_15_)}.st17{fill:url(#SVGID_16_)}</style><g><linearGradient id="SVGID_1_" x1="-264.978" x2="-265.243" y1="433.334" y2="433.802" gradientTransform="matrix(38.0502 0 0 -38.0213 10124.458 16528.0195)" gradientUnits="userSpaceOnUse"><stop offset="0" style="stop-color:#fb7655"/><stop offset="0" style="stop-color:#fb7655"/><stop offset=".41" style="stop-color:#e42b1e"/><stop offset=".99" style="stop-color:#900"/><stop offset="1" style="stop-color:#900"/></linearGradient><path d="M37,31.5L9.7,47.8l35.3-2.4l2.7-35.6L37,31.5z" class="st0"/><linearGradient id="SVGID_2_" x1="-247.691" x2="-248.84" y1="425.339" y2="425.755" gradientTransform="matrix(11.3077 0 0 -20.9584 2847.8318 8951.5449)" gradientUnits="userSpaceOnUse"><stop offset="0" style="stop-color:#871101"/><stop offset="0" style="stop-color:#871101"/><stop offset=".99" style="stop-color:#911209"/><stop offset="1" style="stop-color:#911209"/></linearGradient><path d="M45.1,45.3l-3-21l-8.3,10.9L45.1,45.3z" class="st1"/><linearGradient id="SVGID_3_" x1="-264.511" x2="-264.879" y1="346.395" y2="348.51" gradientTransform="matrix(35.3099 0 0 -4.1225 9376.4639 1480.6194)" gradientUnits="userSpaceOnUse"><stop offset="0" style="stop-color:#871101"/><stop offset="0" style="stop-color:#871101"/><stop offset=".99" style="stop-color:#911209"/><stop offset="1" style="stop-color:#911209"/></linearGradient><path d="M45.2,45.3l-22.2-1.7L9.9,47.7L45.2,45.3z" class="st2"/><linearGradient id="SVGID_4_" x1="-250.176" x2="-250.012" y1="423.012" y2="422.293" gradientTransform="matrix(12.2291 0 0 -18.2062 3068.7747 7732.27)" gradientUnits="userSpaceOnUse"><stop offset="0" style="stop-color:#fff"/><stop offset="0" style="stop-color:#fff"/><stop offset=".23" style="stop-color:#e57252"/><stop offset=".46" style="stop-color:#de3b20"/><stop offset=".99" style="stop-color:#a60003"/><stop offset="1" style="stop-color:#a60003"/></linearGradient><path d="M9.9,47.7l5.6-18.2L3.2,32.1L9.9,47.7z" class="st3"/><linearGradient id="SVGID_5_" x1="-258.714" x2="-258.676" y1="424.906" y2="424.239" gradientTransform="matrix(19.7475 0 0 -20.0298 5132.147 8529.3545)" gradientUnits="userSpaceOnUse"><stop offset="0" style="stop-color:#fff"/><stop offset="0" style="stop-color:#fff"/><stop offset=".23" style="stop-color:#e4714e"/><stop offset=".56" style="stop-color:#be1a0d"/><stop offset=".99" style="stop-color:#a80d00"/><stop offset="1" style="stop-color:#a80d00"/></linearGradient><path d="M33.8,35.4l-5.1-20L14.1,29L33.8,35.4z" class="st4"/><linearGradient id="SVGID_6_" x1="-257.194" x2="-257.068" y1="412.855" y2="412.086" gradientTransform="matrix(17.6852 0 0 -12.4535 4584.0117 5147.728)" gradientUnits="userSpaceOnUse"><stop offset="0" style="stop-color:#fff"/><stop offset="0" style="stop-color:#fff"/><stop offset=".18" style="stop-color:#e46342"/><stop offset=".4" style="stop-color:#c82410"/><stop offset=".99" style="stop-color:#a80d00"/><stop offset="1" style="stop-color:#a80d00"/></linearGradient><path d="M46.6,15.6L32.8,4.3l-3.9,12.5L46.6,15.6z" class="st5"/><linearGradient id="SVGID_7_" x1="-252.289" x2="-251.568" y1="357.176" y2="358.226" gradientTransform="matrix(13.2687 0 0 -4.5564 3376.259 1630.3068)" gradientUnits="userSpaceOnUse"><stop offset="0" style="stop-color:#fff"/><stop offset="0" style="stop-color:#fff"/><stop offset=".54" style="stop-color:#c81f11"/><stop offset=".99" style="stop-color:#bf0905"/><stop offset="1" style="stop-color:#bf0905"/></linearGradient><path d="M40.2,0.3L32,4.8l-5.1-4.6L40.2,0.3z" class="st6"/><linearGradient id="SVGID_8_" x1="-192.624" x2="-192.393" y1="415.532" y2="414.953" gradientTransform="matrix(3.4082 0 0 -13.6209 657.4498 5687.4058)" gradientUnits="userSpaceOnUse"><stop offset="0" style="stop-color:#fff"/><stop offset="0" style="stop-color:#fff"/><stop offset=".31" style="stop-color:#de4024"/><stop offset=".99" style="stop-color:#bf190b"/><stop offset="1" style="stop-color:#bf190b"/></linearGradient><path d="M0,38.2L3.4,32l-2.8-7.4L0,38.2z" class="st7"/><path d="M0.5,24.4l2.8,7.9l12.1-2.7l13.8-12.8l3.9-12.3l-6.1-4.3L16.4,4c-3.3,3-9.6,9.1-9.9,9.2 C6.3,13.3,2.4,20.8,0.5,24.4L0.5,24.4z" class="st8"/><linearGradient id="SVGID_9_" x1="-264.001" x2="-262.752" y1="430.261" y2="431.547" gradientTransform="matrix(29.6555 0 0 -29.6133 7824.5918 12778.9326)" gradientUnits="userSpaceOnUse"><stop offset="0" style="stop-color:#bd0012"/><stop offset="0" style="stop-color:#bd0012"/><stop offset=".07" style="stop-color:#fff"/><stop offset=".17" style="stop-color:#fff"/><stop offset=".27" style="stop-color:#c82f1c"/><stop offset=".33" style="stop-color:#820c01"/><stop offset=".46" style="stop-color:#a31601"/><stop offset=".72" style="stop-color:#b31301"/><stop offset=".99" style="stop-color:#e82609"/><stop offset="1" style="stop-color:#e82609"/></linearGradient><path d="M10.2,10.2C17.3,3.2,26.5-1,30,2.6c3.5,3.5-0.2,12.2-7.3,19.2S6.5,33.2,3,29.7C-0.5,26.1,3.1,17.3,10.2,10.2 L10.2,10.2z" class="st9"/><linearGradient id="SVGID_10_" x1="-260.954" x2="-261.423" y1="422.501" y2="422.652" gradientTransform="matrix(23.8263 0 0 -18.2641 6241.4785 7757.9595)" gradientUnits="userSpaceOnUse"><stop offset="0" style="stop-color:#8c0c01"/><stop offset="0" style="stop-color:#8c0c01"/><stop offset=".54" style="stop-color:#990c00"/><stop offset=".99" style="stop-color:#a80d0e"/><stop offset="1" style="stop-color:#a80d0e"/></linearGradient><path d="M9.9,47.7l5.5-18.3l18.3,5.9C27.1,41.5,19.7,46.8,9.9,47.7L9.9,47.7z" class="st10"/><linearGradient id="SVGID_11_" x1="-256.719" x2="-257.282" y1="424.212" y2="424.661" gradientTransform="matrix(17.6271 0 0 -19.8006 4568.2773 8427.6162)" gradientUnits="userSpaceOnUse"><stop offset="0" style="stop-color:#7e110b"/><stop offset="0" style="stop-color:#7e110b"/><stop offset=".99" style="stop-color:#9e0c00"/><stop offset="1" style="stop-color:#9e0c00"/></linearGradient><path d="M29.1,16.7l4.7,18.6c5.5-5.8,10.5-12.1,12.9-19.8L29.1,16.7L29.1,16.7z" class="st11"/><linearGradient id="SVGID_12_" x1="-253.803" x2="-254.133" y1="418.262" y2="418.606" gradientTransform="matrix(14.9441 0 0 -15.3359 3839.5613 6426.0649)" gradientUnits="userSpaceOnUse"><stop offset="0" style="stop-color:#79130d"/><stop offset="0" style="stop-color:#79130d"/><stop offset=".99" style="stop-color:#9e120b"/><stop offset="1" style="stop-color:#9e120b"/></linearGradient><path d="M46.7,15.6C48.5,9.9,49,1.8,40.1,0.3l-7.3,4L46.7,15.6L46.7,15.6z" class="st12"/><path d="M0,38.1c0.3,9.4,7,9.5,9.9,9.6L3.2,32.2L0,38.1L0,38.1z" class="st13"/><radialGradient id="SVGID_13_" cx="-257.043" cy="400.971" r=".696" gradientTransform="matrix(17.4587 0 0 -9.1229 4522.3408 3677.2444)" gradientUnits="userSpaceOnUse"><stop offset="0" style="stop-color:#a80d00"/><stop offset="0" style="stop-color:#a80d00"/><stop offset=".99" style="stop-color:#7e0e08"/><stop offset="1" style="stop-color:#7e0e08"/></radialGradient><path d="M29.1,16.7c4.3,2.6,12.8,7.9,13,8c0.3,0.2,3.7-5.8,4.5-9.1L29.1,16.7L29.1,16.7z" class="st14"/><radialGradient id="SVGID_14_" cx="-257.921" cy="416.566" r=".884" gradientTransform="matrix(18.2689 0 0 -14.2215 4729.8179 5959.4419)" gradientUnits="userSpaceOnUse"><stop offset="0" style="stop-color:#a30c00"/><stop offset="0" style="stop-color:#a30c00"/><stop offset=".99" style="stop-color:#800e08"/><stop offset="1" style="stop-color:#800e08"/></radialGradient><path d="M15.4,29.4l7.4,14.2c4.4-2.4,7.8-5.2,10.9-8.3L15.4,29.4L15.4,29.4z" class="st15"/><linearGradient id="SVGID_15_" x1="-236.158" x2="-236.693" y1="417.779" y2="418.676" gradientTransform="matrix(7.5256 0 0 -15.2143 1783.6722 6403.9106)" gradientUnits="userSpaceOnUse"><stop offset="0" style="stop-color:#8b2114"/><stop offset="0" style="stop-color:#8b2114"/><stop offset=".43" style="stop-color:#9e100a"/><stop offset=".99" style="stop-color:#b3100c"/><stop offset="1" style="stop-color:#b3100c"/></linearGradient><path d="M3.2,32.2l-1,12.4c2,2.7,4.7,2.9,7.5,2.7C7.6,42.3,3.5,32,3.2,32.2L3.2,32.2z" class="st16"/><linearGradient id="SVGID_16_" x1="-254.048" x2="-253.432" y1="379.632" y2="378.982" gradientTransform="matrix(14.6436 0 0 -6.117 3757.488 2324.6636)" gradientUnits="userSpaceOnUse"><stop offset="0" style="stop-color:#b31000"/><stop offset="0" style="stop-color:#b31000"/><stop offset=".44" style="stop-color:#910f08"/><stop offset=".99" style="stop-color:#791c12"/><stop offset="1" style="stop-color:#791c12"/></linearGradient><path d="M32.8,4.3l14.6,2.1c-0.8-3.3-3.2-5.4-7.3-6.1L32.8,4.3L32.8,4.3z" class="st17"/></g></svg>