<?xml version="1.0" encoding="utf-8"?>
<!-- Generator: Adobe Illustrator 24.3.0, SVG Export Plug-In . SVG Version: 6.00 Build 0)  -->
<svg version="1.1" id="Layer_1" xmlns="http://www.w3.org/2000/svg" xmlns:xlink="http://www.w3.org/1999/xlink" x="0px" y="0px"
	 viewBox="0 0 48 48" style="enable-background:new 0 0 48 48;" xml:space="preserve">
<path d="M47.7,23.4l-2-1.2c0-0.2,0-0.4-0.1-0.6l1.7-1.6c0.2-0.2,0.3-0.4,0.2-0.6c0-0.2-0.2-0.4-0.4-0.5L44.9,18
	c-0.1-0.2-0.1-0.4-0.2-0.6l1.4-1.9c0.1-0.2,0.2-0.4,0.1-0.7c-0.1-0.2-0.3-0.4-0.5-0.4L43.3,14c-0.1-0.2-0.2-0.4-0.3-0.5l1-2.2
	c0.1-0.2,0.1-0.5-0.1-0.7c-0.1-0.2-0.4-0.3-0.6-0.3L41,10.4c-0.1-0.2-0.2-0.3-0.4-0.5l0.5-2.3c0.1-0.2,0-0.5-0.2-0.6
	c-0.2-0.2-0.4-0.2-0.6-0.2L38,7.4c-0.1-0.1-0.3-0.3-0.5-0.4l0.1-2.4c0-0.2-0.1-0.5-0.3-0.6c-0.2-0.1-0.5-0.2-0.7-0.1l-2.2,1
	c-0.2-0.1-0.3-0.2-0.5-0.3l-0.4-2.3c0-0.2-0.2-0.4-0.4-0.5c-0.2-0.1-0.5-0.1-0.7,0.1l-1.9,1.4c-0.2-0.1-0.4-0.1-0.6-0.2l-0.8-2.2
	c-0.1-0.2-0.3-0.4-0.5-0.4c-0.2,0-0.5,0-0.6,0.2l-1.6,1.7c-0.2,0-0.4,0-0.6-0.1l-1.2-2C24.5,0.1,24.2,0,24,0c-0.2,0-0.5,0.1-0.6,0.3
	l-1.2,2c-0.2,0-0.4,0-0.6,0.1L20,0.7c-0.2-0.2-0.4-0.3-0.6-0.2c-0.2,0-0.4,0.2-0.5,0.4L18,3.1c-0.2,0.1-0.4,0.1-0.6,0.2l-1.9-1.4
	c-0.2-0.1-0.4-0.2-0.7-0.1c-0.2,0.1-0.4,0.3-0.4,0.5L14,4.7c-0.2,0.1-0.4,0.2-0.5,0.3l-2.2-1c-0.2-0.1-0.5-0.1-0.7,0.1
	c-0.2,0.1-0.3,0.4-0.3,0.6L10.4,7c-0.2,0.1-0.3,0.2-0.5,0.4L7.7,6.8C7.4,6.8,7.2,6.9,7,7C6.9,7.2,6.8,7.4,6.8,7.7L7.4,10
	c-0.1,0.1-0.3,0.3-0.4,0.5l-2.4-0.1c-0.2,0-0.5,0.1-0.6,0.3c-0.1,0.2-0.2,0.5-0.1,0.7l1,2.2c-0.1,0.2-0.2,0.3-0.3,0.5l-2.3,0.4
	c-0.2,0-0.4,0.2-0.5,0.4c-0.1,0.2-0.1,0.5,0.1,0.7l1.4,1.9c-0.1,0.2-0.1,0.4-0.2,0.6l-2.2,0.8c-0.2,0.1-0.4,0.3-0.4,0.5
	c0,0.2,0,0.5,0.2,0.6l1.7,1.6c0,0.2,0,0.4-0.1,0.6l-2,1.2C0.1,23.5,0,23.8,0,24c0,0.2,0.1,0.5,0.3,0.6l2,1.2c0,0.2,0,0.4,0.1,0.6
	L0.7,28c-0.2,0.2-0.3,0.4-0.2,0.6c0,0.2,0.2,0.4,0.4,0.5L3.1,30c0.1,0.2,0.1,0.4,0.2,0.6l-1.4,1.9c-0.1,0.2-0.2,0.4-0.1,0.7
	c0.1,0.2,0.3,0.4,0.5,0.4L4.7,34c0.1,0.2,0.2,0.4,0.3,0.5l-1,2.2c-0.1,0.2-0.1,0.5,0.1,0.7c0.1,0.2,0.4,0.3,0.6,0.3L7,37.6
	c0.1,0.2,0.2,0.3,0.4,0.5l-0.5,2.3c-0.1,0.2,0,0.5,0.2,0.6c0.2,0.2,0.4,0.2,0.6,0.2l2.3-0.5c0.1,0.1,0.3,0.3,0.5,0.4l-0.1,2.4
	c0,0.2,0.1,0.5,0.3,0.6c0.2,0.1,0.5,0.2,0.7,0.1l2.2-1c0.2,0.1,0.3,0.2,0.5,0.3l0.4,2.3c0,0.2,0.2,0.4,0.4,0.5
	c0.2,0.1,0.5,0.1,0.7-0.1l1.9-1.4c0.2,0.1,0.4,0.1,0.6,0.2l0.8,2.2c0.1,0.2,0.3,0.4,0.5,0.4c0.2,0,0.5,0,0.6-0.2l1.6-1.7
	c0.2,0,0.4,0,0.6,0.1l1.2,2c0.1,0.2,0.3,0.3,0.6,0.3s0.5-0.1,0.6-0.3l1.2-2c0.2,0,0.4,0,0.6-0.1l1.6,1.7c0.2,0.2,0.4,0.3,0.6,0.2
	c0.2,0,0.4-0.2,0.5-0.4l0.8-2.2c0.2-0.1,0.4-0.1,0.6-0.2l1.9,1.4c0.2,0.1,0.4,0.2,0.7,0.1c0.2-0.1,0.4-0.3,0.4-0.5l0.4-2.3
	c0.2-0.1,0.4-0.2,0.5-0.3l2.2,1c0.2,0.1,0.5,0.1,0.7-0.1c0.2-0.1,0.3-0.4,0.3-0.6L37.6,41c0.2-0.1,0.3-0.2,0.5-0.4l2.3,0.5
	c0.2,0.1,0.5,0,0.6-0.2c0.2-0.2,0.2-0.4,0.2-0.6L40.6,38c0.1-0.1,0.3-0.3,0.4-0.5l2.4,0.1c0.2,0,0.5-0.1,0.6-0.3
	c0.1-0.2,0.2-0.5,0.1-0.7l-1-2.2c0.1-0.2,0.2-0.3,0.3-0.5l2.3-0.4c0.2,0,0.4-0.2,0.5-0.4c0.1-0.2,0.1-0.5-0.1-0.7l-1.4-1.9
	c0.1-0.2,0.1-0.4,0.2-0.6l2.2-0.8c0.2-0.1,0.4-0.3,0.4-0.5c0-0.2,0-0.5-0.2-0.6l-1.7-1.6c0-0.2,0-0.4,0.1-0.6l2-1.2
	c0.2-0.1,0.3-0.3,0.3-0.6C48,23.8,47.9,23.5,47.7,23.4z M34.2,40.1c-0.8-0.2-1.3-0.9-1.1-1.7c0.2-0.8,0.9-1.3,1.7-1.1
	c0.8,0.2,1.3,0.9,1.1,1.7S35,40.3,34.2,40.1z M33.5,35.5c-0.7-0.2-1.4,0.3-1.5,1l-0.7,3.3c-2.2,1-4.7,1.6-7.2,1.6
	c-2.6,0-5.1-0.6-7.4-1.6l-0.7-3.3c-0.2-0.7-0.8-1.2-1.5-1l-2.9,0.6c-0.5-0.6-1.1-1.2-1.5-1.8h14.3c0.2,0,0.3,0,0.3-0.2V29
	c0-0.1-0.1-0.2-0.3-0.2H20v-3.2h4.5c0.4,0,2.2,0.1,2.8,2.4c0.2,0.7,0.6,3,0.8,3.7c0.3,0.8,1.4,2.5,2.5,2.5h7.1c0.1,0,0.2,0,0.3,0
	c-0.5,0.7-1,1.3-1.6,1.9C36.5,36.1,33.5,35.5,33.5,35.5z M13.7,40.1c-0.8,0.2-1.5-0.3-1.7-1.1c-0.2-0.8,0.3-1.5,1.1-1.7
	c0.8-0.2,1.5,0.3,1.7,1.1C14.9,39.1,14.4,39.9,13.7,40.1z M8.2,18c0.3,0.7,0,1.6-0.7,1.9c-0.7,0.3-1.6,0-1.9-0.7
	c-0.3-0.7,0-1.6,0.7-1.9C7.1,17,7.9,17.3,8.2,18z M6.6,22l3.1-1.4c0.7-0.3,1-1.1,0.7-1.7l-0.6-1.4h2.5v11.2h-5
	c-0.4-1.5-0.7-3.1-0.7-4.8C6.5,23.2,6.5,22.6,6.6,22z M20,20.9v-3.3h5.9c0.3,0,2.2,0.4,2.2,1.7c0,1.2-1.4,1.6-2.6,1.6L20,20.9
	C20,20.9,20,20.9,20,20.9z M41.5,23.8c0,0.4,0,0.9,0,1.3h-1.8c-0.2,0-0.3,0.1-0.3,0.3v0.8c0,1.9-1.1,2.4-2.1,2.5
	c-0.9,0.1-1.9-0.4-2.1-0.9c-0.5-3-1.4-3.7-2.9-4.8c1.8-1.1,3.6-2.8,3.6-5c0-2.4-1.6-3.9-2.8-4.6c-1.6-1-3.3-1.2-3.8-1.2H10.9
	c2.5-2.8,5.9-4.8,9.8-5.5l2.2,2.3c0.5,0.5,1.3,0.5,1.8,0l2.5-2.3c5.1,1,9.5,4.2,12,8.6l-1.7,3.8c-0.3,0.7,0,1.4,0.7,1.7l3.2,1.4
	C41.5,22.7,41.5,23.3,41.5,23.8z M22.9,4.6c0.6-0.5,1.5-0.5,2,0c0.5,0.6,0.5,1.5,0,2c-0.6,0.5-1.5,0.5-2,0
	C22.4,6.1,22.4,5.2,22.9,4.6z M39.6,18.1c0.3-0.7,1.2-1,1.9-0.7c0.7,0.3,1,1.2,0.7,1.9c-0.3,0.7-1.2,1-1.9,0.7
	C39.6,19.6,39.3,18.8,39.6,18.1z"/>
</svg>
