<svg xmlns="http://www.w3.org/2000/svg" xmlns:xlink="http://www.w3.org/1999/xlink" id="Layer_1" x="0" y="0" version="1.1" viewBox="0 0 48 48" xml:space="preserve" style="enable-background:new 0 0 48 48"><style type="text/css">.st0{fill:url(#SVGID_1_)}.st1{fill:url(#SVGID_2_)}.st2{fill:url(#SVGID_3_)}.st3{fill:url(#SVGID_4_)}.st4{fill:url(#SVGID_5_)}</style><linearGradient id="SVGID_1_" x1="-263.445" x2="-262.445" y1="480.23" y2="480.23" gradientTransform="matrix(29.5385 0 0 11.0769 7791 -5288.0864)" gradientUnits="userSpaceOnUse"><stop offset="0" style="stop-color:#4f4f4f"/><stop offset="1" style="stop-color:#000"/></linearGradient><path d="M9.2,29.5v3.7c0,0.6,13.4,1.7,22.2,3.7c4.2-1,7.4-2.2,7.4-3.7v-3.7c0-1.5-3.1-2.7-7.4-3.7	C22.7,27.9,9.2,28.9,9.2,29.5" class="st0"/><linearGradient id="SVGID_2_" x1="-263.445" x2="-262.445" y1="480.23" y2="480.23" gradientTransform="matrix(29.5385 0 0 11.0769 7791 -5302.856)" gradientUnits="userSpaceOnUse"><stop offset="0" style="stop-color:#4f4f4f"/><stop offset="1" style="stop-color:#000"/></linearGradient><path d="M9.2,14.8v3.7c0,0.6,13.4,1.7,22.2,3.7c4.2-1,7.4-2.2,7.4-3.7v-3.7c0-1.5-3.1-2.7-7.4-3.7	C22.7,13.1,9.2,14.1,9.2,14.8" class="st1"/><linearGradient id="SVGID_3_" x1="-263.445" x2="-262.445" y1="465.894" y2="465.894" gradientTransform="matrix(29.5385 0 0 18.4615 7791 -8577.1191)" gradientUnits="userSpaceOnUse"><stop offset="0" style="stop-color:#c40000"/><stop offset="1" style="stop-color:red"/></linearGradient><path d="M9.2,22.2v11.1c0-0.9,29.5-2.8,29.5-7.4V14.8C38.8,19.4,9.2,21.2,9.2,22.2" class="st2"/><linearGradient id="SVGID_4_" x1="-263.445" x2="-262.445" y1="465.894" y2="465.894" gradientTransform="matrix(29.5385 0 0 18.4615 7791 -8591.8877)" gradientUnits="userSpaceOnUse"><stop offset="0" style="stop-color:#c40000"/><stop offset="1" style="stop-color:red"/></linearGradient><path d="M9.2,7.4v11.1c0-0.9,29.5-2.8,29.5-7.4V0C38.8,4.6,9.2,6.5,9.2,7.4" class="st3"/><linearGradient id="SVGID_5_" x1="-263.445" x2="-262.445" y1="465.894" y2="465.894" gradientTransform="matrix(29.5385 0 0 18.4615 7791 -8562.3496)" gradientUnits="userSpaceOnUse"><stop offset="0" style="stop-color:#c40000"/><stop offset="1" style="stop-color:red"/></linearGradient><path d="M9.2,36.9V48c0-0.9,29.5-2.8,29.5-7.4V29.5C38.8,34.2,9.2,36,9.2,36.9" class="st4"/></svg>