<?xml version="1.0" encoding="utf-8"?>
<!-- Generator: Adobe Illustrator 24.3.0, SVG Export Plug-In . SVG Version: 6.00 Build 0)  -->
<svg version="1.1" id="Layer_1" xmlns="http://www.w3.org/2000/svg" xmlns:xlink="http://www.w3.org/1999/xlink" x="0px" y="0px"
	 viewBox="0 0 48 48" style="enable-background:new 0 0 48 48;" xml:space="preserve">
<style type="text/css">
	.st0{fill:#FF6D00;}
	.st1{fill:#E64A19;}
	.st2{fill:#FFFFFF;}
</style>
<path class="st0" d="M0,5.3C0,2.4,2.4,0,5.3,0h37.3C45.6,0,48,2.4,48,5.3v37.3c0,2.9-2.4,5.3-5.3,5.3H5.3C2.4,48,0,45.6,0,42.7V5.3z
	"/>
<path class="st1" d="M0,5.3v16l5.3,5.3c0,0,14.9,17.2,26.7,5.4S26.7,6.7,26.7,6.7L20,0H5.3C2.4,0,0,2.4,0,5.3z"/>
<path class="st2" d="M26.7,6.7C41.9,16.9,37,28.2,37,28.2s4.3,4.8,2.6,9.1c0,0-1.8-3-4.8-3c-2.9,0-4.6,3-10.4,3
	c-12.9,0-19.1-10.7-19.1-10.7C17,34.2,25,28.8,25,28.8c-5.3-3-17-18.2-17-18.2c9.7,8.2,14.7,10.7,14.7,10.7C20.2,19.3,12,9.3,12,9.3
	c5.6,5.7,17.7,13.8,17.7,13.8C32.9,14.4,26.7,6.7,26.7,6.7z"/>
</svg>
