<svg xmlns="http://www.w3.org/2000/svg" xmlns:xlink="http://www.w3.org/1999/xlink" id="Layer_1" x="0" y="0" version="1.1" viewBox="0 0 48 48" xml:space="preserve" style="enable-background:new 0 0 48 48"><style type="text/css">.st0{fill:#1976d2}.st1{fill:#fff}</style><rect width="48" height="48" x="0" class="st0"/><polygon points="28.7 21.3 11 21.3 11 25.7 17.3 25.7 17.3 45.3 22.3 45.3 22.3 25.7 28.7 25.7" class="st1"/><path d="M44.3,26.8c0,0-2.4-1.6-5.1-1.6s-3.7,1.3-3.7,2.6c0,3.5,9.8,3.2,9.8,10.3c0,10.9-15,6.1-15,6.1V39	c0,0,2.9,2.2,6.3,2.2s3.3-2.3,3.3-2.6c0-3.3-9.8-3.3-9.8-10.5c0-9.8,14.2-6,14.2-6L44.3,26.8z" class="st1"/></svg>