<?xml version="1.0" encoding="utf-8"?>
<!-- Generator: Adobe Illustrator 24.3.0, SVG Export Plug-In . SVG Version: 6.00 Build 0)  -->
<svg version="1.1" id="Layer_1" xmlns="http://www.w3.org/2000/svg" xmlns:xlink="http://www.w3.org/1999/xlink" x="0px" y="0px"
	 viewBox="0 0 48 48" style="enable-background:new 0 0 48 48;" xml:space="preserve">
<style type="text/css">
	.st0{fill:#1976D2;}
	.st1{fill:#FFFFFF;}
</style>
<rect x="0" class="st0" width="48" height="48"/>
<polygon class="st1" points="28.7,21.3 11,21.3 11,25.7 17.3,25.7 17.3,45.3 22.3,45.3 22.3,25.7 28.7,25.7 "/>
<path class="st1" d="M44.3,26.8c0,0-2.4-1.6-5.1-1.6s-3.7,1.3-3.7,2.6c0,3.5,9.8,3.2,9.8,10.3c0,10.9-15,6.1-15,6.1V39
	c0,0,2.9,2.2,6.3,2.2s3.3-2.3,3.3-2.6c0-3.3-9.8-3.3-9.8-10.5c0-9.8,14.2-6,14.2-6L44.3,26.8z"/>
</svg>
