<svg xmlns="http://www.w3.org/2000/svg" viewBox="0 0 1914.82 429.26"><defs><style>.cls-1{fill:#45443b;}.cls-2{fill:#a41612;}.cls-3{fill:#fdfdfd;}</style></defs><title>mean</title><g id="Layer_2" data-name="Layer 2"><g id="Layer_1-2" data-name="Layer 1"><path class="cls-1" d="M321.65,212.18q0,37.32,0,74.66c0,31.84.77,32.7,31.75,40.86,8.79,2.31,19.17,2.59,17,16.95-1.43,9.71-4.59,13.76-15.27,13.64-43.72-.49-87.45-.05-131.17.16-7.82,0-14.86,0-15.83-10.58-.95-10.27,1.93-17.39,13.05-18.5,41.88-4.15,37-19.1,37.83-50.58.9-35.62.7-71.28.5-106.92-.05-10.71-.58-21.65-2.77-32.09-9.65-45.89-46.64-67-91.16-52.3C158,90,150.9,94,143.47,97c-19.61,8.14-28,21.7-27.28,43.88,1.66,50.39,1,100.86,1.37,151.3.22,27.3,2.54,29.9,30.24,35.59,10.07,2.07,20.63,3.12,17.66,18.23-1.62,8.27-4.08,13.21-14.14,12.5a976.46,976.46,0,0,0-135.12-.05c-8,.55-13.17-1.62-13-10.61.1-7.08-2.49-16.35,8.7-16.88,41.32-2,44.38-29.64,43.9-61.82-.69-45.7-.63-91.48,1.31-137.13C58,110,48.82,99.11,29.9,90.72,19.21,86-1.45,88.17.08,72.76c1.61-16.2,22-11.05,34-14.13,23.42-6,47.21-10.71,69.74-19.54,13.39-5.26,14.52.8,14.75,11.67.22,10.23-7.12,24.77,2.6,29.66,9.2,4.64,17.29-9.74,26.62-14.47,13.77-7,27-15.35,41.22-21.08C237.19,25.51,271.35,34.64,302.25,76c8.13,10.88,12.94,9.17,22.22,2.53A349.94,349.94,0,0,1,369,51c74.3-37.9,140.92-3.87,152.85,78.68,7.43,51.48,1,103.44,2.3,155.17.84,34.2.93,34.89,34.4,42.82,9.22,2.19,21,1.19,17.07,17.72-2.33,9.93-5.88,13.4-16,12.76a1135.58,1135.58,0,0,0-131.11-.38c-6,.31-13.06,1.25-12.61-8.16.35-7.32-4.36-18.13,8-19.31,35-3.34,38.19-26.29,37.16-54.59-1.38-37.61,0-75.32-.69-113-.57-31.54-10.66-58.72-42.36-71.6-34.4-14-64.32-.77-92.66,18.22-5.88,3.94-5.5,9.68-5.4,16.09.44,28.89.19,57.79.19,86.69Z"/><path class="cls-1" d="M1914.4,223.3c0,35,.33,69.92-.13,104.88-.24,17.85-5.19,20.58-20.86,11.91-24.71-13.65-49-28.09-73.63-41.85-10.84-6.06-14-15.17-13.82-26.9.34-28.9.42-57.82,0-86.72-.49-29.72-44.38-53.51-71.45-41.28-27.93,12.63-41.47,30.29-37.37,62.23,2.81,21.83.26,44.31.66,66.49.22,11.9-3.7,20.58-14.44,26.54q-37,20.55-73.57,41.94c-13.74,8.06-20.18,4.25-20.21-11.24q-.19-105.89-.28-211.77c0-11.41,5.54-18.73,15.08-24.17q66.54-38,132.88-76.34c10.46-6.07,20-5.6,30.35.38,43.59,25.33,87.19,50.64,131.13,75.34,12.27,6.89,16.31,16.35,16.13,29.72-.46,33.61-.15,67.23-.15,100.84Z"/><path class="cls-1" d="M850.66,223.77c-39.7,0-79.4.09-119.11-.05-9.37,0-16.73-.16-16.85,13.27-.35,40.31,26.75,81.67,64.77,96.64,45.75,18,97.11,8.26,124.47-23.72a65.32,65.32,0,0,0,8.21-11.41c4.84-9.07,3.09-24,15.33-26.2,15-2.76,31-2.58,46.19-.79,12,1.41,5.6,12.13,4,17.93-12.2,43.14-37.08,77.06-80.08,92.26-69.77,24.67-136.31,20.2-194-31.78-18.85-17-31.15-38.83-38.7-62.86-23.35-74.34-22.78-146.3,27.55-210.56C734.78,22.41,792.85,6.14,858.29,17.86c58.45,10.47,93,50.74,114,103.53,10.28,25.72,13.59,53.16,15.86,80.78,1.34,16.37-2.82,22.57-20.45,22C928.75,222.88,889.69,223.76,850.66,223.77ZM817.33,170.3c28.2,0,56.41,0,84.61,0,22-.06,22.79-1.21,17.39-23C907.1,97.77,866,67.12,814,68.65c-49.54,1.45-87.94,35.62-97.6,85.62-2.57,13.35,2.07,16.42,14.27,16.19C759.58,169.92,788.46,170.29,817.33,170.3Z"/><path class="cls-2" d="M1280.39,0c26.65,8.61,55.84,17.81,84.86,27.49,32.5,10.82,64.67,22.67,97.35,32.89,15.67,4.91,19.78,13.14,17.56,29.19q-15.89,114.85-29.61,230c-1.53,12.77-5.88,20.67-17.22,26.79-45.62,24.59-90.91,49.8-136.15,75.09-16.17,9-30.42,11.38-48.27.75-42.94-25.58-87.42-48.58-131.23-72.7-10.09-5.55-19.4-11.16-20.86-24.83q-12.69-119.18-26.52-238.22c-1.55-13.24,3.71-19.82,15-23.71,58.72-20.24,116.25-44,176.55-59.54C1266.88,1.92,1272.1,1.41,1280.39,0Zm-5.45,23c-27.57,36-39.68,75.58-57,112.39-26.89,57.25-52.46,115.12-78.16,172.91-2.63,5.93-11.24,14.2,1.69,19.18,18.79,7.23,42.58-3.35,50.71-22.52,4.46-10.51,8.61-21.15,12.53-31.87,4-11.1,10.59-16.79,23.46-16.57,30.78.51,61.59.18,92.36-.83,14.68-.48,22.73,5.58,27.63,18.93A333.22,333.22,0,0,0,1366,315.69c9.88,18.69,28.34,10.56,42.33,9.24,11-1,2.11-12-.07-16.73C1364.72,214.21,1320.65,120.49,1274.94,23Z"/><path class="cls-3" d="M1274.94,23c45.71,97.53,89.78,191.25,133.28,285.24,2.18,4.71,11.11,15.69.07,16.73-14,1.32-32.45,9.45-42.33-9.24a333.22,333.22,0,0,1-17.78-41.11c-4.9-13.35-13-19.41-27.63-18.93-30.77,1-61.58,1.34-92.36.83-12.87-.22-19.42,5.47-23.46,16.57-3.92,10.72-8.07,21.36-12.53,31.87-8.13,19.17-31.92,29.75-50.71,22.52-12.93-5-4.32-13.25-1.69-19.18,25.7-57.79,51.27-115.66,78.16-172.91C1235.26,98.54,1247.37,59,1274.94,23Zm-3.49,192.69c11.4,0,22.8-.13,34.19,0,11.71.17,13.75-5.89,9.42-15.1-10.78-23-21.91-45.79-33-68.6-2.39-4.91-5.84-9-12.11-8-5.53.87-5.13,5.86-6.6,9.9q-7.65,21-16.35,41.55C1231.44,211.88,1231.33,211.83,1271.45,215.65Z"/><path class="cls-2" d="M1271.45,215.65c-40.12-3.82-40-3.77-24.47-40.25q8.74-20.53,16.35-41.55c1.47-4,1.07-9,6.6-9.9,6.27-1,9.72,3.13,12.11,8,11.11,22.81,22.24,45.62,33,68.6,4.33,9.21,2.29,15.27-9.42,15.1C1294.25,215.52,1282.85,215.65,1271.45,215.65Z"/></g></g></svg>