<?xml version="1.0" encoding="utf-8"?>
<!-- Generator: Adobe Illustrator 24.3.0, SVG Export Plug-In . SVG Version: 6.00 Build 0)  -->
<svg version="1.1" id="Layer_1" focusable="false" xmlns="http://www.w3.org/2000/svg" xmlns:xlink="http://www.w3.org/1999/xlink"
	 x="0px" y="0px" viewBox="0 0 48 48" style="enable-background:new 0 0 48 48;" xml:space="preserve">
<style type="text/css">
	.st0{fill:#222222;}
	.st1{fill:#FFFFFF;stroke:#FFFFFF;stroke-width:0.6148;stroke-miterlimit:10;}
</style>
<rect x="0" class="st0" width="48" height="48"/>
<g>
	<path class="st1" d="M17.9,33.1c-0.3,0-0.4-0.3-0.4-1V15.4c0-0.3-0.1-0.5-0.2-0.5c-0.8,0.2-1.2,0.3-1.2,0.3c-0.2,0-0.3-0.2-0.3-0.7
		v-1.5c0-0.4,0.1-0.6,0.4-0.7l4-1c0,0,0.1,0,0.1,0c0.2,0,0.3,0.2,0.3,0.7v20c0,0.7-0.1,1-0.4,1L17.9,33.1z M28.2,33.2
		c-0.4,0-0.8,0-1.1-0.1c-0.3-0.1-0.6-0.2-0.9-0.4s-0.6-0.5-0.8-0.8c-0.2-0.3-0.4-0.8-0.5-1.4c-0.1-0.6-0.2-1.3-0.2-2.2v-7.8
		c0-0.2-0.1-0.3-0.2-0.3h-0.9c-0.3,0-0.4-0.2-0.4-0.7v-0.8c0-0.5,0.1-0.7,0.4-0.7h0.9c0.1,0,0.2-0.1,0.2-0.4l0.3-5.9
		c0-0.5,0.2-0.8,0.4-0.8h1.5c0.3,0,0.4,0.3,0.4,0.8v5.9c0,0.3,0.1,0.4,0.2,0.4h1.9c0.3,0,0.4,0.2,0.4,0.7v0.8c0,0.5-0.1,0.7-0.4,0.7
		h-1.9c-0.1,0-0.1,0-0.1,0.1c0,0,0,0.1,0,0.2v7.8c0,0.6,0,1.1,0.1,1.5s0.2,0.7,0.3,0.9c0.1,0.2,0.3,0.3,0.4,0.4
		c0.1,0.1,0.3,0.1,0.5,0.1h1.1c0.3,0,0.4,0.2,0.4,0.6v0.9c0,0.4-0.1,0.6-0.4,0.6C29.7,33.2,28.2,33.2,28.2,33.2z M34,35
		c0.2,0,0.4-0.2,0.6-0.6c0.2-0.4,0.3-0.9,0.3-1.6c0-0.2-0.1-0.7-0.3-1.7l-3-12.3c0-0.1,0-0.3,0-0.3c0-0.4,0.1-0.5,0.2-0.5h1.8
		c0.1,0,0.3,0,0.3,0.1c0.1,0.1,0.2,0.3,0.2,0.6l2,10.4c0,0.1,0.1,0.2,0.1,0.2c0,0,0.1-0.1,0.1-0.2l1.5-10.4c0-0.3,0.1-0.5,0.2-0.6
		c0.1-0.1,0.2-0.2,0.3-0.2h1.3c0.2,0,0.3,0.2,0.3,0.6c0,0.1,0,0.2,0,0.3l-2.7,14c-0.2,1.2-0.4,2-0.7,2.7c-0.3,0.6-0.5,1-0.8,1.3
		c-0.3,0.2-0.7,0.3-1.2,0.3h-0.2c-0.8,0-1.4-0.2-1.7-0.7c-0.1-0.1-0.1-0.3-0.1-0.7c0-0.7,0.1-1.1,0.4-1.1c0,0,0.2,0.1,0.5,0.2
		C33.7,34.9,33.9,35,34,35z"/>
	<g>
		<path class="st1" d="M10.2,33.2c-0.3,0-0.4-0.3-0.4-1V15.5c0-0.3-0.1-0.5-0.2-0.5c-0.8,0.2-1.2,0.3-1.2,0.3
			c-0.2,0-0.3-0.2-0.3-0.7v-1.5c0-0.4,0.1-0.6,0.4-0.7l4-1c0,0,0.1,0,0.1,0c0.2,0,0.3,0.2,0.3,0.7v20c0,0.7-0.1,1-0.4,1
			C12.6,33.2,10.2,33.2,10.2,33.2z"/>
	</g>
</g>
</svg>
