<?xml version="1.0" encoding="utf-8"?>
<!-- Generator: Adobe Illustrator 24.3.0, SVG Export Plug-In . SVG Version: 6.00 Build 0)  -->
<svg version="1.1" id="Layer_1" xmlns="http://www.w3.org/2000/svg" xmlns:xlink="http://www.w3.org/1999/xlink" x="0px" y="0px"
	 viewBox="0 0 48 48" style="enable-background:new 0 0 48 48;" xml:space="preserve">
<style type="text/css">
	.st0{fill:#FFFFFF;}
	.st1{fill:#663399;}
</style>
<path class="st0" d="M42.9,24h-12v3.4h8.2c-1.2,5.1-5,9.4-9.9,11.1L9.4,18.9c2.1-6,7.9-10.3,14.6-10.3c5.1,0,9.8,2.6,12.7,6.5
	l2.6-2.2C35.8,8.3,30.3,5.2,24,5.2c-8.9,0-16.5,6.3-18.3,14.7l22.6,22.6C36.5,40.5,42.9,33,42.9,24L42.9,24z M5.1,24.2
	c0,4.8,1.9,9.4,5.5,13s8.4,5.5,13,5.5L5.1,24.2z"/>
<path class="st1" d="M24,0C10.8,0,0,10.8,0,24s10.8,24,24,24s24-10.8,24-24S37.2,0,24,0z M10.6,37.3c-3.6-3.6-5.5-8.4-5.5-13
	l18.7,18.5C19,42.6,14.2,40.9,10.6,37.3L10.6,37.3z M28.1,42.3L5.7,19.8C7.5,11.4,15.1,5.1,24,5.1c6.3,0,11.8,3.1,15.3,7.7L36.7,15
	c-2.9-3.9-7.5-6.5-12.7-6.5c-6.7,0-12.3,4.3-14.6,10.3l19.7,19.7c5-1.7,8.7-6,9.9-11.1h-8.2V24h12C42.9,32.9,36.5,40.4,28.1,42.3
	L28.1,42.3z"/>
</svg>
