<svg xmlns="http://www.w3.org/2000/svg" width="64" height="64" viewBox="0 0 32 32"><defs><linearGradient id="A" y2="277.465" x2="296.661" y1="238.547" x1="195.456" gradientUnits="userSpaceOnUse"><stop offset="0" stop-color="#919191"/><stop offset="1" stop-color="#fff"/></linearGradient><linearGradient id="B" y2="327.266" x2="254.14" y1="303.705" x1="192.87" gradientUnits="userSpaceOnUse"><stop offset="0" stop-color="#900"/><stop offset="1" stop-color="#e80000"/></linearGradient></defs><g transform="matrix(.077756 0 0 .077756 -3.451258 -3.954841)"><path d="M269.02 59.15c-.184.737-.188 1.53-.033 2.365 0 0 2.507 16.642-.34 24.048L147.652 400.2c-8.636 23.1 2.937 48.91 26.014 57.787s48.955-2.524 58.03-25.464l.01.005 121.005-314.634c2.366-6.155 15.86-18.08 15.86-18.08.677-.516 1.202-1.108 1.56-1.778l.06-.122c.065-.132.14-.258.193-.395 3.12-8.113-17.005-23.405-44.952-34.152s-53.133-12.884-56.253-4.77c-.053.137-.083.28-.122.422l-.037.13z" opacity=".3"/><path d="M265.523 56.477c-.185.737-.2 1.53-.033 2.365 0 0 2.508 16.642-.34 24.048L144.155 397.526c-8.635 23.1 2.937 48.91 26.014 57.787s48.955-2.524 58.03-25.464v.005L349.215 115.22c2.365-6.155 15.86-18.08 15.86-18.08.677-.516 1.202-1.107 1.56-1.778l.058-.122c.065-.13.14-.258.193-.395 3.12-8.113-17.005-23.404-44.95-34.152s-53.133-12.884-56.253-4.77c-.053.137-.083.28-.122.422l-.037.132z" fill="url(#A)"/><path d="M303.48 198.814L216.275 425.73c-6.436 16.262-25.166 24.723-41.78 18.333s-25.608-25.512-19.488-41.897l55.758-144.982s6.964-11.233 20.637-19.225 24.95-6.305 40.132-13.053 31.947-26.093 31.947-26.093z" fill="url(#B)"/><ellipse ry="8.85" rx="33.648" cy="76.201" cx="315.97" transform="matrix(.9334 .359 -.359 .9334 48.4129 -108.3439)" fill="#333"/><g fill="#fff"><path d="M265.49 58.84s2.47 16.737-.34 24.048L144.155 397.526c-8.635 23.1 2.937 48.91 26.014 57.787 4.005 1.54 8.092 2.455 12.164 2.822-15.556-11.702-22.23-32.632-15.093-51.73l-.01-.004L285.833 98.01S269.69 82.85 265.49 58.84z" opacity=".3"/><circle r="3.506" cy="261.806" cx="226.531" opacity=".5"/><circle r="5.285" cy="287.227" cx="249.514" opacity=".5"/><circle r="9.915" cy="317.459" cx="214.429" opacity=".5"/><circle r="5.286" cy="335.795" cx="198.375" opacity=".5"/><circle r="3.506" cy="375.008" cx="219.43" opacity=".5"/></g></g></svg>