<?xml version="1.0" encoding="UTF-8" standalone="no"?>
<svg viewBox="0 0 256 256" version="1.1" xmlns="http://www.w3.org/2000/svg" xmlns:xlink="http://www.w3.org/1999/xlink" preserveAspectRatio="xMidYMid">
	<g>
		<rect fill="#F1C761" x="0" y="0" width="256" height="256" rx="22"></rect>
		<g transform="translate(19.561462, 32.318937)" fill="#000000" fill-opacity="0.35">
			<path d="M98.5353355,156.877821 L98.5353355,35.8995349 L69.1140465,40.0312558 L46.615814,83.6320532 L25.2342857,45.2226977 L0.502644518,49.1307375 L0.502644518,144.484359 L23.782485,148.447681 L23.782485,88.0988704 L46.5596811,131.029475 L47.0623256,131.029475 L71.0684917,87.9313223 L71.0684917,152.802233 L98.5353355,156.877821"></path>
			<path d="M0,21.6638937 L0,34.1687708 L108.863787,16.136505 L108.863787,0.170099668 L0,21.6638937"></path>
			<path d="M0,169.551096 L108.863787,190.988757 L108.863787,175.077635 L0,156.989236 L0,169.551096"></path>
		</g>
		<g transform="translate(128.425249, 32.318937)" fill="#FFFFFF">
			<path d="M0,0.170099668 L0,16.136505 L108.863787,34.1687708 L108.863787,21.6638937 L0,0.170099668"></path>
			<path d="M108.361143,144.484359 L108.361143,49.1307375 L83.6295017,45.2226977 L62.2479734,83.6320532 L39.7488904,40.0312558 L10.3284518,35.8995349 L10.3284518,156.877821 L37.7952957,152.802233 L37.7952957,87.9313223 L61.8014618,131.029475 L62.3032558,131.029475 L85.0813023,88.0988704 L85.0813023,148.447681 L108.361143,144.484359"></path>
			<path d="M0,190.988757 L108.863787,169.551096 L108.863787,156.989236 L0,175.077635 L0,190.988757"></path>
		</g>
	</g>
</svg>