<?xml version="1.0" encoding="utf-8"?>
<!-- Generator: Adobe Illustrator 24.3.0, SVG Export Plug-In . SVG Version: 6.00 Build 0)  -->
<svg version="1.1" id="Layer_1" xmlns="http://www.w3.org/2000/svg" xmlns:xlink="http://www.w3.org/1999/xlink" x="0px" y="0px"
	 viewBox="0 0 48 48" style="enable-background:new 0 0 48 48;" xml:space="preserve">
<desc>Created with Sketch.</desc>
<g id="Page-1">
	<g id="Black-Next.js" transform="translate(-247.000000, -138.000000)">
		<g id="next-black" transform="translate(247.000000, 138.000000)">
			<g id="EXT-_x2B_-Type-something">
				<path id="EXT" d="M11.4,17.1h9v0.7h-8.2v5.4h7.7v0.7h-7.7v5.9h8.3v0.7h-9.1V17.1z M21.2,17.1h1l4.3,5.9l4.3-5.9l5.9-7.5l-9.7,14
					l5,6.9h-1l-4.6-6.3l-4.6,6.3h-1l5-6.9L21.2,17.1z M32.3,17.8v-0.7h10.3v0.7h-4.7v12.7H37V17.8H32.3z"/>
				<polygon id="Type-something" points="0.1,17.1 1.1,17.1 15.4,38.4 9.5,30.5 0.9,18.1 0.9,30.5 0.1,30.5 				"/>
			</g>
			<path id="_x2E_JS" d="M42.5,29.6c0.2,0,0.3-0.1,0.3-0.3S42.7,29,42.5,29c-0.2,0-0.3,0.1-0.3,0.3S42.4,29.6,42.5,29.6z M43.3,28.8
				c0,0.5,0.4,0.8,0.9,0.8c0.6,0,0.9-0.3,0.9-0.9v-2h-0.5v2c0,0.3-0.2,0.5-0.5,0.5c-0.3,0-0.4-0.2-0.4-0.4H43.3z M45.7,28.8
				c0,0.5,0.5,0.8,1.1,0.8c0.7,0,1.1-0.3,1.1-0.9c0-0.4-0.2-0.7-0.8-0.8l-0.3-0.1c-0.4-0.1-0.5-0.2-0.5-0.4c0-0.3,0.2-0.4,0.6-0.4
				c0.3,0,0.6,0.2,0.6,0.4h0.4c0-0.5-0.5-0.8-1-0.8c-0.6,0-1.1,0.3-1.1,0.9c0,0.4,0.2,0.7,0.8,0.8l0.4,0.1c0.4,0.1,0.6,0.2,0.6,0.4
				c0,0.3-0.3,0.4-0.6,0.4c-0.4,0-0.7-0.2-0.7-0.4H45.7z"/>
		</g>
	</g>
</g>
</svg>
