<?xml version="1.0" encoding="utf-8"?>
<!-- Generator: Adobe Illustrator 24.3.0, SVG Export Plug-In . SVG Version: 6.00 Build 0)  -->
<svg version="1.1" id="Layer_1" xmlns="http://www.w3.org/2000/svg" xmlns:xlink="http://www.w3.org/1999/xlink" x="0px" y="0px"
	 viewBox="0 0 48 48" style="enable-background:new 0 0 48 48;" xml:space="preserve">
<style type="text/css">
	.st0{fill:#00C492;}
	.st1{fill:#008776;}
	.st2{fill:#2D4A5D;}
</style>
<g transform="matrix(2.5377204 0 0 2.5377204 -12.870824 -44.131613)">
	<path class="st0" d="M10.8,33.4C10.8,33.4,10.8,33.3,10.8,33.4c-0.1-0.3-0.1-0.4-0.1-0.6H6.2l6.6-11.7l2.2,3.8l0.6-1.1l-1.9-3.4
		c-0.2-0.3-0.5-0.6-0.9-0.6c-0.4,0-0.7,0.3-0.9,0.6L5.2,32.3C5,32.6,5,33,5.2,33.4c0.2,0.3,0.6,0.5,1,0.5h5.6
		C11.4,33.9,11,33.7,10.8,33.4z"/>
	<path class="st1" d="M23.8,32.3l-5.5-9.7c-0.2-0.4-0.5-0.6-0.9-0.6c-0.4,0-0.7,0.3-0.9,0.6l-0.7,1.3l0.6,1.1l1-1.7l5.5,9.6h-2.1
		c0,0.2,0,0.3,0,0.5c0,0,0,0.1,0,0.1l0,0c-0.2,0.3-0.6,0.5-1,0.5h3.3c0.4,0,0.8-0.2,1-0.5C24.1,33,24,32.6,23.8,32.3z"/>
	<path class="st2" d="M20.6,33.4L20.6,33.4c0-0.1,0-0.1,0.1-0.1c0.1-0.2,0.1-0.3,0-0.5c0-0.2-0.1-0.3-0.2-0.5l-4.2-7.4l-0.6-1.1
		l-0.6,1.1l-4.2,7.4c-0.1,0.2-0.1,0.3-0.2,0.5c0,0.2,0,0.4,0.1,0.6c0,0,0,0.1,0,0.1c0.2,0.3,0.6,0.5,1,0.5h7.8
		C20,33.9,20.4,33.7,20.6,33.4z M15.7,26l3.8,6.7h-7.7L15.7,26z"/>
</g>
</svg>
