<?xml version="1.0" standalone="no"?>
<!DOCTYPE svg PUBLIC "-//W3C//DTD SVG 1.1//EN" "http://www.w3.org/Graphics/SVG/1.1/DTD/svg11.dtd">
<svg width="100%" height="100%" viewBox="0 0 579 626" version="1.1" xmlns="http://www.w3.org/2000/svg" xmlns:xlink="http://www.w3.org/1999/xlink" xml:space="preserve" style="fill-rule:evenodd;clip-rule:evenodd;stroke-linejoin:round;stroke-miterlimit:1.41421;">
    <g transform="matrix(4.16667,0,0,4.16667,-301.271,-2392.19)">
        <path d="M210.353,607.217C210.013,605.111 209.511,602.914 208.862,600.626C207.325,595.185 203.944,590.552 199.356,586.772C198.151,585.771 196.853,584.826 195.476,583.949C190.183,580.568 183.784,578.098 176.954,576.629C172.366,575.639 167.587,575.104 162.815,575.036C128.153,574.262 106.581,575.423 72.442,574.125C72.454,574.148 72.454,574.171 72.464,574.193C74.024,575.457 75.618,576.664 77.246,577.836C80.819,580.42 84.543,582.788 88.401,584.963C95.585,589.003 103.246,592.305 111.26,594.764C112.216,595.059 113.172,595.344 114.13,595.606C119.73,596.209 124.761,596.812 128.778,598.68C129.793,599.135 130.737,599.681 131.613,600.319C134.483,602.425 137.67,606.443 139.765,609.255C144.262,615.254 143.316,620.183 148.645,623.142C149.202,623.45 149.827,623.746 150.534,624.008C152.23,624.646 154.653,625.499 155.759,623.098C155.919,622.756 156.042,622.334 156.146,621.834C155.7,620.4 154.165,619.159 153.241,618.544C151.603,617.474 150.954,616.825 149.771,615.607C147.585,613.364 147.438,609.551 145.9,606.899C147.835,606.079 158.046,604.713 160.187,605.009C164.763,605.213 168.372,605.566 171.126,608.401C172.206,609.255 172.798,609.995 173.778,610.735C173.847,610.792 173.903,610.849 173.972,610.894C178.31,614.047 182.315,615.174 185.866,616.256C186.802,616.54 187.688,616.814 188.556,617.132C189.888,617.61 191.138,618.18 192.31,618.942C193.7,619.864 196.058,622.278 196.159,624.361C192.663,623.245 194.974,624.657 189.817,624.259C187.302,623.974 184.73,623.803 182.146,623.621C178.128,623.337 174.108,623.04 170.341,622.324C169.714,622.209 169.087,622.073 168.474,621.925C167.995,621.823 167.528,621.698 167.073,621.572C167.062,621.765 167.052,621.948 167.052,622.118C166.948,626.057 169.726,628.026 163.374,635.517C163.317,635.597 163.237,635.676 163.169,635.767C161.483,637.737 152.72,641.482 149.987,642.199C138.353,644.533 129.485,636.962 115.472,640.776C110.543,642.609 106.923,650.6 104.657,656.576C101.641,664.512 99.251,674.152 96.518,683.636C101.847,682.839 107.048,681.7 112.103,680.209C123.27,676.93 133.754,672.024 143.271,665.764C144.182,664.533 145.183,663.474 146.265,662.656C146.549,662.439 146.845,662.234 147.142,662.053C147.357,661.916 148.098,661.767 149.269,661.551C160.13,659.627 207.769,653.174 210.866,618.589C211.185,615.095 211.038,611.304 210.353,607.217ZM103.417,625.807C97.042,623.883 95.414,623.564 91.362,620.422C91.429,620.752 91.532,621.117 91.669,621.503C102.448,627.571 114.277,631.965 126.81,634.345C122.917,625.294 118.308,626.9 103.417,625.807ZM132.935,621.708C130.156,614.97 122.622,611.133 116.122,609.244C107.401,606.124 101.061,609.119 82.664,600.433C82.811,600.672 82.948,600.9 83.096,601.127C86.671,603.711 90.393,606.09 94.253,608.253C101.437,612.294 109.097,615.596 117.11,618.055C121.277,618.544 125.285,619.239 128.973,621.015C130.612,621.788 132.183,622.779 133.675,624.054C133.492,623.234 133.241,622.449 132.935,621.708Z" style="fill:url(#_Linear1);fill-rule:nonzero;"/>
    </g>
    <g transform="matrix(4.16667,0,0,4.16667,-301.271,-2392.19)">
        <path d="M114.13,595.606C113.172,595.344 112.216,595.059 111.26,594.764C103.246,592.305 95.585,589.003 88.401,584.963C84.543,582.788 80.819,580.42 77.246,577.836C75.618,576.664 74.024,575.457 72.464,574.193C74.604,580.796 84.098,587.763 90.542,590.506C98.76,594.001 106.923,594.809 114.13,595.606Z" style="fill:rgb(144,212,209);"/>
    </g>
    <g transform="matrix(4.16667,0,0,4.16667,-301.271,-2392.19)">
        <path d="M94.253,608.253C90.393,606.09 86.671,603.711 83.096,601.127C93.102,616.95 105.671,616.711 117.11,618.055C109.097,615.596 101.437,612.294 94.253,608.253Z" style="fill:rgb(144,212,209);"/>
    </g>
    <g transform="matrix(4.16667,0,0,4.16667,-301.271,-2392.19)">
        <path d="M126.81,634.345C114.277,631.965 102.448,627.571 91.669,621.503C93.045,625.476 98.02,631.76 104.612,633.161C107.47,634.185 106.706,633.923 111.579,633.775C118.716,633.411 122.131,633.183 127.187,635.244C127.061,634.936 126.936,634.64 126.81,634.345Z" style="fill:rgb(144,212,209);"/>
    </g>
    <g transform="matrix(4.16667,0,0,4.16667,-301.271,-2392.19)">
        <path d="M143.271,665.764C143.19,665.865 143.112,665.968 143.032,666.082C129.188,680.175 111.853,690.772 92.442,696.475C93.934,692.343 95.266,688.007 96.518,683.636C101.847,682.839 107.048,681.7 112.103,680.209C123.27,676.93 133.754,672.024 143.271,665.764Z" style="fill:rgb(144,212,209);"/>
    </g>
    <g transform="matrix(4.16667,0,0,4.16667,-301.271,-2392.19)">
        <path d="M143.032,666.082C136.986,674.369 133.914,690.204 130.373,699.356C125.229,712.698 118.079,722.306 102.415,723.673C98.487,724.024 74.833,724.913 72.305,723.638C72.464,722.294 76.403,720.677 77.428,719.891C84.28,715.044 88.844,706.391 92.442,696.475C111.853,690.772 129.188,680.175 143.032,666.082Z" style="fill:rgb(20,160,196);"/>
    </g>
    <defs>
        <linearGradient id="_Linear1" x1="0" y1="0" x2="1" y2="0" gradientUnits="userSpaceOnUse" gradientTransform="matrix(138.584,0,0,138.584,72.4424,628.88)"><stop offset="0%" style="stop-color:rgb(84,196,198);stop-opacity:1"/><stop offset="100%" style="stop-color:rgb(18,186,213);stop-opacity:1"/></linearGradient>
    </defs>
</svg>
