<?xml version="1.0" encoding="utf-8"?>
<!-- Generator: Adobe Illustrator 24.3.0, SVG Export Plug-In . SVG Version: 6.00 Build 0)  -->
<svg version="1.1" id="Layer_1" xmlns="http://www.w3.org/2000/svg" xmlns:xlink="http://www.w3.org/1999/xlink" x="0px" y="0px"
	 viewBox="0 0 48 48" style="enable-background:new 0 0 48 48;" xml:space="preserve">
<style type="text/css">
	.st0{fill:#159497;}
	.st1{fill:#FFFFFF;}
</style>
<path class="st0" d="M41.4,6.3C37,0,28.1-1.9,21.8,2.2L10.6,9.3c-3.1,1.9-5.2,5-5.8,8.6c-0.5,3-0.1,6,1.3,8.7
	c-1,1.5-1.6,3.1-1.9,4.8c-0.7,3.6,0.2,7.4,2.3,10.3c4.5,6.4,13.3,8.3,19.6,4.2l11.2-7.1c3.1-1.9,5.2-5,5.8-8.6c0.5-3,0.1-6-1.3-8.7
	c1-1.5,1.6-3.1,1.9-4.8C44.4,13.1,43.6,9.3,41.4,6.3"/>
<path class="st1" d="M20.7,42.3c-3.6,0.9-7.4-0.5-9.5-3.5c-1.3-1.8-1.8-4-1.4-6.2c0.1-0.4,0.2-0.7,0.2-1.1l0.2-0.7l0.6,0.4
	c1.3,1,2.8,1.7,4.4,2.2l0.4,0.1l0,0.4c0,0.6,0.1,1.2,0.4,1.7c0.7,0.9,1.8,1.4,2.9,1.1c0.2-0.1,0.5-0.2,0.7-0.3l11.1-7.1
	c0.6-0.4,0.9-0.9,1.1-1.5c0.1-0.7,0-1.3-0.4-1.9c-0.7-0.9-1.8-1.3-2.9-1.1c-0.2,0.1-0.5,0.2-0.7,0.3l-4.2,2.7
	c-0.7,0.4-1.5,0.8-2.3,1c-3.6,0.9-7.4-0.5-9.5-3.5c-1.3-1.8-1.8-4-1.4-6.2c0.4-2.1,1.7-4,3.5-5.2L25,6.7c0.7-0.4,1.5-0.8,2.3-1
	c3.6-0.9,7.4,0.5,9.5,3.5c1.3,1.8,1.8,4,1.4,6.2c-0.1,0.4-0.2,0.7-0.3,1.1l-0.2,0.7l-0.6-0.4c-1.3-1-2.8-1.7-4.4-2.2l-0.4-0.1l0-0.4
	c0-0.6-0.1-1.2-0.4-1.7c-0.7-0.9-1.8-1.3-2.9-1.1c-0.2,0.1-0.5,0.2-0.7,0.3l-11.1,7.2c-0.6,0.4-0.9,0.9-1.1,1.5s0,1.3,0.4,1.9
	c0.7,0.9,1.8,1.3,2.9,1.1c0.2-0.1,0.5-0.2,0.7-0.3l4.3-2.7c0.7-0.4,1.5-0.8,2.3-1c3.6-0.9,7.4,0.5,9.5,3.5c1.3,1.8,1.8,4,1.4,6.2
	c-0.4,2.1-1.7,4-3.5,5.2L23,41.3C22.3,41.7,21.5,42,20.7,42.3"/>
</svg>
