<svg xmlns="http://www.w3.org/2000/svg" xmlns:xlink="http://www.w3.org/1999/xlink" id="Layer_1" x="0" y="0" version="1.1" viewBox="0 0 48 48" xml:space="preserve" style="enable-background:new 0 0 48 48"><style type="text/css">.st0{fill:url(#SVGID_1_)}.st1,.st2{fill:#fff}.st2{opacity:.7;enable-background:new}</style><g><linearGradient id="SVGID_1_" x1="1660.734" x2="2000.75" y1="-2537.181" y2="-2537.181" gradientTransform="matrix(0.1412 0 0 -0.1412 -234.4588 -334.192)" gradientUnits="userSpaceOnUse"><stop offset="0" style="stop-color:#007c42"/><stop offset="1" style="stop-color:#6cce7a"/></linearGradient><path d="M37.3,47.7C36.7,48,36.1,48,35.5,48c-7.5-1-14.6-3.8-20.7-8.3C8.5,35.1,3.5,29,0.3,21.9 c-0.5-1.1-0.4-2.4,0.4-3.4c9.5-13,25.3-20,41.3-18.2c1.3,0.1,2.3,1,2.8,2.1c3,7.4,3.9,15.4,2.8,23.3c-1.1,7.6-4.2,14.8-8.9,21 C38.3,47.1,37.8,47.5,37.3,47.7z" class="st0"/><path d="M37.3,31.9l-0.4-0.1c-1-0.3-1.5-1.4-1.1-2.4c0,0,0,0,0,0c0.6-1.6,0-2.4-0.1-2.6c-1.4-2-6.3-2.2-8.3-2.2 c-4.9,0-8.3-1.2-9.9-3.6s-1-5-0.4-6.3c0.5-0.9,1.6-1.3,2.5-0.8c0.8,0.4,1.2,1.4,0.9,2.3c0,0-0.6,1.6,0.1,2.8c0.8,1.2,3.2,2,6.7,1.9 c5.7,0,9.6,1.2,11.4,3.7c1.2,1.7,1.4,3.8,0.6,6C39,31.5,38.1,32,37.3,31.9z" class="st1"/><path d="M22.5,12.5c1.6-0.6,3.4-0.8,5.1-0.8c3.8,0.1,6.1,1.4,8.5,4.5c0.2,0.3,0.6,0.5,1,0.6c0.9,0.2,1.9-0.3,2.1-1.3 c0.1-0.5,0-1.1-0.3-1.5c-3.8-5-7.8-5.8-11.2-5.9c-2.2-0.1-4.4,0.3-6.5,1c-0.9,0.3-1.4,1.3-1.2,2.2c0.3,0.9,1.3,1.4,2.2,1.2 C22.3,12.6,22.4,12.5,22.5,12.5z" class="st2"/><path d="M33.8,33c-1.6,0.6-3.4,0.8-5.1,0.8c-3.8-0.1-7-1.8-9.4-4.9c-0.5-0.8-1.6-1.1-2.4-0.6c-0.8,0.5-1.1,1.6-0.6,2.4 c0.1,0.1,0.1,0.2,0.2,0.3c2.8,3.6,6,5.2,8.9,5.9c1,0.2,2.1,0.4,3.1,0.4c2.2,0.1,4.4-0.3,6.5-1c0.9-0.3,1.3-1.4,1-2.2 C35.7,33.1,34.7,32.6,33.8,33L33.8,33z" class="st2"/></g></svg>