<?xml version="1.0" encoding="utf-8"?>
<!-- Generator: Adobe Illustrator 24.3.0, SVG Export Plug-In . SVG Version: 6.00 Build 0)  -->
<svg version="1.1" id="Layer_1" xmlns="http://www.w3.org/2000/svg" xmlns:xlink="http://www.w3.org/1999/xlink" x="0px" y="0px"
	 viewBox="0 0 48 48" style="enable-background:new 0 0 48 48;" xml:space="preserve">
<style type="text/css">
	.st0{fill-rule:evenodd;clip-rule:evenodd;fill:url(#SVGID_1_);}
	.st1{fill-rule:evenodd;clip-rule:evenodd;fill:url(#SVGID_2_);}
	.st2{fill-rule:evenodd;clip-rule:evenodd;fill:url(#SVGID_3_);}
	.st3{fill-rule:evenodd;clip-rule:evenodd;fill:url(#SVGID_4_);}
	.st4{fill-rule:evenodd;clip-rule:evenodd;fill:url(#SVGID_5_);}
	.st5{fill-rule:evenodd;clip-rule:evenodd;fill:url(#SVGID_6_);}
	.st6{fill-rule:evenodd;clip-rule:evenodd;fill:#BCC0CF;}
	.st7{fill:#A2A6B3;}
	.st8{fill:url(#SVGID_7_);}
	.st9{fill:url(#SVGID_8_);}
</style>
<g>
	
		<linearGradient id="SVGID_1_" gradientUnits="userSpaceOnUse" x1="-76.7408" y1="148.2231" x2="-76.7408" y2="174.7977" gradientTransform="matrix(1.5 0 0 -1.5 136.5 270.3346)">
		<stop  offset="0" style="stop-color:#1D2130"/>
		<stop  offset="1" style="stop-color:#3E445A"/>
	</linearGradient>
	<path class="st0" d="M3.5,11.9l25-3.7c0.7-0.1,1.4,0.3,1.6,0.9l10.3,31.2c0.3,0.8-0.1,1.5-0.9,1.7l-28,6.1
		c-0.8,0.2-1.6-0.3-1.8-1.2L2.4,13.2C2.2,12.6,2.7,12,3.5,11.9z"/>
	
		<linearGradient id="SVGID_2_" gradientUnits="userSpaceOnUse" x1="-76.6366" y1="148.4465" x2="-76.6366" y2="175.0211" gradientTransform="matrix(1.5 0 0 -1.5 136.5 270.3346)">
		<stop  offset="0" style="stop-color:#262B3F"/>
		<stop  offset="1" style="stop-color:#656E91"/>
	</linearGradient>
	<path class="st1" d="M3.6,11.5l25-3.7c0.7-0.1,1.4,0.3,1.6,0.9l10.3,31.2c0.3,0.8-0.1,1.5-0.9,1.7l-28,6.1
		c-0.8,0.2-1.6-0.3-1.8-1.2L2.5,12.9C2.4,12.2,2.9,11.6,3.6,11.5z"/>
	
		<linearGradient id="SVGID_3_" gradientUnits="userSpaceOnUse" x1="-75.0522" y1="151.5335" x2="-75.0522" y2="177.4588" gradientTransform="matrix(1.5 0 0 -1.5 136.5 270.3346)">
		<stop  offset="0" style="stop-color:#267550"/>
		<stop  offset="1" style="stop-color:#79B881"/>
	</linearGradient>
	<path class="st2" d="M6,7.8l24.8-3.6c0.7-0.1,1.4,0.3,1.6,0.9l10.5,30.6c0.3,0.7-0.1,1.5-0.9,1.6L14.8,43c-0.8,0.2-1.6-0.3-1.8-1.1
		L4.9,9.1C4.8,8.5,5.3,7.9,6,7.8z"/>
	
		<linearGradient id="SVGID_4_" gradientUnits="userSpaceOnUse" x1="-74.9481" y1="151.7567" x2="-74.9481" y2="177.682" gradientTransform="matrix(1.5 0 0 -1.5 136.5 270.3346)">
		<stop  offset="0" style="stop-color:#279264"/>
		<stop  offset="1" style="stop-color:#A4F3AA"/>
	</linearGradient>
	<path class="st3" d="M6.1,7.5l24.8-3.6c0.7-0.1,1.4,0.3,1.6,0.9L43,35.4c0.3,0.7-0.1,1.5-0.9,1.6L15,42.7c-0.8,0.2-1.6-0.3-1.8-1.1
		L5.1,8.8C4.9,8.2,5.4,7.6,6.1,7.5z"/>
	
		<linearGradient id="SVGID_5_" gradientUnits="userSpaceOnUse" x1="-73.3" y1="154.6483" x2="-73.3" y2="179.9999" gradientTransform="matrix(1.5 0 0 -1.5 136.5 270.3346)">
		<stop  offset="0.59" style="stop-color:#CECFD0"/>
		<stop  offset="1" style="stop-color:#DFDFDF"/>
	</linearGradient>
	<path class="st4" d="M8.6,3.9l24.6-3.5c0.7-0.1,1.4,0.3,1.6,0.9l10.6,30c0.3,0.7-0.1,1.4-0.8,1.6l-26.7,5.5
		c-0.8,0.2-1.6-0.3-1.8-1.1l-8.4-32C7.5,4.6,7.9,4,8.6,3.9z"/>
	
		<linearGradient id="SVGID_6_" gradientUnits="userSpaceOnUse" x1="-73.196" y1="154.8716" x2="-73.196" y2="180.2231" gradientTransform="matrix(1.5 0 0 -1.5 136.5 270.3346)">
		<stop  offset="0" style="stop-color:#EAEEF0"/>
		<stop  offset="0.41" style="stop-color:#FFFFFF"/>
	</linearGradient>
	<path class="st5" d="M8.8,3.5L33.4,0c0.7-0.1,1.4,0.3,1.6,0.9l10.6,30c0.3,0.7-0.1,1.4-0.8,1.6L18,38c-0.8,0.2-1.6-0.3-1.8-1.1
		l-8.4-32C7.6,4.2,8.1,3.6,8.8,3.5z"/>
	<path class="st6" d="M22.1,23.3l10.8-2c0.2,0,0.3,0.1,0.4,0.2l1.8,5.8c0.1,0.2-0.1,0.4-0.2,0.4l-11,2.1c-0.2,0-0.3-0.1-0.4-0.2
		l-1.7-5.9C21.8,23.5,21.9,23.4,22.1,23.3z M21.1,23.8l1.6,6c0.1,0.5,0.6,0.7,1.1,0.7L35,28.3c0.5-0.1,0.9-0.7,0.7-1.2l-1.8-5.7
		c-0.1-0.4-0.6-0.7-1-0.6l-10.9,1.9C21.3,22.8,21,23.3,21.1,23.8z M23.3,24.3l1.1,4l1.2-0.3L25,25.7l1.7,1.3l0.8-1.9l0.7,2.4
		l1.2-0.3l-1.2-3.9L27,23.6l-0.8,1.7l-1.7-1.3L23.3,24.3z M32.2,24.9l-0.6-2.1L30.3,23l0.6,2.1l-1.1,0.2l2.4,1.6l1.2-2.3L32.2,24.9z
		"/>
	<path class="st7" d="M35.1,27.5l-0.1,0.3l0,0.1c0,0.1-0.1,0.1-0.2,0.1l-11,2.1c-0.2,0-0.3-0.1-0.4-0.2L21.7,24c0-0.1,0-0.1,0-0.2
		c0,0,0,0,0,0l0,0l0.1-0.3c0,0.1,0,0.1,0,0.2l0,0.2l1.6,5.8c0,0.2,0.2,0.3,0.4,0.2l11-2.1h0C34.9,27.7,35,27.6,35.1,27.5z
		 M35.5,27.9c0-0.2,0-0.3,0-0.5l-1.8-5.7c-0.1-0.4-0.6-0.7-1-0.6L21.7,23c-0.2,0-0.4,0.2-0.6,0.4c0.1-0.3,0.4-0.6,0.7-0.7l10.9-1.9
		c0.5-0.1,0.9,0.2,1,0.6l1.8,5.7C35.8,27.4,35.7,27.7,35.5,27.9z M33.4,24.6L33.2,25l-1.1,0.2l-0.6-2.1l-1,0.2L30.3,23l1.3-0.2
		l0.6,2.1L33.4,24.6z M30.7,25.1l0.2,0l-0.2,0.3l-0.6,0.1l-0.4-0.2L30.7,25.1z M26.2,25.3L26,25.7l-1.7-1.3l-1,0.2l-0.1-0.3l1.2-0.2
		L26.2,25.3z M29.4,27.3l-0.2,0.1l-1.1-3.6L26.8,24l0.2-0.3l1.3-0.2L29.4,27.3z M25.2,26.3L25,25.7l-0.2,0.3l0.6,2l0.2-0.1
		L25.2,26.3z"/>
	
		<linearGradient id="SVGID_7_" gradientUnits="userSpaceOnUse" x1="-78.1691" y1="183.9937" x2="-67.4715" y2="149.0034" gradientTransform="matrix(1.5 0 0 -1.5 136.5 270.3346)">
		<stop  offset="0.22" style="stop-color:#73CB8D"/>
		<stop  offset="0.4" style="stop-color:#2F9869"/>
	</linearGradient>
	<path class="st8" d="M18.7,8.1l-3.2,0.4l11.4,10.6l4.1-13l-3,0.5l-2.4,7.6L18.7,8.1z"/>
	
		<linearGradient id="SVGID_8_" gradientUnits="userSpaceOnUse" x1="-79.5374" y1="187.1404" x2="-62.789" y2="138.4996" gradientTransform="matrix(1.5 0 0 -1.5 136.5 270.3346)">
		<stop  offset="0.25" style="stop-color:#586080"/>
		<stop  offset="0.35" style="stop-color:#2C3247"/>
	</linearGradient>
	<path class="st9" d="M18.7,8.1l2.9-0.4l2.6,2.3l1-2.8l2.7-0.4l-2.4,7.6L18.7,8.1z"/>
</g>
</svg>
