<svg xmlns="http://www.w3.org/2000/svg" xmlns:xlink="http://www.w3.org/1999/xlink" style="enable-background:new 0 0 48 48" id="Layer_1" x="0" y="0" version="1.1" viewBox="0 0 48 48" xml:space="preserve"><style type="text/css">.st0{fill:url(#SVGID_1_)}.st0,.st1,.st2,.st3,.st4,.st5,.st6{fill-rule:evenodd;clip-rule:evenodd}.st1{fill:url(#SVGID_2_)}.st2{fill:url(#SVGID_3_)}.st3{fill:url(#SVGID_4_)}.st4{fill:url(#SVGID_5_)}.st5{fill:url(#SVGID_6_)}.st6{fill:#bcc0cf}.st7{fill:#a2a6b3}.st8{fill:url(#SVGID_7_)}.st9{fill:url(#SVGID_8_)}</style><g><linearGradient id="SVGID_1_" x1="-76.741" x2="-76.741" y1="148.223" y2="174.798" gradientTransform="matrix(1.5 0 0 -1.5 136.5 270.3346)" gradientUnits="userSpaceOnUse"><stop style="stop-color:#1d2130" offset="0"/><stop style="stop-color:#3e445a" offset="1"/></linearGradient><path d="M3.5,11.9l25-3.7c0.7-0.1,1.4,0.3,1.6,0.9l10.3,31.2c0.3,0.8-0.1,1.5-0.9,1.7l-28,6.1 c-0.8,0.2-1.6-0.3-1.8-1.2L2.4,13.2C2.2,12.6,2.7,12,3.5,11.9z" class="st0"/><linearGradient id="SVGID_2_" x1="-76.637" x2="-76.637" y1="148.446" y2="175.021" gradientTransform="matrix(1.5 0 0 -1.5 136.5 270.3346)" gradientUnits="userSpaceOnUse"><stop style="stop-color:#262b3f" offset="0"/><stop style="stop-color:#656e91" offset="1"/></linearGradient><path d="M3.6,11.5l25-3.7c0.7-0.1,1.4,0.3,1.6,0.9l10.3,31.2c0.3,0.8-0.1,1.5-0.9,1.7l-28,6.1 c-0.8,0.2-1.6-0.3-1.8-1.2L2.5,12.9C2.4,12.2,2.9,11.6,3.6,11.5z" class="st1"/><linearGradient id="SVGID_3_" x1="-75.052" x2="-75.052" y1="151.534" y2="177.459" gradientTransform="matrix(1.5 0 0 -1.5 136.5 270.3346)" gradientUnits="userSpaceOnUse"><stop style="stop-color:#267550" offset="0"/><stop style="stop-color:#79b881" offset="1"/></linearGradient><path d="M6,7.8l24.8-3.6c0.7-0.1,1.4,0.3,1.6,0.9l10.5,30.6c0.3,0.7-0.1,1.5-0.9,1.6L14.8,43c-0.8,0.2-1.6-0.3-1.8-1.1 L4.9,9.1C4.8,8.5,5.3,7.9,6,7.8z" class="st2"/><linearGradient id="SVGID_4_" x1="-74.948" x2="-74.948" y1="151.757" y2="177.682" gradientTransform="matrix(1.5 0 0 -1.5 136.5 270.3346)" gradientUnits="userSpaceOnUse"><stop style="stop-color:#279264" offset="0"/><stop style="stop-color:#a4f3aa" offset="1"/></linearGradient><path d="M6.1,7.5l24.8-3.6c0.7-0.1,1.4,0.3,1.6,0.9L43,35.4c0.3,0.7-0.1,1.5-0.9,1.6L15,42.7c-0.8,0.2-1.6-0.3-1.8-1.1 L5.1,8.8C4.9,8.2,5.4,7.6,6.1,7.5z" class="st3"/><linearGradient id="SVGID_5_" x1="-73.3" x2="-73.3" y1="154.648" y2="180" gradientTransform="matrix(1.5 0 0 -1.5 136.5 270.3346)" gradientUnits="userSpaceOnUse"><stop style="stop-color:#cecfd0" offset=".59"/><stop style="stop-color:#dfdfdf" offset="1"/></linearGradient><path d="M8.6,3.9l24.6-3.5c0.7-0.1,1.4,0.3,1.6,0.9l10.6,30c0.3,0.7-0.1,1.4-0.8,1.6l-26.7,5.5 c-0.8,0.2-1.6-0.3-1.8-1.1l-8.4-32C7.5,4.6,7.9,4,8.6,3.9z" class="st4"/><linearGradient id="SVGID_6_" x1="-73.196" x2="-73.196" y1="154.872" y2="180.223" gradientTransform="matrix(1.5 0 0 -1.5 136.5 270.3346)" gradientUnits="userSpaceOnUse"><stop style="stop-color:#eaeef0" offset="0"/><stop style="stop-color:#fff" offset=".41"/></linearGradient><path d="M8.8,3.5L33.4,0c0.7-0.1,1.4,0.3,1.6,0.9l10.6,30c0.3,0.7-0.1,1.4-0.8,1.6L18,38c-0.8,0.2-1.6-0.3-1.8-1.1 l-8.4-32C7.6,4.2,8.1,3.6,8.8,3.5z" class="st5"/><path d="M22.1,23.3l10.8-2c0.2,0,0.3,0.1,0.4,0.2l1.8,5.8c0.1,0.2-0.1,0.4-0.2,0.4l-11,2.1c-0.2,0-0.3-0.1-0.4-0.2 l-1.7-5.9C21.8,23.5,21.9,23.4,22.1,23.3z M21.1,23.8l1.6,6c0.1,0.5,0.6,0.7,1.1,0.7L35,28.3c0.5-0.1,0.9-0.7,0.7-1.2l-1.8-5.7 c-0.1-0.4-0.6-0.7-1-0.6l-10.9,1.9C21.3,22.8,21,23.3,21.1,23.8z M23.3,24.3l1.1,4l1.2-0.3L25,25.7l1.7,1.3l0.8-1.9l0.7,2.4 l1.2-0.3l-1.2-3.9L27,23.6l-0.8,1.7l-1.7-1.3L23.3,24.3z M32.2,24.9l-0.6-2.1L30.3,23l0.6,2.1l-1.1,0.2l2.4,1.6l1.2-2.3L32.2,24.9z" class="st6"/><path d="M35.1,27.5l-0.1,0.3l0,0.1c0,0.1-0.1,0.1-0.2,0.1l-11,2.1c-0.2,0-0.3-0.1-0.4-0.2L21.7,24c0-0.1,0-0.1,0-0.2 c0,0,0,0,0,0l0,0l0.1-0.3c0,0.1,0,0.1,0,0.2l0,0.2l1.6,5.8c0,0.2,0.2,0.3,0.4,0.2l11-2.1h0C34.9,27.7,35,27.6,35.1,27.5z M35.5,27.9c0-0.2,0-0.3,0-0.5l-1.8-5.7c-0.1-0.4-0.6-0.7-1-0.6L21.7,23c-0.2,0-0.4,0.2-0.6,0.4c0.1-0.3,0.4-0.6,0.7-0.7l10.9-1.9 c0.5-0.1,0.9,0.2,1,0.6l1.8,5.7C35.8,27.4,35.7,27.7,35.5,27.9z M33.4,24.6L33.2,25l-1.1,0.2l-0.6-2.1l-1,0.2L30.3,23l1.3-0.2 l0.6,2.1L33.4,24.6z M30.7,25.1l0.2,0l-0.2,0.3l-0.6,0.1l-0.4-0.2L30.7,25.1z M26.2,25.3L26,25.7l-1.7-1.3l-1,0.2l-0.1-0.3l1.2-0.2 L26.2,25.3z M29.4,27.3l-0.2,0.1l-1.1-3.6L26.8,24l0.2-0.3l1.3-0.2L29.4,27.3z M25.2,26.3L25,25.7l-0.2,0.3l0.6,2l0.2-0.1 L25.2,26.3z" class="st7"/><linearGradient id="SVGID_7_" x1="-78.169" x2="-67.472" y1="183.994" y2="149.003" gradientTransform="matrix(1.5 0 0 -1.5 136.5 270.3346)" gradientUnits="userSpaceOnUse"><stop style="stop-color:#73cb8d" offset=".22"/><stop style="stop-color:#2f9869" offset=".4"/></linearGradient><path d="M18.7,8.1l-3.2,0.4l11.4,10.6l4.1-13l-3,0.5l-2.4,7.6L18.7,8.1z" class="st8"/><linearGradient id="SVGID_8_" x1="-79.537" x2="-62.789" y1="187.14" y2="138.5" gradientTransform="matrix(1.5 0 0 -1.5 136.5 270.3346)" gradientUnits="userSpaceOnUse"><stop style="stop-color:#586080" offset=".25"/><stop style="stop-color:#2c3247" offset=".35"/></linearGradient><path d="M18.7,8.1l2.9-0.4l2.6,2.3l1-2.8l2.7-0.4l-2.4,7.6L18.7,8.1z" class="st9"/></g></svg>