<?xml version="1.0" standalone="no"?>
<!DOCTYPE svg PUBLIC "-//W3C//DTD SVG 20010904//EN"
 "http://www.w3.org/TR/2001/REC-SVG-20010904/DTD/svg10.dtd">
<svg version="1.0" xmlns="http://www.w3.org/2000/svg"
 width="513.000000pt" height="512.000000pt" viewBox="0 0 513.000000 512.000000"
 preserveAspectRatio="xMidYMid meet">

<g transform="translate(0.000000,512.000000) scale(0.100000,-0.100000)"
fill="#000000" stroke="none">
<path d="M2350 3680 l0 -160 -148 0 c-133 0 -152 -2 -192 -22 -33 -17 -51 -35
-67 -68 -23 -44 -23 -49 -23 -460 l0 -416 283 -281 c275 -274 283 -281 330
-288 32 -5 59 -3 83 6 22 9 134 113 314 294 l280 279 -1 376 c-1 405 -5 466
-35 507 -48 64 -62 68 -235 71 l-159 3 0 160 0 159 -215 0 -215 0 0 -160z
m326 -568 c51 -27 109 -87 129 -136 21 -51 22 -151 1 -198 -50 -117 -173 -183
-292 -158 -206 43 -282 293 -135 440 79 79 202 101 297 52z"/>
</g>
</svg>
