<?xml version="1.0" encoding="utf-8"?>
<!-- Generator: Adobe Illustrator 24.3.0, SVG Export Plug-In . SVG Version: 6.00 Build 0)  -->
<svg version="1.1" id="Layer_1" xmlns:serif="http://www.serif.com/"
	 xmlns="http://www.w3.org/2000/svg" xmlns:xlink="http://www.w3.org/1999/xlink" x="0px" y="0px" viewBox="0 0 48 48"
	 style="enable-background:new 0 0 48 48;" xml:space="preserve">
<style type="text/css">
	.st0{fill:#FFFFFF;}
	.st1{fill:#265787;}
	.st2{fill:#EA7600;}
</style>
<g transform="matrix(0.281237,0,0,0.281237,-41.7927,-43.702)">
	<g transform="matrix(21.6344,0,0,21.6344,-4856.82,7664.68)">
		<path class="st0" d="M234.5-342.8c0-0.5,0.3-1,0.7-1.3c0.4-0.3,0.9-0.5,1.4-0.5c0.5,0,1,0.2,1.4,0.5c0.4,0.3,0.6,0.8,0.7,1.3
			c0,0.5-0.2,1-0.6,1.4c-0.4,0.4-0.9,0.6-1.5,0.6c-0.6,0-1.1-0.2-1.5-0.6C234.6-341.8,234.4-342.3,234.5-342.8z"/>
	</g>
	<g transform="matrix(11.1008,0,0,11.1008,-2215.13,4153.11)">
		<path class="st1" d="M220.9-351.7c0-0.5,0.3-1,0.7-1.3c0.4-0.3,0.9-0.5,1.4-0.5c0.5,0,1,0.2,1.4,0.5c0.4,0.3,0.6,0.8,0.7,1.3
			c0,0.5-0.2,1-0.6,1.4c-0.4,0.4-0.9,0.6-1.5,0.6c-0.6,0-1.1-0.2-1.5-0.6C221.1-350.6,220.9-351.1,220.9-351.7z"/>
	</g>
	<g transform="matrix(11.1008,0,0,11.1008,-2215.13,4153.11)">
		<path class="st2" d="M217.6-350.6c0,0.2,0.1,0.6,0.2,0.9c0.2,0.6,0.5,1.2,1,1.8c0.5,0.5,1.1,1,1.8,1.3c0.7,0.3,1.5,0.5,2.3,0.5
			c0.8,0,1.6-0.2,2.3-0.5c0.7-0.3,1.3-0.7,1.8-1.3c0.5-0.5,0.8-1.1,1-1.8c0.1-0.3,0.2-0.7,0.2-1c0-0.3,0-0.7,0-1
			c-0.1-0.6-0.3-1.2-0.7-1.8c-0.3-0.5-0.7-0.9-1.2-1.3l0,0l-4.8-3.7c0,0,0,0,0,0c-0.3-0.2-0.8-0.2-1.2,0c-0.4,0.2-0.4,0.7-0.1,0.9
			l0,0l2,1.6l-6.1,0h0c-0.5,0-1,0.3-1.1,0.8c-0.1,0.4,0.2,0.8,0.8,0.8l0,0l3.1,0l-5.5,4.2c0,0,0,0,0,0c-0.5,0.4-0.7,1.1-0.4,1.5
			c0.3,0.4,1,0.4,1.6,0l3-2.5C217.7-351.2,217.6-350.8,217.6-350.6z M225.4-349.5c-0.6,0.6-1.5,1-2.4,1c-0.9,0-1.8-0.4-2.4-1
			c-0.3-0.3-0.5-0.7-0.7-1c-0.1-0.4-0.2-0.8-0.2-1.2c0-0.4,0.1-0.8,0.3-1.1c0.2-0.3,0.4-0.6,0.7-0.9c0.6-0.5,1.4-0.8,2.2-0.8
			c0.8,0,1.6,0.3,2.2,0.8c0.3,0.3,0.6,0.5,0.7,0.9c0.2,0.3,0.3,0.7,0.3,1.1c0,0.4,0,0.8-0.2,1.2
			C225.9-350.2,225.7-349.8,225.4-349.5z"/>
	</g>
</g>
</svg>
