<svg xmlns="http://www.w3.org/2000/svg"  
    viewBox="0 0 48 48" 
    width="48px" 
    height="48px" 
    fill-rule="evenodd" 
    clip-rule="evenodd" 
    baseProfile="basic">
    <linearGradient id="N8aMJ-jZ4-cfldZrsnvhda" x1="38.263" x2="10.15" y1="1373.62" y2="1342.615" gradientTransform="translate(0 -1333.89)" gradientUnits="userSpaceOnUse">
        <stop offset="0" stop-color="#823af3"/>
        <stop offset=".36" stop-color="#4b66e1"/>
        <stop offset=".906" stop-color="#01f1c4"/>
    </linearGradient>
    <path fill="url(#N8aMJ-jZ4-cfldZrsnvhda)" fill-rule="evenodd" d="M44,24c0,11.045-8.955,20-20,20S4,35.045,4,24	S12.955,4,24,4S44,12.955,44,24z" clip-rule="evenodd"/>
    <path fill="#fff" fill-rule="evenodd" d="M29.194,26.962c-0.835,0.915-2.007,1.378-2.556,1.378	c-0.635,0-0.982-0.389-1.053-0.974c-0.024-0.224-0.016-0.45,0.024-0.673c0.21-1.31,0.692-2.124,0.662-2.372	c-0.009-0.071-0.049-0.106-0.101-0.106c-0.406,0-1.83,1.47-2.046,2.443l-0.168,0.779c-0.11,0.549-0.648,0.902-1.018,0.902	c-0.177,0-0.311-0.088-0.334-0.283c-0.007-0.089,0-0.178,0.021-0.266l0.079-0.41c-0.768,0.574-1.596,0.962-1.984,0.962	c-0.53,0-0.827-0.283-0.933-0.709c-0.35,0.461-0.813,0.709-1.306,0.709c-0.63,0-1.237-0.417-1.528-1.034	c-0.415,0.466-0.907,0.922-1.496,1.299c-0.869,0.55-1.836,0.992-2.982,0.992c-1.058,0-1.956-0.566-2.453-1.026	c-0.737-0.69-1.126-1.718-1.241-2.656c-0.362-2.957,1.438-6.834,4.227-8.533c0.64-0.39,1.357-0.584,2.008-0.584	c1.34,0,2.34,0.958,2.48,2.104c0.126,1.032-0.286,1.924-1.431,2.501c-0.584,0.296-0.874,0.282-0.965,0.141	c-0.061-0.094-0.026-0.254,0.091-0.351c1.076-0.899,1.096-1.637,0.97-2.677c-0.082-0.669-0.522-1.098-1.016-1.098	c-2.115,0-5.149,4.745-4.727,8.197c0.165,1.346,0.99,2.904,2.682,2.904c0.564,0,1.162-0.159,1.694-0.425	c0.928-0.474,1.453-0.85,1.98-1.464c-0.13-1.596,1.24-3.6,3.278-3.6c0.882,0,1.612,0.354,1.698,1.062	c0.108,0.885-0.646,1.062-0.928,1.062c-0.247,0-0.643-0.071-0.671-0.301c-0.03-0.248,0.534-0.106,0.464-0.673	c-0.043-0.354-0.411-0.478-0.763-0.478c-1.269,0-1.97,1.77-1.835,2.869c0.061,0.496,0.315,0.991,0.774,0.991	c0.37,0,0.904-0.531,1.109-1.31c0.13-0.531,0.632-0.885,1.003-0.885c0.194,0,0.328,0.088,0.352,0.283	c0.008,0.071,0.002,0.16-0.021,0.266c-0.042,0.23-0.219,0.996-0.21,1.154c0.006,0.138,0.086,0.328,0.326,0.328	c0.19,0,0.89-0.378,1.538-0.958c0.203-1.051,0.454-2.351,0.474-2.454c0.079-0.426,0.232-0.865,1.096-0.865	c0.177,0,0.311,0.088,0.337,0.301c0.008,0.07,0.002,0.16-0.021,0.266l-0.242,1.093c0.758-1.01,1.936-1.752,2.642-1.752	c0.3,0,0.531,0.158,0.57,0.478c0.022,0.178-0.03,0.478-0.147,0.814c-0.251,0.69-0.533,1.727-0.72,2.62	c-0.04,0.19,0.026,0.476,0.373,0.476c0.277,0,1.166-0.339,1.885-1.288c-0.005-0.134-0.007-0.27-0.007-0.408	c0-0.744,0.053-1.346,0.194-1.787c0.141-0.461,0.723-0.902,1.11-0.902c0.194,0,0.335,0.106,0.335,0.318	c0,0.071-0.018,0.16-0.053,0.248c-0.264,0.779-0.405,1.506-0.405,2.231c0,0.407,0.088,1.062,0.177,1.398	c0.018,0.071,0.034,0.142,0.105,0.142c0.123,0,0.952-0.814,1.551-1.806c-0.53-0.337-0.829-0.956-0.829-1.718	c0-1.274,0.758-1.93,1.498-1.93c0.582,0,1.11,0.425,1.11,1.274c0,0.532-0.212,1.134-0.51,1.718c0,0,0.123,0.018,0.176,0.018	c0.458,0,0.811-0.213,1.006-0.443c0.088-0.1,0.17-0.178,0.248-0.224c0.59-0.713,1.455-1.228,2.47-1.228	c0.864,0,1.61,0.337,1.696,1.045c0.11,0.902-0.661,1.08-0.926,1.08c-0.264,0-0.661-0.071-0.689-0.301s0.551-0.106,0.484-0.654	c-0.043-0.354-0.413-0.496-0.766-0.496c-1.182,0-1.994,1.576-1.838,2.85c0.062,0.514,0.299,1.01,0.758,1.01	c0.37,0,0.923-0.532,1.127-1.31c0.131-0.514,0.632-0.885,1.002-0.885c0.176,0,0.328,0.088,0.354,0.301	c0.013,0.106-0.03,0.337-0.227,1.168c-0.081,0.354-0.097,0.655-0.066,0.903c0.063,0.514,0.298,0.85,0.516,1.045	c0.079,0.07,0.126,0.158,0.132,0.213c0.017,0.142-0.091,0.266-0.267,0.266c-0.053,0-0.123,0-0.181-0.035	c-0.908-0.372-1.285-0.991-1.391-1.576c-0.35,0.442-0.814,0.69-1.29,0.69c-0.811,0-1.603-0.709-1.715-1.629	c-0.046-0.378-0.001-0.785,0.123-1.184c-0.329,0.203-0.683,0.316-1.001,0.316c-0.106,0-0.194,0-0.299-0.018	c-0.793,1.15-1.622,1.947-2.257,2.302c-0.264,0.142-0.51,0.213-0.687,0.213c-0.142,0-0.3-0.035-0.37-0.159	C29.367,27.91,29.258,27.474,29.194,26.962L29.194,26.962z M32.067,23.191c0,0.496,0.246,1.01,0.564,1.346	c0.124-0.337,0.194-0.673,0.194-1.01c0-0.638-0.247-0.921-0.441-0.921C32.155,22.606,32.067,22.926,32.067,23.191z" 
    clip-rule="evenodd"/>
    <style type="text/css">
	.st0{fill:#FFFFFF;}
	.st1{fill:#265787;}
	.st2{fill:#EA7600;}
</style>

</svg>