<?xml version="1.0" encoding="utf-8"?>
<!-- Generator: Adobe Illustrator 24.3.0, SVG Export Plug-In . SVG Version: 6.00 Build 0)  -->
<svg version="1.1" id="Layer_1" xmlns="http://www.w3.org/2000/svg" xmlns:xlink="http://www.w3.org/1999/xlink" x="0px" y="0px"
	 viewBox="0 0 48 48" style="enable-background:new 0 0 48 48;" xml:space="preserve">
<style type="text/css">
	.st0{fill:#0ACF83;}
	.st1{fill:#A259FF;}
	.st2{fill:#F24E1E;}
	.st3{fill:#FF7262;}
	.st4{fill:#1ABCFE;}
</style>
<g>
	<path class="st0" d="M16,48c4.4,0,8-3.6,8-8v-8h-8c-4.4,0-8,3.6-8,8C8,44.4,11.6,48,16,48z"/>
	<path class="st1" d="M8,24c0-4.4,3.6-8,8-8h8v16h-8C11.6,32,8,28.4,8,24z"/>
	<path class="st2" d="M8,8c0-4.4,3.6-8,8-8h8v16h-8C11.6,16,8,12.4,8,8z"/>
	<path class="st3" d="M24,0h8c4.4,0,8,3.6,8,8c0,4.4-3.6,8-8,8h-8V0z"/>
	<path class="st4" d="M40,24c0,4.4-3.6,8-8,8c-4.4,0-8-3.6-8-8c0-4.4,3.6-8,8-8C36.4,16,40,19.6,40,24z"/>
</g>
</svg>
