<svg xmlns="http://www.w3.org/2000/svg" xmlns:xlink="http://www.w3.org/1999/xlink" id="Layer_1" x="0" y="0" version="1.1" viewBox="0 0 48 48" xml:space="preserve" style="enable-background:new 0 0 48 48"><style type="text/css">.st0{fill:#0acf83}.st1{fill:#a259ff}.st2{fill:#f24e1e}.st3{fill:#ff7262}.st4{fill:#1abcfe}</style><g><path d="M16,48c4.4,0,8-3.6,8-8v-8h-8c-4.4,0-8,3.6-8,8C8,44.4,11.6,48,16,48z" class="st0"/><path d="M8,24c0-4.4,3.6-8,8-8h8v16h-8C11.6,32,8,28.4,8,24z" class="st1"/><path d="M8,8c0-4.4,3.6-8,8-8h8v16h-8C11.6,16,8,12.4,8,8z" class="st2"/><path d="M24,0h8c4.4,0,8,3.6,8,8c0,4.4-3.6,8-8,8h-8V0z" class="st3"/><path d="M40,24c0,4.4-3.6,8-8,8c-4.4,0-8-3.6-8-8c0-4.4,3.6-8,8-8C36.4,16,40,19.6,40,24z" class="st4"/></g></svg>