<?xml version="1.0" encoding="utf-8"?>
<!-- Generator: Adobe Illustrator 24.3.0, SVG Export Plug-In . SVG Version: 6.00 Build 0)  -->
<svg version="1.1" id="Layer_1" xmlns="http://www.w3.org/2000/svg" xmlns:xlink="http://www.w3.org/1999/xlink" x="0px" y="0px"
	 viewBox="0 0 48 48" style="enable-background:new 0 0 48 48;" xml:space="preserve">
<style type="text/css">
	.st0{fill:#FF3366;}
	.st1{fill:#FFFFFF;}
</style>
<g>
	<path class="st0" d="M43.7,0H4.4C2,0,0,1.9,0,4.3v39.3C0,46.1,2,48,4.4,48h39.3c2.4,0,4.3-1.9,4.3-4.3V4.3C48,1.9,46.1,0,43.7,0z"
		/>
	<g>
		<path class="st1" d="M16,15.1c1.6,0,2.9-1.3,2.9-2.9S17.6,9.3,16,9.3c-1.6,0-2.9,1.3-2.9,2.9S14.5,15.1,16,15.1z"/>
		<path class="st1" d="M10,30.6c-0.2,0.7-0.3,1.5-0.3,2.2c0,2.5,1.4,4.2,4.3,4.2c2.4,0,4.4-1.4,5.8-3.8L19,36.7h4.8l2.8-11.1
			c0.7-2.8,2-4.3,4.1-4.3c1.6,0,2.6,1,2.6,2.6c0,0.5,0,1-0.2,1.5l-1.4,5.1c-0.2,0.7-0.3,1.5-0.3,2.2c0,2.4,1.4,4.2,4.4,4.2
			c2.5,0,4.6-1.6,5.7-5.6l-1.9-0.7c-0.9,2.6-1.8,3.1-2.4,3.1s-1-0.4-1-1.3c0-0.4,0.1-0.8,0.2-1.3l1.4-5C38,25,38.1,24,38.1,23
			c0-3.7-2.2-5.6-5-5.6c-2.5,0-5.1,2.3-6.4,4.7l0.9-4.3h-7.4l-1,3.8h3.5l-2.1,8.5c-1.7,3.7-4.7,3.8-5.1,3.7c-0.6-0.1-1-0.4-1-1.2
			c0-0.5,0.1-1.1,0.3-2L18,17.8H9.8l-1,3.8h3.4L10,30.6z"/>
	</g>
</g>
</svg>
