<svg xmlns="http://www.w3.org/2000/svg" xmlns:xlink="http://www.w3.org/1999/xlink" id="Layer_1" x="0" y="0" version="1.1" viewBox="0 0 48 48" xml:space="preserve" style="enable-background:new 0 0 48 48"><style type="text/css">.st0{fill:#ff6c37}.st1{fill:#fff}</style><g><path d="M43,9.3C34.9-1.2,19.8-3.1,9.3,5S-3.1,28.2,5,38.7S28.2,51.1,38.7,43c0,0,0,0,0,0C49.2,34.9,51.1,19.8,43,9.3 L43,9.3z" class="st0"/><path d="M32.1,15.3L22,25.5l-2.9-2.9C29.1,12.6,30.1,13.5,32.1,15.3L32.1,15.3z" class="st1"/><path d="M22,25.8c-0.1,0-0.2,0-0.2-0.1l-2.9-2.9c-0.1-0.1-0.1-0.4,0-0.5c9.8-9.8,11.2-9.4,13.5-7.3 c0.1,0.1,0.1,0.2,0.1,0.3c0,0.1,0,0.2-0.1,0.3L22.2,25.7C22.2,25.7,22.1,25.8,22,25.8L22,25.8z M19.6,22.6l2.4,2.4l9.6-9.6 c-0.7-0.9-1.9-1.1-2.8-0.5C27,15.6,24.2,18,19.6,22.6z" class="st0"/><path d="M24.9,28.3l-2.8-2.8l10.1-10C35,18.1,30.9,22.6,24.9,28.3L24.9,28.3z" class="st1"/><path d="M24.9,28.7c-0.1,0-0.2,0-0.2-0.1l-2.8-2.8c0-0.1,0-0.2,0-0.3c0-0.1,0-0.2,0-0.3l10.1-10.1 c0.1-0.1,0.4-0.1,0.5,0c0.7,0.6,1,1.5,1,2.4c0,2.7-3.1,6.1-8.3,11.1C25.1,28.6,25,28.7,24.9,28.7L24.9,28.7z M22.6,25.5l2.3,2.3 c4-3.8,7.8-7.7,7.8-10.3c0-0.6-0.2-1.1-0.5-1.5L22.6,25.5z" class="st0"/><path d="M19.2,22.6l2,2c0,0,0.1,0.1,0,0.2l0,0L17,25.7c-0.2,0-0.4,0-0.4-0.2c-0.1-0.2-0.1-0.4,0.1-0.5l2.5-2.4 C19.1,22.6,19.2,22.6,19.2,22.6z" class="st1"/><path d="M16.9,26.1c-0.3,0-0.5-0.1-0.7-0.4c-0.2-0.3-0.1-0.7,0.1-0.9l2.4-2.5c0.2-0.2,0.5-0.2,0.6,0l2,2 c0.1,0.1,0.2,0.3,0.1,0.4c0,0.2-0.2,0.3-0.3,0.3L17,26L16.9,26.1z M19.1,23.1l-2.3,2.3l3.7-0.8L19.1,23.1z" class="st0"/><path d="M37.5,9.7c-1.5-1.4-3.7-1.5-5.2-0.1c-1.5,1.3-1.8,3.6-0.6,5.2c1.2,1.6,3.4,2.1,5.1,1l-2.7-2.7L37.5,9.7z" class="st1"/><path d="M34.8,16.7c-1.7,0-3.2-1.1-3.9-2.6s-0.3-3.4,0.9-4.6c1.7-1.6,4.3-1.6,6,0c0.1,0.1,0.1,0.2,0.1,0.3 s0,0.2-0.1,0.3l-3.2,3.1l2.5,2.4c0.1,0.1,0.1,0.2,0.1,0.3c0,0.1-0.1,0.2-0.2,0.3C36.3,16.5,35.5,16.7,34.8,16.7L34.8,16.7z M34.8,9 c-1.4,0-2.7,0.9-3.2,2.2s-0.2,2.8,0.8,3.8c1,1,2.5,1.3,3.9,0.7l-2.4-2.4c-0.1-0.1-0.1-0.2-0.1-0.3s0-0.2,0.1-0.2l3.1-3.1 C36.3,9.2,35.6,9,34.8,9L34.8,9z" class="st0"/><path d="M37.5,9.7l-3.4,3.4l2.7,2.7c0.3-0.2,0.5-0.3,0.8-0.6C39.1,13.7,39.1,11.3,37.5,9.7z" class="st1"/><path d="M36.8,16.2c-0.1,0-0.2,0-0.2-0.1l-2.7-2.7c-0.1-0.1-0.1-0.2-0.1-0.3s0-0.2,0.1-0.2l3.4-3.3 c0.1-0.2,0.3-0.2,0.5-0.1c0,0,0.1,0.1,0.1,0.1c1.7,1.6,1.7,4.3,0.1,5.9c0,0,0,0-0.1,0.1c-0.2,0.2-0.5,0.5-0.8,0.6 C36.9,16.2,36.8,16.2,36.8,16.2L36.8,16.2z M34.6,13.1l2.3,2.3c0.2-0.1,0.3-0.2,0.4-0.4c0.7-0.7,1-1.6,1-2.5c0-0.8-0.3-1.7-0.9-2.3 L34.6,13.1z" class="st0"/><path d="M32.5,15.7c-0.6-0.5-1.4-0.5-2,0l-9.1,9l1.5,1.5l9.6-8.4c0.3-0.3,0.5-0.7,0.5-1.1S32.8,16,32.5,15.7L32.5,15.7 z" class="st1"/><path d="M22.9,26.6c-0.1,0-0.2,0-0.2-0.1L21.1,25c-0.1-0.1-0.1-0.4,0-0.5l9.1-9c0.7-0.7,1.9-0.7,2.6,0 c0.4,0.4,0.6,0.9,0.5,1.4c0,0.5-0.2,1-0.6,1.3l-9.6,8.4C23,26.6,23,26.6,22.9,26.6L22.9,26.6z M21.8,24.8l1,1l9.4-8.2 c0.2-0.2,0.4-0.5,0.4-0.8c0-0.3-0.1-0.6-0.3-0.8c-0.4-0.4-1.1-0.4-1.6,0L21.8,24.8z" class="st0"/><path d="M14.4,35c-0.1,0.1-0.1,0.2,0,0.2l0.4,1.7c0,0.2-0.1,0.4-0.2,0.5c-0.2,0.1-0.4,0.1-0.6-0.1l-2.7-2.6l8.5-8.6h3 l2,2C21.7,31,18.2,33.3,14.4,35z" class="st1"/><path d="M14.3,38c-0.2,0-0.5-0.1-0.6-0.3L11,35.1C11,35,10.9,35,10.9,34.9s0-0.2,0.1-0.2l8.6-8.6c0,0,0.1-0.1,0.2-0.1 h3c0.1,0,0.2,0,0.2,0l2,2c0.1,0.1,0.1,0.2,0.1,0.3c0,0.1,0,0.2-0.1,0.3l-0.2,0.1c-3.1,2.6-6.6,4.8-10.3,6.6l0.4,1.6 c0.1,0.5-0.2,0.9-0.6,1c-0.1,0-0.1,0-0.2,0L14.3,38z M11.8,34.8l2.4,2.4c0,0,0.1,0,0.2,0c0,0,0-0.1,0-0.1l-0.4-1.7 c-0.1-0.3,0.1-0.5,0.3-0.6c3.6-1.7,6.9-3.9,10-6.4l-1.6-1.6h-2.7L11.8,34.8z" class="st0"/><path d="M9.2,36.9l2-2l3.1,3.1l-4.9-0.3c-0.2,0-0.3-0.1-0.4-0.3S9.1,37,9.2,36.9L9.2,36.9z" class="st1"/><path d="M14.4,38.3L9.5,38c-0.3,0-0.5-0.2-0.6-0.5c-0.1-0.3,0-0.6,0.2-0.8l2-2c0.1-0.1,0.4-0.1,0.5,0l3.1,3.1 c0.1,0.1,0.1,0.3,0,0.4C14.5,38.2,14.4,38.3,14.4,38.3L14.4,38.3z M9.5,37.2l4,0.3l-2.2-2.1L9.5,37.2z" class="st0"/><path d="M23.1,26.5l-4,0.6l2.3-2.3L23.1,26.5z" class="st1"/><path d="M19,27.5c-0.1,0-0.3-0.1-0.3-0.2c-0.1-0.1-0.1-0.3,0-0.4l2.3-2.3c0.1-0.1,0.4-0.1,0.5,0l1.7,1.7 c0.1,0.1,0.1,0.2,0,0.4c0,0.1-0.1,0.2-0.3,0.3L19,27.5C19,27.5,19,27.5,19,27.5z M21.4,25.3l-1.3,1.3l2.2-0.3L21.4,25.3z" class="st0"/><path d="M23.1,26.5l-2.8,0.4c-0.2,0-0.4-0.1-0.4-0.3c0-0.1,0-0.2,0.1-0.3l1.5-1.5L23.1,26.5z" class="st1"/><path d="M20.2,27.2c-0.3,0-0.5-0.1-0.6-0.4c-0.2-0.3-0.1-0.6,0.1-0.9l1.5-1.5c0.1-0.1,0.4-0.1,0.5,0l1.7,1.7 c0.1,0.1,0.2,0.4,0,0.5c-0.1,0.1-0.1,0.1-0.2,0.1l-2.8,0.4L20.2,27.2z M20.2,26.5l2.1-0.3l-0.9-0.9L20.2,26.5 C20.1,26.5,20.2,26.5,20.2,26.5z M37.6,12c-0.1-0.1-0.2-0.2-0.4-0.1c-0.1,0-0.1,0.1-0.1,0.2c0,0.1,0,0.1,0,0.2 c0.1,0.3,0.1,0.6-0.1,0.9c-0.1,0-0.1,0.1-0.1,0.2c0,0.1,0,0.1,0.1,0.2c0,0,0.1,0,0.2,0c0.1,0,0.2,0,0.3-0.1 C37.7,13.1,37.8,12.5,37.6,12L37.6,12z" class="st0"/></g></svg>