<?xml version="1.0" encoding="utf-8"?>
<!-- Generator: Adobe Illustrator 24.3.0, SVG Export Plug-In . SVG Version: 6.00 Build 0)  -->
<svg version="1.1" id="Layer_1" xmlns="http://www.w3.org/2000/svg" xmlns:xlink="http://www.w3.org/1999/xlink" x="0px" y="0px"
	 viewBox="0 0 192.8 192.8" style="enable-background:new 0 0 192.8 192.8;" xml:space="preserve">
<style type="text/css">
	.st0{fill-rule:evenodd;clip-rule:evenodd;fill:#423A90;}
	.st1{fill-rule:evenodd;clip-rule:evenodd;fill:#DF9F38;}
	.st2{fill-rule:evenodd;clip-rule:evenodd;fill:#C9222F;}
</style>
<g>
	<path class="st0" d="M90.2,95.3c-25.4-7.5-53-1-57.2,0.1c-6.4,1.7-10.1,3.4-9.9,5.4c0.2,1.5,1.8,2.5,9.7,2.3
		c18.7-0.5,34.2,0.2,44,2.9c12.1,3.4,13.6,9.6,7.6,21.9c-2.8,5.7-6.9,11.5-13.1,17.8c-12.4,12.5-27.9,20.6-36.7,25
		c-8.5,4.3-11.6,2-10.7-2.2c1.2-5.2,25.3-46.9,25.3-46.9c1.8-3.2,2.1-6.1,0-7c-1.8-0.8-5.1,1.8-8.6,5.8
		c-14.1,16.3-40,66.1-40.5,67.7c-0.5,1.6,0.7,1.8,1.2,1.8c11-0.1,78.5-20,100.2-60.8C113,107.4,107.2,100.3,90.2,95.3z"/>
	<path class="st1" d="M123.8,75.6c-13.6,11.8,6.6,31.2,16.1,42.3c9.3,10.8,20.4,24.5,21,29.3c0.2,2.2-0.2,4.6-2.8,6.2
		c-4.2,2.6-21.7,5.2-57.8,5.2c-7.8,0-9.4,0.8-9.6,2.2c-0.1,0.7-0.4,2.4,9.6,4.9c0.3,0.1,41.4,7.6,63.4,0c22.4-7.6,16.8-20.6,12.8-28
		c-6.2-11.5-34.8-44.9-37.1-49.4c-2.2-4.3,1-6.1,1-6.1s4.8-5.7,42.9-5.4c7.9,0.1,9.5-0.8,9.7-2.2c0.2-1.2-2.1-3.7-9.6-5.3
		C176.2,67.7,140.1,61.5,123.8,75.6z"/>
	<path class="st2" d="M74.7,6.3c-3,0.9-9.2,2.6-8.6,4.8c0.3,1.4,1.5,2.1,8.7,2.1c15.9,0,28.3,1,36.7,2.5
		c17.2,3.1,13.2,11.8,8.3,20.1c-11.9,20.2-44,43-45.8,44.3c-2.4,1.7-1.1,2.7,1,1.9c26-9.7,52.2-26.4,62.8-46.6
		c9-17.2,2.5-25.3-11.1-29.2C102.1-0.7,76.8,5.6,74.7,6.3z"/>
</g>
</svg>
