<?xml version="1.0" encoding="utf-8"?>
<!-- Generator: Adobe Illustrator 24.1.0, SVG Export Plug-In . SVG Version: 6.00 Build 0)  -->
<svg version="1.1" id="Layer_1" xmlns="http://www.w3.org/2000/svg" xmlns:xlink="http://www.w3.org/1999/xlink" x="0px" y="0px"
	 viewBox="0 0 240 234" style="enable-background:new 0 0 240 234;" xml:space="preserve">
<style type="text/css">
	.st0{fill:#470137;}
	.st1{fill:#FF61F6;}
</style>
<g id="Layer_2_1_">
	<g id="Surfaces">
		<g id="UI_UX_Surface">
			<g id="Outline_no_shadow">
				<path class="st0" d="M42.5,0h155C221,0,240,19,240,42.5v149c0,23.5-19,42.5-42.5,42.5h-155C19,234,0,215,0,191.5v-149
					C0,19,19,0,42.5,0z"/>
			</g>
		</g>
	</g>
	<g id="Outlined_Mnemonics_Logos">
		<g id="Xd">
			<path class="st1" d="M126.2,61.5L96.2,111l32,52.5c0.2,0.4,0.3,0.8,0.2,1.2c-0.1,0.4-0.5,0.1-1.1,0.2h-22.9
				c-1.6,0-2.7-0.1-3.4-1.1c-2.1-4.2-4.3-8.3-6.4-12.5c-2.1-4.1-4.4-8.3-6.8-12.6c-2.4-4.3-4.8-8.6-7.2-13h-0.2
				c-2.1,4.3-4.4,8.6-6.7,12.9c-2.3,4.3-4.6,8.6-6.8,12.8c-2.3,4.2-4.6,8.5-6.9,12.6c-0.4,1-1.2,1.1-2.3,1.1H35.7
				c-0.4,0-0.7,0.2-0.7-0.3c-0.1-0.4,0-0.8,0.2-1.1l31.1-51L36,61.4c-0.3-0.4-0.4-0.8-0.2-1c0.2-0.3,0.6-0.4,1-0.4h22.7
				c0.5,0,1,0.1,1.4,0.2c0.4,0.2,0.7,0.5,1,0.9c1.9,4.3,4.1,8.6,6.4,12.9c2.4,4.3,4.7,8.5,7.2,12.7c2.4,4.2,4.6,8.4,6.7,12.7h0.2
				c2.1-4.4,4.3-8.7,6.5-12.9c2.2-4.2,4.5-8.4,6.8-12.6c2.3-4.2,4.5-8.5,6.7-12.6c0.1-0.4,0.3-0.8,0.6-1c0.4-0.2,0.8-0.3,1.3-0.2
				h21.1c0.5-0.1,1,0.2,1.1,0.7C126.6,60.9,126.4,61.3,126.2,61.5L126.2,61.5z"/>
			<path class="st1" d="M172.4,167c-7.4,0.1-14.8-1.4-21.5-4.5c-6.3-2.9-11.5-7.7-15.1-13.6c-3.7-6.1-5.5-13.7-5.5-22.8
				c-0.1-7.4,1.8-14.7,5.5-21.1c3.8-6.5,9.3-11.9,15.9-15.5c7-3.9,15.4-5.8,25.3-5.8c0.5,0,1.2,0,2.1,0.1c0.9,0.1,1.9,0.1,3.1,0.2
				V52.4c0-0.7,0.3-1.1,1-1.1h20.3c0.5-0.1,0.9,0.3,1,0.7c0,0.1,0,0.2,0,0.2v95.2c0,1.8,0.1,3.8,0.2,6c0.2,2.1,0.3,4.1,0.4,5.8
				c0,0.7-0.3,1.3-1,1.6c-5.2,2.2-10.7,3.8-16.3,4.8C182.7,166.5,177.6,167,172.4,167z M182.2,147v-44c-0.9-0.2-1.8-0.4-2.7-0.5
				c-1.1-0.1-2.2-0.2-3.3-0.2c-3.9,0-7.8,0.8-11.3,2.6c-3.4,1.7-6.3,4.2-8.5,7.4c-2.2,3.2-3.3,7.5-3.3,12.7c-0.1,3.5,0.5,7,1.7,10.3
				c1,2.7,2.5,5.1,4.5,7.1c1.9,1.8,4.2,3.2,6.8,4c2.7,0.9,5.5,1.3,8.3,1.3c1.5,0,2.9-0.1,4.2-0.2C179.9,147.6,181,147.4,182.2,147z"
				/>
		</g>
	</g>
</g>
</svg>
