<?xml version="1.0" encoding="utf-8"?>
<!-- Generator: Adobe Illustrator 24.3.0, SVG Export Plug-In . SVG Version: 6.00 Build 0)  -->
<svg version="1.1" id="Layer_1" xmlns="http://www.w3.org/2000/svg" xmlns:xlink="http://www.w3.org/1999/xlink" x="0px" y="0px"
	 viewBox="0 0 48 48" style="enable-background:new 0 0 48 48;" xml:space="preserve">
<style type="text/css">
	.st0{fill:#FFA000;}
	.st1{fill:#F57F17;}
	.st2{fill:#FFCA28;}
</style>
<g>
	<path class="st0" d="M29.4,17.3l-4.8,4.5l-4.5-9l2.3-5.2c0.6-1,1.5-1,2.1,0L29.4,17.3z"/>
	<path class="st1" d="M20.2,12.8l4.5,9l-18,16.7L20.2,12.8z"/>
	<path class="st2" d="M34.7,10.5c0.9-0.8,1.7-0.5,2,0.6l4.7,27.2l-15.5,9.3c-0.5,0.3-2,0.4-2,0.4s-1.3-0.2-1.8-0.4L6.7,38.5
		L34.7,10.5z"/>
	<path class="st0" d="M20.2,12.8L6.7,38.5l6-37.6c0.2-1.2,0.9-1.3,1.5-0.3L20.2,12.8z"/>
</g>
</svg>
