<svg xmlns="http://www.w3.org/2000/svg" xmlns:xlink="http://www.w3.org/1999/xlink" id="Layer_1" x="0" y="0" version="1.1" viewBox="0 0 48 48" xml:space="preserve" style="enable-background:new 0 0 48 48"><style type="text/css">.st0{fill:#ffa000}.st1{fill:#f57f17}.st2{fill:#ffca28}</style><g><path d="M29.4,17.3l-4.8,4.5l-4.5-9l2.3-5.2c0.6-1,1.5-1,2.1,0L29.4,17.3z" class="st0"/><path d="M20.2,12.8l4.5,9l-18,16.7L20.2,12.8z" class="st1"/><path d="M34.7,10.5c0.9-0.8,1.7-0.5,2,0.6l4.7,27.2l-15.5,9.3c-0.5,0.3-2,0.4-2,0.4s-1.3-0.2-1.8-0.4L6.7,38.5 L34.7,10.5z" class="st2"/><path d="M20.2,12.8L6.7,38.5l6-37.6c0.2-1.2,0.9-1.3,1.5-0.3L20.2,12.8z" class="st0"/></g></svg>