<svg xmlns="http://www.w3.org/2000/svg" xmlns:xlink="http://www.w3.org/1999/xlink" id="Layer_1" x="0" y="0" version="1.1" viewBox="0 0 5.1 5.1" xml:space="preserve" style="enable-background:new 0 0 5.1 5.1"><style type="text/css">.st0{fill:#6762a6}.st1{fill:#fff}</style><path d="M4.1,5.1H1c-0.3,0-0.5-0.2-0.5-0.5V0.5C0.5,0.2,0.7,0,1,0h3.2c0.3,0,0.5,0.2,0.5,0.5v4.1	C4.6,4.9,4.4,5.1,4.1,5.1z" class="st0"/><path d="M3,4.4v-2c0,0,0.1-0.5-1.6,0.2c0,0,0-1.9,0-1.9l0.6,0v1.2c0,0,1.6-0.6,1.6,0.5v2L3,4.4L3,4.4z M3.3,1.4H2.7	c0.2-0.3,0.4-0.7,0.4-0.7h0.6C3.8,0.7,3.7,1,3.3,1.4L3.3,1.4z M1.4,4.4V3.3l0.6,0.6L1.4,4.4L1.4,4.4z" class="st1"/></svg>